<svg xmlns="http://www.w3.org/2000/svg" width="16.742" height="16.742" viewBox="0 0 16.742 16.742">
  <g id="Icon_ionic-ios-add-circle-outline" data-name="Icon ionic-ios-add-circle-outline" transform="translate(20.117 20.117) rotate(180)">
    <path id="패스_1872" data-name="패스 1872" d="M18.44,14.154h-3v-3a.644.644,0,1,0-1.288,0v3h-3a.617.617,0,0,0-.644.644.623.623,0,0,0,.644.644h3v3a.624.624,0,0,0,.644.644.641.641,0,0,0,.644-.644v-3h3a.644.644,0,0,0,0-1.288Z" transform="translate(-3.052 -3.052)" fill="#fff"/>
    <path id="패스_1873" data-name="패스 1873" d="M11.746,4.5A7.241,7.241,0,1,1,6.623,6.623,7.2,7.2,0,0,1,11.746,4.5m0-1.127a8.371,8.371,0,1,0,8.371,8.371,8.37,8.37,0,0,0-8.371-8.371Z" fill="#fff"/>
  </g>
</svg>
