<svg xmlns="http://www.w3.org/2000/svg" width="18.656" height="16.991" viewBox="0 0 18.656 16.991">
  <g id="i_header01" transform="translate(-2 -3.5)">
    <path id="패스_4389" data-name="패스 4389" d="M4.666,10.5H17.991a1.666,1.666,0,0,1,1.666,1.666v8.328a1.666,1.666,0,0,1-1.666,1.666H4.666A1.666,1.666,0,0,1,3,20.494V12.166A1.666,1.666,0,0,1,4.666,10.5Z" transform="translate(0 -2.669)" fill="none" stroke="#fff" stroke-linecap="round" stroke-linejoin="round" stroke-width="2"/>
    <path id="패스_4390" data-name="패스 4390" d="M18.663,19.491V6.166A1.666,1.666,0,0,0,17,4.5H13.666A1.666,1.666,0,0,0,12,6.166V19.491" transform="translate(-4.003)" fill="none" stroke="#fff" stroke-linecap="round" stroke-linejoin="round" stroke-width="2"/>
  </g>
</svg>
