<svg xmlns="http://www.w3.org/2000/svg" xmlns:xlink="http://www.w3.org/1999/xlink" width="17.642" height="24.991" viewBox="0 0 17.642 24.991">
  <defs>
    <clipPath id="clip-path">
      <rect id="사각형_726" data-name="사각형 726" width="17.642" height="24.991" fill="none"/>
    </clipPath>
  </defs>
  <g id="그룹_653" data-name="그룹 653" transform="translate(0 0)">
    <g id="그룹_652" data-name="그룹 652" transform="translate(0 0)" clip-path="url(#clip-path)">
      <path id="패스_1693" data-name="패스 1693" d="M2.06,10.5l.134.061a.1.1,0,0,0,.136-.051l.112-.251a5.759,5.759,0,0,0,1.838.464L3.744,11.91a.258.258,0,0,1-.339.128L.151,10.569a.256.256,0,0,1-.128-.339l.542-1.2a5.711,5.711,0,0,0,1.557,1.084l-.113.248a.1.1,0,0,0,.051.136M4.7,9.791l-.389.864a5.792,5.792,0,0,1-1.839-.462l.093-.2a.1.1,0,0,0-.053-.136l-.133-.059a.1.1,0,0,0-.136.05l-.09.2A5.712,5.712,0,0,1,.594,8.964l.383-.852a.256.256,0,0,1,.339-.128l1,.452.1-.231a.28.28,0,0,1,.369-.14l.749.339a.278.278,0,0,1,.138.367l-.1.23,1,.452a.255.255,0,0,1,.128.338m-1.32-.876.092-.2A.086.086,0,0,0,3.437,8.6l-.728-.329a.088.088,0,0,0-.11.051l-.09.2ZM2.345,10.307l-.2-.089-.09.2.2.089ZM15.58,24.991h1.346a.717.717,0,0,0,.716-.716V12.184a.717.717,0,0,0-.716-.718H15.58a.716.716,0,0,0-.715.718v12.09a.716.716,0,0,0,.715.716m-4.106,0h1.345a.716.716,0,0,0,.716-.716V15.149a.717.717,0,0,0-.716-.717H11.474a.718.718,0,0,0-.716.717v9.125a.717.717,0,0,0,.716.716m-4.106,0H8.714a.716.716,0,0,0,.716-.716V17.59a.717.717,0,0,0-.716-.718H7.368a.716.716,0,0,0-.715.718v6.685a.716.716,0,0,0,.715.716m-4.105,0H4.608a.717.717,0,0,0,.716-.716V20.149a.716.716,0,0,0-.716-.716H3.263a.716.716,0,0,0-.717.716v4.126a.717.717,0,0,0,.717.716M9.1,3.257A1.715,1.715,0,1,0,6.8,2.47a1.718,1.718,0,0,0,2.3.787M12.7,5.124h0l-2.008.985L9.879,4.449A.627.627,0,0,0,9.386,4.1L7.741,3.917,6.468,3.748A.639.639,0,0,0,6.11,3.8L4.019,4.828a.626.626,0,0,0-.326.395l-.618,2.2a.626.626,0,1,0,1.205.339L4.822,5.83,6.108,5.2,5.469,9.188a.794.794,0,0,0,.052.569L6.3,11.338l-2.651,1.3a.806.806,0,0,0,.7,1.451l0,0,3.375-1.655a.805.805,0,0,0,.37-1.078L7.258,9.64,8.27,9.8l0-.01,1.5.387L11.2,13.085a.807.807,0,0,0,1.075.372l0,0a.805.805,0,0,0,.37-1.078l-1.589-3.24a.8.8,0,0,0-.521-.425L8.528,8.194,8.969,5.44l.874,1.784a.629.629,0,0,0,.835.289l0,0,2.571-1.259A.627.627,0,0,0,12.7,5.124" transform="translate(0 0)" fill="#fff"/>
    </g>
  </g>
</svg>
