<svg xmlns="http://www.w3.org/2000/svg" width="17.71" height="17.984" viewBox="0 0 17.71 17.984">
  <path id="i_header05" d="M19.54.72H5.371A1.657,1.657,0,0,0,3.6,2.219V17.205a1.657,1.657,0,0,0,1.771,1.5H19.54a1.657,1.657,0,0,0,1.771-1.5V2.219A1.657,1.657,0,0,0,19.54.72ZM8.913,15.707a.828.828,0,0,1-.886.749H6.257a.828.828,0,0,1-.886-.749v-.375a.828.828,0,0,1,.886-.749H8.028a.828.828,0,0,1,.886.749Zm0-3a.828.828,0,0,1-.886.749H6.257a.828.828,0,0,1-.886-.749v-.375a.828.828,0,0,1,.886-.749H8.028a.828.828,0,0,1,.886.749Zm0-3a.828.828,0,0,1-.886.749H6.257a.828.828,0,0,1-.886-.749V9.337a.828.828,0,0,1,.886-.749H8.028a.828.828,0,0,1,.886.749Zm5.313,5.995a.828.828,0,0,1-.886.749H11.57a.828.828,0,0,1-.886-.749v-.375a.828.828,0,0,1,.886-.749h1.771a.828.828,0,0,1,.886.749v.375Zm0-3a.828.828,0,0,1-.886.749H11.57a.828.828,0,0,1-.886-.749v-.375a.828.828,0,0,1,.886-.749h1.771a.828.828,0,0,1,.886.749v.375Zm0-3a.828.828,0,0,1-.886.749H11.57a.828.828,0,0,1-.886-.749V9.337a.828.828,0,0,1,.886-.749h1.771a.828.828,0,0,1,.886.749v.375Zm5.313,5.995a.828.828,0,0,1-.886.749H16.883A.828.828,0,0,1,16,15.707v-.375a.828.828,0,0,1,.886-.749h1.771a.828.828,0,0,1,.886.749Zm0-3a.828.828,0,0,1-.886.749H16.883A.828.828,0,0,1,16,12.709v-.375a.828.828,0,0,1,.886-.749h1.771a.828.828,0,0,1,.886.749Zm0-3a.828.828,0,0,1-.886.749H16.883A.828.828,0,0,1,16,9.712V9.337a.828.828,0,0,1,.886-.749h1.771a.828.828,0,0,1,.886.749Zm0-3.372a.828.828,0,0,1-.886.749H6.257a.828.828,0,0,1-.886-.749v-3a.828.828,0,0,1,.886-.749h12.4a.828.828,0,0,1,.886.749Z" transform="translate(-3.6 -0.72)" fill="#fff"/>
</svg>
