<svg xmlns="http://www.w3.org/2000/svg" xmlns:xlink="http://www.w3.org/1999/xlink" width="17.736" height="19.019" viewBox="0 0 17.736 19.019">
  <defs>
    <clipPath id="clip-path">
      <rect id="사각형_725" data-name="사각형 725" width="17.736" height="19.019" fill="none"/>
    </clipPath>
  </defs>
  <g id="i_header_g_04" transform="translate(0 0)">
    <g id="그룹_650" data-name="그룹 650" transform="translate(0 0)" clip-path="url(#clip-path)">
      <path id="패스_1692" data-name="패스 1692" d="M13.759,4.014a2.007,2.007,0,1,1,2.007-2.007,2.007,2.007,0,0,1-2.007,2.007m3.924,5.654-1-4.163a1.937,1.937,0,0,0-3.807.691,1.789,1.789,0,0,1-.843.894,3.444,3.444,0,0,1-1.865.328.953.953,0,0,0-.847.841c-.034.41.352.674.883.654a4.837,4.837,0,0,0,2.459-.475,2.186,2.186,0,0,0,.626-.429l.614,2.563a1.93,1.93,0,0,0,1.041,1.285V18.1a1.04,1.04,0,0,0,1.13.916,1.041,1.041,0,0,0,1.13-.916V11.451a1.936,1.936,0,0,0,.477-1.782M4.887,4.014A2.007,2.007,0,1,0,2.881,2.008,2.008,2.008,0,0,0,4.887,4.014M3.058,11.855c0,.008,0,.011-.018.011a1.907,1.907,0,0,0-.2-.019H2.686a.412.412,0,0,0-.23.051l0,.079h.6ZM1.441,15.916V18.1a1.04,1.04,0,0,0,1.13.916A1.04,1.04,0,0,0,3.7,18.1V15.916Zm2.267-3.785h1.45a.371.371,0,0,1,.37.372V15.39a.371.371,0,0,1-.37.372H.372A.371.371,0,0,1,0,15.39V12.5a.372.372,0,0,1,.372-.372H1.821v-.448a.371.371,0,0,1,.37-.372H3.337a.371.371,0,0,1,.371.372Zm-1.392,0h.9v-.276c0-.089-.166-.163-.371-.163H2.686c-.2,0-.37.073-.37.163Zm1.4-7.084a.683.683,0,0,0-.881.366l-.978,5.253a.685.685,0,0,0,.548.783.684.684,0,0,0,.882-.367L4.261,5.83a.682.682,0,0,0-.548-.783m4.765,2.37a3.434,3.434,0,0,1-1.867-.324,1.749,1.749,0,0,1-.833-.888A1.944,1.944,0,0,0,1.96,5.5l-1,4.165a1.958,1.958,0,0,0,.479,1.782v.524h.224v-.293a.51.51,0,0,1,.208-.409.731.731,0,0,1-.17-.648l.979-5.239a.773.773,0,0,1,.781-.531.969.969,0,0,1,.293.046.833.833,0,0,1,.655.972L3.44,11.112c-.008.024-.023.039-.031.062a.517.517,0,0,1,.455.51v.069a1.943,1.943,0,0,0,.88-1.18l.61-2.562a2.074,2.074,0,0,0,.624.424,4.9,4.9,0,0,0,2.461.478c.533.015.918-.247.888-.655a.96.96,0,0,0-.848-.841" transform="translate(0 0)" fill="#fff"/>
    </g>
  </g>
</svg>
