<svg xmlns="http://www.w3.org/2000/svg" xmlns:xlink="http://www.w3.org/1999/xlink" width="12.865" height="18.631" viewBox="0 0 12.865 18.631">
  <defs>
    <clipPath id="clip-path">
      <rect id="사각형_721" data-name="사각형 721" width="12.865" height="18.631" fill="none"/>
    </clipPath>
  </defs>
  <g id="i_header_g_07" transform="translate(0 0)">
    <g id="그룹_642" data-name="그룹 642" transform="translate(0 0)" clip-path="url(#clip-path)">
      <path id="패스_1688" data-name="패스 1688" d="M5.876,9.153H6.989v5.576H5.876ZM6.432,0A6.511,6.511,0,0,0,1.308,10.425c1.168,1.553,1.494,2.216,1.507,3.016A1.287,1.287,0,0,0,4.1,14.729h.764V9.153H3.91A1.886,1.886,0,1,1,5.8,7.267a1.868,1.868,0,0,1-.227.879H7.3a1.868,1.868,0,0,1-.227-.879A1.886,1.886,0,1,1,8.955,9.153H8v5.575h.764a1.287,1.287,0,0,0,1.287-1.287c.013-.8.34-1.463,1.507-3.016A6.511,6.511,0,0,0,6.432,0m-3.4,7.267a.878.878,0,1,0,.878-.878.879.879,0,0,0-.878.878m6.8,0a.878.878,0,1,0-.878.879.879.879,0,0,0,.878-.879m-.374,9.014a.5.5,0,0,0-.5-.5H3.91a.5.5,0,1,0,0,1.007H8.955a.5.5,0,0,0,.5-.5m-.626,1.846a.5.5,0,0,0-.5-.5H4.536a.5.5,0,1,0,0,1.007H8.329a.5.5,0,0,0,.5-.5" transform="translate(0 0)" fill="#fff"/>
    </g>
  </g>
</svg>
