<svg xmlns="http://www.w3.org/2000/svg" xmlns:xlink="http://www.w3.org/1999/xlink" width="19.115" height="18.974" viewBox="0 0 19.115 18.974">
  <defs>
    <clipPath id="clip-path">
      <rect id="사각형_723" data-name="사각형 723" width="19.115" height="18.974" transform="translate(0 0)" fill="none"/>
    </clipPath>
  </defs>
  <g id="i_header_g_02" transform="translate(0 0)">
    <g id="그룹_646" data-name="그룹 646" clip-path="url(#clip-path)">
      <path id="패스_1690" data-name="패스 1690" d="M7.433,3.952A2.125,2.125,0,1,1,9.557,6.076,2.125,2.125,0,0,1,7.433,3.952m4.942,3.026H6.794a.723.723,0,0,0-.723.724v4.8a.723.723,0,0,0,.723.723H7.46v5.026a.723.723,0,0,0,.723.723h2.8a.723.723,0,0,0,.723-.723V13.225h.666A.724.724,0,0,0,13.1,12.5V7.7a.724.724,0,0,0-.724-.724m3.442-3.021a1.979,1.979,0,1,0-1.978-1.979,1.979,1.979,0,0,0,1.978,1.979m2.624.84h-5.2a.673.673,0,0,0-.673.673v.076A2.172,2.172,0,0,1,14.551,7.7v4.8a2.164,2.164,0,0,1-.686,1.577v1.214a.673.673,0,0,0,.673.673h2.609a.673.673,0,0,0,.674-.673v-4.68h.62a.673.673,0,0,0,.674-.673V5.47a.673.673,0,0,0-.674-.673M5.276,1.978A1.979,1.979,0,1,0,3.3,3.957,1.979,1.979,0,0,0,5.276,1.978M0,5.47V9.94a.673.673,0,0,0,.673.673h.621v4.68a.673.673,0,0,0,.673.673h2.61a.673.673,0,0,0,.673-.673V14.079A2.164,2.164,0,0,1,4.564,12.5V7.7a2.171,2.171,0,0,1,1.98-2.156V5.47A.673.673,0,0,0,5.871,4.8H.673A.673.673,0,0,0,0,5.47" fill="#fff"/>
    </g>
  </g>
</svg>
