<svg xmlns="http://www.w3.org/2000/svg" xmlns:xlink="http://www.w3.org/1999/xlink" width="16.661" height="18.011" viewBox="0 0 16.661 18.011">
  <defs>
    <clipPath id="clip-path">
      <rect id="사각형_727" data-name="사각형 727" width="16.661" height="18.011" fill="none"/>
    </clipPath>
  </defs>
  <g id="i_header_g_01" transform="translate(0 0)">
    <g id="그룹_654" data-name="그룹 654" transform="translate(0 0)" clip-path="url(#clip-path)">
      <path id="패스_1694" data-name="패스 1694" d="M4.419,14.5c.044-.248.5-.611.5-.85,0-.221-.442-.522-.478-.734a11.192,11.192,0,0,1,.558-2.4l-2.3.841A3.345,3.345,0,0,0,0,14.877v1.3a1.4,1.4,0,0,0,.009.275c.124.452,1.08.814,2.549,1.071.973.158,1.983.283,2.992.354,0,0-1.3-2.5-1.132-3.381m.823-.8c-.009.221-.452.531-.5.753-.2.884,1.115,3.451,1.115,3.451.461.036.92.062,1.381.072-.381-1.6-1.222-6.461-1.478-8.294a6.869,6.869,0,0,1-.769.832,7.154,7.154,0,0,0-.31,2.319c.08.247.557.6.557.867M10.9,9.681c-.247,1.833-1.1,6.692-1.478,8.294.47-.009.921-.035,1.381-.072,0,0,1.248-2.557,1.124-3.451-.035-.221-.5-.531-.5-.753-.009-.256.5-.619.549-.867a8.959,8.959,0,0,0-.311-2.319,6.875,6.875,0,0,1-.77-.832m5.762,6.5v-1.3a3.346,3.346,0,0,0-2.69-3.523l-2.3-.841a12.242,12.242,0,0,1,.567,2.4c-.026.221-.487.513-.487.734-.009.239.478.6.5.85.1.885-1.133,3.381-1.133,3.381,1.017-.071,2.017-.2,2.992-.354,1.469-.257,2.434-.619,2.549-1.071a1.4,1.4,0,0,0,.009-.275M8.33,12.833c-.247.4-1,1.114-.991,1.575,0,.231.452.531.495.744a9.524,9.524,0,0,1-.593,2.824,16.419,16.419,0,0,0,2.177,0,9.783,9.783,0,0,1-.6-2.824c.044-.213.5-.513.5-.744.009-.46-.743-1.177-.991-1.575M11.5,3.965c-.106-.77-.212-1.638-1.017-1.638a3.845,3.845,0,0,0-1.106.221A13.565,13.565,0,0,1,6.162,3.1c-.54.035-.9.442-1.071,1.194a.933.933,0,0,0-.4-.593,3.03,3.03,0,0,1,.593-2.505A3.621,3.621,0,0,1,8.064,0a3.952,3.952,0,0,1,2.248.69l.035.027L10.4.725c1.426.23,1.646,1.858,1.638,2.921-.318.08-.433.355-.5.656-.009-.115-.027-.221-.045-.337m-3.168,6.3A3.39,3.39,0,0,1,6.171,9.54,6.209,6.209,0,0,1,5,7.293L4.949,7.15H4.808c-.195,0-.558-.583-.664-1.486-.115-.939.115-1.611.31-1.638a.644.644,0,0,1,.284.541c.035.46.257.5.354.5.141,0,.31-.115.355-.424C5.6,3.54,6.047,3.5,6.2,3.5a13.714,13.714,0,0,0,3.3-.566,3.3,3.3,0,0,1,.957-.2c.442,0,.54.487.646,1.284.026.2.053.4.088.585.071.362.274.4.363.4.141,0,.318-.115.354-.442.071-.522.177-.522.327-.522.177.017.4.69.292,1.628-.115.92-.46,1.46-.663,1.486l-.125.018-.044.125A5.55,5.55,0,0,1,10.5,9.531a3.344,3.344,0,0,1-2.151.735Z" transform="translate(0 0)" fill="#fff"/>
    </g>
  </g>
</svg>
