<svg xmlns="http://www.w3.org/2000/svg" xmlns:xlink="http://www.w3.org/1999/xlink" width="21.585" height="18.704" viewBox="0 0 21.585 18.704">
  <defs>
    <clipPath id="clip-path">
      <rect id="사각형_722" data-name="사각형 722" width="21.585" height="18.704" fill="#fff"/>
    </clipPath>
  </defs>
  <g id="i_header_g_03" transform="translate(1 0)">
    <g id="그룹_644" data-name="그룹 644" transform="translate(-1 0)" clip-path="url(#clip-path)">
      <path id="패스_1689" data-name="패스 1689" d="M15.121,9.785v.772H13.6V9.771a3.237,3.237,0,0,1-2.877-2.036l1.335-.692a2.422,2.422,0,0,0,2.392,1.348c1.007,0,1.955-.352,1.955-1.274,0-.8-.837-1.13-1.966-1.252C12.7,5.659,11.1,5.2,11.1,3.292c0-1.457,1.2-2.189,2.5-2.4V0h1.519V.861A3.115,3.115,0,0,1,17.732,2.5l-1.276.656a2.435,2.435,0,0,0-2.015-.947c-1.191,0-1.761.5-1.761,1.13,0,.74.875.947,1.895,1.068C16.348,4.626,18,5.088,18,7.116c0,1.658-1.286,2.488-2.878,2.669m5.665,4.2c-1.532-.51-2.707.612-5.364,1.581-.4.145-4.18-1.029-4.354-1.726-.112-.443,3.763.4,4.624-.258,1.537-1.182-.133-1.643-2.821-1.706,0,0-1.29-.207-3.6-.707-1.328-.288-4.907,1.26-4.907,1.26v5.036s2.369.437,3.139.6A67.779,67.779,0,0,0,16,18.475c.836-.106,5.227-3.605,5.479-3.762.2-.21.2-.43-.689-.727M0,18.7H3.53V12.429H0Z" transform="translate(0 0)" fill="#fff"/>
    </g>
  </g>
</svg>
