<svg xmlns="http://www.w3.org/2000/svg" width="16.742" height="16.742" viewBox="0 0 16.742 16.742">
  <g id="Icon_ionic-ios-add-circle-outline" data-name="Icon ionic-ios-add-circle-outline" transform="translate(20.117 20.117) rotate(180)">
    <path id="패스_1872" data-name="패스 1872" d="M18.44,14.154H11.156a.617.617,0,0,0-.644.644.623.623,0,0,0,.644.644H18.44a.644.644,0,0,0,0-1.288Z" transform="translate(-3.052 -3.052)" fill="#5b95cf"/>
    <path id="패스_1873" data-name="패스 1873" d="M14.798,17.44V10.156a.617.617,0,0,0-.644-.644.623.623,0,0,0-.644.644V17.44a.644.644,0,0,0,1.288,0Z" transform="translate(-2.252 -2.252)" fill="#5b95cf"/>
    <path id="패스_1874" data-name="패스 1874" d="M11.746,4.5A7.241,7.241,0,1,1,6.623,6.623,7.2,7.2,0,0,1,11.746,4.5m0-1.127a8.371,8.371,0,1,0,8.371,8.371,8.37,8.37,0,0,0-8.371-8.371Z" fill="#5b95cf"/>
  </g>
</svg>
