<svg xmlns="http://www.w3.org/2000/svg" width="18.164" height="15.757" viewBox="0 0 18.164 15.757">
  <g id="Icon_ionic-ios-menu" data-name="Icon ionic-ios-menu" transform="translate(-4.5 -10.125)">
    <path id="패스_1636" data-name="패스 1636" d="M21.907,12.719H5.257c-.416,0-.757-.584-.757-1.3h0c0-.713.341-1.3.757-1.3H21.907c.416,0,.757.584.757,1.3h0C22.664,12.135,22.324,12.719,21.907,12.719Z" transform="translate(0)" fill="#fff"/>
    <path id="패스_1637" data-name="패스 1637" d="M21.907,19.469H5.257c-.416,0-.757-.584-.757-1.3h0c0-.713.341-1.3.757-1.3H21.907c.416,0,.757.584.757,1.3h0C22.664,18.885,22.324,19.469,21.907,19.469Z" transform="translate(0 -0.168)" fill="#fff"/>
    <path id="패스_1638" data-name="패스 1638" d="M21.907,26.219H5.257c-.416,0-.757-.584-.757-1.3h0c0-.713.341-1.3.757-1.3H21.907c.416,0,.757.584.757,1.3h0C22.664,25.635,22.324,26.219,21.907,26.219Z" transform="translate(0 -0.337)" fill="#fff"/>
  </g>
</svg>
