<svg xmlns="http://www.w3.org/2000/svg" xmlns:xlink="http://www.w3.org/1999/xlink" width="353" height="323" viewBox="0 0 353 323">
  <defs>
    <clipPath id="clip-path">
      <rect id="사각형_1650" data-name="사각형 1650" width="353" height="245" rx="30" transform="translate(0 -0.14)" fill="#fff"/>
    </clipPath>
    <filter id="사각형_1646" x="82" y="0" width="180" height="180" filterUnits="userSpaceOnUse">
      <feOffset dy="3" input="SourceAlpha"/>
      <feGaussianBlur stdDeviation="10" result="blur"/>
      <feFlood flood-opacity="0.161"/>
      <feComposite operator="in" in2="blur"/>
      <feComposite in="SourceGraphic"/>
    </filter>
    <filter id="사각형_1653" x="121.899" y="67.604" width="60.111" height="60.11" filterUnits="userSpaceOnUse">
      <feOffset input="SourceAlpha"/>
      <feGaussianBlur stdDeviation="3" result="blur-2"/>
      <feFlood flood-color="#69e49b"/>
      <feComposite operator="in" in2="blur-2"/>
      <feComposite in="SourceGraphic"/>
    </filter>
    <filter id="사각형_1652" x="123.282" y="30.011" width="114.804" height="114.804" filterUnits="userSpaceOnUse">
      <feOffset input="SourceAlpha"/>
      <feGaussianBlur stdDeviation="8.5" result="blur-3"/>
      <feFlood flood-color="#69e49b"/>
      <feComposite operator="in" in2="blur-3"/>
      <feComposite in="SourceGraphic"/>
    </filter>
  </defs>
  <g id="alert_green" transform="translate(4332 -10300)">
    <rect id="사각형_1651" data-name="사각형 1651" width="300" height="48" rx="24" transform="translate(-4309 10575)" fill="#69e49b"/>
    <rect id="사각형_1644" data-name="사각형 1644" width="350" height="245" rx="30" transform="translate(-4332 10359)" fill="#fff"/>
    <g id="마스크_그룹_23" data-name="마스크 그룹 23" transform="translate(-4332 10359.14)" clip-path="url(#clip-path)">
      <rect id="사각형_1647" data-name="사각형 1647" width="228" height="228" rx="114" transform="translate(58 -86.14)" fill="#f2fcfb"/>
      <rect id="사각형_1648" data-name="사각형 1648" width="192" height="192" rx="96" transform="translate(76 -68.14)" fill="#e5f9f7"/>
      <rect id="사각형_1649" data-name="사각형 1649" width="156" height="156" rx="78" transform="translate(94 -50.14)" fill="#c7efe4"/>
    </g>
    <g transform="matrix(1, 0, 0, 1, -4332, 10300)" filter="url(#사각형_1646)">
      <rect id="사각형_1646-2" data-name="사각형 1646" width="120" height="120" rx="60" transform="translate(112 27)" fill="#69e49b"/>
    </g>
    <g transform="matrix(1, 0, 0, 1, -4332, 10300)" filter="url(#사각형_1653)">
      <rect id="사각형_1653-2" data-name="사각형 1653" width="17.445" height="42.108" transform="translate(130.9 88.94) rotate(-45)" fill="#fff"/>
    </g>
    <g transform="matrix(1, 0, 0, 1, -4332, 10300)" filter="url(#사각형_1652)">
      <rect id="사각형_1652-2" data-name="사각형 1652" width="17.445" height="72.788" transform="translate(200.25 55.51) rotate(45)" fill="#fff"/>
    </g>
  </g>
</svg>
