<svg xmlns="http://www.w3.org/2000/svg" width="46.5" height="47.763" viewBox="0 0 46.5 47.763">
  <g id="그룹_786" data-name="그룹 786" transform="translate(-451.885 -114)">
    <g id="그룹_783" data-name="그룹 783" transform="translate(451.885 113.999)">
      <path id="패스_1863" data-name="패스 1863" d="M435.509,113.364s5.738-.935,6.826,3.555.989,5.177.989,5.177H429.786l-7.733-7.3,7.069-.353Z" transform="translate(-396.826 -111.999)" fill="#ab362f"/>
      <path id="패스_1864" data-name="패스 1864" d="M468.553,113.945s.081-1.275-9.912-1.275c-7.386,0-16.886-.432-21.342-.657a10.715,10.715,0,0,0-7.309,2.446,9.66,9.66,0,0,0-3.955,7.511c-.125,7.52,0,16.621,0,16.621s0,5.145,3.373,7.915,16.74,13.257,16.74,13.257L461.889,146.9s1.249-.594,1.124-3.957.125-14.247.125-14.247.153-8.964,5.415-14.752Z" transform="translate(-425.979 -111.999)" fill="#d03e34"/>
    </g>
  </g>
</svg>
