<svg xmlns="http://www.w3.org/2000/svg" xmlns:xlink="http://www.w3.org/1999/xlink" width="945" height="565" viewBox="0 0 945 565">
  <defs>
    <clipPath id="clip-path">
      <rect id="사각형_702" data-name="사각형 702" width="499.516" height="362.023" fill="#e2e2e2" stroke="#d1d1d1" stroke-width="1"/>
    </clipPath>
    <clipPath id="clip-path-2">
      <rect id="사각형_703" data-name="사각형 703" width="359.539" height="455.429" fill="#e2e2e2" stroke="#d1d1d1" stroke-width="1"/>
    </clipPath>
  </defs>
  <g id="그룹_685" data-name="그룹 685" transform="translate(-323.041 -108)">
    <g id="그룹_659" data-name="그룹 659">
      <g id="그룹_658" data-name="그룹 658" transform="translate(2 4)">
        <g id="그룹_656" data-name="그룹 656">
          <line id="선_421" data-name="선 421" x2="943.918" transform="translate(321.582 104.5)" fill="none" stroke="#eee" stroke-width="1"/>
          <line id="선_425" data-name="선 425" x2="943.918" transform="translate(321.582 254.5)" fill="none" stroke="#eee" stroke-width="1"/>
          <line id="선_429" data-name="선 429" x2="943.918" transform="translate(321.582 405.5)" fill="none" stroke="#eee" stroke-width="1"/>
          <line id="선_433" data-name="선 433" x2="943.918" transform="translate(321.582 555.5)" fill="none" stroke="#eee" stroke-width="1"/>
          <line id="선_424" data-name="선 424" x2="943.918" transform="translate(321.582 179.5)" fill="none" stroke="#eee" stroke-width="1"/>
          <line id="선_427" data-name="선 427" x2="943.918" transform="translate(321.582 330.5)" fill="none" stroke="#eee" stroke-width="1"/>
          <line id="선_431" data-name="선 431" x2="943.918" transform="translate(321.582 480.5)" fill="none" stroke="#eee" stroke-width="1"/>
          <line id="선_435" data-name="선 435" x2="943.918" transform="translate(321.582 630.5)" fill="none" stroke="#eee" stroke-width="1"/>
          <line id="선_422" data-name="선 422" x2="943.918" transform="translate(321.582 142.5)" fill="none" stroke="#eee" stroke-width="1"/>
          <line id="선_426" data-name="선 426" x2="943.918" transform="translate(321.582 292.5)" fill="none" stroke="#eee" stroke-width="1"/>
          <line id="선_430" data-name="선 430" x2="943.918" transform="translate(321.582 442.5)" fill="none" stroke="#eee" stroke-width="1"/>
          <line id="선_434" data-name="선 434" x2="943.918" transform="translate(321.582 593.5)" fill="none" stroke="#eee" stroke-width="1"/>
          <line id="선_423" data-name="선 423" x2="943.918" transform="translate(321.582 217.5)" fill="none" stroke="#eee" stroke-width="1"/>
          <line id="선_428" data-name="선 428" x2="943.918" transform="translate(321.582 367.5)" fill="none" stroke="#eee" stroke-width="1"/>
          <line id="선_432" data-name="선 432" x2="943.918" transform="translate(321.582 517.5)" fill="none" stroke="#eee" stroke-width="1"/>
          <line id="선_436" data-name="선 436" x2="943.918" transform="translate(321.582 668.5)" fill="none" stroke="#eee" stroke-width="1"/>
        </g>
        <g id="그룹_657" data-name="그룹 657" transform="translate(406.041 868.082) rotate(-90)">
          <line id="선_421-2" data-name="선 421" x2="564.459" transform="translate(199.582 -84.5)" fill="none" stroke="#eee" stroke-width="1"/>
          <line id="선_425-2" data-name="선 425" x2="564.459" transform="translate(199.582 65.5)" fill="none" stroke="#eee" stroke-width="1"/>
          <line id="선_429-2" data-name="선 429" x2="564.459" transform="translate(199.582 216.5)" fill="none" stroke="#eee" stroke-width="1"/>
          <line id="선_433-2" data-name="선 433" x2="564.459" transform="translate(199.582 366.5)" fill="none" stroke="#eee" stroke-width="1"/>
          <line id="선_424-2" data-name="선 424" x2="564.459" transform="translate(199.582 -9.5)" fill="none" stroke="#eee" stroke-width="1"/>
          <line id="선_427-2" data-name="선 427" x2="564.459" transform="translate(199.582 141.5)" fill="none" stroke="#eee" stroke-width="1"/>
          <line id="선_431-2" data-name="선 431" x2="564.459" transform="translate(199.582 291.5)" fill="none" stroke="#eee" stroke-width="1"/>
          <line id="선_435-2" data-name="선 435" x2="564.459" transform="translate(199.582 441.5)" fill="none" stroke="#eee" stroke-width="1"/>
          <line id="선_422-2" data-name="선 422" x2="564.459" transform="translate(199.582 -46.5)" fill="none" stroke="#eee" stroke-width="1"/>
          <line id="선_426-2" data-name="선 426" x2="564.459" transform="translate(199.582 103.5)" fill="none" stroke="#eee" stroke-width="1"/>
          <line id="선_430-2" data-name="선 430" x2="564.459" transform="translate(199.582 253.5)" fill="none" stroke="#eee" stroke-width="1"/>
          <line id="선_434-2" data-name="선 434" x2="564.459" transform="translate(199.582 404.5)" fill="none" stroke="#eee" stroke-width="1"/>
          <line id="선_423-2" data-name="선 423" x2="564.459" transform="translate(199.582 28.5)" fill="none" stroke="#eee" stroke-width="1"/>
          <line id="선_428-2" data-name="선 428" x2="564.459" transform="translate(199.582 178.5)" fill="none" stroke="#eee" stroke-width="1"/>
          <line id="선_432-2" data-name="선 432" x2="564.459" transform="translate(199.582 328.5)" fill="none" stroke="#eee" stroke-width="1"/>
          <line id="선_436-2" data-name="선 436" x2="564.459" transform="translate(199.582 479.5)" fill="none" stroke="#eee" stroke-width="1"/>
        </g>
        <line id="선_421-3" data-name="선 421" x2="564.459" transform="translate(927.541 668.5) rotate(-90)" fill="none" stroke="#eee" stroke-width="1"/>
        <line id="선_425-3" data-name="선 425" x2="564.459" transform="translate(1077.541 668.5) rotate(-90)" fill="none" stroke="#eee" stroke-width="1"/>
        <line id="선_429-3" data-name="선 429" x2="564.459" transform="translate(1228.541 668.5) rotate(-90)" fill="none" stroke="#eee" stroke-width="1"/>
        <line id="선_424-3" data-name="선 424" x2="564.459" transform="translate(1002.541 668.5) rotate(-90)" fill="none" stroke="#eee" stroke-width="1"/>
        <line id="선_427-3" data-name="선 427" x2="564.459" transform="translate(1153.541 668.5) rotate(-90)" fill="none" stroke="#eee" stroke-width="1"/>
        <line id="선_422-3" data-name="선 422" x2="564.459" transform="translate(965.541 668.5) rotate(-90)" fill="none" stroke="#eee" stroke-width="1"/>
        <line id="선_426-3" data-name="선 426" x2="564.459" transform="translate(1115.541 668.5) rotate(-90)" fill="none" stroke="#eee" stroke-width="1"/>
        <line id="선_423-3" data-name="선 423" x2="564.459" transform="translate(1040.541 668.5) rotate(-90)" fill="none" stroke="#eee" stroke-width="1"/>
        <line id="선_428-3" data-name="선 428" x2="564.459" transform="translate(1190.541 668.5) rotate(-90)" fill="none" stroke="#eee" stroke-width="1"/>
      </g>
      <line id="선_430-3" data-name="선 430" x2="564.459" transform="translate(1267.541 672.5) rotate(-90)" fill="none" stroke="#eee" stroke-width="1"/>
    </g>
    <g id="bg_map">
      <g id="그룹_626" data-name="그룹 626" transform="translate(348.73 239.304)">
        <g id="그룹_625" data-name="그룹 625" transform="translate(0 0)" clip-path="url(#clip-path)">
          <path id="패스_1667" data-name="패스 1667" d="M499.516,54.394l-1.469-19.915-21.953-1.766h-24.84l-6.01-6.377-19.268.719-3.613-5.1-25.171-1.334-8.832,4.418-9.024-1.889-8.513,1.889L369.2,14.508l-24.821.2-18.668-2.2,7.333-8.944L303.627,0,272.954,9.575l-22.068,2.941-4.068,5.942-2.191,6.579-9.618.5-3.34,5.34-5.616-12.668-7.025.3-6.4,12.37L192.14,27.055l-4.168,9.874H174.308l-13.744,9.51L157.022,40.5l-3.775,1.647v5.361L137.221,58.1l-9.155-11.361,14.826.958,4.147-4.559-16.78-8.914-11.8-1.4-8.212-4.277L101.5,31.408,81.6,36.928,66.689,60.881,56.478,68.466,56.3,79.673l10.454,3.5L71.3,79.12l5.882,13.573,6.6-5.292L88.5,78.036l-.43-12.414,9.494-9.6,9.651-3.99L101.5,63.358l-1.56,10.267,15.66,2.232-9.006,6.119L101.5,85.992l-4.472.291L91.912,99.729l-23.334-2.51-2.455-5.206-9.295,1.48,2.907,6.236-6.37,3.991L41.906,114.347l-8.829,3.771L40,126.391l-3.07,8.93H23.892l-3.054,8.816-.311,7.783,7.307,1.548L40,150.238l4.164-8.739,12.489-8.823,10.054-2.54L75.691,141.1l9,2.846-.28,4.8,2.119-1.9,3.45-3.085-8.656-6.34-7.09-9.783,7.371-1.251,14.275,18.828,1.777,5.3,5.206,3.783,1.85-4.472-1.807-8.086,7.415,0,1.163,9.559,10.8,4.618,9.448-1.331,2.216,6.836-7.043,9.036L111.085,169.4l-17.434-1.457s-10.5.988-12.049.133-11-4.733-11-4.733l-.738-8.235-11.3-1.64L40,157.03l-12.742,3.435-10.035,8.584-15.2,24.936L0,216.51l23.838,27.571H38.762l17.128-4.358,12.53,6.142-4.205,9.224,10.409,12.245,2.28,22.209-3.865,12.79,12.4,31.1,3.188,6.509,5.351,9.925,16.031-2.331,15.339-15.943,2.422-8.481,6-12.456,3.458-9.379,4.2-1.592,6.314-13.59.528-20.682L169.9,234.6l1.607-9.095-15.533.345L136.243,200.5l-7.669-21.877,6.714,4.833s15.722,22.758,16.295,25.678,4.468,11.006,4.468,11.006l15.283-3.432,13.651-8.3,10.473-13.923-10.266-9.132L173.1,186.63l-7.336-11.043,3.916-2.7,6.958,8.3,12.182,2.208,17.647,3.941,9.3,6.3,8.846,6.023,2.516-1.471,3.036,12.105,10.915,23.379,5.607-6.988,1.225-13.551,15.709-12.39,11.949-7.5,10.212,9.735-3.132,9.16,7.086-2.42,3.717,12.565-.5,11.77,7,11.139,8.144,5.6v-7.625l-10.663-11,.512-8.213,2.092-5.145,7.261,5.543,2.942,8.169,9.6-9.705-1.575-9.048-3.76-12.333,8.17-3.913,26.34-13.815,5.634-11.732-4.33-11.506,5.676-7.475-11.242-7.46,5.566-3.336,12.629,2.906,2.5,14.375,8.091-3.984-2.376-13.2,2.449-6.32,13.349-5.616,11.51-12.46,2.394-8.94,1.756,9.625,3.2-2.958.379-18.441-9.11-1.727-7.631-.457,9.971-9.476s6.058-8.095,8.532-8.694,17.761-1.394,17.761-1.394h9.641l6.509-5.456,9.352,1.946L437.313,92.384l4.737,9.125,12.637-8.575.8-10.756,11.207-7.384,8.662-.371,23.48-10.808L494.3,56.368Z" transform="translate(0 -0.001)" fill="#e2e2e2" stroke="#d1d1d1" stroke-width="1"/>
          <path id="패스_1668" data-name="패스 1668" d="M96.574,281.267l2.9,3.3-2.65,5.909.145,5.9,12.974-2.636v-5.284l-2.205-.951-2.624-6.235L99,278l2.729-7.016L96.574,268.6l-5.206,3.551,1.6,5.113Z" transform="translate(-63.876 -187.775)" fill="#e2e2e2" stroke="#d1d1d1" stroke-width="1"/>
          <path id="패스_1669" data-name="패스 1669" d="M66.92,320.1l.67-5.031,1.228-2.377-3.75-1.989-2.611.806-2.576,2.937v5.066l-2.642,3.661,5.218.871Z" transform="translate(-40.016 -217.213)" fill="#e2e2e2" stroke="#d1d1d1" stroke-width="1"/>
          <path id="패스_1670" data-name="패스 1670" d="M221.834,472.028,217.556,469l.161,3.92,1.6,2.129Z" transform="translate(-152.093 -327.879)" fill="#e2e2e2" stroke="#d1d1d1" stroke-width="1"/>
          <path id="패스_1671" data-name="패스 1671" d="M1183.949,963.045l-4.424-3.434-5.128-4.227-6.094,12.96-6.168-5.124.244-7.835h-14.742l-4.021,2.59.4,4.193-6.437-4.335-6.882,8.328s-8.949,6.973-10.6,8.481-16.2,6.663-16.2,6.663l1.278,11.466,2.035,10.443-2.34,10.243,5.464,7.3,9.764-7.709,13.28-1.408,18.468.191,9.177,6.263,6.932,2.53,11.415,9.3,17.832-6.339,5.956-21.089,1.4-12.012-10.338-9.475Z" transform="translate(-771.73 -667.906)" fill="#e2e2e2" stroke="#d1d1d1" stroke-width="1"/>
          <path id="패스_1672" data-name="패스 1672" d="M962.107,809.675l-7.408-5.129,1.943,6.242,3.792,8.98,9.585,8.1,8.5,3.178v-4.54l-8.11-6.738Z" transform="translate(-667.426 -562.455)" fill="#e2e2e2" stroke="#d1d1d1" stroke-width="1"/>
          <path id="패스_1673" data-name="패스 1673" d="M1254.615,859.871l13.553,4.428,1.168,6.936,8.388,2.014,5.778-3.731,7.454,3.835,8.957,2.865-6.349-10.108L1275.7,855.623l-8.634-1.181-5.776-.043-2.583-4.074-7.8,2.458Z" transform="translate(-874.5 -594.459)" fill="#e2e2e2" stroke="#d1d1d1" stroke-width="1"/>
          <path id="패스_1674" data-name="패스 1674" d="M1090.442,908.736l-12.563-1.871-11.616-2.833h-12.532l-3.666,4.147s9.442,2.022,9.744,2.617,14.321-1.32,14.321-1.32Z" transform="translate(-734.096 -632.005)" fill="#e2e2e2" stroke="#d1d1d1" stroke-width="1"/>
          <path id="패스_1675" data-name="패스 1675" d="M1086.016,820.989l2.519-8.021,2.875-7.514L1090.5,793.3l-8.637,4.413-5.445,4.238-6.788,3c-1.918,3.413,2.031,10.9,3.693,10.813s12.7,5.23,12.7,5.23" transform="translate(-747.413 -554.593)" fill="#e2e2e2" stroke="#d1d1d1" stroke-width="1"/>
          <path id="패스_1676" data-name="패스 1676" d="M1157.063,848.247l3.978.451-.545-7.4,4.5-6.02-3.872-1.734-6.351,3.672-1.086,4.589-.846,8.056Z" transform="translate(-805.947 -582.73)" fill="#e2e2e2" stroke="#d1d1d1" stroke-width="1"/>
          <path id="패스_1677" data-name="패스 1677" d="M1276.942,476.274l-5.084,5.761-8.622,5.365H1256.9l-.447,4.817,6.781.137,6.361-1.918,7.7-1.616,4.309-13.016-4.592-2.437Z" transform="translate(-878.383 -330.93)" fill="#e2e2e2" stroke="#d1d1d1" stroke-width="1"/>
          <path id="패스_1678" data-name="패스 1678" d="M1339.321,426.061l3.259-4.2-.382-2.24-5.953-7.725-1.58,5.69-1.739,4.132-.98,4.392,2.769-1.818Z" transform="translate(-931.158 -287.958)" fill="#e2e2e2" stroke="#d1d1d1" stroke-width="1"/>
          <path id="패스_1679" data-name="패스 1679" d="M520.765,961.044l-3.49,1.924-6.332,6.7.258,3.552-1.6,5.84V982.1l2.9,9.557,7.084-.948,8.186-31.4-4.227-3.606Z" transform="translate(-356.257 -668.123)" fill="#e2e2e2" stroke="#d1d1d1" stroke-width="1"/>
        </g>
      </g>
      <g id="그룹_629" data-name="그룹 629" transform="translate(888.731 160.786)">
        <path id="패스_1680" data-name="패스 1680" d="M901.839,0,865.7,7.91l-8.956,1.6L843.034,8.2,828.005,20.894,816.871,30.951l2.249,3.507,4.112,8.027L844.613,44.9l9.605,23.873V86.884l11.522,14.581,11.065,7.688,4.241-9.352,3.923-15.84,17.621-5.488L913.8,63.44l8.108-34.909,8.7-14.806L921.789,6.3Z" transform="translate(-571.072 -0.004)" fill="#e2e2e2" stroke="#d1d1d1" stroke-width="1"/>
        <g id="그룹_628" data-name="그룹 628" transform="translate(0 0)">
          <g id="그룹_627" data-name="그룹 627" clip-path="url(#clip-path-2)">
            <path id="패스_1681" data-name="패스 1681" d="M677.98,19.769V30.527l-6.089,4.254-6.61,9.285,17.941.884,5.267,1.2,2.888-6.123s4.427-13.943,6.144-13.078,16,2.7,15.41.561a14.191,14.191,0,0,1-.216-4.852l16.846-9.008,6.295-3.95-18.187-.1L689.85,7.533l-7.719,2.622-20.637,5.188,5.406,5.642Z" transform="translate(-462.448 -5.268)" fill="#e2e2e2" stroke="#d1d1d1" stroke-width="1"/>
            <path id="패스_1682" data-name="패스 1682" d="M311.072,389.817,294.937,376.88l-9.095-4.912-18.047-12.724L236.507,362.6l-4.619,4.68L220.523,360.8l-7.676-13.6-7.465-1.925-2.372-6.736-7.582,1.39L181.96,328.089l2.1-15.123,25.383-6.533,10.039,5.057,2.488,7.485,3.058-7.621-1.606-9.487,15.34-13.671,7.026-20.124,14.158-5.836,8.634-1.116,3.046-6.762-8.8-9.164,20.529-4.491-1.568-6.246-15.826-26.429-11.569,2.014L251,204.987l11.628-2.439,6.781-22.821L253.731,164.7l-6.749-4.932-26.459-6.086-12.7-10.413s-7.615,18.662-3.483,19.87,17.013,7.205,17.013,7.205l21.874,3.834-5.858,13.89-6.754,4.889L251,204.987l-21.566-4.277-1.5,9.332-28.318,10.2-6.775-10.286,16.174-22.467,9.785-8.421-7.2-7.66L201.234,169.7l-11.274-11.426.943-2.347-1.195-.741,1.761-8.155-7.409.863-.933,3.214-2.009-1.246-7.951-1.383L161.786,141l.311-.065-7.926-4.935,0,0-4.227-3.127-11.191.1-4.319,5.1.186.4-7.947,4.793-13.626,1.324-1.9,9.09-41.224,13.1-11.7-1.175-22.682-3.821L3.2,174.679l15.759,6.782L0,188.54l5.77,8.824L19.838,215.55,6.514,231.934l29.654-15.4,11.556-7.485,27.152.991,13.55,5.425,25.3,39.565-.83,22.242,9.747,17.323,8.916,5.347,14.077,24.917-1.116-18.718,15.242,21.83,4.147,10.04,19.908,9.2,6.636.019L210.774,359.4l6.013,7.057,13.428,5.279.2,10.962-7.129,9.968.3,12.238,7.8,13.14,3.555,7.35,13.971,12.3-2.021,46.159-4.837,15.265-2.933,28.739,4.015,16.578,11.255,3.891,1.971-5.906-2.111-9.294L261.6,523.2l-2.017-6.744,22.363-22.717-.79-12.5L294.5,484.6l9.772-18.61-.015-8.275,20.155-8.128,5.109-25.447,10.87-15.3-1.324-8.029Z" transform="translate(0 -92.894)" fill="#e2e2e2" stroke="#d1d1d1" stroke-width="1"/>
            <path id="패스_1683" data-name="패스 1683" d="M582.19,138.5l10.556,1.038,25.907-3.173-4.991-3.72-17.327-.592-10.4-5.993-3.74,5.177-4.165-3.086-8.534,1.728,6.995,8.621Z" transform="translate(-398.129 -88.131)" fill="#e2e2e2" stroke="#d1d1d1" stroke-width="1"/>
            <path id="패스_1684" data-name="패스 1684" d="M626.212,59.481l8.151-7.087L629.136,49.1l-16.347-7.783-2.8,1.664L615.6,47.1l-7.011,2.432-3.874,1.6v3.018L618.7,62.454Z" transform="translate(-422.753 -28.886)" fill="#e2e2e2" stroke="#d1d1d1" stroke-width="1"/>
          </g>
        </g>
      </g>
    </g>
  </g>
</svg>
