<svg xmlns="http://www.w3.org/2000/svg" width="19.542" height="12.7" viewBox="0 0 19.542 12.7">
  <g id="Icon_ionic-ios-people" data-name="Icon ionic-ios-people" transform="translate(-2.215 -7.749)">
    <path id="패스_1830" data-name="패스 1830" d="M18.315,17.52c-.487-.174-1.284-.183-1.636-.318a2.312,2.312,0,0,1-.757-.353,4.68,4.68,0,0,1-.126-1.24A2,2,0,0,0,16.226,15a6.772,6.772,0,0,0,.209-1.2s.287.122.4-.453c.1-.5.279-.757.231-1.123s-.252-.279-.252-.279a3.259,3.259,0,0,0,.252-1.628,2.6,2.6,0,0,0-2.812-2.572,2.614,2.614,0,0,0-2.816,2.572,3.308,3.308,0,0,0,.248,1.628s-.2-.087-.252.279.131.627.231,1.123c.113.579.4.453.4.453a6.837,6.837,0,0,0,.209,1.2,2,2,0,0,0,.431.609,4.68,4.68,0,0,1-.126,1.24,2.225,2.225,0,0,1-.757.348c-.348.135-1.145.152-1.636.326a3.072,3.072,0,0,0-1.993,2.925H20.3A3.066,3.066,0,0,0,18.315,17.52Z" transform="translate(-2.277)" fill="#5db2fd"/>
    <path id="패스_1831" data-name="패스 1831" d="M6.937,16.718a2.955,2.955,0,0,0,1.454-.4c-.675-1.023-.309-2.215-.448-3.33A1.836,1.836,0,0,0,5.91,11.208H5.893a1.842,1.842,0,0,0-2.015,1.776c-.139,1.11.248,2.437-.444,3.33a2.734,2.734,0,0,0,1.458.361h0a2.2,2.2,0,0,1-.044.731,1.1,1.1,0,0,1-.522.239,10.1,10.1,0,0,0-1.127.313,1.832,1.832,0,0,0-.984,1.619H5.71A3.127,3.127,0,0,1,7.1,18.28a2.923,2.923,0,0,1,1.075-.226s.165-.261-.379-.361a3.71,3.71,0,0,1-.836-.292C6.881,17.306,6.937,16.718,6.937,16.718Z" transform="translate(0 -1.318)" fill="#5db2fd"/>
    <path id="패스_1832" data-name="패스 1832" d="M25.262,16.718a2.955,2.955,0,0,1-1.454-.4c.675-1.023.309-2.215.448-3.33a1.836,1.836,0,0,1,2.033-1.776h.017a1.842,1.842,0,0,1,2.015,1.776c.139,1.11-.248,2.437.444,3.33a2.734,2.734,0,0,1-1.458.361h0a2.2,2.2,0,0,0,.044.731,1.1,1.1,0,0,0,.522.239A10.1,10.1,0,0,1,29,17.958a1.832,1.832,0,0,1,.984,1.619H26.489a3.127,3.127,0,0,0-1.393-1.3,2.923,2.923,0,0,0-1.075-.226s-.165-.261.379-.361a3.71,3.71,0,0,0,.836-.292C25.318,17.306,25.262,16.718,25.262,16.718Z" transform="translate(-8.227 -1.318)" fill="#5db2fd"/>
  </g>
</svg>
