<svg xmlns="http://www.w3.org/2000/svg" width="16.746" height="11.697" viewBox="0 0 16.746 11.697">
  <path id="Icon_metro-books" data-name="Icon metro-books" d="M5.983,8.571H3.059a.489.489,0,0,0-.487.487V19.781a.489.489,0,0,0,.487.487H5.983a.489.489,0,0,0,.487-.487V9.059a.489.489,0,0,0-.487-.487ZM5.5,11.5H3.546v-.975H5.5Zm5.361-2.924H7.933a.489.489,0,0,0-.487.487V19.781a.489.489,0,0,0,.487.487h2.924a.489.489,0,0,0,.487-.487V9.059a.489.489,0,0,0-.487-.487ZM10.37,11.5H8.42v-.975h1.95Zm3.855-2.171-2.612,1.316a.489.489,0,0,0-.216.655L15.783,20a.489.489,0,0,0,.655.216L19.049,18.9a.489.489,0,0,0,.216-.655L14.879,9.541a.489.489,0,0,0-.655-.216Zm2.481,10.456a.487.487,0,1,1-.487-.487A.487.487,0,0,1,16.706,19.781Z" transform="translate(-2.571 -8.572)" fill="#856cef"/>
</svg>
