<svg xmlns="http://www.w3.org/2000/svg" width="18.925" height="12.166" viewBox="0 0 18.925 12.166">
  <path id="Icon_ionic-md-people" data-name="Icon ionic-md-people" d="M15.153,12.944a2.535,2.535,0,1,0-2.581-2.535A2.566,2.566,0,0,0,15.153,12.944Zm-6.882,0A2.535,2.535,0,1,0,5.691,10.41,2.566,2.566,0,0,0,8.272,12.944Zm0,1.859c-2.022,0-6.022.972-6.022,2.957v2.281H14.416V17.76C14.416,15.774,10.293,14.8,8.272,14.8Zm6.882.465a4.591,4.591,0,0,0-.737.042,2.519,2.519,0,0,1,1.352,2.45v2.281h5.407V17.76C21.175,15.774,17.175,15.268,15.153,15.268Z" transform="translate(-2.25 -7.875)" fill="#5db2fd"/>
</svg>
