<svg xmlns="http://www.w3.org/2000/svg" width="16.069" height="12.663" viewBox="0 0 16.069 12.663">
  <path id="i_list" d="M13.559,13.116h2.009a.5.5,0,0,1,.5.487v1.948a.5.5,0,0,1-.5.487H13.559a.5.5,0,0,1-.5-.487V13.6A.5.5,0,0,1,13.559,13.116Zm0-9.741h2.009a.5.5,0,0,1,.5.487V5.81a.5.5,0,0,1-.5.487H13.559a.5.5,0,0,1-.5-.487V3.862A.5.5,0,0,1,13.559,3.375Zm0,4.871h2.009a.5.5,0,0,1,.5.487v1.948a.5.5,0,0,1-.5.487H13.559a.5.5,0,0,1-.5-.487V8.733A.5.5,0,0,1,13.559,8.246ZM.5,13.6H10.546a.5.5,0,0,1,.5.487v.974a.5.5,0,0,1-.5.487H.5a.5.5,0,0,1-.5-.487V14.09A.5.5,0,0,1,.5,13.6Zm0-9.741H10.546a.5.5,0,0,1,.5.487v.974a.5.5,0,0,1-.5.487H.5A.5.5,0,0,1,0,5.323V4.349A.5.5,0,0,1,.5,3.862Zm0,4.871H10.546a.5.5,0,0,1,.5.487v.974a.5.5,0,0,1-.5.487H.5a.5.5,0,0,1-.5-.487V9.22A.5.5,0,0,1,.5,8.733Z" transform="translate(16.069 16.038) rotate(180)" fill="#fff"/>
</svg>
