<svg xmlns="http://www.w3.org/2000/svg" width="16.5" height="16.5" viewBox="0 0 16.5 16.5">
  <path id="Icon_material-group-work" data-name="Icon material-group-work" d="M11.25,3a8.25,8.25,0,1,0,8.25,8.25A8.253,8.253,0,0,0,11.25,3ZM7.95,15.787a2.063,2.063,0,1,1,2.063-2.062A2.063,2.063,0,0,1,7.95,15.787ZM9.187,7.95a2.062,2.062,0,1,1,2.062,2.063A2.063,2.063,0,0,1,9.187,7.95Zm5.363,7.837a2.063,2.063,0,1,1,2.063-2.062A2.063,2.063,0,0,1,14.55,15.787Z" transform="translate(-3 -3)" fill="#5db2fd"/>
</svg>
