<svg xmlns="http://www.w3.org/2000/svg" width="17.011" height="14.7" viewBox="0 0 17.011 14.7">
  <path id="Icon_simple-sublimetext" data-name="Icon simple-sublimetext" d="M8.505,16.114h6.75c.424,0,.775-.24.775-.532V14.221a1.1,1.1,0,0,1-.775.289H1.757a1.114,1.114,0,0,1-.776-.287V15.58c0,.293.347.532.776.532H8.505v0Zm0,1.03h7.4c.609,0,1.1-.366,1.1-.814a.642.642,0,0,0-.011-.1L15.862,4.169a.773.773,0,0,0-.493-.6l.862,10.211v1.8c0,.4-.436.733-.979.733H1.758c-.537,0-.976-.332-.976-.733v-1.8l.86-10.211a.776.776,0,0,0-.493.6L.011,16.222A.444.444,0,0,0,0,16.328c0,.447.493.816,1.1.816ZM15.156,3.39l-.021-.223a.233.233,0,0,0,0-.043l0-.05a.726.726,0,0,0-.767-.631H2.647a.727.727,0,0,0-.765.627l0,.054,0,.043-.021.223L.985,13.781c0,.292.347.532.774.532h13.5c.427,0,.773-.24.775-.532L15.156,3.39Zm-4.03,6.6a2.024,2.024,0,0,1-1.1,1.063,4.111,4.111,0,0,1-1.653.336,7.3,7.3,0,0,1-1.784-.191,4.92,4.92,0,0,1-.88-.269.667.667,0,0,1,.023-1.27,1.1,1.1,0,0,1,.806.032,5.157,5.157,0,0,0,1.856.27c.358-.011.985-.2.885-.756a.84.84,0,0,0-.245-.411A1.141,1.141,0,0,0,8.6,8.563c-.293-.08-.6-.14-.893-.2A4.01,4.01,0,0,1,6.259,7.8a1.05,1.05,0,0,1-.641-.879,1.329,1.329,0,0,1,.617-1.318A3.546,3.546,0,0,1,9.34,5.1a2.677,2.677,0,0,1,.882.254.612.612,0,0,1,.28.732c-.1.266-.353.306-.627.276A6.936,6.936,0,0,1,9.18,6.2a2.37,2.37,0,0,0-1.358-.036c-.223.064-.525.276-.411.554.1.23.447.305.657.362.576.154,1.026.331,1.6.5a2.291,2.291,0,0,1,1.281.928,1.636,1.636,0,0,1,.181,1.485l0,0h0Z" transform="translate(0 -2.444)" fill="#ffe280"/>
</svg>
