<svg xmlns="http://www.w3.org/2000/svg" width="16.667" height="16.667" viewBox="0 0 16.667 16.667">
  <path id="Icon_material-library-books" data-name="Icon material-library-books" d="M3.333,5H1.667V16.667a1.672,1.672,0,0,0,1.667,1.667H15V16.667H3.333ZM16.667,1.667h-10A1.672,1.672,0,0,0,5,3.333v10A1.672,1.672,0,0,0,6.667,15h10a1.672,1.672,0,0,0,1.667-1.667v-10a1.672,1.672,0,0,0-1.667-1.667Zm-.833,7.5H7.5V7.5h8.333ZM12.5,12.5h-5V10.833h5Zm3.333-6.667H7.5V4.167h8.333V5.833Z" transform="translate(-1.667 -1.667)" fill="#fff"/>
</svg>
