<svg xmlns="http://www.w3.org/2000/svg" width="18.069" height="18.105" viewBox="0 0 18.069 18.105">
  <path id="Icon_awesome-swatchbook" data-name="Icon awesome-swatchbook" d="M16.94,11.315H13.164l-6.582,6.6c-.073.073-.159.127-.236.194H16.94a1.131,1.131,0,0,0,1.129-1.132V12.447A1.131,1.131,0,0,0,16.94,11.315ZM15.366,5.909l-3.194-3.2a1.128,1.128,0,0,0-1.6,0L7.905,5.383V14.71c0,.1-.024.2-.031.306l7.492-7.506a1.133,1.133,0,0,0,0-1.6ZM6.776,1.132A1.131,1.131,0,0,0,5.646,0H1.129A1.131,1.131,0,0,0,0,1.132V14.71a3.388,3.388,0,1,0,6.776,0ZM3.388,15.559a.849.849,0,1,1,.847-.849A.848.848,0,0,1,3.388,15.559ZM4.517,9.052H2.259V6.789H4.518V9.052Zm0-4.526H2.259V2.263H4.518V4.526Z" fill="#fff"/>
</svg>
