<svg xmlns="http://www.w3.org/2000/svg" width="16.055" height="16.055" viewBox="0 0 16.055 16.055">
  <g id="그룹_1" data-name="그룹 1" transform="translate(79.381 -52.325)">
    <path id="패스_6" data-name="패스 6" d="M18.115,14H15.24V11.129a.618.618,0,0,0-1.235,0V14H11.129a.591.591,0,0,0-.618.618.6.6,0,0,0,.618.618H14v2.875a.6.6,0,0,0,.618.618.614.614,0,0,0,.618-.618V15.24h2.875a.618.618,0,0,0,0-1.235Z" transform="translate(-71.353 39.674) rotate(45)" fill="#fff"/>
    <path id="패스_7" data-name="패스 7" d="M8.028,1.081a6.948,6.948,0,0,1,4.913,11.86A6.948,6.948,0,0,1,3.115,3.115,6.9,6.9,0,0,1,8.028,1.081M8.028,0a8.028,8.028,0,1,0,8.028,8.028A8.027,8.027,0,0,0,8.028,0Z" transform="translate(-79.381 52.325)" fill="#fff"/>
  </g>
</svg>
