<svg xmlns="http://www.w3.org/2000/svg" width="21.634" height="21.634" viewBox="0 0 21.634 21.634">
  <g id="그룹_772" data-name="그룹 772" transform="translate(-598.5 -753.5)">
    <path id="패스_1841" data-name="패스 1841" d="M626.676,765.267c.092-.008.182-.024.279-.024a2.329,2.329,0,0,1,2.51,2.092v3.625a2.329,2.329,0,0,1-2.51,2.091c-.1,0-.279-.023-.279-.023" transform="translate(-9.83 -3.993)" fill="none" stroke="#fff" stroke-linejoin="round" stroke-width="1"/>
    <path id="패스_1842" data-name="패스 1842" d="M601.788,765.267c-.092-.008-.183-.024-.278-.024a2.329,2.329,0,0,0-2.51,2.092v3.625a2.329,2.329,0,0,0,2.51,2.091c.1,0,.186-.015.278-.023l.429-.061" transform="translate(0 -3.993)" fill="none" stroke="#fff" stroke-linejoin="round" stroke-width="1"/>
    <path id="패스_1843" data-name="패스 1843" d="M616.935,783.07a1.394,1.394,0,0,1-1.394,1.394h-3.9a1.394,1.394,0,0,1-1.394-1.394h0a1.394,1.394,0,0,1,1.394-1.394h3.9a1.394,1.394,0,0,1,1.394,1.394Z" transform="translate(-3.993 -9.83)" fill="none" stroke="#fff" stroke-linejoin="round" stroke-width="1"/>
    <path id="패스_1844" data-name="패스 1844" d="M608.11,772.348a5.577,5.577,0,0,1-4.786-5.521v-7.25A5.577,5.577,0,0,1,608.9,754h3.9a5.577,5.577,0,0,1,5.577,5.577v9.48" transform="translate(-1.536)" fill="none" stroke="#fff" stroke-linecap="round" stroke-linejoin="round" stroke-width="1"/>
  </g>
</svg>
