<svg xmlns="http://www.w3.org/2000/svg" width="16.111" height="16.111" viewBox="0 0 16.111 16.111">
  <g id="i_confirm" transform="translate(-3.375 -3.375)">
    <path id="패스_1" data-name="패스 1" d="M18.73,12.954l-.682-.7a.147.147,0,0,0-.108-.046h0a.141.141,0,0,0-.108.046l-4.725,4.76-1.72-1.72a.15.15,0,0,0-.217,0l-.689.689a.154.154,0,0,0,0,.221l2.169,2.169a.686.686,0,0,0,.453.221.719.719,0,0,0,.449-.213h0l5.178-5.205A.166.166,0,0,0,18.73,12.954Z" transform="translate(-3.171 -3.967)" fill="#fff"/>
    <path id="패스_2" data-name="패스 2" d="M11.43,4.459A6.968,6.968,0,1,1,6.5,6.5a6.925,6.925,0,0,1,4.93-2.041m0-1.084a8.055,8.055,0,1,0,8.055,8.055A8.054,8.054,0,0,0,11.43,3.375Z" fill="#fff"/>
  </g>
</svg>
