<svg xmlns="http://www.w3.org/2000/svg" width="8.649" height="10.707" viewBox="0 0 8.649 10.707">
  <path id="Icon_ionic-md-copy" data-name="Icon ionic-md-copy" d="M11.539,3.375H8.465A1.029,1.029,0,0,0,7.423,4.393v.219H7.232A1.029,1.029,0,0,0,6.19,5.631V13.04a1.051,1.051,0,0,0,1.042,1.042h5.351A1.029,1.029,0,0,0,13.6,13.04v-.191h.219a1.029,1.029,0,0,0,1.018-1.042V6.668Zm0,1.146,2.146,2.146H11.539Zm1.235,8.513a.208.208,0,0,1-.191.219H7.23a.229.229,0,0,1-.219-.219V5.626a.208.208,0,0,1,.219-.191h.191v6.571a.73.73,0,0,0,.836.836h4.515ZM14.009,11.8a.208.208,0,0,1-.191.219H8.465a.229.229,0,0,1-.219-.219V4.391A.208.208,0,0,1,8.465,4.2h2.251V7.491h3.293Z" transform="translate(14.839 14.082) rotate(180)" fill="#fff"/>
</svg>
