<svg xmlns="http://www.w3.org/2000/svg" width="15.061" height="17.212" viewBox="0 0 15.061 17.212">
  <path id="Icon_metro-file-text" data-name="Icon metro-file-text" d="M18.85,5.779A15.244,15.244,0,0,0,17.385,4.1a15.245,15.245,0,0,0-1.676-1.465,2.681,2.681,0,0,0-1.528-.709H5.843A1.346,1.346,0,0,0,4.5,3.273V17.8A1.346,1.346,0,0,0,5.843,19.14H18.215A1.346,1.346,0,0,0,19.559,17.8V7.307a2.681,2.681,0,0,0-.709-1.528Zm-2.226-.915a14.671,14.671,0,0,1,1.22,1.368H15.256V3.643A14.656,14.656,0,0,1,16.624,4.863ZM18.484,17.8a.273.273,0,0,1-.269.269H5.843a.273.273,0,0,1-.269-.269V3.273A.273.273,0,0,1,5.843,3h8.337V6.769a.538.538,0,0,0,.538.538h3.765Zm-2.689-1.883H8.264a.538.538,0,1,1,0-1.076h7.53a.538.538,0,1,1,0,1.076Zm0-2.152H8.264a.538.538,0,1,1,0-1.076h7.53a.538.538,0,1,1,0,1.076Zm0-2.152H8.264a.538.538,0,1,1,0-1.076h7.53a.538.538,0,1,1,0,1.076Z" transform="translate(-4.499 -1.928)" fill="#5887fa"/>
</svg>
