<svg xmlns="http://www.w3.org/2000/svg" width="54.204" height="44.784" viewBox="0 0 54.204 44.784">
  <g id="i_global_04" transform="translate(0.158 -3.216)">
    <g id="그룹_680" data-name="그룹 680" transform="translate(0 0)">
      <path id="패스_1762" data-name="패스 1762" d="M10.21,36.847A4.944,4.944,0,0,1,6,32.637V25.9a6.15,6.15,0,0,1,5.894-5.894h5.894c2.616,0,5.052,2.389,5.052,5.894v7.578c0,1.879-.647,3.368-2.526,3.368V51.161H10.21Z" transform="translate(-0.948 -3.161)" fill="#a3d4ff"/>
      <path id="패스_1763" data-name="패스 1763" d="M16.21,15.111a4.207,4.207,0,0,0,4.21-4.21V9.217a4.21,4.21,0,0,0-8.42,0V10.9a4.207,4.207,0,0,0,4.21,4.21" transform="translate(-1.896 -0.791)" fill="#fff"/>
      <path id="패스_1764" data-name="패스 1764" d="M16.21,15.111a4.207,4.207,0,0,0,4.21-4.21V9.217a4.21,4.21,0,0,0-8.42,0V10.9A4.207,4.207,0,0,0,16.21,15.111Z" transform="translate(-1.896 -0.791)" fill="none" stroke="#2a5082" stroke-miterlimit="10" stroke-width="2"/>
      <line id="선_478" data-name="선 478" y1="25.26" transform="translate(9.262 22.74)" fill="none" stroke="#2a5082" stroke-miterlimit="10" stroke-width="2"/>
      <path id="패스_1765" data-name="패스 1765" d="M25.526,33.007v2.526c0,1.879-.647,3.368-2.526,3.368V53.215" transform="translate(-3.634 -5.215)" fill="none" stroke="#2a5082" stroke-miterlimit="10" stroke-width="2"/>
      <line id="선_479" data-name="선 479" y2="14.314" transform="translate(14.314 33.686)" fill="none" stroke="#2a5082" stroke-miterlimit="10" stroke-width="2"/>
      <line id="선_480" data-name="선 480" x1="8.42" transform="translate(14.314 25.266)" fill="none" stroke="#2a5082" stroke-miterlimit="10" stroke-width="2"/>
      <line id="선_481" data-name="선 481" x1="1.684" transform="translate(24.418 25.266)" fill="none" stroke="#2a5082" stroke-miterlimit="10" stroke-width="2"/>
      <path id="패스_1766" data-name="패스 1766" d="M20.178,33.564,15.8,29.186l4.378-4.378" transform="translate(-2.496 -3.92)" fill="none" stroke="#2a5082" stroke-miterlimit="10" stroke-width="2"/>
      <line id="선_482" data-name="선 482" x2="1.684" transform="translate(27.786 25.266)" fill="none" stroke="#2a5082" stroke-miterlimit="10" stroke-width="2"/>
      <path id="패스_1767" data-name="패스 1767" d="M22.84,25.9c0-3.505-2.436-5.894-5.052-5.894H11.894A6.15,6.15,0,0,0,6,25.9v6.736a4.944,4.944,0,0,0,4.21,4.21" transform="translate(-0.948 -3.161)" fill="none" stroke="#2a5082" stroke-miterlimit="10" stroke-width="2"/>
      <rect id="사각형_734" data-name="사각형 734" width="10.104" height="8.42" transform="translate(0.842 31.16)" fill="#fff"/>
      <rect id="사각형_735" data-name="사각형 735" width="10.104" height="8.42" transform="translate(0.842 31.16)" fill="none" stroke="#2a5082" stroke-miterlimit="10" stroke-width="2"/>
      <path id="패스_1768" data-name="패스 1768" d="M50.63,36.847c1.684,0,4.21-2.331,4.21-4.21V25.9a6.15,6.15,0,0,0-5.894-5.894H43.052C40.436,20.007,38,22.4,38,25.9v7.578c0,1.879.842,3.368,2.526,3.368V51.161h10.1Z" transform="translate(-6.004 -3.161)" fill="#fff"/>
      <path id="패스_1769" data-name="패스 1769" d="M46.21,15.111A4.207,4.207,0,0,1,42,10.9V9.217a4.21,4.21,0,0,1,8.42,0V10.9a4.207,4.207,0,0,1-4.21,4.21" transform="translate(-6.636 -0.791)" fill="#fff"/>
      <path id="패스_1770" data-name="패스 1770" d="M46.21,15.111A4.207,4.207,0,0,1,42,10.9V9.217a4.21,4.21,0,0,1,8.42,0V10.9A4.207,4.207,0,0,1,46.21,15.111Z" transform="translate(-6.636 -0.791)" fill="none" stroke="#2a5082" stroke-miterlimit="10" stroke-width="2"/>
      <line id="선_483" data-name="선 483" y1="25.26" transform="translate(44.626 22.74)" fill="none" stroke="#2a5082" stroke-miterlimit="10" stroke-width="2"/>
      <path id="패스_1771" data-name="패스 1771" d="M38,33.007v2.526c0,1.879.842,3.368,2.526,3.368V53.215" transform="translate(-6.004 -5.215)" fill="none" stroke="#2a5082" stroke-miterlimit="10" stroke-width="2"/>
      <line id="선_484" data-name="선 484" y2="14.314" transform="translate(39.574 33.686)" fill="none" stroke="#2a5082" stroke-miterlimit="10" stroke-width="2"/>
      <line id="선_485" data-name="선 485" x2="8.42" transform="translate(31.154 25.266)" fill="none" stroke="#2a5082" stroke-miterlimit="10" stroke-width="2"/>
      <path id="패스_1772" data-name="패스 1772" d="M43,33.564l4.378-4.378L43,24.807" transform="translate(-6.794 -3.92)" fill="none" stroke="#2a5082" stroke-miterlimit="10" stroke-width="2"/>
      <path id="패스_1773" data-name="패스 1773" d="M38,25.9c0-3.505,2.436-5.894,5.052-5.894h5.894A6.15,6.15,0,0,1,54.84,25.9v6.736a4.944,4.944,0,0,1-4.21,4.21" transform="translate(-6.004 -3.161)" fill="none" stroke="#2a5082" stroke-miterlimit="10" stroke-width="2"/>
      <rect id="사각형_736" data-name="사각형 736" width="10.104" height="8.42" transform="translate(42.942 31.16)" fill="#fff"/>
      <rect id="사각형_737" data-name="사각형 737" width="10.104" height="8.42" transform="translate(42.942 31.16)" fill="none" stroke="#2a5082" stroke-miterlimit="10" stroke-width="2"/>
    </g>
  </g>
</svg>
