<svg id="i_global_03" xmlns="http://www.w3.org/2000/svg" xmlns:xlink="http://www.w3.org/1999/xlink" width="44.519" height="48" viewBox="0 0 44.519 48">
  <defs>
    <clipPath id="clip-path">
      <rect id="사각형_730" data-name="사각형 730" width="44.519" height="48" fill="none"/>
    </clipPath>
  </defs>
  <g id="그룹_663" data-name="그룹 663" clip-path="url(#clip-path)">
    <path id="패스_1710" data-name="패스 1710" d="M27.991,18.364l.873-.873C30.173,16.145,31.955,14,34.973,14h4.364c2.35,0,5.236.927,5.236,5.236v5.236a3.55,3.55,0,0,1-3.491,3.491" transform="translate(-3.562 -1.782)" fill="none" stroke="#2a5082" stroke-miterlimit="10" stroke-width="2"/>
    <path id="패스_1711" data-name="패스 1711" d="M33.609,26.236V21h-.873l-1.745,1.745" transform="translate(-3.944 -2.673)" fill="none" stroke="#2a5082" stroke-miterlimit="10" stroke-width="2"/>
    <line id="선_450" data-name="선 450" y2="10.473" transform="translate(37.519 17.455)" fill="none" stroke="#2a5082" stroke-miterlimit="10" stroke-width="2"/>
    <path id="패스_1712" data-name="패스 1712" d="M4.486,39.7A21.279,21.279,0,0,0,1.021,50.945H43.758A21.394,21.394,0,0,0,18.449,30.362" transform="translate(-0.13 -3.818)" fill="none" stroke="#2a5082" stroke-miterlimit="10" stroke-width="2"/>
    <path id="패스_1713" data-name="패스 1713" d="M10.991,51.836V49.655a2.193,2.193,0,0,1,2.195-2.182H19.3a2.171,2.171,0,0,0,2.169-2.182v-.873a2.187,2.187,0,0,1,2.188-2.182h0a2.179,2.179,0,0,0,2.178-2.182v-.873A2.171,2.171,0,0,0,23.659,37h-3.94" transform="translate(-1.399 -4.709)" fill="none" stroke="#2a5082" stroke-miterlimit="10" stroke-width="2"/>
    <path id="패스_1714" data-name="패스 1714" d="M42.082,39H35.113a1.756,1.756,0,0,0-1.759,1.745v.873a1.756,1.756,0,0,0,1.759,1.745h1.745a1.745,1.745,0,1,1,0,3.491H32.495a3.5,3.5,0,0,0-3.5,3.491v1.745" transform="translate(-3.69 -4.964)" fill="none" stroke="#2a5082" stroke-miterlimit="10" stroke-width="2"/>
    <rect id="사각형_729" data-name="사각형 729" width="8.727" height="21.818" transform="translate(6.974 17.455)" fill="#a3d4ff"/>
    <path id="패스_1715" data-name="패스 1715" d="M20.573,17.491C19.073,15.808,17.482,14,14.464,14H9.227c-2.35,0-5.236.927-5.236,5.236v6.109a3.55,3.55,0,0,0,3.491,3.491l8.727,12.218V20.109h.873L20.573,23.6c2.264,2.264,5.236,0,5.236,0s-4-4.721-5.236-6.109" transform="translate(-0.508 -1.782)" fill="#a3d4ff"/>
    <path id="패스_1716" data-name="패스 1716" d="M16.209,41.055V20.109h.873L20.573,23.6c2.264,2.264,5.236,0,5.236,0s-4-4.721-5.236-6.109C19.073,15.808,17.482,14,14.464,14H9.227c-2.35,0-5.236.928-5.236,5.236v6.109a3.55,3.55,0,0,0,3.491,3.491" transform="translate(-0.508 -1.782)" fill="none" stroke="#2a5082" stroke-miterlimit="10" stroke-width="2"/>
    <line id="선_451" data-name="선 451" y2="21.818" transform="translate(6.974 17.455)" fill="none" stroke="#2a5082" stroke-miterlimit="10" stroke-width="2"/>
    <line id="선_452" data-name="선 452" y2="13.091" transform="translate(11.338 26.182)" fill="none" stroke="#2a5082" stroke-miterlimit="10" stroke-width="2"/>
    <path id="패스_1717" data-name="패스 1717" d="M12.482,1A3.471,3.471,0,0,0,8.991,4.491V6.236a3.491,3.491,0,0,0,6.982,0V4.491A3.447,3.447,0,0,0,12.482,1" transform="translate(-1.144 -0.127)" fill="#fff"/>
    <path id="패스_1718" data-name="패스 1718" d="M12.482,1A3.471,3.471,0,0,0,8.991,4.491V6.236a3.491,3.491,0,0,0,6.982,0V4.491A3.447,3.447,0,0,0,12.482,1Z" transform="translate(-1.144 -0.127)" fill="none" stroke="#2a5082" stroke-miterlimit="10" stroke-width="2"/>
    <path id="패스_1719" data-name="패스 1719" d="M37.482,1a3.471,3.471,0,0,0-3.491,3.491V6.236a3.491,3.491,0,0,0,6.982,0V4.491A3.447,3.447,0,0,0,37.482,1" transform="translate(-4.326 -0.127)" fill="#fff"/>
    <path id="패스_1720" data-name="패스 1720" d="M37.482,1a3.471,3.471,0,0,0-3.491,3.491V6.236a3.491,3.491,0,0,0,6.982,0V4.491A3.447,3.447,0,0,0,37.482,1Z" transform="translate(-4.326 -0.127)" fill="none" stroke="#2a5082" stroke-miterlimit="10" stroke-width="2"/>
  </g>
</svg>
