<svg xmlns="http://www.w3.org/2000/svg" xmlns:xlink="http://www.w3.org/1999/xlink" width="53" height="52" viewBox="0 0 53 52">
  <defs>
    <clipPath id="clip-path">
      <rect id="사각형_728" data-name="사각형 728" width="53" height="52" transform="translate(0 0.5)" fill="none"/>
    </clipPath>
  </defs>
  <g id="i_global_01" transform="translate(0 -0.5)">
    <g id="그룹_661" data-name="그룹 661" clip-path="url(#clip-path)">
      <path id="패스_1696" data-name="패스 1696" d="M41.333,30.322a3.442,3.442,0,0,0,3.333-3.567V25.567a3.341,3.341,0,1,0-6.667,0v1.189a3.442,3.442,0,0,0,3.333,3.567" transform="translate(-6.333 -3.667)" fill="#fff"/>
      <path id="패스_1697" data-name="패스 1697" d="M21.333,30.322a3.442,3.442,0,0,0,3.333-3.567V25.567A3.442,3.442,0,0,0,21.333,22,3.442,3.442,0,0,0,18,25.567v1.189a3.442,3.442,0,0,0,3.333,3.567" transform="translate(-3 -3.667)" fill="#fff"/>
      <path id="패스_1698" data-name="패스 1698" d="M20.833,32C18.212,32,15,33.66,15,34.619v3.928c0,.96,3.212,2.619,5.833,2.619s5.833-1.659,5.833-2.619V34.619c0-.959-3.212-2.619-5.833-2.619" transform="translate(-2.5 -5.333)" fill="#a3d4ff"/>
      <circle id="타원_39" data-name="타원 39" cx="20" cy="20" r="20" transform="translate(7 6.5)" fill="none" stroke="#2a5082" stroke-miterlimit="10" stroke-width="2"/>
      <line id="선_437" data-name="선 437" x2="10" transform="translate(1 26.5)" fill="none" stroke="#2a5082" stroke-miterlimit="10" stroke-width="2"/>
      <line id="선_438" data-name="선 438" x2="10" transform="translate(43 26.5)" fill="none" stroke="#2a5082" stroke-miterlimit="10" stroke-width="2"/>
      <line id="선_439" data-name="선 439" y2="10" transform="translate(27 0.5)" fill="none" stroke="#2a5082" stroke-miterlimit="10" stroke-width="2"/>
      <line id="선_440" data-name="선 440" y2="10" transform="translate(27 42.5)" fill="none" stroke="#2a5082" stroke-miterlimit="10" stroke-width="2"/>
      <path id="패스_1699" data-name="패스 1699" d="M30.667,32c-3,0-6.667,1.66-6.667,2.619v6.428c0,.96,3.671,2.619,6.667,2.619s6.667-1.659,6.667-2.619V34.619c0-.959-3.671-2.619-6.667-2.619" transform="translate(-4 -5.333)" fill="#a3d4ff"/>
      <path id="패스_1700" data-name="패스 1700" d="M40.833,32C38.212,32,35,33.66,35,34.619v3.928c0,.96,3.212,2.619,5.833,2.619s5.833-1.659,5.833-2.619V34.619c0-.959-3.212-2.619-5.833-2.619" transform="translate(-5.833 -5.333)" fill="#a3d4ff"/>
      <path id="패스_1701" data-name="패스 1701" d="M31.333,30.322a3.442,3.442,0,0,0,3.333-3.567V25.567a3.341,3.341,0,1,0-6.667,0v1.189a3.442,3.442,0,0,0,3.333,3.567" transform="translate(-4.667 -3.667)" fill="#fff"/>
      <path id="패스_1702" data-name="패스 1702" d="M31.333,30.322a3.442,3.442,0,0,0,3.333-3.567V25.567a3.341,3.341,0,1,0-6.667,0v1.189A3.442,3.442,0,0,0,31.333,30.322Z" transform="translate(-4.667 -3.667)" fill="none" stroke="#2a5082" stroke-miterlimit="10" stroke-width="2"/>
      <path id="패스_1703" data-name="패스 1703" d="M37.334,40.214V34.619c0-.96-3.669-2.619-6.664-2.619s-6.663,1.659-6.663,2.619v5.595" transform="translate(-4.001 -5.333)" fill="none" stroke="#2a5082" stroke-linecap="round" stroke-linejoin="round" stroke-width="2"/>
      <path id="패스_1704" data-name="패스 1704" d="M41.485,30.322a3.442,3.442,0,0,0,3.333-3.567V25.567A3.442,3.442,0,0,0,41.485,22a3.235,3.235,0,0,0-2.576,1.294" transform="translate(-6.485 -3.667)" fill="#fff"/>
      <path id="패스_1705" data-name="패스 1705" d="M41.485,30.322a3.442,3.442,0,0,0,3.333-3.567V25.567A3.442,3.442,0,0,0,41.485,22a3.235,3.235,0,0,0-2.576,1.294" transform="translate(-6.485 -3.667)" fill="none" stroke="#2a5082" stroke-linecap="round" stroke-miterlimit="10" stroke-width="2"/>
      <path id="패스_1706" data-name="패스 1706" d="M47.834,38.667V34.619C47.834,33.66,44.623,32,42,32" transform="translate(-7 -5.333)" fill="none" stroke="#2a5082" stroke-linecap="round" stroke-linejoin="round" stroke-width="2"/>
      <path id="패스_1707" data-name="패스 1707" d="M21.29,30.322A3.424,3.424,0,0,1,18,26.756V25.567A3.424,3.424,0,0,1,21.29,22a3.181,3.181,0,0,1,2.543,1.294" transform="translate(-3 -3.667)" fill="#fff"/>
      <path id="패스_1708" data-name="패스 1708" d="M21.29,30.322A3.424,3.424,0,0,1,18,26.756V25.567A3.424,3.424,0,0,1,21.29,22a3.181,3.181,0,0,1,2.543,1.294" transform="translate(-3 -3.667)" fill="none" stroke="#2a5082" stroke-linecap="round" stroke-miterlimit="10" stroke-width="2"/>
      <path id="패스_1709" data-name="패스 1709" d="M15,38.667V34.619C15,33.66,18.212,32,20.833,32" transform="translate(-2.5 -5.333)" fill="none" stroke="#2a5082" stroke-linecap="round" stroke-linejoin="round" stroke-width="2"/>
      <line id="선_441" data-name="선 441" y2="3" transform="translate(6 0.5)" fill="none" stroke="#bcc0c4" stroke-miterlimit="10" stroke-width="2"/>
      <line id="선_442" data-name="선 442" y2="4" transform="translate(6 6.5)" fill="none" stroke="#bcc0c4" stroke-miterlimit="10" stroke-width="2"/>
      <line id="선_443" data-name="선 443" x2="3" transform="translate(8 5.5)" fill="none" stroke="#bcc0c4" stroke-miterlimit="10" stroke-width="2"/>
      <line id="선_444" data-name="선 444" x2="3" transform="translate(1 5.5)" fill="none" stroke="#bcc0c4" stroke-miterlimit="10" stroke-width="2"/>
      <line id="선_445" data-name="선 445" y2="2" transform="translate(3 13.5)" fill="none" stroke="#bcc0c4" stroke-miterlimit="10" stroke-width="2"/>
      <line id="선_446" data-name="선 446" y2="2" transform="translate(3 16.5)" fill="none" stroke="#bcc0c4" stroke-miterlimit="10" stroke-width="2"/>
      <line id="선_447" data-name="선 447" x2="2" transform="translate(3 15.5)" fill="none" stroke="#bcc0c4" stroke-miterlimit="10" stroke-width="2"/>
      <line id="선_448" data-name="선 448" x2="2" transform="translate(0 15.5)" fill="none" stroke="#bcc0c4" stroke-miterlimit="10" stroke-width="2"/>
      <line id="선_449" data-name="선 449" y2="2" transform="translate(43 45.5)" fill="none" stroke="#bcc0c4" stroke-miterlimit="10" stroke-width="2"/>
    </g>
  </g>
</svg>
