<svg id="i_global_07" xmlns="http://www.w3.org/2000/svg" xmlns:xlink="http://www.w3.org/1999/xlink" width="47" height="52" viewBox="0 0 47 52">
  <defs>
    <clipPath id="clip-path">
      <rect id="사각형_732" data-name="사각형 732" width="47" height="52" transform="translate(0 0)" fill="none"/>
    </clipPath>
  </defs>
  <line id="선_456" data-name="선 456" x1="9.116" y1="5.404" transform="translate(28.625 6.709)" fill="none" stroke="#2a5082" stroke-miterlimit="10" stroke-width="2"/>
  <line id="선_457" data-name="선 457" y1="10" transform="translate(43 21)" fill="none" stroke="#2a5082" stroke-miterlimit="10" stroke-width="2"/>
  <path id="패스_1743" data-name="패스 1743" d="M11,47.531l14.26,8.394,14.258-8.393" transform="translate(-1.774 -7.666)" fill="none" stroke="#2a5082" stroke-miterlimit="10" stroke-width="2"/>
  <line id="선_458" data-name="선 458" y2="10" transform="translate(4 21)" fill="none" stroke="#2a5082" stroke-miterlimit="10" stroke-width="2"/>
  <line id="선_459" data-name="선 459" x1="9.115" y2="5.404" transform="translate(9.226 6.709)" fill="none" stroke="#2a5082" stroke-miterlimit="10" stroke-width="2"/>
  <g id="그룹_668" data-name="그룹 668" transform="translate(0 0)">
    <g id="그룹_667" data-name="그룹 667" transform="translate(0 0)" clip-path="url(#clip-path)">
      <path id="패스_1744" data-name="패스 1744" d="M27.355,1A3.355,3.355,0,1,1,24,4.355,3.355,3.355,0,0,1,27.355,1" transform="translate(-3.871 -0.161)" fill="#a3d4ff"/>
      <path id="패스_1745" data-name="패스 1745" d="M27.355,1A3.355,3.355,0,1,1,24,4.355,3.355,3.355,0,0,1,27.355,1" transform="translate(-3.871 -0.161)" fill="none" stroke="#2a5082" stroke-miterlimit="10" stroke-width="2"/>
      <path id="패스_1746" data-name="패스 1746" d="M27.355,59.71a3.355,3.355,0,1,1,3.355-3.355,3.355,3.355,0,0,1-3.355,3.355" transform="translate(-3.871 -8.548)" fill="#a3d4ff"/>
      <path id="패스_1747" data-name="패스 1747" d="M27.355,59.71a3.355,3.355,0,1,1,3.355-3.355,3.355,3.355,0,0,1-3.355,3.355" transform="translate(-3.871 -8.548)" fill="none" stroke="#2a5082" stroke-miterlimit="10" stroke-width="2"/>
      <path id="패스_1748" data-name="패스 1748" d="M53.71,43.355A3.355,3.355,0,1,1,50.355,40a3.355,3.355,0,0,1,3.355,3.355" transform="translate(-7.581 -6.452)" fill="#a3d4ff"/>
      <ellipse id="타원_40" data-name="타원 40" cx="3" cy="4" rx="3" ry="4" transform="translate(40 33)" fill="none" stroke="#2a5082" stroke-miterlimit="10" stroke-width="2"/>
      <path id="패스_1749" data-name="패스 1749" d="M7.71,43.355A3.355,3.355,0,1,1,4.355,40,3.355,3.355,0,0,1,7.71,43.355" transform="translate(-0.161 -6.452)" fill="#a3d4ff"/>
      <ellipse id="타원_41" data-name="타원 41" cx="3.5" cy="4" rx="3.5" ry="4" transform="translate(1 33)" fill="none" stroke="#2a5082" stroke-miterlimit="10" stroke-width="2"/>
      <path id="패스_1750" data-name="패스 1750" d="M7.71,17.355A3.355,3.355,0,1,1,4.355,14,3.355,3.355,0,0,1,7.71,17.355" transform="translate(-0.161 -2.258)" fill="#a3d4ff"/>
      <ellipse id="타원_42" data-name="타원 42" cx="3.5" cy="4" rx="3.5" ry="4" transform="translate(1 11)" fill="none" stroke="#2a5082" stroke-miterlimit="10" stroke-width="2"/>
      <ellipse id="타원_43" data-name="타원 43" cx="13.5" cy="14" rx="13.5" ry="14" transform="translate(10 12)" fill="none" stroke="#2a5082" stroke-miterlimit="10" stroke-width="2"/>
      <path id="패스_1751" data-name="패스 1751" d="M26.71,14.959C23,14.959,20,20.975,20,28.4s3,13.437,6.71,13.436,6.71-6.015,6.71-13.436S30.416,14.959,26.71,14.959Z" transform="translate(-3.226 -2.413)" fill="none" stroke="#2a5082" stroke-miterlimit="10" stroke-width="2"/>
      <line id="선_460" data-name="선 460" x1="25" transform="translate(11 21)" fill="none" stroke="#2a5082" stroke-miterlimit="10" stroke-width="2"/>
      <line id="선_461" data-name="선 461" x1="25" transform="translate(11 31)" fill="none" stroke="#2a5082" stroke-miterlimit="10" stroke-width="2"/>
      <line id="선_462" data-name="선 462" y2="28" transform="translate(24 12)" fill="none" stroke="#2a5082" stroke-miterlimit="10" stroke-width="2"/>
      <line id="선_463" data-name="선 463" x1="2.537" y2="1.677" transform="translate(7.527 33.548)" fill="none" stroke="#2a5082" stroke-miterlimit="10" stroke-width="2"/>
      <line id="선_464" data-name="선 464" x2="2.537" y2="1.677" transform="translate(36.883 33.548)" fill="none" stroke="#2a5082" stroke-miterlimit="10" stroke-width="2"/>
      <line id="선_465" data-name="선 465" y1="1.677" x2="2.537" transform="translate(36.883 16.774)" fill="none" stroke="#2a5082" stroke-miterlimit="10" stroke-width="2"/>
      <line id="선_466" data-name="선 466" x1="2.537" y1="1.677" transform="translate(7.527 16.774)" fill="none" stroke="#2a5082" stroke-miterlimit="10" stroke-width="2"/>
      <path id="패스_1752" data-name="패스 1752" d="M53.71,17.355A3.355,3.355,0,1,1,50.355,14a3.355,3.355,0,0,1,3.355,3.355" transform="translate(-7.581 -2.258)" fill="#a3d4ff"/>
      <ellipse id="타원_44" data-name="타원 44" cx="3" cy="4" rx="3" ry="4" transform="translate(40 11)" fill="none" stroke="#2a5082" stroke-miterlimit="10" stroke-width="2"/>
      <line id="선_467" data-name="선 467" y2="3" transform="translate(24 8)" fill="none" stroke="#2a5082" stroke-miterlimit="10" stroke-width="2"/>
      <line id="선_468" data-name="선 468" y1="3" transform="translate(24 41)" fill="none" stroke="#2a5082" stroke-miterlimit="10" stroke-width="2"/>
    </g>
  </g>
</svg>
