<svg xmlns="http://www.w3.org/2000/svg" xmlns:xlink="http://www.w3.org/1999/xlink" width="54" height="47" viewBox="0 0 54 47">
  <defs>
    <clipPath id="clip-path">
      <rect id="사각형_745" data-name="사각형 745" width="54" height="47" transform="translate(0.001 0)" fill="none"/>
    </clipPath>
  </defs>
  <g id="i_global_05" transform="translate(-0.001)">
    <g id="그룹_674" data-name="그룹 674" transform="translate(0 0)" clip-path="url(#clip-path)">
      <line id="선_486" data-name="선 486" y1="2" transform="translate(44.001 8)" fill="none" stroke="#2a5082" stroke-miterlimit="10" stroke-width="2"/>
      <line id="선_487" data-name="선 487" y1="2.181" x2="1.247" transform="translate(47.543 9.089)" fill="none" stroke="#2a5082" stroke-miterlimit="10" stroke-width="2"/>
      <line id="선_488" data-name="선 488" y1="1.259" x2="2.159" transform="translate(50.356 12.853)" fill="none" stroke="#2a5082" stroke-miterlimit="10" stroke-width="2"/>
      <line id="선_489" data-name="선 489" x2="3" transform="translate(51.001 18)" fill="none" stroke="#2a5082" stroke-miterlimit="10" stroke-width="2"/>
      <rect id="사각형_739" data-name="사각형 739" width="41" height="30" transform="translate(5.001 16)" fill="#fff"/>
      <rect id="사각형_740" data-name="사각형 740" width="41" height="30" transform="translate(5.001 16)" fill="none" stroke="#2a5082" stroke-miterlimit="10" stroke-width="2"/>
      <path id="패스_1775" data-name="패스 1775" d="M47.843,17V27.282c0,4.061-3.458,6.855-7.712,6.855H12.7c-4.253,0-7.7-2.794-7.7-6.855V17Z" transform="translate(-0.716 -2.433)" fill="#a3d4ff"/>
      <path id="패스_1776" data-name="패스 1776" d="M47.843,17V27.282c0,4.061-3.458,6.855-7.712,6.855H12.7c-4.253,0-7.7-2.794-7.7-6.855V17Z" transform="translate(-0.716 -2.433)" fill="none" stroke="#2a5082" stroke-miterlimit="10" stroke-width="2"/>
      <path id="패스_1777" data-name="패스 1777" d="M34.139,14.427v-1.2A2.23,2.23,0,0,0,31.91,11H25.23A2.23,2.23,0,0,0,23,13.23v1.2" transform="translate(-3.292 -1.575)" fill="none" stroke="#2a5082" stroke-miterlimit="10" stroke-width="2"/>
      <path id="패스_1778" data-name="패스 1778" d="M10,41v7.712h8.569" transform="translate(-1.431 -5.869)" fill="none" stroke="#2a5082" stroke-miterlimit="10" stroke-width="2"/>
      <path id="패스_1779" data-name="패스 1779" d="M48.569,41v7.712H40" transform="translate(-5.726 -5.869)" fill="none" stroke="#2a5082" stroke-miterlimit="10" stroke-width="2"/>
      <rect id="사각형_741" data-name="사각형 741" width="4" height="5" transform="translate(15.001 29)" fill="#fff"/>
      <rect id="사각형_742" data-name="사각형 742" width="4" height="5" transform="translate(15.001 29)" fill="none" stroke="#2a5082" stroke-miterlimit="10" stroke-width="2"/>
      <rect id="사각형_743" data-name="사각형 743" width="5" height="5" transform="translate(31.001 29)" fill="#fff"/>
      <rect id="사각형_744" data-name="사각형 744" width="5" height="5" transform="translate(31.001 29)" fill="none" stroke="#2a5082" stroke-miterlimit="10" stroke-width="2"/>
    </g>
  </g>
</svg>
