<svg xmlns="http://www.w3.org/2000/svg" xmlns:xlink="http://www.w3.org/1999/xlink" width="53.621" height="54.52" viewBox="0 0 53.621 54.52">
  <defs>
    <clipPath id="clip-path">
      <rect id="사각형_731" data-name="사각형 731" width="53.621" height="54.52" fill="none"/>
    </clipPath>
  </defs>
  <g id="i_global_02" transform="translate(0 0)">
    <g id="그룹_665" data-name="그룹 665" transform="translate(0 0)" clip-path="url(#clip-path)">
      <path id="패스_1721" data-name="패스 1721" d="M10,20.552a9.514,9.514,0,0,1,9.513-9.513" transform="translate(-1.351 -1.492)" fill="none" stroke="#bcc0c4" stroke-miterlimit="10" stroke-width="2"/>
      <path id="패스_1722" data-name="패스 1722" d="M19.513,51.552A9.514,9.514,0,0,1,10,42.039" transform="translate(-1.351 -5.682)" fill="none" stroke="#bcc0c4" stroke-miterlimit="10" stroke-width="2"/>
      <path id="패스_1723" data-name="패스 1723" d="M50.513,42.039A9.514,9.514,0,0,1,41,51.552" transform="translate(-5.541 -5.682)" fill="none" stroke="#bcc0c4" stroke-miterlimit="10" stroke-width="2"/>
      <path id="패스_1724" data-name="패스 1724" d="M41,11.039a9.514,9.514,0,0,1,9.513,9.513" transform="translate(-5.541 -1.492)" fill="none" stroke="#bcc0c4" stroke-miterlimit="10" stroke-width="2"/>
      <path id="패스_1725" data-name="패스 1725" d="M34.649,62.228V58.863c0-.6-2.339-1.824-4.324-1.824S26,58.258,26,58.863v3.365" transform="translate(-3.514 -7.709)" fill="#a3d4ff"/>
      <path id="패스_1726" data-name="패스 1726" d="M34.649,62.228V58.863c0-.6-2.339-1.824-4.324-1.824S26,58.258,26,58.863v3.365" transform="translate(-3.514 -7.709)" fill="none" stroke="#2a5082" stroke-miterlimit="10" stroke-width="2"/>
      <path id="패스_1727" data-name="패스 1727" d="M30.595,51a2.6,2.6,0,0,1,2.595,2.48v1.061a2.6,2.6,0,0,1-5.189,0V53.48A2.6,2.6,0,0,1,30.595,51" transform="translate(-3.784 -6.893)" fill="#fff"/>
      <path id="패스_1728" data-name="패스 1728" d="M30.595,51a2.6,2.6,0,0,1,2.595,2.48v1.061a2.6,2.6,0,0,1-5.189,0V53.48A2.6,2.6,0,0,1,30.595,51Z" transform="translate(-3.784 -6.893)" fill="none" stroke="#2a5082" stroke-miterlimit="10" stroke-width="2"/>
      <path id="패스_1729" data-name="패스 1729" d="M59.649,37.228V33.863c0-.6-2.339-1.824-4.324-1.824S51,33.258,51,33.863v3.365Z" transform="translate(-6.892 -4.33)" fill="#a3d4ff"/>
      <path id="패스_1730" data-name="패스 1730" d="M59.649,37.228V33.863c0-.6-2.339-1.824-4.324-1.824S51,33.258,51,33.863v3.365Z" transform="translate(-6.892 -4.33)" fill="none" stroke="#2a5082" stroke-miterlimit="10" stroke-width="2"/>
      <path id="패스_1731" data-name="패스 1731" d="M55.595,26a2.6,2.6,0,0,1,2.595,2.48v1.061a2.6,2.6,0,0,1-5.189,0V28.48A2.6,2.6,0,0,1,55.595,26" transform="translate(-7.163 -3.514)" fill="#fff"/>
      <path id="패스_1732" data-name="패스 1732" d="M55.595,26a2.6,2.6,0,0,1,2.595,2.48v1.061a2.6,2.6,0,0,1-5.189,0V28.48A2.6,2.6,0,0,1,55.595,26Z" transform="translate(-7.163 -3.514)" fill="none" stroke="#2a5082" stroke-miterlimit="10" stroke-width="2"/>
      <path id="패스_1733" data-name="패스 1733" d="M9.649,37.228V33.863c0-.6-2.339-1.824-4.324-1.824S1,33.258,1,33.863v3.365Z" transform="translate(-0.135 -4.33)" fill="#a3d4ff"/>
      <path id="패스_1734" data-name="패스 1734" d="M9.649,37.228V33.863c0-.6-2.339-1.824-4.324-1.824S1,33.258,1,33.863v3.365Z" transform="translate(-0.135 -4.33)" fill="none" stroke="#2a5082" stroke-miterlimit="10" stroke-width="2"/>
      <path id="패스_1735" data-name="패스 1735" d="M5.595,26a2.6,2.6,0,0,1,2.595,2.48v1.061a2.6,2.6,0,0,1-5.189,0V28.48A2.6,2.6,0,0,1,5.595,26" transform="translate(-0.405 -3.514)" fill="#fff"/>
      <path id="패스_1736" data-name="패스 1736" d="M5.595,26a2.6,2.6,0,0,1,2.595,2.48v1.061a2.6,2.6,0,0,1-5.189,0V28.48A2.6,2.6,0,0,1,5.595,26Z" transform="translate(-0.405 -3.514)" fill="none" stroke="#2a5082" stroke-miterlimit="10" stroke-width="2"/>
      <path id="패스_1737" data-name="패스 1737" d="M34.649,12.228V8.863c0-.6-2.339-1.824-4.324-1.824S26,8.258,26,8.863v3.365Z" transform="translate(-3.514 -0.951)" fill="#a3d4ff"/>
      <path id="패스_1738" data-name="패스 1738" d="M34.649,12.228V8.863c0-.6-2.339-1.824-4.324-1.824S26,8.258,26,8.863v3.365Z" transform="translate(-3.514 -0.951)" fill="none" stroke="#2a5082" stroke-miterlimit="10" stroke-width="2"/>
      <path id="패스_1739" data-name="패스 1739" d="M30.595,1a2.6,2.6,0,0,1,2.595,2.48V4.541a2.6,2.6,0,0,1-5.189,0V3.48A2.6,2.6,0,0,1,30.595,1" transform="translate(-3.784 -0.135)" fill="#fff"/>
      <path id="패스_1740" data-name="패스 1740" d="M30.595,1a2.6,2.6,0,0,1,2.595,2.48V4.541a2.6,2.6,0,0,1-5.189,0V3.48A2.6,2.6,0,0,1,30.595,1Z" transform="translate(-3.784 -0.135)" fill="none" stroke="#2a5082" stroke-miterlimit="10" stroke-width="2"/>
      <path id="패스_1741" data-name="패스 1741" d="M28.916,43.714A13.837,13.837,0,1,0,15.045,29.877,13.794,13.794,0,0,0,28.916,43.714Z" transform="translate(-2.033 -2.168)" fill="none" stroke="#2a5082" stroke-miterlimit="10" stroke-width="2"/>
      <path id="패스_1742" data-name="패스 1742" d="M29.919,16C26.1,16,23,22.2,23,29.854s3.1,13.856,6.919,13.855,6.919-6.2,6.919-13.855S33.741,16,29.919,16Z" transform="translate(-3.108 -2.162)" fill="none" stroke="#2a5082" stroke-miterlimit="10" stroke-width="2"/>
      <line id="선_453" data-name="선 453" x1="25.946" transform="translate(13.838 22.52)" fill="none" stroke="#2a5082" stroke-miterlimit="10" stroke-width="2"/>
      <line id="선_454" data-name="선 454" x1="25.946" transform="translate(13.838 32.898)" fill="none" stroke="#2a5082" stroke-miterlimit="10" stroke-width="2"/>
      <line id="선_455" data-name="선 455" y2="27.675" transform="translate(26.81 13.871)" fill="none" stroke="#2a5082" stroke-miterlimit="10" stroke-width="2"/>
    </g>
  </g>
</svg>
