<svg xmlns="http://www.w3.org/2000/svg" xmlns:xlink="http://www.w3.org/1999/xlink" width="51.907" height="50.039" viewBox="0 0 51.907 50.039">
  <defs>
    <clipPath id="clip-path">
      <rect id="사각형_733" data-name="사각형 733" width="51.907" height="50.039" fill="none"/>
    </clipPath>
  </defs>
  <g id="i_global_08" transform="translate(0 0)">
    <g id="그룹_670" data-name="그룹 670" transform="translate(0 0)" clip-path="url(#clip-path)">
      <path id="패스_1754" data-name="패스 1754" d="M38.009,20A16,16,0,1,1,22,4a16.005,16.005,0,0,1,16,16" transform="translate(-0.809 -0.539)" fill="#fff"/>
      <path id="패스_1755" data-name="패스 1755" d="M37.421,3.779,40.8,6.191,26.954,20.033l-7.786-6.921L1,31.28V38.2L19.168,20.033l7.786,6.921,17.3-17.3L46.5,12.859,49.447,1Z" transform="translate(-0.135 -0.135)" fill="#a3d4ff"/>
      <circle id="타원_45" data-name="타원 45" cx="16.005" cy="16.005" r="16.005" transform="translate(5.191 3.461)" fill="none" stroke="#2a5082" stroke-linecap="round" stroke-linejoin="round" stroke-width="2"/>
      <path id="패스_1756" data-name="패스 1756" d="M44.313,38.853,55.627,50.166a2.447,2.447,0,0,1-3.46,3.46L40.853,42.313a2.447,2.447,0,0,1,3.46-3.46" transform="translate(-5.417 -5.147)" fill="#a3d4ff"/>
      <path id="패스_1757" data-name="패스 1757" d="M44.313,38.853,55.627,50.166a2.447,2.447,0,0,1-3.46,3.46L40.853,42.313a2.447,2.447,0,0,1,3.46-3.46Z" transform="translate(-5.417 -5.147)" fill="none" stroke="#2a5082" stroke-linecap="round" stroke-linejoin="round" stroke-width="2"/>
      <line id="선_469" data-name="선 469" x2="2.96" y2="2.96" transform="translate(32.579 30.715)" fill="none" stroke="#2a5082" stroke-linecap="round" stroke-linejoin="round" stroke-width="2"/>
      <path id="패스_1758" data-name="패스 1758" d="M34.223,15.865l-6.056,6.056L20.381,15,10,25.381" transform="translate(-1.349 -2.023)" fill="none" stroke="#2a5082" stroke-linecap="round" stroke-linejoin="round" stroke-width="2"/>
      <path id="패스_1759" data-name="패스 1759" d="M44.73,14.842l5.191-5.191,2.244,3.207L55.112,1,43.086,3.78,46.46,6.191,43,9.651" transform="translate(-5.8 -0.135)" fill="none" stroke="#2a5082" stroke-linecap="round" stroke-linejoin="round" stroke-width="2"/>
      <path id="패스_1760" data-name="패스 1760" d="M13,30.651l7.786-7.786,7.786,6.921L36.358,22" transform="translate(-1.753 -2.967)" fill="none" stroke="#2a5082" stroke-linecap="round" stroke-linejoin="round" stroke-width="2"/>
      <line id="선_470" data-name="선 470" x1="3.46" y2="3.46" transform="translate(0.865 27.684)" fill="none" stroke="#2a5082" stroke-linecap="round" stroke-linejoin="round" stroke-width="2"/>
      <line id="선_471" data-name="선 471" y1="6.056" x2="6.056" transform="translate(0.865 32.01)" fill="none" stroke="#2a5082" stroke-linecap="round" stroke-linejoin="round" stroke-width="2"/>
      <line id="선_472" data-name="선 472" y2="3.46" transform="translate(46.716 20.763)" fill="none" stroke="#bcc0c4" stroke-miterlimit="10" stroke-width="2"/>
      <line id="선_473" data-name="선 473" y2="3.46" transform="translate(46.716 27.684)" fill="none" stroke="#bcc0c4" stroke-miterlimit="10" stroke-width="2"/>
      <line id="선_474" data-name="선 474" x1="3.46" transform="translate(41.526 25.954)" fill="none" stroke="#bcc0c4" stroke-miterlimit="10" stroke-width="2"/>
      <line id="선_475" data-name="선 475" x1="3.46" transform="translate(48.447 25.954)" fill="none" stroke="#bcc0c4" stroke-miterlimit="10" stroke-width="2"/>
      <line id="선_476" data-name="선 476" y2="5.191" transform="translate(28.549 39.796)" fill="none" stroke="#bcc0c4" stroke-miterlimit="10" stroke-width="2"/>
      <line id="선_477" data-name="선 477" x2="5.191" transform="translate(25.954 42.391)" fill="none" stroke="#bcc0c4" stroke-miterlimit="10" stroke-width="2"/>
    </g>
  </g>
</svg>
