<svg xmlns="http://www.w3.org/2000/svg" width="38.399" height="38.399" viewBox="0 0 38.399 38.399">
  <g id="그룹_706" data-name="그룹 706" transform="translate(0 0)">
    <path id="패스_1769" data-name="패스 1769" d="M1125.133,1394.052a.738.738,0,0,0-1.037.123l-3.154,4-3.154-4a.738.738,0,0,0-1.16.914l3.734,4.737a.738.738,0,0,0,1.16,0l3.733-4.737A.738.738,0,0,0,1125.133,1394.052Z" transform="translate(-1101.743 -1382.288)" fill="#5887f9"/>
    <path id="패스_1770" data-name="패스 1770" d="M1122.812,1463.8l-2.858-.415-1.278-2.59a.739.739,0,0,0-1.324,0l-1.278,2.59-2.858.415a.738.738,0,0,0-.409,1.26l2.068,2.016-.488,2.847a.738.738,0,0,0,1.071.778l2.556-1.344,2.556,1.344a.739.739,0,0,0,1.072-.778l-.488-2.847,2.068-2.016a.738.738,0,0,0-.409-1.26Zm-2.968,2.489a.738.738,0,0,0-.213.654l.3,1.754-1.576-.828a.738.738,0,0,0-.687,0l-1.575.828.3-1.754a.739.739,0,0,0-.212-.654l-1.275-1.243,1.761-.256a.739.739,0,0,0,.556-.4l.788-1.6.787,1.6a.739.739,0,0,0,.556.4l1.762.256Z" transform="translate(-1098.814 -1432.384)" fill="#c4c4c4"/>
    <path id="패스_1771" data-name="패스 1771" d="M1066.963,1463.8l-2.858-.415-1.278-2.59a.739.739,0,0,0-1.324,0l-1.278,2.59-2.858.415a.738.738,0,0,0-.409,1.26l2.068,2.016-.488,2.847a.738.738,0,0,0,1.072.778l2.556-1.344,2.556,1.344a.738.738,0,0,0,1.071-.778l-.488-2.847,2.068-2.016a.738.738,0,0,0-.409-1.26Zm-2.968,2.489a.738.738,0,0,0-.212.654l.3,1.754-1.576-.828a.737.737,0,0,0-.687,0l-1.576.828.3-1.754a.738.738,0,0,0-.212-.654l-1.275-1.243,1.762-.256a.739.739,0,0,0,.556-.4l.788-1.6.788,1.6a.739.739,0,0,0,.557.4l1.761.256Z" transform="translate(-1056.734 -1432.384)" fill="#c4c4c4"/>
    <path id="패스_1772" data-name="패스 1772" d="M1178.661,1463.8l-2.858-.415-1.278-2.59a.739.739,0,0,0-1.324,0l-1.278,2.59-2.858.415a.738.738,0,0,0-.409,1.26l2.068,2.016-.488,2.847a.739.739,0,0,0,1.071.778l2.556-1.344,2.556,1.344a.738.738,0,0,0,1.071-.778l-.488-2.847,2.068-2.016a.738.738,0,0,0-.409-1.26Zm-2.968,2.489a.738.738,0,0,0-.212.654l.3,1.754-1.576-.828a.738.738,0,0,0-.687,0l-1.575.828.3-1.754a.739.739,0,0,0-.212-.654l-1.274-1.243,1.761-.256a.738.738,0,0,0,.556-.4l.788-1.6.788,1.6a.738.738,0,0,0,.556.4l1.761.256Z" transform="translate(-1140.894 -1432.384)" fill="#c4c4c4"/>
    <path id="패스_1773" data-name="패스 1773" d="M1092.485,1362.063a8.244,8.244,0,0,0,.731-6.6,18.419,18.419,0,0,0,1.917-7.9.739.739,0,0,0-1.114-.636l-11.7,6.9a9.394,9.394,0,0,0-12.769,0l-11.7-6.9a.738.738,0,0,0-1.113.636,18.414,18.414,0,0,0,1.917,7.9,8.247,8.247,0,0,0,.731,6.6c1.533,2.407,4.542,3.818,8.937,4.2a9.4,9.4,0,0,0,15.229,0C1087.943,1365.88,1090.952,1364.469,1092.485,1362.063Zm-4.184-4.051a.738.738,0,0,0,.484,1.4,7.529,7.529,0,0,0,3.272-2.258,6.249,6.249,0,0,1-.818,4.12c-1.156,1.814-3.427,2.957-6.759,3.409a9.383,9.383,0,0,0-1.139-9.743l10.228-6.033C1093.312,1351.4,1092.3,1356.625,1088.3,1358.012Zm-27.666,3.268a6.26,6.26,0,0,1-.821-4.126,7.524,7.524,0,0,0,3.268,2.254.739.739,0,0,0,.94-.455.739.739,0,0,0-.455-.94c-4-1.387-5.012-6.613-5.269-9.11l10.228,6.033a9.386,9.386,0,0,0-1.139,9.743C1064.062,1364.227,1061.792,1363.088,1060.635,1361.28Zm15.3,7.395a7.938,7.938,0,1,1,7.938-7.938A7.947,7.947,0,0,1,1075.934,1368.674Z" transform="translate(-1056.734 -1346.82)" fill="#707070"/>
  </g>
</svg>
