<svg xmlns="http://www.w3.org/2000/svg" width="38.399" height="38.399" viewBox="0 0 38.399 38.399">
  <g id="그룹_712" data-name="그룹 712" transform="translate(0 0)">
    <g id="그룹_708" data-name="그룹 708" transform="translate(19.809 16.759)">
      <path id="패스_1782" data-name="패스 1782" d="M771.189,723.964h-.008a18.772,18.772,0,0,1-4.713-2.5c-3.025-2.118-4.563-4.342-4.57-6.61-.011-3.609,0-7.906,0-7.949a.868.868,0,0,1,.868-.866,2.848,2.848,0,0,0,2.845-2.845.868.868,0,0,1,.868-.868H775.9a.868.868,0,0,1,.868.868,2.848,2.848,0,0,0,2.845,2.845.868.868,0,0,1,.868.866c0,.043.011,4.34,0,7.949-.017,5.265-8.591,8.893-8.956,9.045A.867.867,0,0,1,771.189,723.964Zm-7.555-16.273c0,1.409-.007,4.473,0,7.155.011,3.43,5.608,6.474,7.543,7.308,2.378-1.061,7.554-4.049,7.564-7.308.009-2.683,0-5.746,0-7.155a4.6,4.6,0,0,1-3.632-3.631h-7.846A4.6,4.6,0,0,1,763.634,707.691Z" transform="translate(-761.894 -702.323)" fill="#707070"/>
    </g>
    <g id="그룹_709" data-name="그룹 709" transform="translate(23.668 23.274)">
      <path id="패스_1783" data-name="패스 1783" d="M842.7,840.428a.862.862,0,0,1-.409-.1,20.162,20.162,0,0,1-2.338-1.454c-1.968-1.433-2.672-2.635-2.674-3.282-.005-1.736-.006-3.631,0-5.133a.868.868,0,0,1,.868-.868h0a.868.868,0,0,1,.868.869c0,1.474,0,3.327,0,5.035a5.863,5.863,0,0,0,1.96,1.975,18.481,18.481,0,0,0,2.137,1.328.868.868,0,0,1-.411,1.634Z" transform="translate(-837.27 -829.587)" fill="#707070"/>
    </g>
    <g id="그룹_710" data-name="그룹 710" transform="translate(0.032 28.946)">
      <path id="패스_1784" data-name="패스 1784" d="M385.954,949.813l-.069,0a.868.868,0,0,1-.742-.555l-2.3-6.015-1.317,2.28a.868.868,0,0,1-.752.434h-4.281a.868.868,0,1,1,0-1.737h3.779l1.977-3.424a.868.868,0,0,1,1.563.124l2.3,6.015,1.317-2.28a.868.868,0,0,1,.752-.434h4.281a.868.868,0,1,1,0,1.737h-3.779l-1.977,3.424A.868.868,0,0,1,385.954,949.813Z" transform="translate(-375.621 -940.359)" fill="#c4c4c4"/>
    </g>
    <g id="그룹_711" data-name="그룹 711" transform="translate(0 0)">
      <path id="패스_1785" data-name="패스 1785" d="M390.643,403.147a.867.867,0,0,1-.445-.123,48.19,48.19,0,0,1-8.663-6.782C377.1,391.8,374.9,387.475,375,383.384A8.458,8.458,0,0,1,383.409,375a10.94,10.94,0,0,1,7.234,2.982A10.94,10.94,0,0,1,397.877,375a8.457,8.457,0,0,1,8.405,8.384,12.852,12.852,0,0,1-1.3,5.75.868.868,0,0,1-1.575-.733,11.138,11.138,0,0,0,1.141-4.973,6.73,6.73,0,0,0-6.669-6.692A9.128,9.128,0,0,0,391.3,379.8a.868.868,0,0,1-1.31,0,9.129,9.129,0,0,0-6.579-3.068,6.731,6.731,0,0,0-6.67,6.692c-.216,8.471,11.42,16.265,13.905,17.831.194-.122.427-.27.7-.447a.868.868,0,1,1,.953,1.451c-.55.361-.959.613-1.206.76A.87.87,0,0,1,390.643,403.147Z" transform="translate(-375 -375)" fill="#5887f9"/>
    </g>
  </g>
</svg>
