<svg xmlns="http://www.w3.org/2000/svg" width="19.856" height="19.856" viewBox="0 0 19.856 19.856">
  <g id="그룹_1278" data-name="그룹 1278" transform="translate(-1288 -284)">
    <path id="Icon_awesome-info-circle" data-name="Icon awesome-info-circle" d="M10.49.563a9.928,9.928,0,1,0,9.928,9.928A9.929,9.929,0,0,0,10.49.563Zm0,4.4A1.681,1.681,0,1,1,8.809,6.647,1.681,1.681,0,0,1,10.49,4.966Zm2.242,10.168a.48.48,0,0,1-.48.48H8.729a.48.48,0,0,1-.48-.48v-.961a.48.48,0,0,1,.48-.48h.48V11.131h-.48a.48.48,0,0,1-.48-.48V9.69a.48.48,0,0,1,.48-.48h2.562a.48.48,0,0,1,.48.48v4h.48a.48.48,0,0,1,.48.48Z" transform="translate(1287.438 283.438)" fill="#2b2f3b"/>
  </g>
</svg>
