<svg id="그룹_713" data-name="그룹 713" xmlns="http://www.w3.org/2000/svg" width="37.831" height="37.832" viewBox="0 0 37.831 37.832">
  <path id="패스_1786" data-name="패스 1786" d="M1298.065,875.6c0-.046.462-4.651.717-7.97.259-3.362-.867-4.161-2.725-5.187-.143-.079-2.22-1.245-3.184-1.781a5.46,5.46,0,1,0-8.171,0c-.964.535-3.042,1.7-3.184,1.781-1.858,1.026-2.984,1.825-2.726,5.187.256,3.318.713,7.923.718,7.97a.711.711,0,0,0,.324.528l3.085,1.974v9.264a2.054,2.054,0,0,0,2.052,2.052h7.634a2.054,2.054,0,0,0,2.052-2.052V878.1l3.085-1.974A.71.71,0,0,0,1298.065,875.6ZM1288.787,853a4.039,4.039,0,1,1-4.039,4.039A4.044,4.044,0,0,1,1288.787,853Zm0,9.5a5.472,5.472,0,0,0,.629-.037l1.408,6.8-2.037,2.054-2.037-2.054,1.408-6.8A5.464,5.464,0,0,0,1288.787,862.5Zm8.579,5.015c-.214,2.778-.571,6.467-.681,7.6l-3.123,2a.711.711,0,0,0-.327.6v9.652a.632.632,0,0,1-.631.631H1289.5v-7.5a.711.711,0,0,0-1.421,0v7.5h-3.106a.632.632,0,0,1-.631-.631v-9.652a.71.71,0,0,0-.327-.6l-3.123-2c-.11-1.129-.467-4.818-.681-7.6-.2-2.621.442-2.976,2-3.834.147-.081,2.549-1.428,3.65-2.039a5.463,5.463,0,0,0,.925.474l-1.5,7.234a.71.71,0,0,0,.191.644l2.8,2.822a.711.711,0,0,0,.5.21h.024a.711.711,0,0,0,.5-.21l2.8-2.822a.711.711,0,0,0,.191-.644l-1.5-7.234a5.456,5.456,0,0,0,.925-.474c1.1.611,3.5,1.958,3.65,2.039C1296.924,864.54,1297.567,864.9,1297.365,867.516Z" transform="translate(-1269.871 -851.581)" fill="#5887f9"/>
  <path id="패스_1787" data-name="패스 1787" d="M1242.9,921.363h-5.271a.325.325,0,0,1-.32-.321v-7.419a.71.71,0,0,0-.328-.6l-2.333-1.493c-.093-.95-.356-3.683-.515-5.755-.147-1.909.256-2.131,1.449-2.79.114-.063,1.952-1.095,3.1-1.732a.71.71,0,0,0,.089-1.185,2.937,2.937,0,0,1,2.763-5.1.71.71,0,1,0,.471-1.341,4.361,4.361,0,0,0-4.843,6.847c-.776.431-2.16,1.209-2.269,1.27-1.486.82-2.386,1.459-2.179,4.143.2,2.552.548,6.094.552,6.129a.711.711,0,0,0,.324.528l2.3,1.469v7.03a1.744,1.744,0,0,0,1.742,1.742h5.271a.71.71,0,1,0,0-1.421Z" transform="translate(-1232.688 -886.127)" fill="#c4c4c4"/>
  <path id="패스_1788" data-name="패스 1788" d="M1380.937,901.742c-.109-.06-1.49-.837-2.269-1.27a4.358,4.358,0,0,0-4.843-6.847.71.71,0,1,0,.471,1.341,2.938,2.938,0,0,1,2.763,5.1.71.71,0,0,0,.089,1.185c1.155.64,2.989,1.669,3.1,1.732,1.194.659,1.6.881,1.449,2.79-.159,2.072-.423,4.806-.516,5.755l-2.333,1.493a.71.71,0,0,0-.327.6v7.419a.325.325,0,0,1-.321.321h-5.271a.71.71,0,0,0,0,1.421h5.271a1.743,1.743,0,0,0,1.742-1.742v-7.03l2.3-1.469a.711.711,0,0,0,.324-.528c0-.035.355-3.577.552-6.129C1383.323,903.2,1382.422,902.563,1380.937,901.742Z" transform="translate(-1345.314 -886.127)" fill="#707070"/>
</svg>
