<svg xmlns="http://www.w3.org/2000/svg" width="37.388" height="37.388" viewBox="0 0 37.388 37.388">
  <g id="그룹_681" data-name="그룹 681" transform="translate(0 0)">
    <path id="패스_1734" data-name="패스 1734" d="M250.17,1210.741a.846.846,0,0,0-.845-.846H235.147a.845.845,0,0,0,0,1.691h14.177A.845.845,0,0,0,250.17,1210.741Z" transform="translate(-223.984 -1201.225)" fill="#c4c4c4"/>
    <path id="패스_1735" data-name="패스 1735" d="M245.473,1228.485a.846.846,0,0,0-.845-.846h-9.48a.845.845,0,0,0,0,1.691h9.48A.845.845,0,0,0,245.473,1228.485Z" transform="translate(-223.984 -1214.46)" fill="#c4c4c4"/>
    <path id="패스_1736" data-name="패스 1736" d="M235.147,1245.384a.845.845,0,1,0,0,1.691h4.784a.845.845,0,1,0,0-1.691Z" transform="translate(-223.984 -1227.695)" fill="#c4c4c4"/>
    <path id="패스_1737" data-name="패스 1737" d="M304.9,1221.065l-5.223-4.342a.845.845,0,0,0-1.081,0l-5.223,4.342a.845.845,0,0,0-.3.65v18.92a2.927,2.927,0,0,0,2.924,2.924h6.288a2.927,2.927,0,0,0,2.924-2.924v-18.92A.845.845,0,0,0,304.9,1221.065Zm-10.141,2.55a7.862,7.862,0,0,0,3.532,1.268v5.155a.845.845,0,0,0,1.691,0v-5.155a7.858,7.858,0,0,0,3.532-1.268v12.892h-8.754Zm3.127-4.1a2.467,2.467,0,0,0,2.5,0l2.744,2.282a6.261,6.261,0,0,1-7.989,0Zm5.627,21.124a1.234,1.234,0,0,1-1.233,1.233h-6.288a1.234,1.234,0,0,1-1.233-1.233V1238.2h8.754Z" transform="translate(-267.816 -1206.172)" fill="#5887f9"/>
    <path id="패스_1738" data-name="패스 1738" d="M215.909,1201.868a23.4,23.4,0,0,1-8-.169.845.845,0,0,0-.763.231l-4.8,4.8v-6.486a.846.846,0,0,0-.427-.735c-4.153-2.364-6.535-5.9-6.535-9.709,0-6.8,7.628-12.334,17-12.334,7.413,0,13.92,3.446,16.193,8.575a.846.846,0,1,0,1.546-.685c-2.539-5.731-9.668-9.58-17.739-9.58-10.308,0-18.694,6.291-18.694,14.025,0,4.3,2.53,8.255,6.962,10.928v8.043a.845.845,0,0,0,1.443.6l5.927-5.927a25.139,25.139,0,0,0,8.135.1.846.846,0,0,0-.256-1.672Z" transform="translate(-193.697 -1175.775)" fill="#707070"/>
  </g>
</svg>
