<svg xmlns="http://www.w3.org/2000/svg" width="36.476" height="36.476" viewBox="0 0 36.476 36.476">
  <g id="그룹_702" data-name="그룹 702" transform="translate(0 0)">
    <g id="그룹_685" data-name="그룹 685" transform="translate(20.995 1.833)">
      <g id="그룹_682" data-name="그룹 682" transform="translate(0 0)">
        <path id="패스_1739" data-name="패스 1739" d="M293.039,430.249H279.207a.825.825,0,0,1,0-1.65h13.832a.825.825,0,0,1,0,1.65Z" transform="translate(-278.382 -428.599)" fill="#707070"/>
      </g>
      <g id="그룹_683" data-name="그룹 683" transform="translate(4.582 4.399)">
        <path id="패스_1740" data-name="패스 1740" d="M306.939,447.994H297.69a.825.825,0,1,1,0-1.65h9.249a.825.825,0,1,1,0,1.65Z" transform="translate(-296.865 -446.344)" fill="#707070"/>
      </g>
      <g id="그룹_684" data-name="그룹 684" transform="translate(9.165 8.798)">
        <path id="패스_1741" data-name="패스 1741" d="M320.841,465.738h-4.667a.825.825,0,1,1,0-1.65h4.667a.825.825,0,1,1,0,1.65Z" transform="translate(-315.349 -464.088)" fill="#707070"/>
      </g>
    </g>
    <g id="그룹_689" data-name="그룹 689" transform="translate(0 24.195)">
      <g id="그룹_686" data-name="그룹 686" transform="translate(0 8.798)">
        <path id="패스_1742" data-name="패스 1742" d="M208.353,555.938H194.522a.825.825,0,0,1,0-1.65h13.831a.825.825,0,0,1,0,1.65Z" transform="translate(-193.697 -554.288)" fill="#707070"/>
      </g>
      <g id="그룹_687" data-name="그룹 687" transform="translate(0 4.399)">
        <path id="패스_1743" data-name="패스 1743" d="M203.771,538.194h-9.249a.825.825,0,1,1,0-1.65h9.249a.825.825,0,1,1,0,1.65Z" transform="translate(-193.697 -536.544)" fill="#707070"/>
      </g>
      <g id="그룹_688" data-name="그룹 688" transform="translate(0 0)">
        <path id="패스_1744" data-name="패스 1744" d="M199.188,520.45h-4.667a.825.825,0,0,1,0-1.65h4.667a.825.825,0,0,1,0,1.65Z" transform="translate(-193.697 -518.8)" fill="#707070"/>
      </g>
    </g>
    <g id="그룹_695" data-name="그룹 695" transform="translate(0 0)">
      <g id="그룹_690" data-name="그룹 690" transform="translate(0)">
        <path id="패스_1745" data-name="패스 1745" d="M203.034,439.881a9.337,9.337,0,1,1,9.337-9.337A9.348,9.348,0,0,1,203.034,439.881Zm0-17.025a7.688,7.688,0,1,0,7.687,7.687A7.7,7.7,0,0,0,203.034,422.856Z" transform="translate(-193.697 -421.206)" fill="#5887f9"/>
      </g>
      <g id="그룹_693" data-name="그룹 693" transform="translate(5.296 5.734)">
        <g id="그룹_691" data-name="그룹 691">
          <path id="패스_1746" data-name="패스 1746" d="M216.251,446.716a1.192,1.192,0,1,1,1.192-1.192A1.193,1.193,0,0,1,216.251,446.716Z" transform="translate(-215.06 -444.333)" fill="#5887f9"/>
        </g>
        <g id="그룹_692" data-name="그룹 692" transform="translate(5.699)">
          <path id="패스_1747" data-name="패스 1747" d="M239.238,446.716a1.192,1.192,0,1,1,1.191-1.192A1.193,1.193,0,0,1,239.238,446.716Z" transform="translate(-238.046 -444.333)" fill="#5887f9"/>
        </g>
      </g>
      <g id="그룹_694" data-name="그룹 694" transform="translate(5.296 11.626)">
        <path id="패스_1748" data-name="패스 1748" d="M219.1,471.118a5.261,5.261,0,0,1-3.808-1.617.825.825,0,1,1,1.185-1.148,3.645,3.645,0,0,0,5.247,0,.825.825,0,1,1,1.185,1.148A5.261,5.261,0,0,1,219.1,471.118Z" transform="translate(-215.06 -468.102)" fill="#5887f9"/>
      </g>
    </g>
    <g id="그룹_701" data-name="그룹 701" transform="translate(17.802 17.802)">
      <g id="그룹_696" data-name="그룹 696">
        <path id="패스_1749" data-name="패스 1749" d="M274.839,511.686a9.337,9.337,0,1,1,9.337-9.337A9.348,9.348,0,0,1,274.839,511.686Zm0-17.025a7.688,7.688,0,1,0,7.688,7.687A7.7,7.7,0,0,0,274.839,494.661Z" transform="translate(-265.502 -493.011)" fill="#c4c4c4"/>
      </g>
      <g id="그룹_699" data-name="그룹 699" transform="translate(5.297 5.734)">
        <g id="그룹_697" data-name="그룹 697">
          <path id="패스_1750" data-name="패스 1750" d="M288.057,518.521a1.192,1.192,0,1,1,1.191-1.192A1.193,1.193,0,0,1,288.057,518.521Z" transform="translate(-286.866 -516.138)" fill="#c4c4c4"/>
        </g>
        <g id="그룹_698" data-name="그룹 698" transform="translate(5.698)">
          <path id="패스_1751" data-name="패스 1751" d="M311.042,518.521a1.192,1.192,0,1,1,1.191-1.192A1.193,1.193,0,0,1,311.042,518.521Z" transform="translate(-309.851 -516.138)" fill="#c4c4c4"/>
        </g>
      </g>
      <g id="그룹_700" data-name="그룹 700" transform="translate(5.296 11.003)">
        <path id="패스_1752" data-name="패스 1752" d="M294.122,540.409a.822.822,0,0,1-.592-.251,3.645,3.645,0,0,0-5.247,0,.825.825,0,1,1-1.185-1.148,5.295,5.295,0,0,1,7.617,0,.825.825,0,0,1-.593,1.4Z" transform="translate(-286.865 -537.394)" fill="#c4c4c4"/>
      </g>
    </g>
  </g>
</svg>
