<svg id="그룹_707" data-name="그룹 707" xmlns="http://www.w3.org/2000/svg" width="29.6" height="38.399" viewBox="0 0 29.6 38.399">
  <path id="패스_1774" data-name="패스 1774" d="M1646.958,784.653h-7.274l-.01-.007a4.241,4.241,0,0,0-8.45,0l-.01.007h-7.274a3.281,3.281,0,0,0-3.292,3.264v27.991a3.281,3.281,0,0,0,3.292,3.264h23.017a3.281,3.281,0,0,0,3.291-3.264V787.917A3.281,3.281,0,0,0,1646.958,784.653Zm-14.307.361a2.8,2.8,0,1,1,5.6,0,.722.722,0,0,0,.283.573c.733.561,1.5,1.155,2.405,1.855.818.635,1.642,1.284,1.778,1.414a1.039,1.039,0,0,1-.735,1.773H1628.92a1.039,1.039,0,0,1-.736-1.772c.221-.213,2.321-1.843,4.184-3.27A.721.721,0,0,0,1632.65,785.014Zm16.156,30.895a1.838,1.838,0,0,1-1.849,1.822h-23.017a1.838,1.838,0,0,1-1.849-1.822V787.917a1.838,1.838,0,0,1,1.849-1.822h5.4c-1.013.786-2,1.561-2.176,1.738a2.481,2.481,0,0,0,1.753,4.237h13.059a2.481,2.481,0,0,0,1.752-4.237c-.177-.177-1.163-.952-2.176-1.737h5.4a1.838,1.838,0,0,1,1.849,1.822Z" transform="translate(-1620.649 -780.773)" fill="#707070"/>
  <path id="패스_1775" data-name="패스 1775" d="M1678.711,796.058a1.082,1.082,0,1,0-1.082-1.082A1.083,1.083,0,0,0,1678.711,796.058Z" transform="translate(-1663.912 -790.736)" fill="#b1b1b1"/>
  <path id="패스_1776" data-name="패스 1776" d="M1687.029,846.561h-8.642a.721.721,0,0,0,0,1.442h8.642a.721.721,0,0,0,0-1.442Z" transform="translate(-1663.939 -830.723)" fill="#b1b1b1"/>
  <path id="패스_1777" data-name="패스 1777" d="M1687.029,877.263h-8.642a.721.721,0,0,0,0,1.442h8.642a.721.721,0,0,0,0-1.442Z" transform="translate(-1663.939 -854.033)" fill="#5887f9"/>
  <path id="패스_1778" data-name="패스 1778" d="M1687.029,907.964h-8.642a.721.721,0,0,0,0,1.442h8.642a.721.721,0,0,0,0-1.442Z" transform="translate(-1663.939 -877.343)" fill="#b1b1b1"/>
  <path id="패스_1779" data-name="패스 1779" d="M1647.188,839.745a.721.721,0,0,0-1,.209l-1.579,2.415-1.579-2.415a.721.721,0,0,0-1.207.789l2.183,3.338a.721.721,0,0,0,1.207,0l2.183-3.338A.721.721,0,0,0,1647.188,839.745Z" transform="translate(-1636.637 -825.458)" fill="#b1b1b1"/>
  <path id="패스_1780" data-name="패스 1780" d="M1647.188,870.446a.721.721,0,0,0-1,.209l-1.579,2.416-1.579-2.416a.721.721,0,0,0-1.207.79l2.183,3.338a.721.721,0,0,0,1.207,0l2.183-3.338A.721.721,0,0,0,1647.188,870.446Z" transform="translate(-1636.637 -848.768)" fill="#5887f9"/>
  <path id="패스_1781" data-name="패스 1781" d="M1647.188,901.147a.721.721,0,0,0-1,.209l-1.579,2.416-1.579-2.416a.721.721,0,0,0-1.207.789l2.183,3.339a.721.721,0,0,0,1.207,0l2.183-3.339A.721.721,0,0,0,1647.188,901.147Z" transform="translate(-1636.637 -872.078)" fill="#b1b1b1"/>
</svg>
