<svg xmlns="http://www.w3.org/2000/svg" width="41.036" height="41.066" viewBox="0 0 41.036 41.066">
  <g id="그룹_704" data-name="그룹 704" transform="translate(0 0)">
    <path id="패스_1761" data-name="패스 1761" d="M1221.434,978.467h7.035a.929.929,0,0,0,0-1.857h-7.035a.929.929,0,1,0,0,1.857Z" transform="translate(-1204.433 -961.546)" fill="#5887f9"/>
    <path id="패스_1762" data-name="패스 1762" d="M1221.434,994.733h7.035a.929.929,0,0,0,0-1.857h-7.035a.929.929,0,1,0,0,1.857Z" transform="translate(-1204.433 -973.272)" fill="#5887f9"/>
    <path id="패스_1763" data-name="패스 1763" d="M1221.434,1011h7.035a.929.929,0,0,0,0-1.857h-7.035a.929.929,0,1,0,0,1.857Z" transform="translate(-1204.433 -984.998)" fill="#5887f9"/>
    <path id="패스_1764" data-name="패스 1764" d="M1214.733,926.532l-3.622-3.622a.929.929,0,0,0-1.313,1.313l2.036,2.036h-26.469a7.128,7.128,0,0,0-7.12,7.12v9.792a.929.929,0,0,0,1.857,0v-9.792a5.268,5.268,0,0,1,5.262-5.262h26.469l-2.036,2.037a.929.929,0,0,0,1.313,1.313l3.622-3.622A.929.929,0,0,0,1214.733,926.532Z" transform="translate(-1173.969 -922.638)" fill="#c4c4c4"/>
    <path id="패스_1765" data-name="패스 1765" d="M1198.753,992.876a.929.929,0,0,0-.928.929v9.791a5.268,5.268,0,0,1-5.262,5.262h-26.469l2.036-2.037a.928.928,0,1,0-1.313-1.313l-3.622,3.622a.928.928,0,0,0,0,1.313l3.622,3.622a.928.928,0,0,0,1.313-1.313l-2.036-2.037h26.469a7.127,7.127,0,0,0,7.119-7.12V993.8A.928.928,0,0,0,1198.753,992.876Z" transform="translate(-1162.923 -973.272)" fill="#c4c4c4"/>
    <path id="패스_1766" data-name="패스 1766" d="M1214.814,978.752a4.845,4.845,0,0,0,4.84-4.84V961.541a4.846,4.846,0,0,0-4.84-4.84h-11.525a4.845,4.845,0,0,0-4.839,4.84v12.371a4.845,4.845,0,0,0,4.839,4.84Zm-14.507-4.84V961.541a2.986,2.986,0,0,1,2.982-2.982h11.525a2.986,2.986,0,0,1,2.982,2.982v12.371a2.986,2.986,0,0,1-2.982,2.983h-11.525A2.986,2.986,0,0,1,1200.306,973.912Z" transform="translate(-1188.533 -947.194)" fill="#707070"/>
  </g>
</svg>
