<svg id="그룹_703" data-name="그룹 703" xmlns="http://www.w3.org/2000/svg" width="37.407" height="37.407" viewBox="0 0 37.407 37.407">
  <path id="패스_1753" data-name="패스 1753" d="M858.492,1000.5c-.579-.228-2.166-.846-3.79-1.477a5.592,5.592,0,1,0-9.389,0c-1.624.631-3.21,1.249-3.79,1.477-1.515.6-2.392,1.309-2.392,3.193v6.038a.846.846,0,0,0,.846.846h20.061a.846.846,0,0,0,.846-.846V1003.7C860.883,1001.812,860.006,1001.1,858.492,1000.5Zm-8.485-8.409a3.9,3.9,0,1,1-3.9,3.9A3.9,3.9,0,0,1,850.007,992.094Zm9.184,16.795h-3.318v-3.367a.846.846,0,1,0-1.692,0v3.367h-8.349v-3.367a.846.846,0,1,0-1.692,0v3.367h-3.318V1003.7c0-.892.122-1.148,1.319-1.619.65-.255,2.571-1,4.388-1.709a5.575,5.575,0,0,0,6.955,0c1.817.706,3.738,1.453,4.388,1.709,1.2.471,1.319.727,1.319,1.619Z" transform="translate(-839.131 -973.173)" fill="#5887f9"/>
  <path id="패스_1754" data-name="패스 1754" d="M955.938,1061.635h-8.357a.846.846,0,1,0,0,1.692h8.357a.846.846,0,1,0,0-1.692Z" transform="translate(-919.377 -1026.296)" fill="#c4c4c4"/>
  <path id="패스_1755" data-name="패스 1755" d="M955.938,1043.891h-8.357a.846.846,0,1,0,0,1.692h8.357a.846.846,0,1,0,0-1.692Z" transform="translate(-919.377 -1013.063)" fill="#c4c4c4"/>
  <path id="패스_1756" data-name="패스 1756" d="M955.938,1026.147h-8.357a.846.846,0,1,0,0,1.692h8.357a.846.846,0,1,0,0-1.692Z" transform="translate(-919.377 -999.831)" fill="#c4c4c4"/>
  <path id="패스_1757" data-name="패스 1757" d="M919,922.638H902.008a2.54,2.54,0,0,0-2.538,2.538v10.592a2.541,2.541,0,0,0,2.538,2.538h.943v4.126a.846.846,0,0,0,1.444.6l4.725-4.724H919a2.541,2.541,0,0,0,2.538-2.538V925.176A2.54,2.54,0,0,0,919,922.638Zm.846,13.13a.847.847,0,0,1-.846.846h-10.23a.846.846,0,0,0-.6.248l-3.528,3.528v-2.93a.846.846,0,0,0-.846-.846h-1.789a.847.847,0,0,1-.846-.846V925.176a.847.847,0,0,1,.846-.846H919a.847.847,0,0,1,.846.846Z" transform="translate(-884.129 -922.638)" fill="#707070"/>
  <path id="패스_1758" data-name="패스 1758" d="M920.735,948.644a1.222,1.222,0,1,0,1.222,1.222A1.223,1.223,0,0,0,920.735,948.644Z" transform="translate(-899.076 -942.032)" fill="#c4c4c4"/>
  <path id="패스_1759" data-name="패스 1759" d="M939.282,948.644a1.222,1.222,0,1,0,1.222,1.222A1.223,1.223,0,0,0,939.282,948.644Z" transform="translate(-912.908 -942.032)" fill="#c4c4c4"/>
  <path id="패스_1760" data-name="패스 1760" d="M957.828,948.644a1.222,1.222,0,1,0,1.222,1.222A1.223,1.223,0,0,0,957.828,948.644Z" transform="translate(-926.739 -942.032)" fill="#c4c4c4"/>
</svg>
