<svg xmlns="http://www.w3.org/2000/svg" width="19.206" height="19.237" viewBox="0 0 19.206 19.237">
  <path id="Icon_feather-phone" data-name="Icon feather-phone" d="M20.867,16.278v2.67a1.78,1.78,0,0,1-1.94,1.78A17.612,17.612,0,0,1,11.247,18a17.354,17.354,0,0,1-5.34-5.34A17.612,17.612,0,0,1,3.175,4.94,1.78,1.78,0,0,1,4.946,3h2.67A1.78,1.78,0,0,1,9.4,4.531a11.427,11.427,0,0,0,.623,2.5,1.78,1.78,0,0,1-.4,1.878l-1.13,1.13a14.239,14.239,0,0,0,5.34,5.34l1.13-1.13a1.78,1.78,0,0,1,1.878-.4,11.427,11.427,0,0,0,2.5.623,1.78,1.78,0,0,1,1.531,1.807Z" transform="translate(-2.417 -2.25)" fill="none" stroke="#5887f9" stroke-linecap="round" stroke-linejoin="round" stroke-width="1.5"/>
</svg>
