<svg xmlns="http://www.w3.org/2000/svg" width="17.7" height="17.7" viewBox="0 0 17.7 17.7">
  <path id="Icon_material-person-outline" data-name="Icon material-person-outline" d="M14.85,8.1a2.323,2.323,0,1,1-2.323,2.323A2.323,2.323,0,0,1,14.85,8.1m0,9.956c3.286,0,6.748,1.615,6.748,2.323V21.6H8.1V20.381c0-.708,3.463-2.323,6.748-2.323M14.85,6a4.425,4.425,0,1,0,4.425,4.425A4.424,4.424,0,0,0,14.85,6Zm0,9.956C11.9,15.956,6,17.438,6,20.381V23.7H23.7V20.381C23.7,17.438,17.8,15.956,14.85,15.956Z" transform="translate(-6 -6)" fill="#bababa"/>
</svg>
