<svg xmlns="http://www.w3.org/2000/svg" width="64.46" height="64.46" viewBox="0 0 64.46 64.46">
  <g id="그룹_784" data-name="그룹 784" transform="translate(-1659.5 -811)">
    <g id="사각형_757" data-name="사각형 757" transform="translate(1659.5 811)" fill="#dcdcdc" stroke="#b4b4b4" stroke-width="2" opacity="0.13">
      <rect width="64.46" height="64.46" rx="32" stroke="none"/>
      <rect x="1" y="1" width="62.46" height="62.46" rx="31" fill="none"/>
    </g>
    <g id="그룹_662" data-name="그룹 662" transform="translate(1677.059 828)">
      <path id="패스_1695" data-name="패스 1695" d="M594.27,1647.643a7.8,7.8,0,1,0-7.8-7.8A7.8,7.8,0,0,0,594.27,1647.643Zm0-14.35a6.554,6.554,0,1,1-6.554,6.554A6.562,6.562,0,0,1,594.27,1633.293Z" transform="translate(-572.125 -1632.052)" fill="#5887f9"/>
      <path id="패스_1696" data-name="패스 1696" d="M609.426,1665.331a.621.621,0,0,0,.975,0l3.087-3.918a.62.62,0,0,0-.975-.768l-2.6,3.3-2.6-3.3a.62.62,0,0,0-.975.768Z" transform="translate(-587.768 -1654.534)" fill="#5887f9"/>
      <path id="패스_1697" data-name="패스 1697" d="M533.5,1703.455c-.5-.2-1.911-.746-3.326-1.3a4.646,4.646,0,1,0-7.67,0c-1.416.55-2.821,1.1-3.326,1.3-1.276.5-1.967,1.068-1.967,2.618v5.122a.621.621,0,0,0,.62.621h17.016a.621.621,0,0,0,.621-.621v-5.122C535.467,1704.523,534.776,1703.957,533.5,1703.455Zm-7.161-7.32a3.405,3.405,0,1,1-3.405,3.405A3.409,3.409,0,0,1,526.338,1696.135Zm7.887,14.439h-3.009v-2.953a.621.621,0,0,0-1.241,0v2.953H522.7v-2.953a.621.621,0,0,0-1.241,0v2.953h-3.008v-4.5c0-.849.176-1.068,1.18-1.463.557-.219,2.218-.865,3.774-1.47a4.636,4.636,0,0,0,5.866,0c1.556.6,3.216,1.25,3.774,1.47,1,.395,1.18.614,1.18,1.463Z" transform="translate(-517.21 -1681.875)" fill="#797979"/>
      <path id="패스_1698" data-name="패스 1698" d="M623.852,1702.749a.621.621,0,0,0-.62.621V1716.8h-7.875a.621.621,0,1,0,0,1.241h8.495a.621.621,0,0,0,.62-.62V1703.37A.621.621,0,0,0,623.852,1702.749Z" transform="translate(-594.531 -1688.103)" fill="#b1b1b1"/>
      <path id="패스_1699" data-name="패스 1699" d="M517.83,1652.033a.621.621,0,0,0,.621-.621v-18.119h13.433a.621.621,0,0,0,0-1.241H517.83a.621.621,0,0,0-.62.621v18.74A.621.621,0,0,0,517.83,1652.033Z" transform="translate(-517.21 -1632.052)" fill="#b1b1b1"/>
    </g>
  </g>
</svg>
