<svg xmlns="http://www.w3.org/2000/svg" width="112" height="112" viewBox="0 0 112 112">
  <g id="그룹_784" data-name="그룹 784" transform="translate(-1174.5 -652.96)">
    <circle id="타원_166" data-name="타원 166" cx="56" cy="56" r="56" transform="translate(1174.5 652.96)" fill="#fff"/>
    <g id="타원_165" data-name="타원 165" transform="translate(1182.5 660.96)" fill="#ffd73f" stroke="#ffd73f" stroke-width="8">
      <circle cx="48" cy="48" r="48" stroke="none"/>
      <circle cx="48" cy="48" r="44" fill="none"/>
    </g>
    <circle id="타원_167" data-name="타원 167" cx="41" cy="41" r="41" transform="translate(1189.5 667.96)" fill="#fff"/>
    <g id="그룹_472" data-name="그룹 472" transform="translate(1223 694.009)">
      <g id="그룹_469" data-name="그룹 469" transform="translate(5.408 10.398)">
        <path id="패스_1558" data-name="패스 1558" d="M181.142,2671.454a38.7,38.7,0,0,0,11.18,11.181l2.39-3.955a28.523,28.523,0,0,1-9.616-9.617" transform="translate(-181.142 -2669.063)" fill="#fff" stroke="#ffd73f" stroke-linecap="round" stroke-linejoin="round" stroke-width="2"/>
      </g>
      <g id="그룹_470" data-name="그룹 470" transform="translate(0.654)">
        <path id="패스_1559" data-name="패스 1559" d="M164.53,2634.066a.949.949,0,0,1-.713-.388l-3.157-4.882a.714.714,0,0,1,.027-.758l2.712-3.612a1.045,1.045,0,0,1,.739-.37h5.61a1.045,1.045,0,0,1,.739.37l2.712,3.612a.714.714,0,0,1,.027.758l-3.157,4.882a.949.949,0,0,1-.713.388Z" transform="translate(-160.564 -2624.057)" fill="#fff" stroke="#b1b1b1" stroke-miterlimit="10" stroke-width="2"/>
        <path id="패스_1560" data-name="패스 1560" d="M164.53,2634.066a.949.949,0,0,1-.713-.388l-3.157-4.882a.714.714,0,0,1,.027-.758l2.712-3.612a1.045,1.045,0,0,1,.739-.37h5.61a1.045,1.045,0,0,1,.739.37l2.712,3.612a.714.714,0,0,1,.027.758l-3.157,4.882a.949.949,0,0,1-.713.388Z" transform="translate(-160.564 -2624.057)" fill="none" stroke="#b1b1b1" stroke-linecap="round" stroke-linejoin="round" stroke-width="2"/>
      </g>
      <g id="그룹_471" data-name="그룹 471" transform="translate(0 10.01)">
        <path id="패스_1561" data-name="패스 1561" d="M163.51,2667.381a1.612,1.612,0,0,0-1.465,1.113l-4.244,15.243a2.651,2.651,0,0,0,.384,2.036l5.888,7.832a.823.823,0,0,0,1.389,0l5.888-7.832a2.652,2.652,0,0,0,.384-2.036l-4.244-15.243a1.612,1.612,0,0,0-1.465-1.113Z" transform="translate(-157.734 -2667.381)" fill="#fff" stroke="#707070" stroke-width="2"/>
        <path id="패스_1562" data-name="패스 1562" d="M163.51,2667.381a1.612,1.612,0,0,0-1.465,1.113l-4.244,15.243a2.651,2.651,0,0,0,.384,2.036l5.888,7.832a.823.823,0,0,0,1.389,0l5.888-7.832a2.652,2.652,0,0,0,.384-2.036l-4.244-15.243a1.612,1.612,0,0,0-1.465-1.113Z" transform="translate(-157.734 -2667.381)" fill="none" stroke="#797979" stroke-linecap="round" stroke-linejoin="round" stroke-width="2"/>
      </g>
    </g>
  </g>
</svg>
