<svg xmlns="http://www.w3.org/2000/svg" width="64.46" height="64.46" viewBox="0 0 64.46 64.46">
  <g id="그룹_782" data-name="그룹 782" transform="translate(-1660 -607)">
    <g id="사각형_755" data-name="사각형 755" transform="translate(1660 607)" fill="#dcdcdc" stroke="#b4b4b4" stroke-width="2" opacity="0.13">
      <rect width="64.46" height="64.46" rx="32" stroke="none"/>
      <rect x="1" y="1" width="62.46" height="62.46" rx="31" fill="none"/>
    </g>
    <g id="그룹_663" data-name="그룹 663" transform="translate(1676 622)">
      <path id="패스_1700" data-name="패스 1700" d="M381.812,1661.045h-2.84a.651.651,0,0,0,0,1.3h2.84a2.443,2.443,0,0,1,1.363.415l-13.716,11.825-13.716-11.825a2.442,2.442,0,0,1,1.363-.415h2.84a.651.651,0,0,0,0-1.3h-2.84a3.764,3.764,0,0,0-3.76,3.76v16.66a3.764,3.764,0,0,0,3.76,3.76h24.706a3.764,3.764,0,0,0,3.76-3.76V1664.8A3.764,3.764,0,0,0,381.812,1661.045Zm-8.676,12.091,10.891-9.389a2.438,2.438,0,0,1,.243,1.058v16.66a2.439,2.439,0,0,1-.243,1.059Zm-18.244,9.389a2.438,2.438,0,0,1-.243-1.059V1664.8a2.438,2.438,0,0,1,.243-1.058l10.891,9.389Zm2.215,1.4a2.443,2.443,0,0,1-1.363-.414L366.78,1674l2.255,1.944a.652.652,0,0,0,.85,0l2.255-1.944,11.036,9.514a2.443,2.443,0,0,1-1.363.414Z" transform="translate(-353.347 -1650.559)" fill="#797979"/>
      <path id="패스_1701" data-name="패스 1701" d="M400.255,1627.92a7.561,7.561,0,1,0-7.561-7.561A7.569,7.569,0,0,0,400.255,1627.92Zm0-13.819a6.259,6.259,0,1,1-6.259,6.258A6.265,6.265,0,0,1,400.255,1614.1Z" transform="translate(-384.142 -1612.799)" fill="#5887f9"/>
      <path id="패스_1702" data-name="패스 1702" d="M413.625,1644.27a.651.651,0,0,0,1.02,0l3.055-3.854a.651.651,0,1,0-1.02-.809l-2.545,3.211-2.545-3.211a.651.651,0,0,0-1.02.809Z" transform="translate(-398.023 -1633.587)" fill="#5887f9"/>
    </g>
  </g>
</svg>
