<svg xmlns="http://www.w3.org/2000/svg" width="122" height="122" viewBox="0 0 122 122">
  <g id="그룹_782" data-name="그룹 782" transform="translate(-1691 -282.183)">
    <circle id="타원_80" data-name="타원 80" cx="61" cy="61" r="61" transform="translate(1691 282.183)" fill="#fff"/>
    <g id="타원_81" data-name="타원 81" transform="translate(1699 290.183)" fill="none" stroke="#44bebe" stroke-width="8" opacity="0.84">
      <circle cx="53" cy="53" r="53" stroke="none"/>
      <circle cx="53" cy="53" r="49" fill="none"/>
    </g>
    <circle id="타원_82" data-name="타원 82" cx="45" cy="45" r="45" transform="translate(1707 298.183)" fill="#fff"/>
    <g id="그룹_467" data-name="그룹 467" transform="translate(1734.145 326.731)">
      <path id="패스_1551" data-name="패스 1551" d="M1003.18,2632.9v-2.941a2.5,2.5,0,0,1,2.5-2.5h7.484a2.5,2.5,0,0,1,2.5,2.5v2.941" transform="translate(-991.57 -2627.457)" fill="#fff" stroke="#797979" stroke-linecap="round" stroke-linejoin="round" stroke-width="2"/>
      <rect id="사각형_630" data-name="사각형 630" width="34.135" height="15.275" rx="7.638" transform="translate(0.788 17.63)" fill="#fff" stroke="#797979" stroke-linecap="round" stroke-linejoin="round" stroke-width="2"/>
      <path id="패스_1552" data-name="패스 1552" d="M987.394,2657.172v5.6a2.254,2.254,0,0,1-2.255,2.254h-31.2a2.254,2.254,0,0,1-2.255-2.254V2651.16a2.255,2.255,0,0,1,2.255-2.255h31.2a2.255,2.255,0,0,1,2.255,2.255v1.127" transform="translate(-951.684 -2644.07)" fill="#fff" stroke="#b1b1b1" stroke-linecap="round" stroke-linejoin="round" stroke-width="2"/>
      <g id="그룹_466" data-name="그룹 466" transform="translate(16.265 18.306)">
        <rect id="사각형_631" data-name="사각형 631" width="3.18" height="5.299" transform="translate(0 0)" fill="#fff" stroke="#5acccc" stroke-linecap="round" stroke-linejoin="round" stroke-width="2"/>
      </g>
    </g>
  </g>
</svg>
