<svg xmlns="http://www.w3.org/2000/svg" width="64.46" height="64.46" viewBox="0 0 64.46 64.46">
  <g id="그룹_783" data-name="그룹 783" transform="translate(-1660 -709)">
    <g id="사각형_756" data-name="사각형 756" transform="translate(1660 709)" fill="#dcdcdc" stroke="#b4b4b4" stroke-width="2" opacity="0.13">
      <rect width="64.46" height="64.46" rx="32" stroke="none"/>
      <rect x="1" y="1" width="62.46" height="62.46" rx="31" fill="none"/>
    </g>
    <g id="그룹_664" data-name="그룹 664" transform="translate(1677 727)">
      <path id="패스_1703" data-name="패스 1703" d="M1090.494,823.97a.592.592,0,0,0-.828.118l-2.252,3-2.252-3a.592.592,0,1,0-.947.71l2.726,3.634a.592.592,0,0,0,.947,0l2.726-3.634A.592.592,0,0,0,1090.494,823.97Z" transform="translate(-1079.8 -818.3)" fill="#5887f9"/>
      <path id="패스_1704" data-name="패스 1704" d="M1090.287,868.148h-5.355a.592.592,0,0,0,0,1.183h5.355a.592.592,0,0,0,0-1.183Z" transform="translate(-1079.997 -853.847)" fill="#b1b1b1"/>
      <path id="패스_1705" data-name="패스 1705" d="M1090.287,885.647h-5.355a.592.592,0,0,0,0,1.183h5.355a.592.592,0,1,0,0-1.183Z" transform="translate(-1079.997 -867.889)" fill="#b1b1b1"/>
      <path id="패스_1706" data-name="패스 1706" d="M1090.287,903.146h-5.355a.592.592,0,0,0,0,1.183h5.355a.592.592,0,1,0,0-1.183Z" transform="translate(-1079.997 -881.932)" fill="#b1b1b1"/>
      <path id="패스_1707" data-name="패스 1707" d="M1143.266,810.955a.592.592,0,0,0-.837,0l-5.4,5.4a35.427,35.427,0,0,1-5.319-4.843,3.351,3.351,0,0,0-2.094-2.569l12.18-12.18a.592.592,0,1,0-.837-.837L1128,808.888a.592.592,0,0,0-.173.418v8.249a.592.592,0,0,0,.592.592h8.249a.591.591,0,0,0,.418-.173l6.182-6.182A.592.592,0,0,0,1143.266,810.955Zm-12.69,1.1a.592.592,0,0,0,.592.592,2.16,2.16,0,0,1,2.158,2.158.592.592,0,0,0,.592.592,2.16,2.16,0,0,1,2.073,1.567H1130.5l-1.5-1.5v-5.487A2.16,2.16,0,0,1,1130.576,812.055Z" transform="translate(-1114.892 -795.749)" fill="#797979"/>
      <path id="패스_1708" data-name="패스 1708" d="M1086.608,818.553a.592.592,0,0,0-.592.592v2.933a1.036,1.036,0,0,1-1.035,1.036h-20.412a1.037,1.037,0,0,1-1.035-1.036v-24.11a1.037,1.037,0,0,1,1.035-1.035h20.2a.592.592,0,0,0,0-1.183h-20.2a2.221,2.221,0,0,0-2.219,2.219v24.11a2.221,2.221,0,0,0,2.219,2.219h20.412a2.221,2.221,0,0,0,2.219-2.219v-2.933A.592.592,0,0,0,1086.608,818.553Z" transform="translate(-1062.35 -795.749)" fill="#797979"/>
    </g>
  </g>
</svg>
