<svg xmlns="http://www.w3.org/2000/svg" width="112" height="112" viewBox="0 0 112 112">
  <g id="그룹_783" data-name="그룹 783" transform="translate(-654 -652.96)">
    <circle id="타원_93" data-name="타원 93" cx="56" cy="56" r="56" transform="translate(654 652.96)" fill="#fff"/>
    <g id="타원_94" data-name="타원 94" transform="translate(662 660.96)" fill="#5875ef" stroke="#5887f9" stroke-width="8">
      <circle cx="48" cy="48" r="48" stroke="none"/>
      <circle cx="48" cy="48" r="44" fill="none"/>
    </g>
    <circle id="타원_97" data-name="타원 97" cx="41" cy="41" r="41" transform="translate(669 667.96)" fill="#fff"/>
    <g id="그룹_534" data-name="그룹 534" transform="translate(690.542 690.789)">
      <g id="그룹_517" data-name="그룹 517" transform="translate(0 3.578)">
        <g id="그룹_514" data-name="그룹 514" transform="translate(22.914 0)">
          <g id="그룹_513" data-name="그룹 513">
            <path id="패스_1620" data-name="패스 1620" d="M499.61,2676.362a.665.665,0,0,1-.649-.68V2651.39a1.982,1.982,0,0,0-2.008-1.949H482.407a.681.681,0,0,1,0-1.36h14.545a3.312,3.312,0,0,1,3.307,3.31v24.292A.665.665,0,0,1,499.61,2676.362Z" transform="translate(-481.758 -2648.081)" fill="#797979" stroke="#797979" stroke-width="0.5"/>
          </g>
        </g>
        <g id="그룹_516" data-name="그룹 516" transform="translate(0 0)">
          <g id="그룹_515" data-name="그룹 515">
            <path id="패스_1621" data-name="패스 1621" d="M425.307,2678.873H396.831a3.306,3.306,0,0,1-3.307-3.3v-24.2a3.306,3.306,0,0,1,3.307-3.3h14.838a.678.678,0,0,1,0,1.355H396.831a1.978,1.978,0,0,0-2.008,1.942v24.2a1.978,1.978,0,0,0,2.008,1.942h28.477a.678.678,0,0,1,0,1.355Z" transform="translate(-393.524 -2648.081)" fill="#797979" stroke="#797979" stroke-width="0.5"/>
          </g>
        </g>
      </g>
      <g id="그룹_518" data-name="그룹 518" transform="translate(6.063 12.677)">
        <path id="패스_1622" data-name="패스 1622" d="M428.892,2692.962H417.518a.649.649,0,0,1-.649-.649,6.767,6.767,0,0,1,3.451-6,3.719,3.719,0,1,1,5.771,0,6.767,6.767,0,0,1,3.451,6A.649.649,0,0,1,428.892,2692.962Zm-10.69-1.3h10.005a5.324,5.324,0,0,0-3.489-4.535.649.649,0,0,1-.158-1.151,2.419,2.419,0,1,0-2.713,0,.649.649,0,0,1-.157,1.15A5.324,5.324,0,0,0,418.2,2691.664Z" transform="translate(-416.869 -2680.223)" fill="#5887f9"/>
      </g>
      <g id="그룹_521" data-name="그룹 521" transform="translate(20.314 14.081)">
        <g id="그룹_520" data-name="그룹 520" transform="translate(0 0)">
          <g id="그룹_519" data-name="그룹 519">
            <rect id="사각형_637" data-name="사각형 637" width="12.975" height="0.935" fill="#b1b1b1" stroke="#b1b1b1" stroke-width="0.5"/>
          </g>
        </g>
      </g>
      <g id="그룹_524" data-name="그룹 524" transform="translate(20.314 17.957)">
        <g id="그룹_523" data-name="그룹 523" transform="translate(0 0)">
          <g id="그룹_522" data-name="그룹 522">
            <rect id="사각형_638" data-name="사각형 638" width="12.975" height="0.935" fill="#b1b1b1" stroke="#b1b1b1" stroke-width="0.5"/>
          </g>
        </g>
      </g>
      <g id="그룹_527" data-name="그룹 527" transform="translate(20.314 22.241)">
        <g id="그룹_526" data-name="그룹 526">
          <g id="그룹_525" data-name="그룹 525">
            <rect id="사각형_639" data-name="사각형 639" width="12.975" height="0.935" fill="#b1b1b1" stroke="#b1b1b1" stroke-width="0.5"/>
          </g>
        </g>
      </g>
      <g id="그룹_530" data-name="그룹 530" transform="translate(17.496)">
        <g id="그룹_529" data-name="그룹 529" transform="translate(0)">
          <g id="그룹_528" data-name="그룹 528">
            <path id="패스_1623" data-name="패스 1623" d="M466.447,2641.892h-4.9a.649.649,0,0,1-.649-.649v-6.288a.649.649,0,0,1,.649-.649h4.9a.649.649,0,0,1,.649.649v6.288A.649.649,0,0,1,466.447,2641.892Zm-4.254-1.3h3.6v-4.99h-3.6Z" transform="translate(-460.895 -2634.305)" fill="#b1b1b1" stroke="#b1b1b1" stroke-width="0.5"/>
          </g>
        </g>
      </g>
      <g id="그룹_533" data-name="그룹 533" transform="translate(6.343 10.073)">
        <g id="그룹_532" data-name="그룹 532" transform="translate(0 0)">
          <g id="그룹_531" data-name="그룹 531">
            <path id="패스_1624" data-name="패스 1624" d="M446.819,2688.835H446.8l-28.273-.182a.583.583,0,0,1,0-1.166h0l28.273.181a1.47,1.47,0,0,0,1.029-.394,1.264,1.264,0,0,0,.417-.921l.121-17.628a.583.583,0,0,1,1.166.008l-.121,17.628a2.422,2.422,0,0,1-.788,1.767A2.648,2.648,0,0,1,446.819,2688.835Z" transform="translate(-417.948 -2668.147)" fill="#b1b1b1" stroke="#b1b1b1" stroke-width="0.5"/>
          </g>
        </g>
      </g>
    </g>
  </g>
</svg>
