<svg id="그룹_666" data-name="그룹 666" xmlns="http://www.w3.org/2000/svg" width="24.268" height="25.523" viewBox="0 0 24.268 25.523">
  <path id="패스_1712" data-name="패스 1712" d="M579.416,869.51l-1.622-.632a3.389,3.389,0,1,0-5.7,0l-1.612.628a5.552,5.552,0,0,0-1.058.506,5.554,5.554,0,0,0-1.058-.506l-1.612-.628a3.389,3.389,0,1,0-5.7,0l-1.622.632a2.675,2.675,0,0,0-2.146,2.6v5.222a.49.49,0,0,0,.49.49h5.442a.49.49,0,1,0,0-.981h-4.952v-4.732c0-1.024.6-1.335,1.52-1.691,0,0,1.389-.542,2.247-.874a.49.49,0,0,0,.169-.8,2.408,2.408,0,1,1,3.4,0,.491.491,0,0,0,.169.8c.857.332,2.236.87,2.236.87a3.511,3.511,0,0,1,1.086.572.49.49,0,0,0,.655,0,3.512,3.512,0,0,1,1.086-.572s1.379-.538,2.236-.87a.49.49,0,0,0,.169-.8,2.408,2.408,0,1,1,3.4,0,.49.49,0,0,0,.169.8c.857.332,2.247.874,2.247.874.918.356,1.52.666,1.52,1.691v4.732H575.63a.49.49,0,1,0,0,.981h5.442a.49.49,0,0,0,.49-.49v-5.222A2.675,2.675,0,0,0,579.416,869.51Z" transform="translate(-557.294 -863.651)" fill="#5875ee"/>
  <path id="패스_1713" data-name="패스 1713" d="M599.351,941.578l-2.269-.89a4.243,4.243,0,1,0-6.928,0c-.891.346-2.273.885-2.273.885-1.07.415-2.686,1.042-2.686,3.238v4.857a.49.49,0,0,0,.49.49h15.862a.49.49,0,0,0,.49-.49v-4.857C602.037,942.62,600.421,941.993,599.351,941.578Zm-5.735-6.595a3.262,3.262,0,1,1-3.262,3.262A3.266,3.266,0,0,1,593.616,934.984Zm7.441,14.2h-2.3v-2.612a.49.49,0,0,0-.98,0v2.612h-8.321v-2.612a.49.49,0,0,0-.981,0v2.612h-2.3v-4.367c0-1.525,1.047-1.931,2.06-2.324,0,0,1.612-.628,2.627-1.022a4.231,4.231,0,0,0,5.506,0c1.019.4,2.627,1.022,2.627,1.022,1.013.393,2.06.8,2.06,2.324Z" transform="translate(-581.482 -924.641)" fill="#5875ee"/>
  <path id="패스_1714" data-name="패스 1714" d="M729.342,989.8a.735.735,0,1,0,.735.735A.736.736,0,0,0,729.342,989.8Z" transform="translate(-705.81 -973.011)" fill="#5875ee"/>
  <path id="패스_1715" data-name="패스 1715" d="M729.342,1016.987a.735.735,0,1,0,.735.735A.736.736,0,0,0,729.342,1016.987Z" transform="translate(-705.81 -996.582)" fill="#5875ee"/>
  <path id="패스_1716" data-name="패스 1716" d="M729.342,1044.175a.735.735,0,1,0,.735.735A.736.736,0,0,0,729.342,1044.175Z" transform="translate(-705.81 -1020.152)" fill="#5875ee"/>
  <ellipse id="타원_105" data-name="타원 105" cx="0.735" cy="0.735" rx="0.735" ry="0.735" transform="translate(0 16.787)" fill="#5875ee"/>
  <ellipse id="타원_106" data-name="타원 106" cx="0.735" cy="0.735" rx="0.735" ry="0.735" transform="translate(0 20.405)" fill="#5875ee"/>
  <ellipse id="타원_107" data-name="타원 107" cx="0.735" cy="0.735" rx="0.735" ry="0.735" transform="translate(0 24.023)" fill="#5875ee"/>
</svg>
