<svg id="그룹_667" data-name="그룹 667" xmlns="http://www.w3.org/2000/svg" width="19.36" height="22.053" viewBox="0 0 19.36 22.053">
  <path id="패스_1717" data-name="패스 1717" d="M1309.543,541.259a.641.641,0,1,0,.641.641A.642.642,0,0,0,1309.543,541.259Z" transform="translate(-1301.681 -535.705)" fill="#5875ee"/>
  <path id="패스_1718" data-name="패스 1718" d="M1341.895,541.259a.641.641,0,1,0,.641.641A.642.642,0,0,0,1341.895,541.259Z" transform="translate(-1330.396 -535.705)" fill="#5875ee"/>
  <path id="패스_1719" data-name="패스 1719" d="M1261.885,503.292c-.048-.023-2.733-1.365-3.5-1.757a4.787,4.787,0,0,0,.779-2.622v-4.159a2.908,2.908,0,0,0-2.9-2.9h-3.824a2.908,2.908,0,0,0-2.9,2.9v4.159a4.787,4.787,0,0,0,.779,2.621c-.771.392-3.457,1.734-3.5,1.757a3.217,3.217,0,0,0-2.138,3.265v6.931a.414.414,0,0,0,.414.414h18.532a.414.414,0,0,0,.414-.414v-6.931A3.217,3.217,0,0,0,1261.885,503.292Zm-7.542.438a4.832,4.832,0,0,0,.649-.045l1.337,5.346-1.986,1.958-1.986-1.958,1.337-5.346A4.83,4.83,0,0,0,1254.343,503.73Zm0-.828a3.993,3.993,0,0,1-3.988-3.988v-4.037c.984.926,2.721,1.071,4.294,1.2,2.292.191,3.683.4,3.683,1.712v1.123A3.993,3.993,0,0,1,1254.343,502.9Zm-1.912-10.223h3.824a2.079,2.079,0,0,1,2.076,2.076V496.1a7.765,7.765,0,0,0-3.614-.848c-1.76-.146-3.576-.3-4.133-1.442A2.077,2.077,0,0,1,1252.431,492.678Zm10.764,20.4h-2.952v-3.954a.414.414,0,0,0-.828,0v3.954h-10.142v-3.954a.414.414,0,1,0-.828,0v3.954h-2.952v-6.517a2.394,2.394,0,0,1,1.668-2.518c.05-.024,2.974-1.487,3.667-1.84a4.823,4.823,0,0,0,2.059,1.3l-1.39,5.555a.414.414,0,0,0,.111.4l2.435,2.4a.414.414,0,0,0,.291.119h.021a.414.414,0,0,0,.291-.119l2.435-2.4a.414.414,0,0,0,.111-.4l-1.39-5.555a4.826,4.826,0,0,0,2.06-1.3c.693.353,3.617,1.815,3.667,1.839a2.394,2.394,0,0,1,1.668,2.518Z" transform="translate(-1244.663 -491.85)" fill="#5875ee"/>
</svg>
