<svg xmlns="http://www.w3.org/2000/svg" width="22.861" height="23.412" viewBox="0 0 22.861 23.412">
  <g id="그룹_669" data-name="그룹 669" transform="translate(0 0)">
    <path id="패스_1728" data-name="패스 1728" d="M1585.207,592.3h-19.8a1.53,1.53,0,0,0,0,3.059h.049v7.672a.43.43,0,0,0,.43.43h4.906a.43.43,0,0,0,.429-.43v-2.2h8.174v2.2a.43.43,0,0,0,.429.43h4.906a.43.43,0,0,0,.429-.43v-7.672h.049a1.53,1.53,0,0,0,0-3.059Zm-.908,10.3h-4.047v-2.2a.429.429,0,0,0-.43-.43h-9.033a.429.429,0,0,0-.43.43v2.2h-4.047v-7.243H1584.3Zm.908-8.1h-19.8a.671.671,0,1,1,0-1.341h19.8a.671.671,0,1,1,0,1.341Z" transform="translate(-1563.875 -580.055)" fill="#5875ee"/>
    <path id="패스_1729" data-name="패스 1729" d="M1600.13,498.153a.43.43,0,0,0,.43-.43v-1.167c0-1.307.859-1.64,1.768-1.992,0,0,1.381-.539,2.256-.878a3.648,3.648,0,0,0,4.741,0c.875.339,2.256.878,2.256.878.909.353,1.768.686,1.768,1.992v1.167a.43.43,0,1,0,.859,0v-1.167c0-1.895-1.394-2.436-2.316-2.793l-1.946-.758a3.658,3.658,0,1,0-5.982,0c-.763.3-1.946.758-1.946.758-.922.358-2.316.9-2.316,2.793v1.167A.43.43,0,0,0,1600.13,498.153Zm6.824-10.05a2.8,2.8,0,1,1-2.8,2.8A2.8,2.8,0,0,1,1606.954,488.1Z" transform="translate(-1595.524 -487.244)" fill="#5875ee"/>
  </g>
</svg>
