<svg xmlns="http://www.w3.org/2000/svg" width="23.064" height="23.064" viewBox="0 0 23.064 23.064">
  <g id="그룹_668" data-name="그룹 668" transform="translate(-1563.819 -1206.253)">
    <path id="패스_1720" data-name="패스 1720" d="M1624.9,1213.289a1.6,1.6,0,0,0,.532-.091l.2-.069a8.555,8.555,0,0,1,1.167-.344,5.035,5.035,0,0,1,1.029-.106,5.261,5.261,0,0,1,1.038.11,9,9,0,0,1,1.167.341l.206.072a1.611,1.611,0,0,0,1.929-2.306,4.474,4.474,0,0,0-1.844-1.747c-.08-.042-.162-.08-.243-.117a2.3,2.3,0,1,0-4.5,0c-.082.038-.164.075-.243.118a4.5,4.5,0,0,0-1.843,1.743v0a1.61,1.61,0,0,0,1.408,2.394Zm2.929-6.169a1.434,1.434,0,1,1-1.434,1.434A1.436,1.436,0,0,1,1627.832,1207.119Zm-3.579,4.2a3.69,3.69,0,0,1,1.492-1.4c.057-.03.117-.056.176-.084a2.3,2.3,0,0,0,3.825,0c.058.027.118.053.175.084a3.664,3.664,0,0,1,1.491,1.4.745.745,0,0,1-.89,1.066l-.2-.071a9.757,9.757,0,0,0-1.278-.372,6.13,6.13,0,0,0-1.207-.127,5.911,5.911,0,0,0-1.2.123,9.343,9.343,0,0,0-1.283.376l-.2.07a.744.744,0,0,1-.9-1.065Z" transform="translate(-52.481)" fill="#5875ee"/>
    <path id="패스_1721" data-name="패스 1721" d="M1630.224,1342.681l-.2.07a8.565,8.565,0,0,1-1.167.344,5.045,5.045,0,0,1-1.029.106,5.277,5.277,0,0,1-1.038-.109,9.007,9.007,0,0,1-1.168-.341l-.206-.071a1.611,1.611,0,0,0-1.929,2.306,4.472,4.472,0,0,0,1.844,1.747c.08.042.161.08.243.117a2.3,2.3,0,1,0,4.5,0c.082-.038.164-.075.243-.117a4.5,4.5,0,0,0,1.843-1.743v0a1.61,1.61,0,0,0-1.94-2.3Zm-2.4,6.078a1.434,1.434,0,1,1,1.434-1.434A1.436,1.436,0,0,1,1627.827,1348.759Zm3.579-4.2a3.691,3.691,0,0,1-1.492,1.4c-.057.03-.117.056-.176.084a2.3,2.3,0,0,0-3.825,0c-.059-.028-.118-.053-.175-.084a3.66,3.66,0,0,1-1.492-1.4.745.745,0,0,1,.89-1.066l.2.071a9.755,9.755,0,0,0,1.278.372,6.149,6.149,0,0,0,1.207.127,5.914,5.914,0,0,0,1.2-.124,9.294,9.294,0,0,0,1.282-.376l.2-.069a.744.744,0,0,1,.948.455A.751.751,0,0,1,1631.406,1344.564Z" transform="translate(-52.476 -120.308)" fill="#5875ee"/>
    <path id="패스_1722" data-name="패스 1722" d="M1704.886,1267.966a2.309,2.309,0,0,0-.479.051c-.038-.082-.075-.164-.117-.243a4.5,4.5,0,0,0-1.743-1.843h0a1.618,1.618,0,0,0-1.318-.113,1.61,1.61,0,0,0-.986,2.052l.07.2a8.525,8.525,0,0,1,.344,1.167,5.035,5.035,0,0,1,.106,1.029,5.257,5.257,0,0,1-.11,1.038,9.013,9.013,0,0,1-.341,1.167l-.071.206a1.61,1.61,0,0,0,2.306,1.929,4.474,4.474,0,0,0,1.748-1.844c.042-.08.08-.162.117-.244a2.3,2.3,0,1,0,.476-4.551Zm-1.359,4.389a3.662,3.662,0,0,1-1.4,1.491.744.744,0,0,1-1.066-.89l.071-.2a9.692,9.692,0,0,0,.371-1.278,6.107,6.107,0,0,0,.127-1.207,5.9,5.9,0,0,0-.124-1.2,9.3,9.3,0,0,0-.376-1.283l-.069-.2a.744.744,0,0,1,.455-.948.736.736,0,0,1,.245-.042.757.757,0,0,1,.366.095,3.688,3.688,0,0,1,1.4,1.492c.03.057.056.117.084.176a2.3,2.3,0,0,0,0,3.825C1703.583,1272.239,1703.557,1272.3,1703.527,1272.355Zm1.359-.654a1.434,1.434,0,1,1,1.434-1.434A1.436,1.436,0,0,1,1704.886,1271.7Z" transform="translate(-120.303 -52.482)" fill="#5875ee"/>
    <path id="패스_1723" data-name="패스 1723" d="M1570.764,1272.66l-.07-.2a8.563,8.563,0,0,1-.344-1.167,5.043,5.043,0,0,1-.106-1.029,5.261,5.261,0,0,1,.109-1.038,8.946,8.946,0,0,1,.341-1.167l.071-.206a1.611,1.611,0,0,0-2.306-1.929,4.473,4.473,0,0,0-1.748,1.844c-.042.08-.08.162-.117.244a2.3,2.3,0,1,0,0,4.5c.038.082.075.164.117.244a4.5,4.5,0,0,0,1.743,1.843h0a1.624,1.624,0,0,0,.786.2,1.609,1.609,0,0,0,1.517-2.143Zm-6.078-2.4a1.434,1.434,0,1,1,1.434,1.434A1.436,1.436,0,0,1,1564.685,1270.263Zm5.23,3.252a.74.74,0,0,1-.424.38.75.75,0,0,1-.61-.053,3.688,3.688,0,0,1-1.4-1.492c-.03-.057-.056-.117-.084-.176a2.3,2.3,0,0,0,0-3.825c.027-.059.054-.118.084-.175a3.662,3.662,0,0,1,1.4-1.492.744.744,0,0,1,1.066.89l-.071.2a9.773,9.773,0,0,0-.372,1.278,6.138,6.138,0,0,0-.127,1.207,5.882,5.882,0,0,0,.124,1.2,9.265,9.265,0,0,0,.375,1.283l.07.2A.739.739,0,0,1,1569.915,1273.515Z" transform="translate(0 -52.478)" fill="#5875ee"/>
    <path id="패스_1724" data-name="패스 1724" d="M1575.531,1222.974a.433.433,0,0,0,.433-.433v-3.221h3.221a.433.433,0,0,0,0-.866h-3.655a.433.433,0,0,0-.433.433v3.654A.433.433,0,0,0,1575.531,1222.974Z" transform="translate(-9.953 -10.766)" fill="#5875ee"/>
    <path id="패스_1725" data-name="패스 1725" d="M1714.356,1351.782a.433.433,0,0,0-.433.433v3.221H1710.7a.433.433,0,1,0,0,.866h3.654a.433.433,0,0,0,.433-.433v-3.654A.433.433,0,0,0,1714.356,1351.782Z" transform="translate(-129.232 -128.42)" fill="#5875ee"/>
    <path id="패스_1726" data-name="패스 1726" d="M1709.78,1219.319H1713v3.221a.433.433,0,1,0,.866,0v-3.654a.433.433,0,0,0-.433-.433h-3.654a.433.433,0,1,0,0,.866Z" transform="translate(-128.419 -10.766)" fill="#5875ee"/>
    <path id="패스_1727" data-name="패스 1727" d="M1580.106,1355.436h-3.221v-3.221a.433.433,0,0,0-.866,0v3.654a.433.433,0,0,0,.433.433h3.654a.433.433,0,1,0,0-.866Z" transform="translate(-10.766 -128.42)" fill="#5875ee"/>
  </g>
</svg>
