<svg xmlns="http://www.w3.org/2000/svg" width="20.455" height="20.455" viewBox="0 0 20.455 20.455">
  <g id="그룹_770" data-name="그룹 770" transform="translate(-298.5 -1033.5)">
    <g id="그룹_769" data-name="그룹 769" transform="translate(299 1034)">
      <path id="패스_1847" data-name="패스 1847" d="M308.728,1034a9.728,9.728,0,1,1-9.728,9.728A9.738,9.738,0,0,1,308.728,1034Z" transform="translate(-299 -1034)" fill="#fff" stroke="#bababa" stroke-linejoin="round" stroke-width="1"/>
    </g>
    <circle id="타원_170" data-name="타원 170" cx="0.737" cy="0.737" r="0.737" transform="translate(307.991 1047.223)" fill="#bababa"/>
    <path id="패스_1848" data-name="패스 1848" d="M310.875,1044.016a2.515,2.515,0,0,1,2.508-2.508h0a2.515,2.515,0,0,1,2.508,2.508h0a2.94,2.94,0,0,1-1.311,2.2c-1.2.991-1.2,1.295-1.2,1.979v.608" transform="translate(-4.655 -2.943)" fill="none" stroke="#bababa" stroke-linejoin="round" stroke-width="1"/>
  </g>
</svg>
