<svg xmlns="http://www.w3.org/2000/svg" width="43.797" height="37.202" viewBox="0 0 43.797 37.202">
  <g id="그룹_492" data-name="그룹 492" transform="translate(1 1)">
    <path id="패스_1593" data-name="패스 1593" d="M719.453,1785.38h13.162l-17.607-17.008h-6.154Z" transform="translate(-698.66 -1766.353)" fill="#fff" stroke="#b1b1b1" stroke-linecap="round" stroke-linejoin="round" stroke-width="2"/>
    <path id="패스_1594" data-name="패스 1594" d="M704.313,1773.486l-27.739,1.75-1.879-7.264-5.6-4.57v17.579l.023-.007c.269,2.508,3.119,4.55,6.568,4.615l28.615.542a6.462,6.462,0,0,0,6.591-6.467A6.126,6.126,0,0,0,704.313,1773.486Z" transform="translate(-669.095 -1762.658)" fill="#fff" stroke="#797979" stroke-linecap="round" stroke-linejoin="round" stroke-width="2"/>
    <path id="패스_1595" data-name="패스 1595" d="M699.929,1831.453h13.162l-17.607,17.009h-6.154Z" transform="translate(-684.142 -1813.26)" fill="#fff" stroke="#797979" stroke-linecap="round" stroke-linejoin="round" stroke-width="2"/>
    <path id="패스_1596" data-name="패스 1596" d="M801.51,1817.037a2.7,2.7,0,1,1-2.7-2.7" transform="translate(-763.539 -1800.531)" fill="#fff" stroke="#5887f9" stroke-linecap="round" stroke-linejoin="round" stroke-width="2"/>
    <line id="선_394" data-name="선 394" x2="8.397" transform="translate(21.584)" fill="#fff" stroke="#797979" stroke-linecap="round" stroke-linejoin="round" stroke-width="2"/>
    <line id="선_395" data-name="선 395" x2="10" transform="translate(28.955 28.782)" fill="#fff" stroke="#797979" stroke-linecap="round" stroke-linejoin="round" stroke-width="2"/>
    <line id="선_396" data-name="선 396" x2="10.833" transform="translate(20.366 33.91)" fill="#fff" stroke="#b1b1b1" stroke-linecap="round" stroke-linejoin="round" stroke-width="2"/>
    <line id="선_397" data-name="선 397" x2="11.795" transform="translate(28.058 6.026)" fill="#fff" stroke="#b1b1b1" stroke-linecap="round" stroke-linejoin="round" stroke-width="2"/>
  </g>
</svg>
