<svg xmlns="http://www.w3.org/2000/svg" width="41.483" height="43.86" viewBox="0 0 41.483 43.86">
  <g id="그룹_814" data-name="그룹 814" transform="translate(-3910.923 -288.632)">
    <path id="패스_1868" data-name="패스 1868" d="M4245.266,377.229l-.56,3.26a.79.79,0,0,0,1.146.833l2.928-1.539,2.928,1.539a.79.79,0,0,0,1.146-.833l-.56-3.26,2.368-2.309a.789.789,0,0,0-.437-1.347l-3.273-.476-1.463-2.966a.79.79,0,0,0-1.417,0l-1.464,2.966-3.273.476a.79.79,0,0,0-.438,1.347Zm2.575-3.06.939-1.9.939,1.9a.789.789,0,0,0,.595.432l2.1.305-1.52,1.482a.788.788,0,0,0-.228.7l.359,2.092-1.879-.988a.789.789,0,0,0-.735,0l-1.879.988.359-2.092a.788.788,0,0,0-.228-.7l-1.52-1.482,2.1-.305A.791.791,0,0,0,4247.841,374.169Z" transform="translate(-311.91 -74.688)" fill="#5887f9"/>
    <path id="패스_1869" data-name="패스 1869" d="M3913.737,332.492a2.8,2.8,0,0,0,1.733-.6,2.67,2.67,0,0,0,1.633.555h8.822a2.672,2.672,0,0,0,1.634-.555,2.813,2.813,0,0,0,4.547-2.216v-7.12a6.414,6.414,0,0,0-3.319-5.618l-2.764-1.523a5.925,5.925,0,0,0,1.206-2h7.858v3.926a1.067,1.067,0,0,0,1.676.875l6.9-4.8h5.073a3.676,3.676,0,0,0,3.672-3.672V292.3a3.676,3.676,0,0,0-3.672-3.672h-23.727a3.676,3.676,0,0,0-3.672,3.672v13.112a5.981,5.981,0,0,0-4.915,8.957,6.022,6.022,0,0,0,.752,1.032l-2.87,1.541a6.4,6.4,0,0,0-3.379,5.651v7.082A2.817,2.817,0,0,0,3913.737,332.492Zm5.833-15.955a1.066,1.066,0,0,0,.047-1.852,3.848,3.848,0,0,1,2.042-7.143,3.866,3.866,0,0,1,3.793,3.831,3.823,3.823,0,0,1-1.861,3.312,1.066,1.066,0,0,0,.037,1.846l4.13,2.276a4.283,4.283,0,0,1,2.216,3.75v7.12a.682.682,0,0,1-1.364,0v-6.692a1.066,1.066,0,1,0-2.132,0v6.779a.553.553,0,0,1-.552.552H3917.1a.552.552,0,0,1-.552-.552v-6.779a1.067,1.067,0,0,0-2.133,0v6.692a.682.682,0,1,1-1.364,0V322.6a4.275,4.275,0,0,1,2.256-3.772Zm5.437-25.772h23.727a1.541,1.541,0,0,1,1.539,1.539v17.443a1.541,1.541,0,0,1-1.539,1.539h-5.408a1.067,1.067,0,0,0-.609.191l-5.5,3.826v-2.951a1.066,1.066,0,0,0-1.066-1.066h-8.571a6.018,6.018,0,0,0-4.115-5.577V292.3A1.541,1.541,0,0,1,3925.007,290.764Z" transform="translate(0 0)" fill="#9a9a9a"/>
  </g>
</svg>
