<svg xmlns="http://www.w3.org/2000/svg" width="46.141" height="33.5" viewBox="0 0 46.141 33.5">
  <g id="그룹_816" data-name="그룹 816" transform="translate(-3831.715 -3960)">
    <path id="패스_1876" data-name="패스 1876" d="M4097.476,4066.187l1.019,0h.008a2.255,2.255,0,0,1,1.615.684,4.233,4.233,0,0,0,3.029,1.285h.016l4.455-.014a3.462,3.462,0,0,0,3.425-3.067l.847-7.4a3.46,3.46,0,0,0-3.437-3.854h-.013l-1.884.006c0-.075.006-.152.006-.227l-.006-1.431a3.791,3.791,0,0,0-3.788-3.774h-.014a2.153,2.153,0,0,0-2.145,2.16l.008,2.007a2.748,2.748,0,0,1-.944,2.084l-1.145,1a.253.253,0,0,1-.164.062l-1.134,0a1.971,1.971,0,0,0-1.654-.9h-.007l-2.249.008a1.971,1.971,0,0,0-1.963,1.978l.032,8.782a1.972,1.972,0,0,0,1.97,1.963h.008l2.25-.008a1.973,1.973,0,0,0,1.861-1.344Zm-1.868-.627h0l-2.249.009-.032-8.782,2.249-.008Zm6.979-13-.008-2.007a.182.182,0,0,1,.181-.183h.008a1.818,1.818,0,0,1,1.817,1.811l.005,1.431a2.205,2.205,0,0,1-.608,1.533,4.165,4.165,0,0,0-1.15,2.9v.149a2.231,2.231,0,0,1-.876,1.773.985.985,0,1,0,1.191,1.569,4.206,4.206,0,0,0,1.655-3.349l0-.149a2.215,2.215,0,0,1,.609-1.533,4.218,4.218,0,0,0,.534-.7l2.5-.008h.006a1.49,1.49,0,0,1,1.479,1.659l-.847,7.4a1.489,1.489,0,0,1-1.473,1.32l-4.456.014h-.008a2.255,2.255,0,0,1-1.614-.684,4.238,4.238,0,0,0-3.031-1.285h-.015l-.916,0v-.269l-.022-6.269.463,0h.358a2.223,2.223,0,0,0,1.45-.546l1.145-1A4.717,4.717,0,0,0,4102.587,4052.555Z" transform="translate(-246.848 -84.04)" fill="#5887f9"/>
    <path id="패스_1877" data-name="패스 1877" d="M3875.939,3986.5h-1.566v-23.353a3.147,3.147,0,0,0-3.144-3.143h-32.889a3.147,3.147,0,0,0-3.143,3.143V3986.5h-1.567a1.907,1.907,0,0,0-1.916,1.893v1.016a4.14,4.14,0,0,0,4.173,4.095h37.794a4.139,4.139,0,0,0,4.173-4.095v-1.016A1.907,1.907,0,0,0,3875.939,3986.5Zm-.055,2.91a2.166,2.166,0,0,1-2.2,2.124h-37.794a2.167,2.167,0,0,1-2.2-2.124v-.939h15.8a1.743,1.743,0,0,0,1.729,1.484h7.148a1.743,1.743,0,0,0,1.729-1.484h15.8Zm-38.716-26.263a1.174,1.174,0,0,1,1.172-1.172h32.889a1.174,1.174,0,0,1,1.173,1.172V3986.5h-12.521a1.742,1.742,0,0,0-1.729,1.484h-6.733a1.744,1.744,0,0,0-1.729-1.484h-12.521Z" transform="translate(0)" fill="#797979"/>
  </g>
</svg>
