<svg xmlns="http://www.w3.org/2000/svg" width="40.665" height="38.609" viewBox="0 0 40.665 38.609">
  <g id="그룹_815" data-name="그룹 815" transform="translate(-2674.99 -2696.478)">
    <path id="패스_1873" data-name="패스 1873" d="M3032.612,2703.377a.958.958,0,0,0-.772-.651l-5.435-.79-2.431-4.925a.957.957,0,0,0-1.716,0l-1.731,3.507a.957.957,0,1,0,1.716.847l.873-1.769,1.8,3.638a.958.958,0,0,0,.72.523l4.014.583-2.9,2.832a.955.955,0,0,0-.275.847l.686,4-3.59-1.887a.955.955,0,0,0-.891,0l-2.906,1.527a.957.957,0,1,0,.89,1.693l2.461-1.293,4.862,2.556a.957.957,0,0,0,1.388-1.009l-.928-5.413,3.933-3.833A.956.956,0,0,0,3032.612,2703.377Z" transform="translate(-327.793)" fill="#797979"/>
    <path id="패스_1874" data-name="패스 1874" d="M3257.37,2702.726l-5.435-.79-2.43-4.925a.957.957,0,0,0-1.716,0l-1.731,3.507a.957.957,0,1,0,1.716.847l.874-1.769,1.8,3.638a.957.957,0,0,0,.72.523l4.014.583-2.9,2.832a.956.956,0,0,0-.275.847l.686,4-3.591-1.887a.954.954,0,0,0-.89,0l-2.906,1.527a.957.957,0,1,0,.89,1.694l2.461-1.293,4.861,2.556a.957.957,0,0,0,1.388-1.009l-.928-5.413,3.933-3.833a.957.957,0,0,0-.53-1.632Z" transform="translate(-542.534)" fill="#5887f9"/>
    <path id="패스_1875" data-name="패스 1875" d="M2679.212,2708.192l-.928,5.413a.957.957,0,0,0,1.389,1.009l2.275-1.2v7.657l-.878-1a2.748,2.748,0,0,0-4.777,1.392,2.755,2.755,0,0,0,.571,2.145l6.539,8.155a1.393,1.393,0,0,1,.305.868v1.493a.957.957,0,1,0,1.914,0v-1.493a3.314,3.314,0,0,0-.726-2.065l-1.043-1.3-5.5-6.854a.835.835,0,0,1-.173-.651.835.835,0,0,1,1.451-.423l2.553,2.9a.956.956,0,0,0,.875.31h0l.042-.008.047-.012.043-.012c.015,0,.03-.01.045-.016l.043-.017.042-.02.042-.021.039-.023.042-.027.034-.025c.014-.011.028-.021.042-.033l.012-.009a.248.248,0,0,0,.02-.02l.037-.035.031-.035c.01-.012.02-.023.029-.036s.02-.025.03-.039l.024-.036.026-.042.021-.04c.007-.014.014-.028.021-.042l.018-.043c.006-.014.01-.028.015-.042s.01-.031.015-.047.008-.028.011-.042.007-.032.01-.048,0-.031.007-.046,0-.031,0-.046,0-.035,0-.052,0-.019,0-.027v-14.131a.761.761,0,0,1,1.521,0v11.114a.957.957,0,0,0,1.9.183.978.978,0,0,0,.018-.183v-2.735a.761.761,0,0,1,1.521,0v3.405a.957.957,0,0,0,1.914,0v-2.274a.76.76,0,0,1,1.521,0v2.944a.957.957,0,0,0,.957.957.926.926,0,0,0,.111-.007.957.957,0,0,0,.846-.95v-1.813a.761.761,0,1,1,1.521,0v6.817a1.4,1.4,0,0,1-.127.581l-1.355,2.941-.225.488a3.324,3.324,0,0,0-.3,1.382v1.8a.957.957,0,1,0,1.914,0v-1.8a1.4,1.4,0,0,1,.127-.582l1.58-3.429a3.327,3.327,0,0,0,.3-1.382v-6.817a75.63,75.63,0,0,1-9.544-4.936,2.666,2.666,0,0,0-.761.11v-1.782l2.1,1.1a.957.957,0,0,0,1.388-1.009l-.928-5.413,3.933-3.833a.957.957,0,0,0-.53-1.632l-5.435-.79-2.431-4.925a.957.957,0,0,0-1.716,0l-2.431,4.925-5.435.79a.957.957,0,0,0-.53,1.632Zm3.526-4.958,1.8-3.638,1.795,3.638a.958.958,0,0,0,.72.523l4.015.583-2.905,2.832a.956.956,0,0,0-.275.847l.686,4-1.274-.669v-1.872a2.674,2.674,0,0,0-5.348,0v1.78l-1.449.762.686-4a.955.955,0,0,0-.275-.847l-2.9-2.832,4.014-.583A.957.957,0,0,0,2682.738,2703.234Z" transform="translate(0)" fill="#797979"/>
  </g>
</svg>
