<svg xmlns="http://www.w3.org/2000/svg" width="14.85" height="16.389" viewBox="0 0 14.85 16.389">
  <g id="i_share" transform="translate(-4 -2.5)">
    <path id="패스_18" data-name="패스 18" d="M27.117,5.308A2.308,2.308,0,1,1,24.808,3,2.308,2.308,0,0,1,27.117,5.308Z" transform="translate(-8.767 0)" fill="none" stroke="#fff" stroke-linecap="round" stroke-linejoin="round" stroke-width="1"/>
    <path id="패스_19" data-name="패스 19" d="M9.117,15.808A2.308,2.308,0,1,1,6.808,13.5,2.308,2.308,0,0,1,9.117,15.808Z" transform="translate(0 -5.114)" fill="none" stroke="#fff" stroke-linecap="round" stroke-linejoin="round" stroke-width="1"/>
    <path id="패스_20" data-name="패스 20" d="M27.117,26.308A2.308,2.308,0,1,1,24.808,24,2.308,2.308,0,0,1,27.117,26.308Z" transform="translate(-8.767 -10.228)" fill="none" stroke="#fff" stroke-linecap="round" stroke-linejoin="round" stroke-width="1"/>
    <path id="패스_21" data-name="패스 21" d="M12.885,20.265l5.255,3.062" transform="translate(-4.084 -8.409)" fill="none" stroke="#fff" stroke-linecap="round" stroke-linejoin="round" stroke-width="1"/>
    <path id="패스_22" data-name="패스 22" d="M18.132,9.765l-5.247,3.062" transform="translate(-4.084 -3.295)" fill="none" stroke="#fff" stroke-linecap="round" stroke-linejoin="round" stroke-width="1"/>
  </g>
</svg>
