<svg xmlns="http://www.w3.org/2000/svg" width="21.856" height="21.856" viewBox="0 0 21.856 21.856">
  <path id="Icon_awesome-info-circle" data-name="Icon awesome-info-circle" d="M11.49.563A10.928,10.928,0,1,0,22.418,11.49,10.93,10.93,0,0,0,11.49.563Zm0,4.847A1.851,1.851,0,1,1,9.64,7.26,1.851,1.851,0,0,1,11.49,5.41ZM13.958,16.6a.529.529,0,0,1-.529.529H9.552a.529.529,0,0,1-.529-.529V15.544a.529.529,0,0,1,.529-.529h.529V12.2H9.552a.529.529,0,0,1-.529-.529V10.609a.529.529,0,0,1,.529-.529h2.82a.529.529,0,0,1,.529.529v4.406h.529a.529.529,0,0,1,.529.529Z" transform="translate(-0.563 -0.563)" fill="#5887f9"/>
</svg>
