<svg xmlns="http://www.w3.org/2000/svg" width="23" height="18.4" viewBox="0 0 23 18.4">
  <path id="Icon_awesome-user-lock" data-name="Icon awesome-user-lock" d="M8.05,9.2a4.6,4.6,0,1,0-4.6-4.6A4.6,4.6,0,0,0,8.05,9.2Zm3.45,2.3a2.267,2.267,0,0,1,.291-1.1,4.918,4.918,0,0,0-.521-.054h-.6a6.256,6.256,0,0,1-5.24,0h-.6A4.831,4.831,0,0,0,0,15.179v1.5A1.725,1.725,0,0,0,1.725,18.4H11.82a2.283,2.283,0,0,1-.32-1.15Zm10.35-1.15H20.7V7.475a2.875,2.875,0,0,0-5.75,0V10.35H13.8a1.15,1.15,0,0,0-1.15,1.15v5.75A1.15,1.15,0,0,0,13.8,18.4h8.05A1.15,1.15,0,0,0,23,17.25V11.5A1.15,1.15,0,0,0,21.85,10.35Zm-4.025,5.175a1.15,1.15,0,1,1,1.15-1.15A1.15,1.15,0,0,1,17.825,15.525Zm1.15-5.175h-2.3V7.475a1.15,1.15,0,1,1,2.3,0Z" fill="#5887f9"/>
</svg>
