<svg xmlns="http://www.w3.org/2000/svg" width="146.279" height="99.198" viewBox="0 0 146.279 99.198">
  <g id="그룹_2134" data-name="그룹 2134" transform="translate(-1530.361 -435)">
    <g id="그룹_1119" data-name="그룹 1119" transform="translate(1591.613 435)">
      <path id="패스_2781" data-name="패스 2781" d="M440.1,518s13.122,1.924,16.7,2.455,6.378,1.812,8.282,7.583l9.939,30.114H390l9.938-30.114c1.9-5.772,4.7-7.054,8.281-7.583s16.7-2.455,16.7-2.455Z" transform="translate(-390 -458.954)" fill="#302d2c"/>
      <path id="패스_2782" data-name="패스 2782" d="M418.639,474c0,10.879-5.608,19.752-12.639,20.222a30.681,30.681,0,0,0,14.293,3.4c13.7,0,24.8-8.308,24.8-18.558Z" transform="translate(-396.553 -440.934)" fill="#572a06"/>
      <path id="패스_2783" data-name="패스 2783" d="M478.246,474c0,10.879,5.608,19.752,12.64,20.222a30.685,30.685,0,0,1-14.293,3.4c-13.7,0-24.8-8.308-24.8-18.558Z" transform="translate(-415.307 -440.934)" fill="#572a06"/>
      <path id="패스_2784" data-name="패스 2784" d="M499.086,477.543A3.543,3.543,0,1,1,495.543,474,3.543,3.543,0,0,1,499.086,477.543Z" transform="translate(-431.773 -440.934)" fill="#fec583"/>
      <path id="패스_2785" data-name="패스 2785" d="M498.542,478.772A1.771,1.771,0,1,1,496.771,477,1.771,1.771,0,0,1,498.542,478.772Z" transform="translate(-433.001 -442.163)" fill="#e5933b"/>
      <path id="패스_2786" data-name="패스 2786" d="M427.086,477.543A3.543,3.543,0,1,1,423.543,474,3.543,3.543,0,0,1,427.086,477.543Z" transform="translate(-402.286 -440.934)" fill="#fec583"/>
      <path id="패스_2787" data-name="패스 2787" d="M426.542,478.772A1.771,1.771,0,1,1,424.771,477,1.771,1.771,0,0,1,426.542,478.772Z" transform="translate(-403.514 -442.163)" fill="#e5933b"/>
      <rect id="사각형_1286" data-name="사각형 1286" width="19.839" height="8.267" transform="translate(32.594 52.079)" fill="#dc9e5c"/>
      <path id="패스_2788" data-name="패스 2788" d="M468.513,455.98c0,14.347-14.692,22.438-21.257,22.438S426,470.327,426,455.98,435.517,430,447.257,430,468.513,441.632,468.513,455.98Z" transform="translate(-404.743 -422.915)" fill="#fec583"/>
      <path id="패스_2789" data-name="패스 2789" d="M442.724,476.36A2.362,2.362,0,1,1,440.361,474,2.363,2.363,0,0,1,442.724,476.36Z" transform="translate(-409.658 -440.934)" fill="#572a06"/>
      <path id="패스_2790" data-name="패스 2790" d="M482.724,476.36A2.362,2.362,0,1,1,480.361,474,2.363,2.363,0,0,1,482.724,476.36Z" transform="translate(-426.039 -440.934)" fill="#572a06"/>
      <path id="패스_2791" data-name="패스 2791" d="M466.532,418.32c1.791,18.771,9.428,32.876,18.581,32.876v-9.919C485.113,429.482,477.007,419.754,466.532,418.32Z" transform="translate(-421.343 -418.131)" fill="#572a06"/>
      <path id="패스_2792" data-name="패스 2792" d="M463.447,492.4c0,1.826-2.115,3.306-4.724,3.306S454,494.227,454,492.4Z" transform="translate(-416.211 -448.47)" fill="#7e0016"/>
      <path id="패스_2793" data-name="패스 2793" d="M461.609,424.076A20.259,20.259,0,0,0,447.257,418C435.517,418,426,428.363,426,441.147v9.919C442.333,451.065,456.254,439.832,461.609,424.076Z" transform="translate(-404.743 -418)" fill="#66320b"/>
      <path id="패스_2794" data-name="패스 2794" d="M461.1,518H444.751l-4.905.669,13.081,39.482,13.081-39.482Z" transform="translate(-410.414 -458.954)" fill="#fec583"/>
      <path id="패스_2795" data-name="패스 2795" d="M429.521,519.579l-6.9,15.614,6.9,3.347-6.54,6.692,13.081,13.384h9.811l-13.081-39.482Z" transform="translate(-403.36 -459.418)" fill="#4e4d4d"/>
      <path id="패스_2796" data-name="패스 2796" d="M478.351,519.579l6.9,15.614-6.9,3.347,6.541,6.692-13.081,13.384H462l13.081-39.482Z" transform="translate(-419.487 -459.418)" fill="#4e4d4d"/>
      <path id="패스_2797" data-name="패스 2797" d="M454.721,533.917a33.147,33.147,0,0,1-10.494-1.561l10.494,31.675,10.494-31.675A33.15,33.15,0,0,1,454.721,533.917Z" transform="translate(-412.208 -464.833)" fill="#fff"/>
    </g>
    <g id="그룹_1120" data-name="그룹 1120" transform="translate(1530.361 435)">
      <path id="패스_2798" data-name="패스 2798" d="M442.1,180s13.123,1.924,16.7,2.453,6.377,1.812,8.283,7.584,9.937,30.114,9.937,30.114H392s8.033-24.342,9.937-30.114,4.7-7.053,8.282-7.584,16.7-2.453,16.7-2.453Z" transform="translate(-392 -120.954)" fill="#302d2c"/>
      <path id="패스_2799" data-name="패스 2799" d="M425.086,139.543A3.543,3.543,0,1,1,421.542,136,3.543,3.543,0,0,1,425.086,139.543Z" transform="translate(-402.648 -102.934)" fill="#fec583"/>
      <path id="패스_2800" data-name="패스 2800" d="M424.543,140.772A1.772,1.772,0,1,1,422.77,139,1.772,1.772,0,0,1,424.543,140.772Z" transform="translate(-403.876 -104.163)" fill="#e5933b"/>
      <path id="패스_2801" data-name="패스 2801" d="M505.086,139.543A3.543,3.543,0,1,1,501.543,136,3.543,3.543,0,0,1,505.086,139.543Z" transform="translate(-435.411 -102.934)" fill="#fec583"/>
      <path id="패스_2802" data-name="패스 2802" d="M504.544,140.772A1.772,1.772,0,1,1,502.771,139,1.772,1.772,0,0,1,504.544,140.772Z" transform="translate(-436.64 -104.163)" fill="#e5933b"/>
      <rect id="사각형_1287" data-name="사각형 1287" width="23.293" height="8.627" transform="translate(30.676 51.748)" fill="#e8aa61"/>
      <path id="패스_2803" data-name="패스 2803" d="M447.618,80C434.575,80,424,90.177,424,102.732v19.485a9.938,9.938,0,0,0,10.122,9.743h26.992a9.938,9.938,0,0,0,10.122-9.743V102.732C471.237,90.177,460.662,80,447.618,80Z" transform="translate(-405.105 -80)" fill="#fec583"/>
      <path id="패스_2804" data-name="패스 2804" d="M448.724,138.362A2.362,2.362,0,1,1,446.362,136,2.363,2.363,0,0,1,448.724,138.362Z" transform="translate(-413.296 -102.934)" fill="#572a06"/>
      <path id="패스_2805" data-name="패스 2805" d="M480.724,138.362A2.362,2.362,0,1,1,478.362,136,2.363,2.363,0,0,1,480.724,138.362Z" transform="translate(-426.401 -102.934)" fill="#572a06"/>
      <path id="패스_2806" data-name="패스 2806" d="M469.033,80.315c1.992,18.436,10.478,32.88,20.647,32.88V102.861C489.68,91.277,480.673,81.723,469.033,80.315Z" transform="translate(-423.548 -80.129)" fill="#572a06"/>
      <path id="패스_2807" data-name="패스 2807" d="M465.447,152c0,1.957-2.115,3.543-4.724,3.543S456,153.957,456,152Z" transform="translate(-418.211 -109.487)" fill="#7e0016"/>
      <path id="패스_2808" data-name="패스 2808" d="M463.566,85.967A24.045,24.045,0,0,0,447.618,80C434.575,80,424,90.177,424,102.732v10.334A42.663,42.663,0,0,0,463.566,85.967Z" transform="translate(-405.105 -80)" fill="#66320b"/>
      <path id="패스_2809" data-name="패스 2809" d="M463.166,180H447.984l-4.556.669,12.147,39.483,12.147-39.483Z" transform="translate(-413.062 -120.954)" fill="#d4d5d5"/>
      <path id="패스_2810" data-name="패스 2810" d="M462.048,190.038l3.821-6.72L462.8,180H456.74l-3.067,3.318,3.821,6.72Z" transform="translate(-417.258 -120.954)" fill="#e65338"/>
      <path id="패스_2811" data-name="패스 2811" d="M457.511,197l-3.8,16.73,6.074,13.384,6.074-13.384-3.8-16.73Z" transform="translate(-417.274 -127.916)" fill="#e65338"/>
      <path id="패스_2812" data-name="패스 2812" d="M452.544,180l-6.08,10.539-3.036-9.87,4.556-.669Z" transform="translate(-413.062 -120.954)" fill="#fff"/>
      <path id="패스_2813" data-name="패스 2813" d="M469.145,180l6.073,10.539,3.036-9.87L473.7,180Z" transform="translate(-423.594 -120.954)" fill="#fff"/>
      <path id="패스_2814" data-name="패스 2814" d="M433.841,181.579l-6.406,15.615,6.406,3.346-6.073,6.692,12.147,13.384h9.111l-12.147-39.483Z" transform="translate(-406.512 -121.418)" fill="#535252"/>
      <path id="패스_2815" data-name="패스 2815" d="M479.184,181.579l6.406,15.615-6.406,3.346,6.073,6.692-12.147,13.384H464l12.147-39.483Z" transform="translate(-421.487 -121.418)" fill="#535252"/>
    </g>
  </g>
</svg>
