<svg xmlns="http://www.w3.org/2000/svg" width="124.8" height="104" viewBox="0 0 124.8 104">
  <g id="그룹_1117" data-name="그룹 1117" transform="translate(-454 -470.001)">
    <g id="그룹_1112" data-name="그룹 1112" transform="translate(456.08 530.321)">
      <path id="패스_2762" data-name="패스 2762" d="M577.84,562.8v39.52a4.16,4.16,0,0,1-4.16,4.16H461.36a4.16,4.16,0,0,1-4.16-4.16V562.8Z" transform="translate(-457.2 -562.801)" fill="#66320b"/>
      <path id="패스_2763" data-name="패스 2763" d="M577.84,570.372V562.8H457.2v7.571a8.293,8.293,0,0,0,6.24,2.829H571.6A8.293,8.293,0,0,0,577.84,570.372Z" transform="translate(-457.2 -562.801)" fill="#502600"/>
      <path id="패스_2764" data-name="패스 2764" d="M577.84,623.6a4.16,4.16,0,0,1-4.16,4.16H461.36a4.16,4.16,0,0,1-4.16-4.16Z" transform="translate(-457.2 -584.081)" fill="#7b3d11"/>
    </g>
    <path id="패스_2765" data-name="패스 2765" d="M515.76,491.2H511.6v-9.367a6.246,6.246,0,0,1,6.24-6.239l2.036,4.159H517.84a2.082,2.082,0,0,0-2.08,2.08Z" transform="translate(-20.16 -1.958)" fill="#e6a02c"/>
    <path id="패스_2766" data-name="패스 2766" d="M579.783,491.2h4.16v-9.367a6.246,6.246,0,0,0-6.24-6.239l-2.036,4.159H577.7a2.083,2.083,0,0,1,2.08,2.08Z" transform="translate(-42.583 -1.958)" fill="#e6a02c"/>
    <g id="그룹_1113" data-name="그룹 1113" transform="translate(454 486.641)">
      <path id="패스_2767" data-name="패스 2767" d="M574.64,495.6H458.16a4.16,4.16,0,0,0-4.16,4.16V537.2a8.32,8.32,0,0,0,8.32,8.32H570.48a8.32,8.32,0,0,0,8.32-8.32v-37.44A4.16,4.16,0,0,0,574.64,495.6Z" transform="translate(-454 -495.601)" fill="#66320b"/>
      <path id="패스_2768" data-name="패스 2768" d="M578.8,499.761a4.16,4.16,0,0,0-4.16-4.16H458.16a4.16,4.16,0,0,0-4.16,4.16Z" transform="translate(-454 -495.601)" fill="#7b3d11"/>
    </g>
    <path id="패스_2769" data-name="패스 2769" d="M530.8,557.041v-12.48a4.16,4.16,0,0,1,4.16-4.16H551.6a4.16,4.16,0,0,1,4.16,4.16v12.48Z" transform="translate(-26.88 -24.64)" fill="#7b3d11"/>
    <g id="그룹_1114" data-name="그룹 1114" transform="translate(506 540.721)">
      <path id="패스_2770" data-name="패스 2770" d="M554.8,578.8v8.32a4.16,4.16,0,0,1-4.16,4.16H538.16a4.16,4.16,0,0,1-4.16-4.16V578.8Z" transform="translate(-534 -578.801)" fill="#e9aa2c"/>
      <path id="패스_2771" data-name="패스 2771" d="M539.28,590.321a2.082,2.082,0,0,1-2.08-2.08V582h16.64v6.24a2.082,2.082,0,0,1-2.08,2.08Z" transform="translate(-535.12 -579.921)" fill="#fed36e"/>
      <path id="패스_2772" data-name="패스 2772" d="M548.88,578.8a2.079,2.079,0,0,0-2.08,2.08v4.16a2.08,2.08,0,0,0,4.16,0v-4.16A2.079,2.079,0,0,0,548.88,578.8Z" transform="translate(-538.48 -578.801)" fill="#422f00"/>
      <rect id="사각형_1278" data-name="사각형 1278" width="20.8" height="2.08" transform="translate(0 0)" fill="#c28f25"/>
      <path id="패스_2773" data-name="패스 2773" d="M548.88,578.8a2.079,2.079,0,0,0-2.08,2.08h4.16A2.079,2.079,0,0,0,548.88,578.8Z" transform="translate(-538.48 -578.801)" fill="#180b00"/>
    </g>
    <g id="그룹_1115" data-name="그룹 1115" transform="translate(495.6 470.001)">
      <path id="패스_2774" data-name="패스 2774" d="M518,474.161a4.16,4.16,0,0,1,4.16-4.16h33.28a4.16,4.16,0,0,1,4.16,4.16Z" transform="translate(-518 -470.001)" fill="#7b3d11"/>
      <path id="패스_2775" data-name="패스 2775" d="M518,476.4a4.16,4.16,0,0,0,4.16,4.16h33.28a4.16,4.16,0,0,0,4.16-4.16Z" transform="translate(-518 -472.241)" fill="#66320b"/>
    </g>
    <g id="그룹_1116" data-name="그룹 1116" transform="translate(503.92 532.401)">
      <rect id="사각형_1279" data-name="사각형 1279" width="24.96" height="8.32" transform="translate(0 0)" fill="#e9aa2c"/>
      <path id="패스_2776" data-name="패스 2776" d="M555.76,574.321V566H530.8Z" transform="translate(-530.8 -566.001)" fill="#f2c45f"/>
    </g>
  </g>
</svg>
