<svg xmlns="http://www.w3.org/2000/svg" width="124.566" height="83.044" viewBox="0 0 124.566 83.044">
  <g id="그룹_1111" data-name="그룹 1111" transform="translate(-48 -92.457)">
    <path id="패스_2754" data-name="패스 2754" d="M172.566,144V201.09a5.19,5.19,0,0,1-5.19,5.19H53.19A5.191,5.191,0,0,1,48,201.087V143.994Z" transform="translate(0 -30.78)" fill="#d4d5d5"/>
    <path id="패스_2755" data-name="패스 2755" d="M57.038,202.13A1.041,1.041,0,0,1,56,201.089V144l116.261,0v57.09a1.039,1.039,0,0,1-1.038,1.038Z" transform="translate(-3.848 -30.782)" fill="#efefef"/>
    <path id="패스_2756" data-name="패스 2756" d="M167.375,104H53.19A5.19,5.19,0,0,0,48,109.19v15.568l124.566,0V109.19A5.19,5.19,0,0,0,167.375,104ZM85.37,120.608a4.152,4.152,0,1,1,4.152-4.152A4.152,4.152,0,0,1,85.37,120.608Zm33.217,0H101.978a4.152,4.152,0,1,1,0-8.3h16.609a4.152,4.152,0,1,1,0,8.3Zm16.609,0a4.152,4.152,0,1,1,4.152-4.152A4.152,4.152,0,0,1,135.2,120.608Z" transform="translate(0 -11.543)" fill="#bdbebf"/>
    <rect id="사각형_1273" data-name="사각형 1273" width="42" height="42" transform="translate(60 121.5)" fill="#fff"/>
    <g id="그룹_1110" data-name="그룹 1110" transform="translate(62.533 125.674)">
      <path id="패스_2757" data-name="패스 2757" d="M98.021,215.487s5.767.61,7.341.777a3.868,3.868,0,0,1,3.64,2.4l4.368,9.542H76s3.531-7.713,4.368-9.542a3.869,3.869,0,0,1,3.64-2.4c1.573-.168,7.341-.777,7.341-.777Z" transform="translate(-76 -190.84)" fill="#f3b265"/>
      <path id="패스_2758" data-name="패스 2758" d="M94.139,191.505a1.906,1.906,0,1,1-1.906-1.905A1.906,1.906,0,0,1,94.139,191.505Z" transform="translate(-82.891 -178.389)" fill="#f3b265"/>
      <path id="패스_2759" data-name="패스 2759" d="M130.134,191.574a1.831,1.831,0,1,1-1.831-1.832A1.831,1.831,0,0,1,130.134,191.574Z" transform="translate(-100.275 -178.457)" fill="#f3b265"/>
      <rect id="사각형_1274" data-name="사각형 1274" width="8.008" height="5.135" transform="translate(14.681 21.024)" fill="#f3b265"/>
      <path id="패스_2760" data-name="패스 2760" d="M103.341,168A9.343,9.343,0,0,0,94,177.342v8.008c0,2.211,3.128,5.071,5.339,5.071h8.009c2.212,0,5.338-2.86,5.338-5.071v-8.008A9.343,9.343,0,0,0,103.341,168Z" transform="translate(-84.657 -168)" fill="#f3b265"/>
    </g>
    <path id="패스_2761" data-name="패스 2761" d="M171.223,112H57.038A1.039,1.039,0,0,0,56,113.038v15.568l116.261,0v-15.57A1.039,1.039,0,0,0,171.223,112ZM89.217,124.456A4.152,4.152,0,1,1,93.37,120.3,4.152,4.152,0,0,1,89.217,124.456Zm33.217,0H105.826a4.152,4.152,0,1,1,0-8.3h16.609a4.152,4.152,0,1,1,0,8.3Zm16.609,0A4.152,4.152,0,1,1,143.2,120.3,4.152,4.152,0,0,1,139.044,124.456Z" transform="translate(-3.848 -15.391)" fill="#d4d5d5"/>
    <rect id="사각형_1275" data-name="사각형 1275" width="50" height="8" transform="translate(110 125.5)" fill="#7e84a3"/>
    <rect id="사각형_1276" data-name="사각형 1276" width="50" height="4" transform="translate(110 142.5)" fill="#bababa"/>
    <rect id="사각형_1277" data-name="사각형 1277" width="50" height="4" transform="translate(110 154.5)" fill="#bababa"/>
  </g>
</svg>
