<svg xmlns="http://www.w3.org/2000/svg" width="27" height="21.6" viewBox="0 0 27 21.6">
  <path id="Icon_awesome-network-wired" data-name="Icon awesome-network-wired" d="M27,11.138v-.675a.675.675,0,0,0-.675-.675H14.512V8.1H17.55A1.35,1.35,0,0,0,18.9,6.75V1.35A1.35,1.35,0,0,0,17.55,0H9.45A1.35,1.35,0,0,0,8.1,1.35v5.4A1.35,1.35,0,0,0,9.45,8.1h3.037V9.788H.675A.675.675,0,0,0,0,10.463v.675a.675.675,0,0,0,.675.675H5.062V13.5H2.7a1.35,1.35,0,0,0-1.35,1.35v5.4A1.35,1.35,0,0,0,2.7,21.6H9.45a1.35,1.35,0,0,0,1.35-1.35v-5.4A1.35,1.35,0,0,0,9.45,13.5H7.087V11.813H19.912V13.5H17.55a1.35,1.35,0,0,0-1.35,1.35v5.4a1.35,1.35,0,0,0,1.35,1.35H24.3a1.35,1.35,0,0,0,1.35-1.35v-5.4A1.35,1.35,0,0,0,24.3,13.5H21.937V11.813h4.387A.675.675,0,0,0,27,11.138ZM10.8,5.4V2.7h5.4V5.4ZM8.1,18.9H4.05V16.2H8.1Zm14.85,0H18.9V16.2h4.05Z" fill="#fff"/>
</svg>
