<svg xmlns="http://www.w3.org/2000/svg" width="24.38" height="27.863" viewBox="0 0 24.38 27.863">
  <path id="Icon_awesome-address-book" data-name="Icon awesome-address-book" d="M23.727,8.707a.655.655,0,0,0,.653-.653V5.877a.655.655,0,0,0-.653-.653H22.638V2.612A2.613,2.613,0,0,0,20.026,0H2.612A2.613,2.613,0,0,0,0,2.612V25.251a2.613,2.613,0,0,0,2.612,2.612H20.026a2.613,2.613,0,0,0,2.612-2.612V22.638h1.088a.655.655,0,0,0,.653-.653V19.809a.655.655,0,0,0-.653-.653H22.638V15.673h1.088a.655.655,0,0,0,.653-.653V12.843a.655.655,0,0,0-.653-.653H22.638V8.707ZM11.319,6.966a3.483,3.483,0,1,1-3.483,3.483A3.486,3.486,0,0,1,11.319,6.966Zm6.095,12.887A1.141,1.141,0,0,1,16.2,20.9H6.443a1.141,1.141,0,0,1-1.219-1.045V18.807a3.427,3.427,0,0,1,3.657-3.135h.272a5.605,5.605,0,0,0,4.332,0h.272a3.427,3.427,0,0,1,3.657,3.135Z" fill="#fff"/>
</svg>
