<svg xmlns="http://www.w3.org/2000/svg" width="27" height="16.2" viewBox="0 0 27 16.2">
  <path id="Icon_awesome-money-bill" data-name="Icon awesome-money-bill" d="M25.65,2.5H1.35A1.35,1.35,0,0,0,0,3.85v13.5A1.35,1.35,0,0,0,1.35,18.7h24.3A1.35,1.35,0,0,0,27,17.35V3.85A1.35,1.35,0,0,0,25.65,2.5ZM2.025,16.675v-2.7a2.7,2.7,0,0,1,2.7,2.7Zm0-9.45v-2.7h2.7A2.7,2.7,0,0,1,2.025,7.225ZM13.5,14.65c-1.864,0-3.375-1.814-3.375-4.05S11.636,6.55,13.5,6.55s3.375,1.813,3.375,4.05S15.363,14.65,13.5,14.65Zm11.475,2.025h-2.7a2.7,2.7,0,0,1,2.7-2.7Zm0-9.45a2.7,2.7,0,0,1-2.7-2.7h2.7Z" transform="translate(0 -2.5)" fill="#fff"/>
</svg>
