<svg xmlns="http://www.w3.org/2000/svg" width="15.171" height="12.802" viewBox="0 0 15.171 12.802">
  <path id="i_task" d="M4.137,2.353a.356.356,0,0,0-.5,0L1.746,4.228l-.673-.655a.356.356,0,0,0-.5,0L.1,4.039a.356.356,0,0,0,0,.5l1.41,1.4a.379.379,0,0,0,.522,0L2.5,5.484,4.638,3.345a.358.358,0,0,0,0-.5Zm0,4.717a.356.356,0,0,0-.5,0L1.746,8.958,1.074,8.3a.356.356,0,0,0-.5,0L.1,8.768a.356.356,0,0,0,0,.5l1.407,1.407a.378.378,0,0,0,.522,0l.465-.465,2.139-2.14a.356.356,0,0,0,0-.5ZM1.9,12.2a1.422,1.422,0,1,0,0,2.845,1.422,1.422,0,1,0,0-2.845Zm12.8.474H6.163a.474.474,0,0,0-.474.474V14.1a.474.474,0,0,0,.474.474H14.7a.474.474,0,0,0,.474-.474v-.948A.474.474,0,0,0,14.7,12.679Zm0-9.482H6.163a.474.474,0,0,0-.474.474v.948a.474.474,0,0,0,.474.474H14.7a.474.474,0,0,0,.474-.474V3.671A.474.474,0,0,0,14.7,3.2Zm0,4.741H6.163a.474.474,0,0,0-.474.474V9.36a.474.474,0,0,0,.474.474H14.7a.474.474,0,0,0,.474-.474V8.412A.474.474,0,0,0,14.7,7.938Z" transform="translate(0 -2.248)" fill="#fff"/>
</svg>
