<svg id="Icon_ionic-ios-people" data-name="Icon ionic-ios-people" xmlns="http://www.w3.org/2000/svg" width="25.899" height="16.832" viewBox="0 0 25.899 16.832">
  <path id="패스_1820" data-name="패스 1820" d="M17.968,17.254c-.646-.231-1.7-.242-2.169-.421a3.064,3.064,0,0,1-1-.467,6.2,6.2,0,0,1-.167-1.644,2.656,2.656,0,0,0,.571-.808,8.975,8.975,0,0,0,.277-1.586s.381.162.531-.6c.127-.658.369-1,.306-1.488s-.335-.369-.335-.369a4.319,4.319,0,0,0,.335-2.157A3.452,3.452,0,0,0,12.586,4.3,3.464,3.464,0,0,0,8.854,7.714a4.383,4.383,0,0,0,.329,2.157s-.271-.115-.335.369.173.831.306,1.488c.15.767.531.6.531.6a9.062,9.062,0,0,0,.277,1.586,2.656,2.656,0,0,0,.571.808,6.2,6.2,0,0,1-.167,1.644,2.949,2.949,0,0,1-1,.461c-.461.179-1.517.2-2.169.433a4.071,4.071,0,0,0-2.642,3.876H20.6A4.063,4.063,0,0,0,17.968,17.254Z" transform="translate(0.352 -4.305)" fill="#5887f9"/>
  <path id="패스_1821" data-name="패스 1821" d="M7.489,13.529a3.916,3.916,0,0,0,1.927-.536c-.894-1.356-.41-2.936-.594-4.413A2.434,2.434,0,0,0,6.128,6.227H6.1A2.441,2.441,0,0,0,3.434,8.58c-.185,1.471.329,3.23-.588,4.413a3.624,3.624,0,0,0,1.932.479h0a2.921,2.921,0,0,1-.058.969,1.457,1.457,0,0,1-.692.317,13.383,13.383,0,0,0-1.494.415,2.429,2.429,0,0,0-1.3,2.146H5.862A4.144,4.144,0,0,1,7.708,15.6a3.873,3.873,0,0,1,1.425-.3s.219-.346-.5-.479a4.917,4.917,0,0,1-1.108-.386C7.414,14.308,7.489,13.529,7.489,13.529Z" transform="translate(-1.23 -3.389)" fill="#5887f9"/>
  <path id="패스_1822" data-name="패스 1822" d="M15.153,13.529a3.916,3.916,0,0,1-1.927-.536c.894-1.356.41-2.936.594-4.413a2.434,2.434,0,0,1,2.694-2.353h.023A2.441,2.441,0,0,1,19.208,8.58c.185,1.471-.329,3.23.588,4.413a3.624,3.624,0,0,1-1.932.479h0a2.921,2.921,0,0,0,.058.969,1.457,1.457,0,0,0,.692.317,13.383,13.383,0,0,1,1.494.415,2.429,2.429,0,0,1,1.3,2.146H16.78A4.144,4.144,0,0,0,14.934,15.6a3.873,3.873,0,0,0-1.425-.3s-.219-.346.5-.479a4.917,4.917,0,0,0,1.108-.386C15.228,14.308,15.153,13.529,15.153,13.529Z" transform="translate(4.488 -3.389)" fill="#5887f9"/>
</svg>
