<svg xmlns="http://www.w3.org/2000/svg" width="19.472" height="19.472" viewBox="0 0 19.472 19.472">
  <g id="그룹_773" data-name="그룹 773" transform="translate(-748.483 -753.5)">
    <path id="패스_1849" data-name="패스 1849" d="M765,754a9.238,9.238,0,0,1,9.227,9.227" transform="translate(-6.773)" fill="none" stroke="#bababa" stroke-linejoin="round" stroke-width="1"/>
    <path id="패스_1850" data-name="패스 1850" d="M765,759.134a6.274,6.274,0,0,1,6.267,6.266" transform="translate(-6.773 -2.173)" fill="none" stroke="#bababa" stroke-linejoin="round" stroke-width="1"/>
    <path id="패스_1851" data-name="패스 1851" d="M765,764.852a2.972,2.972,0,0,1,2.969,2.969" transform="translate(-6.773 -4.593)" fill="none" stroke="#bababa" stroke-linejoin="round" stroke-width="1"/>
    <path id="패스_1852" data-name="패스 1852" d="M764.37,771.858a1.139,1.139,0,0,1-.295.632l-1.118,1.121c-3.813,3.193-8.656-1.563-8.7-1.611l-2.532-2.534c-.048-.048-4.806-4.889-1.628-8.69l1.138-1.138a1.135,1.135,0,0,1,.632-.295,1.008,1.008,0,0,1,.135-.009.58.58,0,0,1,.4.13l2.366,2.731a.728.728,0,0,1,0,1.028l-.863.865a2.416,2.416,0,0,0-.458.662,3.106,3.106,0,0,0,.809,3.267l1.455,1.456a3.1,3.1,0,0,0,3.274.795,2.427,2.427,0,0,0,.653-.459l.856-.856a.735.735,0,0,1,1.043.014l2.7,2.345A.665.665,0,0,1,764.37,771.858Z" transform="translate(0 -2.257)" fill="#e6e6e6" stroke="#bababa" stroke-linejoin="round" stroke-width="1"/>
  </g>
</svg>
