<svg xmlns="http://www.w3.org/2000/svg" width="16.097" height="16.097" viewBox="0 0 16.097 16.097">
  <g id="i_warning" transform="translate(19.472 19.472) rotate(180)">
    <path id="패스_10" data-name="패스 10" d="M16.552,11.479a.8.8,0,1,1,.793.774A.775.775,0,0,1,16.552,11.479Zm.054,1.381h1.478v5.576H16.606Z" transform="translate(-5.925 -3.298)" fill="#fff"/>
    <path id="패스_11" data-name="패스 11" d="M11.423,4.458A6.962,6.962,0,1,1,6.5,6.5a6.919,6.919,0,0,1,4.926-2.039m0-1.083a8.048,8.048,0,1,0,8.048,8.048,8.047,8.047,0,0,0-8.048-8.048Z" fill="#fff"/>
  </g>
</svg>
