<svg xmlns="http://www.w3.org/2000/svg" width="28" height="28" viewBox="0 0 28 28">
  <g id="ico_name_28" transform="translate(-1268 -432.992)">
    <circle id="타원_102" data-name="타원 102" cx="14" cy="14" r="14" transform="translate(1268 432.992)" fill="#8290a0"/>
    <g id="그룹_1211" data-name="그룹 1211" transform="translate(1272 436.992)">
      <path id="패스_5514" data-name="패스 5514" d="M0,0H19.6V19.6H0Z" fill="none"/>
      <path id="패스_5515" data-name="패스 5515" d="M3,4,3,6.45A2.45,2.45,0,0,1,5.45,4h9.8A2.45,2.45,0,0,1,17.7,6.45v8.167a2.45,2.45,0,0,1-2.45,2.45H5.45A2.45,2.45,0,0,1,3,14.616Z" transform="translate(-0.55 -0.733)" fill="none" stroke="#fff" stroke-linecap="round" stroke-linejoin="round" stroke-width="1.5"/>
      <path id="패스_5516" data-name="패스 5516" d="M8.633,9.633,7,9.633A1.633,1.633,0,1,0,8.633,8,1.633,1.633,0,0,0,7,9.633" transform="translate(-1.283 -1.467)" fill="none" stroke="#fff" stroke-linecap="round" stroke-linejoin="round" stroke-width="1.5"/>
      <path id="패스_5517" data-name="패스 5517" d="M15,8h1.633" transform="translate(-2.75 -1.467)" fill="none" stroke="#fff" stroke-linecap="round" stroke-linejoin="round" stroke-width="1.5"/>
      <path id="패스_5518" data-name="패스 5518" d="M15,12h1.633" transform="translate(-2.75 -2.2)" fill="none" stroke="#fff" stroke-linecap="round" stroke-linejoin="round" stroke-width="1.5"/>
      <path id="패스_5519" data-name="패스 5519" d="M7,16h8.167" transform="translate(-1.283 -2.934)" fill="none" stroke="#fff" stroke-linecap="round" stroke-linejoin="round" stroke-width="1.5"/>
    </g>
  </g>
</svg>
