<svg xmlns="http://www.w3.org/2000/svg" width="298.564" height="328.202" viewBox="0 0 298.564 328.202">
  <g id="그룹_1823" data-name="그룹 1823" transform="translate(-278.628 -223.318)">
    <g id="그룹_1610" data-name="그룹 1610" transform="translate(361.036 402.112)">
      <g id="그룹_1600" data-name="그룹 1600" transform="translate(153.642)">
        <g id="그룹_1595" data-name="그룹 1595" transform="translate(17.159 38.906)">
          <path id="패스_3038" data-name="패스 3038" d="M1524.5,1287.6a4.244,4.244,0,1,1,4.244-4.244A4.249,4.249,0,0,1,1524.5,1287.6Zm0-7.669a3.426,3.426,0,1,0,3.426,3.426A3.43,3.43,0,0,0,1524.5,1279.933Z" transform="translate(-1520.258 -1279.115)" fill="#ff7847"/>
        </g>
        <g id="그룹_1596" data-name="그룹 1596" transform="translate(0 13.12)">
          <path id="패스_3039" data-name="패스 3039" d="M1438.58,1157.6a2.463,2.463,0,1,1,2.463-2.463A2.466,2.466,0,0,1,1438.58,1157.6Zm0-4.109a1.645,1.645,0,1,0,1.646,1.645A1.647,1.647,0,0,0,1438.58,1153.489Z" transform="translate(-1436.117 -1152.671)" fill="#7abbbf"/>
        </g>
        <g id="그룹_1599" data-name="그룹 1599" transform="translate(29.889)">
          <g id="그룹_1597" data-name="그룹 1597" transform="translate(3.277)">
            <path id="패스_3040" data-name="패스 3040" d="M1599.157,1095.709a.409.409,0,0,1-.409-.409v-6.553a.409.409,0,1,1,.818,0v6.553A.409.409,0,0,1,1599.157,1095.709Z" transform="translate(-1598.748 -1088.338)" fill="#00101e"/>
          </g>
          <g id="그룹_1598" data-name="그룹 1598" transform="translate(0 3.277)">
            <path id="패스_3041" data-name="패스 3041" d="M1589.643,1105.223h-6.553a.409.409,0,1,1,0-.818h6.553a.409.409,0,1,1,0,.818Z" transform="translate(-1582.681 -1104.405)" fill="#00101e"/>
          </g>
        </g>
      </g>
      <g id="그룹_1606" data-name="그룹 1606" transform="translate(0 7.367)">
        <g id="그룹_1601" data-name="그룹 1601" transform="translate(0 77.763)">
          <path id="패스_3042" data-name="패스 3042" d="M689.431,1519.195a6.708,6.708,0,1,1,6.708-6.708A6.716,6.716,0,0,1,689.431,1519.195Zm0-12.6a5.891,5.891,0,1,0,5.891,5.891A5.9,5.9,0,0,0,689.431,1506.6Z" transform="translate(-682.722 -1505.778)" fill="#803a57"/>
        </g>
        <g id="그룹_1602" data-name="그룹 1602" transform="translate(28.408 30.383)">
          <path id="패스_3043" data-name="패스 3043" d="M825.307,1280.014a3.285,3.285,0,1,1,3.285-3.284A3.288,3.288,0,0,1,825.307,1280.014Zm0-5.752a2.467,2.467,0,1,0,2.467,2.467A2.47,2.47,0,0,0,825.307,1274.263Z" transform="translate(-822.022 -1273.445)" fill="#e2bd9c"/>
        </g>
        <g id="그룹_1605" data-name="그룹 1605" transform="translate(5.348)">
          <g id="그룹_1603" data-name="그룹 1603" transform="translate(3.277)">
            <path id="패스_3044" data-name="패스 3044" d="M725.422,1131.832a.409.409,0,0,1-.409-.409v-6.553a.409.409,0,0,1,.818,0v6.553A.409.409,0,0,1,725.422,1131.832Z" transform="translate(-725.013 -1124.461)" fill="#f04230"/>
          </g>
          <g id="그룹_1604" data-name="그룹 1604" transform="translate(0 3.277)">
            <path id="패스_3045" data-name="패스 3045" d="M715.908,1141.346h-6.553a.409.409,0,1,1,0-.818h6.553a.409.409,0,1,1,0,.818Z" transform="translate(-708.946 -1140.528)" fill="#f04230"/>
          </g>
        </g>
      </g>
    </g>
    <g id="그룹_1822" data-name="그룹 1822" transform="translate(278.628 226.318)">
      <g id="그룹_1618" data-name="그룹 1618" transform="translate(185.638 16.842)">
        <g id="그룹_1616" data-name="그룹 1616">
          <g id="그룹_1615" data-name="그룹 1615">
            <g id="그룹_1611" data-name="그룹 1611" transform="translate(0 0)">
              <circle id="타원_275" data-name="타원 275" cx="56.463" cy="56.463" r="56.463" fill="#eed7c3"/>
            </g>
            <g id="그룹_1612" data-name="그룹 1612" transform="translate(0 0)">
              <circle id="타원_276" data-name="타원 276" cx="56.463" cy="56.463" r="56.463" fill="#ff7847"/>
            </g>
            <g id="그룹_1613" data-name="그룹 1613" transform="translate(0 0)">
              <circle id="타원_277" data-name="타원 277" cx="56.463" cy="56.463" r="56.463" fill="#ff7847"/>
            </g>
            <g id="그룹_1614" data-name="그룹 1614" opacity="0.5">
              <path id="패스_3048" data-name="패스 3048" d="M1284.556,406.022a56.461,56.461,0,1,1-39.174-97.12c.781,0,1.562.016,2.335.049a56.456,56.456,0,0,0,36.839,97.071Z" transform="translate(-1188.921 -308.902)" fill="#cc3b1e"/>
            </g>
          </g>
        </g>
        <g id="그룹_1617" data-name="그룹 1617" transform="translate(101.23 107.381)">
          <path id="패스_3049" data-name="패스 3049" d="M1693.1,839.349a3.9,3.9,0,1,1-3.9-3.9A3.9,3.9,0,0,1,1693.1,839.349Z" transform="translate(-1685.31 -835.452)" fill="#ff7847"/>
        </g>
      </g>
      <g id="그룹_1821" data-name="그룹 1821" transform="translate(0 0)">
        <g id="그룹_1621" data-name="그룹 1621" transform="translate(251.583 141.792)">
          <g id="그룹_1619" data-name="그룹 1619" transform="translate(0 0)">
            <path id="패스_3050" data-name="패스 3050" d="M1512.49,942.38a.2.2,0,0,1-.114-.374c5.784-3.9,7.593-10.675,5.379-20.15a.2.2,0,1,1,.4-.094c2.257,9.657.39,16.582-5.549,20.583A.2.2,0,0,1,1512.49,942.38Z" transform="translate(-1512.285 -921.604)" fill="#00101e"/>
          </g>
          <g id="그룹_1620" data-name="그룹 1620" transform="translate(10.266 11.59)">
            <path id="패스_3051" data-name="패스 3051" d="M1562.831,986.794a.2.2,0,0,1-.145-.349c1.793-1.793,2.609-4.415,2.424-7.792a.2.2,0,1,1,.408-.022c.192,3.5-.664,6.225-2.543,8.1A.2.2,0,0,1,1562.831,986.794Z" transform="translate(-1562.627 -978.437)" fill="#00101e"/>
          </g>
        </g>
        <g id="그룹_1820" data-name="그룹 1820">
          <g id="그룹_1819" data-name="그룹 1819" transform="translate(0 -3)">
            <g id="그룹_1623" data-name="그룹 1623" transform="translate(155.077 153.688)">
              <path id="패스_3053" data-name="패스 3053" d="M1039.141,987.116c.688-4.436,6.031-6.843,7.952-7.177l-2.422,14.612S1038.286,992.624,1039.141,987.116Z" transform="translate(-1039.062 -979.939)" fill="#000204"/>
            </g>
            <g id="그룹_1627" data-name="그룹 1627" transform="translate(213.056 67.564)">
              <g id="그룹_1624" data-name="그룹 1624">
                <path id="패스_3054" data-name="패스 3054" d="M1323.569,565.532a.205.205,0,0,1-.2-.242l1.406-7.5a.2.2,0,1,1,.4.075l-1.406,7.5A.2.2,0,0,1,1323.569,565.532Z" transform="translate(-1323.364 -557.625)" fill="#eed7c3"/>
              </g>
              <g id="그룹_1625" data-name="그룹 1625" transform="translate(4.769 0.145)">
                <path id="패스_3055" data-name="패스 3055" d="M1346.955,567.814a.2.2,0,0,1-.17-.318l6.047-9.069a.2.2,0,0,1,.34.227l-6.047,9.069A.2.2,0,0,1,1346.955,567.814Z" transform="translate(-1346.751 -558.336)" fill="#eed7c3"/>
              </g>
              <g id="그룹_1626" data-name="그룹 1626" transform="translate(10.422 7.729)">
                <path id="패스_3056" data-name="패스 3056" d="M1374.672,599.021a.2.2,0,0,1-.127-.364l3.894-3.088a.2.2,0,1,1,.254.32l-3.894,3.088A.2.2,0,0,1,1374.672,599.021Z" transform="translate(-1374.468 -595.524)" fill="#eed7c3"/>
              </g>
            </g>
            <g id="그룹_1689" data-name="그룹 1689" transform="translate(131.539 146.348)">
              <g id="그룹_1664" data-name="그룹 1664" transform="translate(0 127.263)">
                <g id="그룹_1645" data-name="그룹 1645" transform="translate(70.775 1.718)">
                  <g id="그룹_1644" data-name="그룹 1644">
                    <g id="그룹_1643" data-name="그룹 1643">
                      <g id="그룹_1630" data-name="그룹 1630">
                        <g id="그룹_1628" data-name="그룹 1628">
                          <path id="패스_3057" data-name="패스 3057" d="M1294.16,1576.417l-.182,31.931-12.151,4.119-7-1.133s-.309-3.913-1.236-10.606-2.9-24.169-2.9-24.169Z" transform="translate(-1270.691 -1576.417)" fill="#f99173"/>
                        </g>
                        <g id="그룹_1629" data-name="그룹 1629" transform="translate(3.394 26.375)">
                          <path id="패스_3058" data-name="패스 3058" d="M1287.334,1707.458c.545,4.367.742,6.835.742,6.835l7,1.134,12.152-4.12-.023-4.917C1303.7,1705.818,1295.327,1704.9,1287.334,1707.458Z" transform="translate(-1287.334 -1705.751)" fill="#803a57"/>
                        </g>
                      </g>
                      <g id="그룹_1642" data-name="그룹 1642" transform="translate(2.283 30.056)">
                        <g id="그룹_1633" data-name="그룹 1633" transform="translate(0.126)">
                          <g id="그룹_1631" data-name="그룹 1631" transform="translate(0.26 11.136)">
                            <path id="패스_3059" data-name="패스 3059" d="M1324.03,1785.745c-.459,1.528-.895,3.605-2.174,4.053-1.542.54-6.706.548-19.924-2.01-13.068-2.529-17.089-3.8-17.362-4.14a42.612,42.612,0,0,1-.791-5.242l21.425,3.906Z" transform="translate(-1283.779 -1778.406)" fill="#222654"/>
                          </g>
                          <g id="그룹_1632" data-name="그룹 1632">
                            <path id="패스_3060" data-name="패스 3060" d="M1303.382,1725.676s6.58,4.792,10.123,7.671c1.931,1.569,6.833,3.221,8.751,5.557,1.656,2.017.552,4.815-.218,5.277-1.661,1-16.5-1.772-22.7-3.1s-15.281-3.211-16.167-4.651-1.125-9.611.769-9.933c2.379-.4,7.363,4.325,7.646,1.96.092-.77.443-3.876,6.312-4.54S1303.382,1725.676,1303.382,1725.676Z" transform="translate(-1282.504 -1723.802)" fill="#eed7c3"/>
                          </g>
                        </g>
                        <g id="그룹_1641" data-name="그룹 1641" transform="translate(0 3.678)">
                          <g id="그룹_1634" data-name="그룹 1634" transform="translate(0 2.493)">
                            <path id="패스_3061" data-name="패스 3061" d="M1289.671,1763.2h0a.2.2,0,0,1-.2-.208,9.144,9.144,0,0,0-2.4-6.647,6.6,6.6,0,0,0-4.973-1.874.2.2,0,0,1-.209-.2.2.2,0,0,1,.2-.209,7.1,7.1,0,0,1,5.271,1.993,9.553,9.553,0,0,1,2.517,6.944A.2.2,0,0,1,1289.671,1763.2Z" transform="translate(-1281.888 -1754.061)" fill="#222654"/>
                          </g>
                          <g id="그룹_1639" data-name="그룹 1639" transform="translate(14.365)">
                            <g id="그룹_1635" data-name="그룹 1635">
                              <path id="패스_3062" data-name="패스 3062" d="M1352.532,1746.469a.2.2,0,0,1-.085-.391l9.271-4.222a.2.2,0,1,1,.169.372l-9.271,4.223A.207.207,0,0,1,1352.532,1746.469Z" transform="translate(-1352.327 -1741.837)" fill="#222654"/>
                            </g>
                            <g id="그룹_1636" data-name="그룹 1636" transform="translate(2.295 1.836)">
                              <path id="패스_3063" data-name="패스 3063" d="M1363.785,1755.47a.2.2,0,0,1-.085-.39l9.271-4.223a.2.2,0,0,1,.169.372l-9.271,4.222A.2.2,0,0,1,1363.785,1755.47Z" transform="translate(-1363.581 -1750.839)" fill="#222654"/>
                            </g>
                            <g id="그룹_1637" data-name="그룹 1637" transform="translate(5.14 3.58)">
                              <path id="패스_3064" data-name="패스 3064" d="M1377.739,1763.931a.2.2,0,0,1-.086-.39l8.9-4.131a.2.2,0,1,1,.172.37l-8.9,4.131A.2.2,0,0,1,1377.739,1763.931Z" transform="translate(-1377.534 -1759.391)" fill="#222654"/>
                            </g>
                            <g id="그룹_1638" data-name="그룹 1638" transform="translate(8.629 5.69)">
                              <path id="패스_3065" data-name="패스 3065" d="M1394.844,1773.637a.2.2,0,0,1-.081-.392l8.078-3.488a.2.2,0,1,1,.162.375l-8.078,3.488A.2.2,0,0,1,1394.844,1773.637Z" transform="translate(-1394.64 -1769.74)" fill="#222654"/>
                            </g>
                          </g>
                          <g id="그룹_1640" data-name="그룹 1640" transform="translate(26.066 8.519)">
                            <path id="패스_3066" data-name="패스 3066" d="M1409.908,1790.663a.222.222,0,0,1-.054-.007.205.205,0,0,1-.143-.252c2.036-7.418,10.172-6.784,10.255-6.775a.2.2,0,0,1-.036.407c-.079-.009-7.88-.61-9.825,6.477A.2.2,0,0,1,1409.908,1790.663Z" transform="translate(-1409.703 -1783.612)" fill="#222654"/>
                          </g>
                        </g>
                      </g>
                    </g>
                  </g>
                </g>
                <g id="그룹_1663" data-name="그룹 1663">
                  <g id="그룹_1662" data-name="그룹 1662">
                    <g id="그룹_1648" data-name="그룹 1648" transform="translate(17.54)">
                      <g id="그룹_1646" data-name="그룹 1646" transform="translate(0.002)">
                        <path id="패스_3067" data-name="패스 3067" d="M1009.657,1600.5l12.827-.178,6.222-3.405,3.877-26.236c-2.621-.959-7.319-1.257-9.941-1.634-4.335-.622-7.453-1.306-11.031-.953Z" transform="translate(-1009.657 -1567.993)" fill="#f99173"/>
                      </g>
                      <g id="그룹_1647" data-name="그룹 1647" transform="translate(0 21.859)">
                        <path id="패스_3068" data-name="패스 3068" d="M1029.493,1676.866l-.8,5.375-6.22,3.405-12.829.176.583-9.613C1014.822,1674.335,1024.631,1675.3,1029.493,1676.866Z" transform="translate(-1009.648 -1675.178)" fill="#803a57"/>
                      </g>
                    </g>
                    <g id="그룹_1661" data-name="그룹 1661" transform="translate(0 27.683)">
                      <g id="그룹_1651" data-name="그룹 1651">
                        <g id="그룹_1649" data-name="그룹 1649" transform="translate(0.321 8.272)">
                          <path id="패스_3069" data-name="패스 3069" d="M925.212,1758.48c.716,1.426,1.5,3.4,2.841,3.617,1.611.266,6.7-.618,19.278-5.419,12.435-4.747,16.176-6.692,16.387-7.075a42.6,42.6,0,0,0-.126-5.3l-20.43,7.547Z" transform="translate(-925.212 -1744.302)" fill="#222654"/>
                        </g>
                        <g id="그룹_1650" data-name="그룹 1650">
                          <path id="패스_3070" data-name="패스 3070" d="M940.433,1706.449s-5.654,5.856-8.647,9.3c-1.631,1.878-6.174,4.352-7.661,6.984-1.283,2.273.288,4.838,1.126,5.16,1.808.7,15.945-4.593,21.824-6.973s14.5-5.8,15.121-7.372-.551-9.661-2.472-9.651c-2.413.013-6.506,5.531-7.193,3.251-.224-.742-1.105-3.741-7-3.382S940.433,1706.449,940.433,1706.449Z" transform="translate(-923.64 -1703.74)" fill="#eed7c3"/>
                        </g>
                      </g>
                      <g id="그룹_1660" data-name="그룹 1660" transform="translate(3.694 3.348)">
                        <g id="그룹_1656" data-name="그룹 1656" transform="translate(4.105 1.623)">
                          <g id="그룹_1652" data-name="그룹 1652" transform="translate(6.341)">
                            <path id="패스_3071" data-name="패스 3071" d="M1003.046,1731.087a.2.2,0,0,1-.052-.006l-9.861-2.559a.2.2,0,0,1,.1-.4l9.861,2.559a.2.2,0,0,1-.051.4Z" transform="translate(-992.981 -1728.119)" fill="#222654"/>
                          </g>
                          <g id="그룹_1653" data-name="그룹 1653" transform="translate(4.398 2.205)">
                            <path id="패스_3072" data-name="패스 3072" d="M993.516,1741.9a.2.2,0,0,1-.051-.006l-9.861-2.559a.2.2,0,0,1,.1-.4l9.861,2.559a.2.2,0,0,1-.051.4Z" transform="translate(-983.45 -1738.929)" fill="#222654"/>
                          </g>
                          <g id="그룹_1654" data-name="그룹 1654" transform="translate(2.258 4.351)">
                            <path id="패스_3073" data-name="패스 3073" d="M982.645,1752.4a.212.212,0,0,1-.053-.007l-9.484-2.531a.2.2,0,0,1-.145-.25.208.208,0,0,1,.25-.145l9.484,2.531a.2.2,0,0,1-.053.4Z" transform="translate(-972.957 -1749.457)" fill="#222654"/>
                          </g>
                          <g id="그룹_1655" data-name="그룹 1655" transform="translate(0 6.889)">
                            <path id="패스_3074" data-name="패스 3074" d="M970.649,1764.353a.19.19,0,0,1-.048-.006l-8.559-2.042a.2.2,0,0,1,.095-.4l8.559,2.042a.2.2,0,0,1-.047.4Z" transform="translate(-961.885 -1761.902)" fill="#222654"/>
                          </g>
                        </g>
                        <g id="그룹_1659" data-name="그룹 1659">
                          <g id="그룹_1657" data-name="그룹 1657" transform="translate(27.995)">
                            <path id="패스_3075" data-name="패스 3075" d="M1079.441,1730.474a.2.2,0,0,1-.2-.166,9.55,9.55,0,0,1,1.281-7.274,7.059,7.059,0,0,1,4.847-2.872.2.2,0,1,1,.062.4,6.574,6.574,0,0,0-4.575,2.7,9.143,9.143,0,0,0-1.213,6.961.2.2,0,0,1-.162.239A.208.208,0,0,1,1079.441,1730.474Z" transform="translate(-1079.031 -1720.159)" fill="#222654"/>
                          </g>
                          <g id="그룹_1658" data-name="그룹 1658" transform="translate(0 11.686)">
                            <path id="패스_3076" data-name="패스 3076" d="M953.346,1782.99a.2.2,0,0,1-.155-.071c-.049-.057-5.03-5.757-11.205-4.973a.2.2,0,0,1-.051-.406c6.395-.812,11.516,5.053,11.567,5.113a.2.2,0,0,1-.155.338Z" transform="translate(-941.755 -1777.463)" fill="#222654"/>
                          </g>
                        </g>
                      </g>
                    </g>
                  </g>
                </g>
              </g>
              <g id="그룹_1688" data-name="그룹 1688" transform="translate(14.378 0)">
                <g id="그룹_1672" data-name="그룹 1672">
                  <g id="그룹_1667" data-name="그룹 1667">
                    <g id="그룹_1666" data-name="그룹 1666">
                      <g id="그룹_1665" data-name="그룹 1665">
                        <path id="패스_3077" data-name="패스 3077" d="M1009.773,951.465s-2.532,14.674-5.8,33.185c-3.207,18.175-5.227,29.836-6.969,41.378-1.123,7.438-2.863,60.142-2.863,60.142s8.68,5.482,27.182,2.513l17.458-115.392,2.452-29.344S1020.632,943.948,1009.773,951.465Z" transform="translate(-994.143 -943.948)" fill="#222654"/>
                      </g>
                    </g>
                  </g>
                  <g id="그룹_1671" data-name="그룹 1671" transform="translate(42.126 3.323)">
                    <g id="그룹_1670" data-name="그룹 1670">
                      <g id="그룹_1669" data-name="그룹 1669">
                        <g id="그룹_1668" data-name="그룹 1668">
                          <path id="패스_3078" data-name="패스 3078" d="M1235.779,967.739s1.008,8.413,1.587,28.4,1.166,37.225,1.756,50.453c.463,10.387,2.38,57.352,2.38,57.352-10.8,4.78-20.119,5.453-31.978,1.6,0,0-5.144-53.52-6.308-63.417-1.5-12.765-2.5-59.068-2.5-59.068l1.1-21.339C1213.987,958.807,1224.753,959.906,1235.779,967.739Z" transform="translate(-1200.712 -960.243)" fill="#222654"/>
                        </g>
                      </g>
                    </g>
                  </g>
                </g>
                <g id="그룹_1673" data-name="그룹 1673" transform="translate(20.927 4.637)">
                  <path id="패스_3079" data-name="패스 3079" d="M1154.252,991.221c-10.848-10.437-24.255-16-35.472-18.971A149.855,149.855,0,0,0,1096.76,968a44.465,44.465,0,0,1,12.464-1.3c3.352.07,6.63.127,9.826.275,7.525.34,14.6,1.157,21.125,3.68,10.458,4.045,13.473,10.212,13.473,10.212s.012-.078.029-.226C1153.862,983.377,1154.063,986.885,1154.252,991.221Z" transform="translate(-1096.76 -966.687)" fill="#191b45"/>
                </g>
                <g id="그룹_1680" data-name="그룹 1680" transform="translate(42.597 3.548)">
                  <g id="그룹_1676" data-name="그룹 1676" transform="translate(5.241 0.123)">
                    <g id="그룹_1674" data-name="그룹 1674">
                      <path id="패스_3080" data-name="패스 3080" d="M1236.653,987.135a.2.2,0,0,1-.165-.083c-7.679-10.36-7.768-24.754-7.768-24.9a.2.2,0,0,1,.409,0c0,.143.09,14.405,7.687,24.655a.2.2,0,0,1-.164.326Z" transform="translate(-1228.721 -961.949)" fill="#00101e"/>
                    </g>
                    <g id="그룹_1675" data-name="그룹 1675" transform="translate(7.077 24.295)">
                      <path id="패스_3081" data-name="패스 3081" d="M1266.44,1085.584h0a.985.985,0,0,1-1.345-.36l-1.539-2.665a.985.985,0,0,1,.36-1.345h0a.984.984,0,0,1,1.345.36l1.539,2.665A.985.985,0,0,1,1266.44,1085.584Z" transform="translate(-1263.424 -1081.081)" fill="#00101e"/>
                    </g>
                  </g>
                  <g id="그룹_1679" data-name="그룹 1679">
                    <g id="그룹_1677" data-name="그룹 1677" transform="translate(0.948)">
                      <path id="패스_3082" data-name="패스 3082" d="M1207.875,976.965h-.008a.2.2,0,0,1-.2-.212c0-.1.4-9.919,3.088-15.294a.2.2,0,1,1,.366.183c-2.648,5.3-3.041,15.029-3.045,15.126A.2.2,0,0,1,1207.875,976.965Z" transform="translate(-1207.67 -961.347)" fill="#00101e"/>
                    </g>
                    <g id="그룹_1678" data-name="그룹 1678" transform="translate(0 15.169)">
                      <path id="패스_3083" data-name="패스 3083" d="M1203.962,1040.774h0a.984.984,0,0,1-.94-1.027l.136-3.075a.985.985,0,0,1,1.027-.94h0a.984.984,0,0,1,.94,1.027l-.136,3.075A.985.985,0,0,1,1203.962,1040.774Z" transform="translate(-1203.021 -1035.731)" fill="#00101e"/>
                    </g>
                  </g>
                </g>
                <g id="그룹_1687" data-name="그룹 1687" transform="translate(1.876 35.814)">
                  <g id="그룹_1685" data-name="그룹 1685" transform="translate(0 31.691)">
                    <g id="그룹_1681" data-name="그룹 1681" transform="translate(63.411 12.821)">
                      <path id="패스_3084" data-name="패스 3084" d="M1322.745,1343.384h0c-4.5-.1-7.264-1.828-8.447-5.282a.2.2,0,0,1,.387-.133c1.12,3.273,3.759,4.91,8.069,5.006a.2.2,0,0,1,0,.409Z" transform="translate(-1314.283 -1337.831)" fill="#00101e"/>
                    </g>
                    <g id="그룹_1684" data-name="그룹 1684">
                      <g id="그룹_1682" data-name="그룹 1682">
                        <path id="패스_3085" data-name="패스 3085" d="M1018.5,1292.022c-.437,9.331-9.837,11.052-15.161,11.277.343-6.566.687-11.771.985-13.759.707-4.7,1.464-9.408,2.326-14.576C1009.975,1276.415,1019,1281.359,1018.5,1292.022Z" transform="translate(-1003.343 -1274.964)" fill="#191b45"/>
                      </g>
                      <g id="그룹_1683" data-name="그룹 1683" transform="translate(6.825 14.039)">
                        <path id="패스_3086" data-name="패스 3086" d="M1037.015,1346.515a.2.2,0,0,1-.019-.408c.027,0,2.747-.286,3.765-2.194a.2.2,0,1,1,.361.193c-1.122,2.1-3.966,2.4-4.087,2.409Z" transform="translate(-1036.81 -1343.805)" fill="#00101e"/>
                      </g>
                    </g>
                  </g>
                  <g id="그룹_1686" data-name="그룹 1686" transform="translate(37.321)">
                    <path id="패스_3087" data-name="패스 3087" d="M1186.552,1147.287l-.032,0a.2.2,0,0,1-.17-.234l4.359-27.316a.2.2,0,1,1,.4.065l-4.359,27.316A.2.2,0,0,1,1186.552,1147.287Z" transform="translate(-1186.347 -1119.563)" fill="#00101e"/>
                  </g>
                </g>
              </g>
            </g>
            <g id="그룹_1746" data-name="그룹 1746">
              <g id="그룹_1702" data-name="그룹 1702" transform="translate(78.201 77.854)">
                <g id="그룹_1698" data-name="그룹 1698" transform="translate(0 40.007)">
                  <g id="그룹_1697" data-name="그룹 1697">
                    <g id="그룹_1696" data-name="그룹 1696">
                      <g id="그룹_1693" data-name="그룹 1693" transform="translate(0 15.116)">
                        <g id="그룹_1690" data-name="그룹 1690" transform="translate(3.429 5.99)">
                          <path id="패스_3088" data-name="패스 3088" d="M691.82,907.751l12,5.065.889,6.991s-9.549,1.587-14.166.573c-3.542-.778-11.769-9.732-11.628-10.727C679.073,908.522,691.82,907.751,691.82,907.751Z" transform="translate(-678.91 -907.751)" fill="#f99173"/>
                        </g>
                        <g id="그룹_1691" data-name="그룹 1691" transform="translate(0 2.425)">
                          <path id="패스_3089" data-name="패스 3089" d="M678.434,893.835s-6.545-2.083-7.834-2.424c-1.736-.459-7.786-1.821-8.424-.724-.786,1.351,4.336,3.97,6.11,4.917s8.242,3.64,8.242,3.64Z" transform="translate(-662.095 -890.27)" fill="#f99173"/>
                        </g>
                        <g id="그룹_1692" data-name="그룹 1692" transform="translate(10.883)">
                          <path id="패스_3090" data-name="패스 3090" d="M731.578,884.582s-3.082-3.829-5.689-4.635-9.384-2.374-10.287-1.061,2.79,4.279,5.317,5.484a7.065,7.065,0,0,0,4.439,5.029,11.083,11.083,0,0,0,7.558.036Z" transform="translate(-715.462 -878.381)" fill="#f99173"/>
                        </g>
                      </g>
                      <g id="그룹_1695" data-name="그룹 1695" transform="translate(26.999)">
                        <g id="그룹_1694" data-name="그룹 1694">
                          <path id="패스_3091" data-name="패스 3091" d="M833.368,804.26l-3.9,18.665-34.976,2.652.469,11.921a214.771,214.771,0,0,0,23.918,4.045c5.559.535,17.281,1.185,22.983.6,5.811-.593,13.787-3.247,15.428-9.808,2.5-10.006-.216-26.592-.216-26.592Z" transform="translate(-794.488 -804.26)" fill="#f99173"/>
                        </g>
                      </g>
                    </g>
                  </g>
                </g>
                <g id="그룹_1701" data-name="그룹 1701" transform="translate(62.257)">
                  <g id="그룹_1699" data-name="그룹 1699">
                    <path id="패스_3092" data-name="패스 3092" d="M1000.742,608.081a32.993,32.993,0,0,0-14.768,4.36c-5.5,3.391-15.375,16.4-18.6,41.857,5.03,8.842,17.434,11.907,23.644,14.6,5.461-5.1,5.311-16.532,8.308-21.919Z" transform="translate(-967.378 -608.081)" fill="#7abbbf"/>
                  </g>
                  <g id="그룹_1700" data-name="그룹 1700" transform="translate(4.525 32.685)">
                    <path id="패스_3093" data-name="패스 3093" d="M1005.76,795.324c-4.821-1.824-11.338-4.093-16.191-8.145a33.631,33.631,0,0,0,19.348-18.824A62.929,62.929,0,0,1,1005.76,795.324Z" transform="translate(-989.569 -768.355)" fill="#599dab"/>
                  </g>
                </g>
              </g>
              <g id="그룹_1745" data-name="그룹 1745">
                <g id="그룹_1710" data-name="그룹 1710" transform="translate(40.644 100.564)">
                  <g id="그룹_1708" data-name="그룹 1708" transform="translate(5.511)">
                    <g id="그룹_1703" data-name="그룹 1703" transform="translate(0.001)">
                      <path id="패스_3094" data-name="패스 3094" d="M524.833,760.3h47.719l-20.246-37.665a6.067,6.067,0,0,0-5.344-3.195h-38.9a3.1,3.1,0,0,0-2.733,4.572Z" transform="translate(-504.953 -719.441)" fill="#222654"/>
                    </g>
                    <g id="그룹_1704" data-name="그룹 1704" transform="translate(57.711 34.441)">
                      <path id="사각형_1395" data-name="사각형 1395" d="M0,0H44.76a0,0,0,0,1,0,0V6.418a0,0,0,0,1,0,0H6.418A6.418,6.418,0,0,1,0,0V0A0,0,0,0,1,0,0Z" transform="translate(44.76 6.418) rotate(180)" fill="#222654"/>
                    </g>
                    <g id="그룹_1705" data-name="그룹 1705" transform="translate(24.547 10.388)">
                      <path id="패스_3095" data-name="패스 3095" d="M625.523,789.944a.2.2,0,0,1-.124-.042.2.2,0,0,1-.038-.287l14.7-19.157a.2.2,0,0,1,.324.249l-14.7,19.158A.2.2,0,0,1,625.523,789.944Z" transform="translate(-625.319 -770.377)" fill="#eed7c3"/>
                    </g>
                    <g id="그룹_1706" data-name="그룹 1706" transform="translate(23.323 14.093)">
                      <path id="패스_3096" data-name="패스 3096" d="M619.52,798.592a.2.2,0,0,1-.124-.042.2.2,0,0,1-.038-.287l7.4-9.637a.2.2,0,0,1,.324.249l-7.4,9.637A.2.2,0,0,1,619.52,798.592Z" transform="translate(-619.316 -788.546)" fill="#eed7c3"/>
                    </g>
                    <g id="그룹_1707" data-name="그룹 1707" transform="translate(0 0.001)">
                      <path id="패스_3097" data-name="패스 3097" d="M505.325,724.015,524.833,760.3h32.023c-11.342-2.331-31.332-10.774-44.919-40.859h-3.88A3.1,3.1,0,0,0,505.325,724.015Z" transform="translate(-504.95 -719.444)" fill="#191b45"/>
                    </g>
                  </g>
                  <g id="그룹_1709" data-name="그룹 1709" transform="translate(0 14.693)">
                    <path id="패스_3098" data-name="패스 3098" d="M496.6,827.014a.2.2,0,0,1-.181-.109l-18.466-35.114a.2.2,0,1,1,.362-.19l18.466,35.114a.2.2,0,0,1-.181.3Z" transform="translate(-477.928 -791.491)" fill="#00101e"/>
                  </g>
                </g>
                <g id="그룹_1711" data-name="그룹 1711" transform="translate(103.916 85.452)">
                  <circle id="타원_278" data-name="타원 278" cx="3.377" cy="3.377" r="3.377" transform="matrix(0.874, -0.487, 0.487, 0.874, 0, 3.288)" fill="#eed7c3"/>
                </g>
                <g id="그룹_1744" data-name="그룹 1744">
                  <g id="그룹_1740" data-name="그룹 1740" transform="translate(0 13.227)">
                    <g id="그룹_1738" data-name="그룹 1738" transform="translate(0 0.001)">
                      <g id="그룹_1714" data-name="그룹 1714">
                        <g id="그룹_1712" data-name="그룹 1712" transform="translate(60.094 61.536)">
                          <path id="패스_3099" data-name="패스 3099" d="M573.3,592.932l14.836,18.916,4.636-18.73Z" transform="translate(-573.303 -592.932)" fill="#eed7c3"/>
                        </g>
                        <g id="그룹_1713" data-name="그룹 1713">
                          <rect id="사각형_1396" data-name="사각형 1396" width="96.713" height="63.75" rx="13.033" fill="#eed7c3"/>
                        </g>
                      </g>
                      <g id="그룹_1737" data-name="그룹 1737" transform="translate(12.112 16.835)">
                        <g id="그룹_1715" data-name="그룹 1715">
                          <path id="사각형_1397" data-name="사각형 1397" d="M12.1,0H60.387a12.1,12.1,0,0,1,12.1,12.1v5.875a12.1,12.1,0,0,1-12.1,12.1H12.1A12.1,12.1,0,0,1,0,17.978V12.1A12.1,12.1,0,0,1,12.1,0Z" fill="#e2bd9c"/>
                        </g>
                        <g id="그룹_1736" data-name="그룹 1736" transform="translate(8.237 10.221)">
                          <g id="그룹_1720" data-name="그룹 1720">
                            <g id="그룹_1716" data-name="그룹 1716" transform="translate(4.411)">
                              <path id="패스_3100" data-name="패스 3100" d="M400.449,433.491a.409.409,0,0,1-.409-.409v-8.821a.409.409,0,1,1,.818,0v8.821A.409.409,0,0,1,400.449,433.491Z" transform="translate(-400.04 -423.852)" fill="#eed7c3"/>
                            </g>
                            <g id="그룹_1717" data-name="그룹 1717" transform="translate(0 4.411)">
                              <path id="패스_3101" data-name="패스 3101" d="M387.642,446.3h-8.821a.409.409,0,0,1,0-.818h8.821a.409.409,0,0,1,0,.818Z" transform="translate(-378.412 -445.48)" fill="#eed7c3"/>
                            </g>
                            <g id="그룹_1718" data-name="그룹 1718" transform="translate(1.292 1.292)">
                              <path id="패스_3102" data-name="패스 3102" d="M391.393,437.243a.408.408,0,0,1-.289-.12l-6.237-6.238a.409.409,0,0,1,.578-.578l6.237,6.237a.409.409,0,0,1-.289.7Z" transform="translate(-384.747 -430.188)" fill="#eed7c3"/>
                            </g>
                            <g id="그룹_1719" data-name="그룹 1719" transform="translate(1.292 1.292)">
                              <path id="패스_3103" data-name="패스 3103" d="M385.156,437.243a.409.409,0,0,1-.289-.7l6.237-6.237a.409.409,0,0,1,.578.578l-6.237,6.238A.408.408,0,0,1,385.156,437.243Z" transform="translate(-384.747 -430.188)" fill="#eed7c3"/>
                            </g>
                          </g>
                          <g id="그룹_1725" data-name="그룹 1725" transform="translate(15.458)">
                            <g id="그룹_1721" data-name="그룹 1721" transform="translate(4.411)">
                              <path id="패스_3104" data-name="패스 3104" d="M476.251,433.491a.409.409,0,0,1-.409-.409v-8.821a.409.409,0,1,1,.818,0v8.821A.409.409,0,0,1,476.251,433.491Z" transform="translate(-475.842 -423.852)" fill="#eed7c3"/>
                            </g>
                            <g id="그룹_1722" data-name="그룹 1722" transform="translate(0 4.411)">
                              <path id="패스_3105" data-name="패스 3105" d="M463.444,446.3h-8.821a.409.409,0,1,1,0-.818h8.821a.409.409,0,0,1,0,.818Z" transform="translate(-454.214 -445.48)" fill="#eed7c3"/>
                            </g>
                            <g id="그룹_1723" data-name="그룹 1723" transform="translate(1.292 1.292)">
                              <path id="패스_3106" data-name="패스 3106" d="M467.195,437.243a.408.408,0,0,1-.289-.12l-6.237-6.238a.409.409,0,0,1,.578-.578l6.237,6.237a.409.409,0,0,1-.289.7Z" transform="translate(-460.549 -430.188)" fill="#eed7c3"/>
                            </g>
                            <g id="그룹_1724" data-name="그룹 1724" transform="translate(1.292 1.292)">
                              <path id="패스_3107" data-name="패스 3107" d="M460.957,437.243a.409.409,0,0,1-.289-.7l6.237-6.237a.409.409,0,0,1,.578.578l-6.237,6.238A.408.408,0,0,1,460.957,437.243Z" transform="translate(-460.549 -430.188)" fill="#eed7c3"/>
                            </g>
                          </g>
                          <g id="그룹_1730" data-name="그룹 1730" transform="translate(30.917)">
                            <g id="그룹_1726" data-name="그룹 1726" transform="translate(4.411)">
                              <path id="패스_3108" data-name="패스 3108" d="M552.053,433.491a.409.409,0,0,1-.409-.409v-8.821a.409.409,0,0,1,.818,0v8.821A.409.409,0,0,1,552.053,433.491Z" transform="translate(-551.644 -423.852)" fill="#eed7c3"/>
                            </g>
                            <g id="그룹_1727" data-name="그룹 1727" transform="translate(0 4.411)">
                              <path id="패스_3109" data-name="패스 3109" d="M539.246,446.3h-8.821a.409.409,0,0,1,0-.818h8.821a.409.409,0,0,1,0,.818Z" transform="translate(-530.016 -445.48)" fill="#eed7c3"/>
                            </g>
                            <g id="그룹_1728" data-name="그룹 1728" transform="translate(1.292 1.292)">
                              <path id="패스_3110" data-name="패스 3110" d="M543,437.243a.408.408,0,0,1-.289-.12l-6.237-6.238a.409.409,0,0,1,.578-.578l6.238,6.237a.409.409,0,0,1-.289.7Z" transform="translate(-536.351 -430.188)" fill="#eed7c3"/>
                            </g>
                            <g id="그룹_1729" data-name="그룹 1729" transform="translate(1.292 1.292)">
                              <path id="패스_3111" data-name="패스 3111" d="M536.76,437.243a.409.409,0,0,1-.289-.7l6.237-6.237a.409.409,0,1,1,.578.578l-6.238,6.238A.408.408,0,0,1,536.76,437.243Z" transform="translate(-536.351 -430.188)" fill="#eed7c3"/>
                            </g>
                          </g>
                          <g id="그룹_1735" data-name="그룹 1735" transform="translate(46.375)">
                            <g id="그룹_1731" data-name="그룹 1731" transform="translate(4.41)">
                              <path id="패스_3112" data-name="패스 3112" d="M627.854,433.491a.409.409,0,0,1-.409-.409v-8.821a.409.409,0,0,1,.818,0v8.821A.409.409,0,0,1,627.854,433.491Z" transform="translate(-627.445 -423.852)" fill="#eed7c3"/>
                            </g>
                            <g id="그룹_1732" data-name="그룹 1732" transform="translate(0 4.411)">
                              <path id="패스_3113" data-name="패스 3113" d="M615.048,446.3h-8.821a.409.409,0,0,1,0-.818h8.821a.409.409,0,0,1,0,.818Z" transform="translate(-605.818 -445.48)" fill="#eed7c3"/>
                            </g>
                            <g id="그룹_1733" data-name="그룹 1733" transform="translate(1.292 1.292)">
                              <path id="패스_3114" data-name="패스 3114" d="M618.8,437.243a.408.408,0,0,1-.289-.12l-6.237-6.238a.409.409,0,0,1,.578-.578l6.237,6.237a.409.409,0,0,1-.289.7Z" transform="translate(-612.153 -430.188)" fill="#eed7c3"/>
                            </g>
                            <g id="그룹_1734" data-name="그룹 1734" transform="translate(1.292 1.292)">
                              <path id="패스_3115" data-name="패스 3115" d="M612.562,437.243a.409.409,0,0,1-.289-.7l6.237-6.237a.409.409,0,1,1,.578.578l-6.237,6.238A.408.408,0,0,1,612.562,437.243Z" transform="translate(-612.153 -430.188)" fill="#eed7c3"/>
                            </g>
                          </g>
                        </g>
                      </g>
                    </g>
                    <g id="그룹_1739" data-name="그룹 1739" transform="translate(75.688)" opacity="0.1">
                      <path id="패스_3116" data-name="패스 3116" d="M670.8,296.51v25.775a17.815,17.815,0,0,1-14.736-31.107h9.408A5.329,5.329,0,0,1,670.8,296.51Z" transform="translate(-649.771 -291.178)" fill="#632a44"/>
                    </g>
                  </g>
                  <g id="그룹_1743" data-name="그룹 1743" transform="translate(84.885)">
                    <g id="그룹_1741" data-name="그룹 1741">
                      <circle id="타원_279" data-name="타원 279" cx="17.814" cy="17.814" r="17.814" fill="#7abbbf"/>
                    </g>
                    <g id="그룹_1742" data-name="그룹 1742" transform="translate(10.513 10.478)">
                      <path id="패스_3117" data-name="패스 3117" d="M753.64,292.447a.409.409,0,0,1-.331-.169L746.5,282.89a.409.409,0,1,1,.662-.48l6.456,8.895,8.309-13.412a.409.409,0,0,1,.7.431l-8.63,13.93a.408.408,0,0,1-.333.193Z" transform="translate(-746.417 -277.698)" fill="#eed7c3"/>
                    </g>
                  </g>
                </g>
              </g>
            </g>
            <g id="그룹_1781" data-name="그룹 1781" transform="translate(155.112 76.945)">
              <g id="그룹_1753" data-name="그룹 1753">
                <g id="그룹_1751" data-name="그룹 1751">
                  <g id="그룹_1747" data-name="그룹 1747">
                    <path id="패스_3118" data-name="패스 3118" d="M1078.689,603.69c-5.437-.356-20.746.843-20.746.843l-9.595,31.678c2.876,26.109-9.957,37.172-9.072,51.333,0,0,3.042-10.288,24.151-9.867,11.234.224,21.657.361,30.951,3.955,10.457,4.044,13.476,10.211,13.476,10.211a177.131,177.131,0,0,0,.758-32.983c-1.094-14.828-3.7-50.426-3.7-50.426S1096.25,604.841,1078.689,603.69Z" transform="translate(-1039.233 -603.623)" fill="#7abbbf"/>
                  </g>
                  <g id="그룹_1750" data-name="그룹 1750" transform="translate(5.052 32.383)">
                    <g id="그룹_1749" data-name="그룹 1749">
                      <g id="그룹_1748" data-name="그룹 1748">
                        <path id="패스_3119" data-name="패스 3119" d="M1064.209,793.272a.2.2,0,0,1-.19-.281c3.2-7.952,4.593-22.378,3.845-30.351a.2.2,0,0,1,.407-.038c.751,8.02-.654,22.536-3.873,30.542A.2.2,0,0,1,1064.209,793.272Z" transform="translate(-1064.004 -762.417)" fill="#00101e"/>
                      </g>
                    </g>
                  </g>
                </g>
                <g id="그룹_1752" data-name="그룹 1752" transform="translate(14.313 28.577)">
                  <rect id="사각형_1398" data-name="사각형 1398" width="12.96" height="11.258" rx="4.998" fill="#eed7c3"/>
                </g>
              </g>
              <g id="그룹_1780" data-name="그룹 1780" transform="translate(40.658 2.205)">
                <g id="그룹_1754" data-name="그룹 1754" transform="translate(6.317 35.053)">
                  <path id="패스_3120" data-name="패스 3120" d="M1292.358,821.224c-14.732-14.867-22.778-34.905-22.778-34.905l14.024.294,7.981,12.262c.147,2,.282,3.831.4,5.422C1292.436,810.414,1292.485,816.228,1292.358,821.224Z" transform="translate(-1269.58 -786.319)" fill="#599dab"/>
                </g>
                <g id="그룹_1778" data-name="그룹 1778" transform="translate(0 2.435)">
                  <g id="그룹_1756" data-name="그룹 1756" transform="translate(20.018)">
                    <g id="그룹_1755" data-name="그룹 1755">
                      <path id="패스_3121" data-name="패스 3121" d="M1341.232,626.374c1.541.345,9.866,4.045,12.754,10.288,3.355,7.253,9.227,24.371,9.227,24.371-6.6-1.273-13.219.96-19.839,4.118l-6.612-28.2Z" transform="translate(-1336.762 -626.374)" fill="#7abbbf"/>
                    </g>
                  </g>
                  <g id="그룹_1771" data-name="그룹 1771" transform="translate(0 5.52)">
                    <g id="그룹_1757" data-name="그룹 1757" transform="translate(18.365 8.734)">
                      <path id="패스_3122" data-name="패스 3122" d="M1340.121,714.289a36.216,36.216,0,0,0-3.162-12.654c-1.3-2.6-7.244-5.364-7.244-5.364l-1.058,9.669Z" transform="translate(-1328.656 -696.272)" fill="#f99173"/>
                    </g>
                    <g id="그룹_1760" data-name="그룹 1760" transform="translate(1.89)">
                      <g id="그룹_1758" data-name="그룹 1758">
                        <path id="패스_3123" data-name="패스 3123" d="M1269.088,681.848l-15.834,2.627a.8.8,0,0,1-.925-.662l-4.447-26.8a.8.8,0,0,1,.662-.926l15.834-2.627a.8.8,0,0,1,.926.662l4.447,26.805A.8.8,0,0,1,1269.088,681.848Z" transform="translate(-1247.87 -653.444)" fill="#f04230"/>
                      </g>
                      <g id="그룹_1759" data-name="그룹 1759" transform="translate(0.122 1.092)">
                        <path id="패스_3124" data-name="패스 3124" d="M1258.322,658.8c-.382,6.659-5.3,9.334-8.653,10.384l-1.182-7.11a1.623,1.623,0,0,1,1.333-1.863Z" transform="translate(-1248.466 -658.799)" fill="#ff5e47"/>
                      </g>
                    </g>
                    <g id="그룹_1770" data-name="그룹 1770" transform="translate(0 13.3)">
                      <g id="그룹_1769" data-name="그룹 1769">
                        <g id="그룹_1768" data-name="그룹 1768">
                          <g id="그룹_1761" data-name="그룹 1761" transform="translate(3.1 1.609)">
                            <path id="패스_3125" data-name="패스 3125" d="M1262.155,736.392l10.026-9.843c2.178.594,4.142,6.343,5.28,9.814,0,0-3.289,4.992-8.538,5.313s-13.894-2.475-15.066-5.265C1253.015,734.406,1262.155,736.392,1262.155,736.392Z" transform="translate(-1253.802 -726.549)" fill="#f99173"/>
                          </g>
                          <g id="그룹_1762" data-name="그룹 1762" transform="translate(2.027)">
                            <path id="패스_3126" data-name="패스 3126" d="M1269.63,720.227s-9.773-1.262-11.352-1.421-9.038-.469-9.664.907c-.77,1.694,5.079,3.16,7.671,3.845,2.315.611,10.2,3.33,10.2,3.33C1270.929,726.649,1269.63,720.227,1269.63,720.227Z" transform="translate(-1248.545 -718.661)" fill="#f99173"/>
                          </g>
                          <g id="그룹_1763" data-name="그룹 1763" transform="translate(0 2.801)">
                            <path id="패스_3127" data-name="패스 3127" d="M1257.955,736.522s-8.1-1.983-9.659-2.275-8.785-2.9-9.608-1.373c-.881,1.639,5.365,4.62,7.494,5.715s9.6,4.406,9.6,4.406Z" transform="translate(-1238.604 -732.397)" fill="#f99173"/>
                          </g>
                          <g id="그룹_1764" data-name="그룹 1764" transform="translate(1.358 7.189)">
                            <path id="패스_3128" data-name="패스 3128" d="M1264.88,754.019s-8.338-.085-9.924-.013-9.247-.6-9.667.854c-.518,1.787,6.059,3.555,8.382,4.136s10.572,1.821,10.572,1.821Z" transform="translate(-1245.26 -753.913)" fill="#f99173"/>
                          </g>
                          <g id="그룹_1765" data-name="그룹 1765" transform="translate(3.758 2.909)">
                            <path id="패스_3129" data-name="패스 3129" d="M1269.7,736.344l-.024,0a68.5,68.5,0,0,1-12.508-3.019.2.2,0,1,1,.145-.382,68.021,68.021,0,0,0,12.411,3,.2.2,0,0,1-.024.407Z" transform="translate(-1257.032 -732.928)" fill="#00101e"/>
                          </g>
                          <g id="그룹_1766" data-name="그룹 1766" transform="translate(3.4 6.846)">
                            <path id="패스_3130" data-name="패스 3130" d="M1267.6,755.783l-.026,0a53.2,53.2,0,0,1-12.172-3.156.2.2,0,1,1,.146-.382,52.764,52.764,0,0,0,12.078,3.132.2.2,0,0,1-.026.407Z" transform="translate(-1255.274 -752.23)" fill="#00101e"/>
                          </g>
                          <g id="그룹_1767" data-name="그룹 1767" transform="translate(3.981 10.317)">
                            <path id="패스_3131" data-name="패스 3131" d="M1267.963,772.215a.182.182,0,0,1-.04,0,79.706,79.706,0,0,1-9.658-2.56.2.2,0,1,1,.129-.388A79.3,79.3,0,0,0,1268,771.81a.2.2,0,0,1-.039.4Z" transform="translate(-1258.125 -769.252)" fill="#00101e"/>
                          </g>
                        </g>
                      </g>
                    </g>
                  </g>
                  <g id="그룹_1777" data-name="그룹 1777" transform="translate(16.901 28.886)">
                    <g id="그룹_1772" data-name="그룹 1772">
                      <path id="패스_3132" data-name="패스 3132" d="M1351.048,773.794a24.632,24.632,0,0,0-11.951.956l-.053.041-.021-.021-6.942-6.749-2.839,1.5-7.762,4.095s7.655,14.993,13.079,23.712,12.542,16.3,17.018,16.184,8.647-2.162,9.322-7.16C1361.731,800.184,1355.154,783.168,1351.048,773.794Z" transform="translate(-1321.479 -768.021)" fill="#f99173"/>
                    </g>
                    <g id="그룹_1773" data-name="그룹 1773" transform="translate(17.609 5.409)">
                      <path id="패스_3133" data-name="패스 3133" d="M1417.4,808.148a91.555,91.555,0,0,0-9.572-12.275l.008-.008a24.633,24.633,0,0,1,11.951-.956c.431.985.89,2.051,1.366,3.184C1416.643,800.685,1417.4,808.148,1417.4,808.148Z" transform="translate(-1407.826 -794.545)" fill="#f47b5a"/>
                    </g>
                    <g id="그룹_1774" data-name="그룹 1774" transform="translate(12.749 2.015)">
                      <path id="패스_3134" data-name="패스 3134" d="M1399.542,796.605a.2.2,0,0,1-.168-.088c-5.7-8.2-10.7-14.17-15.309-18.26a.2.2,0,1,1,.272-.306c4.63,4.112,9.658,10.109,15.373,18.333a.2.2,0,0,1-.051.284A.2.2,0,0,1,1399.542,796.605Z" transform="translate(-1383.996 -777.9)" fill="#00101e"/>
                    </g>
                    <g id="그룹_1775" data-name="그룹 1775" transform="translate(7.016 18.799)">
                      <path id="패스_3135" data-name="패스 3135" d="M1388.285,879.731c-.677,5-4.841,7.04-9.322,7.159s-11.6-7.463-17.018-16.185c-1.891-3.036-4.054-6.839-6.064-10.5,5.8,6.626,17.9,17.982,32.457,17.621A10.526,10.526,0,0,1,1388.285,879.731Z" transform="translate(-1355.881 -860.202)" fill="#f47b5a"/>
                    </g>
                    <g id="그룹_1776" data-name="그룹 1776" transform="translate(27.99 41.528)">
                      <path id="패스_3136" data-name="패스 3136" d="M1458.933,973.077a.2.2,0,0,1-.042-.4l4.831-1.011a.2.2,0,0,1,.084.4l-4.831,1.011A.188.188,0,0,1,1458.933,973.077Z" transform="translate(-1458.729 -971.656)" fill="#00101e"/>
                    </g>
                  </g>
                </g>
                <g id="그룹_1779" data-name="그룹 1779" transform="translate(15.459)">
                  <path id="패스_3137" data-name="패스 3137" d="M1345.419,651.528a21.063,21.063,0,0,0-5.728-.286c-8.231-25.53-21.818-34.8-25.281-36.807a60.415,60.415,0,0,1,9.38,2.535c2.179.7,9.69,4.322,12.4,10.189C1339.548,634.413,1345.419,651.528,1345.419,651.528Z" transform="translate(-1314.41 -614.435)" fill="#599dab"/>
                </g>
              </g>
            </g>
            <g id="그룹_1818" data-name="그룹 1818" transform="translate(173.601 29.712)">
              <g id="그룹_1783" data-name="그룹 1783">
                <g id="그룹_1782" data-name="그룹 1782">
                  <path id="패스_3138" data-name="패스 3138" d="M1142.187,408.4a34.1,34.1,0,0,1-8.167-8,23.841,23.841,0,0,1-4.111-13.253c-.223-5.6,2.359-10.749,8.183-13.154,4-1.65,8.939-.351,8.939-.351s2.029-2.527,8.53-1.285c8.286,1.582,9.438,10.268,9.77,16.41.305,5.646-2.227,15.149-7.965,17.361Z" transform="translate(-1129.896 -372.013)" fill="#222654"/>
                </g>
              </g>
              <g id="그룹_1784" data-name="그룹 1784" transform="translate(1.171 18.384)">
                <path id="패스_3139" data-name="패스 3139" d="M1142.4,466.618c.743,2.623.763,5.188-.988,5.684s-4.736-1.406-5.478-4.029-.041-5.549,1.711-6.045S1141.656,463.995,1142.4,466.618Z" transform="translate(-1135.639 -462.159)" fill="#f47b5a"/>
              </g>
              <g id="그룹_1790" data-name="그룹 1790" transform="translate(7.988 27.719)">
                <g id="그룹_1788" data-name="그룹 1788" transform="translate(3.229)">
                  <g id="그룹_1787" data-name="그룹 1787">
                    <g id="그룹_1785" data-name="그룹 1785" transform="translate(0.002 0.001)">
                      <path id="패스_3140" data-name="패스 3140" d="M1184.906,530.593l18.8-.45-1.868-22.207h-16.935Z" transform="translate(-1184.906 -507.936)" fill="#f99173"/>
                    </g>
                    <g id="그룹_1786" data-name="그룹 1786">
                      <path id="패스_3141" data-name="패스 3141" d="M1184.9,510v11.03c6.974,4.026,14.89,1.73,18.083.5l-1.147-13.6S1185.637,509.271,1184.9,510Z" transform="translate(-1184.897 -507.933)" fill="#f47b5a"/>
                    </g>
                  </g>
                </g>
                <g id="그룹_1789" data-name="그룹 1789" transform="translate(0 19.516)">
                  <path id="패스_3142" data-name="패스 3142" d="M1194.632,605.094a17.965,17.965,0,0,1-13.494,5.842,14.335,14.335,0,0,1-12.074-6.917c4.632-.271,10.146-.5,12.981-.32C1186.927,604.019,1191.12,604.528,1194.632,605.094Z" transform="translate(-1169.064 -603.633)" fill="#f99173"/>
                </g>
              </g>
              <g id="그룹_1817" data-name="그룹 1817" transform="translate(4.316 4.163)">
                <g id="그룹_1816" data-name="그룹 1816">
                  <g id="그룹_1792" data-name="그룹 1792" transform="translate(0.208 1.302)">
                    <g id="그룹_1791" data-name="그룹 1791">
                      <path id="패스_3143" data-name="패스 3143" d="M1152.184,415.531c.909,9.192,7.474,17.28,14.168,16.618s10.981-9.823,10.072-19.015-6.67-14.932-13.364-14.271S1151.275,406.339,1152.184,415.531Z" transform="translate(-1152.079 -398.811)" fill="#f99173"/>
                    </g>
                  </g>
                  <g id="그룹_1794" data-name="그룹 1794" transform="translate(9.872 21.866)">
                    <g id="그룹_1793" data-name="그룹 1793">
                      <path id="패스_3144" data-name="패스 3144" d="M1203.3,512.665a8.938,8.938,0,0,1-3.715-.842.2.2,0,1,1,.169-.372,8.34,8.34,0,0,0,4.3.768c4.671-.46,8.568-5.443,9.7-12.4a.2.2,0,0,1,.235-.169.2.2,0,0,1,.169.234c-1.159,7.141-5.2,12.261-10.06,12.74Q1203.7,512.665,1203.3,512.665Z" transform="translate(-1199.467 -499.649)" fill="#222654"/>
                    </g>
                  </g>
                  <g id="그룹_1799" data-name="그룹 1799" transform="translate(21.008 12.164)">
                    <g id="그룹_1795" data-name="그룹 1795">
                      <path id="패스_3145" data-name="패스 3145" d="M1254.335,457.016c-.537,2.751-.339,5.381,1.5,5.739s4.732-1.844,5.269-4.6-.432-5.689-2.268-6.048S1254.872,454.265,1254.335,457.016Z" transform="translate(-1254.075 -452.078)" fill="#f99173"/>
                    </g>
                    <g id="그룹_1798" data-name="그룹 1798" transform="translate(2.832 2.292)">
                      <g id="그룹_1796" data-name="그룹 1796">
                        <path id="패스_3146" data-name="패스 3146" d="M1268.167,468.2h-.023a.2.2,0,0,1-.181-.226,6.8,6.8,0,0,1,2.392-4.608.2.2,0,1,1,.263.313,6.4,6.4,0,0,0-2.249,4.341A.2.2,0,0,1,1268.167,468.2Z" transform="translate(-1267.962 -463.318)" fill="#00101e"/>
                      </g>
                      <g id="그룹_1797" data-name="그룹 1797" transform="translate(0.58 2.371)">
                        <path id="패스_3147" data-name="패스 3147" d="M1272.917,475.484a.212.212,0,0,1-.049-.006,3.783,3.783,0,0,0-1.816-.031.2.2,0,0,1-.085-.4,4.221,4.221,0,0,1,2,.034.2.2,0,0,1-.048.4Z" transform="translate(-1270.805 -474.944)" fill="#00101e"/>
                      </g>
                    </g>
                  </g>
                  <g id="그룹_1800" data-name="그룹 1800">
                    <path id="패스_3148" data-name="패스 3148" d="M1151.076,406.536c3.074-8.352,17.195-6.219,16.687-13.736,0,0-8.722-2.089-13.873,3.645C1150.687,400.009,1151.076,406.536,1151.076,406.536Z" transform="translate(-1151.061 -392.429)" fill="#222654"/>
                  </g>
                  <g id="그룹_1815" data-name="그룹 1815" transform="translate(2.019 10.328)">
                    <g id="그룹_1811" data-name="그룹 1811">
                      <g id="그룹_1807" data-name="그룹 1807">
                        <g id="그룹_1806" data-name="그룹 1806">
                          <g id="그룹_1801" data-name="그룹 1801" transform="translate(7.839 5.851)">
                            <path id="패스_3149" data-name="패스 3149" d="M1201.018,477.739a2.354,2.354,0,0,1-1.227-.26.807.807,0,0,1-.378-.545c-.157-.853,1.584-4.624,1.784-5.051a.2.2,0,1,1,.37.173c-.731,1.568-1.853,4.258-1.752,4.8a.4.4,0,0,0,.2.276c.607.39,2.266.094,2.853-.053a.2.2,0,0,1,.1.4A9.025,9.025,0,0,1,1201.018,477.739Z" transform="translate(-1199.404 -471.764)" fill="#00101e"/>
                          </g>
                          <g id="그룹_1805" data-name="그룹 1805">
                            <g id="그룹_1804" data-name="그룹 1804">
                              <g id="그룹_1802" data-name="그룹 1802" transform="translate(11.274)">
                                <path id="패스_3150" data-name="패스 3150" d="M1223.316,445.334s-1.48-2.282-3.675-2.261c-2.179.021-3.576,1.209-3.379,1.883s2.374-.357,3.529-.406A11.926,11.926,0,0,1,1223.316,445.334Z" transform="translate(-1216.244 -443.072)" fill="#222654"/>
                              </g>
                              <g id="그룹_1803" data-name="그룹 1803" transform="translate(0 2.03)">
                                <path id="패스_3151" data-name="패스 3151" d="M1160.963,456.383s.816-2.6,2.937-3.162c2.105-.562,3.769.209,3.76.911s-2.383.291-3.509.552A11.93,11.93,0,0,0,1160.963,456.383Z" transform="translate(-1160.963 -453.027)" fill="#222654"/>
                              </g>
                            </g>
                          </g>
                        </g>
                      </g>
                      <g id="그룹_1810" data-name="그룹 1810" transform="translate(3.261 4.103)">
                        <g id="그룹_1808" data-name="그룹 1808" transform="translate(0 0.938)">
                          <path id="패스_3152" data-name="패스 3152" d="M1176.955,469.177c.031.744.467,1.331.974,1.31s.892-.642.861-1.386-.467-1.331-.974-1.31S1176.924,468.432,1176.955,469.177Z" transform="translate(-1176.953 -467.79)" fill="#000204"/>
                        </g>
                        <g id="그룹_1809" data-name="그룹 1809" transform="translate(10.368)">
                          <path id="패스_3153" data-name="패스 3153" d="M1227.793,464.577c.031.744.467,1.331.973,1.31s.892-.642.862-1.386-.467-1.331-.974-1.309S1227.762,463.832,1227.793,464.577Z" transform="translate(-1227.792 -463.19)" fill="#000204"/>
                        </g>
                      </g>
                    </g>
                    <g id="그룹_1813" data-name="그룹 1813" transform="translate(6.849 12.408)">
                      <g id="그룹_1812" data-name="그룹 1812">
                        <path id="패스_3154" data-name="패스 3154" d="M1194.546,506.261a18.67,18.67,0,0,0,5.433-.17,13.848,13.848,0,0,0,4.6-2.172s-.77,4.156-4.264,4.623A6.356,6.356,0,0,1,1194.546,506.261Z" transform="translate(-1194.546 -503.918)" fill="#eed7c3"/>
                      </g>
                    </g>
                    <g id="그룹_1814" data-name="그룹 1814" transform="translate(16.086 11.794)">
                      <path id="패스_3155" data-name="패스 3155" d="M1241.181,502.359a.2.2,0,0,1-.188-.124,1.6,1.6,0,0,0-1-.925.2.2,0,0,1,.1-.4,2.006,2.006,0,0,1,1.275,1.161.2.2,0,0,1-.188.285Z" transform="translate(-1239.842 -500.907)" fill="#00101e"/>
                    </g>
                  </g>
                </g>
              </g>
            </g>
          </g>
        </g>
      </g>
    </g>
  </g>
</svg>
