<svg xmlns="http://www.w3.org/2000/svg" xmlns:xlink="http://www.w3.org/1999/xlink" width="400" height="177.77" viewBox="0 0 400 177.77">
  <defs>
    <clipPath id="clip-path">
      <circle id="타원_267" data-name="타원 267" cx="18.081" cy="18.081" r="18.081" fill="#e9e8ed"/>
    </clipPath>
    <clipPath id="clip-path-2">
      <path id="패스_2893" data-name="패스 2893" d="M945.448,890.637a24.4,24.4,0,0,0-7.223-4.6,85.21,85.21,0,0,0-22.014-3.874,133.218,133.218,0,0,0-24.48,1.937s-8.55.619-13.063,7.689-13.989,29.031-13.989,29.031,3.208,17.5,16.544,21.906L875.5,979.7h57.727s2.564-30.876,4.354-53.317l9.031,10.567s16.744-5.364,21.133-16.419C967.744,920.528,948.7,893.732,945.448,890.637Z" transform="translate(-864.679 -882.132)" fill="none"/>
    </clipPath>
  </defs>
  <g id="그룹_2122" data-name="그룹 2122" transform="translate(-771.5 -197.317)">
    <line id="선_496" data-name="선 496" x2="400" transform="translate(771.5 368.317)" fill="none" stroke="#dfdfdf" stroke-width="1"/>
    <g id="그룹_1273" data-name="그룹 1273" transform="translate(626.471 -55.339)">
      <g id="그룹_1269" data-name="그룹 1269" transform="translate(253.529 253.156)">
        <g id="그룹_1195" data-name="그룹 1195" transform="translate(0)">
          <g id="그룹_1194" data-name="그룹 1194">
            <g id="그룹_1171" data-name="그룹 1171">
              <g id="그룹_1166" data-name="그룹 1166">
                <rect id="사각형_1381" data-name="사각형 1381" width="77.87" height="133.009" rx="4" fill="#431623" stroke="#707070" stroke-width="1"/>
              </g>
              <g id="그룹_1167" data-name="그룹 1167" transform="translate(4.134 5.818)">
                <rect id="사각형_1382" data-name="사각형 1382" width="70.436" height="121.373" fill="#9bd3eb"/>
              </g>
              <g id="그룹_1170" data-name="그룹 1170" transform="translate(4.134 5.819)">
                <g id="그룹_1168" data-name="그룹 1168" transform="translate(0 64.688)">
                  <path id="패스_2861" data-name="패스 2861" d="M353.423,861.233v56.683H282.988V906.53Z" transform="translate(-282.988 -861.233)" fill="#6eb7e6"/>
                </g>
                <g id="그룹_1169" data-name="그룹 1169" transform="translate(0.001)">
                  <path id="패스_2862" data-name="패스 2862" d="M322.1,303.343,283,328.49V303.343Z" transform="translate(-282.995 -303.343)" fill="#6eb7e6"/>
                </g>
              </g>
            </g>
            <g id="그룹_1172" data-name="그룹 1172" transform="translate(25.232 3.61)">
              <path id="패스_2863" data-name="패스 2863" d="M491.183,290.378H466.947a1.3,1.3,0,0,1-1.283-1.111l-.719-4.975h28.24l-.719,4.975A1.3,1.3,0,0,1,491.183,290.378Z" transform="translate(-464.945 -284.292)" fill="#431623"/>
            </g>
            <g id="그룹_1193" data-name="그룹 1193" transform="translate(12.141 19.06)">
              <g id="그룹_1174" data-name="그룹 1174" transform="translate(0 40.531)">
                <rect id="사각형_1383" data-name="사각형 1383" width="54.421" height="6.476" rx="3.238" fill="#d6c31e"/>
                <g id="그룹_1173" data-name="그룹 1173" transform="translate(5.679 2.756)">
                  <path id="패스_2864" data-name="패스 2864" d="M443.5,792.033H401.612a.588.588,0,0,1,0-1.177H443.5a.588.588,0,1,1,0,1.177Z" transform="translate(-401.024 -790.856)" fill="#fff7f7"/>
                </g>
              </g>
              <g id="그룹_1192" data-name="그룹 1192" transform="translate(9.13)">
                <g id="그룹_1191" data-name="그룹 1191">
                  <circle id="타원_265" data-name="타원 265" cx="18.081" cy="18.081" r="18.081" fill="#e9e8ed"/>
                  <g id="그룹_1190" data-name="그룹 1190" clip-path="url(#clip-path)">
                    <g id="그룹_1189" data-name="그룹 1189" transform="translate(4.239 2.335)">
                      <g id="그룹_1175" data-name="그룹 1175" transform="translate(6.238 23.501)">
                        <path id="패스_2865" data-name="패스 2865" d="M532.941,654.706l-11.8.154,1.969-14.348,11.8-.154Z" transform="translate(-521.143 -640.358)" fill="#fba565"/>
                      </g>
                      <g id="그룹_1176" data-name="그룹 1176" transform="translate(9.568 23.502)">
                        <path id="패스_2866" data-name="패스 2866" d="M549.863,640.474c0,.008.008.017.013.027.87,1.78,3.658,6.493,9.313,7.959l1.111-8.093-.519.005Z" transform="translate(-549.863 -640.366)" fill="#e56f19"/>
                      </g>
                      <g id="그룹_1177" data-name="그룹 1177">
                        <path id="패스_2867" data-name="패스 2867" d="M486.455,442.44s1.61-2.415-.313-3.936-4.875-.8-6.887.939-1.968,3.354-1.968,3.354,1.208-3-.537-3.175-3.22,3.175-3.444,4.785c0,0-1.044-3.342-4.008-.617-2.714,2.5-2.438,8.421-.2,9.114-1.15,1-1.6,4.418,1.277,7.143,2.389,2.265,3.509.818,3.509.818s1.029,2.773,2.818,2.773a2.9,2.9,0,0,0,2.5-1.789Z" transform="translate(-467.342 -437.673)" fill="#431623"/>
                      </g>
                      <g id="그룹_1178" data-name="그룹 1178" transform="translate(7.213 4.793)">
                        <path id="패스_2868" data-name="패스 2868" d="M545.167,490.128c1.656,6.819,1.529,12.155-1.4,12.623-3.709.591-12.18-3.313-13.837-10.132s2.5-12.625,6.151-13.512S543.511,483.308,545.167,490.128Z" transform="translate(-529.552 -479.006)" fill="#fba565"/>
                      </g>
                      <g id="그룹_1179" data-name="그룹 1179" transform="translate(17.725 15.29)">
                        <path id="패스_2869" data-name="패스 2869" d="M621.762,574.767a.1.1,0,0,1-.08-.155c.005-.007.494-.7.423-1.133a1.405,1.405,0,0,0-.368-.635c-.157-.2-.353-.445-.6-.82a8.361,8.361,0,0,1-.922-2.365.1.1,0,1,1,.191-.042,8.335,8.335,0,0,0,.895,2.3c.241.368.434.61.589.806a1.554,1.554,0,0,1,.408.725,2.293,2.293,0,0,1-.456,1.278A.1.1,0,0,1,621.762,574.767Z" transform="translate(-620.213 -569.541)" fill="#431623"/>
                      </g>
                      <g id="그룹_1180" data-name="그룹 1180" transform="translate(19.747 14.694)">
                        <path id="패스_2870" data-name="패스 2870" d="M638.543,564.98c.091.374-.03.724-.27.782s-.508-.2-.6-.572.03-.724.27-.782S638.452,564.606,638.543,564.98Z" transform="translate(-637.644 -564.4)" fill="#431623"/>
                      </g>
                      <g id="그룹_1181" data-name="그룹 1181" transform="translate(14.008 15.796)">
                        <path id="패스_2871" data-name="패스 2871" d="M589.054,574.482c.091.374-.03.724-.27.782s-.508-.2-.6-.572.03-.724.27-.782S588.963,574.108,589.054,574.482Z" transform="translate(-588.155 -573.902)" fill="#431623"/>
                      </g>
                      <g id="그룹_1182" data-name="그룹 1182" transform="translate(11.589 12.934)">
                        <path id="패스_2872" data-name="패스 2872" d="M570.536,549.221c.376.046.422.661.278.821s-1.521.495-2.05.905a5.564,5.564,0,0,0-1.475,1.329,7.2,7.2,0,0,1,.677-2.014A4.251,4.251,0,0,1,570.536,549.221Z" transform="translate(-567.289 -549.217)" fill="#431623"/>
                      </g>
                      <g id="그룹_1183" data-name="그룹 1183" transform="translate(18.813 11.84)">
                        <path id="패스_2873" data-name="패스 2873" d="M629.654,540.671c.1.471.971.167,1.531.226a2.738,2.738,0,0,1,1.741.5,2.312,2.312,0,0,0-.328-.945,2.4,2.4,0,0,0-1.461-.653,3.69,3.69,0,0,0-1.385.129C629.519,540.031,629.6,540.432,629.654,540.671Z" transform="translate(-629.596 -539.788)" fill="#431623"/>
                      </g>
                      <g id="그룹_1184" data-name="그룹 1184" transform="translate(6.818 4.31)">
                        <path id="패스_2874" data-name="패스 2874" d="M542.08,478.669c-.274-1.37-.963-3.983-4.52-3.592l-4.691-.235s-3.674,1.681-5.355,3.87-1.573,7.007-.948,8.453c2.426-.709,4.031-3.029,4.661-6.812,0,0,1.446,2.424,3.518,2.033a1.92,1.92,0,0,0,1.564-2.423s2.685,2.482,4.847,1.759C542.552,481.255,542.233,479.435,542.08,478.669Z" transform="translate(-526.145 -474.842)" fill="#431623"/>
                      </g>
                      <g id="그룹_1185" data-name="그룹 1185" transform="translate(15.268 21.387)">
                        <path id="패스_2875" data-name="패스 2875" d="M602.611,623.456a5.957,5.957,0,0,1-3.557-1.156.1.1,0,1,1,.119-.156c1.864,1.427,4.84,1.5,6.244.159a.1.1,0,1,1,.136.142A4.253,4.253,0,0,1,602.611,623.456Z" transform="translate(-599.016 -622.124)" fill="#431623"/>
                      </g>
                      <g id="그룹_1188" data-name="그룹 1188" transform="translate(4.697 15.535)">
                        <g id="그룹_1186" data-name="그룹 1186" transform="translate(0 0)">
                          <ellipse id="타원_266" data-name="타원 266" cx="2.008" cy="3.152" rx="2.008" ry="3.152" transform="translate(0 2.295) rotate(-34.859)" fill="#fba565"/>
                        </g>
                        <g id="그룹_1187" data-name="그룹 1187" transform="translate(2.143 2.199)">
                          <path id="패스_2876" data-name="패스 2876" d="M528.3,593.5a.1.1,0,0,1-.093-.068s-.181-.494-1.1-.725a.74.74,0,0,1-.626-1.033,1.639,1.639,0,0,0-.124-.919.1.1,0,0,1,.177-.084,1.812,1.812,0,0,1,.139,1.046c-.095.427-.046.668.482.8,1.038.26,1.235.83,1.243.854a.1.1,0,0,1-.093.129Z" transform="translate(-526.339 -590.619)" fill="#431623"/>
                        </g>
                      </g>
                    </g>
                  </g>
                </g>
              </g>
            </g>
          </g>
        </g>
        <g id="그룹_1198" data-name="그룹 1198" transform="translate(6.715 138.043)">
          <g id="그룹_1196" data-name="그룹 1196">
            <path id="패스_2877" data-name="패스 2877" d="M305.344,1457.554a.1.1,0,0,1-.053-.18l21.255-13.669a.1.1,0,1,1,.106.165L305.4,1457.539A.1.1,0,0,1,305.344,1457.554Z" transform="translate(-305.246 -1443.689)" fill="#431623"/>
          </g>
          <g id="그룹_1197" data-name="그룹 1197" transform="translate(6.629 5.691)">
            <path id="패스_2878" data-name="패스 2878" d="M362.516,1502.437a.1.1,0,0,1-.053-.181l14.727-9.471a.1.1,0,1,1,.106.165l-14.727,9.471A.1.1,0,0,1,362.516,1502.437Z" transform="translate(-362.418 -1492.77)" fill="#431623"/>
          </g>
        </g>
        <g id="그룹_1268" data-name="그룹 1268" transform="translate(21.477 27.031)">
          <g id="그룹_1199" data-name="그룹 1199" transform="translate(131.255 35.036)">
            <circle id="타원_268" data-name="타원 268" cx="7.745" cy="7.745" r="7.745" transform="translate(0 15.29) rotate(-80.783)" fill="#9d82f0"/>
          </g>
          <g id="그룹_1267" data-name="그룹 1267">
            <rect id="사각형_1384" data-name="사각형 1384" width="54.176" height="17.375" rx="8.688" transform="translate(20.059 126.09)" fill="#ff5e42"/>
            <g id="그룹_1266" data-name="그룹 1266">
              <g id="그룹_1211" data-name="그룹 1211" transform="translate(0 53.642)">
                <g id="그룹_1200" data-name="그룹 1200" transform="translate(15.103 11.952)">
                  <path id="패스_2879" data-name="패스 2879" d="M606.67,1053.758,591.7,1086.075l-16.752-34.088-12.137,4.236s5.293,16.131,7.687,22.647c2.621,7.135,7.738,20.053,10.827,24.384,3.357,4.706,10.467,5.7,14.118,4.422,6.348-2.217,20.06-18.843,25-25.854S614.828,1059.308,606.67,1053.758Z" transform="translate(-562.813 -1051.987)" fill="#fba565"/>
                </g>
                <g id="그룹_1210" data-name="그룹 1210">
                  <g id="그룹_1201" data-name="그룹 1201" transform="translate(1.846)">
                    <path id="패스_2880" data-name="패스 2880" d="M474.966,965.614s-.171-5.135-2.138-6.424c-3.268-2.142-6.908-3.26-12.364-5.738-5.326-2.418-10.5-5.156-11.607-4.422-1.73,1.142,2.9,4.555,5.262,6.046,3.189,2.015,6.654,3.55,7.163,4.5s1.594,7.539,1.594,7.539Z" transform="translate(-448.478 -948.908)" fill="#fba565"/>
                  </g>
                  <g id="그룹_1202" data-name="그룹 1202" transform="translate(17.53 0.712)">
                    <path id="패스_2881" data-name="패스 2881" d="M594.489,971.477s.264-6.047-2.069-9.929c-1.9-3.159-7.627-6.933-8.172-6.461-1.772,1.535,1.69,3.985,2.008,5.031.563,1.371.02,1.831-2.217,1.352Z" transform="translate(-583.746 -955.047)" fill="#fba565"/>
                  </g>
                  <g id="그룹_1203" data-name="그룹 1203" transform="translate(0 0.46)">
                    <path id="패스_2882" data-name="패스 2882" d="M447.8,965.765s-3.575-1.833-7.961-4.222c-4.924-2.683-8.092-7.841-7.1-8.519,1.444-.984,5.294,3.134,8.119,4.992s9.539,3.348,9.539,3.348Z" transform="translate(-432.56 -952.875)" fill="#fba565"/>
                  </g>
                  <g id="그룹_1204" data-name="그룹 1204" transform="translate(1.178 4.407)">
                    <path id="패스_2883" data-name="패스 2883" d="M457.371,997.8s-6.924-1.861-9.719-3.96-5.694-5.954-4.755-6.789,4.352,2.361,6.522,3.734c3.256,2.062,9.5,2.931,9.5,2.931Z" transform="translate(-442.717 -986.915)" fill="#fba565"/>
                  </g>
                  <g id="그룹_1205" data-name="그룹 1205" transform="translate(2.038 7.261)">
                    <path id="패스_2884" data-name="패스 2884" d="M455.543,1014.491c2.4,1.674,9.439,3.916,9.439,3.916l-.663,3.616a54.9,54.9,0,0,1-9.857-4.77c-3.6-2.484-4.8-4.826-4.167-5.614S455.543,1014.491,455.543,1014.491Z" transform="translate(-450.132 -1011.528)" fill="#fba565"/>
                  </g>
                  <g id="그룹_1206" data-name="그룹 1206" transform="translate(1.701 0.816)">
                    <path id="패스_2885" data-name="패스 2885" d="M457.522,962.777a.1.1,0,0,1-.042-.01,40.391,40.391,0,0,1-10.223-6.656.1.1,0,1,1,.134-.143,40.2,40.2,0,0,0,10.174,6.622.1.1,0,0,1-.042.187Z" transform="translate(-447.226 -955.942)" fill="#431623"/>
                  </g>
                  <g id="그룹_1207" data-name="그룹 1207" transform="translate(1.638 4.329)">
                    <path id="패스_2886" data-name="패스 2886" d="M456.441,992.308a.1.1,0,0,1-.032-.005,24.272,24.272,0,0,1-9.693-5.893.1.1,0,0,1,.141-.136,24.08,24.08,0,0,0,9.616,5.844.1.1,0,0,1-.032.191Z" transform="translate(-446.689 -986.243)" fill="#431623"/>
                  </g>
                  <g id="그룹_1208" data-name="그룹 1208" transform="translate(2.102 7.274)">
                    <path id="패스_2887" data-name="패스 2887" d="M458.355,1016.744a.1.1,0,0,1-.039-.008,28.8,28.8,0,0,1-7.6-4.921.1.1,0,0,1,.129-.148,28.608,28.608,0,0,0,7.544,4.888.1.1,0,0,1-.038.188Z" transform="translate(-450.687 -1011.643)" fill="#431623"/>
                  </g>
                  <g id="그룹_1209" data-name="그룹 1209" transform="translate(12.03 15.977)">
                    <path id="패스_2888" data-name="패스 2888" d="M541.363,1088.791a.1.1,0,0,1-.026,0,33.35,33.35,0,0,1-4.965-1.9.1.1,0,1,1,.082-.178,33.2,33.2,0,0,0,4.936,1.893.1.1,0,0,1-.026.192Z" transform="translate(-536.314 -1086.697)" fill="#431623"/>
                  </g>
                </g>
              </g>
              <g id="그룹_1212" data-name="그룹 1212" transform="translate(110.702 59.961)">
                <path id="패스_2889" data-name="패스 2889" d="M1387.294,1016.129s10.722,12.172,18.19,18.828a74.384,74.384,0,0,1,10.69,11.329l-22.214,24.22,8.112,11.185s14.033-10.053,18.921-14.523c5.609-5.13,14.751-11.3,16.671-16.262,1.207-3.117.906-7.942-2.25-12.887-1.97-3.086-23.909-34.612-23.909-34.612S1389.809,1006.587,1387.294,1016.129Z" transform="translate(-1387.294 -1003.407)" fill="#fba565"/>
              </g>
              <g id="그룹_1228" data-name="그룹 1228" transform="translate(50.105 45.9)">
                <g id="그룹_1216" data-name="그룹 1216">
                  <g id="그룹_1213" data-name="그룹 1213" transform="translate(0 1.964)">
                    <path id="패스_2890" data-name="패스 2890" d="M891.731,899.068s-8.55.619-13.063,7.689-13.989,29.031-13.989,29.031,3.61,19.705,19.1,22.563Z" transform="translate(-864.679 -899.068)" fill="#d6c31e"/>
                  </g>
                  <g id="그룹_1214" data-name="그룹 1214" transform="translate(10.819)">
                    <path id="패스_2891" data-name="패스 2891" d="M974.219,884.1a133.218,133.218,0,0,1,24.48-1.937,85.211,85.211,0,0,1,22.014,3.874s1.891,6.151.865,20.767-5.865,72.9-5.865,72.9H957.986l9.917-64.052Z" transform="translate(-957.986 -882.132)" fill="#d6c31e"/>
                  </g>
                  <g id="그룹_1215" data-name="그룹 1215" transform="translate(58.631 3.901)">
                    <path id="패스_2892" data-name="패스 2892" d="M1377.376,947.67l16.256,19.02s16.743-5.364,21.133-16.418c0,0-19.042-26.8-22.3-29.891a24.4,24.4,0,0,0-7.224-4.6l-14.915,20.315Z" transform="translate(-1370.331 -915.775)" fill="#d6c31e"/>
                  </g>
                </g>
                <g id="그룹_1222" data-name="그룹 1222">
                  <g id="그룹_1221" data-name="그룹 1221" clip-path="url(#clip-path-2)">
                    <g id="그룹_1220" data-name="그룹 1220" transform="translate(-30.439 11.071)">
                      <g id="그룹_1217" data-name="그룹 1217" transform="translate(0 58.331)">
                        <rect id="사각형_1385" data-name="사각형 1385" width="155.91" height="14.561" fill="#fff7f7"/>
                      </g>
                      <g id="그룹_1218" data-name="그룹 1218" transform="translate(0 29.166)">
                        <rect id="사각형_1386" data-name="사각형 1386" width="155.91" height="14.561" fill="#fff7f7"/>
                      </g>
                      <g id="그룹_1219" data-name="그룹 1219">
                        <rect id="사각형_1387" data-name="사각형 1387" width="155.91" height="14.561" fill="#fff7f7"/>
                      </g>
                    </g>
                  </g>
                </g>
                <g id="그룹_1227" data-name="그룹 1227" transform="translate(10.721 30.278)">
                  <g id="그룹_1223" data-name="그룹 1223">
                    <path id="패스_2894" data-name="패스 2894" d="M957.238,1210.643h-.016a.1.1,0,0,1-.081-.112l10.7-67.19a.1.1,0,1,1,.194.031l-10.7,67.19A.1.1,0,0,1,957.238,1210.643Z" transform="translate(-957.14 -1143.256)" fill="#431623"/>
                  </g>
                  <g id="그룹_1226" data-name="그룹 1226" transform="translate(61.179 1.558)">
                    <g id="그룹_1224" data-name="그룹 1224">
                      <path id="패스_2895" data-name="패스 2895" d="M1484.869,1182.076h-.008a.1.1,0,0,1-.09-.1l1.849-25.19a.1.1,0,0,1,.1-.091.1.1,0,0,1,.091.1l-1.849,25.19A.1.1,0,0,1,1484.869,1182.076Z" transform="translate(-1484.771 -1156.69)" fill="#431623"/>
                    </g>
                    <g id="그룹_1225" data-name="그룹 1225" transform="translate(0.902 12.315)">
                      <path id="패스_2896" data-name="패스 2896" d="M1501.682,1273.662a.1.1,0,0,1-.074-.034l-9.031-10.567a.1.1,0,1,1,.149-.127l8.986,10.514a61.873,61.873,0,0,0,13.371-6.942.1.1,0,1,1,.109.163,62.115,62.115,0,0,1-13.475,6.987A.1.1,0,0,1,1501.682,1273.662Z" transform="translate(-1492.553 -1262.9)" fill="#431623"/>
                    </g>
                  </g>
                </g>
              </g>
              <g id="그룹_1240" data-name="그룹 1240" transform="translate(99.367 123.587)">
                <g id="그룹_1229" data-name="그룹 1229" transform="translate(0.115)">
                  <path id="패스_2897" data-name="패스 2897" d="M1311.712,1552.134s-5.158,3.865-8.3,5.674a51.012,51.012,0,0,0-9.475,7.239c-2.615,2.574-4.229,6.059-2.97,6.875,1.03.667,3.736-1.936,6.435-3.96a50.745,50.745,0,0,1,5.61-3.575l11.963,2.343-1.273-7.807Z" transform="translate(-1290.531 -1552.134)" fill="#fba565"/>
                </g>
                <g id="그룹_1230" data-name="그룹 1230" transform="translate(0 12.101)">
                  <path id="패스_2898" data-name="패스 2898" d="M1300.792,1656.5a42.445,42.445,0,0,1-6.239,5.057c-3.905,2.71-5.6,5.42-4.838,6.271,1.054,1.171,6.109-2.041,8.811-3.787,3.247-2.1,7.763-7.192,7.763-7.192Z" transform="translate(-1289.535 -1656.497)" fill="#fba565"/>
                </g>
                <g id="그룹_1231" data-name="그룹 1231" transform="translate(0.389 16.607)">
                  <path id="패스_2899" data-name="패스 2899" d="M1294.066,1695.369c.364-.1,1.757.411,1.191,1.289s-1.506,1.583-2.178,1.152S1293.7,1695.471,1294.066,1695.369Z" transform="translate(-1292.888 -1695.356)" fill="#f58e48"/>
                </g>
                <g id="그룹_1232" data-name="그룹 1232" transform="translate(0.362 20.551)">
                  <path id="패스_2900" data-name="패스 2900" d="M1294.573,1729.369c.417.005,1.734.987.858,1.741s-2.094,1.207-2.672.539S1294.156,1729.363,1294.573,1729.369Z" transform="translate(-1292.654 -1729.369)" fill="#f58e48"/>
                </g>
                <g id="그룹_1233" data-name="그룹 1233" transform="translate(5.121 12.183)">
                  <path id="패스_2901" data-name="패스 2901" d="M1345.057,1657.207s-4.166,4.45-6.85,6.976c-2.423,2.28-5.381,5.359-4.262,6.439.864.834,6.253-2.8,8.12-4.379,3.021-2.552,8.936-7.635,8.936-7.635Z" transform="translate(-1333.701 -1657.207)" fill="#fba565"/>
                </g>
                <g id="그룹_1234" data-name="그룹 1234" transform="translate(12.003 9.855)">
                  <path id="패스_2902" data-name="패스 2902" d="M1408.253,1641.089c-1.226,1.01-5.869,5.463-7.269,6.839-2.341,2.3-6.751,6.733-7.781,5.889s3.5-6.653,4.606-8.51c1.195-2.006,3.381-6.026,3.381-6.026l5-2.156Z" transform="translate(-1393.052 -1637.126)" fill="#fba565"/>
                </g>
                <g id="그룹_1235" data-name="그룹 1235" transform="translate(5.479 22.942)">
                  <path id="패스_2903" data-name="패스 2903" d="M1338.217,1750c.355-.037,1.57.664.9,1.391s-1.656,1.233-2.213.724S1337.863,1750.032,1338.217,1750Z" transform="translate(-1336.784 -1749.994)" fill="#f58e48"/>
                </g>
                <g id="그룹_1236" data-name="그룹 1236" transform="translate(12.171 23.766)">
                  <path id="패스_2904" data-name="패스 2904" d="M1395.465,1757.115c.31-.1,1.523.311,1.056,1.081s-1.259,1.4-1.848,1.044S1395.155,1757.212,1395.465,1757.115Z" transform="translate(-1394.5 -1757.101)" fill="#f58e48"/>
                </g>
                <g id="그룹_1237" data-name="그룹 1237" transform="translate(2.029 11.97)">
                  <path id="패스_2905" data-name="패스 2905" d="M1307.135,1662.926a.1.1,0,0,1-.062-.174,87.094,87.094,0,0,1,10.667-7.372.1.1,0,1,1,.1.17,86.939,86.939,0,0,0-10.641,7.354A.1.1,0,0,1,1307.135,1662.926Z" transform="translate(-1307.036 -1655.366)" fill="#431623"/>
                </g>
                <g id="그룹_1238" data-name="그룹 1238" transform="translate(4.559 14.461)">
                  <path id="패스_2906" data-name="패스 2906" d="M1328.952,1684.765a.1.1,0,0,1-.048-.184,128.6,128.6,0,0,0,10.925-7.124l.844-.591a.1.1,0,1,1,.113.16l-.844.592a128.873,128.873,0,0,1-10.943,7.135A.1.1,0,0,1,1328.952,1684.765Z" transform="translate(-1328.854 -1676.848)" fill="#431623"/>
                </g>
                <g id="그룹_1239" data-name="그룹 1239" transform="translate(12.226 16.016)">
                  <path id="패스_2907" data-name="패스 2907" d="M1395.077,1696.529a.1.1,0,0,1-.063-.173l7.209-6.071a.1.1,0,1,1,.126.15l-7.209,6.071A.1.1,0,0,1,1395.077,1696.529Z" transform="translate(-1394.979 -1690.262)" fill="#431623"/>
                </g>
              </g>
              <g id="그룹_1265" data-name="그룹 1265" transform="translate(81.543)">
                <g id="그룹_1243" data-name="그룹 1243" transform="translate(4.425 45.899)">
                  <g id="그룹_1241" data-name="그룹 1241">
                    <path id="패스_2908" data-name="패스 2908" d="M1201.739,883.537l-.02.088c-1.647,7.429-6.6,11.69-13.594,11.69-.214,0-.429,0-.649-.012-3.488-.123-8.259-1.157-11.18-5.374a13.87,13.87,0,0,1-2.316-7.071,132.325,132.325,0,0,1,15.669-.706A82.17,82.17,0,0,1,1201.739,883.537Z" transform="translate(-1173.98 -882.126)" fill="#fff7f7"/>
                  </g>
                  <g id="그룹_1242" data-name="그룹 1242" transform="translate(1.953 0)">
                    <path id="패스_2909" data-name="패스 2909" d="M1214.7,883.2c-.871,3.925-3.621,10.451-12.261,10.145-10.325-.367-11.5-8.161-11.612-10.671a128.134,128.134,0,0,1,13.716-.522A78.4,78.4,0,0,1,1214.7,883.2Z" transform="translate(-1190.823 -882.128)" fill="#fba565"/>
                  </g>
                </g>
                <g id="그룹_1264" data-name="그룹 1264">
                  <g id="그룹_1246" data-name="그룹 1246" transform="translate(6.225 29.653)">
                    <g id="그룹_1244" data-name="그룹 1244" transform="translate(0)">
                      <path id="패스_2910" data-name="패스 2910" d="M1196.375,763.718l15.653-3.3-6.868-18.4-15.653,3.3Z" transform="translate(-1189.507 -742.019)" fill="#fba565"/>
                    </g>
                    <g id="그룹_1245" data-name="그룹 1245" transform="translate(0 0.345)">
                      <path id="패스_2911" data-name="패스 2911" d="M1203.343,744.993c0,.012-.006.026-.01.039-.622,2.614-2.91,9.676-9.955,13.3l-3.875-10.377.688-.147Z" transform="translate(-1189.504 -744.993)" fill="#ea8039"/>
                    </g>
                  </g>
                  <g id="그룹_1247" data-name="그룹 1247" transform="translate(5.63)">
                    <path id="패스_2912" data-name="패스 2912" d="M1185.231,492.741s-2.183-3.274.424-5.336,6.609-1.091,9.338,1.273,2.668,4.548,2.668,4.548-1.637-4.063.728-4.305,4.366,4.305,4.669,6.488c0,0,1.416-4.531,5.435-.836,3.68,3.383,3.3,11.417.265,12.357,1.56,1.357,2.164,5.991-1.731,9.685-3.239,3.071-4.757,1.109-4.757,1.109s-1.395,3.759-3.82,3.759a3.934,3.934,0,0,1-3.4-2.425Z" transform="translate(-1184.375 -486.278)" fill="#431623"/>
                  </g>
                  <g id="그룹_1263" data-name="그룹 1263" transform="translate(0 5.843)">
                    <g id="그룹_1248" data-name="그룹 1248" transform="translate(0 0.655)">
                      <path id="패스_2913" data-name="패스 2913" d="M1137.267,557.4c-2.246,9.246-2.072,16.48,1.9,17.115,5.029.8,16.515-4.491,18.76-13.737s-3.39-17.118-8.34-18.32S1139.513,548.152,1137.267,557.4Z" transform="translate(-1135.82 -542.319)" fill="#fba565"/>
                    </g>
                    <g id="그룹_1249" data-name="그룹 1249" transform="translate(1.356)">
                      <path id="패스_2914" data-name="패스 2914" d="M1147.709,541.862c.371-1.857,1.306-5.4,6.129-4.871l6.36-.318s4.982,2.279,7.261,5.247,2.133,9.5,1.285,11.461c-3.29-.962-5.465-4.107-6.319-9.235,0,0-1.961,3.286-4.77,2.756a2.6,2.6,0,0,1-2.12-3.286s-3.641,3.365-6.572,2.385C1147.068,545.367,1147.5,542.9,1147.709,541.862Z" transform="translate(-1147.514 -536.673)" fill="#431623"/>
                    </g>
                    <g id="그룹_1259" data-name="그룹 1259" transform="translate(2.378 10.21)">
                      <g id="그룹_1250" data-name="그룹 1250" transform="translate(3.184 4.712)">
                        <path id="패스_2915" data-name="패스 2915" d="M1184.491,672.385a.1.1,0,0,1-.08-.041,3.076,3.076,0,0,1-.613-1.707,2.084,2.084,0,0,1,.546-.967c.21-.265.472-.6.8-1.1a11.319,11.319,0,0,0,1.218-3.129.1.1,0,0,1,.192.042,11.292,11.292,0,0,1-1.245,3.195c-.333.507-.6.841-.811,1.11a1.926,1.926,0,0,0-.506.877,2.963,2.963,0,0,0,.579,1.561.1.1,0,0,1-.08.155Z" transform="translate(-1183.786 -665.369)" fill="#431623"/>
                      </g>
                      <g id="그룹_1257" data-name="그룹 1257">
                        <g id="그룹_1253" data-name="그룹 1253" transform="translate(1.989 3.869)">
                          <g id="그룹_1251" data-name="그룹 1251">
                            <path id="패스_2916" data-name="패스 2916" d="M1173.526,658.884c-.123.507.041.982.366,1.061s.688-.268.811-.775-.041-.982-.366-1.061S1173.65,658.377,1173.526,658.884Z" transform="translate(-1173.485 -658.098)" fill="#431623"/>
                          </g>
                          <g id="그룹_1252" data-name="그룹 1252" transform="translate(7.78 1.494)">
                            <path id="패스_2917" data-name="패스 2917" d="M1240.626,671.768c-.123.507.041.982.366,1.061s.688-.268.811-.775-.041-.982-.366-1.061S1240.749,671.26,1240.626,671.768Z" transform="translate(-1240.585 -670.981)" fill="#431623"/>
                          </g>
                        </g>
                        <g id="그룹_1256" data-name="그룹 1256">
                          <g id="그룹_1254" data-name="그룹 1254" transform="translate(9.427 1.482)">
                            <path id="패스_2918" data-name="패스 2918" d="M1238.113,637.519c-.51.062-.572.9-.378,1.113s2.062.671,2.78,1.227a7.541,7.541,0,0,1,2,1.8,9.764,9.764,0,0,0-.917-2.73A5.762,5.762,0,0,0,1238.113,637.519Z" transform="translate(-1237.633 -637.514)" fill="#431623"/>
                          </g>
                          <g id="그룹_1255" data-name="그룹 1255">
                            <path id="패스_2919" data-name="패스 2919" d="M1160.765,625.926c-.137.638-1.317.227-2.075.306a3.712,3.712,0,0,0-2.36.682,3.135,3.135,0,0,1,.445-1.281,3.261,3.261,0,0,1,1.981-.886,5.009,5.009,0,0,1,1.879.175C1160.947,625.059,1160.834,625.6,1160.765,625.926Z" transform="translate(-1156.329 -624.729)" fill="#431623"/>
                          </g>
                        </g>
                      </g>
                      <g id="그룹_1258" data-name="그룹 1258" transform="translate(0.451 12.979)">
                        <path id="패스_2920" data-name="패스 2920" d="M1164.214,738.4a5.731,5.731,0,0,1-3.964-1.362.1.1,0,0,1,.136-.142c1.915,1.833,5.972,1.732,8.512-.212a.1.1,0,1,1,.119.156A8.044,8.044,0,0,1,1164.214,738.4Z" transform="translate(-1160.219 -736.665)" fill="#431623"/>
                      </g>
                    </g>
                    <g id="그룹_1262" data-name="그룹 1262" transform="translate(16.678 15.219)">
                      <g id="그룹_1260" data-name="그룹 1260" transform="translate(0 0)">
                        <ellipse id="타원_269" data-name="타원 269" cx="4.274" cy="2.722" rx="4.274" ry="2.722" transform="translate(0 7.014) rotate(-55.141)" fill="#fba565"/>
                      </g>
                      <g id="그룹_1261" data-name="그룹 1261" transform="translate(3.696 3.017)">
                        <path id="패스_2921" data-name="패스 2921" d="M1311.63,697.788a.094.094,0,0,1-.031-.005.1.1,0,0,1-.062-.123c.01-.032.272-.788,1.661-1.135.74-.185.809-.539.679-1.126a2.42,2.42,0,0,1,.185-1.4.1.1,0,1,1,.177.084,2.259,2.259,0,0,0-.171,1.268c.146.655.062,1.137-.823,1.359-1.274.319-1.519,1-1.522,1.007A.1.1,0,0,1,1311.63,697.788Z" transform="translate(-1311.531 -693.947)" fill="#431623"/>
                      </g>
                    </g>
                  </g>
                </g>
              </g>
            </g>
          </g>
        </g>
      </g>
    </g>
  </g>
</svg>
