<svg xmlns="http://www.w3.org/2000/svg" width="636" height="340" viewBox="0 0 636 340">
  <g id="logo_hubic" transform="translate(-257 -290.429)">
    <rect id="사각형_1054" data-name="사각형 1054" width="636" height="340" transform="translate(257 290.429)" fill="none"/>
    <g id="그룹_1173" data-name="그룹 1173" transform="translate(-73.095 -606.163)">
      <path id="패스_5436" data-name="패스 5436" d="M1478.59,1112.18a13.619,13.619,0,1,0,4.935,6A13.626,13.626,0,0,0,1478.59,1112.18Zm-2.241,13.577a5.874,5.874,0,0,1-2.121,2.574,5.858,5.858,0,0,1-5.538.538,5.885,5.885,0,0,1-2.574-2.121,5.863,5.863,0,0,1-.538-5.538,5.891,5.891,0,0,1,2.121-2.574,5.857,5.857,0,0,1,5.537-.538,5.881,5.881,0,0,1,2.575,2.122,5.856,5.856,0,0,1,.538,5.538Z" transform="translate(-563.55 -88.74)" fill="#37a466"/>
      <path id="패스_5437" data-name="패스 5437" d="M1409.3,1122.216a10.9,10.9,0,0,1,3.2-7.734,10.018,10.018,0,0,0,2.941-7.1,9.735,9.735,0,0,0-9.739-9.739h-2.435a1.461,1.461,0,0,0-1.46,1.46v4.87a1.461,1.461,0,0,0,1.46,1.461h2.435a1.921,1.921,0,0,1,.757.151,1.968,1.968,0,0,1,.86.71,1.927,1.927,0,0,1,.244.505,1.98,1.98,0,0,1,.087.581,2.238,2.238,0,0,1-.175.874,2.277,2.277,0,0,1-.484.715,18.685,18.685,0,0,0-5.485,13.243v12.923a1.461,1.461,0,0,0,1.461,1.461h16.556a1.461,1.461,0,0,0,1.461-1.461v-4.869a1.461,1.461,0,0,0-1.461-1.46H1409.3Z" transform="translate(-534.456 -82.379)" fill="#f9ab2e"/>
      <path id="패스_5438" data-name="패스 5438" d="M696.359,1138.632c-1.123,10.3-2.251,20.621-3.1,28.423-.427,3.9-.783,7.178-1.035,9.5-.129,1.161-.229,2.089-.3,2.739-.034.327-.062.59-.082.774-.01.095-.02.171-.026.234l-.01.095v0l-.007.039-.01.105a8.743,8.743,0,0,1-.911,3.12,9.06,9.06,0,0,1-3.244,3.539,8.98,8.98,0,0,1-8.167.648,9.031,9.031,0,0,1-3.931-3.247,8.758,8.758,0,0,1-1.115-2.312,8.863,8.863,0,0,1-.394-2.654v-73.465a6.681,6.681,0,0,0-6.683-6.68h-22.26a6.681,6.681,0,0,0-6.68,6.68v73.465a44.523,44.523,0,0,0,88.813,4.587h0v0l.013-.114h0a.229.229,0,0,0,0-.045c.01-.066.023-.192.039-.35.184-1.691.837-7.7,1.714-15.725,1.314-12.057,3.134-28.695,4.618-42.323.745-6.814,1.408-12.873,1.885-17.231.012-.135.029-.269.039-.4a6.657,6.657,0,0,0-5.914-7.333l-22.131-2.417a6.681,6.681,0,0,0-7.366,5.916C699.279,1111.9,697.821,1125.243,696.359,1138.632Zm-4.566,41.871,0-.014h0Zm.013-.147v0Z" transform="translate(-136.717 -82.694)" fill="#df2c4b"/>
      <path id="패스_5439" data-name="패스 5439" d="M1364.765,1148.791a6.192,6.192,0,0,0-6.319-6.709h-22.261c-3.72,0-6.588,3.007-7.5,6.614a26.735,26.735,0,1,1-32.5-32.505c3.606-.916,6.612-3.783,6.612-7.5v-22.263a6.191,6.191,0,0,0-6.708-6.319,62.365,62.365,0,1,0,68.682,68.683Z" transform="translate(-450.514 -73.22)" fill="#df2c4b"/>
      <path id="패스_5440" data-name="패스 5440" d="M959.6,1090.768a44.166,44.166,0,0,0,4.284-19.061c0-.234,0-.482-.005-.74v-.013a43.968,43.968,0,0,0-3.843-17.275,45.116,45.116,0,0,0-41.113-26.5H881.519a6.681,6.681,0,0,0-6.679,6.68v100.18a53.386,53.386,0,0,0,53.429,53.427c.817,0,1.651-.016,2.494-.056h.005a52.989,52.989,0,0,0,19.389-4.645,53.756,53.756,0,0,0,28.657-31.414,53.118,53.118,0,0,0,2.828-14.811v-.008q.055-1.244.055-2.494a53.332,53.332,0,0,0-22.094-43.274ZM910.458,1062.8h8.468a9.54,9.54,0,0,1,7.776,3.989,8.613,8.613,0,0,1,1.14,2.238,8.351,8.351,0,0,1,.425,2.512c0,.044,0,.1,0,.163a8.832,8.832,0,0,1-.694,3.46,8.858,8.858,0,0,1-8.213,5.448h-8.9Zm35.6,72.106a17.35,17.35,0,0,1-1.526,6.364,18.226,18.226,0,0,1-6.2,7.43,17.942,17.942,0,0,1-4.341,2.2,17.271,17.271,0,0,1-4.852.921c-.281.016-.571.026-.866.026a17.667,17.667,0,0,1-6.929-1.4,17.941,17.941,0,0,1-7.85-6.469,17.641,17.641,0,0,1-2.235-4.642,17.921,17.921,0,0,1-.8-5.3v-17.807h17.811a17.658,17.658,0,0,1,6.926,1.39,17.93,17.93,0,0,1,7.851,6.475,17.546,17.546,0,0,1,2.233,4.639,17.729,17.729,0,0,1,.8,5.3Q946.078,1134.465,946.058,1134.911Z" transform="translate(-259.95 -45.653)" fill="#fff"/>
      <path id="사각형_1052" data-name="사각형 1052" d="M13.952,0H21.67A13.952,13.952,0,0,1,35.621,13.952v96.766A13.952,13.952,0,0,1,21.67,124.67H13.955A13.955,13.955,0,0,1,0,110.715V13.952A13.952,13.952,0,0,1,13.952,0Z" transform="translate(739.083 1001.233)" fill="#f9ab2e"/>
      <path id="패스_5441" data-name="패스 5441" d="M443.456,1026.343a6.679,6.679,0,0,0-5.666,7.559l5.03,35.212L418.939,1069l-7.583-70.679a6.677,6.677,0,0,0-5.667-7.557l-22.036-3.149a6.678,6.678,0,0,0-7.558,5.664l12.694,146.669a6.676,6.676,0,0,0,5.667,7.557l22.036,3.152a6.686,6.686,0,0,0,7.557-5.669l-4.535-40.254h28.395l10.835,75.869a6.677,6.677,0,0,0,7.555,5.669l22.039-3.149a6.676,6.676,0,0,0,5.667-7.554L473.047,1028.86a6.676,6.676,0,0,0-7.553-5.664Z" transform="translate(0 -24.995)" fill="#37a466"/>
      <path id="패스_5442" data-name="패스 5442" d="M1450.728,1169.914a2.406,2.406,0,1,1,2.406,2.406A2.406,2.406,0,0,1,1450.728,1169.914Z" transform="translate(-560.109 -118.793)" fill="#fff"/>
      <circle id="타원_103" data-name="타원 103" cx="10.964" cy="10.964" r="10.964" transform="translate(484.174 982.02)" fill="#df2c4b"/>
      <circle id="타원_104" data-name="타원 104" cx="8.924" cy="8.924" r="8.924" transform="translate(620.446 952.212) rotate(-45)" fill="#f9ab2e"/>
      <circle id="타원_105" data-name="타원 105" cx="7.139" cy="7.139" r="7.139" transform="translate(720.725 970.329) rotate(-76.717)" fill="#fff"/>
      <circle id="타원_106" data-name="타원 106" cx="8.669" cy="8.669" r="8.669" transform="translate(858.106 945.005)" fill="#f9ab2e"/>
      <circle id="타원_107" data-name="타원 107" cx="10.199" cy="10.199" r="10.199" transform="translate(700.376 1150.718)" fill="#37a466"/>
      <circle id="타원_108" data-name="타원 108" cx="3.315" cy="3.315" r="3.315" transform="translate(779.404 1139.828)" fill="#f9ab2e"/>
      <path id="패스_5443" data-name="패스 5443" d="M823.63,994.95a3.315,3.315,0,1,1-3.315-3.315A3.315,3.315,0,0,1,823.63,994.95Z" transform="translate(-229.804 -27.126)" fill="#fff"/>
      <path id="패스_5444" data-name="패스 5444" d="M1240.67,1039.067a3.315,3.315,0,1,1-3.315-3.315A3.315,3.315,0,0,1,1240.67,1039.067Z" transform="translate(-447.169 -50.12)" fill="#37a466"/>
      <circle id="타원_109" data-name="타원 109" cx="5.1" cy="5.1" r="5.1" transform="translate(600.921 1176.857)" fill="#df2c4b"/>
      <circle id="타원_110" data-name="타원 110" cx="11.984" cy="11.984" r="11.984" transform="translate(393.995 1164.599) rotate(-76.717)" fill="#f9ab2e"/>
      <circle id="타원_111" data-name="타원 111" cx="4.335" cy="4.335" r="4.335" transform="matrix(0.23, -0.973, 0.973, 0.23, 431.767, 982.381)" fill="#f9ab2e"/>
      <circle id="타원_112" data-name="타원 112" cx="3.825" cy="3.825" r="3.825" transform="matrix(0.23, -0.973, 0.973, 0.23, 525.782, 1161.67)" fill="#37a466"/>
      <circle id="타원_113" data-name="타원 113" cx="5.864" cy="5.864" r="5.864" transform="translate(485.926 1182.465)" fill="#fff"/>
      <circle id="타원_114" data-name="타원 114" cx="4.59" cy="4.59" r="4.59" transform="translate(829.049 1152.875)" fill="#df2c4b"/>
    </g>
  </g>
</svg>
