<svg xmlns="http://www.w3.org/2000/svg" width="636" height="340" viewBox="0 0 636 340">
  <g id="logo_hubic" transform="translate(-257 -290.429)">
    <rect id="사각형_1054" data-name="사각형 1054" width="636" height="340" transform="translate(257 290.429)" fill="none"/>
    <g id="그룹_1205" data-name="그룹 1205" transform="translate(-122.244 47.108)">
      <circle id="타원_127" data-name="타원 127" cx="9.003" cy="9.003" r="9.003" transform="translate(925.947 285.424)" fill="#fff"/>
      <g id="그룹_1204" data-name="그룹 1204" transform="translate(414.245 281.32)">
        <path id="패스_5502" data-name="패스 5502" d="M1473.216,447.016a14.143,14.143,0,1,0,5.125,6.226A14.15,14.15,0,0,0,1473.216,447.016Zm-2.327,14.1a6.1,6.1,0,0,1-2.2,2.673,6.085,6.085,0,0,1-5.75.559,6.112,6.112,0,0,1-2.674-2.2,6.091,6.091,0,0,1-.559-5.751,6.119,6.119,0,0,1,2.2-2.673,6.072,6.072,0,0,1,8.983,7.4Z" transform="translate(-913.519 -359.939)" fill="#fff"/>
        <path id="패스_5503" data-name="패스 5503" d="M1405.7,458.409a11.317,11.317,0,0,1,3.326-8.032,10.406,10.406,0,0,0,3.054-7.371,10.11,10.11,0,0,0-10.114-10.114h-2.529a1.517,1.517,0,0,0-1.517,1.517v5.058a1.518,1.518,0,0,0,1.517,1.518h2.529a2,2,0,0,1,.786.158,2.043,2.043,0,0,1,.894.737,2.009,2.009,0,0,1,.253.525,2.042,2.042,0,0,1,.091.6,2.307,2.307,0,0,1-.684,1.65,19.407,19.407,0,0,0-5.7,13.753V471.83a1.517,1.517,0,0,0,1.517,1.517h17.194a1.516,1.516,0,0,0,1.517-1.517v-5.056a1.517,1.517,0,0,0-1.517-1.517H1405.7Z" transform="translate(-887.744 -354.304)" fill="#fff"/>
        <path id="패스_5504" data-name="패스 5504" d="M725.983,475.409c-1.166,10.694-2.338,21.416-3.221,29.518-.443,4.055-.813,7.454-1.075,9.868-.134,1.206-.238,2.169-.312,2.844-.036.339-.064.613-.085.8-.01.1-.02.178-.027.243l-.011.1v0l-.007.041-.01.109a9.077,9.077,0,0,1-.946,3.241,9.41,9.41,0,0,1-3.369,3.675,9.326,9.326,0,0,1-8.482.672,9.375,9.375,0,0,1-4.083-3.372,9.084,9.084,0,0,1-1.158-2.4A9.217,9.217,0,0,1,702.79,518V441.7a6.939,6.939,0,0,0-6.94-6.937H672.733A6.938,6.938,0,0,0,665.8,441.7V518a46.238,46.238,0,0,0,92.233,4.763h0v0l.013-.118h0a.236.236,0,0,0,0-.047c.011-.068.024-.2.04-.363.192-1.756.87-8,1.78-16.33,1.365-12.521,3.254-29.8,4.8-43.953.774-7.077,1.462-13.369,1.958-17.895.012-.139.03-.279.041-.415a6.914,6.914,0,0,0-6.142-7.616l-22.983-2.51a6.939,6.939,0,0,0-7.65,6.144C729.016,447.644,727.5,461.5,725.983,475.409Zm-4.741,43.483,0-.014h0Zm.013-.153v0Z" transform="translate(-535.369 -354.582)" fill="#4b50f0"/>
        <path id="패스_5505" data-name="패스 5505" d="M1372.254,487.4a6.43,6.43,0,0,0-6.562-6.967h-23.118c-3.863,0-6.842,3.123-7.792,6.869a27.764,27.764,0,1,1-33.754-33.757c3.745-.951,6.866-3.929,6.866-7.79v-23.12a6.429,6.429,0,0,0-6.966-6.563,64.767,64.767,0,1,0,71.327,71.328Z" transform="translate(-813.376 -346.189)" fill="#4b50f0"/>
        <path id="패스_5506" data-name="패스 5506" d="M980.563,431.353a45.864,45.864,0,0,0,4.449-19.794c0-.244,0-.5-.006-.768v-.014a45.654,45.654,0,0,0-3.991-17.94,46.853,46.853,0,0,0-42.7-27.517H899.472a6.938,6.938,0,0,0-6.936,6.937V476.293a55.442,55.442,0,0,0,55.487,55.485c.848,0,1.715-.017,2.59-.058h.006a55.051,55.051,0,0,0,20.135-4.823,55.825,55.825,0,0,0,29.76-32.624,55.137,55.137,0,0,0,2.937-15.382v-.008q.057-1.292.057-2.589a55.389,55.389,0,0,0-22.944-44.941Zm-51.038-29.04h8.794a9.907,9.907,0,0,1,8.076,4.143,8.97,8.97,0,0,1,1.184,2.324,8.7,8.7,0,0,1,.441,2.609c0,.046,0,.1,0,.17a9.17,9.17,0,0,1-.721,3.593,9.2,9.2,0,0,1-8.529,5.658h-9.248ZM966.5,477.2a18.022,18.022,0,0,1-1.585,6.609,18.933,18.933,0,0,1-6.442,7.717,18.643,18.643,0,0,1-4.508,2.286,17.95,17.95,0,0,1-5.039.957c-.292.017-.593.027-.9.027a18.352,18.352,0,0,1-7.2-1.452,18.632,18.632,0,0,1-8.152-6.719,18.316,18.316,0,0,1-2.321-4.821,18.619,18.619,0,0,1-.828-5.507V457.8h18.5a18.341,18.341,0,0,1,7.193,1.443,18.623,18.623,0,0,1,8.153,6.724,18.31,18.31,0,0,1,3.148,10.325C966.517,476.586,966.51,476.887,966.5,477.2Z" transform="translate(-644.547 -321.767)" fill="#fff"/>
        <path id="사각형_1073" data-name="사각형 1073" d="M13.38,0H23.613a13.38,13.38,0,0,1,13.38,13.38V116.091a13.38,13.38,0,0,1-13.38,13.38H13.383A13.383,13.383,0,0,1,0,116.088V13.38A13.38,13.38,0,0,1,13.38,0Z" transform="translate(376.964 64.015)" fill="#00c8f5"/>
        <path id="패스_5507" data-name="패스 5507" d="M484.2,367.6a6.937,6.937,0,0,0-5.884,7.85l5.224,36.568-24.8-.117-7.875-73.4a6.933,6.933,0,0,0-5.884-7.847l-22.885-3.271a6.935,6.935,0,0,0-7.849,5.882l13.183,152.317a6.933,6.933,0,0,0,5.884,7.848L456.2,496.7a6.944,6.944,0,0,0,7.848-5.887l-4.709-41.8h29.488l11.252,78.79a6.934,6.934,0,0,0,7.846,5.887l22.887-3.271a6.933,6.933,0,0,0,5.886-7.845L514.929,370.213a6.932,6.932,0,0,0-7.843-5.882Z" transform="translate(-414.245 -303.465)" fill="#00c8f5"/>
        <path id="패스_5508" data-name="패스 5508" d="M1444.807,502.389a2.5,2.5,0,1,1,2.5,2.5A2.5,2.5,0,0,1,1444.807,502.389Z" transform="translate(-910.471 -386.564)" fill="#fff"/>
        <circle id="타원_128" data-name="타원 128" cx="11.386" cy="11.386" r="11.386" transform="translate(112.24 44.062)" fill="#4b50f0"/>
        <circle id="타원_129" data-name="타원 129" cx="9.268" cy="9.268" r="9.268" transform="translate(253.76 13.107) rotate(-45)" fill="#fff"/>
        <circle id="타원_130" data-name="타원 130" cx="7.414" cy="7.414" r="7.414" transform="translate(357.9 31.921) rotate(-76.717)" fill="#4b50f0"/>
        <circle id="타원_131" data-name="타원 131" cx="10.592" cy="10.592" r="10.592" transform="translate(336.768 219.256)" fill="#00c8f5"/>
        <circle id="타원_132" data-name="타원 132" cx="3.442" cy="3.442" r="3.442" transform="translate(418.838 207.947)" fill="#00c8f5"/>
        <path id="패스_5509" data-name="패스 5509" d="M843.953,334.671a3.442,3.442,0,1,1-3.442-3.442A3.442,3.442,0,0,1,843.953,334.671Z" transform="translate(-617.839 -305.352)" fill="#fff"/>
        <path id="패스_5510" data-name="패스 5510" d="M1243.891,376.98a3.442,3.442,0,1,1-3.442-3.442A3.442,3.442,0,0,1,1243.891,376.98Z" transform="translate(-810.413 -325.724)" fill="#00c8f5"/>
        <circle id="타원_133" data-name="타원 133" cx="5.296" cy="5.296" r="5.296" transform="translate(233.482 246.401)" fill="#4b50f0"/>
        <circle id="타원_134" data-name="타원 134" cx="12.445" cy="12.445" r="12.445" transform="translate(18.588 233.672) rotate(-76.717)" fill="#fff"/>
        <circle id="타원_135" data-name="타원 135" cx="4.502" cy="4.502" r="4.502" transform="translate(57.815 44.437) rotate(-76.717)" fill="#fff"/>
        <circle id="타원_136" data-name="타원 136" cx="3.972" cy="3.972" r="3.972" transform="matrix(0.23, -0.973, 0.973, 0.23, 155.45, 230.629)" fill="#00c8f5"/>
        <circle id="타원_137" data-name="타원 137" cx="6.09" cy="6.09" r="6.09" transform="translate(114.059 252.226)" fill="#4b50f0"/>
        <circle id="타원_138" data-name="타원 138" cx="4.766" cy="4.766" r="4.766" transform="translate(470.395 221.497)" fill="#4b50f0"/>
      </g>
    </g>
  </g>
</svg>
