<svg id="m_icon_07" xmlns="http://www.w3.org/2000/svg" xmlns:xlink="http://www.w3.org/1999/xlink" width="39.759" height="49.507" viewBox="0 0 39.759 49.507">
  <defs>
    <clipPath id="clip-path">
      <rect id="사각형_2209" data-name="사각형 2209" width="39.759" height="49.507" fill="none"/>
    </clipPath>
  </defs>
  <g id="그룹_2808" data-name="그룹 2808" clip-path="url(#clip-path)">
    <path id="패스_4351" data-name="패스 4351" d="M0,90.25V54.736a1.952,1.952,0,0,1,1.961-1.943H28.368a1.952,1.952,0,0,1,1.961,1.943V90.25Z" transform="translate(0 -48.196)" fill="#cb8171"/>
    <path id="패스_4352" data-name="패스 4352" d="M26.558,79.349v35.145h25.7V79.349Z" transform="translate(-24.246 -72.44)" fill="#bfe2ff"/>
    <path id="패스_4353" data-name="패스 4353" d="M88.344,3.48a3.024,3.024,0,1,0-5.971,0H76.889V8.094h16.94V3.48Z" transform="translate(-70.194)" fill="#ffc180"/>
    <rect id="사각형_2197" data-name="사각형 2197" width="6.834" height="6.834" transform="translate(5.876 11.532)" fill="#fff"/>
    <path id="패스_4354" data-name="패스 4354" d="M86.646,125.821H86.6a.713.713,0,0,1-.537-.3l-2.105-3,1.166-.819,1.6,2.272,4.366-4.753,1.049.963-4.964,5.405a.712.712,0,0,1-.524.231" transform="translate(-76.648 -108.841)" fill="#8ec6b7"/>
    <rect id="사각형_2198" data-name="사각형 2198" width="6.834" height="6.834" transform="translate(5.876 21.768)" fill="#fff"/>
    <rect id="사각형_2199" data-name="사각형 2199" width="6.834" height="6.834" transform="translate(5.876 32.003)" fill="#fff"/>
    <path id="패스_4355" data-name="패스 4355" d="M86.646,360.922H86.6a.713.713,0,0,1-.537-.3l-2.105-3,1.166-.819,1.6,2.272,4.366-4.753,1.049.963-4.964,5.405a.712.712,0,0,1-.524.231" transform="translate(-76.648 -323.471)" fill="#8ec6b7"/>
    <rect id="사각형_2200" data-name="사각형 2200" width="4.363" height="1.069" transform="translate(16.524 26.889)" fill="#fff"/>
    <rect id="사각형_2201" data-name="사각형 2201" width="7.693" height="1.069" transform="translate(16.524 24.65)" fill="#fff"/>
    <rect id="사각형_2202" data-name="사각형 2202" width="7.693" height="1.069" transform="translate(16.524 22.412)" fill="#fff"/>
    <rect id="사각형_2203" data-name="사각형 2203" width="2.548" height="1.069" transform="translate(16.524 37.124)" fill="#fff"/>
    <rect id="사각형_2204" data-name="사각형 2204" width="7.693" height="1.069" transform="translate(16.524 34.886)" fill="#fff"/>
    <rect id="사각형_2205" data-name="사각형 2205" width="7.693" height="1.069" transform="translate(16.524 32.648)" fill="#fff"/>
    <rect id="사각형_2206" data-name="사각형 2206" width="7.693" height="1.069" transform="translate(16.524 16.648)" fill="#fff"/>
    <rect id="사각형_2207" data-name="사각형 2207" width="7.693" height="1.069" transform="translate(16.524 14.41)" fill="#fff"/>
    <rect id="사각형_2208" data-name="사각형 2208" width="7.693" height="1.069" transform="translate(16.524 12.182)" fill="#fff"/>
    <path id="패스_4356" data-name="패스 4356" d="M256.9,204.549h0a2.013,2.013,0,0,0-1.251.373,1.416,1.416,0,0,0-.318.19l-.194-.366a1.271,1.271,0,0,0-1.355-1.3,1.68,1.68,0,0,0-1.321.569,1.279,1.279,0,0,0-.26.274,1.92,1.92,0,0,0-1.843-1.824l-1.259-.009.063-6.893c.009-.923-.693-1.162-1.642-1.17s-1.785.217-1.794,1.14l0,.356c0,.037-.012.073-.013.11l-.141,15.4a27.958,27.958,0,0,0-2.709-3.257,1.991,1.991,0,0,0-2.748-.055,1.856,1.856,0,0,0-.25,2.454l3.088,4.3s1.438,6.4,4.361,7.028l-.033,3.623.075-.794-.011,1.237,8.061.073.039-4.242,1.045-1.363a7.1,7.1,0,0,0,1.474-4.257l.075-8.2.022-2.433c0-.526-.295-.959-1.159-.966" transform="translate(-218.659 -177.472)" fill="#f4b1a6"/>
    <path id="패스_4357" data-name="패스 4357" d="M245.376,223.247h0a.356.356,0,0,1-.354-.359l.034-4.777c-2.74-.847-4.1-6.238-4.269-6.963l-2.954-4.109a2.169,2.169,0,0,1,.289-2.849,2.3,2.3,0,0,1,3.16.062,24.651,24.651,0,0,1,2.041,2.36l.132-14.342a2,2,0,0,1,2.022-1.96h.018a2.034,2.034,0,0,1,1.422.588,1.941,1.941,0,0,1,.583,1.407l-.11,12.013a.356.356,0,0,1-.356.353h0a.356.356,0,0,1-.353-.359l.11-12.013a1.236,1.236,0,0,0-.372-.894,1.325,1.325,0,0,0-.927-.382h-.012a1.291,1.291,0,0,0-1.31,1.254l-.142,15.406a.356.356,0,0,1-.648.2,27.125,27.125,0,0,0-2.6-3.127,1.582,1.582,0,0,0-2.172-.045,1.438,1.438,0,0,0-.2,1.911l3,4.167a.355.355,0,0,1,.058.13c.381,1.691,1.843,6.167,4.012,6.562a.356.356,0,0,1,.292.353l-.036,5.057a.356.356,0,0,1-.356.354" transform="translate(-216.754 -173.74)" fill="#fff"/>
    <path id="패스_4358" data-name="패스 4358" d="M347.548,291.85h0a.356.356,0,0,1-.353-.359l.03-3.309a1.637,1.637,0,0,0-.424-1.13,1.391,1.391,0,0,0-1.017-.463l-1.222-.01a.356.356,0,0,1-.353-.359.361.361,0,0,1,.359-.353l1.222.01a2.1,2.1,0,0,1,1.535.694,2.346,2.346,0,0,1,.612,1.618l-.03,3.309a.356.356,0,0,1-.356.353" transform="translate(-314.235 -260.974)" fill="#fff"/>
    <path id="패스_4359" data-name="패스 4359" d="M381.888,301.962h0a.356.356,0,0,1-.353-.359l.029-3.107a.753.753,0,0,0-.305-.585,1.356,1.356,0,0,0-.847-.285h-.014c-.634,0-1.151.379-1.155.85l-.028,3.107a.356.356,0,0,1-.712-.006l.029-3.107a1.74,1.74,0,0,1,1.887-1.556,2.071,2.071,0,0,1,1.292.446,1.451,1.451,0,0,1,.567,1.143l-.029,3.107a.356.356,0,0,1-.356.353" transform="translate(-345.541 -271.061)" fill="#fff"/>
    <path id="패스_4360" data-name="패스 4360" d="M414.177,331.738h0a.356.356,0,0,1-.353-.359l.038-5.173a.358.358,0,0,1,.073-.214l1.014-1.322a6.488,6.488,0,0,0,1.356-3.916l.095-10.315c0-.116-.1-.244-.27-.351a1.756,1.756,0,0,0-.885-.226h-.018c-.645,0-1.146.3-1.148.558l-.021,2.36a.356.356,0,0,1-.356.353h0a.356.356,0,0,1-.353-.359l.022-2.36c.007-.718.821-1.264,1.885-1.264a2.449,2.449,0,0,1,1.255.334,1.149,1.149,0,0,1,.606.963l-.095,10.314a7.2,7.2,0,0,1-1.5,4.343l-.941,1.227-.037,5.054a.356.356,0,0,1-.356.353" transform="translate(-377.35 -282.231)" fill="#fff"/>
    <path id="패스_4361" data-name="패스 4361" d="M84.677,89.578H73.156a.356.356,0,1,1,0-.712H84.677a.356.356,0,1,1,0,.712" transform="translate(-66.461 -81.128)" fill="#f9984c"/>
  </g>
</svg>
