<svg id="m_icon_05" xmlns="http://www.w3.org/2000/svg" xmlns:xlink="http://www.w3.org/1999/xlink" width="30.747" height="42.976" viewBox="0 0 30.747 42.976">
  <defs>
    <clipPath id="clip-path">
      <rect id="사각형_2194" data-name="사각형 2194" width="30.747" height="42.976" fill="none"/>
    </clipPath>
  </defs>
  <g id="그룹_2804" data-name="그룹 2804" clip-path="url(#clip-path)">
    <path id="패스_4337" data-name="패스 4337" d="M3.99,55.716H30.747a5.777,5.777,0,0,1-1.78-3.941,4.993,4.993,0,0,1,1.78-3.718H3.99a3.833,3.833,0,1,0,0,7.659" transform="translate(0 -43.801)" fill="#bfe2ff"/>
    <path id="패스_4338" data-name="패스 4338" d="M29.509,95.131H3.83A3.83,3.83,0,0,1,0,91.3v31.534a3.357,3.357,0,0,0,3.357,3.357h27.39V95.131Z" transform="translate(0 -83.216)" fill="#ffbd6e"/>
    <path id="패스_4339" data-name="패스 4339" d="M100.566,205.884v-.532a7.772,7.772,0,0,1,.4-3.215,8.7,8.7,0,0,1,2.108-1.926,4.785,4.785,0,0,0,1.247-1.225,2.642,2.642,0,0,0,.35-1.408,2.092,2.092,0,0,0-.658-1.632,2.3,2.3,0,0,0-1.6-.6q-2.48,0-2.788,3.5l-3.838-.546a7.379,7.379,0,0,1,2.319-4.791,6.8,6.8,0,0,1,4.6-1.625,6.93,6.93,0,0,1,4.651,1.6,5.087,5.087,0,0,1,1.877,4.049q0,3.04-3.124,5.085a5.586,5.586,0,0,0-1.646,1.4,4.152,4.152,0,0,0-.288,1.863Zm3.659,5.533h-3.743v-3.67h3.743Z" transform="translate(-87.306 -174.897)" fill="#fff"/>
    <path id="패스_4340" data-name="패스 4340" d="M251.742,386.579h-6.469v-1.461h5.738v-6.125h1.461v6.856a.731.731,0,0,1-.731.731" transform="translate(-223.552 -345.429)" fill="#f9984c"/>
    <path id="패스_4341" data-name="패스 4341" d="M68.172,0V9.195H72.09V2Z" transform="translate(-62.135 0)" fill="#ff765f"/>
    <path id="패스_4342" data-name="패스 4342" d="M116.327,0l-3.918,2v7.19h3.918Z" transform="translate(-102.454 0)" fill="#ff8f80"/>
    <rect id="사각형_2192" data-name="사각형 2192" width="8.721" height="1.461" transform="translate(19.259 8.013)" fill="#91bae8"/>
    <rect id="사각형_2193" data-name="사각형 2193" width="1.461" height="22.346" transform="translate(2.811 14.38)" fill="#f9984c"/>
  </g>
</svg>
