<svg id="m_icon_06" xmlns="http://www.w3.org/2000/svg" xmlns:xlink="http://www.w3.org/1999/xlink" width="46.008" height="42.976" viewBox="0 0 46.008 42.976">
  <defs>
    <clipPath id="clip-path">
      <rect id="사각형_2196" data-name="사각형 2196" width="46.008" height="42.975" fill="none"/>
    </clipPath>
  </defs>
  <g id="그룹_2806" data-name="그룹 2806" clip-path="url(#clip-path)">
    <path id="패스_4343" data-name="패스 4343" d="M199.421,1.6a12.776,12.776,0,0,1,3.429,2.334,10.966,10.966,0,0,1,3.466,7.887c0,6.528-6.08,11.82-13.58,11.82a15.215,15.215,0,0,1-5.891-1.167l-7.689,3.377,2.679-6.981a10.8,10.8,0,0,1-2.679-7.049c0-6.528,6.08-11.82,13.58-11.82A15.494,15.494,0,0,1,196.4.435a12.677,12.677,0,0,1,2.441.888Z" transform="translate(-162.638 0.001)" fill="#bfe2ff"/>
    <path id="패스_4344" data-name="패스 4344" d="M262,46.168v-.075a6.881,6.881,0,0,1,.354-2.846,7.7,7.7,0,0,1,1.866-1.7,4.236,4.236,0,0,0,1.1-1.085,2.339,2.339,0,0,0,.31-1.247,1.852,1.852,0,0,0-.583-1.445,2.035,2.035,0,0,0-1.414-.527q-2.195,0-2.468,3.1l-3.4-.484a6.532,6.532,0,0,1,2.053-4.241,6.02,6.02,0,0,1,4.073-1.438,6.135,6.135,0,0,1,4.117,1.414,4.5,4.5,0,0,1,1.662,3.584,5.287,5.287,0,0,1-2.765,4.5,4.946,4.946,0,0,0-1.457,1.24,1.952,1.952,0,0,0-.255,1.253Zm3.239,4.915h-3.314v-2.49h3.314Z" transform="translate(-234.005 -31.025)" fill="#6da996"/>
    <path id="패스_4345" data-name="패스 4345" d="M260.582,302.009h-18.4l5.28-13.184h18.4Z" transform="translate(-219.853 -262.196)" fill="#91bae8"/>
    <path id="패스_4346" data-name="패스 4346" d="M48.925,119.958l-.557,0a3.729,3.729,0,0,0-3.777,3.71l.046,3.593a3.783,3.783,0,0,0,3.871,3.658l.557,0a3.729,3.729,0,0,0,3.777-3.71l-.046-3.593a3.783,3.783,0,0,0-3.871-3.658" transform="translate(-40.48 -108.899)" fill="#f4b1a6"/>
    <path id="패스_4347" data-name="패스 4347" d="M13.6,291.623l-.163-12.544a5.222,5.222,0,0,0-5.216-5.154l-1.848,0A6.126,6.126,0,0,0,.056,279.74L0,291.644Z" transform="translate(0 -248.669)" fill="#f4b1a6"/>
    <path id="패스_4348" data-name="패스 4348" d="M95.1,308.357l6.649,5.616h6.632a4.154,4.154,0,0,1,4.154,4.154v1.613H99.626L94.855,316Z" transform="translate(-86.11 -279.928)" fill="#f4b1a6"/>
    <path id="패스_4349" data-name="패스 4349" d="M108.795,316.372H95.881a.382.382,0,0,1-.235-.081l-4.771-3.739a.38.38,0,1,1,.469-.6l4.667,3.658h12.4v-1.233a3.779,3.779,0,0,0-3.774-3.774H98.008a.381.381,0,0,1-.246-.09L91.114,304.9a.38.38,0,0,1,.491-.581l6.542,5.526h6.493a4.54,4.54,0,0,1,4.535,4.535v1.613a.38.38,0,0,1-.38.38" transform="translate(-82.365 -276.179)" fill="#fff"/>
    <path id="패스_4350" data-name="패스 4350" d="M216.2,431.831h0Z" transform="translate(-196.265 -392.019)" fill="#638fc0"/>
    <rect id="사각형_2195" data-name="사각형 2195" width="24.78" height="1.521" transform="translate(19.932 39.052)" fill="#638fc0"/>
  </g>
</svg>
