<svg id="m_icon_01" xmlns="http://www.w3.org/2000/svg" xmlns:xlink="http://www.w3.org/1999/xlink" width="34.25" height="38.721" viewBox="0 0 34.25 38.721">
  <defs>
    <clipPath id="clip-path">
      <rect id="사각형_2187" data-name="사각형 2187" width="34.25" height="38.721" fill="none"/>
    </clipPath>
  </defs>
  <g id="그룹_2802" data-name="그룹 2802" clip-path="url(#clip-path)">
    <path id="패스_4308" data-name="패스 4308" d="M338.574,286.168l3.2-2.236a2.528,2.528,0,0,0,1.123-2.063V271.494l-6.17,5.338Z" transform="translate(-309.102 -249.218)" fill="#ff765f"/>
    <path id="패스_4309" data-name="패스 4309" d="M339.907,196.746l3.2-2.236a2.528,2.528,0,0,0,1.123-2.063V182.072l-6.17,5.338Z" transform="translate(-310.325 -167.133)" fill="#bfe2ff"/>
    <path id="패스_4310" data-name="패스 4310" d="M339.907,107.324l3.2-2.236a2.528,2.528,0,0,0,1.123-2.063V92.65l-6.17,5.338Z" transform="translate(-310.325 -85.048)" fill="#6da996"/>
    <path id="패스_4311" data-name="패스 4311" d="M51.114,0H41.8a.619.619,0,0,0-.619.619V38.1a.619.619,0,0,0,.619.619H67.107a.619.619,0,0,0,.619-.619V15.51a.619.619,0,0,1,.24-.489l2.724-2.114a3.522,3.522,0,0,0,1.363-2.783V.619A.619.619,0,0,0,71.432,0Z" transform="translate(-37.801)" fill="#ffbd6e"/>
    <path id="패스_4312" data-name="패스 4312" d="M357.042,70.925a.686.686,0,0,1-.685-.685v-7.33a.685.685,0,1,1,1.371,0v7.33a.686.686,0,0,1-.685.685" transform="translate(-327.118 -57.119)" fill="#f9984c"/>
    <path id="패스_4313" data-name="패스 4313" d="M3.379,288.625a3.379,3.379,0,0,1,0-6.758v1.371a2.008,2.008,0,1,0,2.008,2.008H6.758a3.383,3.383,0,0,1-3.379,3.379" transform="translate(0 -258.74)" fill="#638fc0"/>
    <path id="패스_4314" data-name="패스 4314" d="M3.379,202a3.379,3.379,0,0,1,0-6.758v1.371a2.008,2.008,0,1,0,2.008,2.008H6.758A3.383,3.383,0,0,1,3.379,202" transform="translate(0 -179.222)" fill="#638fc0"/>
    <path id="패스_4315" data-name="패스 4315" d="M3.379,375.252a3.379,3.379,0,0,1,0-6.758v1.371a2.008,2.008,0,1,0,2.008,2.008H6.758a3.383,3.383,0,0,1-3.379,3.379" transform="translate(0 -338.259)" fill="#638fc0"/>
    <path id="패스_4316" data-name="패스 4316" d="M3.379,115.372a3.379,3.379,0,0,1,0-6.757v1.371a2.008,2.008,0,1,0,2.008,2.008H6.758a3.383,3.383,0,0,1-3.379,3.379" transform="translate(0 -99.703)" fill="#638fc0"/>
    <path id="패스_4317" data-name="패스 4317" d="M3.379,28.746a3.379,3.379,0,0,1,0-6.758v1.371a2.008,2.008,0,1,0,2.008,2.008H6.758a3.383,3.383,0,0,1-3.379,3.379" transform="translate(0 -20.184)" fill="#638fc0"/>
    <path id="패스_4318" data-name="패스 4318" d="M129.489,43.227a7.365,7.365,0,0,0-5.392,12.39,10.3,10.3,0,0,1,5.392-1.673,8.865,8.865,0,0,1,5.335,1.737,7.366,7.366,0,0,0-5.335-12.453" transform="translate(-112.096 -39.68)" fill="#e6f5ff"/>
    <path id="패스_4319" data-name="패스 4319" d="M146.255,175.509a7.35,7.35,0,0,0,10.727.063,8.865,8.865,0,0,0-5.335-1.737,10.3,10.3,0,0,0-5.392,1.673" transform="translate(-134.255 -159.573)" fill="#638fc0"/>
    <path id="패스_4320" data-name="패스 4320" d="M179.637,87.249a2.891,2.891,0,1,0,2.891,2.891,2.891,2.891,0,0,0-2.891-2.891" transform="translate(-162.244 -80.09)" fill="#638fc0"/>
    <path id="패스_4321" data-name="패스 4321" d="M176.744,322.295v5.247h1.32v1.731h-4.372v-1.731h1.32v-3.516h-.8v-1.731Zm1.371-1.371h-5.277V325.4h.8v.774h-1.32v4.473h7.113v-4.473h-1.32v-5.247Z" transform="translate(-158.183 -294.592)" fill="#fff"/>
    <path id="패스_4322" data-name="패스 4322" d="M182.53,246.468a1.277,1.277,0,1,1-1.277,1.277,1.277,1.277,0,0,1,1.277-1.277m0-1.371a2.648,2.648,0,1,0,2.648,2.648,2.651,2.651,0,0,0-2.648-2.648" transform="translate(-165.123 -224.987)" fill="#fff"/>
  </g>
</svg>
