<svg id="m_icon_02" xmlns="http://www.w3.org/2000/svg" xmlns:xlink="http://www.w3.org/1999/xlink" width="41.499" height="38.72" viewBox="0 0 41.499 38.72">
  <defs>
    <clipPath id="clip-path">
      <rect id="사각형_2174" data-name="사각형 2174" width="41.499" height="38.72" fill="none"/>
    </clipPath>
  </defs>
  <g id="그룹_2792" data-name="그룹 2792" clip-path="url(#clip-path)">
    <path id="패스_4269" data-name="패스 4269" d="M380.4,0a4.355,4.355,0,0,0-4.444,4.259V9.644h8.889V4.259A4.355,4.355,0,0,0,380.4,0" transform="translate(-343.342)" fill="#91bae8"/>
    <path id="패스_4270" data-name="패스 4270" d="M71.225,0a6.009,6.009,0,0,0-6.133,5.877V38.55l22.891.171a3.956,3.956,0,0,0,4.038-3.869V14.187h.034V4.259A4.355,4.355,0,0,1,96.5,0Z" transform="translate(-59.446)" fill="#bfe2ff"/>
    <path id="패스_4271" data-name="패스 4271" d="M24.5,357.447v3.846a3.956,3.956,0,0,0,4.038,3.869H5.572A5.46,5.46,0,0,1,0,359.823v-2.376Z" transform="translate(0 -326.442)" fill="#91bae8"/>
    <path id="패스_4272" data-name="패스 4272" d="M105.7,78.353a1.644,1.644,0,1,1-.482-.072,1.643,1.643,0,0,1,.482.072" transform="translate(-94.593 -71.491)" fill="#ff765f"/>
    <path id="패스_4273" data-name="패스 4273" d="M180.7,74.506H166.844a.71.71,0,1,1,0-1.419H180.7a.71.71,0,0,1,0,1.419" transform="translate(-151.723 -66.747)" fill="#fff"/>
    <path id="패스_4274" data-name="패스 4274" d="M172.635,105.9h-5.791a.71.71,0,1,1,0-1.419h5.791a.71.71,0,0,1,0,1.419" transform="translate(-151.723 -95.416)" fill="#fff"/>
    <path id="패스_4275" data-name="패스 4275" d="M106.861,170.1a1.642,1.642,0,1,1-1.642-1.642,1.642,1.642,0,0,1,1.642,1.642" transform="translate(-94.593 -153.848)" fill="#ff765f"/>
    <path id="패스_4276" data-name="패스 4276" d="M180.7,164.686H166.844a.71.71,0,1,1,0-1.419H180.7a.71.71,0,0,1,0,1.419" transform="translate(-151.723 -149.105)" fill="#fff"/>
    <path id="패스_4277" data-name="패스 4277" d="M177,196.074H166.844a.71.71,0,1,1,0-1.419H177a.71.71,0,0,1,0,1.419" transform="translate(-151.723 -177.771)" fill="#fff"/>
    <path id="패스_4278" data-name="패스 4278" d="M106.861,260.28a1.642,1.642,0,1,1-1.642-1.642,1.642,1.642,0,0,1,1.642,1.642" transform="translate(-94.593 -236.204)" fill="#ff765f"/>
    <path id="패스_4279" data-name="패스 4279" d="M180.7,254.866H166.844a.71.71,0,1,1,0-1.419H180.7a.71.71,0,0,1,0,1.419" transform="translate(-151.723 -231.463)" fill="#fff"/>
    <path id="패스_4280" data-name="패스 4280" d="M172.635,286.253h-5.791a.71.71,0,1,1,0-1.419h5.791a.71.71,0,0,1,0,1.419" transform="translate(-151.723 -260.127)" fill="#fff"/>
  </g>
</svg>
