<svg xmlns="http://www.w3.org/2000/svg" width="50.374" height="44.694" viewBox="0 0 50.374 44.694">
  <g id="ncs_02" transform="translate(-156.705 -515.522)">
    <path id="패스_3289" data-name="패스 3289" d="M228.9,557.82H214.674a2.548,2.548,0,0,0-2.546,2.545v1.205H193.6a2.548,2.548,0,0,0-2.545,2.545v23.554a2.548,2.548,0,0,0,2.545,2.545H228.9a2.548,2.548,0,0,0,2.545-2.545v-27.3A2.548,2.548,0,0,0,228.9,557.82Z" transform="translate(-24.365 -29.998)" fill="#aac9eb"/>
    <g id="그룹_2147" data-name="그룹 2147" transform="translate(165.04 525.836)">
      <path id="패스_3290" data-name="패스 3290" d="M225.094,553.653H210.87a1.777,1.777,0,0,0-1.772,1.771V557.4H189.8a1.776,1.776,0,0,0-1.771,1.771v23.554A1.777,1.777,0,0,0,189.8,584.5h35.293a1.777,1.777,0,0,0,1.772-1.772v-27.3A1.776,1.776,0,0,0,225.094,553.653Z" transform="translate(-187.256 -552.879)" fill="#aac9eb"/>
      <path id="패스_3291" data-name="패스 3291" d="M223.206,583.385H187.913a2.548,2.548,0,0,1-2.545-2.546V557.286a2.548,2.548,0,0,1,2.545-2.545h18.523v-1.2a2.548,2.548,0,0,1,2.546-2.545h14.224a2.548,2.548,0,0,1,2.546,2.545v27.3A2.548,2.548,0,0,1,223.206,583.385Zm-35.293-27.1a1,1,0,0,0-1,1v23.554a1,1,0,0,0,1,1h35.293a1,1,0,0,0,1-1v-27.3a1,1,0,0,0-1-1H208.982a1,1,0,0,0-1,1v1.979a.775.775,0,0,1-.774.774Z" transform="translate(-185.368 -550.991)" fill="#333"/>
    </g>
    <g id="그룹_2150" data-name="그룹 2150" transform="translate(159.353 532.233)">
      <g id="그룹_2148" data-name="그룹 2148" transform="translate(0.774 0.774)">
        <path id="패스_3292" data-name="패스 3292" d="M212.325,598.458a1.108,1.108,0,0,1-1.1,1.64H175.93a2.852,2.852,0,0,1-2.438-1.64l-4.9-21.169a1.109,1.109,0,0,1,1.1-1.641h35.293a2.855,2.855,0,0,1,2.439,1.641Z" transform="translate(-168.471 -575.648)" fill="#aac9eb"/>
      </g>
      <g id="그룹_2149" data-name="그룹 2149" transform="translate(0 0)">
        <path id="패스_3293" data-name="패스 3293" d="M209.336,598.985H174.043a3.63,3.63,0,0,1-3.155-2.123l-4.9-21.168a1.876,1.876,0,0,1,1.82-2.706H203.1a3.631,3.631,0,0,1,3.156,2.122l4.9,21.169a1.876,1.876,0,0,1-1.82,2.706Zm-41.528-24.449a.358.358,0,0,0-.386.573l4.9,21.169a2.1,2.1,0,0,0,1.721,1.158h35.293a.358.358,0,0,0,.385-.574l-4.9-21.169a2.1,2.1,0,0,0-1.722-1.158Z" transform="translate(-165.811 -572.987)" fill="#fff"/>
      </g>
    </g>
    <g id="그룹_2153" data-name="그룹 2153" transform="translate(157.527 515.522)">
      <g id="그룹_2151" data-name="그룹 2151" transform="translate(0.774 0.774)">
        <path id="패스_3294" data-name="패스 3294" d="M175.055,556.9c-7.967-11.427-12.093-23.33-12.862-33.772,8.52-1.915,17.562-3.6,27.1-4.946-1.8,8.99-.441,20.2,4.572,31.7C187.016,552.22,180.737,554.6,175.055,556.9Z" transform="translate(-162.193 -518.185)" fill="#fff"/>
      </g>
      <g id="그룹_2152" data-name="그룹 2152" transform="translate(0 0)">
        <path id="패스_3295" data-name="패스 3295" d="M173.168,555.788a.775.775,0,0,1-.636-.331c-7.558-10.842-12.175-22.973-13-34.158a.773.773,0,0,1,.6-.812c8.954-2.013,18.092-3.681,27.159-4.958a.773.773,0,0,1,.867.919c-1.848,9.214-.242,20.309,4.524,31.242a.775.775,0,0,1-.461,1.042c-6.242,2.125-12.556,4.481-18.766,7A.761.761,0,0,1,173.168,555.788ZM161.13,521.851c.92,10.554,5.275,21.942,12.321,32.214,5.789-2.336,11.664-4.529,17.483-6.527-4.457-10.554-6.037-21.244-4.49-30.322C177.989,518.433,169.482,519.991,161.13,521.851Z" transform="translate(-159.531 -515.522)" fill="#333"/>
      </g>
    </g>
    <g id="그룹_2156" data-name="그룹 2156" transform="translate(156.705 534.881)">
      <g id="그룹_2154" data-name="그룹 2154" transform="translate(0.774 0.774)">
        <path id="패스_3296" data-name="패스 3296" d="M205.867,604.916a1.108,1.108,0,0,1-1.1,1.64H169.472a2.852,2.852,0,0,1-2.438-1.64L159.487,586.4a1.108,1.108,0,0,1,1.1-1.64h35.293a2.854,2.854,0,0,1,2.439,1.64Z" transform="translate(-159.365 -584.755)" fill="#fff"/>
      </g>
      <g id="그룹_2155" data-name="그룹 2155" transform="translate(0 0)">
        <path id="패스_3297" data-name="패스 3297" d="M202.878,605.443H167.585a3.63,3.63,0,0,1-3.155-2.123L156.883,584.8a1.876,1.876,0,0,1,1.82-2.706h35.293a3.631,3.631,0,0,1,3.156,2.122l7.547,18.521a1.876,1.876,0,0,1-1.82,2.706Zm-44.176-21.8a.358.358,0,0,0-.386.574l7.547,18.521a2.1,2.1,0,0,0,1.721,1.158h35.293a.358.358,0,0,0,.385-.574L195.717,584.8a2.1,2.1,0,0,0-1.722-1.158Z" transform="translate(-156.705 -582.094)" fill="#333"/>
      </g>
    </g>
    <g id="그룹_2161" data-name="그룹 2161" transform="translate(163.873 522.441)">
      <g id="그룹_2157" data-name="그룹 2157" transform="translate(1.37 6.521)">
        <rect id="사각형_1816" data-name="사각형 1816" width="15.588" height="0.78" transform="translate(0 3.204) rotate(-11.863)" fill="#aac9eb"/>
      </g>
      <g id="그룹_2158" data-name="그룹 2158" transform="translate(0.913 4.347)">
        <rect id="사각형_1817" data-name="사각형 1817" width="15.588" height="0.78" transform="matrix(0.979, -0.206, 0.206, 0.979, 0, 3.205)" fill="#aac9eb"/>
      </g>
      <g id="그룹_2159" data-name="그룹 2159" transform="translate(0.457 2.174)">
        <rect id="사각형_1818" data-name="사각형 1818" width="15.588" height="0.78" transform="matrix(0.979, -0.206, 0.206, 0.979, 0, 3.205)" fill="#aac9eb"/>
      </g>
      <g id="그룹_2160" data-name="그룹 2160">
        <rect id="사각형_1819" data-name="사각형 1819" width="15.588" height="0.78" transform="translate(0 3.205) rotate(-11.864)" fill="#aac9eb"/>
      </g>
    </g>
  </g>
</svg>
