<svg xmlns="http://www.w3.org/2000/svg" width="38.251" height="46.455" viewBox="0 0 38.251 46.455">
  <g id="ncs_23" transform="translate(-715.242 -533.355)">
    <g id="그룹_2513" data-name="그룹 2513" transform="translate(717.542 535.685)">
      <path id="패스_3920" data-name="패스 3920" d="M787.3,549.38c4.582-2.011,7.47-6.93,7.47-6.93s-6.763-3.4-11.346-1.386-6.629,6.928-6.629,6.928S782.72,551.392,787.3,549.38Z" transform="translate(-758.822 -540.428)" fill="#aac9eb"/>
      <path id="패스_3921" data-name="패스 3921" d="M729.7,549.38c4.583,2.012,10.506-1.387,10.506-1.387s-2.047-4.917-6.63-6.928-11.346,1.386-11.346,1.386S725.114,547.37,729.7,549.38Z" transform="translate(-722.226 -540.428)" fill="#aac9eb"/>
      <path id="패스_3922" data-name="패스 3922" d="M760.168,594.592H731.585a1.311,1.311,0,0,0-1.329,1.292v5.6a1.311,1.311,0,0,0,1.329,1.292v3.816h.557l1.082,12.992a1.292,1.292,0,0,0,1.292,1.293h22.721a1.292,1.292,0,0,0,1.292-1.293l1.292-15.515a1.278,1.278,0,0,0-.287-.8v-.49h.633a1.312,1.312,0,0,0,1.33-1.292v-5.6A1.311,1.311,0,0,0,760.168,594.592Z" transform="translate(-727.611 -576.751)" fill="#aac9eb"/>
    </g>
    <path id="패스_3923" data-name="패스 3923" d="M755.651,594.492a1.248,1.248,0,0,1-1.265,1.23h-27.2a1.248,1.248,0,0,1-1.266-1.23v-5.328a1.248,1.248,0,0,1,1.266-1.229h27.2a1.248,1.248,0,0,1,1.265,1.229Z" transform="translate(-7.161 -36.601)" fill="#fff"/>
    <path id="패스_3924" data-name="패스 3924" d="M756.075,627.57a1.229,1.229,0,0,1-1.23,1.23H733.224a1.229,1.229,0,0,1-1.23-1.23l-1.229-14.765a1.229,1.229,0,0,1,1.229-1.23h24.081a1.23,1.23,0,0,1,1.23,1.23Z" transform="translate(-10.41 -52.455)" fill="#fff"/>
    <path id="패스_3925" data-name="패스 3925" d="M771.05,542.554s5.636,3.235,10,1.32,7.108-6.6,7.108-6.6-6.436-3.233-10.8-1.318S771.05,542.554,771.05,542.554Z" transform="translate(-37.425 -1.341)" fill="#50b4ff"/>
    <path id="패스_3926" data-name="패스 3926" d="M734.348,542.554s-5.637,3.235-10,1.32-7.108-6.6-7.108-6.6,6.436-3.233,10.8-1.318S734.348,542.554,734.348,542.554Z" transform="translate(-1.341 -1.341)" fill="#fff"/>
    <g id="그룹_2514" data-name="그룹 2514" transform="translate(732.966 533.355)">
      <path id="패스_3927" data-name="패스 3927" d="M776.6,543.8h0a16.4,16.4,0,0,1-7.22-2.014.659.659,0,0,1-.281-.824,14.191,14.191,0,0,1,6.652-6.943,8.62,8.62,0,0,1,3.477-.662,20.116,20.116,0,0,1,7.88,1.995.659.659,0,0,1,.272.922c-.116.2-2.908,4.888-7.412,6.865A8.331,8.331,0,0,1,776.6,543.8Zm-6.023-2.877a14.794,14.794,0,0,0,6.022,1.559h0a7.034,7.034,0,0,0,2.84-.55,16.77,16.77,0,0,0,6.4-5.709,18.233,18.233,0,0,0-6.615-1.549,7.32,7.32,0,0,0-2.948.55A12.691,12.691,0,0,0,770.578,540.922Z" transform="translate(-769.049 -533.355)" fill="#333"/>
    </g>
    <g id="그룹_2515" data-name="그룹 2515" transform="translate(715.242 533.355)">
      <path id="패스_3928" data-name="패스 3928" d="M726.114,543.8a8.332,8.332,0,0,1-3.37-.662c-4.5-1.977-7.3-6.666-7.412-6.865a.658.658,0,0,1,.272-.922,20.117,20.117,0,0,1,7.88-1.995,8.619,8.619,0,0,1,3.477.662,14.191,14.191,0,0,1,6.652,6.943.658.658,0,0,1-.28.824A16.4,16.4,0,0,1,726.114,543.8Zm-9.244-7.577a16.769,16.769,0,0,0,6.4,5.709,7.034,7.034,0,0,0,2.84.55,14.79,14.79,0,0,0,6.021-1.558,12.737,12.737,0,0,0-5.7-5.7,7.321,7.321,0,0,0-2.948-.55A18.238,18.238,0,0,0,716.87,536.221Z" transform="translate(-715.242 -533.355)" fill="#333"/>
    </g>
    <g id="그룹_2516" data-name="그룹 2516" transform="translate(732.966 540.554)">
      <path id="패스_3929" data-name="패스 3929" d="M769.709,566.649a.659.659,0,0,1-.659-.659V555.87a.659.659,0,1,1,1.318,0v10.12A.659.659,0,0,1,769.709,566.649Z" transform="translate(-769.05 -555.211)" fill="#333"/>
    </g>
    <g id="그룹_2517" data-name="그룹 2517" transform="translate(718.1 550.674)">
      <path id="패스_3930" data-name="패스 3930" d="M753.044,595.039h-27.2a1.909,1.909,0,0,1-1.925-1.889v-5.328a1.909,1.909,0,0,1,1.925-1.888h27.2a1.908,1.908,0,0,1,1.924,1.888v5.328A1.909,1.909,0,0,1,753.044,595.039Zm-27.2-7.788a.59.59,0,0,0-.607.571v5.328a.591.591,0,0,0,.607.571h27.2a.591.591,0,0,0,.606-.571v-5.328a.59.59,0,0,0-.606-.571Z" transform="translate(-723.92 -585.934)" fill="#333"/>
    </g>
    <rect id="사각형_1825" data-name="사각형 1825" width="26.597" height="3.631" transform="translate(720.025 559.121)" fill="#aac9eb"/>
    <g id="그룹_2518" data-name="그룹 2518" transform="translate(719.696 558.462)">
      <path id="패스_3931" data-name="패스 3931" d="M753.5,628.118H731.883a1.891,1.891,0,0,1-1.888-1.858l-1.228-14.74c0-.018,0-.037,0-.055a1.89,1.89,0,0,1,1.888-1.888h24.081a1.89,1.89,0,0,1,1.889,1.888c0,.018,0,.036,0,.055l-1.228,14.74A1.89,1.89,0,0,1,753.5,628.118Zm-23.421-16.676,1.227,14.733c0,.018,0,.036,0,.055a.572.572,0,0,0,.571.571H753.5a.572.572,0,0,0,.571-.571c0-.018,0-.037,0-.055l1.227-14.733a.572.572,0,0,0-.571-.548H730.653A.571.571,0,0,0,730.083,611.442Z" transform="translate(-728.765 -609.576)" fill="#333"/>
    </g>
  </g>
</svg>
