<svg xmlns="http://www.w3.org/2000/svg" width="54.954" height="58.454" viewBox="0 0 54.954 58.454">
  <g id="ncs_24" transform="translate(-692.879 -768.585)">
    <g id="그룹_2426" data-name="그룹 2426" transform="translate(715.029 770.682)">
      <path id="패스_3796" data-name="패스 3796" d="M773.867,794.125a11.753,11.753,0,1,1-23.505,0c0-6.489,5.263-18.222,11.753-18.222S773.867,787.636,773.867,794.125Z" transform="translate(-749.534 -775.075)" fill="#50b4ff"/>
      <g id="그룹_2425" data-name="그룹 2425">
        <path id="패스_3797" data-name="패스 3797" d="M761.051,805.522a12.475,12.475,0,0,1-12.46-12.461c0-6.48,5.261-18.93,12.46-18.93s12.461,12.451,12.461,18.93A12.475,12.475,0,0,1,761.051,805.522Zm0-29.975c-5.695,0-11.044,10.926-11.044,17.513a11.045,11.045,0,1,0,22.089,0C772.1,786.474,766.747,775.548,761.051,775.548Z" transform="translate(-748.471 -774.011)" fill="#333"/>
        <path id="패스_3798" data-name="패스 3798" d="M760.871,805.462a12.6,12.6,0,0,1-12.58-12.581c0-6.521,5.312-19.05,12.58-19.05s12.581,12.529,12.581,19.05A12.6,12.6,0,0,1,760.871,805.462Zm0-31.391c-7.129,0-12.341,12.371-12.341,18.81a12.341,12.341,0,1,0,24.682,0C773.213,786.442,768,774.071,760.871,774.071Zm0,29.975a11.177,11.177,0,0,1-11.164-11.165c0-6.633,5.407-17.633,11.164-17.633s11.165,11,11.165,17.633A11.177,11.177,0,0,1,760.871,804.046Zm0-28.559c-5.633,0-10.924,10.851-10.924,17.394a10.925,10.925,0,1,0,21.849,0C771.8,786.338,766.5,775.487,760.871,775.487Z" transform="translate(-748.291 -773.831)" fill="#333"/>
      </g>
    </g>
    <path id="패스_3799" data-name="패스 3799" d="M712.736,830.5a2.359,2.359,0,0,1,.643-2.109L725.1,817.844a3.9,3.9,0,0,1,2.242-.857h15a1.291,1.291,0,0,1,1.285,1.286v1.545a1.457,1.457,0,0,1-1.279,1.417l-9.271.937a3.231,3.231,0,0,0-2.022,1.185l-.749,1.068a.79.79,0,0,0,.518,1.321l12.231,2.632a2.371,2.371,0,0,0,2.09-.712l8.1-9.528a3.193,3.193,0,0,1,2.121-.977h2.742c.709,0,.983.491.614,1.1l-11.685,19.066a2.948,2.948,0,0,1-1.953,1.226l-28.3,2.908a1.53,1.53,0,0,1-1.591-1.113Z" transform="translate(-11.89 -29.054)" fill="#fff"/>
    <g id="그룹_2431" data-name="그룹 2431" transform="translate(706.859 773.566)">
      <g id="그룹_2428" data-name="그룹 2428" transform="translate(0 3.443)">
        <g id="그룹_2427" data-name="그룹 2427">
          <path id="패스_3800" data-name="패스 3800" d="M735.745,791.375H728.86a.708.708,0,1,1,0-1.417h6.885a.708.708,0,0,1,0,1.417Z" transform="translate(-728.031 -789.838)" fill="#333"/>
          <path id="패스_3801" data-name="패스 3801" d="M735.566,791.314H728.68a.828.828,0,1,1,0-1.656h6.885a.828.828,0,0,1,0,1.656ZM728.68,789.9a.588.588,0,1,0,0,1.177h6.885a.588.588,0,0,0,0-1.177Z" transform="translate(-727.852 -789.658)" fill="#333"/>
        </g>
      </g>
      <g id="그룹_2430" data-name="그룹 2430" transform="translate(3.443 0)">
        <g id="그룹_2429" data-name="그룹 2429">
          <path id="패스_3802" data-name="패스 3802" d="M737.474,789.647a.708.708,0,0,1-.708-.708v-6.886a.708.708,0,1,1,1.416,0v6.886A.708.708,0,0,1,737.474,789.647Z" transform="translate(-736.646 -781.225)" fill="#333"/>
          <path id="패스_3803" data-name="패스 3803" d="M737.294,789.587a.829.829,0,0,1-.828-.828v-6.886a.828.828,0,1,1,1.655,0v6.886A.828.828,0,0,1,737.294,789.587Zm0-8.3a.589.589,0,0,0-.589.588v6.886a.588.588,0,1,0,1.176,0v-6.886A.589.589,0,0,0,737.294,781.285Z" transform="translate(-736.466 -781.045)" fill="#333"/>
        </g>
      </g>
    </g>
    <g id="그룹_2436" data-name="그룹 2436" transform="translate(713.093 768.585)">
      <g id="그룹_2433" data-name="그룹 2433" transform="translate(0 2.147)">
        <g id="그룹_2432" data-name="그룹 2432">
          <path id="패스_3804" data-name="패스 3804" d="M748.751,775.673h-4.295a.708.708,0,1,1,0-1.416h4.295a.708.708,0,1,1,0,1.416Z" transform="translate(-743.628 -774.137)" fill="#333"/>
          <path id="패스_3805" data-name="패스 3805" d="M748.571,775.613h-4.295a.828.828,0,0,1,0-1.656h4.295a.828.828,0,1,1,0,1.656Zm-4.295-1.416a.588.588,0,0,0,0,1.176h4.295a.588.588,0,1,0,0-1.176Z" transform="translate(-743.448 -773.957)" fill="#333"/>
        </g>
      </g>
      <g id="그룹_2435" data-name="그룹 2435" transform="translate(2.147)">
        <g id="그룹_2434" data-name="그룹 2434">
          <path id="패스_3806" data-name="패스 3806" d="M749.828,774.6a.708.708,0,0,1-.708-.708v-4.3a.708.708,0,0,1,1.416,0v4.3A.708.708,0,0,1,749.828,774.6Z" transform="translate(-749 -768.765)" fill="#333"/>
          <path id="패스_3807" data-name="패스 3807" d="M749.648,774.535a.829.829,0,0,1-.828-.828v-4.3a.828.828,0,0,1,1.656,0v4.3A.829.829,0,0,1,749.648,774.535Zm0-5.711a.589.589,0,0,0-.588.588v4.3a.588.588,0,1,0,1.176,0v-4.3A.589.589,0,0,0,749.648,768.825Z" transform="translate(-748.82 -768.585)" fill="#333"/>
        </g>
      </g>
    </g>
    <g id="그룹_2437" data-name="그룹 2437" transform="translate(722.053 775.407)">
      <path id="패스_3808" data-name="패스 3808" d="M769,788.818c-.729,1.279-1.9,1.984-2.612,1.577s-.7-1.774.028-3.052,1.9-1.984,2.612-1.577S769.732,787.54,769,788.818Z" transform="translate(-765.864 -785.652)" fill="#fff"/>
    </g>
    <path id="패스_3809" data-name="패스 3809" d="M753.389,903.046c0,1.624-6.512,2.94-14.545,2.94s-14.546-1.317-14.546-2.94,6.512-2.941,14.546-2.941S753.389,901.421,753.389,903.046Z" transform="translate(-18.861 -78.947)" fill="#aac9eb"/>
    <path id="패스_3810" data-name="패스 3810" d="M731.722,836.575l24.4.6,13.435-17.931-11.123,20.53-25.187,3.047Z" transform="translate(-23.316 -30.407)" fill="#aac9eb"/>
    <g id="그룹_2438" data-name="그룹 2438" transform="translate(699.968 787.105)">
      <path id="패스_3811" data-name="패스 3811" d="M715.586,841.111a2.253,2.253,0,0,1-2.143-1.656l-2.46-9.85a3.036,3.036,0,0,1,.858-2.807l11.718-10.542a4.566,4.566,0,0,1,2.716-1.038h15a2,2,0,0,1,1.992,1.993v1.545a2.154,2.154,0,0,1-1.912,2.122l-9.274.937a2.537,2.537,0,0,0-1.514.888l-.748,1.066a.32.32,0,0,0-.071.162h0a.53.53,0,0,0,.158.059l12.231,2.633a1,1,0,0,0,.211.021,1.7,1.7,0,0,0,1.19-.5l8.105-9.53a3.878,3.878,0,0,1,2.661-1.226h2.742a1.354,1.354,0,0,1,1.218,2.175l-11.686,19.067a3.621,3.621,0,0,1-2.484,1.561l-28.3,2.908A1.931,1.931,0,0,1,715.586,841.111Zm10.688-24.478a3.234,3.234,0,0,0-1.771.677L712.788,827.85a1.676,1.676,0,0,0-.43,1.412l2.461,9.85a.824.824,0,0,0,.832.58l28.3-2.908a2.248,2.248,0,0,0,1.423-.893l11.684-19.065.012-.02h-2.763a2.506,2.506,0,0,0-1.585.731l-8.1,9.525a3.126,3.126,0,0,1-2.779.945l-12.232-2.633a1.492,1.492,0,0,1-.949-2.42l.749-1.068a3.908,3.908,0,0,1,2.529-1.483l9.273-.936a.753.753,0,0,0,.641-.713V817.21a.585.585,0,0,0-.576-.577Z" transform="translate(-710.793 -815.097)" fill="#333"/>
      <path id="패스_3812" data-name="패스 3812" d="M715.407,841.051a2.375,2.375,0,0,1-2.259-1.748l-2.46-9.85a3.165,3.165,0,0,1,.894-2.926L723.3,815.986a4.7,4.7,0,0,1,2.8-1.069h15a2.115,2.115,0,0,1,2.112,2.113v1.545a2.276,2.276,0,0,1-2.02,2.241l-9.275.937a2.435,2.435,0,0,0-1.428.837l-.747,1.066c-.007.01-.013.019-.018.028l.032.008,12.232,2.633a.9.9,0,0,0,.185.018,1.6,1.6,0,0,0,1.1-.456l8.106-9.529a4.014,4.014,0,0,1,2.752-1.268h2.742a1.472,1.472,0,0,1,1.32,2.357l-11.686,19.067a3.753,3.753,0,0,1-2.575,1.618l-28.3,2.909A2.023,2.023,0,0,1,715.407,841.051ZM726.1,815.157a4.435,4.435,0,0,0-2.636,1.007l-11.718,10.542a2.91,2.91,0,0,0-.821,2.69l2.46,9.849A2.113,2.113,0,0,0,715.6,840.8l28.305-2.909a3.49,3.49,0,0,0,2.394-1.5l11.686-19.067a1.235,1.235,0,0,0-1.116-1.993H754.13a3.751,3.751,0,0,0-2.57,1.185l-8.105,9.529a1.807,1.807,0,0,1-1.281.54,1.115,1.115,0,0,1-.236-.024l-12.231-2.633a.643.643,0,0,1-.163-.056h-.076l-.013-.106a.407.407,0,0,1,.091-.245l.748-1.067a2.637,2.637,0,0,1,1.6-.939l9.275-.937a2.032,2.032,0,0,0,1.8-2V817.03a1.875,1.875,0,0,0-1.872-1.873Zm-10.69,24.478a.949.949,0,0,1-.883-.674l-2.461-9.849a1.787,1.787,0,0,1,.466-1.53l11.717-10.541a3.323,3.323,0,0,1,1.851-.707h15a.706.706,0,0,1,.7.7v1.545a.866.866,0,0,1-.749.832l-9.273.937a3.777,3.777,0,0,0-2.443,1.433l-.748,1.067a1.373,1.373,0,0,0,.875,2.234l12.232,2.633a2.248,2.248,0,0,0,.465.047,3.059,3.059,0,0,0,2.2-.953l8.1-9.525a2.606,2.606,0,0,1,1.677-.773h2.947l-.08.179-11.7,19.089a2.352,2.352,0,0,1-1.513.949l-28.3,2.908C715.457,839.633,715.432,839.635,715.406,839.635Zm10.69-23.062a3.142,3.142,0,0,0-1.691.646l-11.716,10.54a1.563,1.563,0,0,0-.394,1.294l2.461,9.85a.7.7,0,0,0,.7.489l28.3-2.908a2.136,2.136,0,0,0,1.332-.836l11.584-18.9h-2.55a2.4,2.4,0,0,0-1.495.69l-8.1,9.524a3.266,3.266,0,0,1-2.38,1.037,2.457,2.457,0,0,1-.515-.052l-12.232-2.633a1.611,1.611,0,0,1-1.021-2.606l.748-1.067a4.042,4.042,0,0,1,2.614-1.533l9.273-.937a.635.635,0,0,0,.534-.594V817.03a.463.463,0,0,0-.456-.457Z" transform="translate(-710.614 -814.917)" fill="#333"/>
    </g>
    <g id="그룹_2441" data-name="그룹 2441" transform="translate(693.707 794.381)">
      <g id="그룹_2439" data-name="그룹 2439" transform="translate(0)">
        <path id="패스_3813" data-name="패스 3813" d="M706.457,834.337a1.723,1.723,0,0,0-2.139-1.146l-8.149,2.466a1.723,1.723,0,0,0-1.145,2.138l.6,1.871,11.408-3.437Z" transform="translate(-694.951 -833.118)" fill="#fff"/>
      </g>
      <g id="그룹_2440" data-name="그룹 2440" transform="translate(0.671 3.111)">
        <path id="패스_3814" data-name="패스 3814" d="M712.632,856.085,708.037,840.9l-11.408,3.437,4.571,15.2a1.717,1.717,0,0,0,2.137,1.146l8.151-2.468A1.717,1.717,0,0,0,712.632,856.085Z" transform="translate(-696.629 -840.9)" fill="#50b4ff"/>
      </g>
    </g>
    <g id="그룹_2447" data-name="그룹 2447" transform="translate(692.879 793.553)">
      <g id="그룹_2446" data-name="그룹 2446" transform="translate(0 0)">
        <g id="그룹_2445" data-name="그룹 2445">
          <g id="그룹_2444" data-name="그룹 2444">
            <g id="그룹_2443" data-name="그룹 2443">
              <g id="그룹_2442" data-name="그룹 2442">
                <path id="패스_3815" data-name="패스 3815" d="M700.772,855.733a2.441,2.441,0,0,1-2.322-1.723l-5.167-17.072a2.428,2.428,0,0,1,1.616-3.021l8.151-2.467a2.427,2.427,0,0,1,3.021,1.617l5.168,17.079a2.425,2.425,0,0,1-1.617,3.016l-8.151,2.467A2.4,2.4,0,0,1,700.772,855.733Zm2.974-22.969a.983.983,0,0,0-.286.042l-8.149,2.466a1.011,1.011,0,0,0-.674,1.255l5.169,17.074a1.024,1.024,0,0,0,1.254.673l8.152-2.468a1.008,1.008,0,0,0,.671-1.249l-5.168-17.077A1.019,1.019,0,0,0,703.746,832.764Z" transform="translate(-693.059 -831.227)" fill="#333"/>
                <path id="패스_3816" data-name="패스 3816" d="M700.592,855.672a2.561,2.561,0,0,1-2.436-1.808l-5.167-17.072a2.548,2.548,0,0,1,1.7-3.17l8.151-2.467a2.547,2.547,0,0,1,3.17,1.7l5.168,17.079a2.544,2.544,0,0,1-1.7,3.165l-8.15,2.467A2.512,2.512,0,0,1,700.592,855.672Zm2.974-24.385a2.3,2.3,0,0,0-.662.1l-8.151,2.467a2.307,2.307,0,0,0-1.536,2.871l5.167,17.072a2.32,2.32,0,0,0,2.207,1.638,2.283,2.283,0,0,0,.664-.1l8.151-2.467A2.3,2.3,0,0,0,710.943,850l-5.168-17.079A2.327,2.327,0,0,0,703.566,831.287ZM700.6,854.254h0a1.156,1.156,0,0,1-1.091-.8l-5.169-17.074a1.131,1.131,0,0,1,.753-1.4l8.149-2.466a1.1,1.1,0,0,1,.321-.047,1.14,1.14,0,0,1,1.084.8l5.168,17.077a1.128,1.128,0,0,1-.751,1.4l-8.152,2.467A1.059,1.059,0,0,1,700.6,854.254Zm2.964-21.551a.859.859,0,0,0-.251.037l-8.149,2.466a.891.891,0,0,0-.594,1.105l5.169,17.074a.912.912,0,0,0,.861.629h0a.835.835,0,0,0,.243-.036L709,851.511a.888.888,0,0,0,.591-1.1l-5.168-17.077A.9.9,0,0,0,703.566,832.7Z" transform="translate(-692.879 -831.047)" fill="#333"/>
              </g>
            </g>
          </g>
        </g>
      </g>
    </g>
  </g>
</svg>
