<svg xmlns="http://www.w3.org/2000/svg" width="59" height="41.558" viewBox="0 0 59 41.558">
  <g id="ncs_19" transform="translate(-426.376 -542.347)">
    <path id="사각형_1851" data-name="사각형 1851" d="M3.906,0H44.142a3.907,3.907,0,0,1,3.907,3.907V32.943a3.908,3.908,0,0,1-3.908,3.908H3.907A3.907,3.907,0,0,1,0,32.944V3.906A3.906,3.906,0,0,1,3.906,0Z" transform="translate(435.067 542.347)" fill="#aac9eb"/>
    <path id="사각형_1852" data-name="사각형 1852" d="M3.907,0H44.142a3.907,3.907,0,0,1,3.907,3.907V32.944a3.907,3.907,0,0,1-3.907,3.907H3.908A3.908,3.908,0,0,1,0,32.943V3.907A3.907,3.907,0,0,1,3.907,0Z" transform="translate(431.852 544.598)" fill="#fff"/>
    <path id="사각형_1853" data-name="사각형 1853" d="M3.315,0H37.464a3.315,3.315,0,0,1,3.315,3.315v25.93a3.316,3.316,0,0,1-3.316,3.316H3.315A3.315,3.315,0,0,1,0,29.246V3.315A3.315,3.315,0,0,1,3.315,0Z" transform="translate(435.487 548.06)" fill="#aac9eb"/>
    <path id="사각형_1854" data-name="사각형 1854" d="M3.119,0H35.244a3.119,3.119,0,0,1,3.119,3.119V27.512a3.12,3.12,0,0,1-3.12,3.12H3.119A3.119,3.119,0,0,1,0,27.513V3.119A3.119,3.119,0,0,1,3.119,0Z" transform="translate(437.903 549.99)" fill="#fff"/>
    <g id="그룹_2580" data-name="그룹 2580" transform="translate(431.187 543.933)">
      <path id="패스_4024" data-name="패스 4024" d="M488.267,585.3H442.815a1.965,1.965,0,0,1-1.963-1.963V549.083a1.966,1.966,0,0,1,1.963-1.964h45.452a1.966,1.966,0,0,1,1.964,1.964v34.254A1.966,1.966,0,0,1,488.267,585.3Zm-45.452-36.851a.635.635,0,0,0-.634.634v34.254a.634.634,0,0,0,.634.634h45.452a.635.635,0,0,0,.634-.634V549.083a.635.635,0,0,0-.634-.634Z" transform="translate(-440.852 -547.12)" fill="#333"/>
    </g>
    <g id="그룹_2581" data-name="그룹 2581" transform="translate(434.822 547.396)">
      <path id="패스_4025" data-name="패스 4025" d="M492.131,591.43H453.555a1.769,1.769,0,0,1-1.766-1.767V559.306a1.769,1.769,0,0,1,1.766-1.767h38.576a1.769,1.769,0,0,1,1.766,1.767v30.357A1.769,1.769,0,0,1,492.131,591.43Zm-38.576-32.562a.438.438,0,0,0-.437.437v30.357a.438.438,0,0,0,.437.438h38.576a.438.438,0,0,0,.437-.438V559.306a.438.438,0,0,0-.437-.437Z" transform="translate(-451.789 -557.539)" fill="#333"/>
    </g>
    <path id="패스_4026" data-name="패스 4026" d="M458.222,649.992a3.816,3.816,0,0,1-3.69-3.407H429.889c.265,3.192,1.583,5.7,4.653,5.7H481.9c3.069,0,4.388-2.511,4.652-5.7H461.911A3.815,3.815,0,0,1,458.222,649.992Z" transform="translate(-2.345 -69.595)" fill="#50b4ff"/>
    <g id="그룹_2582" data-name="그룹 2582" transform="translate(426.376 575.779)">
      <path id="패스_4027" data-name="패스 4027" d="M484.954,643.241H459.28a.539.539,0,0,0-.522.556,2.687,2.687,0,1,1-5.363,0,.539.539,0,0,0-.522-.556H427.2a.54.54,0,0,0-.522.556c0,4.064,1.9,7.371,5.72,7.371h47.361c3.821,0,5.72-3.307,5.72-7.371A.54.54,0,0,0,484.954,643.241Zm-5.2,6.815H432.4c-3.069,0-4.387-2.512-4.652-5.7h24.643a3.7,3.7,0,0,0,7.379,0h24.643C484.144,647.545,482.825,650.056,479.757,650.056Z" transform="translate(-426.576 -643.141)" fill="#333"/>
      <path id="패스_4028" data-name="패스 4028" d="M479.557,651.067H432.2c-3.536,0-5.82-2.933-5.82-7.47a.64.64,0,0,1,.622-.655h25.674a.64.64,0,0,1,.622.655,2.587,2.587,0,1,0,5.164,0,.64.64,0,0,1,.622-.655h25.674a.64.64,0,0,1,.622.655C485.376,648.134,483.092,651.067,479.557,651.067ZM427,643.14a.441.441,0,0,0-.423.456c0,4.417,2.206,7.271,5.62,7.271h47.361c3.414,0,5.62-2.854,5.62-7.271a.441.441,0,0,0-.423-.456H459.08a.441.441,0,0,0-.422.456,2.786,2.786,0,1,1-5.563,0,.441.441,0,0,0-.422-.456Zm52.558,6.815H432.2c-2.753,0-4.441-2.058-4.752-5.8a.1.1,0,0,1,.026-.075.1.1,0,0,1,.073-.032h24.643a.1.1,0,0,1,.1.087,3.6,3.6,0,0,0,7.181,0,.1.1,0,0,1,.1-.087h24.643a.1.1,0,0,1,.1.108C484,647.9,482.311,649.955,479.557,649.955Zm-51.9-5.7c.231,2.537,1.214,5.5,4.544,5.5h47.361c3.33,0,4.313-2.967,4.543-5.5H459.652a3.8,3.8,0,0,1-7.552,0Z" transform="translate(-426.376 -642.941)" fill="#333"/>
    </g>
    <rect id="사각형_1855" data-name="사각형 1855" width="14.67" height="1.494" transform="translate(439.497 567.572)" fill="#aac9eb"/>
    <rect id="사각형_1856" data-name="사각형 1856" width="14.67" height="1.494" transform="translate(439.497 563.464)" fill="#aac9eb"/>
    <rect id="사각형_1857" data-name="사각형 1857" width="27.93" height="1.494" transform="translate(439.497 571.532)" fill="#aac9eb"/>
  </g>
</svg>
