<svg xmlns="http://www.w3.org/2000/svg" width="46" height="60.301" viewBox="0 0 46 60.301">
  <g id="ncs_16" transform="translate(-284.171 -316.922)">
    <g id="그룹_2727" data-name="그룹 2727" transform="translate(284.171 316.922)">
      <g id="그룹_2726" data-name="그룹 2726" transform="translate(0 0)">
        <path id="패스_4221" data-name="패스 4221" d="M341.618,445l-9.624-5.057L322.37,445V430.119h19.248Z" transform="translate(-308.994 -390.482)" fill="#fff"/>
        <path id="패스_4222" data-name="패스 4222" d="M331.993,430.1a15.511,15.511,0,0,1-9.623-3.338v5.763l3.314,3.928,6.311-1.944,6.309,1.944,3.314-3.928v-5.763A15.513,15.513,0,0,1,331.993,430.1Z" transform="translate(-308.994 -388.298)" fill="#aac9eb"/>
        <path id="패스_4223" data-name="패스 4223" d="M321.651,338.585a15.2,15.2,0,1,0,15.2,15.2A15.214,15.214,0,0,0,321.651,338.585Z" transform="translate(-298.651 -330.999)" fill="#aac9eb"/>
        <path id="패스_4224" data-name="패스 4224" d="M318.07,332.619a15.2,15.2,0,1,0,15.2,15.2A15.215,15.215,0,0,0,318.07,332.619Z" transform="translate(-296.325 -327.122)" fill="#fff"/>
        <g id="그룹_2721" data-name="그룹 2721" transform="translate(12.676 38.937)">
          <path id="패스_4225" data-name="패스 4225" d="M320.37,444.856V428.119h20.648v16.737l-10.325-5.425Zm10.324-7.007,8.924,4.689V429.52H321.771v13.018Z" transform="translate(-320.37 -428.119)" fill="#333"/>
        </g>
        <g id="그룹_2722" data-name="그룹 2722" transform="translate(0.831 0.84)">
          <path id="패스_4226" data-name="패스 4226" d="M328.061,338.935l1.026-6.522-5.6-3.5-2.663-6.041-6.6.086-5.506-3.642-5.507,3.642-6.6-.086-2.664,6.041-5.6,3.5,1.024,6.522-2.82,5.969,4.389,4.933.853,6.547,6.359,1.777,4.259,5.046,6.311-1.943,6.309,1.943,4.258-5.046,6.359-1.777.854-6.547,4.389-4.933Zm-19.349,17.918A15.591,15.591,0,1,1,324.3,341.263,15.607,15.607,0,0,1,308.712,356.854Z" transform="translate(-286.544 -319.32)" fill="#50b4ff"/>
        </g>
        <path id="패스_4227" data-name="패스 4227" d="M333.573,370.065l-5.422,2.852,1.036-6.038L324.8,362.6l6.062-.881,2.71-5.493,2.711,5.493,6.061.881-4.387,4.276L339,372.917Z" transform="translate(-310.574 -342.465)" fill="#50b4ff"/>
        <g id="그룹_2723" data-name="그룹 2723">
          <path id="패스_4228" data-name="패스 4228" d="M313.717,362.454l-6.546-2.016-6.547,2.016-4.418-5.235-6.6-1.844-.886-6.792-4.553-5.118,2.926-6.192-1.063-6.767,5.81-3.627,2.764-6.267,6.851.09,5.714-3.779,5.713,3.779,6.85-.09,2.763,6.267,5.811,3.627-1.064,6.767,2.927,6.192-4.553,5.118-.886,6.792-6.6,1.844Zm-22.839-8.178,6.12,1.711,4.1,4.857,6.074-1.87,6.073,1.87,4.1-4.857,6.121-1.711.822-6.3,4.224-4.748-2.715-5.745.987-6.278-5.39-3.365-2.564-5.814-6.355.083-5.3-3.506-5.3,3.506-6.356-.083-2.564,5.814-5.389,3.365.985,6.278-2.714,5.745,4.224,4.748Z" transform="translate(-284.171 -316.922)" fill="#333"/>
        </g>
        <g id="그룹_2724" data-name="그룹 2724" transform="translate(6.709 6.492)">
          <path id="패스_4229" data-name="패스 4229" d="M319.621,368.043a16.291,16.291,0,1,1,16.292-16.291A16.309,16.309,0,0,1,319.621,368.043Zm0-31.182a14.89,14.89,0,1,0,14.891,14.89A14.907,14.907,0,0,0,319.621,336.862Z" transform="translate(-303.331 -335.461)" fill="#333"/>
        </g>
        <g id="그룹_2725" data-name="그룹 2725" transform="translate(12.722 12.181)">
          <path id="패스_4230" data-name="패스 4230" d="M337.133,371.26l-6.353-3.341-6.352,3.341,1.214-7.074-5.139-5.01,7.1-1.032,3.175-6.435,3.176,6.435,7.1,1.033-5.14,5.009Zm-6.353-4.923,4.492,2.363-.859-5,3.634-3.543-5.022-.73-2.246-4.55-2.246,4.55-5.022.73,3.634,3.543-.859,5Z" transform="translate(-320.503 -351.709)" fill="#333"/>
        </g>
      </g>
    </g>
    <path id="패스_4231" data-name="패스 4231" d="M339.3,477.388c0,1.376-5.52,2.492-12.328,2.492s-12.328-1.116-12.328-2.492,5.52-2.492,12.328-2.492S339.3,476.012,339.3,477.388Z" transform="translate(-19.805 -102.658)" fill="#aac9eb"/>
  </g>
</svg>
