<svg xmlns="http://www.w3.org/2000/svg" width="41" height="50.692" viewBox="0 0 41 50.692">
  <g id="ncs_18" transform="translate(-698.608 -510.103)">
    <path id="사각형_1820" data-name="사각형 1820" d="M2.063,0H34.786a2.063,2.063,0,0,1,2.063,2.063V36.1a2.063,2.063,0,0,1-2.062,2.063H2.062A2.062,2.062,0,0,1,0,36.1V2.063A2.063,2.063,0,0,1,2.063,0Z" transform="translate(700.906 522.634)" fill="#aac9eb"/>
    <path id="패스_3817" data-name="패스 3817" d="M746.6,513.81l7.254,6.481,7.253-6.481Z" transform="translate(-32.837 -2.537)" fill="#fff"/>
    <path id="패스_3818" data-name="패스 3818" d="M740.649,535.938a.51.51,0,0,1-.5.015l-8.345-4.39-8.345,4.39a.509.509,0,0,1-.5-.015.508.508,0,0,1-.245-.434v-7.051h-8.337v38.192H731.3V532.206a.506.506,0,0,1,1.013,0v34.439h16.919V528.453h-8.337V535.5A.509.509,0,0,1,740.649,535.938Z" transform="translate(-10.793 -12.557)" fill="#fff"/>
    <path id="패스_3819" data-name="패스 3819" d="M751.772,528.085a.615.615,0,0,0,.132-1.072l-6.889-6.155c-.389-.347-.706-.205-.706.316v9.888a.526.526,0,0,0,.838.506Z" transform="translate(-31.272 -7.229)" fill="#aac9eb"/>
    <path id="패스_3820" data-name="패스 3820" d="M766.015,521.184a1.024,1.024,0,0,0,.22,1.786l7.288,3.833a.876.876,0,0,0,1.4-.844V514.806c0-.868-.529-1.105-1.177-.527Z" transform="translate(-45.833 -2.641)" fill="#aac9eb"/>
    <path id="패스_3821" data-name="패스 3821" d="M705.112,577.689V543.853h-2.8v36.938H736.95v-2.6H705.618A.507.507,0,0,1,705.112,577.689Z" transform="translate(-2.537 -23.095)" fill="#50b4ff"/>
    <path id="패스_3822" data-name="패스 3822" d="M751.188,522.217l-7.193-6.427V526Z" transform="translate(-31.058 -3.892)" fill="#50b4ff"/>
    <path id="패스_3823" data-name="패스 3823" d="M772.364,522.217,779.557,526V515.79Z" transform="translate(-50.47 -3.892)" fill="#50b4ff"/>
    <g id="그룹_2459" data-name="그룹 2459" transform="translate(702.417 510.103)">
      <g id="그룹_2450" data-name="그룹 2450" transform="translate(9.35 0.001)">
        <g id="그룹_2449" data-name="그룹 2449">
          <path id="패스_3824" data-name="패스 3824" d="M741.294,523.8a.506.506,0,0,1-.507-.507v-12.18a.507.507,0,0,1,.844-.378l8.581,7.667a.508.508,0,0,1-.1.827l-8.581,4.514A.514.514,0,0,1,741.294,523.8Zm.506-11.556v10.21l7.193-3.783Z" transform="translate(-740.629 -510.447)" fill="#333"/>
          <path id="패스_3825" data-name="패스 3825" d="M740.952,523.615a.665.665,0,0,1-.665-.665V510.77a.665.665,0,0,1,.393-.606.675.675,0,0,1,.714.11l8.581,7.667a.666.666,0,0,1-.133,1.084l-8.582,4.514A.672.672,0,0,1,740.952,523.615Zm0-13.193a.353.353,0,0,0-.144.031.349.349,0,0,0-.206.318v12.18a.351.351,0,0,0,.169.3.356.356,0,0,0,.343.01l8.581-4.513a.35.35,0,0,0,.07-.57l-8.581-7.667A.348.348,0,0,0,740.952,510.422Zm.348,11.951V511.549l7.626,6.814Zm.316-10.119v9.6l6.761-3.556Z" transform="translate(-740.287 -510.108)" fill="#333"/>
        </g>
      </g>
      <g id="그룹_2452" data-name="그룹 2452" transform="translate(17.931 0.002)">
        <g id="그룹_2451" data-name="그룹 2451">
          <path id="패스_3826" data-name="패스 3826" d="M777.055,523.8a.514.514,0,0,1-.236-.058l-8.581-4.514a.508.508,0,0,1-.1-.827l8.581-7.667a.507.507,0,0,1,.844.378v12.18a.506.506,0,0,1-.506.507Zm-7.7-5.128,7.193,3.783v-10.21Z" transform="translate(-767.81 -510.447)" fill="#333"/>
          <path id="패스_3827" data-name="패스 3827" d="M776.713,523.616a.672.672,0,0,1-.309-.075l-8.582-4.514a.665.665,0,0,1-.134-1.084l8.581-7.667a.677.677,0,0,1,.714-.111.665.665,0,0,1,.393.607v12.18a.663.663,0,0,1-.664.665Zm0-13.193a.349.349,0,0,0-.233.088l-8.581,7.667a.35.35,0,0,0,.071.57l8.58,4.513a.358.358,0,0,0,.343-.011.352.352,0,0,0,.168-.3v-12.18a.349.349,0,0,0-.206-.318A.354.354,0,0,0,776.713,510.423Zm-.348,11.951-7.626-4.011,7.626-6.814Zm-7.076-4.079,6.761,3.556v-9.6Z" transform="translate(-767.467 -510.109)" fill="#333"/>
        </g>
      </g>
      <g id="그룹_2454" data-name="그룹 2454" transform="translate(9.35)">
        <g id="그룹_2453" data-name="그룹 2453">
          <path id="패스_3828" data-name="패스 3828" d="M758.456,511.616H741.294a.506.506,0,1,1,0-1.013h17.162a.506.506,0,1,1,0,1.013Z" transform="translate(-740.629 -510.445)" fill="#333"/>
          <path id="패스_3829" data-name="패스 3829" d="M758.114,511.431H740.952a.664.664,0,1,1,0-1.328h17.162a.664.664,0,1,1,0,1.328Zm-17.162-1.013a.348.348,0,1,0,0,.7h17.162a.348.348,0,1,0,0-.7Z" transform="translate(-740.287 -510.103)" fill="#333"/>
        </g>
      </g>
      <g id="그룹_2456" data-name="그룹 2456" transform="translate(0 4.623)">
        <g id="그룹_2455" data-name="그룹 2455">
          <path id="패스_3830" data-name="패스 3830" d="M729.61,565.463H711.678a.507.507,0,0,1-.506-.506v-39.2a.507.507,0,0,1,.506-.507h9.351a.506.506,0,0,1,0,1.013h-8.844v38.192H729.1V530.011a.506.506,0,1,1,1.013,0v34.945A.506.506,0,0,1,729.61,565.463Z" transform="translate(-711.014 -525.087)" fill="#333"/>
          <path id="패스_3831" data-name="패스 3831" d="M729.268,565.278H711.336a.665.665,0,0,1-.664-.664v-39.2a.665.665,0,0,1,.664-.665h9.351a.664.664,0,0,1,0,1.329H712v37.876h16.6V529.669a.664.664,0,1,1,1.329,0v34.945A.665.665,0,0,1,729.268,565.278Zm-17.931-40.218a.349.349,0,0,0-.349.349v39.2a.349.349,0,0,0,.349.349h17.931a.349.349,0,0,0,.349-.349V529.669a.349.349,0,0,0-.7,0v34.6H711.685V525.758h9a.349.349,0,0,0,0-.7Z" transform="translate(-710.672 -524.745)" fill="#333"/>
        </g>
      </g>
      <g id="그룹_2458" data-name="그룹 2458" transform="translate(17.931 4.623)">
        <g id="그룹_2457" data-name="그룹 2457">
          <path id="패스_3832" data-name="패스 3832" d="M786.406,565.463H768.474a.506.506,0,0,1-.506-.506V530.011a.506.506,0,1,1,1.013,0v34.439H785.9V526.258h-8.844a.506.506,0,1,1,0-1.013h9.35a.507.507,0,0,1,.506.507v39.2A.506.506,0,0,1,786.406,565.463Z" transform="translate(-767.81 -525.087)" fill="#333"/>
          <path id="패스_3833" data-name="패스 3833" d="M786.063,565.278H768.132a.665.665,0,0,1-.664-.664V529.669a.664.664,0,1,1,1.329,0v34.281h16.6V526.074h-8.686a.664.664,0,0,1,0-1.329h9.35a.665.665,0,0,1,.664.665v39.2A.665.665,0,0,1,786.063,565.278ZM768.132,529.32a.349.349,0,0,0-.349.349v34.945a.349.349,0,0,0,.349.349h17.931a.349.349,0,0,0,.349-.349v-39.2a.349.349,0,0,0-.349-.349h-9.35a.349.349,0,1,0,0,.7h9v38.507H768.481v-34.6A.349.349,0,0,0,768.132,529.32Z" transform="translate(-767.468 -524.745)" fill="#333"/>
        </g>
      </g>
    </g>
    <g id="그룹_2461" data-name="그룹 2461" transform="translate(698.608 519.588)">
      <g id="그룹_2460" data-name="그룹 2460" transform="translate(0 0)">
        <path id="패스_3834" data-name="패스 3834" d="M735.261,579.61H699.614a.506.506,0,0,1-.506-.506v-37.95a.507.507,0,0,1,.506-.507h3.809a.506.506,0,1,1,0,1.012h-3.3V578.6h34.634v-2.7a.507.507,0,0,1,1.013,0V579.1A.506.506,0,0,1,735.261,579.61Z" transform="translate(-698.95 -540.488)" fill="#333"/>
        <path id="패스_3835" data-name="패스 3835" d="M734.919,579.425H699.272a.665.665,0,0,1-.664-.664v-37.95a.665.665,0,0,1,.664-.665h3.809a.664.664,0,1,1,0,1.328h-3.145V578.1h34.318v-2.542a.664.664,0,0,1,1.329,0v3.206A.665.665,0,0,1,734.919,579.425Zm-35.647-38.964a.349.349,0,0,0-.349.349v37.95a.349.349,0,0,0,.349.349h35.647a.349.349,0,0,0,.349-.349v-3.206a.349.349,0,0,0-.7,0v2.857h-34.95V541.158h3.46a.348.348,0,1,0,0-.7Z" transform="translate(-698.608 -540.146)" fill="#333"/>
      </g>
    </g>
    <path id="패스_3836" data-name="패스 3836" d="M780.369,560.285a1.549,1.549,0,1,1-1.549-1.549A1.549,1.549,0,0,1,780.369,560.285Z" transform="translate(-53.828 -33.279)" fill="#aac9eb"/>
    <path id="패스_3837" data-name="패스 3837" d="M780.369,578.364a1.549,1.549,0,1,1-1.549-1.549A1.549,1.549,0,0,1,780.369,578.364Z" transform="translate(-53.828 -45.65)" fill="#aac9eb"/>
  </g>
</svg>
