<svg xmlns="http://www.w3.org/2000/svg" width="43.499" height="44.833" viewBox="0 0 43.499 44.833">
  <g id="ncs_22" transform="translate(-433.503 -295.87)">
    <path id="패스_4165" data-name="패스 4165" d="M484.976,298.192a.245.245,0,0,0-.249-.322h-35.2a.454.454,0,0,0-.416.322l-3.576,13.857a1.535,1.535,0,0,0,0,.644l3.576,13.857a1.523,1.523,0,0,1,0,.644l-3.576,13.857a.246.246,0,0,0,.249.322h35.2a.453.453,0,0,0,.416-.322l3.576-13.857a1.524,1.524,0,0,0,0-.644L481.4,312.693a1.536,1.536,0,0,1,0-.644Z" transform="translate(-8.009 -1.335)" fill="#aac9eb"/>
    <g id="그룹_2693" data-name="그룹 2693" transform="translate(433.503 295.87)">
      <path id="패스_4166" data-name="패스 4166" d="M435.356,312.371l3.742-14.5h35.863l-3.742,14.5Z" transform="translate(-434.74 -297.205)" fill="#fff"/>
      <path id="패스_4167" data-name="패스 4167" d="M435.356,399.575l3.742-14.5h35.863l-3.742,14.5Z" transform="translate(-434.74 -355.407)" fill="#fff"/>
      <path id="패스_4168" data-name="패스 4168" d="M435.356,341.472l3.742,14.5h35.863l-3.742-14.5Z" transform="translate(-434.74 -326.306)" fill="#aac9eb"/>
      <g id="그룹_2692" data-name="그룹 2692" transform="translate(0 0)">
        <path id="패스_4169" data-name="패스 4169" d="M469.65,340.7h-35.2a.91.91,0,0,1-.893-1.154l3.576-13.857a.924.924,0,0,0,0-.311l-3.576-13.857a2.171,2.171,0,0,1,0-.977l3.576-13.857a1.123,1.123,0,0,1,1.06-.821h35.2a.91.91,0,0,1,.894,1.153L470.71,310.88a.909.909,0,0,0,0,.312l3.576,13.857a2.171,2.171,0,0,1,0,.976l-3.576,13.857A1.123,1.123,0,0,1,469.65,340.7Zm-34.672-1.33h34.49L473,325.693a.9.9,0,0,0,0-.311l-3.575-13.857a2.163,2.163,0,0,1,0-.977l3.444-13.347H438.376l-3.53,13.68a.924.924,0,0,0,0,.312l3.576,13.857a2.171,2.171,0,0,1,0,.976Z" transform="translate(-433.503 -295.87)" fill="#333"/>
      </g>
      <path id="패스_4170" data-name="패스 4170" d="M481.929,309.627H454.658l.253-1.615h27.271Z" transform="translate(-447.622 -303.974)" fill="#50b4ff"/>
      <path id="패스_4171" data-name="패스 4171" d="M479.652,324.047H452.382l.252-1.615H479.9Z" transform="translate(-446.103 -313.598)" fill="#50b4ff"/>
      <path id="패스_4172" data-name="패스 4172" d="M481.929,398.851H454.658l.253-1.615h27.271Z" transform="translate(-447.622 -363.524)" fill="#50b4ff"/>
      <path id="패스_4173" data-name="패스 4173" d="M479.652,413.272H452.382l.252-1.616H479.9Z" transform="translate(-446.103 -373.149)" fill="#50b4ff"/>
      <path id="패스_4174" data-name="패스 4174" d="M481.929,368.054H454.658l.253,1.615h27.271Z" transform="translate(-447.622 -344.047)" fill="#fff"/>
      <path id="패스_4175" data-name="패스 4175" d="M479.652,353.634H452.382l.252,1.615H479.9Z" transform="translate(-446.103 -334.423)" fill="#fff"/>
    </g>
  </g>
</svg>
