<svg xmlns="http://www.w3.org/2000/svg" width="50.001" height="51.228" viewBox="0 0 50.001 51.228">
  <g id="ncs_20" transform="translate(-590.094 -291.377)">
    <g id="그룹_2504" data-name="그룹 2504" transform="translate(590.094 295.002)">
      <path id="패스_3853" data-name="패스 3853" d="M649.87,430.019c0,1.945-7.8,3.521-17.418,3.521s-17.418-1.576-17.418-3.521,7.8-3.521,17.418-3.521S649.87,428.074,649.87,430.019Z" transform="translate(-606.879 -385.937)" fill="#aac9eb"/>
      <rect id="사각형_1823" data-name="사각형 1823" width="11.968" height="3.042" transform="translate(19.644 33.201)" fill="#aac9eb"/>
      <path id="패스_3854" data-name="패스 3854" d="M641.275,307.137a1.269,1.269,0,0,0-1.268-1.267H594.772a1.268,1.268,0,0,0-1.267,1.267v23.382h47.77Z" transform="translate(-592.39 -304.755)" fill="#fff"/>
      <path id="패스_3855" data-name="패스 3855" d="M626.444,428.513h23.317a3.141,3.141,0,0,0,3.1-2.628H623.349A3.142,3.142,0,0,0,626.444,428.513Z" transform="translate(-612.474 -385.524)" fill="#aac9eb"/>
      <path id="패스_3856" data-name="패스 3856" d="M655.426,418.487l-5.92-2.083H636.695l-5.92,2.083Z" transform="translate(-617.472 -379.144)" fill="#fff"/>
      <g id="그룹_2472" data-name="그룹 2472" transform="translate(0 26.273)">
        <path id="패스_3857" data-name="패스 3857" d="M609.433,388.715H592.678a1.269,1.269,0,0,1-1.267-1.267v-4.135H590.9a.509.509,0,0,1-.509-.509v4.644a2.287,2.287,0,0,0,2.284,2.284h16.245v-.509A.508.508,0,0,1,609.433,388.715Z" transform="translate(-590.296 -382.804)" fill="#333"/>
        <path id="패스_3858" data-name="패스 3858" d="M608.82,389.83H592.476a2.385,2.385,0,0,1-2.382-2.382V382.8h.2a.411.411,0,0,0,.411.411h.606v4.233a1.17,1.17,0,0,0,1.169,1.169h16.754v.2a.411.411,0,0,0-.411.41Zm-18.529-6.58v4.2a2.189,2.189,0,0,0,2.186,2.186h16.147v-.411a.6.6,0,0,1,.161-.41H592.476a1.366,1.366,0,0,1-1.365-1.365v-4.037h-.41A.6.6,0,0,1,590.29,383.25Z" transform="translate(-590.094 -382.804)" fill="#333"/>
      </g>
      <g id="그룹_2473" data-name="그룹 2473" transform="translate(32.12 26.273)">
        <path id="패스_3859" data-name="패스 3859" d="M705.593,383.313h-.508v4.135a1.269,1.269,0,0,1-1.267,1.267h-15.5a.508.508,0,0,1,.508.508v.509h14.989a2.287,2.287,0,0,0,2.284-2.284V382.8A.509.509,0,0,1,705.593,383.313Z" transform="translate(-688.32 -382.804)" fill="#333"/>
        <path id="패스_3860" data-name="패스 3860" d="M703.818,389.83H688.73v-.607a.411.411,0,0,0-.41-.41v-.2h15.5a1.171,1.171,0,0,0,1.17-1.169v-4.233h.606A.411.411,0,0,0,706,382.8h.2v4.644A2.385,2.385,0,0,1,703.818,389.83Zm-14.892-.2h14.892A2.189,2.189,0,0,0,706,387.448v-4.2a.6.6,0,0,1-.411.161h-.41v4.037a1.367,1.367,0,0,1-1.365,1.365H688.766a.6.6,0,0,1,.16.41Z" transform="translate(-688.32 -382.804)" fill="#333"/>
      </g>
      <g id="그룹_2474" data-name="그룹 2474" transform="translate(0 25.666)">
        <path id="패스_3861" data-name="패스 3861" d="M590.9,382.266h.508v-1.017H590.9a.509.509,0,1,0,0,1.017Z" transform="translate(-590.296 -381.151)" fill="#333"/>
        <path id="패스_3862" data-name="패스 3862" d="M591.308,382.163H590.7a.607.607,0,1,1,0-1.214h.606Zm-.606-1.017a.411.411,0,1,0,0,.821h.41v-.821Z" transform="translate(-590.094 -380.949)" fill="#333"/>
      </g>
      <g id="그룹_2475" data-name="그룹 2475" transform="translate(48.788 25.666)">
        <path id="패스_3863" data-name="패스 3863" d="M740.1,381.249h-.508v1.017h.508a.509.509,0,1,0,0-1.017Z" transform="translate(-739.491 -381.151)" fill="#333"/>
        <path id="패스_3864" data-name="패스 3864" d="M739.9,382.163h-.606v-1.214h.606a.607.607,0,1,1,0,1.214Zm-.41-.2h.41a.411.411,0,1,0,0-.821h-.41Z" transform="translate(-739.29 -380.949)" fill="#333"/>
      </g>
      <g id="그룹_2476" data-name="그룹 2476" transform="translate(18.529 33.103)">
        <path id="패스_3865" data-name="패스 3865" d="M647.567,407.033h.508v-3.042h-1.017v3.19l.339-.119A.517.517,0,0,1,647.567,407.033Z" transform="translate(-646.96 -403.893)" fill="#333"/>
        <path id="패스_3866" data-name="패스 3866" d="M646.758,407.118v-3.427h1.213v3.238h-.605a.426.426,0,0,0-.138.024Zm.2-3.231v2.954l.208-.074a.62.62,0,0,1,.2-.034h.41v-2.846Z" transform="translate(-646.758 -403.691)" fill="#333"/>
      </g>
      <g id="그룹_2477" data-name="그룹 2477" transform="translate(31.514 33.103)">
        <path id="패스_3867" data-name="패스 3867" d="M686.765,407.033h.509a.516.516,0,0,1,.169.029l.339.12v-3.191h-1.017Z" transform="translate(-686.667 -403.893)" fill="#333"/>
        <path id="패스_3868" data-name="패스 3868" d="M687.678,407.118l-.47-.166a.424.424,0,0,0-.137-.023h-.607v-3.238h1.213Zm-1.017-.385h.41a.615.615,0,0,1,.2.034l.209.074v-2.954h-.821Z" transform="translate(-686.465 -403.691)" fill="#333"/>
      </g>
      <g id="그룹_2478" data-name="그룹 2478" transform="translate(18.529 32.086)">
        <path id="패스_3869" data-name="패스 3869" d="M660.551,400.881H647.567a.508.508,0,0,0-.509.508v.509h14v-.509A.508.508,0,0,0,660.551,400.881Z" transform="translate(-646.96 -400.783)" fill="#333"/>
        <path id="패스_3870" data-name="패스 3870" d="M660.955,401.794h-14.2v-.607a.608.608,0,0,1,.607-.606h12.984a.607.607,0,0,1,.606.606Zm-14-.2h13.805v-.411a.411.411,0,0,0-.41-.41H647.365a.411.411,0,0,0-.411.41Z" transform="translate(-646.758 -400.581)" fill="#333"/>
      </g>
      <g id="그룹_2479" data-name="그룹 2479" transform="translate(41.364 39.588)">
        <path id="패스_3871" data-name="패스 3871" d="M716.588,423.521l.01.02Z" transform="translate(-716.588 -423.521)" fill="#333"/>
      </g>
      <g id="그룹_2480" data-name="그룹 2480" transform="translate(9.882 39.588)">
        <path id="패스_3872" data-name="패스 3872" d="M620.314,423.541c0-.006.007-.012.01-.018S620.318,423.535,620.314,423.541Z" transform="translate(-620.314 -423.523)" fill="#333"/>
      </g>
      <g id="그룹_2481" data-name="그룹 2481" transform="translate(9.826 39.756)">
        <path id="패스_3873" data-name="패스 3873" d="M620.142,424.043a.025.025,0,0,1,0-.006A.025.025,0,0,0,620.142,424.043Z" transform="translate(-620.142 -424.037)" fill="#333"/>
      </g>
      <g id="그룹_2482" data-name="그룹 2482" transform="translate(9.931 39.38)">
        <path id="패스_3874" data-name="패스 3874" d="M620.65,423.132l.019-.015Z" transform="translate(-620.589 -423.042)" fill="#333"/>
        <path id="패스_3875" data-name="패스 3875" d="M620.594,423.046l-.131-.146.008-.007,0,.006,0-.006.062.076-.062-.076.062.076-.06-.078.034.037-.027-.042.125.151-.016-.015.013.017-.069-.07.062.076-.008-.008Z" transform="translate(-620.462 -422.886)" fill="#333"/>
      </g>
      <g id="그룹_2483" data-name="그룹 2483" transform="translate(41.43 39.755)">
        <path id="패스_3876" data-name="패스 3876" d="M716.789,424.033a.069.069,0,0,1,0,.012A.074.074,0,0,0,716.789,424.033Z" transform="translate(-716.789 -424.033)" fill="#333"/>
      </g>
      <g id="그룹_2484" data-name="그룹 2484" transform="translate(10.093 36.253)">
        <path id="패스_3877" data-name="패스 3877" d="M624.285,416.7l5.92-2.083h-.086a.509.509,0,0,1-.509-.509v-.36l-8.471,2.981-.006,0a.5.5,0,0,1,.175-.033Z" transform="translate(-621.076 -413.608)" fill="#333"/>
        <path id="패스_3878" data-name="패스 3878" d="M621.051,416.539l-.035-.092-.056-.079.03-.017,8.6-3.027v.5a.411.411,0,0,0,.411.411h.661l-6.494,2.279h-2.978A.4.4,0,0,0,621.051,416.539Zm.629-.223h2.473l5.565-1.958a.608.608,0,0,1-.322-.536V413.6Z" transform="translate(-620.96 -413.323)" fill="#333"/>
      </g>
      <g id="그룹_2485" data-name="그룹 2485" transform="translate(31.459 36.253)">
        <path id="패스_3879" data-name="패스 3879" d="M688.141,414.617h-.087l5.92,2.083h2.978a.494.494,0,0,1,.176.034l-.008,0-8.471-2.981v.36A.508.508,0,0,1,688.141,414.617Z" transform="translate(-687.48 -413.609)" fill="#333"/>
        <path id="패스_3880" data-name="패스 3880" d="M695.912,416.539h0a.4.4,0,0,0-.139-.026l-3.011-.006-6.462-2.274h.662a.411.411,0,0,0,.41-.411v-.5L696,416.365l-.052.082Zm-3.1-.223h2.48l-7.724-2.715v.221a.606.606,0,0,1-.321.536Z" transform="translate(-686.297 -413.324)" fill="#333"/>
      </g>
      <g id="그룹_2486" data-name="그룹 2486" transform="translate(41.185 39.378)">
        <path id="패스_3881" data-name="패스 3881" d="M716.226,423.115l.019.016Z" transform="translate(-716.165 -423.038)" fill="#333"/>
        <path id="패스_3882" data-name="패스 3882" d="M716.051,423.045l.067-.071-.067.071.067-.071-.074.066.016-.022-.022.017.123-.153.025.021Z" transform="translate(-716.039 -422.881)" fill="#333"/>
      </g>
      <g id="그룹_2487" data-name="그룹 2487" transform="translate(18.529 36.145)">
        <path id="패스_3883" data-name="패스 3883" d="M660.551,413.294H647.567a.516.516,0,0,0-.17.029l-.339.119v.36a.509.509,0,0,0,.509.509h12.984a.509.509,0,0,0,.508-.509v-.36l-.339-.12A.515.515,0,0,0,660.551,413.294Z" transform="translate(-646.96 -413.196)" fill="#333"/>
        <path id="패스_3884" data-name="패스 3884" d="M660.349,414.207H647.365a.608.608,0,0,1-.607-.607v-.43l.4-.143a.621.621,0,0,1,.2-.034h12.984a.614.614,0,0,1,.2.034l.4.143v.429A.607.607,0,0,1,660.349,414.207Zm-13.395-.9v.291a.411.411,0,0,0,.411.411h12.984a.411.411,0,0,0,.41-.411v-.29l-.274-.1a.427.427,0,0,0-.137-.023H647.365a.427.427,0,0,0-.138.024Z" transform="translate(-646.758 -412.994)" fill="#333"/>
      </g>
      <g id="그룹_2488" data-name="그룹 2488" transform="translate(41.074 39.285)">
        <path id="패스_3885" data-name="패스 3885" d="M715.8,422.877a.5.5,0,0,1,.138.078A.506.506,0,0,0,715.8,422.877Z" transform="translate(-715.77 -422.785)" fill="#333"/>
        <path id="패스_3886" data-name="패스 3886" d="M715.812,422.842a.425.425,0,0,0-.111-.063l.068-.184a.609.609,0,0,1,.164.092h0Z" transform="translate(-715.7 -422.595)" fill="#333"/>
      </g>
      <g id="그룹_2489" data-name="그룹 2489" transform="translate(41.2 39.397)">
        <path id="패스_3887" data-name="패스 3887" d="M716.283,423.164a.519.519,0,0,1,.1.117A.5.5,0,0,0,716.283,423.164Z" transform="translate(-716.218 -423.09)" fill="#333"/>
        <path id="패스_3888" data-name="패스 3888" d="M716.166,423.18h0c-.008-.013-.016-.025-.025-.036h0a.443.443,0,0,0-.055-.058l.129-.148a.594.594,0,0,1,.08.084h0a.57.57,0,0,1,.038.055Z" transform="translate(-716.085 -422.937)" fill="#333"/>
      </g>
      <g id="그룹_2490" data-name="그룹 2490" transform="translate(41.288 39.559)">
        <path id="패스_3889" data-name="패스 3889" d="M716.619,423.581a.513.513,0,0,1,.056.148A.5.5,0,0,0,716.619,423.581Z" transform="translate(-716.533 -423.533)" fill="#333"/>
        <path id="패스_3890" data-name="패스 3890" d="M716.4,423.649a.408.408,0,0,0-.045-.119l.171-.1h0a.607.607,0,0,1,.066.177Z" transform="translate(-716.356 -423.434)" fill="#333"/>
      </g>
      <g id="그룹_2491" data-name="그룹 2491" transform="translate(9.73 39.558)">
        <path id="패스_3891" data-name="패스 3891" d="M620.144,423.727a.484.484,0,0,1,.056-.15A.489.489,0,0,0,620.144,423.727Z" transform="translate(-620.048 -423.529)" fill="#333"/>
        <path id="패스_3892" data-name="패스 3892" d="M620.042,423.647l-.193-.034h0a.492.492,0,0,1,.018-.07h0a.618.618,0,0,1,.048-.11l.172.095a.469.469,0,0,0-.034.076h0A.347.347,0,0,0,620.042,423.647Z" transform="translate(-619.849 -423.431)" fill="#333"/>
      </g>
      <g id="그룹_2492" data-name="그룹 2492" transform="translate(9.809 39.396)">
        <path id="패스_3893" data-name="패스 3893" d="M620.345,423.28a.507.507,0,0,1,.1-.118A.51.51,0,0,0,620.345,423.28Z" transform="translate(-620.261 -423.088)" fill="#333"/>
        <path id="패스_3894" data-name="패스 3894" d="M620.256,423.179l-.167-.1a.576.576,0,0,1,.062-.084h0a.651.651,0,0,1,.057-.057l.13.147a.419.419,0,0,0-.039.04A.4.4,0,0,0,620.256,423.179Z" transform="translate(-620.089 -422.936)" fill="#333"/>
      </g>
      <g id="그룹_2493" data-name="그룹 2493" transform="translate(9.718 39.743)">
        <path id="패스_3895" data-name="패스 3895" d="M651.228,424.654h-.55a3.141,3.141,0,0,1-3.1,2.628H624.266a3.142,3.142,0,0,1-3.1-2.628h-.55a.508.508,0,0,1-.5-.423.491.491,0,0,1,0-.175.479.479,0,0,0-.01.09,4.158,4.158,0,0,0,4.153,4.153h23.317a4.157,4.157,0,0,0,4.153-4.153.505.505,0,0,0-.008-.085.5.5,0,0,1-.5.594Z" transform="translate(-620.015 -424.037)" fill="#333"/>
        <path id="패스_3896" data-name="패스 3896" d="M647.382,428.358H624.065a4.256,4.256,0,0,1-4.252-4.251.541.541,0,0,1,.011-.108h0l.193.038a.386.386,0,0,0,0,.14.409.409,0,0,0,.4.341h.633l.013.082a3.027,3.027,0,0,0,3,2.545h23.317a3.026,3.026,0,0,0,3-2.545l.013-.082h.633a.411.411,0,0,0,.4-.342.424.424,0,0,0,0-.138l.193-.034a.563.563,0,0,1,.01.1A4.256,4.256,0,0,1,647.382,428.358Zm-27.345-3.78a4.061,4.061,0,0,0,4.028,3.584h23.317a4.061,4.061,0,0,0,4.027-3.584.6.6,0,0,1-.383.135h-.467a3.221,3.221,0,0,1-3.177,2.627H624.065a3.221,3.221,0,0,1-3.177-2.627h-.468A.606.606,0,0,1,620.036,424.577Z" transform="translate(-619.813 -423.998)" fill="#333"/>
      </g>
      <g id="그룹_2494" data-name="그룹 2494" transform="translate(9.949 39.284)">
        <path id="패스_3897" data-name="패스 3897" d="M620.707,422.955a.486.486,0,0,1,.139-.079A.489.489,0,0,0,620.707,422.955Z" transform="translate(-620.646 -422.784)" fill="#333"/>
        <path id="패스_3898" data-name="패스 3898" d="M620.642,422.842l-.123-.153a.6.6,0,0,1,.1-.068h0a.556.556,0,0,1,.061-.026h0l.068.184a.358.358,0,0,0-.041.018h0A.41.41,0,0,0,620.642,422.842Z" transform="translate(-620.519 -422.594)" fill="#333"/>
      </g>
      <g id="그룹_2495" data-name="그룹 2495" transform="translate(9.719 39.245)">
        <path id="패스_3899" data-name="패스 3899" d="M648.252,422.774H620.623a.5.5,0,0,0-.175.033.488.488,0,0,0-.139.079l-.019.015a.506.506,0,0,0-.1.118l-.01.018a.48.48,0,0,0-.056.15.021.021,0,0,0,0,.006.491.491,0,0,0,0,.175.508.508,0,0,0,.5.423h30.607a.5.5,0,0,0,.5-.594.071.071,0,0,0,0-.012.509.509,0,0,0-.056-.148l-.01-.02a.515.515,0,0,0-.1-.117l-.019-.016a.522.522,0,0,0-.314-.112Z" transform="translate(-620.017 -422.676)" fill="#333"/>
        <path id="패스_3900" data-name="패스 3900" d="M651.028,423.688H620.421a.6.6,0,0,1-.6-.5.591.591,0,0,1,0-.21.573.573,0,0,1,.067-.186l.014-.024a.593.593,0,0,1,.116-.137l.024-.019a.6.6,0,0,1,.165-.093.6.6,0,0,1,.209-.039h30.607a.617.617,0,0,1,.375.133l.025.022a.6.6,0,0,1,.116.137l.012.023a.62.62,0,0,1,.066.177.645.645,0,0,1,0,.218A.606.606,0,0,1,651.028,423.688Zm-30.607-1.017a.4.4,0,0,0-.141.027.388.388,0,0,0-.112.063l-.021.017a.409.409,0,0,0-.075.09l-.012.021a.377.377,0,0,0-.041.113.408.408,0,0,0,.4.489h30.607a.411.411,0,0,0,.4-.342.427.427,0,0,0,0-.138.4.4,0,0,0-.046-.129.412.412,0,0,0-.089-.11h0l-.019-.016a.41.41,0,0,0-.107-.059.4.4,0,0,0-.143-.027Z" transform="translate(-619.815 -422.474)" fill="#333"/>
      </g>
      <g id="그룹_2500" data-name="그룹 2500" transform="translate(4.11 8.047)">
        <g id="그룹_2497" data-name="그룹 2497" transform="translate(33.973)">
          <g id="그룹_2496" data-name="그룹 2496">
            <path id="패스_3901" data-name="패스 3901" d="M710.459,338.31a.891.891,0,0,1-.721-.376l-3-4.091a.8.8,0,0,1,.661-1.3h.527V328.05a.982.982,0,0,1,.981-.981h3.111a.982.982,0,0,1,.981.981v4.489h.527a.8.8,0,0,1,.661,1.3l-3,4.091A.891.891,0,0,1,710.459,338.31Zm-2.1-4.469,2.1,2.865,2.1-2.865a.982.982,0,0,1-.874-.975v-4.489h-2.457v4.489A.982.982,0,0,1,708.357,333.841Z" transform="translate(-706.556 -327.069)" fill="#333"/>
          </g>
        </g>
        <g id="그룹_2499" data-name="그룹 2499" transform="translate(0 0.155)">
          <g id="그룹_2498" data-name="그룹 2498">
            <path id="패스_3902" data-name="패스 3902" d="M608.122,338.784h-3.11a.982.982,0,0,1-.981-.981v-4.489H603.5a.8.8,0,0,1-.661-1.3l3-4.09a.879.879,0,0,1,1.441,0l3,4.091a.8.8,0,0,1-.661,1.3H609.1V337.8A.982.982,0,0,1,608.122,338.784Zm-2.783-1.308h2.456v-4.489a.983.983,0,0,1,.875-.975l-2.1-2.864-2.1,2.865a.982.982,0,0,1,.874.975Z" transform="translate(-602.664 -327.543)" fill="#333"/>
          </g>
        </g>
      </g>
      <g id="그룹_2501" data-name="그룹 2501">
        <path id="패스_3903" data-name="패스 3903" d="M637.914,302.759H592.678a2.287,2.287,0,0,0-2.284,2.285v23.89a.508.508,0,0,1,.509-.508h.508V305.044a1.268,1.268,0,0,1,1.267-1.267h45.236a1.269,1.269,0,0,1,1.267,1.267v23.382h.508a.508.508,0,0,1,.509.508v-23.89A2.287,2.287,0,0,0,637.914,302.759Z" transform="translate(-590.296 -302.661)" fill="#333"/>
        <path id="패스_3904" data-name="패스 3904" d="M640.095,328.733h-.2a.411.411,0,0,0-.411-.41h-.606v-23.48a1.171,1.171,0,0,0-1.17-1.169H592.476a1.17,1.17,0,0,0-1.169,1.169v23.48H590.7a.411.411,0,0,0-.411.41h-.2v-23.89a2.385,2.385,0,0,1,2.382-2.383h45.236a2.385,2.385,0,0,1,2.383,2.383Zm-1.017-.607h.41a.6.6,0,0,1,.411.161V304.843a2.189,2.189,0,0,0-2.186-2.187H592.476a2.189,2.189,0,0,0-2.186,2.187v23.444a.6.6,0,0,1,.411-.161h.41V304.843a1.366,1.366,0,0,1,1.365-1.366h45.236a1.367,1.367,0,0,1,1.366,1.366Z" transform="translate(-590.094 -302.46)" fill="#333"/>
      </g>
      <path id="패스_3905" data-name="패스 3905" d="M593.505,388.5a1.269,1.269,0,0,0,1.267,1.267h45.236a1.269,1.269,0,0,0,1.268-1.267V384.36h-47.77Z" transform="translate(-592.39 -357.578)" fill="#50b4ff"/>
      <g id="그룹_2502" data-name="그룹 2502" transform="translate(1.018 25.666)">
        <rect id="사각형_1824" data-name="사각형 1824" width="47.77" height="1.017" transform="translate(0.098 0.098)" fill="#333"/>
        <path id="패스_3906" data-name="패스 3906" d="M641.172,382.163H593.206v-1.214h47.966Zm-47.77-.2h47.574v-.821H593.4Z" transform="translate(-593.206 -380.949)" fill="#333"/>
      </g>
      <g id="그룹_2503" data-name="그룹 2503" transform="translate(23.438 28.211)">
        <path id="패스_3907" data-name="패스 3907" d="M665,390.494a1.465,1.465,0,1,1-1.464-1.464A1.464,1.464,0,0,1,665,390.494Z" transform="translate(-661.97 -388.932)" fill="#333"/>
        <path id="패스_3908" data-name="패스 3908" d="M663.331,391.855a1.563,1.563,0,1,1,1.562-1.563A1.565,1.565,0,0,1,663.331,391.855Zm0-2.929a1.366,1.366,0,1,0,1.366,1.366A1.368,1.368,0,0,0,663.331,388.926Z" transform="translate(-661.768 -388.73)" fill="#333"/>
      </g>
    </g>
    <g id="그룹_2511" data-name="그룹 2511" transform="translate(606.429 291.378)">
      <g id="그룹_2510" data-name="그룹 2510" transform="translate(0 0)">
        <path id="패스_3909" data-name="패스 3909" d="M660.026,301.86c-1.576-.693-3.029-1.46-4.444-2.207-.781-.412-1.529-.808-2.289-1.187-.76.38-1.508.775-2.289,1.187-1.413.747-2.867,1.514-4.443,2.207-.005.573-.013,1.13-.022,1.677-.053,3.692-.1,6.608.822,8.829.6,1.448,1.819,3.293,5.932,4.9,4.113-1.609,5.333-3.454,5.931-4.9.918-2.221.876-5.137.822-8.829C660.039,302.991,660.031,302.433,660.026,301.86Zm-6.8,14.179c-3.479-1.408-4.5-2.971-5-4.182a11.386,11.386,0,0,1-.7-3.719h.048c-.07-1.278-.049-2.712-.027-4.3v-.012c.006-.394.012-.793.016-1.2,1.361-.615,2.626-1.283,3.857-1.933l.015-.008c.615-.325,1.2-.635,1.792-.934v-.024l.022-.011.024.012.024-.012.023.011v.024c.589.3,1.176.609,1.792.934l.015.008c1.231.65,2.5,1.318,3.857,1.933,0,.407.011.807.016,1.2v.012c.023,1.593.043,3.026-.027,4.3h.048a11.382,11.382,0,0,1-.7,3.719c-.5,1.212-1.524,2.775-5,4.182Z" transform="translate(-644.4 -296.147)" fill="#fff"/>
        <path id="패스_3910" data-name="패스 3910" d="M655.378,302.284l-.023-.011c-.613.31-1.223.631-1.863.97l-.015.008c-1.231.65-2.5,1.317-3.857,1.933,0,.407-.011.807-.016,1.2v.012c-.023,1.593-.043,3.026.027,4.3h5.747Z" transform="translate(-646.464 -298.71)" fill="#50b4ff"/>
        <path id="패스_3911" data-name="패스 3911" d="M667.3,335.944c3.478-1.408,4.5-2.971,5-4.182a11.4,11.4,0,0,0,.7-3.719h-5.7Z" transform="translate(-658.391 -316.053)" fill="#50b4ff"/>
        <path id="패스_3912" data-name="패스 3912" d="M649.628,294.385c.76.38,1.509.775,2.289,1.187,1.414.747,2.868,1.514,4.444,2.207,0,.573.013,1.131.021,1.677.054,3.692.1,6.608-.823,8.829-.6,1.448-1.818,3.293-5.931,4.9-4.112-1.609-5.333-3.454-5.931-4.9-.918-2.221-.876-5.137-.823-8.829.008-.547.016-1.1.021-1.677,1.576-.693,3.03-1.46,4.443-2.207.781-.412,1.53-.808,2.289-1.187m0-1.982c-2.836,1.356-5.425,2.959-8.507,4.192,0,9.37-1.233,14.981,8.507,18.494,9.741-3.513,8.508-9.124,8.508-18.494-3.083-1.233-5.672-2.836-8.508-4.192Z" transform="translate(-640.736 -292.068)" fill="#50b4ff"/>
        <g id="그룹_2505" data-name="그룹 2505">
          <path id="패스_3913" data-name="패스 3913" d="M648.939,314.735a.332.332,0,0,1-.114-.02c-8.94-3.225-8.866-8.3-8.755-15.979.013-.908.027-1.847.027-2.831a.335.335,0,0,1,.211-.311,55.771,55.771,0,0,0,5.356-2.583c1.015-.536,2.064-1.09,3.131-1.6a.334.334,0,0,1,.289,0c1.068.51,2.117,1.064,3.131,1.6a55.819,55.819,0,0,0,5.356,2.583.335.335,0,0,1,.211.311c0,.984.013,1.922.026,2.831.111,7.68.184,12.754-8.756,15.979A.331.331,0,0,1,648.939,314.735Zm-8.172-18.6c0,.906-.014,1.774-.027,2.615-.11,7.621-.177,12.235,8.2,15.3,8.377-3.062,8.31-7.676,8.2-15.3-.012-.841-.025-1.708-.027-2.614-1.862-.76-3.563-1.658-5.21-2.528-.963-.508-1.957-1.033-2.963-1.519-1.006.486-2,1.01-2.963,1.519C644.33,294.473,642.629,295.371,640.767,296.131Zm8.172,16.7a.335.335,0,0,1-.122-.023c-4.247-1.661-5.5-3.59-6.119-5.086-.944-2.284-.9-5.23-.848-8.959.008-.549.016-1.105.022-1.678a.335.335,0,0,1,.2-.3c1.577-.694,3.023-1.458,4.421-2.2.751-.4,1.528-.807,2.3-1.191a.335.335,0,0,1,.3,0c.784.391,1.552.8,2.3,1.191,1.4.74,2.853,1.506,4.422,2.2a.336.336,0,0,1,.2.3c0,.5.011.985.018,1.463l0,.213c.054,3.73.1,6.676-.848,8.962-.618,1.5-1.871,3.425-6.119,5.086A.333.333,0,0,1,648.939,312.833Zm-6.4-15.524c-.005.5-.012.985-.019,1.463-.053,3.655-.094,6.539.8,8.7.561,1.359,1.708,3.113,5.621,4.67,3.914-1.557,5.06-3.311,5.622-4.669.892-2.158.85-5.043.8-8.7l0-.213q-.009-.614-.016-1.25c-1.515-.677-2.913-1.415-4.267-2.13-.693-.366-1.407-.744-2.133-1.109-.713.359-1.434.74-2.133,1.109C645.456,295.892,644.061,296.629,642.54,297.309Z" transform="translate(-640.047 -291.377)" fill="#333"/>
        </g>
        <g id="그룹_2506" data-name="그룹 2506" transform="translate(2.783 3.228)">
          <path id="패스_3914" data-name="패스 3914" d="M654.689,310.345h-5.747a.335.335,0,0,1-.334-.317c-.07-1.3-.049-2.769-.027-4.328l0-.321q.006-.439.012-.89a.336.336,0,0,1,.2-.3c1.346-.608,2.6-1.272,3.822-1.915l.031-.017c.634-.335,1.253-.661,1.868-.972a.334.334,0,0,1,.3,0,.375.375,0,0,1,.208.311v8.415A.335.335,0,0,1,654.689,310.345Zm-5.428-.67h5.093v-7.556c-.459.236-.922.481-1.394.73l-.032.017c-1.168.616-2.374,1.253-3.664,1.844q0,.343-.01.68l0,.309C649.23,307.129,649.21,308.478,649.261,309.675Z" transform="translate(-648.558 -301.248)" fill="#333"/>
        </g>
        <g id="그룹_2507" data-name="그룹 2507" transform="translate(8.578 11.655)">
          <path id="패스_3915" data-name="패스 3915" d="M666.615,335.589a.335.335,0,0,1-.335-.335v-7.9a.335.335,0,0,1,.335-.335h5.7a.335.335,0,0,1,.334.354,11.626,11.626,0,0,1-.724,3.829c-.523,1.267-1.586,2.908-5.187,4.365A.336.336,0,0,1,666.615,335.589Zm.335-7.9v7.062c3-1.31,3.906-2.714,4.358-3.806a10.4,10.4,0,0,0,.652-3.255Z" transform="translate(-666.28 -327.018)" fill="#333"/>
        </g>
        <path id="패스_3916" data-name="패스 3916" d="M667.02,302.284l.023-.011c.613.31,1.223.631,1.863.97l.015.008c1.231.65,2.5,1.317,3.857,1.933,0,.407.011.807.016,1.2v.012c.023,1.593.043,3.026-.026,4.3H667.02Z" transform="translate(-658.2 -298.71)" fill="#fff"/>
        <path id="패스_3917" data-name="패스 3917" d="M655.285,335.944c-3.479-1.408-4.5-2.971-5-4.182a11.394,11.394,0,0,1-.7-3.719h5.7Z" transform="translate(-646.465 -316.053)" fill="#fff"/>
        <g id="그룹_2508" data-name="그룹 2508" transform="translate(8.485 3.228)">
          <path id="패스_3918" data-name="패스 3918" d="M672.077,310.345H666.33a.335.335,0,0,1-.335-.335v-8.415a.335.335,0,0,1,.185-.3l.025-.013a.335.335,0,0,1,.3,0c.612.31,1.208.624,1.868.973l.035.018c1.216.642,2.474,1.306,3.819,1.913a.337.337,0,0,1,.2.3q0,.426.011.841l0,.358c.022,1.571.043,3.044-.027,4.339A.335.335,0,0,1,672.077,310.345Zm-5.412-.67h5.092c.05-1.2.031-2.544.011-3.965l-.005-.369q0-.313-.009-.631c-1.29-.591-2.494-1.227-3.661-1.843l-.033-.018c-.491-.259-.945-.5-1.395-.731Z" transform="translate(-665.995 -301.248)" fill="#333"/>
        </g>
        <g id="그룹_2509" data-name="그룹 2509" transform="translate(2.783 11.655)">
          <path id="패스_3919" data-name="패스 3919" d="M654.6,335.589a.336.336,0,0,1-.126-.025c-3.6-1.457-4.664-3.1-5.187-4.365a11.622,11.622,0,0,1-.724-3.828.335.335,0,0,1,.335-.354h5.7a.335.335,0,0,1,.335.335v7.9a.335.335,0,0,1-.335.335Zm-5.345-7.9a10.4,10.4,0,0,0,.652,3.255c.451,1.092,1.358,2.5,4.358,3.806v-7.062Z" transform="translate(-648.559 -327.018)" fill="#333"/>
        </g>
      </g>
    </g>
  </g>
</svg>
