<svg xmlns="http://www.w3.org/2000/svg" width="39.761" height="38.238" viewBox="0 0 39.761 38.238">
  <g id="그룹_491" data-name="그룹 491" transform="translate(1 1)">
    <path id="패스_1587" data-name="패스 1587" d="M415.245,906.762V881.585l-8.077-8.078H389.695a1.156,1.156,0,0,0-1.153,1.153v33.932a1.156,1.156,0,0,0,1.153,1.153h24.4" transform="translate(-388.542 -873.508)" fill="none" stroke="#797979" stroke-linecap="round" stroke-miterlimit="10" stroke-width="2"/>
    <g id="그룹_490" data-name="그룹 490" transform="translate(18.771 13.853)">
      <path id="패스_1588" data-name="패스 1588" d="M526.5,992.386a3.824,3.824,0,0,0,1.359-6.281l-.424-.424-5.4,5.4.425.424a3.819,3.819,0,0,0,.746.581" transform="translate(-509.987 -973.64)" fill="#fff" stroke="#5887f9" stroke-linecap="round" stroke-linejoin="round" stroke-width="2"/>
      <path id="패스_1589" data-name="패스 1589" d="M486.811,950.426l2.7-2.7-10.683-10.681-3.53-.71a5.689,5.689,0,0,1-1.082,1.5,6.943,6.943,0,0,1-1.489,1.136l.7,3.474,10.682,10.682Z" transform="translate(-472.066 -935.683)" fill="#fff" stroke="#797979" stroke-linecap="round" stroke-linejoin="round" stroke-width="2"/>
      <path id="패스_1590" data-name="패스 1590" d="M472.009,935.671a5.687,5.687,0,0,0,1.082-1.5l-3.235-.649.663,3.288A6.937,6.937,0,0,0,472.009,935.671Z" transform="translate(-469.857 -933.519)" fill="none" stroke="#797979" stroke-linecap="round" stroke-linejoin="round" stroke-width="2"/>
      <path id="패스_1591" data-name="패스 1591" d="M481.158,939.409a8.321,8.321,0,0,1-.747,1.512,9.677,9.677,0,0,1-4.656,3.891" transform="translate(-474.394 -938.049)" fill="none" stroke="#797979" stroke-linecap="round" stroke-linejoin="round" stroke-width="2"/>
      <line id="선_393" data-name="선 393" x1="4.779" y1="4.779" transform="translate(7.517 9.56)" fill="none" stroke="#b1b1b1" stroke-linecap="round" stroke-linejoin="round" stroke-width="2"/>
    </g>
    <path id="패스_1592" data-name="패스 1592" d="M469.231,880.432a1.156,1.156,0,0,0,1.153,1.153h6.925l-8.077-8.078Z" transform="translate(-450.605 -873.508)" fill="none" stroke="#b1b1b1" stroke-linecap="round" stroke-linejoin="round" stroke-width="2"/>
  </g>
</svg>
