<svg xmlns="http://www.w3.org/2000/svg" width="33.397" height="42.544" viewBox="0 0 33.397 42.544">
  <g id="그룹_488" data-name="그룹 488" transform="translate(1.225 1)">
    <path id="패스_1577" data-name="패스 1577" d="M1005.648,2928.866a3.788,3.788,0,1,1-3.788-3.789" transform="translate(-989.356 -2921.29)" fill="none" stroke="#5887f9" stroke-linecap="round" stroke-linejoin="round" stroke-width="2"/>
    <path id="패스_1578" data-name="패스 1578" d="M990.575,2925.155a7.574,7.574,0,1,1,6.284-3.343" transform="translate(-978.071 -2910.004)" fill="none" stroke="#b1b1b1" stroke-linecap="round" stroke-linejoin="round" stroke-width="2"/>
    <path id="패스_1579" data-name="패스 1579" d="M992.151,2952.861a2.306,2.306,0,0,0-2.411,2.181v.727c0,.01.005.018.005.029v1.038a.333.333,0,1,1-.665,0v-.057h0v-1.738a2.421,2.421,0,0,0-4.817,0v.745s0,.006,0,.011v1.038a.333.333,0,1,1-.665,0v-.057h0v-1.738a2.42,2.42,0,0,0-4.817,0v1.794a.332.332,0,1,1-.665,0v-10.494a2.42,2.42,0,0,0-4.816,0v18.24l-5.259-5.26a2.752,2.752,0,0,0-3.888,3.892l9.509,11.284c.529.964,2.706,1.621,3.927,1.621h12.227c1.75,0,4.744-4.565,4.744-6.235v-14.842A2.3,2.3,0,0,0,992.151,2952.861Z" transform="translate(-963.385 -2935.575)" fill="#fff" stroke="#797979" stroke-linecap="round" stroke-linejoin="round" stroke-width="2"/>
  </g>
</svg>
