<svg xmlns="http://www.w3.org/2000/svg" width="24.022" height="44.41" viewBox="0 0 24.022 44.41">
  <g id="그룹_472" data-name="그룹 472" transform="translate(1.039 1)">
    <g id="그룹_469" data-name="그룹 469" transform="translate(6.264 12.044)">
      <path id="패스_1558" data-name="패스 1558" d="M181.142,2671.832a44.832,44.832,0,0,0,12.95,12.951l2.769-4.581a33.036,33.036,0,0,1-11.139-11.139" transform="translate(-181.142 -2669.063)" fill="#fff" stroke="#5887f9" stroke-linecap="round" stroke-linejoin="round" stroke-width="2"/>
    </g>
    <g id="그룹_470" data-name="그룹 470" transform="translate(0.757)">
      <path id="패스_1559" data-name="패스 1559" d="M165.158,2635.651a1.1,1.1,0,0,1-.826-.449l-3.657-5.655a.827.827,0,0,1,.031-.878l3.141-4.184a1.211,1.211,0,0,1,.856-.428h6.5a1.211,1.211,0,0,1,.856.428l3.141,4.184a.827.827,0,0,1,.031.878l-3.657,5.655a1.1,1.1,0,0,1-.826.449Z" transform="translate(-160.564 -2624.057)" fill="#fff" stroke="#b1b1b1" stroke-miterlimit="10" stroke-width="2"/>
      <path id="패스_1560" data-name="패스 1560" d="M165.158,2635.651a1.1,1.1,0,0,1-.826-.449l-3.657-5.655a.827.827,0,0,1,.031-.878l3.141-4.184a1.211,1.211,0,0,1,.856-.428h6.5a1.211,1.211,0,0,1,.856.428l3.141,4.184a.827.827,0,0,1,.031.878l-3.657,5.655a1.1,1.1,0,0,1-.826.449Z" transform="translate(-160.564 -2624.057)" fill="none" stroke="#b1b1b1" stroke-linecap="round" stroke-linejoin="round" stroke-width="2"/>
    </g>
    <g id="그룹_471" data-name="그룹 471" transform="translate(0 11.594)">
      <path id="패스_1561" data-name="패스 1561" d="M164.424,2667.381a1.868,1.868,0,0,0-1.7,1.289l-4.916,17.656a3.071,3.071,0,0,0,.445,2.358l6.821,9.072a.954.954,0,0,0,1.608,0l6.821-9.072a3.072,3.072,0,0,0,.445-2.358l-4.916-17.656a1.868,1.868,0,0,0-1.7-1.289Z" transform="translate(-157.734 -2667.381)" fill="#fff" stroke="#707070" stroke-width="2"/>
      <path id="패스_1562" data-name="패스 1562" d="M164.424,2667.381a1.868,1.868,0,0,0-1.7,1.289l-4.916,17.656a3.071,3.071,0,0,0,.445,2.358l6.821,9.072a.954.954,0,0,0,1.608,0l6.821-9.072a3.072,3.072,0,0,0,.445-2.358l-4.916-17.656a1.868,1.868,0,0,0-1.7-1.289Z" transform="translate(-157.734 -2667.381)" fill="none" stroke="#797979" stroke-linecap="round" stroke-linejoin="round" stroke-width="2"/>
    </g>
  </g>
</svg>
