<svg xmlns="http://www.w3.org/2000/svg" width="42.858" height="35.652" viewBox="0 0 42.858 35.652">
  <g id="그룹_534" data-name="그룹 534" transform="translate(0.25 0.25)">
    <g id="그룹_517" data-name="그룹 517" transform="translate(0 3.659)">
      <g id="그룹_514" data-name="그룹 514" transform="translate(23.435 0)">
        <g id="그룹_513" data-name="그룹 513">
          <path id="패스_1620" data-name="패스 1620" d="M500.016,2677.006a.68.68,0,0,1-.664-.7v-24.845a2.027,2.027,0,0,0-2.054-1.994H482.422a.7.7,0,0,1,0-1.391H497.3a3.387,3.387,0,0,1,3.382,3.385v24.845A.68.68,0,0,1,500.016,2677.006Z" transform="translate(-481.758 -2648.081)" fill="#797979" stroke="#797979" stroke-width="0.5"/>
        </g>
      </g>
      <g id="그룹_516" data-name="그룹 516" transform="translate(0 0)">
        <g id="그룹_515" data-name="그룹 515">
          <path id="패스_1621" data-name="패스 1621" d="M426.031,2679.574H396.906a3.381,3.381,0,0,1-3.382-3.372v-24.749a3.381,3.381,0,0,1,3.382-3.372h15.176a.693.693,0,0,1,0,1.386H396.906a2.023,2.023,0,0,0-2.054,1.986V2676.2a2.023,2.023,0,0,0,2.054,1.986h29.125a.694.694,0,0,1,0,1.386Z" transform="translate(-393.524 -2648.081)" fill="#797979" stroke="#797979" stroke-width="0.5"/>
        </g>
      </g>
    </g>
    <g id="그룹_518" data-name="그룹 518" transform="translate(6.201 12.966)">
      <path id="패스_1622" data-name="패스 1622" d="M429.166,2693.252H417.533a.664.664,0,0,1-.664-.664,6.921,6.921,0,0,1,3.529-6.134,3.8,3.8,0,1,1,5.9,0,6.921,6.921,0,0,1,3.53,6.134A.664.664,0,0,1,429.166,2693.252Zm-10.933-1.328h10.233a5.445,5.445,0,0,0-3.568-4.638.664.664,0,0,1-.161-1.177,2.474,2.474,0,1,0-2.775,0,.664.664,0,0,1-.161,1.177A5.446,5.446,0,0,0,418.233,2691.924Z" transform="translate(-416.869 -2680.223)" fill="#5887f9"/>
    </g>
    <g id="그룹_521" data-name="그룹 521" transform="translate(20.776 14.402)">
      <g id="그룹_520" data-name="그룹 520" transform="translate(0 0)">
        <g id="그룹_519" data-name="그룹 519">
          <rect id="사각형_637" data-name="사각형 637" width="13.271" height="0.957" fill="#b1b1b1" stroke="#b1b1b1" stroke-width="0.5"/>
        </g>
      </g>
    </g>
    <g id="그룹_524" data-name="그룹 524" transform="translate(20.776 18.365)">
      <g id="그룹_523" data-name="그룹 523" transform="translate(0 0)">
        <g id="그룹_522" data-name="그룹 522">
          <rect id="사각형_638" data-name="사각형 638" width="13.271" height="0.957" fill="#b1b1b1" stroke="#b1b1b1" stroke-width="0.5"/>
        </g>
      </g>
    </g>
    <g id="그룹_527" data-name="그룹 527" transform="translate(20.776 22.747)">
      <g id="그룹_526" data-name="그룹 526">
        <g id="그룹_525" data-name="그룹 525">
          <rect id="사각형_639" data-name="사각형 639" width="13.271" height="0.957" fill="#b1b1b1" stroke="#b1b1b1" stroke-width="0.5"/>
        </g>
      </g>
    </g>
    <g id="그룹_530" data-name="그룹 530" transform="translate(17.894)">
      <g id="그룹_529" data-name="그룹 529" transform="translate(0)">
        <g id="그룹_528" data-name="그룹 528">
          <path id="패스_1623" data-name="패스 1623" d="M466.574,2642.064h-5.015a.664.664,0,0,1-.664-.664v-6.432a.664.664,0,0,1,.664-.664h5.015a.664.664,0,0,1,.664.664v6.432A.664.664,0,0,1,466.574,2642.064Zm-4.351-1.328h3.687v-5.1h-3.687Z" transform="translate(-460.895 -2634.305)" fill="#b1b1b1" stroke="#b1b1b1" stroke-width="0.5"/>
        </g>
      </g>
    </g>
    <g id="그룹_533" data-name="그룹 533" transform="translate(6.487 10.302)">
      <g id="그룹_532" data-name="그룹 532" transform="translate(0 0)">
        <g id="그룹_531" data-name="그룹 531">
          <path id="패스_1624" data-name="패스 1624" d="M447.476,2689.306h-.02l-28.916-.186a.6.6,0,0,1,0-1.192h0l28.917.186a1.506,1.506,0,0,0,1.052-.4,1.294,1.294,0,0,0,.427-.942l.124-18.029a.6.6,0,0,1,1.193.008l-.124,18.029a2.477,2.477,0,0,1-.806,1.807A2.707,2.707,0,0,1,447.476,2689.306Z" transform="translate(-417.948 -2668.147)" fill="#b1b1b1" stroke="#b1b1b1" stroke-width="0.5"/>
        </g>
      </g>
    </g>
  </g>
</svg>
