<svg xmlns="http://www.w3.org/2000/svg" width="43.188" height="35.471" viewBox="0 0 43.188 35.471">
  <g id="그룹_562" data-name="그룹 562" transform="translate(0.292 0.25)">
    <g id="그룹_537" data-name="그룹 537" transform="translate(0 0.717)">
      <g id="그룹_536" data-name="그룹 536" transform="translate(0)">
        <g id="그룹_535" data-name="그룹 535">
          <path id="패스_1625" data-name="패스 1625" d="M1245.486,1798.541a.638.638,0,0,1-.158-1.256l7.164-1.831a.693.693,0,0,0,.423-.321.68.68,0,0,0,.076-.521l-7.286-28.527a.7.7,0,0,0-.846-.5l-7.161,1.831a.7.7,0,0,0-.5.844l6.508,25.471a.638.638,0,1,1-1.236.316l-6.508-25.471a1.973,1.973,0,0,1,1.422-2.4l7.162-1.83a1.976,1.976,0,0,1,2.4,1.421l7.285,28.525a1.973,1.973,0,0,1-1.418,2.4l-7.165,1.831A.623.623,0,0,1,1245.486,1798.541Z" transform="translate(-1235.9 -1764.287)" fill="#797979" stroke="#797979" stroke-width="0.5"/>
        </g>
      </g>
    </g>
    <g id="그룹_540" data-name="그룹 540" transform="translate(3.417 4.383)">
      <g id="그룹_539" data-name="그룹 539" transform="translate(0 0)">
        <g id="그룹_538" data-name="그룹 538">
          <path id="패스_1626" data-name="패스 1626" d="M1255.119,1798.3a1.968,1.968,0,0,1-1.91-1.488l-3.861-15.279a1.973,1.973,0,0,1,1.428-2.392l1.719-.437a1.975,1.975,0,0,1,2.395,1.429l3.859,15.28a1.972,1.972,0,0,1-1.427,2.393l-1.72.435A1.953,1.953,0,0,1,1255.119,1798.3Zm-2.145-18.38a.684.684,0,0,0-.167.021l-1.719.437a.7.7,0,0,0-.5.844l3.861,15.278a.706.706,0,0,0,.84.5l1.722-.436a.7.7,0,0,0,.5-.841l-3.859-15.281A.707.707,0,0,0,1252.974,1779.923Z" transform="translate(-1249.287 -1778.647)" fill="#b1b1b1" stroke="#b1b1b1" stroke-width="0.5"/>
        </g>
      </g>
    </g>
    <g id="그룹_543" data-name="그룹 543" transform="translate(9.726 26.185)">
      <g id="그룹_542" data-name="그룹 542" transform="translate(0)">
        <g id="그룹_541" data-name="그룹 541">
          <path id="패스_1627" data-name="패스 1627" d="M1278.048,1865.616a2.053,2.053,0,1,1-2.494-1.486A2.053,2.053,0,0,1,1278.048,1865.616Z" transform="translate(-1274.004 -1864.066)" fill="#5887f9"/>
        </g>
      </g>
    </g>
    <g id="그룹_546" data-name="그룹 546" transform="translate(17.864 0.056)">
      <g id="그룹_545" data-name="그룹 545" transform="translate(0 0)">
        <g id="그룹_544" data-name="그룹 544">
          <path id="패스_1628" data-name="패스 1628" d="M1307.938,1795.1a1.976,1.976,0,0,1-1.976-1.965l-.077-29.441a.638.638,0,0,1,.636-.64h0a.638.638,0,0,1,.638.636l.077,29.441a.7.7,0,0,0,.7.693l7.391-.019a.7.7,0,0,0,.692-.7l-.078-29.441a.7.7,0,0,0-.693-.69h0l-4.294.012h0a.638.638,0,0,1,0-1.276l4.294-.012h.006a1.973,1.973,0,0,1,1.969,1.963l.078,29.44a1.975,1.975,0,0,1-1.965,1.976Z" transform="translate(-1305.885 -1761.697)" fill="#797979" stroke="#797979" stroke-width="0.5"/>
        </g>
      </g>
    </g>
    <g id="그룹_549" data-name="그룹 549" transform="translate(20.618 3.113)">
      <g id="그룹_548" data-name="그룹 548" transform="translate(0 0)">
        <g id="그룹_547" data-name="그룹 547">
          <path id="패스_1629" data-name="패스 1629" d="M1320.423,1793.373h-1.775a1.973,1.973,0,0,1-1.97-1.971v-15.758a1.973,1.973,0,0,1,1.97-1.971h1.775a1.973,1.973,0,0,1,1.97,1.971V1791.4A1.973,1.973,0,0,1,1320.423,1793.373Zm-1.775-18.424a.7.7,0,0,0-.694.7V1791.4a.7.7,0,0,0,.694.695h1.775a.7.7,0,0,0,.694-.695v-15.758a.7.7,0,0,0-.694-.7Z" transform="translate(-1316.678 -1773.673)" fill="#b1b1b1" stroke="#b1b1b1" stroke-width="0.5"/>
        </g>
      </g>
    </g>
    <g id="그룹_552" data-name="그룹 552" transform="translate(21.478 25.393)">
      <g id="그룹_551" data-name="그룹 551" transform="translate(0 0)">
        <g id="그룹_550" data-name="그룹 550">
          <path id="패스_1630" data-name="패스 1630" d="M1324.152,1863.016a2.053,2.053,0,1,1-2.052-2.053A2.054,2.054,0,0,1,1324.152,1863.016Z" transform="translate(-1320.046 -1860.963)" fill="#5887f9"/>
        </g>
      </g>
    </g>
    <g id="그룹_555" data-name="그룹 555" transform="translate(31.24 0)">
      <g id="그룹_554" data-name="그룹 554">
        <g id="그룹_553" data-name="그룹 553">
          <path id="패스_1631" data-name="패스 1631" d="M1353.576,1794.875a1.973,1.973,0,0,1-1.963-1.962l-.078-29.443a1.974,1.974,0,0,1,1.967-1.974l7.393-.019a1.922,1.922,0,0,1,1.392.574,1.954,1.954,0,0,1,.582,1.389l.072,27.29a.638.638,0,0,1-.637.64h0a.638.638,0,0,1-.638-.636l-.072-27.29a.7.7,0,0,0-.692-.691h0l-7.394.02a.692.692,0,0,0-.491.205.683.683,0,0,0-.2.488l.078,29.442a.691.691,0,0,0,.208.49.682.682,0,0,0,.481.2h0l7.394-.019h0a.638.638,0,0,1,0,1.276l-7.392.019Z" transform="translate(-1351.535 -1761.477)" fill="#797979" stroke="#797979" stroke-width="0.5"/>
        </g>
      </g>
    </g>
    <g id="그룹_558" data-name="그룹 558" transform="translate(33.998 3.059)">
      <g id="그룹_557" data-name="그룹 557" transform="translate(0)">
        <g id="그룹_556" data-name="그룹 556">
          <path id="패스_1632" data-name="패스 1632" d="M1366.084,1793.16h-1.777a1.973,1.973,0,0,1-1.969-1.972v-15.757a1.971,1.971,0,0,1,1.969-1.969h1.777a1.972,1.972,0,0,1,1.97,1.969v15.757A1.973,1.973,0,0,1,1366.084,1793.16Zm-1.777-18.422a.693.693,0,0,0-.692.693v15.757a.7.7,0,0,0,.692.7h1.777a.7.7,0,0,0,.694-.7v-15.757a.694.694,0,0,0-.694-.693Z" transform="translate(-1362.339 -1773.462)" fill="#b1b1b1" stroke="#b1b1b1" stroke-width="0.5"/>
        </g>
      </g>
    </g>
    <g id="그룹_561" data-name="그룹 561" transform="translate(34.856 25.337)">
      <g id="그룹_560" data-name="그룹 560" transform="translate(0)">
        <g id="그룹_559" data-name="그룹 559">
          <path id="패스_1633" data-name="패스 1633" d="M1369.806,1862.8a2.054,2.054,0,1,1-2.053-2.053A2.053,2.053,0,0,1,1369.806,1862.8Z" transform="translate(-1365.699 -1860.743)" fill="#5887f9"/>
        </g>
      </g>
    </g>
  </g>
</svg>
