<svg xmlns="http://www.w3.org/2000/svg" width="36.535" height="37.383" viewBox="0 0 36.535 37.383">
  <g id="그룹_489" data-name="그룹 489" transform="translate(2 1)">
    <g id="패스_1580" data-name="패스 1580" transform="translate(-1238.937 -631.628)" fill="#fff" stroke-miterlimit="10">
      <path d="M 1241.731201171875 654.142578125 L 1241.73095703125 654.142578125 L 1241.730224609375 654.142578125 L 1241.022094726562 654.142578125 C 1239.884887695312 654.142578125 1238.959594726562 653.2173461914062 1238.959350585938 652.0801391601562 L 1238.95947265625 649.7666015625 C 1238.56982421875 649.6240234375 1238.267578125 649.3655395507812 1238.09130859375 649.0120239257812 C 1237.811645507812 648.4515991210938 1237.913330078125 647.7821655273438 1238.370239257812 647.1754760742188 L 1239.738037109375 645.3558349609375 C 1240.14892578125 644.809326171875 1240.746337890625 644.4959106445312 1241.377075195312 644.4959106445312 C 1242.007934570312 644.4959106445312 1242.605224609375 644.8092651367188 1243.015869140625 645.355712890625 L 1244.3837890625 647.1761474609375 C 1244.83984375 647.7830810546875 1244.94091796875 648.452392578125 1244.661254882812 649.0125122070312 C 1244.48486328125 649.3656005859375 1244.182861328125 649.623779296875 1243.793579101562 649.766357421875 L 1243.793579101562 652.0799560546875 C 1243.793579101562 653.2172241210938 1242.868408203125 654.1425170898438 1241.731201171875 654.142578125 Z" stroke="none"/>
      <path d="M 1241.377075195312 645.4959106445312 C 1241.07275390625 645.4959106445312 1240.768310546875 645.6495361328125 1240.537353515625 645.9567260742188 L 1239.169067382812 647.7770385742188 C 1238.706787109375 648.3909912109375 1238.957885742188 648.8938598632812 1239.725952148438 648.8938598632812 C 1239.72607421875 648.8938598632812 1239.726318359375 648.8938598632812 1239.726440429688 648.8938598632812 L 1239.974487304688 648.8941040039062 C 1239.967895507812 648.941162109375 1239.959838867188 648.9878540039062 1239.95947265625 649.0366821289062 L 1239.959350585938 652.0799560546875 C 1239.95947265625 652.6640625 1240.43798828125 653.142578125 1241.022094726562 653.142578125 L 1241.730712890625 653.142578125 C 1241.730834960938 653.142578125 1241.73095703125 653.142578125 1241.731201171875 653.142578125 C 1242.31591796875 653.142578125 1242.793579101562 652.6638793945312 1242.793579101562 652.0799560546875 L 1242.793579101562 649.0366821289062 C 1242.793823242188 648.9878540039062 1242.785278320312 648.941162109375 1242.778930664062 648.8941040039062 L 1243.026489257812 648.8938598632812 C 1243.794677734375 648.8938598632812 1244.0458984375 648.39111328125 1243.584350585938 647.77685546875 L 1242.216552734375 645.95654296875 C 1241.985717773438 645.6494140625 1241.681518554688 645.4959106445312 1241.377075195312 645.4959106445312 M 1241.377075195312 643.4959106445312 C 1242.3251953125 643.4959106445312 1243.2138671875 643.9547729492188 1243.815307617188 644.7548217773438 L 1245.183227539062 646.575439453125 C 1245.865234375 647.4829711914062 1246.004516601562 648.56103515625 1245.555786132812 649.4592895507812 C 1245.37548828125 649.8204956054688 1245.114624023438 650.1231689453125 1244.793579101562 650.3560180664062 L 1244.793579101562 652.0799560546875 C 1244.793579101562 653.7686767578125 1243.419799804688 655.142578125 1241.731201171875 655.142578125 L 1241.022094726562 655.142578125 C 1239.333618164062 655.142578125 1237.959716796875 653.7688598632812 1237.959350585938 652.0803833007812 L 1237.95947265625 650.3563842773438 C 1237.637939453125 650.1233520507812 1237.376831054688 649.8201904296875 1237.196411132812 649.4583740234375 C 1236.748046875 648.5595092773438 1236.88818359375 647.481201171875 1237.571411132812 646.573974609375 L 1238.938598632812 644.7550048828125 C 1239.540283203125 643.9547729492188 1240.429077148438 643.4959106445312 1241.377075195312 643.4959106445312 Z" stroke="none" fill="#797979"/>
    </g>
    <g id="패스_1581" data-name="패스 1581" transform="translate(-1336.416 -631.628)" fill="#fff" stroke-miterlimit="10">
      <path d="M 1366.51416015625 654.1426391601562 C 1366.514038085938 654.1426391601562 1366.514038085938 654.1426391601562 1366.513916015625 654.1426391601562 C 1365.883178710938 654.142578125 1365.285766601562 653.8291015625 1364.875 653.2826538085938 L 1363.5068359375 651.4622802734375 C 1363.050537109375 650.8564453125 1362.948852539062 650.1870727539062 1363.228393554688 649.6265869140625 C 1363.404663085938 649.27294921875 1363.706909179688 649.0144653320312 1364.096801757812 648.871826171875 L 1364.096557617188 646.5587158203125 C 1364.097045898438 645.4210815429688 1365.022338867188 644.4959716796875 1366.1591796875 644.4959716796875 L 1366.867797851562 644.4959716796875 C 1368.00537109375 644.4959716796875 1368.930419921875 645.4212646484375 1368.930419921875 646.5586547851562 L 1368.930419921875 648.8720092773438 C 1369.319702148438 649.0145874023438 1369.621826171875 649.2727661132812 1369.798217773438 649.6260375976562 C 1370.077880859375 650.1862182617188 1369.976806640625 650.8555297851562 1369.520751953125 651.4624633789062 L 1368.152954101562 653.28271484375 C 1367.742065429688 653.8292846679688 1367.144775390625 654.1426391601562 1366.51416015625 654.1426391601562 Z" stroke="none"/>
      <path d="M 1366.514038085938 653.1426391601562 C 1366.818359375 653.1426391601562 1367.122680664062 652.9891357421875 1367.353515625 652.6820068359375 L 1368.721313476562 650.8616943359375 C 1369.182861328125 650.2474975585938 1368.931640625 649.74462890625 1368.16357421875 649.74462890625 L 1367.916015625 649.7444458007812 C 1367.92236328125 649.6973266601562 1367.930541992188 649.6506958007812 1367.930419921875 649.601806640625 L 1367.930419921875 646.5586547851562 C 1367.930419921875 645.974609375 1367.452758789062 645.4959716796875 1366.868286132812 645.4959716796875 C 1366.868041992188 645.4959716796875 1366.867919921875 645.4959716796875 1366.867797851562 645.4959716796875 L 1366.1591796875 645.4959716796875 C 1365.574829101562 645.4959716796875 1365.096801757812 645.9744262695312 1365.096557617188 646.5586547851562 L 1365.096801757812 649.601806640625 C 1365.097045898438 649.6506958007812 1365.104614257812 649.6973266601562 1365.111694335938 649.7444458007812 L 1364.863403320312 649.74462890625 C 1364.86328125 649.74462890625 1364.863037109375 649.74462890625 1364.863037109375 649.74462890625 C 1364.095092773438 649.74462890625 1363.84375 650.24755859375 1364.30615234375 650.8614501953125 L 1365.67431640625 652.6817626953125 C 1365.9052734375 652.989013671875 1366.209716796875 653.142578125 1366.514038085938 653.1426391601562 M 1366.51416015625 655.1426391601562 L 1366.513916015625 655.1426391601562 C 1365.565795898438 655.1425170898438 1364.677124023438 654.6836547851562 1364.07568359375 653.8836059570312 L 1362.707397460938 652.0631103515625 C 1362.025390625 651.1575317382812 1361.885131835938 650.0792236328125 1362.33349609375 649.1802978515625 C 1362.513916015625 648.818359375 1362.775024414062 648.5151977539062 1363.0966796875 648.2820434570312 L 1363.096557617188 646.558837890625 C 1363.097290039062 644.8695068359375 1364.47119140625 643.4959716796875 1366.1591796875 643.4959716796875 L 1366.867797851562 643.4959716796875 C 1368.556762695312 643.4959716796875 1369.930419921875 644.869873046875 1369.930419921875 646.5586547851562 L 1369.930419921875 648.2823486328125 C 1370.251586914062 648.5151977539062 1370.512329101562 648.8179321289062 1370.69287109375 649.1792602539062 C 1371.141479492188 650.0775756835938 1371.002197265625 651.1557006835938 1370.320190429688 652.0631713867188 L 1368.952392578125 653.8834228515625 C 1368.350708007812 654.683837890625 1367.462036132812 655.1426391601562 1366.51416015625 655.1426391601562 Z" stroke="none" fill="#b1b1b1"/>
    </g>
    <path id="패스_1582" data-name="패스 1582" d="M1281.273,624.07c4-1.5,6.9-5.848,6.9-10.987h-19.9c0,5.139,2.9,9.492,6.9,10.987-4,1.5-6.9,5.848-6.9,10.987h19.9C1288.169,629.918,1285.274,625.566,1281.273,624.07Z" transform="translate(-1261.785 -606.379)" fill="#fff" stroke="#b1b1b1" stroke-linecap="round" stroke-linejoin="round" stroke-width="2"/>
    <path id="패스_1583" data-name="패스 1583" d="M1316.414,638c0,2.563-.909,4.734-2.166,5.48,1.257.746,2.166,2.917,2.166,5.48h-3.126" transform="translate(-1296.855 -625.789)" fill="none" stroke="#5887f9" stroke-linecap="round" stroke-linejoin="round" stroke-width="2"/>
    <path id="패스_1584" data-name="패스 1584" d="M1299.146,648.96c0-2.563.909-4.734,2.166-5.48-1.257-.746-2.166-2.917-2.166-5.48h3.126" transform="translate(-1285.839 -625.789)" fill="none" stroke="#5887f9" stroke-linecap="round" stroke-linejoin="round" stroke-width="2"/>
    <path id="패스_1585" data-name="패스 1585" d="M1280.834,715.858a3.146,3.146,0,0,0-2.89-3.352h-19.932a3.147,3.147,0,0,0-2.89,3.352h0a3.147,3.147,0,0,0,2.89,3.352h19.932a3.146,3.146,0,0,0,2.89-3.352Z" transform="translate(-1251.546 -683.827)" fill="#fff" stroke="#797979" stroke-linecap="round" stroke-linejoin="round" stroke-width="2"/>
    <path id="패스_1586" data-name="패스 1586" d="M1280.834,586.1a3.146,3.146,0,0,1-2.89,3.352h-19.932a3.147,3.147,0,0,1-2.89-3.352h0a3.147,3.147,0,0,1,2.89-3.352h19.932a3.146,3.146,0,0,1,2.89,3.352Z" transform="translate(-1251.546 -582.75)" fill="#fff" stroke="#797979" stroke-linecap="round" stroke-linejoin="round" stroke-width="2"/>
  </g>
</svg>
