<svg xmlns="http://www.w3.org/2000/svg" width="38.595" height="39.161" viewBox="0 0 38.595 39.161">
  <g id="그룹_496" data-name="그룹 496" transform="translate(1 1)">
    <path id="패스_1602" data-name="패스 1602" d="M713.392,968.035a1.129,1.129,0,1,1-1.129-1.129A1.129,1.129,0,0,1,713.392,968.035Z" transform="translate(-694.345 -945.37)" fill="none" stroke="#797979" stroke-linecap="round" stroke-linejoin="round" stroke-width="1"/>
    <line id="선_399" data-name="선 399" y2="3.445" transform="translate(17.919 23.794)" fill="none" stroke="#797979" stroke-linecap="round" stroke-linejoin="round" stroke-width="1"/>
    <path id="패스_1603" data-name="패스 1603" d="M706.488,960.094c.852-.822,1.717-2.369,1.717-5.307,0,0-1.637,0-1.637-2.9H703.22c0,2.9-1.637,2.9-1.637,2.9,0,5.38,2.9,6.1,3.306,6.234v0l0,0h0v0" transform="translate(-686.975 -933.783)" fill="none" stroke="#5887f9" stroke-linecap="round" stroke-linejoin="round" stroke-width="1.5"/>
    <path id="패스_1604" data-name="패스 1604" d="M785.173,887.183" transform="translate(-758.968 -884.038)" fill="#5f5f5f" stroke="#707070" stroke-width="2"/>
    <path id="패스_1605" data-name="패스 1605" d="M707.064,908.692V890.043a2.867,2.867,0,0,0-2.858-2.86H673.328a2.867,2.867,0,0,0-2.859,2.86v28.3a2.867,2.867,0,0,0,2.859,2.861h30.879a2.867,2.867,0,0,0,2.858-2.861v-3.617" transform="translate(-670.469 -884.038)" fill="none" stroke="#797979" stroke-linecap="round" stroke-linejoin="round" stroke-width="2"/>
    <line id="선_400" data-name="선 400" y1="7.218" transform="translate(32.678 17.673)" fill="none" stroke="#797979" stroke-linecap="round" stroke-linejoin="round" stroke-width="2"/>
    <path id="패스_1606" data-name="패스 1606" d="M711.088,928.04H688.9a1.288,1.288,0,0,0-1.288,1.287v17.816a1.288,1.288,0,0,0,1.288,1.287h26.19a1.287,1.287,0,0,0,1.285-1.287v-1.008" transform="translate(-683.693 -915.561)" fill="none" stroke="#797979" stroke-linecap="round" stroke-linejoin="round" stroke-width="2"/>
    <path id="패스_1607" data-name="패스 1607" d="M791.629,932.827l-4.616-4.531a.892.892,0,0,0-1.517.636v3.352a2.085,2.085,0,0,0,2.094,2.071H791a.892.892,0,0,0,.625-1.528Z" transform="translate(-759.218 -915.561)" fill="none" stroke="#797979" stroke-miterlimit="10" stroke-width="2"/>
    <g id="그룹_494" data-name="그룹 494" transform="translate(3.519)">
      <path id="패스_1608" data-name="패스 1608" d="M688.674,878.639a1.305,1.305,0,0,1-1.4,1.186h0a1.307,1.307,0,0,1-1.4-1.186V874.6a1.305,1.305,0,0,1,1.4-1.184h0a1.3,1.3,0,0,1,1.4,1.184Z" transform="translate(-685.873 -873.418)" fill="#fff" stroke="#b1b1b1" stroke-miterlimit="10" stroke-width="2"/>
      <path id="패스_1609" data-name="패스 1609" d="M712.108,878.639a1.307,1.307,0,0,1-1.4,1.186h0a1.305,1.305,0,0,1-1.4-1.186V874.6a1.3,1.3,0,0,1,1.4-1.184h0a1.3,1.3,0,0,1,1.4,1.184Z" transform="translate(-703.955 -873.418)" fill="#fff" stroke="#b1b1b1" stroke-miterlimit="10" stroke-width="2"/>
      <path id="패스_1610" data-name="패스 1610" d="M735.531,878.639a1.307,1.307,0,0,1-1.4,1.186h0a1.305,1.305,0,0,1-1.4-1.186V874.6a1.3,1.3,0,0,1,1.4-1.184h0a1.305,1.305,0,0,1,1.4,1.184Z" transform="translate(-722.025 -873.418)" fill="#fff" stroke="#b1b1b1" stroke-miterlimit="10" stroke-width="2"/>
      <path id="패스_1611" data-name="패스 1611" d="M758.947,878.639a1.307,1.307,0,0,1-1.4,1.186h0a1.306,1.306,0,0,1-1.4-1.186V874.6a1.3,1.3,0,0,1,1.4-1.184h0a1.3,1.3,0,0,1,1.4,1.184Z" transform="translate(-740.092 -873.418)" fill="#fff" stroke="#b1b1b1" stroke-miterlimit="10" stroke-width="2"/>
      <path id="패스_1612" data-name="패스 1612" d="M782.375,878.639a1.306,1.306,0,0,1-1.4,1.186h0a1.306,1.306,0,0,1-1.4-1.186V874.6a1.3,1.3,0,0,1,1.4-1.184h0a1.3,1.3,0,0,1,1.4,1.184Z" transform="translate(-758.169 -873.418)" fill="#fff" stroke="#b1b1b1" stroke-miterlimit="10" stroke-width="2"/>
      <path id="패스_1613" data-name="패스 1613" d="M805.8,878.639a1.306,1.306,0,0,1-1.4,1.186h0a1.306,1.306,0,0,1-1.4-1.186V874.6a1.3,1.3,0,0,1,1.4-1.184h0a1.3,1.3,0,0,1,1.4,1.184Z" transform="translate(-776.24 -873.418)" fill="#fff" stroke="#b1b1b1" stroke-miterlimit="10" stroke-width="2"/>
    </g>
  </g>
</svg>
