<svg xmlns="http://www.w3.org/2000/svg" width="32.04" height="53.105" viewBox="0 0 32.04 53.105">
  <g id="ncs_06" transform="translate(-1150.685 -1514.87)">
    <path id="패스_4162" data-name="패스 4162" d="M1190.232,1655.5c-2.475,0-2.475-2.755-4.951-2.755s-2.476,2.755-4.951,2.755-2.475-2.755-4.95-2.755-2.474,2.755-4.95,2.755-2.475-2.755-4.95-2.755l-.619.061a8.447,8.447,0,0,0-.687,3.338c0,.066,0,.131,0,.2,0,.03,0,.059,0,.089v16.276a3.03,3.03,0,0,0,6.052,0v-8.4a11.972,11.972,0,0,0,3.665.553c7.451.005,13.258-4.509,16.37-9.381Z" transform="translate(-10.527 -107.602)" fill="#50b4ff"/>
    <g id="그룹_2690" data-name="그룹 2690" transform="translate(1150.685 1514.87)">
      <g id="그룹_2688" data-name="그룹 2688" transform="translate(1.382 25.419)">
        <path id="패스_4163" data-name="패스 4163" d="M1184.06,1635.472a4.1,4.1,0,0,1-3.289-1.846c-.669-.785-1.089-1.228-1.952-1.228s-1.283.444-1.952,1.228a3.853,3.853,0,0,1-6.577,0c-.669-.785-1.089-1.228-1.952-1.228s-1.283.444-1.952,1.228a3.852,3.852,0,0,1-6.576,0c-.669-.785-1.089-1.228-1.952-1.228a.878.878,0,0,1,0-1.757,4.1,4.1,0,0,1,3.288,1.845c.669.784,1.089,1.229,1.952,1.229s1.283-.444,1.951-1.229a3.852,3.852,0,0,1,6.577,0c.669.784,1.089,1.229,1.952,1.229s1.283-.444,1.952-1.229a3.853,3.853,0,0,1,6.578,0c.669.784,1.089,1.229,1.952,1.229a.878.878,0,0,1,0,1.756Z" transform="translate(-1156.98 -1630.642)" fill="#231815"/>
      </g>
      <g id="그룹_2689" data-name="그룹 2689">
        <path id="패스_4164" data-name="패스 4164" d="M1154.767,1567.526a4.086,4.086,0,0,1-4.082-4.082v-18.163c0-.038,0-.075,0-.112v-.047c0-.053,0-.106,0-.161,0-6.211,5.321-11.264,11.86-11.264.4,0,.8.02,1.2.058v-14.8a4.082,4.082,0,1,1,8.163,0v7.735a7.593,7.593,0,0,1,1.539-.338,7.89,7.89,0,0,1,6.649,2.06c2.3,2.308,2.637,5.771,2.632,7.63-.01,3.909-2.207,8.714-5.732,12.537a20.575,20.575,0,0,1-15.129,6.99h0a13.443,13.443,0,0,1-3.016-.334v8.212A4.086,4.086,0,0,1,1154.767,1567.526Zm7.778-32.072c-5.571,0-10.1,4.265-10.1,9.507,0,.037,0,.073,0,.11l0,.094c0,.013,0,.025,0,.038s0,.052,0,.078v18.163a2.325,2.325,0,1,0,4.65,0v-9.373a.878.878,0,0,1,1.161-.831,11.2,11.2,0,0,0,3.6.57h0a18.845,18.845,0,0,0,13.851-6.424c3.19-3.461,5.257-7.916,5.266-11.351,0-1.587-.265-4.526-2.119-6.385a6.218,6.218,0,0,0-5.238-1.552,7.51,7.51,0,0,0-2.2.667.878.878,0,0,1-1.259-.791v-9.022a2.325,2.325,0,0,0-4.65,0v15.563a.845.845,0,0,1-.01.134l-.008.05c-.009.055-.017.11-.024.165a.879.879,0,0,1-1.026.759A10.789,10.789,0,0,0,1162.545,1535.454Z" transform="translate(-1150.685 -1514.87)" fill="#231815"/>
      </g>
    </g>
  </g>
</svg>
