<svg xmlns="http://www.w3.org/2000/svg" width="55.142" height="53.221" viewBox="0 0 55.142 53.221">
  <g id="ncs_13" transform="translate(-676.496 -510.477)">
    <rect id="사각형_1909" data-name="사각형 1909" width="42.982" height="40.831" rx="1" transform="translate(686.845 511.448)" fill="#aac9eb"/>
    <rect id="사각형_1910" data-name="사각형 1910" width="42.983" height="40.831" rx="1" transform="translate(682.41 516.326)" fill="#fff"/>
    <rect id="사각형_1911" data-name="사각형 1911" width="42.595" height="9.889" transform="translate(682.41 546.402)" fill="#aac9eb"/>
    <g id="그룹_2706" data-name="그룹 2706" transform="translate(681.273 515.577)">
      <path id="패스_4195" data-name="패스 4195" d="M732.617,566.434H690.383a1.124,1.124,0,0,1-1.123-1.123V525.229a1.124,1.124,0,0,1,1.123-1.123h42.234a1.124,1.124,0,0,1,1.123,1.123v40.083A1.124,1.124,0,0,1,732.617,566.434Zm-41.86-1.5h41.486V525.6H690.757Z" transform="translate(-689.26 -524.106)" fill="#333"/>
    </g>
    <path id="패스_4196" data-name="패스 4196" d="M758.821,630.989c-1.022,0-1.885.614-1.885,1.341V634.7c0,.844.99,1.556,2.163,1.556.871,0,1.608-.515,1.608-1.125v-2.8C760.706,631.6,759.843,630.989,758.821,630.989Z" transform="translate(-50.336 -75.412)" fill="#fff"/>
    <path id="패스_4197" data-name="패스 4197" d="M788.762,633.862h.554a1.61,1.61,0,0,0,1.608-1.608v-4.268a1.885,1.885,0,1,0-3.77,0v4.268A1.61,1.61,0,0,0,788.762,633.862Z" transform="translate(-69.245 -72.353)" fill="#fff"/>
    <path id="패스_4198" data-name="패스 4198" d="M778.967,619.731a2.225,2.225,0,0,0-1.885,2.449v7.03a1.912,1.912,0,0,0,1.608,2.107h.554a1.911,1.911,0,0,0,1.607-2.107v-7.03A2.225,2.225,0,0,0,778.967,619.731Z" transform="translate(-62.943 -68.367)" fill="#fff"/>
    <path id="패스_4199" data-name="패스 4199" d="M679.4,622.211a1.013,1.013,0,0,0-.89.705c-.112.439.2.906.873,1.315a25.058,25.058,0,0,1,6.355,4.895,2.931,2.931,0,0,0,1.963,1.081,2.652,2.652,0,0,1-.031-.393v-4.028C686.279,624.391,682.77,622.055,679.4,622.211Z" transform="translate(-1.248 -69.915)" fill="#fff"/>
    <path id="패스_4200" data-name="패스 4200" d="M797.26,629.814a2.7,2.7,0,0,1-.032.394,2.938,2.938,0,0,0,1.963-1.082,25.062,25.062,0,0,1,6.354-4.9c.676-.409.987-.876.874-1.315a1.012,1.012,0,0,0-.89-.705,12.515,12.515,0,0,0-8.278,3.172c0,.055.009.108.009.164Z" transform="translate(-75.549 -69.913)" fill="#fff"/>
    <path id="패스_4201" data-name="패스 4201" d="M725.142,626.1a1.887,1.887,0,0,0-1.885,1.885v4.268a1.609,1.609,0,0,0,1.608,1.608h.554a1.61,1.61,0,0,0,1.608-1.608v-4.268A1.887,1.887,0,0,0,725.142,626.1Z" transform="translate(-29.261 -72.353)" fill="#fff"/>
    <path id="패스_4202" data-name="패스 4202" d="M734.937,636.255c1.172,0,2.162-.713,2.162-1.556V632.33c0-.727-.863-1.341-1.885-1.341s-1.885.614-1.885,1.341v2.8C733.329,635.74,734.065,636.255,734.937,636.255Z" transform="translate(-35.564 -75.412)" fill="#fff"/>
    <path id="패스_4203" data-name="패스 4203" d="M715.069,619.731a1.887,1.887,0,0,0-1.885,1.885v8.094a1.608,1.608,0,0,0,1.607,1.607h.555a1.609,1.609,0,0,0,1.608-1.607v-8.094A1.887,1.887,0,0,0,715.069,619.731Z" transform="translate(-22.958 -68.367)" fill="#fff"/>
    <path id="패스_4204" data-name="패스 4204" d="M705,626.1a1.887,1.887,0,0,0-1.885,1.885v4.268a1.609,1.609,0,0,0,1.608,1.608h.555a1.61,1.61,0,0,0,1.607-1.608v-4.268A1.887,1.887,0,0,0,705,626.1Z" transform="translate(-16.654 -72.353)" fill="#fff"/>
    <path id="패스_4205" data-name="패스 4205" d="M768.9,626.1a1.886,1.886,0,0,0-1.884,1.885v4.268a1.609,1.609,0,0,0,1.607,1.608h.555a1.609,1.609,0,0,0,1.607-1.608v-4.268A1.887,1.887,0,0,0,768.9,626.1Z" transform="translate(-56.641 -72.353)" fill="#fff"/>
    <g id="그룹_2707" data-name="그룹 2707" transform="translate(705.851 554.828)">
      <path id="패스_4206" data-name="패스 4206" d="M757.847,635.752c-1.605,0-2.911-1.034-2.911-2.3v-2.369a2.7,2.7,0,0,1,5.267,0v2.8A2.16,2.16,0,0,1,757.847,635.752Zm-.277-5.266c-.649,0-1.137.359-1.137.592v2.369c0,.366.631.808,1.414.808a.932.932,0,0,0,.859-.377v-2.8C758.706,630.845,758.218,630.486,757.57,630.486Z" transform="translate(-754.936 -628.989)" fill="#333"/>
    </g>
    <g id="그룹_2708" data-name="그룹 2708" transform="translate(717.16 552.999)">
      <path id="패스_4207" data-name="패스 4207" d="M788.065,633.359h-.554A2.359,2.359,0,0,1,785.154,631v-4.268a2.634,2.634,0,0,1,5.267,0V631A2.359,2.359,0,0,1,788.065,633.359Zm-.277-7.761a1.138,1.138,0,0,0-1.137,1.137V631a.861.861,0,0,0,.86.859h.554a.86.86,0,0,0,.859-.859v-4.268A1.138,1.138,0,0,0,787.787,625.6Z" transform="translate(-785.154 -624.101)" fill="#333"/>
    </g>
    <g id="그룹_2709" data-name="그룹 2709" transform="translate(713.391 550.615)">
      <path id="패스_4208" data-name="패스 4208" d="M777.992,630.814h-.554a2.646,2.646,0,0,1-2.357-2.856v-7.03a2.683,2.683,0,1,1,5.266,0v7.03A2.645,2.645,0,0,1,777.992,630.814Zm-.277-11.586c-.616,0-1.137.779-1.137,1.7v7.03c0,.8.453,1.359.86,1.359h.554c.406,0,.859-.558.859-1.359v-7.03C778.851,620.007,778.331,619.228,777.716,619.228Z" transform="translate(-775.082 -617.731)" fill="#333"/>
    </g>
    <g id="그룹_2710" data-name="그룹 2710" transform="translate(676.496 551.541)">
      <path id="패스_4209" data-name="패스 4209" d="M686.457,629.705a.754.754,0,0,1-.082,0,3.7,3.7,0,0,1-2.465-1.357,24.44,24.44,0,0,0-6.158-4.722c-1.373-.832-1.3-1.773-1.212-2.14a1.759,1.759,0,0,1,1.581-1.269c.119-.006.239-.008.359-.008,3.432,0,6.949,2.275,8.475,3.8a.748.748,0,0,1,.219.529v4.028a1.935,1.935,0,0,0,.024.283.749.749,0,0,1-.741.858Zm-7.977-8q-.145,0-.29.007a.3.3,0,0,0-.2.143c.006.03.111.232.536.49a25.694,25.694,0,0,1,6.551,5.068,2.183,2.183,0,0,0,.6.517v-3.07C684.267,623.554,681.28,621.7,678.479,621.7Z" transform="translate(-676.496 -620.204)" fill="#333"/>
    </g>
    <g id="그룹_2711" data-name="그룹 2711" transform="translate(720.93 551.54)">
      <path id="패스_4210" data-name="패스 4210" d="M795.977,629.7a.749.749,0,0,1-.74-.857,1.952,1.952,0,0,0,.024-.285v-4.268c0-.022,0-.043,0-.063l0-.056a.749.749,0,0,1,.22-.577,13.276,13.276,0,0,1,8.839-3.388,1.76,1.76,0,0,1,1.581,1.269c.094.366.163,1.308-1.213,2.14a24.451,24.451,0,0,0-6.157,4.723,3.7,3.7,0,0,1-2.464,1.358A.678.678,0,0,1,795.977,629.7Zm.781-5.258v3.476a2.18,2.18,0,0,0,.6-.516,25.712,25.712,0,0,1,6.551-5.068c.425-.257.531-.46.536-.5a.312.312,0,0,0-.2-.133A11.766,11.766,0,0,0,796.757,624.447Z" transform="translate(-795.228 -620.201)" fill="#333"/>
    </g>
    <g id="그룹_2712" data-name="그룹 2712" transform="translate(693.247 552.999)">
      <path id="패스_4211" data-name="패스 4211" d="M724.167,633.359h-.554A2.359,2.359,0,0,1,721.257,631v-4.268a2.633,2.633,0,1,1,5.266,0V631A2.359,2.359,0,0,1,724.167,633.359Zm-.277-7.761a1.138,1.138,0,0,0-1.136,1.137V631a.86.86,0,0,0,.859.859h.554a.86.86,0,0,0,.859-.859v-4.268A1.138,1.138,0,0,0,723.89,625.6Z" transform="translate(-721.257 -624.101)" fill="#333"/>
    </g>
    <g id="그룹_2713" data-name="그룹 2713" transform="translate(697.017 554.828)">
      <path id="패스_4212" data-name="패스 4212" d="M733.685,635.752a2.159,2.159,0,0,1-2.356-1.874v-2.8a2.7,2.7,0,0,1,5.267,0v2.369C736.6,634.719,735.29,635.752,733.685,635.752Zm.277-5.266c-.648,0-1.136.359-1.136.592v2.8a.932.932,0,0,0,.859.377c.783,0,1.413-.442,1.413-.808v-2.369C735.1,630.845,734.611,630.486,733.962,630.486Z" transform="translate(-731.329 -628.989)" fill="#333"/>
    </g>
    <g id="그룹_2714" data-name="그룹 2714" transform="translate(689.478 550.615)">
      <path id="패스_4213" data-name="패스 4213" d="M714.094,630.814h-.555a2.358,2.358,0,0,1-2.355-2.355v-8.094a2.633,2.633,0,1,1,5.267,0v8.094A2.359,2.359,0,0,1,714.094,630.814Zm-.277-11.586a1.138,1.138,0,0,0-1.136,1.137v8.094a.859.859,0,0,0,.858.859h.555a.86.86,0,0,0,.859-.859v-8.094A1.138,1.138,0,0,0,713.817,619.228Z" transform="translate(-711.184 -617.731)" fill="#333"/>
    </g>
    <g id="그룹_2715" data-name="그룹 2715" transform="translate(685.708 552.999)">
      <path id="패스_4214" data-name="패스 4214" d="M704.022,633.359h-.555A2.359,2.359,0,0,1,701.111,631v-4.268a2.633,2.633,0,1,1,5.267,0V631A2.359,2.359,0,0,1,704.022,633.359Zm-.277-7.761a1.138,1.138,0,0,0-1.137,1.137V631a.86.86,0,0,0,.859.859h.555a.86.86,0,0,0,.859-.859v-4.268A1.138,1.138,0,0,0,703.745,625.6Z" transform="translate(-701.111 -624.101)" fill="#333"/>
    </g>
    <g id="그룹_2716" data-name="그룹 2716" transform="translate(709.622 552.999)">
      <path id="패스_4215" data-name="패스 4215" d="M767.921,633.359h-.555A2.358,2.358,0,0,1,765.011,631v-4.268a2.633,2.633,0,1,1,5.266,0V631A2.359,2.359,0,0,1,767.921,633.359Zm-.277-7.761a1.137,1.137,0,0,0-1.136,1.137V631a.86.86,0,0,0,.859.859h.555a.86.86,0,0,0,.859-.859v-4.268A1.138,1.138,0,0,0,767.644,625.6Z" transform="translate(-765.011 -624.101)" fill="#333"/>
    </g>
    <g id="그룹_2717" data-name="그룹 2717" transform="translate(692.564 510.477)">
      <path id="패스_4216" data-name="패스 4216" d="M741.332,521.427h-1.5a9.454,9.454,0,0,0-18.908,0h-1.5a10.951,10.951,0,0,1,21.9,0Z" transform="translate(-719.43 -510.477)" fill="#50b4ff"/>
    </g>
    <path id="패스_4217" data-name="패스 4217" d="M719.84,541.6a2.366,2.366,0,1,1-2.366-2.366A2.366,2.366,0,0,1,719.84,541.6Z" transform="translate(-24.162 -17.998)" fill="#fff"/>
    <path id="패스_4218" data-name="패스 4218" d="M774.365,541.6A2.365,2.365,0,1,1,772,539.239,2.365,2.365,0,0,1,774.365,541.6Z" transform="translate(-58.283 -17.998)" fill="#fff"/>
    <g id="그룹_2718" data-name="그룹 2718" transform="translate(690.198 520.492)">
      <path id="패스_4219" data-name="패스 4219" d="M716.223,543.467a3.114,3.114,0,1,1,3.114-3.114A3.118,3.118,0,0,1,716.223,543.467Zm0-4.731a1.617,1.617,0,1,0,1.617,1.617A1.619,1.619,0,0,0,716.223,538.736Z" transform="translate(-713.109 -537.239)" fill="#333"/>
    </g>
    <g id="그룹_2719" data-name="그룹 2719" transform="translate(710.604 520.492)">
      <path id="패스_4220" data-name="패스 4220" d="M770.749,543.467a3.114,3.114,0,1,1,3.114-3.114A3.118,3.118,0,0,1,770.749,543.467Zm0-4.731a1.617,1.617,0,1,0,1.617,1.617A1.619,1.619,0,0,0,770.749,538.736Z" transform="translate(-767.635 -537.239)" fill="#333"/>
    </g>
  </g>
</svg>
