<svg xmlns="http://www.w3.org/2000/svg" width="41.784" height="50.024" viewBox="0 0 41.784 50.024">
  <g id="ncs_05" transform="translate(-199.277 -520.8)">
    <g id="그룹_2630" data-name="그룹 2630" transform="translate(199.277 520.8)">
      <path id="패스_4069" data-name="패스 4069" d="M221.52,573.675l-20.242-8.93V534.36l20.242,8.93Z" transform="translate(-200.627 -529.954)" fill="#50b4ff"/>
      <path id="패스_4070" data-name="패스 4070" d="M263.568,573.675l20.242-8.93V534.36l-20.242,8.93Z" transform="translate(-242.676 -529.954)" fill="#50b4ff"/>
      <g id="그룹_2624" data-name="그룹 2624" transform="translate(0 3.862)">
        <path id="패스_4071" data-name="패스 4071" d="M219.983,573.088a.921.921,0,0,1-.372-.081l-19.648-8.668a1.2,1.2,0,0,1-.685-1.051V533.554a.845.845,0,0,1,.837-.869.921.921,0,0,1,.372.081l19.648,8.668a1.2,1.2,0,0,1,.685,1.051v29.734A.844.844,0,0,1,219.983,573.088Zm-19.406-9.9,18.943,8.357V542.583l-18.943-8.357Z" transform="translate(-199.277 -532.685)" fill="#333"/>
      </g>
      <g id="그룹_2625" data-name="그룹 2625" transform="translate(20.242 3.862)">
        <path id="패스_4072" data-name="패스 4072" d="M262.405,573.088h0a.845.845,0,0,1-.837-.869V542.485a1.2,1.2,0,0,1,.685-1.051l19.647-8.668a.924.924,0,0,1,.373-.081.844.844,0,0,1,.837.869v29.734a1.2,1.2,0,0,1-.685,1.051l-19.647,8.668A.923.923,0,0,1,262.405,573.088Zm.463-30.5v28.963l18.942-8.357V534.227Z" transform="translate(-261.568 -532.685)" fill="#333"/>
      </g>
      <path id="패스_4073" data-name="패스 4073" d="M229.412,569.952l-16.443-10.723V528.845l16.443,10.723Z" transform="translate(-208.519 -526.23)" fill="#aac9eb"/>
      <path id="패스_4074" data-name="패스 4074" d="M263.568,569.952l16.443-10.723V528.845l-16.443,10.723Z" transform="translate(-242.676 -526.23)" fill="#aac9eb"/>
      <g id="그룹_2626" data-name="그룹 2626" transform="translate(3.8 2.097)">
        <path id="패스_4075" data-name="패스 4075" d="M227.919,569.394a.893.893,0,0,1-.484-.15l-15.9-10.369a1.313,1.313,0,0,1-.567-1.046V528.095a.8.8,0,0,1,.793-.843.891.891,0,0,1,.484.15l15.9,10.368a1.313,1.313,0,0,1,.567,1.047v29.734A.8.8,0,0,1,227.919,569.394ZM212.27,557.8l15.142,9.874V538.849s0-.006,0-.006l-15.142-9.875V557.8S212.271,557.8,212.27,557.8Z" transform="translate(-210.969 -527.252)" fill="#333"/>
      </g>
      <g id="그룹_2627" data-name="그룹 2627" transform="translate(20.242 2.097)">
        <path id="패스_4076" data-name="패스 4076" d="M262.361,569.394h0a.8.8,0,0,1-.793-.843V538.817a1.314,1.314,0,0,1,.568-1.047l15.9-10.367a.889.889,0,0,1,.484-.151.8.8,0,0,1,.793.843v29.734a1.314,1.314,0,0,1-.568,1.047l-15.9,10.367A.892.892,0,0,1,262.361,569.394Zm.507-30.548v28.831l15.139-9.872s0,0,0,0V528.969l-15.139,9.872S262.869,538.845,262.868,538.846Z" transform="translate(-261.568 -527.252)" fill="#333"/>
      </g>
      <path id="패스_4077" data-name="패스 4077" d="M244.081,565.518,234.7,552.661V522.276l9.382,12.857Z" transform="translate(-223.188 -521.797)" fill="#fff"/>
      <g id="그룹_2628" data-name="그룹 2628" transform="translate(10.861 0)">
        <path id="패스_4078" data-name="패스 4078" d="M242.659,565a.79.79,0,0,1-.645-.359l-9-12.332a1.81,1.81,0,0,1-.317-.971V521.6a.74.74,0,0,1,.721-.8.79.79,0,0,1,.645.359l9,12.332a1.81,1.81,0,0,1,.316.971V564.2A.739.739,0,0,1,242.659,565ZM234,523.273v28.066a.6.6,0,0,0,.068.206l8.014,10.983V534.462a.6.6,0,0,0-.068-.206Z" transform="translate(-232.699 -520.8)" fill="#333"/>
      </g>
      <path id="패스_4079" data-name="패스 4079" d="M263.568,565.518l9.381-12.857V522.276l-9.381,12.857Z" transform="translate(-242.676 -521.797)" fill="#fff"/>
      <g id="그룹_2629" data-name="그룹 2629" transform="translate(20.242 0)">
        <path id="패스_4080" data-name="패스 4080" d="M262.29,565a.74.74,0,0,1-.722-.8V534.462a1.811,1.811,0,0,1,.316-.971l9-12.332a.791.791,0,0,1,.645-.359.739.739,0,0,1,.721.8v29.734a1.81,1.81,0,0,1-.316.971l-9,12.332A.79.79,0,0,1,262.29,565Zm8.66-41.728-8.015,10.984a.6.6,0,0,0-.067.206v28.064l8.015-10.984a.594.594,0,0,0,.067-.206Z" transform="translate(-261.568 -520.8)" fill="#333"/>
      </g>
    </g>
    <path id="패스_4081" data-name="패스 4081" d="M251.683,662.414c0,1.32-5.294,2.391-11.825,2.391s-11.825-1.071-11.825-2.391,5.294-2.39,11.825-2.39S251.683,661.094,251.683,662.414Z" transform="translate(-19.411 -93.981)" fill="#aac9eb"/>
  </g>
</svg>
