<svg xmlns="http://www.w3.org/2000/svg" width="53.641" height="43.522" viewBox="0 0 53.641 43.522">
  <g id="ncs_14" transform="translate(-275.686 -810.665)">
    <path id="사각형_1895" data-name="사각형 1895" d="M2.074,0H15.588a2.075,2.075,0,0,1,2.075,2.075V38.021A2.074,2.074,0,0,1,15.589,40.1H2.075A2.075,2.075,0,0,1,0,38.02V2.074A2.074,2.074,0,0,1,2.074,0Z" transform="translate(295.233 810.665)" fill="#aac9eb"/>
    <path id="패스_4141" data-name="패스 4141" d="M285.426,871.97a.657.657,0,0,0,.664.649h15.1a.657.657,0,0,0,.664-.649V843.46a.657.657,0,0,0-.664-.649h-15.1a.656.656,0,0,0-.664.649Z" transform="translate(-6.623 -21.859)" fill="#aac9eb"/>
    <path id="패스_4142" data-name="패스 4142" d="M391.969,882.062a.664.664,0,0,0,.662.664h15.1a.664.664,0,0,0,.663-.664V858.336a.665.665,0,0,0-.663-.664h-15.1a.664.664,0,0,0-.662.664Z" transform="translate(-79.072 -31.965)" fill="#aac9eb"/>
    <path id="사각형_1896" data-name="사각형 1896" d="M2.074,0H15.588a2.075,2.075,0,0,1,2.075,2.075V38.021A2.074,2.074,0,0,1,15.589,40.1H2.075A2.075,2.075,0,0,1,0,38.02V2.074A2.074,2.074,0,0,1,2.074,0Z" transform="translate(292.757 813.452)" fill="#fff"/>
    <path id="패스_4143" data-name="패스 4143" d="M277.686,880.678a.657.657,0,0,0,.663.649h15.1a.657.657,0,0,0,.664-.649v-28.51a.657.657,0,0,0-.664-.649h-15.1a.656.656,0,0,0-.663.649Z" transform="translate(-1.36 -27.781)" fill="#fff"/>
    <path id="패스_4144" data-name="패스 4144" d="M384.229,890.769a.663.663,0,0,0,.662.664h15.1a.664.664,0,0,0,.663-.664V867.044a.664.664,0,0,0-.663-.664h-15.1a.664.664,0,0,0-.662.664Z" transform="translate(-73.809 -37.886)" fill="#fff"/>
    <rect id="사각형_1897" data-name="사각형 1897" width="3.643" height="25.053" transform="translate(310.42 828.494)" fill="#aac9eb"/>
    <rect id="사각형_1898" data-name="사각형 1898" width="3.566" height="29.809" transform="translate(289.191 823.738)" fill="#aac9eb"/>
    <g id="그룹_2673" data-name="그룹 2673" transform="translate(292.117 812.812)">
      <path id="패스_4145" data-name="패스 4145" d="M344.671,858.749H328.335a1.305,1.305,0,0,1-1.3-1.3V818.677a1.305,1.305,0,0,1,1.3-1.3h16.336a1.305,1.305,0,0,1,1.3,1.3v38.768A1.305,1.305,0,0,1,344.671,858.749Zm-16.336-40.1a.024.024,0,0,0-.024.024v38.768a.024.024,0,0,0,.024.024h16.336a.025.025,0,0,0,.024-.024V818.677a.025.025,0,0,0-.024-.024Z" transform="translate(-327.031 -817.373)" fill="#333"/>
    </g>
    <path id="패스_4146" data-name="패스 4146" d="M346.694,907.265H329.031V901.52h17.664" transform="translate(-36.274 -61.781)" fill="#50b4ff"/>
    <g id="그룹_2674" data-name="그룹 2674" transform="translate(292.117 812.812)">
      <path id="패스_4147" data-name="패스 4147" d="M344.671,858.749H328.335a1.305,1.305,0,0,1-1.3-1.3V818.677a1.305,1.305,0,0,1,1.3-1.3h16.336a1.305,1.305,0,0,1,1.3,1.3v38.768A1.305,1.305,0,0,1,344.671,858.749Zm-16.336-40.1a.024.024,0,0,0-.024.024v38.768a.024.024,0,0,0,.024.024h16.336a.025.025,0,0,0,.024-.024V818.677a.025.025,0,0,0-.024-.024Z" transform="translate(-327.031 -817.373)" fill="#333"/>
    </g>
    <g id="그룹_2675" data-name="그룹 2675" transform="translate(275.686 823.098)">
      <path id="패스_4148" data-name="패스 4148" d="M292.093,880.608h-15.1a1.3,1.3,0,0,1-1.3-1.289v-28.51a1.3,1.3,0,0,1,1.3-1.289h15.1a1.3,1.3,0,0,1,1.3,1.289v28.51A1.3,1.3,0,0,1,292.093,880.608Zm-15.1-29.809-.023,28.519,15.127.009a.027.027,0,0,0,.024-.011V850.808Z" transform="translate(-275.686 -849.519)" fill="#333"/>
    </g>
    <g id="그룹_2676" data-name="그룹 2676" transform="translate(309.78 827.854)">
      <path id="패스_4149" data-name="패스 4149" d="M398.635,890.713h-15.1a1.3,1.3,0,0,1-1.3-1.3V865.684a1.3,1.3,0,0,1,1.3-1.3h15.1a1.305,1.305,0,0,1,1.3,1.3v23.725A1.305,1.305,0,0,1,398.635,890.713Zm-15.1-25.053a.023.023,0,0,0-.022.024v23.725a.024.024,0,0,0,.022.024h15.1a.024.024,0,0,0,.023-.024V865.684a.024.024,0,0,0-.023-.024Z" transform="translate(-382.229 -864.38)" fill="#333"/>
    </g>
    <g id="그룹_2677" data-name="그룹 2677" transform="translate(292.117 839.099)">
      <path id="패스_4150" data-name="패스 4150" d="M345.335,906.545H327.671a.64.64,0,0,1-.64-.64V900.16a.64.64,0,0,1,.64-.64h17.664a.64.64,0,0,1,0,1.28H328.311v4.465h17.024a.64.64,0,0,1,0,1.28Z" transform="translate(-327.031 -899.52)" fill="#333"/>
    </g>
    <path id="패스_4151" data-name="패스 4151" d="M294.292,867.819H278.448v-5.745h15.843" transform="translate(-1.878 -34.958)" fill="#50b4ff"/>
    <g id="그룹_2678" data-name="그룹 2678" transform="translate(275.996 826.476)">
      <path id="패스_4152" data-name="패스 4152" d="M293.072,867.1H277.229a.61.61,0,0,1-.574-.64v-5.745a.61.61,0,0,1,.574-.64h15.844a.644.644,0,0,1,0,1.28H277.8v4.465h15.27a.644.644,0,0,1,0,1.28Z" transform="translate(-276.655 -860.074)" fill="#333"/>
    </g>
    <path id="패스_4153" data-name="패스 4153" d="M399.8,880.651H383.953v-5.745H399.8" transform="translate(-73.621 -43.683)" fill="#50b4ff"/>
    <g id="그룹_2679" data-name="그룹 2679" transform="translate(309.758 830.582)">
      <path id="패스_4154" data-name="패스 4154" d="M398.577,879.931H382.733a.61.61,0,0,1-.574-.64v-5.745a.61.61,0,0,1,.574-.64h15.844a.644.644,0,0,1,0,1.28h-15.27v4.465h15.27a.644.644,0,0,1,0,1.28Z" transform="translate(-382.159 -872.906)" fill="#333"/>
    </g>
  </g>
</svg>
