<svg xmlns="http://www.w3.org/2000/svg" width="47.823" height="48.755" viewBox="0 0 47.823 48.755">
  <g id="ncs_15" transform="translate(-767.524 -416.586)">
    <path id="패스_4155" data-name="패스 4155" d="M826.548,432.679V419.6a1.016,1.016,0,0,0-1.017-1.017h-22.2a1.017,1.017,0,0,0-1.017,1.017v13.076Z" transform="translate(-22.994 -1.322)" fill="#fff"/>
    <path id="사각형_1899" data-name="사각형 1899" d="M5.227,0h36.01a5.228,5.228,0,0,1,5.228,5.228V24.855a5.227,5.227,0,0,1-5.227,5.227H5.227A5.227,5.227,0,0,1,0,24.855V5.227A5.227,5.227,0,0,1,5.227,0Z" transform="translate(768.202 431.39)" fill="#fff"/>
    <rect id="사각형_1900" data-name="사각형 1900" width="45.875" height="1.441" transform="translate(768.202 439.703)" fill="#aac9eb"/>
    <path id="패스_4156" data-name="패스 4156" d="M818.452,555.683c.259.268.166.487-.207.487H777.972c-.373,0-.464-.218-.2-.484l1.179-1.2A1.857,1.857,0,0,1,780.1,554h36.041a1.837,1.837,0,0,1,1.149.487Z" transform="translate(-6.674 -90.829)" fill="#aac9eb"/>
    <rect id="사각형_1901" data-name="사각형 1901" width="24.238" height="3.423" transform="translate(779.316 427.967)" fill="#aac9eb"/>
    <g id="그룹_2681" data-name="그룹 2681" transform="translate(785.924 429.157)">
      <rect id="사각형_1902" data-name="사각형 1902" width="2.163" height="2.164" transform="translate(0)" fill="#333"/>
      <rect id="사각형_1903" data-name="사각형 1903" width="2.164" height="2.164" transform="translate(4.429)" fill="#333"/>
      <rect id="사각형_1904" data-name="사각형 1904" width="2.164" height="2.164" transform="translate(8.86)" fill="#333"/>
    </g>
    <g id="그룹_2682" data-name="그룹 2682" transform="translate(777.252 461.599)">
      <rect id="사각형_1905" data-name="사각형 1905" width="2.163" height="2.164" transform="translate(0)" fill="#333"/>
      <rect id="사각형_1906" data-name="사각형 1906" width="2.164" height="2.164" transform="translate(26.202)" fill="#333"/>
    </g>
    <g id="그룹_2683" data-name="그룹 2683" transform="translate(767.524 430.712)">
      <path id="패스_4157" data-name="패스 4157" d="M812.9,489.694H769.975a2.453,2.453,0,0,1-2.451-2.45V460.707a2.453,2.453,0,0,1,2.451-2.45H812.9a2.453,2.453,0,0,1,2.45,2.45v26.537A2.453,2.453,0,0,1,812.9,489.694Zm-42.922-30.081a1.1,1.1,0,0,0-1.095,1.094v26.537a1.1,1.1,0,0,0,1.095,1.094H812.9a1.1,1.1,0,0,0,1.094-1.094V460.707a1.1,1.1,0,0,0-1.094-1.094Z" transform="translate(-767.524 -458.257)" fill="#333"/>
    </g>
    <g id="그룹_2684" data-name="그룹 2684" transform="translate(778.638 416.586)">
      <path id="패스_4158" data-name="패스 4158" d="M825.9,432.035H800.31V418.281a1.7,1.7,0,0,1,1.7-1.695h22.2a1.7,1.7,0,0,1,1.7,1.695Zm-24.238-1.356h22.882v-12.4a.339.339,0,0,0-.339-.339h-22.2a.339.339,0,0,0-.339.339Z" transform="translate(-800.31 -416.586)" fill="#333"/>
    </g>
    <path id="패스_4159" data-name="패스 4159" d="M835.255,485.23a1.354,1.354,0,0,1-1.265,1.427H823.233a1.353,1.353,0,0,1-1.265-1.427v-2.14a1.354,1.354,0,0,1,1.265-1.427H833.99a1.354,1.354,0,0,1,1.265,1.427Z" transform="translate(-35.988 -43.015)" fill="#aac9eb"/>
    <g id="그룹_2685" data-name="그룹 2685" transform="translate(768.202 438.673)">
      <rect id="사각형_1907" data-name="사각형 1907" width="46.466" height="1.356" transform="translate(0 0)" fill="#333"/>
    </g>
    <path id="패스_4160" data-name="패스 4160" d="M832.058,481.4a1.287,1.287,0,0,1-1.2,1.357h-10.23a1.287,1.287,0,0,1-1.2-1.357v-2.036a1.287,1.287,0,0,1,1.2-1.357h10.23a1.288,1.288,0,0,1,1.2,1.357Z" transform="translate(-34.304 -40.6)" fill="#50b4ff"/>
    <g id="그룹_2686" data-name="그룹 2686" transform="translate(784.439 436.73)">
      <path id="패스_4161" data-name="패스 4161" d="M829.533,482.115H819.3a1.965,1.965,0,0,1-1.882-2.035v-2.036a1.965,1.965,0,0,1,1.882-2.035h10.23a1.965,1.965,0,0,1,1.882,2.035v2.036A1.965,1.965,0,0,1,829.533,482.115Zm-10.23-4.751a.626.626,0,0,0-.526.679v2.036a.626.626,0,0,0,.526.679h10.23a.626.626,0,0,0,.526-.679v-2.036a.626.626,0,0,0-.526-.679Z" transform="translate(-817.421 -476.008)" fill="#333"/>
    </g>
  </g>
</svg>
