<svg xmlns="http://www.w3.org/2000/svg" width="48" height="44.605" viewBox="0 0 48 44.605">
  <g id="ncs_21" transform="translate(-168.606 -528.653)">
    <path id="패스_4176" data-name="패스 4176" d="M222.558,662.073a.481.481,0,0,1-.48.48H185.2a.48.48,0,0,1-.48-.48l2.4-2.532a.48.48,0,0,1,.48-.48h32.082a.48.48,0,0,1,.48.48Z" transform="translate(-11.031 -89.296)" fill="#aac9eb"/>
    <path id="패스_4177" data-name="패스 4177" d="M216.727,600.393a3.563,3.563,0,0,1-3.564,3.563H185.481a3.563,3.563,0,0,1-3.563-3.563l-3.341-18.929a3.563,3.563,0,0,1,3.563-3.564h34.586a3.563,3.563,0,0,1,3.563,3.564Z" transform="translate(-6.828 -33.721)" fill="#fff"/>
    <rect id="사각형_1908" data-name="사각형 1908" width="41.993" height="2.027" transform="translate(171.749 547.742)" fill="#aac9eb"/>
    <path id="패스_4178" data-name="패스 4178" d="M211.751,603.195H184.069a4.218,4.218,0,0,1-4.213-4.154l-3.331-18.875a.646.646,0,0,1-.01-.113,4.218,4.218,0,0,1,4.213-4.214h34.586a4.218,4.218,0,0,1,4.213,4.214.67.67,0,0,1-.011.12l-3.553,18.872A4.218,4.218,0,0,1,211.751,603.195ZM177.816,580l3.33,18.871a.616.616,0,0,1,.01.113,2.917,2.917,0,0,0,2.914,2.913h27.682a2.917,2.917,0,0,0,2.913-2.913.643.643,0,0,1,.012-.12l3.551-18.866a2.917,2.917,0,0,0-2.913-2.856H180.728A2.917,2.917,0,0,0,177.816,580Z" transform="translate(-5.416 -32.31)" fill="#424242"/>
    <g id="그룹_2695" data-name="그룹 2695" transform="translate(168.606 542.465)">
      <path id="패스_4179" data-name="패스 4179" d="M217.3,576.738a2.4,2.4,0,0,1-2.4,2.4H172.88a2.4,2.4,0,0,1-2.4-2.4h0a2.4,2.4,0,0,1,2.4-2.4h42.013a2.4,2.4,0,0,1,2.4,2.4Z" transform="translate(-169.887 -573.745)" fill="#50b4ff"/>
      <path id="패스_4180" data-name="패스 4180" d="M213.612,578.451H171.6a2.993,2.993,0,0,1,0-5.986h42.013a2.993,2.993,0,1,1,0,5.986ZM171.6,573.644a1.814,1.814,0,0,0,0,3.628h42.013a1.814,1.814,0,1,0,0-3.628Z" transform="translate(-168.606 -572.465)" fill="#424242"/>
    </g>
    <g id="그룹_2700" data-name="그룹 2700" transform="translate(178.337 528.653)">
      <g id="그룹_2696" data-name="그룹 2696" transform="translate(0 1.303)">
        <path id="패스_4181" data-name="패스 4181" d="M200.061,546.188a.589.589,0,0,1-.547-.808l4.888-12.222a.589.589,0,0,1,.548-.371h3.014a.59.59,0,0,1,0,1.179h-2.615l-4.74,11.851A.59.59,0,0,1,200.061,546.188Z" transform="translate(-199.472 -532.787)" fill="#424242"/>
      </g>
      <g id="그룹_2697" data-name="그룹 2697" transform="translate(19.456 1.303)">
        <path id="패스_4182" data-name="패스 4182" d="M269.68,546.188a.59.59,0,0,1-.547-.371l-4.741-11.851h-2.615a.59.59,0,1,1,0-1.179h3.014a.589.589,0,0,1,.547.371l4.888,12.222a.589.589,0,0,1-.328.766A.582.582,0,0,1,269.68,546.188Z" transform="translate(-261.187 -532.787)" fill="#424242"/>
      </g>
      <g id="그룹_2698" data-name="그룹 2698" transform="translate(7.126 0)">
        <path id="패스_4183" data-name="패스 4183" d="M226.554,531.826a1.3,1.3,0,0,1-1.3,1.3h0a1.3,1.3,0,0,1-1.3-1.3h0a1.3,1.3,0,0,1,1.3-1.3h0a1.3,1.3,0,0,1,1.3,1.3Z" transform="translate(-223.356 -529.933)" fill="#50b4ff"/>
        <path id="패스_4184" data-name="패스 4184" d="M223.969,532.439a1.893,1.893,0,1,1,1.893-1.893A1.9,1.9,0,0,1,223.969,532.439Zm0-2.607a.714.714,0,1,0,.714.714A.715.715,0,0,0,223.969,529.832Z" transform="translate(-222.076 -528.653)" fill="#424242"/>
      </g>
      <g id="그룹_2699" data-name="그룹 2699" transform="translate(17.579 0)">
        <path id="패스_4185" data-name="패스 4185" d="M259.71,531.826a1.3,1.3,0,0,1-1.3,1.3h0a1.3,1.3,0,0,1-1.3-1.3h0a1.3,1.3,0,0,1,1.3-1.3h0a1.3,1.3,0,0,1,1.3,1.3Z" transform="translate(-256.513 -529.933)" fill="#50b4ff"/>
        <path id="패스_4186" data-name="패스 4186" d="M257.125,532.439a1.893,1.893,0,1,1,1.893-1.893A1.9,1.9,0,0,1,257.125,532.439Zm0-2.607a.714.714,0,1,0,.714.714A.715.715,0,0,0,257.125,529.832Z" transform="translate(-255.232 -528.653)" fill="#424242"/>
      </g>
    </g>
    <g id="그룹_2701" data-name="그룹 2701" transform="translate(194.398 550.857)">
      <path id="패스_4187" data-name="패스 4187" d="M254.243,615.428a.939.939,0,0,1-.978.9h0a.939.939,0,0,1-.978-.9V601.848a.939.939,0,0,1,.978-.9h0a.939.939,0,0,1,.978.9Z" transform="translate(-251.698 -600.363)" fill="#aac9eb"/>
      <path id="패스_4188" data-name="패스 4188" d="M251.985,615.632a1.529,1.529,0,0,1-1.567-1.485V600.568a1.569,1.569,0,0,1,3.134,0v13.579A1.529,1.529,0,0,1,251.985,615.632Zm0-15.37a.359.359,0,0,0-.388.306v13.579a.4.4,0,0,0,.776,0V600.568A.36.36,0,0,0,251.985,600.262Z" transform="translate(-250.418 -599.083)" fill="#424242"/>
    </g>
    <g id="그룹_2702" data-name="그룹 2702" transform="translate(187.306 550.857)">
      <path id="패스_4189" data-name="패스 4189" d="M231.748,615.428a.939.939,0,0,1-.978.9h0a.94.94,0,0,1-.978-.9V601.848a.939.939,0,0,1,.978-.9h0a.939.939,0,0,1,.978.9Z" transform="translate(-229.202 -600.363)" fill="#aac9eb"/>
      <path id="패스_4190" data-name="패스 4190" d="M229.489,615.632a1.529,1.529,0,0,1-1.567-1.485V600.568a1.57,1.57,0,0,1,3.135,0v13.579A1.529,1.529,0,0,1,229.489,615.632Zm0-15.37a.36.36,0,0,0-.388.306v13.579a.4.4,0,0,0,.776,0V600.568A.36.36,0,0,0,229.489,600.262Z" transform="translate(-227.922 -599.083)" fill="#424242"/>
    </g>
    <g id="그룹_2703" data-name="그룹 2703" transform="translate(200.682 550.944)">
      <path id="패스_4191" data-name="패스 4191" d="M274.164,615.685a.94.94,0,0,1-1.11.726h0a.938.938,0,0,1-.82-1.041l2.191-13.4a.939.939,0,0,1,1.109-.725h0a.94.94,0,0,1,.821,1.041Z" transform="translate(-271.633 -600.639)" fill="#aac9eb"/>
      <path id="패스_4192" data-name="패스 4192" d="M271.946,615.734a1.641,1.641,0,0,1-1.277-.609,1.436,1.436,0,0,1-.3-1.131l2.191-13.4a1.507,1.507,0,0,1,1.518-1.234,1.715,1.715,0,0,1,.269.022,1.53,1.53,0,0,1,1.307,1.718l-2.191,13.4A1.508,1.508,0,0,1,271.946,615.734Zm2.134-15.2a.34.34,0,0,0-.354.245l-2.192,13.4a.274.274,0,0,0,.061.211.43.43,0,0,0,.272.153.357.357,0,0,0,.433-.24l2.191-13.4a.359.359,0,0,0-.334-.364A.471.471,0,0,0,274.08,600.538Z" transform="translate(-270.351 -599.359)" fill="#424242"/>
    </g>
    <g id="그룹_2704" data-name="그룹 2704" transform="translate(178.851 551.231)">
      <path id="패스_4193" data-name="패스 4193" d="M205.176,616.6a.94.94,0,0,0,1.11.726h0a.939.939,0,0,0,.82-1.042l-2.192-13.4a.938.938,0,0,0-1.109-.725h0a.939.939,0,0,0-.821,1.041Z" transform="translate(-202.384 -601.549)" fill="#aac9eb"/>
      <path id="패스_4194" data-name="패스 4194" d="M204.831,616.645h0a1.507,1.507,0,0,1-1.518-1.233l-2.192-13.4a1.438,1.438,0,0,1,.3-1.131,1.607,1.607,0,0,1,1.009-.587,1.666,1.666,0,0,1,.269-.022,1.505,1.505,0,0,1,1.517,1.234l2.192,13.4a1.435,1.435,0,0,1-.3,1.131,1.6,1.6,0,0,1-1.008.588A1.661,1.661,0,0,1,204.831,616.645Zm-2.134-15.2a.543.543,0,0,0-.078.006.431.431,0,0,0-.273.154.273.273,0,0,0-.062.211l2.191,13.4a.362.362,0,0,0,.433.239.426.426,0,0,0,.272-.153.271.271,0,0,0,.062-.211l-2.192-13.4A.34.34,0,0,0,202.7,601.448Z" transform="translate(-201.102 -600.269)" fill="#424242"/>
    </g>
  </g>
</svg>
