<svg xmlns="http://www.w3.org/2000/svg" width="49.578" height="51.03" viewBox="0 0 49.578 51.03">
  <g id="ncs_11" transform="translate(-695.524 -770.089)">
    <path id="패스_4045" data-name="패스 4045" d="M742.934,817.391l-.038-.039c-.051-.048-.361-.357-.715-.71l-7.445-7.445a1.5,1.5,0,0,1-.347-1.042l1.3-9.146a2.95,2.95,0,0,0-.764-2.29l-2.17-2.17a1.765,1.765,0,0,0-2-.295l-10.2-10.2a2.214,2.214,0,0,0-3.124,0l-.1.1-7.614-7.615a.759.759,0,0,0-1.041,0L695.74,789.474a.735.735,0,0,0,0,1.04l7.614,7.614-.381.381a2.212,2.212,0,0,0,0,3.124l10.195,10.2a1.7,1.7,0,0,0,.3,2.007l2.171,2.17a2.973,2.973,0,0,0,1.984.786,2.115,2.115,0,0,0,.306-.021l9.146-1.3a1.469,1.469,0,0,1,1.042.347l7.444,7.444.693.7.056.059a4.683,4.683,0,1,0,6.623-6.623Z" transform="translate(0 -4.266)" fill="#aac9eb"/>
    <g id="그룹_2594" data-name="그룹 2594" transform="translate(696.32 770.089)">
      <rect id="사각형_1859" data-name="사각형 1859" width="18.288" height="13.66" transform="translate(0.737 13.659) rotate(-44.999)" fill="#50b4ff"/>
      <path id="패스_4046" data-name="패스 4046" d="M708.433,794.144a.735.735,0,0,1-.521-.216l-9.659-9.659a.734.734,0,0,1,0-1.04L711.185,770.3a.758.758,0,0,1,1.041,0l9.659,9.659a.737.737,0,0,1,0,1.042l-12.931,12.931A.735.735,0,0,1,708.433,794.144Zm-8.618-10.4,8.618,8.617,11.889-11.891-8.617-8.617Z" transform="translate(-698.037 -770.089)" fill="#333"/>
    </g>
    <g id="그룹_2595" data-name="그룹 2595" transform="translate(700.474 774.241)">
      <rect id="사각형_1860" data-name="사각형 1860" width="6.543" height="13.659" transform="translate(0.736 5.355) rotate(-45)" fill="#fff"/>
      <path id="패스_4047" data-name="패스 4047" d="M721.537,798.943a.734.734,0,0,1-.52-.216l-9.658-9.659a.736.736,0,0,1,0-1.041l4.627-4.627a.758.758,0,0,1,1.041,0l9.658,9.659a.735.735,0,0,1,0,1.041l-4.627,4.627A.732.732,0,0,1,721.537,798.943Zm-8.617-10.4,8.617,8.617,3.586-3.585-8.618-8.618Z" transform="translate(-711.143 -783.193)" fill="#333"/>
    </g>
    <path id="패스_4048" data-name="패스 4048" d="M722.262,811.7a1.477,1.477,0,0,1,0-2.083l14.457-14.457a1.478,1.478,0,0,1,2.082,0L751.24,807.6a1.477,1.477,0,0,1,0,2.083l-14.458,14.457a1.478,1.478,0,0,1-2.083,0Z" transform="translate(-17.971 -16.834)" fill="#fff"/>
    <g id="그룹_2599" data-name="그룹 2599" transform="translate(706.582 781.856)">
      <g id="그룹_2596" data-name="그룹 2596" transform="translate(8.186)">
        <path id="패스_4049" data-name="패스 4049" d="M761.942,813.65a.733.733,0,0,1-.521-.216l-4.956-4.957a.736.736,0,0,1,1.041-1.041l4.956,4.957a.737.737,0,0,1-.52,1.257Z" transform="translate(-756.249 -807.221)" fill="#aac9eb"/>
      </g>
      <g id="그룹_2597" data-name="그룹 2597" transform="translate(4.093 4.093)">
        <path id="패스_4050" data-name="패스 4050" d="M749.026,826.567a.735.735,0,0,1-.521-.216l-4.956-4.957a.736.736,0,0,1,1.041-1.041l4.956,4.957a.736.736,0,0,1-.52,1.257Z" transform="translate(-743.333 -820.137)" fill="#aac9eb"/>
      </g>
      <g id="그룹_2598" data-name="그룹 2598" transform="translate(0 8.186)">
        <path id="패스_4051" data-name="패스 4051" d="M736.11,839.482a.733.733,0,0,1-.521-.216l-4.956-4.956a.736.736,0,0,1,1.041-1.041l4.956,4.956a.737.737,0,0,1-.521,1.258Z" transform="translate(-730.417 -833.053)" fill="#aac9eb"/>
      </g>
    </g>
    <rect id="사각형_1861" data-name="사각형 1861" width="24.002" height="3.574" transform="translate(713.122 804.403) rotate(-45.007)" fill="#aac9eb"/>
    <g id="그룹_2600" data-name="그룹 2600" transform="translate(703.124 777.162)">
      <path id="패스_4052" data-name="패스 4052" d="M734.153,823.719a2.2,2.2,0,0,1-1.562-.646l-12.438-12.438a2.212,2.212,0,0,1,0-3.124l14.457-14.458a2.215,2.215,0,0,1,3.124,0l12.439,12.439a2.213,2.213,0,0,1,0,3.123l-14.458,14.457A2.194,2.194,0,0,1,734.153,823.719Zm2.019-29.837a.734.734,0,0,0-.521.213l-14.457,14.458a.737.737,0,0,0,0,1.042l12.438,12.438a.758.758,0,0,0,1.041,0l14.458-14.457a.74.74,0,0,0,0-1.041L736.693,794.1A.731.731,0,0,0,736.172,793.883Z" transform="translate(-719.508 -792.41)" fill="#333"/>
    </g>
    <g id="그룹_2604" data-name="그룹 2604" transform="translate(707.186 781.223)">
      <g id="그룹_2601" data-name="그룹 2601" transform="translate(8.186 0)">
        <path id="패스_4053" data-name="패스 4053" d="M763.851,811.654a.733.733,0,0,1-.521-.216l-4.956-4.957a.736.736,0,0,1,1.041-1.041l4.957,4.956a.736.736,0,0,1-.521,1.257Z" transform="translate(-758.158 -805.225)" fill="#333"/>
      </g>
      <g id="그룹_2602" data-name="그룹 2602" transform="translate(4.093 4.094)">
        <path id="패스_4054" data-name="패스 4054" d="M750.934,824.572a.735.735,0,0,1-.521-.216l-4.956-4.957a.736.736,0,0,1,1.041-1.042l4.956,4.957a.737.737,0,0,1-.521,1.257Z" transform="translate(-745.242 -818.142)" fill="#333"/>
      </g>
      <g id="그룹_2603" data-name="그룹 2603" transform="translate(0 8.187)">
        <path id="패스_4055" data-name="패스 4055" d="M738.018,837.489a.735.735,0,0,1-.521-.216l-4.956-4.957a.736.736,0,0,1,1.041-1.041l4.957,4.956a.737.737,0,0,1-.521,1.258Z" transform="translate(-732.325 -831.059)" fill="#333"/>
      </g>
    </g>
    <g id="그룹_2606" data-name="그룹 2606" transform="translate(713.763 787.817)">
      <path id="패스_4056" data-name="패스 4056" d="M768.673,848.259a2.222,2.222,0,0,1,1.666.555l7.444,7.445c.382.381.71.712.73.735l.019.02a3.948,3.948,0,0,0,5.582-5.583l-.02-.019c-.023-.019-.353-.348-.735-.73l-7.444-7.444a2.22,2.22,0,0,1-.556-1.667l1.3-9.145a2.216,2.216,0,0,0-.556-1.666l-2.17-2.171a.985.985,0,0,0-1.389,0L755.69,845.448a.984.984,0,0,0,0,1.388l2.171,2.17a2.221,2.221,0,0,0,1.666.556Z" transform="translate(-754.667 -827.584)" fill="#50b4ff"/>
      <g id="그룹_2605" data-name="그룹 2605" transform="translate(0 0)">
        <path id="패스_4057" data-name="패스 4057" d="M779.734,857.355a4.65,4.65,0,0,1-3.311-1.372l-.056-.059c-.033-.033-.339-.342-.692-.7l-7.444-7.444a1.472,1.472,0,0,0-1.042-.347l-9.146,1.3a2.166,2.166,0,0,1-.307.021h0a2.974,2.974,0,0,1-1.984-.786l-2.171-2.17a1.72,1.72,0,0,1,0-2.43l16.858-16.858a1.763,1.763,0,0,1,2.43,0l2.171,2.17a2.946,2.946,0,0,1,.764,2.29l-1.3,9.145a1.5,1.5,0,0,0,.347,1.042l7.445,7.444c.355.355.664.663.715.711l.039.038a4.684,4.684,0,0,1-3.312,8Zm-2.288-2.432a3.211,3.211,0,1,0,4.56-4.522s-.039-.034-.754-.748l-7.445-7.445a2.954,2.954,0,0,1-.764-2.291l1.3-9.146A1.506,1.506,0,0,0,774,829.73l-2.171-2.17a.249.249,0,0,0-.347,0l-16.858,16.859a.24.24,0,0,0-.071.173.244.244,0,0,0,.071.174l2.171,2.17a1.548,1.548,0,0,0,.942.354h0a.665.665,0,0,0,.1-.007l9.146-1.3a2.974,2.974,0,0,1,2.291.764l7.444,7.444c.28.279.614.614.729.735Z" transform="translate(-753.079 -826.033)" fill="#333"/>
      </g>
    </g>
  </g>
</svg>
