<svg xmlns="http://www.w3.org/2000/svg" width="44.862" height="39.571" viewBox="0 0 44.862 39.571">
  <g id="ncs_01" transform="translate(-423.275 -519.231)">
    <g id="그룹_2132" data-name="그룹 2132" transform="translate(432.035 519.231)">
      <g id="그룹_2130" data-name="그룹 2130" transform="translate(0.637 0.637)">
        <path id="패스_3279" data-name="패스 3279" d="M460.917,524.537H479.35v7.848h3.2v-9.518a1.282,1.282,0,0,0-1.283-1.282H459.294a1.282,1.282,0,0,0-1.283,1.282v9.518h2.906Z" transform="translate(-458.011 -521.585)" fill="#fff"/>
      </g>
      <g id="그룹_2131" data-name="그룹 2131" transform="translate(0 0)">
        <path id="패스_3280" data-name="패스 3280" d="M480.836,531.3h-3.2a.636.636,0,0,1-.637-.637v-7.211H459.837v7.211a.636.636,0,0,1-.637.637h-2.906a.636.636,0,0,1-.637-.637V521.15a1.922,1.922,0,0,1,1.92-1.919h21.975a1.922,1.922,0,0,1,1.92,1.919v9.518A.636.636,0,0,1,480.836,531.3Zm-2.566-1.273h1.93V521.15a.647.647,0,0,0-.647-.645H457.578a.647.647,0,0,0-.647.645v8.882h1.633V522.82a.636.636,0,0,1,.636-.636h18.433a.636.636,0,0,1,.636.636Z" transform="translate(-455.658 -519.231)" fill="#333"/>
      </g>
    </g>
    <path id="패스_3281" data-name="패스 3281" d="M469.957,555.46H429.29a1.486,1.486,0,0,0-1.484,1.484v26.8a1.485,1.485,0,0,0,1.484,1.484h40.667a1.486,1.486,0,0,0,1.485-1.484v-26.8A1.487,1.487,0,0,0,469.957,555.46Z" transform="translate(-3.305 -26.428)" fill="#aac9eb"/>
    <path id="패스_3282" data-name="패스 3282" d="M467.383,552.294H429.369a1.389,1.389,0,0,0-1.388,1.388v25.053a1.389,1.389,0,0,0,1.388,1.388h38.014a1.39,1.39,0,0,0,1.389-1.388V553.682A1.39,1.39,0,0,0,467.383,552.294Z" transform="translate(-3.433 -24.119)" fill="#fff"/>
    <g id="그룹_2135" data-name="그룹 2135" transform="translate(429.634 527.709)">
      <g id="그룹_2133" data-name="그룹 2133" transform="translate(0 0)">
        <rect id="사각형_1811" data-name="사각형 1811" width="3.087" height="28.76" fill="#aac9eb"/>
      </g>
      <g id="그룹_2134" data-name="그룹 2134" transform="translate(30.329 0)">
        <rect id="사각형_1812" data-name="사각형 1812" width="3.087" height="28.76" fill="#aac9eb"/>
      </g>
    </g>
    <path id="패스_3283" data-name="패스 3283" d="M494.126,572.006a.692.692,0,0,1-.614.75H481.227a.692.692,0,0,1-.614-.75v-3a.692.692,0,0,1,.614-.749h12.284a.692.692,0,0,1,.614.749Z" transform="translate(-41.827 -35.765)" fill="#aac9eb"/>
    <path id="사각형_1813" data-name="사각형 1813" d="M1.035,0H11.278a1.034,1.034,0,0,1,1.034,1.034v1.29a1.034,1.034,0,0,1-1.034,1.034H1.034A1.034,1.034,0,0,1,0,2.324V1.035A1.035,1.035,0,0,1,1.035,0Z" transform="translate(438.786 532.222)" fill="#50b4ff"/>
    <g id="그룹_2136" data-name="그룹 2136" transform="translate(423.275 526.883)">
      <path id="패스_3284" data-name="패스 3284" d="M463.95,577.891H425.936a2.664,2.664,0,0,1-2.661-2.661V550.178a2.664,2.664,0,0,1,2.661-2.661H463.95a2.664,2.664,0,0,1,2.662,2.661V575.23A2.664,2.664,0,0,1,463.95,577.891Zm-38.014-29.1a1.389,1.389,0,0,0-1.388,1.388V575.23a1.389,1.389,0,0,0,1.388,1.388H463.95a1.39,1.39,0,0,0,1.389-1.388V550.178a1.39,1.39,0,0,0-1.389-1.388Z" transform="translate(-423.275 -547.517)" fill="#333"/>
    </g>
    <g id="그룹_2139" data-name="그룹 2139" transform="translate(428.235 527.709)">
      <g id="그룹_2137" data-name="그룹 2137" transform="translate(0 0)">
        <rect id="사각형_1814" data-name="사각형 1814" width="3.088" height="28.76" fill="#50b4ff"/>
      </g>
      <g id="그룹_2138" data-name="그룹 2138" transform="translate(30.328 0)">
        <rect id="사각형_1815" data-name="사각형 1815" width="3.088" height="28.76" fill="#50b4ff"/>
      </g>
    </g>
    <g id="그룹_2140" data-name="그룹 2140" transform="translate(438.11 531.546)">
      <path id="패스_3285" data-name="패스 3285" d="M490.822,569.465H479.069a.957.957,0,0,1-.956-.956v-2.8a.957.957,0,0,1,.956-.956h11.753a.957.957,0,0,1,.956.956v2.8A.957.957,0,0,1,490.822,569.465Zm-11.357-1.353h10.96v-2.005h-10.96Z" transform="translate(-478.113 -564.754)" fill="#333"/>
    </g>
    <g id="그룹_2141" data-name="그룹 2141" transform="translate(423.275 526.883)">
      <path id="패스_3286" data-name="패스 3286" d="M463.95,577.891H425.936a2.664,2.664,0,0,1-2.661-2.661V550.178a2.664,2.664,0,0,1,2.661-2.661H463.95a2.664,2.664,0,0,1,2.662,2.661V575.23A2.664,2.664,0,0,1,463.95,577.891Zm-38.014-29.1a1.389,1.389,0,0,0-1.388,1.388V575.23a1.389,1.389,0,0,0,1.388,1.388H463.95a1.39,1.39,0,0,0,1.389-1.388V550.178a1.39,1.39,0,0,0-1.389-1.388Z" transform="translate(-423.275 -547.517)" fill="#333"/>
    </g>
    <g id="그룹_2143" data-name="그룹 2143" transform="translate(427.558 527.033)">
      <g id="그룹_2142" data-name="그룹 2142" transform="translate(0 0)">
        <path id="패스_3287" data-name="패스 3287" d="M443.549,578.184h-4.44V548.071h4.44Zm-3.087-1.353H442.2V549.424h-1.735Z" transform="translate(-439.109 -548.071)" fill="#333"/>
      </g>
    </g>
    <g id="그룹_2145" data-name="그룹 2145" transform="translate(457.887 527.033)">
      <g id="그룹_2144" data-name="그룹 2144" transform="translate(0 0)">
        <path id="패스_3288" data-name="패스 3288" d="M555.659,578.184h-4.44V548.071h4.44Zm-3.088-1.353h1.735V549.424h-1.735Z" transform="translate(-551.219 -548.071)" fill="#333"/>
      </g>
    </g>
  </g>
</svg>
