<svg xmlns="http://www.w3.org/2000/svg" width="34.054" height="51" viewBox="0 0 34.054 51">
  <g id="ncs_17" transform="translate(-207.131 -743.324)">
    <path id="패스_4093" data-name="패스 4093" d="M243.246,894.411c0,1.762-7.065,3.19-15.779,3.19s-15.78-1.429-15.78-3.19,7.065-3.19,15.78-3.19S243.246,892.649,243.246,894.411Z" transform="translate(-3.182 -103.277)" fill="#aac9eb"/>
    <g id="그룹_2642" data-name="그룹 2642" transform="translate(207.131 743.324)">
      <path id="패스_4094" data-name="패스 4094" d="M241.024,793.719l-9.932-17.2V760.557H220.035v15.959l-9.932,17.2c-2.246,3.889-.408,7.073,4.083,7.073h22.755C241.433,800.792,243.271,797.609,241.024,793.719Z" transform="translate(-208.537 -755.358)" fill="#fff"/>
      <path id="사각형_1866" data-name="사각형 1866" d="M1.554,0H12.267a1.554,1.554,0,0,1,1.554,1.554V3.042A1.554,1.554,0,0,1,12.267,4.6H1.552A1.552,1.552,0,0,1,0,3.044V1.554A1.554,1.554,0,0,1,1.554,0Z" transform="translate(10.082 0.603)" fill="#50b4ff"/>
      <g id="그룹_2639" data-name="그룹 2639" transform="translate(0 4.596)">
        <path id="패스_4095" data-name="패스 4095" d="M235.535,800H212.78c-2.4,0-4.2-.845-5.091-2.38s-.714-3.523.485-5.6l9.852-17.064v-16.4h12.264v16.4l9.851,17.064c1.2,2.075,1.371,4.064.485,5.6S237.932,800,235.535,800Zm-16.3-40.235v15.517l-10.013,17.344c-.974,1.687-1.146,3.247-.485,4.392s2.1,1.776,4.045,1.776h22.755c1.948,0,3.385-.631,4.046-1.776s.489-2.7-.485-4.392l-10.013-17.344V759.764Z" transform="translate(-207.131 -758.557)" fill="#333"/>
      </g>
      <g id="그룹_2640" data-name="그룹 2640" transform="translate(9.478)">
        <path id="패스_4096" data-name="패스 4096" d="M252.5,749.127H239.619a1.073,1.073,0,0,1-1.072-1.072V744.4a1.074,1.074,0,0,1,1.072-1.073H252.5a1.074,1.074,0,0,1,1.071,1.073v3.657A1.073,1.073,0,0,1,252.5,749.127Zm-12.749-1.207h12.614v-3.389H239.754Z" transform="translate(-238.547 -743.324)" fill="#333"/>
      </g>
      <g id="그룹_2641" data-name="그룹 2641" transform="translate(3.891 27.421)">
        <path id="패스_4097" data-name="패스 4097" d="M239.318,834.212H227.012L220.8,844.3c-1.8,3.112-.327,5.658,3.266,5.658h18.2c3.593,0,5.063-2.546,3.266-5.658Z" transform="translate(-220.029 -834.212)" fill="#50b4ff"/>
      </g>
      <path id="패스_4098" data-name="패스 4098" d="M250.378,842.816a2.633,2.633,0,1,1-2.632-2.633A2.632,2.632,0,0,1,250.378,842.816Z" transform="translate(-233.653 -810.961)" fill="#fff"/>
      <path id="패스_4099" data-name="패스 4099" d="M267.676,827.552a1.843,1.843,0,1,1-1.843-1.843A1.844,1.844,0,0,1,267.676,827.552Z" transform="translate(-246.836 -800.854)" fill="#aac9eb"/>
      <path id="패스_4100" data-name="패스 4100" d="M256.308,802.268a1.291,1.291,0,1,1-1.291-1.291A1.291,1.291,0,0,1,256.308,802.268Z" transform="translate(-239.669 -783.583)" fill="#aac9eb"/>
    </g>
  </g>
</svg>
