<svg xmlns="http://www.w3.org/2000/svg" width="60.802" height="45" viewBox="0 0 60.802 45">
  <g id="ncs_03" transform="translate(-156.076 -559.724)">
    <g id="그룹_2415" data-name="그룹 2415" transform="translate(156.758 577.528)">
      <path id="패스_3784" data-name="패스 3784" d="M179.351,638.976a2.327,2.327,0,0,1-1.83-.1L158.426,628c-.489-.279-.462-.678.06-.889l37.359-15.051a2.587,2.587,0,0,1,1.863.078l19.436,9.795c.5.253.49.641-.027.863Z" transform="translate(-158.076 -611.921)" fill="#aac9eb"/>
    </g>
    <g id="그룹_2417" data-name="그룹 2417" transform="translate(156.076 571.193)">
      <path id="패스_3785" data-name="패스 3785" d="M179.351,622.4a2.328,2.328,0,0,1-1.83-.1l-19.095-10.875c-.489-.278-.462-.678.06-.889l37.359-15.052a2.587,2.587,0,0,1,1.863.078l19.436,9.795c.5.253.49.642-.027.864Z" transform="translate(-157.394 -594.666)" fill="#fff"/>
      <g id="그룹_2416" data-name="그룹 2416">
        <path id="패스_3786" data-name="패스 3786" d="M177.255,621.909a2.858,2.858,0,0,1-1.39-.333L156.771,610.7a1.116,1.116,0,0,1,.143-2.115l37.359-15.051a2.941,2.941,0,0,1,1.071-.187,3.073,3.073,0,0,1,1.354.288l19.436,9.795a1.1,1.1,0,0,1-.065,2.1L178.3,621.713A2.679,2.679,0,0,1,177.255,621.909Zm-19.473-12.2L176.54,620.39a1.766,1.766,0,0,0,1.224.069l37.361-16.008-19.042-9.6a2.04,2.04,0,0,0-1.3-.055Z" transform="translate(-156.076 -593.349)" fill="#333"/>
      </g>
    </g>
    <g id="그룹_2419" data-name="그룹 2419" transform="translate(156.076 565.124)">
      <path id="패스_3787" data-name="패스 3787" d="M179.351,604.609a2.328,2.328,0,0,1-1.83-.1l-19.095-10.875c-.489-.278-.462-.678.06-.889l37.359-15.052a2.585,2.585,0,0,1,1.863.078l19.436,9.795c.5.254.49.642-.027.864Z" transform="translate(-157.394 -576.871)" fill="#aac9eb"/>
      <g id="그룹_2418" data-name="그룹 2418">
        <path id="패스_3788" data-name="패스 3788" d="M177.255,604.114a2.855,2.855,0,0,1-1.39-.333l-19.095-10.875a1.116,1.116,0,0,1,.143-2.115l37.359-15.052a2.94,2.94,0,0,1,1.07-.187,3.075,3.075,0,0,1,1.354.288l19.436,9.795a1.1,1.1,0,0,1-.065,2.1L178.3,603.919A2.684,2.684,0,0,1,177.255,604.114Zm-19.473-12.2L176.54,602.6a1.764,1.764,0,0,0,1.224.069l37.361-16.008-19.042-9.6a2.045,2.045,0,0,0-1.3-.055Z" transform="translate(-156.076 -575.554)" fill="#333"/>
      </g>
    </g>
    <g id="그룹_2421" data-name="그룹 2421" transform="translate(156.078 559.724)">
      <path id="패스_3789" data-name="패스 3789" d="M179.354,588.011a2.328,2.328,0,0,1-1.83-.1l-19.095-10.875c-.489-.278-.459-.671.067-.872l37.346-14.3a2.772,2.772,0,0,1,1.883.067l19.41,9.068c.51.238.5.614-.014.836Z" transform="translate(-157.399 -561.042)" fill="#fff"/>
      <g id="그룹_2420" data-name="그룹 2420" transform="translate(0 0)">
        <path id="패스_3790" data-name="패스 3790" d="M177.259,587.515a2.857,2.857,0,0,1-1.39-.332l-19.095-10.875a1.106,1.106,0,0,1,.16-2.1l37.346-14.3a3.107,3.107,0,0,1,1.078-.178,3.236,3.236,0,0,1,1.337.264l19.41,9.068a1.081,1.081,0,0,1-.034,2.081L178.3,587.32A2.681,2.681,0,0,1,177.259,587.515Zm-19.445-12.186L176.544,586a1.764,1.764,0,0,0,1.224.069l37.307-15.986-18.956-8.856a2.246,2.246,0,0,0-1.35-.048Z" transform="translate(-156.081 -559.724)" fill="#333"/>
      </g>
    </g>
    <path id="패스_3791" data-name="패스 3791" d="M199.15,579.245l21.135,11.063,12.3-5.242-20.464-10.79Z" transform="translate(-28.382 -9.589)" fill="#50b4ff"/>
    <path id="패스_3792" data-name="패스 3792" d="M273.754,617.972l-12.641,5.417V611.151l12.3-5.242Z" transform="translate(-69.209 -30.432)" fill="#50b4ff"/>
    <g id="그룹_2422" data-name="그룹 2422" transform="translate(169.113 563.94)">
      <path id="패스_3793" data-name="패스 3793" d="M217.057,589.618,194.3,577.7l14.675-5.62,22.006,11.6ZM197.608,577.9l19.509,10.212,10.687-4.553-18.922-9.977Z" transform="translate(-194.297 -572.085)" fill="#333"/>
    </g>
    <g id="그룹_2423" data-name="그룹 2423" transform="translate(191.221 574.458)">
      <path id="패스_3794" data-name="패스 3794" d="M259.112,622.454V608.73l13.64-5.811.378,13.527Zm1.364-12.822v10.752l11.264-4.827-.3-10.6Z" transform="translate(-259.112 -602.919)" fill="#333"/>
    </g>
    <path id="패스_3795" data-name="패스 3795" d="M236.884,588.569l-1.706.254c-1.056.151-1.356-.026-1.483-.1-.285-.169-.092-.541.431-.828a2.43,2.43,0,0,1,1.652-.25l.9.18.457-1.188-1.025-.193a6.108,6.108,0,0,0-2.8.131l-1.178-.7-1.434.791,1.161.69c-.767.712-.643,1.552.388,2.163a5.881,5.881,0,0,0,3.959.5l1.71-.255a2.766,2.766,0,0,1,1.92.133c.559.333.111.806-.443,1.112a3.662,3.662,0,0,1-2.189.3l-.933-.21-.448,1.175.948.214a6.985,6.985,0,0,0,3.456-.164l1.168.695,1.435-.791-1.146-.682c1.13-.944.545-1.886-.4-2.448A6.693,6.693,0,0,0,236.884,588.569Z" transform="translate(-49.169 -17.23)" fill="#fff"/>
  </g>
</svg>
