<svg xmlns="http://www.w3.org/2000/svg" width="43.626" height="45.396" viewBox="0 0 43.626 45.396">
  <g id="ncs_04" transform="translate(-433.273 -504.13)">
    <path id="패스_4108" data-name="패스 4108" d="M477.078,659.6a.553.553,0,0,1-.553.553H434.072a.553.553,0,0,1-.553-.553l2.763-2.914a.553.553,0,0,1,.553-.553h36.928a.553.553,0,0,1,.553.553Z" transform="translate(-0.179 -110.629)" fill="#aac9eb"/>
    <rect id="사각형_1869" data-name="사각형 1869" width="37.36" height="28.781" transform="translate(436.226 516.911)" fill="#fff"/>
    <rect id="사각형_1870" data-name="사각형 1870" width="1.283" height="25.044" transform="translate(462.877 520.649)" fill="#aac9eb"/>
    <rect id="사각형_1871" data-name="사각형 1871" width="1.283" height="24.374" transform="translate(445.652 521.132)" fill="#aac9eb"/>
    <g id="그룹_2650" data-name="그룹 2650" transform="translate(435.681 516.367)">
      <path id="패스_4109" data-name="패스 4109" d="M480.026,578.954h-37.36a.544.544,0,0,1-.544-.544V549.629a.544.544,0,0,1,.544-.544h37.36a.544.544,0,0,1,.544.544V578.41A.544.544,0,0,1,480.026,578.954Zm-36.815-1.089h36.271V550.174H443.211Z" transform="translate(-442.122 -549.085)" fill="#333"/>
    </g>
    <path id="패스_4110" data-name="패스 4110" d="M555.148,554.822H542.029v-3.737h10.709Z" transform="translate(-79.153 -34.174)" fill="#50b4ff"/>
    <path id="패스_4111" data-name="패스 4111" d="M435.272,554.822h13.118v-3.737H437.681Z" transform="translate(-1.456 -34.174)" fill="#50b4ff"/>
    <rect id="사각형_1872" data-name="사각형 1872" width="1.283" height="3.737" transform="translate(445.652 516.911)" fill="#21a0ff"/>
    <g id="그룹_2651" data-name="그룹 2651" transform="translate(433.273 516.367)">
      <path id="패스_4112" data-name="패스 4112" d="M446.935,553.911H433.817a.545.545,0,0,1-.458-.84l2.409-3.737a.544.544,0,0,1,.458-.249h10.709a.544.544,0,0,1,.544.544v3.737A.545.545,0,0,1,446.935,553.911Zm-12.12-1.089h11.575v-2.649h-9.868Z" transform="translate(-433.273 -549.085)" fill="#333"/>
    </g>
    <rect id="사각형_1873" data-name="사각형 1873" width="1.283" height="3.737" transform="translate(462.877 516.911)" fill="#21a0ff"/>
    <path id="패스_4113" data-name="패스 4113" d="M499.406,551.157H483.465V516.827l7.971-5.187,7.97,5.187Z" transform="translate(-36.53 -5.465)" fill="#fff"/>
    <g id="그룹_2652" data-name="그룹 2652" transform="translate(446.391 505.63)">
      <path id="패스_4114" data-name="패스 4114" d="M497.951,550.246H482.009a.544.544,0,0,1-.544-.544V515.371a.545.545,0,0,1,.247-.456l7.971-5.187a.544.544,0,0,1,.594,0l7.97,5.187a.545.545,0,0,1,.247.456V549.7A.544.544,0,0,1,497.951,550.246Zm-15.4-1.089h14.853V515.667l-7.426-4.833-7.426,4.833Z" transform="translate(-481.465 -509.639)" fill="#333"/>
    </g>
    <g id="그룹_2653" data-name="그룹 2653" transform="translate(462.332 516.367)">
      <path id="패스_4115" data-name="패스 4115" d="M553.7,553.911H540.573a.545.545,0,0,1-.544-.544v-3.737a.544.544,0,0,1,.544-.544h10.709a.544.544,0,0,1,.458.249l2.373,3.68a.545.545,0,0,1-.416.9Zm-12.579-1.089h11.576l-1.707-2.649h-9.868Z" transform="translate(-540.029 -549.085)" fill="#333"/>
    </g>
    <g id="그룹_2654" data-name="그룹 2654" transform="translate(451.188 534.829)">
      <path id="패스_4116" data-name="패스 4116" d="M505.98,628.317h-6.347a.544.544,0,0,1-.544-.544V617.454a.544.544,0,0,1,.544-.544h6.347a.544.544,0,0,1,.544.544v10.318A.544.544,0,0,1,505.98,628.317Zm-5.8-1.089h5.259V618h-5.259Z" transform="translate(-499.088 -616.91)" fill="#333"/>
    </g>
    <path id="패스_4117" data-name="패스 4117" d="M505.9,548.13a4.091,4.091,0,1,1-4.091-4.091A4.091,4.091,0,0,1,505.9,548.13Z" transform="translate(-46.903 -29.045)" fill="#fff"/>
    <path id="패스_4118" data-name="패스 4118" d="M499.46,549.816a3.828,3.828,0,0,1,6.338-2.892,3.829,3.829,0,1,0-5.4,5.4A3.814,3.814,0,0,1,499.46,549.816Z" transform="translate(-47.892 -30.183)" fill="#aac9eb"/>
    <rect id="사각형_1874" data-name="사각형 1874" width="0.146" height="3.796" transform="translate(454.833 515.872)" fill="#333"/>
    <rect id="사각형_1875" data-name="사각형 1875" width="0.146" height="2.863" transform="translate(455.317 519.405) rotate(135)" fill="#50b4ff"/>
    <path id="패스_4119" data-name="패스 4119" d="M509.1,557.51l-.049-.024-1.64,3.324.049.024Z" transform="translate(-53.96 -38.832)" fill="#333"/>
    <path id="패스_4120" data-name="패스 4120" d="M512.534,558.728a.128.128,0,1,1-.128-.127A.128.128,0,0,1,512.534,558.728Z" transform="translate(-57.501 -39.644)" fill="#333"/>
    <rect id="사각형_1876" data-name="사각형 1876" width="5.689" height="4.127" transform="translate(438.747 523.159)" fill="#50b4ff"/>
    <rect id="사각형_1877" data-name="사각형 1877" width="5.689" height="4.127" transform="translate(438.747 529.238)" fill="#50b4ff"/>
    <rect id="사각형_1878" data-name="사각형 1878" width="5.689" height="4.128" transform="translate(438.747 535.318)" fill="#50b4ff"/>
    <rect id="사각형_1879" data-name="사각형 1879" width="5.689" height="4.127" transform="translate(465.631 523.159)" fill="#50b4ff"/>
    <g id="그룹_2655" data-name="그룹 2655" transform="translate(449.874 525.928)">
      <rect id="사각형_1880" data-name="사각형 1880" width="2.767" height="2.008" transform="translate(0 0)" fill="#aac9eb"/>
      <rect id="사각형_1881" data-name="사각형 1881" width="2.767" height="2.008" transform="translate(3.648 0)" fill="#aac9eb"/>
      <rect id="사각형_1882" data-name="사각형 1882" width="2.767" height="2.008" transform="translate(7.297 0)" fill="#aac9eb"/>
      <rect id="사각형_1883" data-name="사각형 1883" width="2.767" height="2.008" transform="translate(0 2.629)" fill="#aac9eb"/>
      <rect id="사각형_1884" data-name="사각형 1884" width="2.767" height="2.008" transform="translate(3.648 2.629)" fill="#aac9eb"/>
      <rect id="사각형_1885" data-name="사각형 1885" width="2.767" height="2.008" transform="translate(7.297 2.629)" fill="#aac9eb"/>
      <rect id="사각형_1886" data-name="사각형 1886" width="2.767" height="2.007" transform="translate(0 5.258)" fill="#aac9eb"/>
      <rect id="사각형_1887" data-name="사각형 1887" width="2.767" height="2.007" transform="translate(3.648 5.258)" fill="#aac9eb"/>
      <rect id="사각형_1888" data-name="사각형 1888" width="2.767" height="2.007" transform="translate(7.297 5.258)" fill="#aac9eb"/>
    </g>
    <rect id="사각형_1889" data-name="사각형 1889" width="5.689" height="4.127" transform="translate(465.631 529.238)" fill="#50b4ff"/>
    <rect id="사각형_1890" data-name="사각형 1890" width="5.689" height="4.128" transform="translate(465.631 535.318)" fill="#50b4ff"/>
    <g id="그룹_2656" data-name="그룹 2656" transform="translate(438.203 522.614)">
      <path id="패스_4121" data-name="패스 4121" d="M457.617,577.251h-5.689a.544.544,0,0,1-.544-.544v-4.127a.544.544,0,0,1,.544-.544h5.689a.544.544,0,0,1,.544.544v4.127A.544.544,0,0,1,457.617,577.251Zm-5.145-1.089h4.6v-3.038h-4.6Z" transform="translate(-451.384 -572.035)" fill="#333"/>
    </g>
    <g id="그룹_2657" data-name="그룹 2657" transform="translate(438.203 528.694)">
      <path id="패스_4122" data-name="패스 4122" d="M457.617,599.586h-5.689a.544.544,0,0,1-.544-.544v-4.127a.544.544,0,0,1,.544-.544h5.689a.544.544,0,0,1,.544.544v4.127A.544.544,0,0,1,457.617,599.586Zm-5.145-1.089h4.6v-3.038h-4.6Z" transform="translate(-451.384 -594.37)" fill="#333"/>
    </g>
    <g id="그룹_2658" data-name="그룹 2658" transform="translate(438.203 534.773)">
      <path id="패스_4123" data-name="패스 4123" d="M457.617,621.921h-5.689a.544.544,0,0,1-.544-.544v-4.128a.544.544,0,0,1,.544-.544h5.689a.544.544,0,0,1,.544.544v4.128A.544.544,0,0,1,457.617,621.921Zm-5.145-1.089h4.6v-3.039h-4.6Z" transform="translate(-451.384 -616.704)" fill="#333"/>
    </g>
    <g id="그룹_2659" data-name="그룹 2659" transform="translate(465.086 522.614)">
      <path id="패스_4124" data-name="패스 4124" d="M556.382,577.251h-5.689a.544.544,0,0,1-.544-.544v-4.127a.545.545,0,0,1,.544-.544h5.689a.545.545,0,0,1,.544.544v4.127A.545.545,0,0,1,556.382,577.251Zm-5.145-1.089h4.6v-3.038h-4.6Z" transform="translate(-550.148 -572.035)" fill="#333"/>
    </g>
    <g id="그룹_2660" data-name="그룹 2660" transform="translate(465.086 528.694)">
      <path id="패스_4125" data-name="패스 4125" d="M556.382,599.586h-5.689a.544.544,0,0,1-.544-.544v-4.127a.545.545,0,0,1,.544-.544h5.689a.545.545,0,0,1,.544.544v4.127A.544.544,0,0,1,556.382,599.586Zm-5.145-1.089h4.6v-3.038h-4.6Z" transform="translate(-550.148 -594.37)" fill="#333"/>
    </g>
    <g id="그룹_2661" data-name="그룹 2661" transform="translate(465.086 534.773)">
      <path id="패스_4126" data-name="패스 4126" d="M556.382,621.921h-5.689a.544.544,0,0,1-.544-.544v-4.128a.545.545,0,0,1,.544-.544h5.689a.545.545,0,0,1,.544.544v4.128A.544.544,0,0,1,556.382,621.921Zm-5.145-1.089h4.6v-3.039h-4.6Z" transform="translate(-550.148 -616.704)" fill="#333"/>
    </g>
    <path id="패스_4127" data-name="패스 4127" d="M491.155,515.949a1.5,1.5,0,0,1-.82-.244l-9.672-6.294-9.673,6.294a1.506,1.506,0,1,1-1.642-2.524l10.493-6.829a1.507,1.507,0,0,1,1.643,0l10.494,6.829a1.506,1.506,0,0,1-.823,2.768Z" transform="translate(-25.757 -1.44)" fill="#50b4ff"/>
    <g id="그룹_2662" data-name="그룹 2662" transform="translate(442.361 504.13)">
      <path id="패스_4128" data-name="패스 4128" d="M489.7,515.054h0a2.043,2.043,0,0,1-1.118-.332l-9.375-6.1-9.376,6.1a2.05,2.05,0,1,1-2.236-3.437l10.493-6.829a2.082,2.082,0,0,1,2.236,0l10.495,6.829a2.051,2.051,0,0,1-1.119,3.769Zm-10.493-7.627a.543.543,0,0,1,.3.088l9.672,6.294a.961.961,0,1,0,1.049-1.611l-10.494-6.829a.978.978,0,0,0-1.05,0L468.188,512.2a.961.961,0,1,0,1.048,1.612l9.673-6.295A.545.545,0,0,1,479.206,507.427Z" transform="translate(-466.661 -504.13)" fill="#333"/>
    </g>
    <g id="그룹_2663" data-name="그룹 2663" transform="translate(450.27 514.449)">
      <path id="패스_4129" data-name="패스 4129" d="M500.354,551.31a4.636,4.636,0,1,1,4.635-4.636A4.641,4.641,0,0,1,500.354,551.31Zm0-8.182a3.547,3.547,0,1,0,3.547,3.547A3.551,3.551,0,0,0,500.354,543.128Z" transform="translate(-495.718 -542.039)" fill="#333"/>
    </g>
  </g>
</svg>
