<svg xmlns="http://www.w3.org/2000/svg" width="62.416" height="43.696" viewBox="0 0 62.416 43.696">
  <g id="ncs_07" transform="translate(-432.902 -307.678)">
    <g id="그룹_2648" data-name="그룹 2648" transform="translate(432.902 307.678)">
      <path id="패스_4101" data-name="패스 4101" d="M476.305,368.917c.373.1.749.191,1.123.279.189.044.377.092.567.132.357.077.715.142,1.073.207.211.038.421.079.631.113.337.054.675.1,1.013.14.234.03.467.063.7.088.317.034.635.057.952.081.255.019.509.042.765.055.3.016.6.021.892.029.276.007.552.017.829.017s.553-.01.829-.017c.3-.007.595-.013.892-.029.256-.013.51-.036.765-.055.318-.024.635-.047.952-.081.234-.025.467-.058.7-.088.338-.043.676-.086,1.013-.14.211-.033.421-.075.632-.113.357-.064.716-.13,1.072-.207.19-.04.378-.087.567-.132.375-.087.75-.177,1.123-.279a32.636,32.636,0,0,0,9.1-4.031V353.214l-17.655,6.866-17.64-6.86v11.666A32.638,32.638,0,0,0,476.305,368.917Z" transform="translate(-454.434 -336.263)" fill="#fff"/>
      <path id="패스_4102" data-name="패스 4102" d="M476.305,346.3c.373.1.749.191,1.123.279.189.044.377.091.567.132.357.077.715.142,1.073.207.211.038.421.079.631.113.337.054.675.1,1.013.14.234.03.467.063.7.088.317.034.635.056.952.08.255.02.509.042.765.056.3.016.6.021.892.029.276.007.552.017.829.017s.553-.01.829-.017c.3-.008.595-.013.892-.029.256-.013.51-.036.765-.056.318-.024.635-.047.952-.08.234-.025.467-.058.7-.088.338-.043.676-.086,1.013-.14.211-.034.421-.075.632-.113.357-.064.716-.13,1.072-.207.19-.041.378-.087.567-.132.375-.087.75-.177,1.123-.279a32.636,32.636,0,0,0,9.1-4.031V330.592l-17.655,6.866L467.2,330.6v11.667A32.638,32.638,0,0,0,476.305,346.3Z" transform="translate(-454.434 -322.062)" fill="#aac9eb"/>
      <g id="그룹_2644" data-name="그룹 2644" transform="translate(12.024 15.862)">
        <path id="패스_4103" data-name="패스 4103" d="M483.595,368.966c-.22,0-.439-.006-.659-.012l-.357-.009c-.248-.006-.5-.012-.745-.025-.2-.01-.4-.026-.6-.042l-.289-.022c-.29-.022-.58-.044-.869-.075-.182-.019-.364-.043-.547-.067l-.23-.03c-.325-.042-.65-.083-.975-.135-.155-.025-.31-.053-.464-.082l-.183-.034c-.366-.066-.733-.133-1.1-.211-.132-.028-.265-.06-.4-.092l-.18-.043c-.385-.09-.768-.182-1.15-.285a33.372,33.372,0,0,1-9.309-4.123l-.342-.22V350.3l18.384,7.15,18.4-7.156v13.168l-.342.22a33.371,33.371,0,0,1-9.31,4.123c-.382.1-.765.2-1.148.285l-.18.043c-.134.032-.267.063-.4.092-.363.079-.73.145-1.1.211l-.182.034c-.154.029-.309.057-.463.082-.325.052-.65.093-.975.135l-.23.03c-.182.024-.365.048-.548.067-.289.031-.58.053-.871.075l-.283.022c-.2.016-.4.032-.6.042-.248.013-.5.019-.744.025l-.357.009C484.034,368.96,483.815,368.966,483.595,368.966Zm-16.9-6.325a31.9,31.9,0,0,0,8.552,3.723c.366.1.732.187,1.1.272l.187.044c.121.029.243.058.365.084.351.076.7.139,1.05.2l.19.035c.143.026.285.053.428.076.309.049.618.089.928.128l.235.031c.17.022.339.045.51.063.275.029.549.05.823.07l.3.023c.186.015.373.03.56.04.234.012.468.018.7.023l.361.009q.619.017,1.237,0l.362-.009c.233-.006.467-.011.7-.023.189-.01.376-.025.563-.04l.29-.022c.275-.02.55-.041.825-.071.172-.018.342-.041.511-.063l.235-.031c.31-.039.62-.079.929-.128.143-.023.284-.049.427-.076l.189-.035c.35-.063.7-.127,1.048-.2.125-.026.246-.055.367-.084l.188-.044c.365-.086.732-.173,1.1-.272a31.9,31.9,0,0,0,8.553-3.723V352.467l-16.911,6.577-16.9-6.571Z" transform="translate(-465.203 -350.29)" fill="#333"/>
      </g>
      <path id="패스_4104" data-name="패스 4104" d="M494.23,321.215l-29.664,11.536L434.9,321.215l29.664-11.536Z" transform="translate(-434.158 -308.934)" fill="#50b4ff"/>
      <rect id="사각형_1867" data-name="사각형 1867" width="3.729" height="11.089" transform="translate(57.943 19.319)" fill="#50b4ff"/>
      <g id="그룹_2645" data-name="그룹 2645" transform="translate(57.198 18.574)">
        <path id="패스_4105" data-name="패스 4105" d="M591.03,370.154H587.3a.744.744,0,0,1-.744-.745V358.32a.745.745,0,0,1,.744-.745h3.729a.745.745,0,0,1,.745.745v11.089A.744.744,0,0,1,591.03,370.154Zm-2.984-1.489h2.24v-9.6h-2.24Z" transform="translate(-586.557 -357.576)" fill="#333"/>
      </g>
      <g id="그룹_2646" data-name="그룹 2646">
        <path id="패스_4106" data-name="패스 4106" d="M463.311,332.24a.742.742,0,0,1-.27-.051l-29.664-11.536a.745.745,0,0,1,0-1.388l29.664-11.536a.741.741,0,0,1,.539,0l29.665,11.536a.745.745,0,0,1,0,1.388L463.58,332.189A.738.738,0,0,1,463.311,332.24ZM435.7,319.959l27.61,10.737,27.61-10.737L463.31,309.222Z" transform="translate(-432.902 -307.678)" fill="#333"/>
      </g>
      <g id="그룹_2647" data-name="그룹 2647" transform="translate(59.063 12.281)">
        <rect id="사각형_1868" data-name="사각형 1868" width="1.489" height="7.038" fill="#333"/>
      </g>
    </g>
    <path id="패스_4107" data-name="패스 4107" d="M505.293,413.085c0,1.512-6.064,2.739-13.545,2.739S478.2,414.6,478.2,413.085s6.064-2.738,13.546-2.738S505.293,411.573,505.293,413.085Z" transform="translate(-28.437 -64.45)" fill="#aac9eb"/>
  </g>
</svg>
