<svg xmlns="http://www.w3.org/2000/svg" width="51.039" height="46.342" viewBox="0 0 51.039 46.342">
  <g id="ncs_10" transform="translate(-164.589 -756.935)">
    <path id="패스_3953" data-name="패스 3953" d="M217.536,889.7a.607.607,0,0,1-.607.607H170.309a.607.607,0,0,1-.607-.607l3.034-3.2a.607.607,0,0,1,.607-.607H213.9a.607.607,0,0,1,.607.607Z" transform="translate(-3.45 -87.032)" fill="#aac9eb"/>
    <g id="그룹_2547" data-name="그룹 2547" transform="translate(164.59 756.935)">
      <rect id="사각형_1839" data-name="사각형 1839" width="41.647" height="21.696" transform="translate(4.696 20.231)" fill="#fff"/>
      <rect id="사각형_1840" data-name="사각형 1840" width="23.019" height="12.126" transform="translate(7.912 26.592)" fill="#50b4ff"/>
      <rect id="사각형_1841" data-name="사각형 1841" width="10.071" height="15.335" transform="translate(33.055 26.592)" fill="#50b4ff"/>
      <rect id="사각형_1842" data-name="사각형 1842" width="1.233" height="4.806" transform="translate(40.557 31.856)" fill="#50b4ff"/>
      <rect id="사각형_1843" data-name="사각형 1843" width="10.353" height="1.342" transform="matrix(0.707, -0.707, 0.707, 0.707, 19.865, 35.077)" fill="#fff"/>
      <rect id="사각형_1844" data-name="사각형 1844" width="10.354" height="1.343" transform="translate(21.967 37.178) rotate(-44.99)" fill="#fff"/>
      <g id="그룹_2533" data-name="그룹 2533" transform="translate(4.046 19.58)">
        <path id="패스_3954" data-name="패스 3954" d="M219.33,840.157H177.683a.651.651,0,0,1-.65-.65v-21.7a.65.65,0,0,1,.65-.65H219.33a.65.65,0,0,1,.65.65v21.7A.651.651,0,0,1,219.33,840.157Zm-41-1.3H218.68v-20.4H178.333Z" transform="translate(-177.033 -817.16)" fill="#333"/>
      </g>
      <g id="그룹_2534" data-name="그룹 2534" transform="translate(7.262 25.942)">
        <path id="패스_3955" data-name="패스 3955" d="M210.6,850.152H187.576a.65.65,0,0,1-.65-.65V837.376a.65.65,0,0,1,.65-.65H210.6a.65.65,0,0,1,.65.65V849.5A.65.65,0,0,1,210.6,850.152Zm-22.369-1.3h21.718V838.026H188.226Z" transform="translate(-186.926 -836.726)" fill="#333"/>
      </g>
      <g id="그룹_2535" data-name="그룹 2535" transform="translate(32.405 25.942)">
        <path id="패스_3956" data-name="패스 3956" d="M274.982,853.362H264.911a.65.65,0,0,1-.65-.65V837.376a.65.65,0,0,1,.65-.65h10.071a.65.65,0,0,1,.65.65v15.335A.65.65,0,0,1,274.982,853.362Zm-9.421-1.3h8.77V838.026h-8.77Z" transform="translate(-264.261 -836.726)" fill="#333"/>
      </g>
      <g id="그룹_2536" data-name="그룹 2536" transform="translate(0.65 0.65)">
        <path id="패스_3957" data-name="패스 3957" d="M171.247,760.394l-4.657,18.121h9.947l2.984-19.58h-6.466A1.852,1.852,0,0,0,171.247,760.394Z" transform="translate(-166.59 -758.935)" fill="#50b4ff"/>
        <path id="패스_3958" data-name="패스 3958" d="M171.564,824.134h0a4.974,4.974,0,0,0,4.973-4.974H166.59A4.974,4.974,0,0,0,171.564,824.134Z" transform="translate(-166.59 -799.579)" fill="#1c9eff"/>
        <path id="패스_3959" data-name="패스 3959" d="M200.171,758.935l-2.984,19.581h9.948l.995-19.581Z" transform="translate(-187.239 -758.935)" fill="#fff"/>
        <path id="패스_3960" data-name="패스 3960" d="M202.16,824.134a4.974,4.974,0,0,0,4.974-4.974h-9.948A4.974,4.974,0,0,0,202.16,824.134Z" transform="translate(-187.239 -799.579)" fill="#d1dbe6"/>
        <path id="패스_3961" data-name="패스 3961" d="M228.778,758.935l-.995,19.581h9.948l-1-19.581Z" transform="translate(-207.888 -758.935)" fill="#50b4ff"/>
        <path id="패스_3962" data-name="패스 3962" d="M232.757,824.134a4.974,4.974,0,0,0,4.974-4.974h-9.948A4.974,4.974,0,0,0,232.757,824.134Z" transform="translate(-207.888 -799.579)" fill="#1c9eff"/>
        <path id="패스_3963" data-name="패스 3963" d="M263.355,824.134a4.974,4.974,0,0,0,4.974-4.974h-9.947A4.974,4.974,0,0,0,263.355,824.134Z" transform="translate(-228.538 -799.579)" fill="#d1dbe6"/>
        <path id="패스_3964" data-name="패스 3964" d="M255.32,758.935l1,19.581h9.947l-2.984-19.581Z" transform="translate(-226.472 -758.935)" fill="#fff"/>
        <path id="패스_3965" data-name="패스 3965" d="M293.951,824.134h0a4.974,4.974,0,0,0,4.974-4.974h-9.948A4.974,4.974,0,0,0,293.951,824.134Z" transform="translate(-249.187 -799.579)" fill="#1c9eff"/>
        <path id="패스_3966" data-name="패스 3966" d="M279.8,758.935l2.985,19.58h9.948l-4.658-18.121a1.852,1.852,0,0,0-1.809-1.459Z" transform="translate(-242.991 -758.935)" fill="#50b4ff"/>
      </g>
      <g id="그룹_2537" data-name="그룹 2537" transform="translate(0)">
        <path id="패스_3967" data-name="패스 3967" d="M165.24,777.816a.649.649,0,0,1-.63-.812l4.657-18.121a2.509,2.509,0,0,1,2.439-1.947h6.466a.65.65,0,0,1,.643.748l-2.984,19.581a.65.65,0,1,1-1.286-.2l2.87-18.832h-5.709a1.208,1.208,0,0,0-1.173.947l-4.663,18.145A.651.651,0,0,1,165.24,777.816Z" transform="translate(-164.59 -756.935)" fill="#333"/>
      </g>
      <g id="그룹_2538" data-name="그룹 2538" transform="translate(0 19.58)">
        <path id="패스_3968" data-name="패스 3968" d="M170.214,823.434a5.631,5.631,0,0,1-5.624-5.624.65.65,0,0,1,1.3,0,4.323,4.323,0,1,0,8.647,0,.65.65,0,0,1,1.3,0A5.63,5.63,0,0,1,170.214,823.434Z" transform="translate(-164.59 -817.16)" fill="#333"/>
      </g>
      <g id="그룹_2539" data-name="그룹 2539" transform="translate(9.948)">
        <path id="패스_3969" data-name="패스 3969" d="M195.837,777.816a.679.679,0,0,1-.1-.007.651.651,0,0,1-.545-.741l2.984-19.58a.65.65,0,0,1,.643-.552h7.958a.65.65,0,0,1,.649.683l-.995,19.581a.65.65,0,0,1-1.3-.066l.96-18.9h-6.716l-2.9,19.028A.65.65,0,0,1,195.837,777.816Z" transform="translate(-195.186 -756.935)" fill="#333"/>
      </g>
      <g id="그룹_2540" data-name="그룹 2540" transform="translate(9.948 19.58)">
        <path id="패스_3970" data-name="패스 3970" d="M200.81,823.434a5.63,5.63,0,0,1-5.624-5.624.65.65,0,0,1,1.3,0,4.324,4.324,0,1,0,8.647,0,.65.65,0,0,1,1.3,0A5.631,5.631,0,0,1,200.81,823.434Z" transform="translate(-195.186 -817.16)" fill="#333"/>
      </g>
      <g id="그룹_2541" data-name="그룹 2541" transform="translate(19.895)">
        <path id="패스_3971" data-name="패스 3971" d="M236.381,777.816a.65.65,0,0,1-.649-.617l-.964-18.963h-6.722l-.963,18.963a.65.65,0,0,1-1.3-.066l.995-19.581a.651.651,0,0,1,.65-.617h7.958a.651.651,0,0,1,.65.617l.995,19.581a.65.65,0,0,1-.616.682Z" transform="translate(-225.783 -756.935)" fill="#333"/>
      </g>
      <g id="그룹_2542" data-name="그룹 2542" transform="translate(19.895 19.58)">
        <path id="패스_3972" data-name="패스 3972" d="M231.407,823.434a5.631,5.631,0,0,1-5.624-5.624.65.65,0,0,1,1.3,0,4.324,4.324,0,1,0,8.648,0,.65.65,0,0,1,1.3,0A5.631,5.631,0,0,1,231.407,823.434Z" transform="translate(-225.783 -817.16)" fill="#333"/>
      </g>
      <g id="그룹_2543" data-name="그룹 2543" transform="translate(29.843 19.58)">
        <path id="패스_3973" data-name="패스 3973" d="M262,823.434a5.63,5.63,0,0,1-5.624-5.624.65.65,0,0,1,1.3,0,4.323,4.323,0,1,0,8.647,0,.65.65,0,0,1,1.3,0A5.63,5.63,0,0,1,262,823.434Z" transform="translate(-256.381 -817.16)" fill="#333"/>
      </g>
      <g id="그룹_2544" data-name="그룹 2544" transform="translate(28.848)">
        <path id="패스_3974" data-name="패스 3974" d="M264.912,777.816a.65.65,0,0,1-.642-.552l-2.9-19.028h-6.715l.96,18.9a.65.65,0,0,1-1.3.066l-.995-19.581a.65.65,0,0,1,.649-.683h7.958a.65.65,0,0,1,.643.552l2.985,19.58a.651.651,0,0,1-.545.741A.68.68,0,0,1,264.912,777.816Z" transform="translate(-253.32 -756.935)" fill="#333"/>
      </g>
      <g id="그룹_2545" data-name="그룹 2545" transform="translate(39.791 19.58)">
        <path id="패스_3975" data-name="패스 3975" d="M292.6,823.434a5.63,5.63,0,0,1-5.624-5.624.65.65,0,0,1,1.3,0,4.324,4.324,0,1,0,8.647,0,.65.65,0,0,1,1.3,0A5.631,5.631,0,0,1,292.6,823.434Z" transform="translate(-286.977 -817.16)" fill="#333"/>
      </g>
      <g id="그룹_2546" data-name="그룹 2546" transform="translate(36.806)">
        <path id="패스_3976" data-name="패스 3976" d="M291.379,777.816a.651.651,0,0,1-.629-.488l-4.658-18.122a1.216,1.216,0,0,0-1.179-.97H279.2l2.87,18.832a.65.65,0,1,1-1.286.2L277.8,757.683a.65.65,0,0,1,.643-.748h6.466a2.516,2.516,0,0,1,2.444,1.971l4.652,18.1a.651.651,0,0,1-.468.792A.663.663,0,0,1,291.379,777.816Z" transform="translate(-277.797 -756.935)" fill="#333"/>
      </g>
    </g>
  </g>
</svg>
