<svg xmlns="http://www.w3.org/2000/svg" width="52.5" height="57.884" viewBox="0 0 52.5 57.884">
  <g id="ncs_08" transform="translate(-690.847 -272.685)">
    <path id="패스_4004" data-name="패스 4004" d="M748.037,370.972s-3.365-.784-3.5-3.185c-.072-1.273.766-3,3.5-5.314,4.287-3.623-2.492-5.183-6.786-5.539-13.989-1.159-31.319,1.959-36.744,12.334a9.031,9.031,0,0,0,.519,8.535,10.8,10.8,0,0,0,2.243,2.66c6.274,5.431,18.907,4.882,27.962,3.375,5.458-.908,10.633-2.877,14.042-6.011C751.819,375.487,753.42,372.161,748.037,370.972Z" transform="translate(-8.283 -54.299)" fill="#aac9eb"/>
    <path id="패스_4005" data-name="패스 4005" d="M768.222,332.124c-2.436.366-4.216,1.963-3.973,3.57s2.41,2.61,4.847,2.244,4.217-1.964,3.974-3.569S770.66,331.76,768.222,332.124Z" transform="translate(-47.422 -38.364)" fill="#fff"/>
    <path id="패스_4006" data-name="패스 4006" d="M734.779,339.84a4.988,4.988,0,0,1-3.306-4.315c-.068-1.726.724-4.07,3.306-7.2,4.051-4.909-2.355-7.024-6.412-7.5-13.219-1.571-29.595,2.654-34.72,16.714a16.975,16.975,0,0,0,.489,11.567,14.688,14.688,0,0,0,2.12,3.6c5.928,7.36,17.865,6.616,26.423,4.573a23.219,23.219,0,0,0,13.268-8.146C738.354,345.959,739.867,341.451,734.779,339.84Zm-34.342-7.477a13.689,13.689,0,0,1,4.248-3.163c2-.939,4.619-.285,4.661,2.337.043,2.7-3.153,6.161-5.19,7.9-1.7,1.447-5,2.285-5.738-.548C697.92,336.981,699.291,333.867,700.437,332.363Zm7.571,19.5a4.713,4.713,0,0,1-2.583.995c-3.068.217-5.927-2.8-6.874-5.488a3.566,3.566,0,0,1,3.081-4.913,8.137,8.137,0,0,1,3.788.457,8.637,8.637,0,0,1,3.032,1.542c.073.075.144.152.208.23a3.837,3.837,0,0,1,.681,2.24C709.383,348.477,709.188,350.721,708.008,351.863Zm1.619-14.746c1.569-1.729,3.468-4.268,6.012-2.647a6.438,6.438,0,0,1,2.68,5.8c-.683,6.25-3.413,3.644-8.36,1.971C706.888,341.2,707.679,339.266,709.628,337.118Zm12.61,16.174a11.265,11.265,0,0,1-7.39,1.448c-1.318-.178-3.063-.629-3.527-2.067-.36-1.117.519-1.926.664-2.98.365-2.65,2.5-3.07,4.991-3.28a11.872,11.872,0,0,1,5.258.565,3.33,3.33,0,0,1,2.1,2.361C724.7,351.021,723.585,352.421,722.237,353.291Zm.732-22.812c-2.437.366-4.607-.637-4.847-2.244s1.537-3.2,3.973-3.57,4.608.638,4.849,2.244S725.407,330.114,722.97,330.479Z" transform="translate(-1.295 -30.906)" fill="#50b4ff"/>
    <path id="패스_4007" data-name="패스 4007" d="M714.134,354.574c2.037-1.738,5.233-5.2,5.19-7.9-.042-2.622-2.663-3.276-4.661-2.337a13.688,13.688,0,0,0-4.248,3.163c-1.146,1.5-2.517,4.618-2.02,6.526C709.134,356.859,712.435,356.021,714.134,354.574Z" transform="translate(-11.273 -46.043)" fill="#aac9eb"/>
    <path id="패스_4008" data-name="패스 4008" d="M718.6,384.665c-.064-.079-.134-.156-.207-.23a8.653,8.653,0,0,0-3.031-1.54,8.12,8.12,0,0,0-3.784-.456,3.562,3.562,0,0,0-3.079,4.908c.947,2.685,3.8,5.7,6.868,5.482a4.711,4.711,0,0,0,2.581-.994c1.179-1.14,1.373-3.383,1.331-4.932A3.836,3.836,0,0,0,718.6,384.665Z" transform="translate(-11.246 -70.887)" fill="#aac9eb"/>
    <path id="패스_4009" data-name="패스 4009" d="M721.4,388.33c-.055-.067-.116-.134-.179-.2A7.466,7.466,0,0,0,718.6,386.8a7.035,7.035,0,0,0-3.276-.395,3.084,3.084,0,0,0-2.665,4.249c.82,2.324,3.292,4.934,5.945,4.746a4.08,4.08,0,0,0,2.235-.861c1.02-.987,1.189-2.928,1.152-4.27A3.315,3.315,0,0,0,721.4,388.33Z" transform="translate(-13.955 -73.455)" fill="#fff"/>
    <path id="패스_4010" data-name="패스 4010" d="M755.819,394.181a11.873,11.873,0,0,0-5.258-.565c-2.489.21-4.626.63-4.991,3.28-.145,1.054-1.024,1.863-.664,2.98.464,1.438,2.209,1.889,3.527,2.067a11.265,11.265,0,0,0,7.389-1.448c1.347-.871,2.461-2.27,2.093-3.953A3.33,3.33,0,0,0,755.819,394.181Z" transform="translate(-34.88 -78.109)" fill="#aac9eb"/>
    <path id="패스_4011" data-name="패스 4011" d="M760.152,398.047a9.913,9.913,0,0,0-4.39-.472c-2.078.175-3.861.525-4.166,2.738-.121.879-.855,1.555-.554,2.488.387,1.2,1.844,1.577,2.944,1.725a9.4,9.4,0,0,0,6.169-1.209,3.232,3.232,0,0,0,1.747-3.3A2.779,2.779,0,0,0,760.152,398.047Z" transform="translate(-38.854 -80.674)" fill="#fff"/>
    <path id="패스_4012" data-name="패스 4012" d="M745.825,364.829a6.438,6.438,0,0,0-2.68-5.8c-2.544-1.622-4.443.918-6.012,2.647-1.949,2.148-2.74,4.084.331,5.123C742.412,368.473,745.142,371.079,745.825,364.829Z" transform="translate(-28.8 -55.465)" fill="#50b4ff"/>
    <g id="그룹_2563" data-name="그룹 2563" transform="translate(690.847 288.895)">
      <g id="그룹_2562" data-name="그룹 2562">
        <path id="패스_4013" data-name="패스 4013" d="M710.406,358.086h0c-7.284,0-12.666-2.1-16-6.231a15.482,15.482,0,0,1-2.222-3.777,17.617,17.617,0,0,1-.5-12.081,24.275,24.275,0,0,1,12.237-13.488,39.283,39.283,0,0,1,17.879-4,45.5,45.5,0,0,1,5.353.315c1.59.189,6.874,1.04,8.09,4.072.557,1.39.148,2.933-1.215,4.585-2.159,2.619-3.217,4.881-3.145,6.724a4.233,4.233,0,0,0,2.818,3.67,5.109,5.109,0,0,1,3.674,3.2c.878,2.764-1.219,5.95-2.161,7.192a23.965,23.965,0,0,1-13.667,8.407A49.03,49.03,0,0,1,710.406,358.086Zm11.4-38.163c-5.337,0-23.186,1.194-28.786,16.559a16.367,16.367,0,0,0,.478,11.054,14.057,14.057,0,0,0,2.017,3.432c3.048,3.784,8.059,5.7,14.894,5.7A47.592,47.592,0,0,0,721.22,355.3a22.553,22.553,0,0,0,12.868-7.886c1.685-2.22,2.41-4.429,1.94-5.908a3.8,3.8,0,0,0-2.757-2.28l0-.014a5.547,5.547,0,0,1-3.8-4.948c-.086-2.2,1.08-4.784,3.467-7.68,1.009-1.223,1.344-2.286.994-3.159-.689-1.719-3.984-2.843-6.943-3.194A44.116,44.116,0,0,0,721.8,319.923Zm-1.125,10.047c-2.421,0-4.292-1.2-4.55-2.922a2.97,2.97,0,0,1,.614-2.23,6.053,6.053,0,0,1,3.954-2.144,7.463,7.463,0,0,1,1.1-.083c2.423,0,4.3,1.2,4.554,2.922a2.972,2.972,0,0,1-.615,2.232,6.051,6.051,0,0,1-3.954,2.142A7.392,7.392,0,0,1,720.678,329.97Zm1.117-5.964a6.022,6.022,0,0,0-.89.067,4.7,4.7,0,0,0-3.025,1.584,1.617,1.617,0,0,0-.353,1.18c.149,1,1.474,1.718,3.151,1.718a6.049,6.049,0,0,0,.892-.068A4.7,4.7,0,0,0,724.6,326.9a1.624,1.624,0,0,0,.354-1.181C724.8,324.728,723.474,324.006,721.8,324.006Z" transform="translate(-690.847 -318.508)" fill="#333"/>
      </g>
    </g>
    <g id="그룹_2565" data-name="그룹 2565" transform="translate(696.313 297.181)">
      <g id="그룹_2564" data-name="그룹 2564" transform="translate(0 0)">
        <path id="패스_4014" data-name="패스 4014" d="M709.5,355.322h0a3.015,3.015,0,0,1-3.08-2.41c-.573-2.2.939-5.555,2.142-7.133a14.324,14.324,0,0,1,4.509-3.374,4.948,4.948,0,0,1,2.089-.473,3.368,3.368,0,0,1,3.581,3.438c.057,3.577-4.521,7.666-5.439,8.449A6.192,6.192,0,0,1,709.5,355.322Zm5.659-11.975a3.521,3.521,0,0,0-1.486.339,13.1,13.1,0,0,0-3.987,2.952c-1.047,1.374-2.326,4.273-1.9,5.917a1.61,1.61,0,0,0,1.711,1.352,4.865,4.865,0,0,0,2.884-1.164c2.484-2.119,4.976-5.214,4.942-7.35A1.988,1.988,0,0,0,715.163,343.347Z" transform="translate(-706.298 -341.932)" fill="#333"/>
      </g>
    </g>
    <g id="그룹_2567" data-name="그룹 2567" transform="translate(696.296 310.78)">
      <g id="그룹_2566" data-name="그룹 2566">
        <path id="패스_4015" data-name="패스 4015" d="M713.771,392.266h0c-3.208,0-6.194-3.036-7.229-5.971a4.359,4.359,0,0,1,.292-3.773,4.549,4.549,0,0,1,3.357-2.075,10.976,10.976,0,0,1,7.428,2.206c.086.088.171.18.247.274a4.6,4.6,0,0,1,.84,2.669c.048,1.764-.182,4.144-1.548,5.465a5.37,5.37,0,0,1-3.026,1.192Q713.952,392.266,713.771,392.266Zm-2.554-10.476a5.88,5.88,0,0,0-.826.057,3.166,3.166,0,0,0-2.346,1.409,2.975,2.975,0,0,0-.167,2.569c.852,2.417,3.347,5.026,5.894,5.026h0c.087,0,.175,0,.263-.009a4.078,4.078,0,0,0,2.141-.8c.766-.741,1.173-2.348,1.117-4.41a3.13,3.13,0,0,0-.526-1.816c-.046-.057-.1-.118-.161-.178a8.464,8.464,0,0,0-2.759-1.368A8,8,0,0,0,711.217,381.79Z" transform="translate(-706.25 -380.375)" fill="#333"/>
      </g>
    </g>
    <g id="그룹_2569" data-name="그룹 2569" transform="translate(709.233 314.733)">
      <g id="그룹_2568" data-name="그룹 2568" transform="translate(0 0)">
        <path id="패스_4016" data-name="패스 4016" d="M748.766,401.466h0a12.844,12.844,0,0,1-1.719-.115c-2.277-.307-3.659-1.166-4.106-2.551a3.142,3.142,0,0,1,.315-2.357,3.693,3.693,0,0,0,.321-.937c.475-3.454,3.7-3.725,5.632-3.888.536-.045,1.063-.068,1.566-.068a10.245,10.245,0,0,1,4.033.689,3.994,3.994,0,0,1,2.507,2.859c.383,1.752-.492,3.464-2.4,4.7A11.449,11.449,0,0,1,748.766,401.466Zm2.01-8.5c-.464,0-.951.021-1.447.063-2.73.23-4.077.688-4.349,2.671a4.894,4.894,0,0,1-.428,1.315,1.83,1.83,0,0,0-.263,1.352c.265.822,1.257,1.355,2.948,1.583a11.425,11.425,0,0,0,1.53.1,10.026,10.026,0,0,0,5.381-1.443c.655-.423,2.141-1.584,1.786-3.207a2.62,2.62,0,0,0-1.688-1.864A9.012,9.012,0,0,0,750.776,392.965Z" transform="translate(-742.822 -391.55)" fill="#333"/>
      </g>
    </g>
    <g id="그룹_2571" data-name="그룹 2571" transform="translate(705.905 302.338)">
      <g id="그룹_2570" data-name="그룹 2570" transform="translate(0 0)">
        <path id="패스_4017" data-name="패스 4017" d="M742.113,368.2h0a10.71,10.71,0,0,1-3.672-1.074c-.747-.3-1.593-.649-2.494-.953a3.349,3.349,0,0,1-2.46-2.114c-.387-1.488.86-3.083,1.831-4.154.128-.141.258-.287.39-.435,1.173-1.32,2.633-2.963,4.523-2.963a3.711,3.711,0,0,1,2,.63,7.189,7.189,0,0,1,3,6.472C745,365.751,744.437,368.2,742.113,368.2Zm-1.882-10.279c-1.254,0-2.429,1.322-3.465,2.488-.135.152-.269.3-.4.446-1.161,1.279-1.669,2.237-1.51,2.848.143.55.919.918,1.544,1.13.942.318,1.809.672,2.575.983a10.3,10.3,0,0,0,3.138.969h.005c.474,0,1.349-.012,1.712-3.331a5.766,5.766,0,0,0-2.356-5.125A2.294,2.294,0,0,0,740.231,357.926Z" transform="translate(-733.415 -356.511)" fill="#333"/>
      </g>
    </g>
    <g id="그룹_2578" data-name="그룹 2578" transform="translate(722.807 272.685)">
      <path id="패스_4018" data-name="패스 4018" d="M789.839,347.63c-6.769-1.273-6.646,13.259-6.646,13.259C792.556,361.257,796.609,348.9,789.839,347.63Z" transform="translate(-782.485 -321.067)" fill="#fff"/>
      <path id="패스_4019" data-name="패스 4019" d="M783.941,365.624s-.738,6.337-.748,6.944a9.589,9.589,0,0,0,7.723-3.36l-2.456.269-.223-1.882-1.458,1.05-.674-1.767-1.4,1.073Z" transform="translate(-782.485 -332.747)" fill="#50b4ff"/>
      <g id="그룹_2574" data-name="그룹 2574" transform="translate(0 25.776)">
        <g id="그룹_2573" data-name="그룹 2573">
          <g id="그룹_2572" data-name="그룹 2572">
            <path id="패스_4020" data-name="패스 4020" d="M782.31,360.312q-.217,0-.438-.009l-.674-.027-.006-.675c0-.376-.038-9.254,3.353-12.675a4.407,4.407,0,0,1,4.132-1.284c2.69.506,4.189,2.66,3.914,5.622A10.382,10.382,0,0,1,782.31,360.312Zm5.42-13.346a2.96,2.96,0,0,0-2.179.957c-2.479,2.5-2.871,8.85-2.932,10.968a8.936,8.936,0,0,0,8.563-7.758c.1-1.058.026-3.575-2.766-4.1A3.742,3.742,0,0,0,787.73,346.966Z" transform="translate(-781.192 -345.551)"/>
          </g>
        </g>
      </g>
      <rect id="사각형_1849" data-name="사각형 1849" width="3.443" height="5.564" transform="matrix(0.367, -0.93, 0.93, 0.367, 5.428, 26.622)" fill="#fff"/>
      <path id="패스_4021" data-name="패스 4021" d="M800.108,328.716l5.176,2.042,1.47-6.107-3.8-1.5Z" transform="translate(-793.417 -305.296)" fill="#50b4ff"/>
      <g id="그룹_2575" data-name="그룹 2575" transform="translate(4.721 22.712)">
        <path id="패스_4022" data-name="패스 4022" d="M800.42,343.549a.709.709,0,0,1-.26-.049l-5.175-2.042a.707.707,0,0,1-.4-.918l1.263-3.2a.708.708,0,0,1,.918-.4l5.176,2.042a.707.707,0,0,1,.4.918l-1.264,3.2a.708.708,0,0,1-.658.448Zm-4.257-3.148,3.859,1.523.744-1.887-3.859-1.523Z" transform="translate(-794.536 -336.889)"/>
      </g>
      <g id="그룹_2576" data-name="그룹 2576" transform="translate(5.984)">
        <path id="패스_4023" data-name="패스 4023" d="M803.992,298.854a.7.7,0,0,1-.26-.049l-5.176-2.042a.707.707,0,0,1-.378-.965l10.579-22.022a1.729,1.729,0,0,1,3.217,1.271l-7.308,23.31a.706.706,0,0,1-.675.5Zm-4.209-3.128,3.761,1.484,7.092-22.624a.645.645,0,0,1,.026-.068.318.318,0,0,0-.183-.4.324.324,0,0,0-.4.163.708.708,0,0,1-.029.069h0Z" transform="translate(-798.108 -272.685)"/>
      </g>
      <g id="그룹_2577" data-name="그룹 2577" transform="translate(9.279 17.193)">
        <rect id="사각형_1850" data-name="사각형 1850" width="1.415" height="4.543" transform="matrix(0.367, -0.93, 0.93, 0.367, 0, 1.316)"/>
      </g>
    </g>
  </g>
</svg>
