<svg xmlns="http://www.w3.org/2000/svg" width="61.302" height="47.177" viewBox="0 0 61.302 47.177">
  <g id="ncs_09" transform="translate(-145.432 -510.321)">
    <path id="패스_3977" data-name="패스 3977" d="M217.5,519.45H202.708c.277-.374.581-.77.83-1.077l.455-.56c.459-.565,1.125-1.386,1.478-1.824s1.028-1.2,1.517-1.726a5.444,5.444,0,0,0,1.354-2.334,1.2,1.2,0,0,0-.253-.945,2.346,2.346,0,0,0-1.754-.648,13.772,13.772,0,0,0-2.335.1c-2.23.255-6.922.311-6.97.312a4.2,4.2,0,0,0-2.663,1.168,60.959,60.959,0,0,1-5.455,5.1,6.891,6.891,0,0,0-1.786,2.427H186.4a1.289,1.289,0,0,0-1.285,1.285v2.531H172.934a2.474,2.474,0,0,0-1.929,1.112l-7.176,12.379a5.662,5.662,0,0,0-.644,2.4v10.484a1.288,1.288,0,0,0,1.285,1.285h3.407a6.483,6.483,0,0,0,6.422,5.612c.069,0,.136-.008.205-.01s.135.01.2.01a5.593,5.593,0,0,0,4.445-2.2,6.456,6.456,0,0,0,1.562-3.414h20a6.483,6.483,0,0,0,6.422,5.612c.069,0,.136-.008.2-.01s.136.01.206.01a5.593,5.593,0,0,0,4.447-2.2,6.455,6.455,0,0,0,1.56-3.412H217.5a1.289,1.289,0,0,0,1.285-1.285v-28.9A1.289,1.289,0,0,0,217.5,519.45Z" transform="translate(-12.052)" fill="#aac9eb"/>
    <g id="그룹_2560" data-name="그룹 2560" transform="translate(145.432 510.594)">
      <path id="패스_3978" data-name="패스 3978" d="M173.009,578.006a1.288,1.288,0,0,1-1.285,1.285H148.716a1.288,1.288,0,0,1-1.284-1.285V567.522a5.666,5.666,0,0,1,.644-2.4l7.176-12.379a2.474,2.474,0,0,1,1.929-1.112h14.543a1.288,1.288,0,0,1,1.285,1.285Z" transform="translate(-146.79 -538.642)" fill="#fff"/>
      <rect id="사각형_1845" data-name="사각형 1845" width="1.808" height="27.408" transform="translate(20.762 13.241)" fill="#aac9eb"/>
      <g id="그룹_2550" data-name="그룹 2550" transform="translate(22.456 0)">
        <path id="패스_3979" data-name="패스 3979" d="M218.37,528.53c-.714.143-1.127-.311-.918-1.008,0,0,.666-2.223,1.259-3.867a8.987,8.987,0,0,1,2.315-3.877,61.032,61.032,0,0,0,5.525-5.167,3.579,3.579,0,0,1,2.231-.977s4.744-.053,7.031-.315c3.37-.386,3.745.265,3.674.809a5.078,5.078,0,0,1-1.194,2c-.5.531-1.195,1.323-1.548,1.76s-1.017,1.258-1.476,1.823l-.454.559c-.459.565-1.1,1.43-1.434,1.923a8.8,8.8,0,0,1-1.652,1.7l-2.44,1.865a6.826,6.826,0,0,1-2.349,1.063Z" transform="translate(-216.744 -512.55)" fill="#aac9eb"/>
        <g id="그룹_2549" data-name="그룹 2549">
          <path id="패스_3980" data-name="패스 3980" d="M238.555,511.984a2.348,2.348,0,0,0-1.754-.648,13.771,13.771,0,0,0-2.335.1c-2.229.255-6.922.311-6.97.312a4.2,4.2,0,0,0-2.663,1.168,61.028,61.028,0,0,1-5.456,5.1,9.175,9.175,0,0,0-2.514,4.149c-.592,1.642-1.263,3.877-1.269,3.9a1.459,1.459,0,0,0,.149,1.277,1.272,1.272,0,0,0,.993.531,1.822,1.822,0,0,0,.474-.035l8.57-1.713a7.387,7.387,0,0,0,2.6-1.175l2.44-1.864a9.33,9.33,0,0,0,1.787-1.843c.323-.483.952-1.325,1.4-1.878l.455-.56c.46-.565,1.125-1.386,1.478-1.824s1.028-1.2,1.517-1.726a5.441,5.441,0,0,0,1.353-2.334A1.2,1.2,0,0,0,238.555,511.984Zm-1.982,2.451c-.253.27-.558.607-.844.932a.648.648,0,0,0-.106.086c-.455.467-4.049.8-5.418.509a.6.6,0,0,0-.255,1.181,5.7,5.7,0,0,0,.81.1,17.843,17.843,0,0,0,3.551-.163c-.271.335-.557.687-.79.974l-.454.559c-.178.217-.382.479-.585.747a.424.424,0,0,0-.041.046c-.427.588-3.778.753-5.347.39a.6.6,0,0,0-.272,1.178,10.188,10.188,0,0,0,1.441.174,14.983,14.983,0,0,0,2.952-.086,8.853,8.853,0,0,1-1.132,1.073L227.643,524a6.3,6.3,0,0,1-2.1.951l-8.57,1.713a.594.594,0,0,1-.239,0,.376.376,0,0,1,.018-.24c.006-.022.667-2.226,1.248-3.836a8.216,8.216,0,0,1,2.117-3.6,60.94,60.94,0,0,0,5.594-5.23,2.97,2.97,0,0,1,1.8-.788c.195,0,4.8-.058,7.093-.319a12.594,12.594,0,0,1,2.122-.1,1.815,1.815,0,0,1,.886.189.208.208,0,0,1,0,.04A4.327,4.327,0,0,1,236.573,514.435Z" transform="translate(-215.466 -511.273)" fill="#333"/>
          <path id="패스_3981" data-name="패스 3981" d="M216.739,527.831c-.036,0-.072,0-.108,0a1.319,1.319,0,0,1-1.03-.552,1.508,1.508,0,0,1-.155-1.319l0-.014c.117-.386.725-2.389,1.266-3.887a9.217,9.217,0,0,1,2.529-4.171,60.481,60.481,0,0,0,5.444-5.091,4.255,4.255,0,0,1,2.7-1.19c.045,0,4.727-.055,6.965-.311a13.873,13.873,0,0,1,2.344-.1,2.388,2.388,0,0,1,1.788.665,1.25,1.25,0,0,1,.263.983,5.5,5.5,0,0,1-1.366,2.36c-.486.519-1.166,1.292-1.514,1.723s-1.019,1.259-1.478,1.825l-.455.559c-.452.558-1.08,1.4-1.4,1.874a9.389,9.389,0,0,1-1.8,1.855l-2.44,1.864a7.444,7.444,0,0,1-2.616,1.185l-8.571,1.713A1.933,1.933,0,0,1,216.739,527.831Zm19.448-16.563a16.381,16.381,0,0,0-1.818.119c-2.243.257-6.93.312-6.975.312a4.141,4.141,0,0,0-2.628,1.152,60.469,60.469,0,0,1-5.462,5.109,9.134,9.134,0,0,0-2.5,4.128c-.54,1.5-1.148,3.5-1.265,3.883l0,.014a1.413,1.413,0,0,0,.142,1.236,1.225,1.225,0,0,0,.957.511,1.753,1.753,0,0,0,.461-.034l8.57-1.713a7.332,7.332,0,0,0,2.577-1.166l2.44-1.864a9.277,9.277,0,0,0,1.776-1.832c.32-.477.949-1.321,1.4-1.881l.455-.559c.46-.565,1.124-1.387,1.478-1.824s1.03-1.208,1.519-1.729a5.407,5.407,0,0,0,1.341-2.307,1.155,1.155,0,0,0-.242-.909,2.3,2.3,0,0,0-1.72-.63C236.54,511.273,236.369,511.268,236.188,511.268Zm-19.43,15.351a.62.62,0,0,1-.133-.014l-.024,0-.009-.021a.4.4,0,0,1,.014-.278c0-.016.661-2.207,1.249-3.839a8.255,8.255,0,0,1,2.133-3.625,59.541,59.541,0,0,0,5.582-5.217,3.033,3.033,0,0,1,1.84-.811c.5-.006,4.894-.068,7.088-.319a12.577,12.577,0,0,1,2.13-.1,2.256,2.256,0,0,1,.895.189h.03l.005.042a.231.231,0,0,1,0,.051,4.364,4.364,0,0,1-1.048,1.692c-.237.253-.537.584-.843.931l-.009.008a.6.6,0,0,0-.1.08c-.354.363-2.417.635-4.026.635a7.3,7.3,0,0,1-1.437-.112.577.577,0,0,0-.118-.013.558.558,0,0,0-.542.439.556.556,0,0,0,.426.661,5.678,5.678,0,0,0,.8.1c.281.018.592.027.923.027a17.571,17.571,0,0,0,2.618-.189l.124-.019-.11.136c-.262.323-.534.66-.758.935l-.454.559c-.168.206-.37.464-.583.746l-.015.015a.273.273,0,0,0-.025.029c-.3.414-1.892.6-3.244.6a10.214,10.214,0,0,1-2.153-.192.564.564,0,0,0-.127-.014.556.556,0,0,0-.124,1.1,10.34,10.34,0,0,0,1.433.173c.363.023.731.034,1.094.034a13.019,13.019,0,0,0,1.848-.12l.13-.019-.088.1a8.867,8.867,0,0,1-1.139,1.079l-2.44,1.865a6.349,6.349,0,0,1-2.121.96l-8.57,1.713A.626.626,0,0,1,216.757,526.619Zm-.086-.1a.535.535,0,0,0,.086.007.5.5,0,0,0,.1-.01l8.57-1.713a6.235,6.235,0,0,0,2.081-.941l2.44-1.865a8.626,8.626,0,0,0,1.037-.969,13.422,13.422,0,0,1-1.731.1c-.365,0-.735-.012-1.1-.035a10.341,10.341,0,0,1-1.449-.175.652.652,0,1,1,.294-1.271,10.119,10.119,0,0,0,2.132.19c1.6,0,2.929-.236,3.165-.562a.315.315,0,0,1,.035-.04l.01-.011c.211-.279.414-.538.583-.745l.454-.559.711-.877a17.841,17.841,0,0,1-2.51.172c-.333,0-.646-.009-.929-.027a5.826,5.826,0,0,1-.817-.1.652.652,0,0,1-.5-.775.65.65,0,0,1,.775-.5,7.224,7.224,0,0,0,1.416.11c1.731,0,3.654-.294,3.956-.605a.655.655,0,0,1,.109-.089c.306-.347.6-.676.841-.929a4.277,4.277,0,0,0,1.023-1.638v-.005a2.123,2.123,0,0,0-.839-.169,12.632,12.632,0,0,0-2.113.1c-2.153.246-6.281.31-7.087.319a2.918,2.918,0,0,0-1.774.773,59.636,59.636,0,0,1-5.6,5.235,8.18,8.18,0,0,0-2.1,3.582c-.581,1.612-1.242,3.815-1.247,3.833A.482.482,0,0,0,216.671,526.516Z" transform="translate(-215.365 -511.172)" fill="#333"/>
        </g>
      </g>
      <path id="패스_3982" data-name="패스 3982" d="M175.759,565.02h-6.712l-4.3,7.416a7.339,7.339,0,0,0-.562,1.3h11.572a1.072,1.072,0,0,0,1.067-1.066v-6.58A1.072,1.072,0,0,0,175.759,565.02Z" transform="translate(-158.164 -547.729)" fill="#223757"/>
      <path id="패스_3983" data-name="패스 3983" d="M175.759,565.02h-6.712l-4.3,7.416a7.339,7.339,0,0,0-.562,1.3h11.572a1.072,1.072,0,0,0,1.067-1.066v-6.58A1.072,1.072,0,0,0,175.759,565.02Z" transform="translate(-158.164 -547.729)" fill="#50b4ff"/>
      <g id="그룹_2551" data-name="그룹 2551" transform="translate(0 12.351)">
        <path id="패스_3984" data-name="패스 3984" d="M170.366,578.575H147.359a1.929,1.929,0,0,1-1.927-1.927V566.164a6.3,6.3,0,0,1,.731-2.718l7.176-12.379a3.086,3.086,0,0,1,2.485-1.432h14.543a1.929,1.929,0,0,1,1.927,1.927v25.086A1.929,1.929,0,0,1,170.366,578.575Zm-14.543-27.656a1.841,1.841,0,0,0-1.373.792l-7.176,12.379a5.062,5.062,0,0,0-.557,2.075v10.484a.643.643,0,0,0,.642.643h23.007a.643.643,0,0,0,.643-.643V551.562a.643.643,0,0,0-.643-.643Z" transform="translate(-145.432 -549.635)" fill="#333"/>
      </g>
      <g id="그룹_2552" data-name="그룹 2552" transform="translate(5.38 16.649)">
        <path id="패스_3985" data-name="패스 3985" d="M174.4,573.02H162.829a.642.642,0,0,1-.608-.848,7.847,7.847,0,0,1,.616-1.418l4.3-7.414a.642.642,0,0,1,.556-.32H174.4a1.713,1.713,0,0,1,1.71,1.712v6.58A1.711,1.711,0,0,1,174.4,573.02Zm-10.629-1.284H174.4a.43.43,0,0,0,.425-.424v-6.58a.432.432,0,0,0-.425-.428h-6.342l-4.112,7.1Q163.86,571.551,163.772,571.736Z" transform="translate(-162.187 -563.02)" fill="#333"/>
      </g>
      <path id="패스_3986" data-name="패스 3986" d="M248.106,539.75H217a1.289,1.289,0,0,0-1.285,1.285v30.187h32.387a1.289,1.289,0,0,0,1.285-1.285v-28.9A1.289,1.289,0,0,0,248.106,539.75Z" transform="translate(-193.149 -530.573)" fill="#ef5f4b"/>
      <path id="패스_3987" data-name="패스 3987" d="M248.106,539.75H217a1.289,1.289,0,0,0-1.285,1.285v30.187h32.387a1.289,1.289,0,0,0,1.285-1.285v-28.9A1.289,1.289,0,0,0,248.106,539.75Z" transform="translate(-193.149 -530.573)" fill="#50b4ff"/>
      <g id="그룹_2553" data-name="그룹 2553" transform="translate(21.928 8.535)">
        <path id="패스_3988" data-name="패스 3988" d="M246.749,570.507h-33.03V539.677a1.929,1.929,0,0,1,1.927-1.927h31.1a1.929,1.929,0,0,1,1.927,1.927v28.9A1.929,1.929,0,0,1,246.749,570.507ZM215,569.222h31.745a.643.643,0,0,0,.643-.643v-28.9a.644.644,0,0,0-.643-.643h-31.1a.644.644,0,0,0-.643.643Z" transform="translate(-213.719 -537.75)" fill="#333"/>
      </g>
      <path id="패스_3989" data-name="패스 3989" d="M283.5,633.837a1.853,1.853,0,1,1-1.85-1.854A1.851,1.851,0,0,1,283.5,633.837Z" transform="translate(-236.65 -593.189)" fill="#fff"/>
      <path id="패스_3990" data-name="패스 3990" d="M277.065,621.319a6.485,6.485,0,1,1-6.483-6.486A6.485,6.485,0,0,1,277.065,621.319Z" transform="translate(-225.99 -581.546)" fill="#fff"/>
      <path id="패스_3991" data-name="패스 3991" d="M279.319,625.89a5.611,5.611,0,1,1-5.61-5.612A5.611,5.611,0,0,1,279.319,625.89Z" transform="translate(-228.707 -585.242)" fill="#50b4ff"/>
      <path id="패스_3992" data-name="패스 3992" d="M283.5,633.837a1.853,1.853,0,1,1-1.85-1.854A1.851,1.851,0,0,1,283.5,633.837Z" transform="translate(-236.65 -593.189)" fill="#fff"/>
      <g id="그룹_2554" data-name="그룹 2554" transform="translate(38.747 34.393)">
        <path id="패스_3993" data-name="패스 3993" d="M272.351,630.788a6.255,6.255,0,1,1,6.252-6.255A6.262,6.262,0,0,1,272.351,630.788Zm0-11.226a4.971,4.971,0,1,0,4.967,4.97A4.976,4.976,0,0,0,272.351,619.562Z" transform="translate(-266.096 -618.278)" fill="#333"/>
      </g>
      <g id="그룹_2555" data-name="그룹 2555" transform="translate(42.505 38.152)">
        <path id="패스_3994" data-name="패스 3994" d="M280.295,634.974a2.5,2.5,0,1,1,2.492-2.5A2.5,2.5,0,0,1,280.295,634.974Zm0-3.707a1.211,1.211,0,1,0,1.208,1.212A1.214,1.214,0,0,0,280.295,631.267Z" transform="translate(-277.797 -629.983)" fill="#333"/>
      </g>
      <path id="패스_3995" data-name="패스 3995" d="M181.245,633.837a1.853,1.853,0,1,1-1.851-1.854A1.852,1.852,0,0,1,181.245,633.837Z" transform="translate(-167.229 -593.189)" fill="#fff"/>
      <path id="패스_3996" data-name="패스 3996" d="M174.807,621.319a6.485,6.485,0,1,1-6.483-6.486A6.485,6.485,0,0,1,174.807,621.319Z" transform="translate(-156.568 -581.546)" fill="#aac9eb"/>
      <path id="패스_3997" data-name="패스 3997" d="M177.06,625.89a5.611,5.611,0,1,1-5.61-5.612A5.611,5.611,0,0,1,177.06,625.89Z" transform="translate(-159.285 -585.242)" fill="#50b4ff"/>
      <path id="패스_3998" data-name="패스 3998" d="M181.245,633.837a1.853,1.853,0,1,1-1.851-1.854A1.852,1.852,0,0,1,181.245,633.837Z" transform="translate(-167.229 -593.189)" fill="#fff"/>
      <g id="그룹_2556" data-name="그룹 2556" transform="translate(5.91 34.393)">
        <path id="패스_3999" data-name="패스 3999" d="M170.093,630.788a6.255,6.255,0,1,1,6.252-6.255A6.262,6.262,0,0,1,170.093,630.788Zm0-11.226a4.971,4.971,0,1,0,4.967,4.97A4.976,4.976,0,0,0,170.093,619.562Z" transform="translate(-163.838 -618.278)" fill="#333"/>
      </g>
      <g id="그룹_2557" data-name="그룹 2557" transform="translate(9.668 38.152)">
        <path id="패스_4000" data-name="패스 4000" d="M178.036,634.974a2.5,2.5,0,1,1,2.493-2.5A2.5,2.5,0,0,1,178.036,634.974Zm0-3.707a1.211,1.211,0,1,0,1.209,1.212A1.214,1.214,0,0,0,178.036,631.267Z" transform="translate(-175.539 -629.983)" fill="#333"/>
      </g>
      <rect id="사각형_1846" data-name="사각형 1846" width="6.562" height="1.48" transform="translate(46.165 13.241)" fill="#fff"/>
      <rect id="사각형_1847" data-name="사각형 1847" width="6.562" height="1.48" transform="translate(46.165 16.5)" fill="#fff"/>
      <path id="사각형_1848" data-name="사각형 1848" d="M.765,0H3.609a.765.765,0,0,1,.765.765v0a.764.764,0,0,1-.764.764H.765A.765.765,0,0,1,0,.765v0A.765.765,0,0,1,.765,0Z" transform="translate(14.711 28.943)" fill="#50b4ff"/>
      <g id="그룹_2559" data-name="그룹 2559" transform="translate(21.829 12.452)">
        <path id="패스_4001" data-name="패스 4001" d="M216.414,567.309c-.714.143-1.128-.311-.919-1.008,0,0,.666-2.223,1.259-3.867a8.975,8.975,0,0,1,2.315-3.877,60.982,60.982,0,0,0,5.525-5.167,3.59,3.59,0,0,1,2.231-.977s4.744-.054,7.031-.315c3.37-.385,3.745.265,3.673.809a5.071,5.071,0,0,1-1.194,2c-.5.53-1.195,1.322-1.547,1.76s-1.017,1.258-1.476,1.823l-.455.559c-.459.565-1.1,1.43-1.434,1.923a8.788,8.788,0,0,1-1.652,1.7l-2.44,1.865a6.805,6.805,0,0,1-2.349,1.062Z" transform="translate(-214.788 -551.329)" fill="#fff"/>
        <g id="그룹_2558" data-name="그룹 2558">
          <path id="패스_4002" data-name="패스 4002" d="M236.6,550.763a2.343,2.343,0,0,0-1.754-.649,13.8,13.8,0,0,0-2.336.1c-2.229.255-6.922.311-6.969.311a4.2,4.2,0,0,0-2.663,1.167,61.023,61.023,0,0,1-5.456,5.1,9.169,9.169,0,0,0-2.514,4.15c-.593,1.641-1.263,3.876-1.269,3.9a1.463,1.463,0,0,0,.148,1.278,1.276,1.276,0,0,0,.994.531,1.854,1.854,0,0,0,.474-.035l8.57-1.713a7.381,7.381,0,0,0,2.6-1.176l2.44-1.864a9.328,9.328,0,0,0,1.786-1.843c.324-.483.952-1.325,1.4-1.878l.455-.559c.46-.565,1.124-1.387,1.477-1.825s1.029-1.205,1.519-1.726a5.441,5.441,0,0,0,1.352-2.334A1.2,1.2,0,0,0,236.6,550.763Zm-1.981,2.451c-.254.27-.558.607-.845.932a.632.632,0,0,0-.106.086c-.454.466-4.049.8-5.418.509a.6.6,0,1,0-.255,1.181,5.828,5.828,0,0,0,.81.1,17.863,17.863,0,0,0,3.551-.163c-.272.335-.558.687-.79.974l-.455.559c-.177.218-.381.479-.585.747-.014.016-.029.03-.041.047-.426.588-3.777.753-5.346.391a.6.6,0,0,0-.273,1.177,10.153,10.153,0,0,0,1.441.174,15.009,15.009,0,0,0,2.952-.086,8.859,8.859,0,0,1-1.131,1.073l-2.44,1.864a6.277,6.277,0,0,1-2.1.951l-8.57,1.713a.607.607,0,0,1-.239,0,.375.375,0,0,1,.018-.24c.007-.022.668-2.225,1.248-3.835a8.229,8.229,0,0,1,2.117-3.6,60.876,60.876,0,0,0,5.594-5.23,2.979,2.979,0,0,1,1.8-.788c.195,0,4.8-.057,7.093-.319a12.6,12.6,0,0,1,2.122-.1,1.814,1.814,0,0,1,.886.189.175.175,0,0,1,0,.04A4.331,4.331,0,0,1,234.618,553.214Z" transform="translate(-213.511 -550.051)" fill="#333"/>
          <path id="패스_4003" data-name="패스 4003" d="M214.782,566.608h0c-.036,0-.071,0-.106,0a1.324,1.324,0,0,1-1.03-.551,1.511,1.511,0,0,1-.154-1.319l0-.014c.117-.386.725-2.389,1.266-3.887a9.211,9.211,0,0,1,2.529-4.172,60.427,60.427,0,0,0,5.443-5.091,4.258,4.258,0,0,1,2.7-1.19c.2,0,4.79-.062,6.964-.311a13.837,13.837,0,0,1,2.344-.1,2.387,2.387,0,0,1,1.788.666,1.241,1.241,0,0,1,.262.982,5.506,5.506,0,0,1-1.364,2.36c-.493.525-1.173,1.3-1.516,1.723s-1.017,1.259-1.477,1.825l-.455.56c-.449.552-1.076,1.393-1.4,1.874a9.383,9.383,0,0,1-1.8,1.854l-2.44,1.864a7.436,7.436,0,0,1-2.617,1.184l-8.57,1.714A2.012,2.012,0,0,1,214.782,566.608Zm19.454-16.563a16.417,16.417,0,0,0-1.822.12c-2.142.245-6.482.305-6.97.312a4.147,4.147,0,0,0-2.633,1.152,60.5,60.5,0,0,1-5.461,5.109,9.129,9.129,0,0,0-2.5,4.128c-.54,1.5-1.148,3.5-1.265,3.883l0,.014a1.417,1.417,0,0,0,.142,1.236,1.229,1.229,0,0,0,.958.511l.1,0h0a1.889,1.889,0,0,0,.361-.037l8.57-1.713a7.326,7.326,0,0,0,2.577-1.166l2.44-1.864a9.269,9.269,0,0,0,1.775-1.831c.324-.483.954-1.327,1.4-1.881l.455-.559c.46-.565,1.124-1.386,1.477-1.824s1.026-1.2,1.52-1.729A5.414,5.414,0,0,0,236.7,551.6a1.148,1.148,0,0,0-.241-.908,2.3,2.3,0,0,0-1.719-.631C234.585,550.05,234.415,550.045,234.236,550.045ZM214.8,565.4a.657.657,0,0,1-.131-.013h-.027l-.008-.023a.4.4,0,0,1,.013-.279l.006-.02c.162-.537.731-2.4,1.243-3.818a8.267,8.267,0,0,1,2.133-3.626,61.462,61.462,0,0,0,5.589-5.225,3.035,3.035,0,0,1,1.832-.8c.817-.01,4.942-.073,7.089-.319a12.659,12.659,0,0,1,2.13-.1,2.493,2.493,0,0,1,.849.165l.079-.351,0,.423a.229.229,0,0,1,0,.048,4.355,4.355,0,0,1-1.047,1.689c-.235.25-.535.581-.844.932l-.009.008a.583.583,0,0,0-.1.08c-.353.363-2.417.634-4.026.634a7.278,7.278,0,0,1-1.436-.112.566.566,0,0,0-.118-.013.557.557,0,0,0-.116,1.1,5.9,5.9,0,0,0,.8.1c.281.018.59.026.921.026a17.561,17.561,0,0,0,2.62-.189l.124-.019-.2.242-.672.829-.455.559c-.183.225-.385.483-.583.746l-.014.016a.292.292,0,0,0-.026.03c-.3.413-1.891.6-3.243.6a10.214,10.214,0,0,1-2.153-.192.54.54,0,0,0-.128-.015.556.556,0,0,0-.123,1.1,10.216,10.216,0,0,0,1.433.173c.364.023.732.034,1.094.034a12.973,12.973,0,0,0,1.849-.12l.13-.019-.087.1a8.825,8.825,0,0,1-1.138,1.079l-2.44,1.864a6.35,6.35,0,0,1-2.12.96l-8.57,1.713A.676.676,0,0,1,214.8,565.4Zm-.087-.1a.546.546,0,0,0,.191,0l8.57-1.713a6.22,6.22,0,0,0,2.081-.942l2.44-1.865a8.554,8.554,0,0,0,1.037-.968,13.414,13.414,0,0,1-1.731.1c-.364,0-.734-.012-1.1-.035a10.279,10.279,0,0,1-1.448-.175.653.653,0,0,1,.145-1.289.679.679,0,0,1,.15.017,10.09,10.09,0,0,0,2.131.19c1.6,0,2.929-.236,3.165-.562a.369.369,0,0,1,.034-.04l.011-.011c.2-.259.4-.519.583-.745l.455-.559.671-.828.04-.049a17.917,17.917,0,0,1-2.512.172c-.332,0-.644-.009-.926-.027a5.886,5.886,0,0,1-.817-.1.653.653,0,1,1,.275-1.276,7.2,7.2,0,0,0,1.416.11c1.731,0,3.654-.294,3.957-.6a.682.682,0,0,1,.109-.089c.309-.35.607-.679.842-.929a4.29,4.29,0,0,0,1.022-1.638v-.006a2.125,2.125,0,0,0-.839-.169,12.618,12.618,0,0,0-2.113.1c-2.152.246-6.281.309-7.087.319a2.929,2.929,0,0,0-1.775.773,59.983,59.983,0,0,1-5.6,5.235,8.19,8.19,0,0,0-2.1,3.583c-.511,1.417-1.079,3.277-1.241,3.814l-.006.02A.483.483,0,0,0,214.715,565.293Z" transform="translate(-213.409 -549.949)" fill="#333"/>
        </g>
      </g>
    </g>
  </g>
</svg>
