<svg xmlns="http://www.w3.org/2000/svg" width="37.793" height="47.999" viewBox="0 0 37.793 47.999">
  <g id="ncs_12" transform="translate(-453.38 -758.375)">
    <path id="패스_4029" data-name="패스 4029" d="M509.607,864.135h-.214v10.258h4.4V864.135h-.213a17.042,17.042,0,0,1-3.973,0Z" transform="translate(-39.336 -74.271)" fill="#fff"/>
    <rect id="사각형_1858" data-name="사각형 1858" width="4.186" height="3.264" transform="translate(470.272 789.864)" fill="#aac9eb"/>
    <path id="패스_4030" data-name="패스 4030" d="M496.822,778.943h.311l.991-12.3h-.31l.286-3.211h.282l.246-3.055H471.905l.247,3.055h.3l.286,3.211h-.328l.989,12.3h.331l.23,3.211h-.3l.129,1.6c0,3.766,4.1,6.892,9.494,7.518h3.972c5.392-.626,9.493-3.752,9.493-7.518l.129-1.6h-.283Z" transform="translate(-13.009 -1.405)" fill="#fff"/>
    <path id="패스_4031" data-name="패스 4031" d="M535.591,760.375s1.059,28.45-5.836,29.844l2.363-.193s5.108-1.416,5.419-5.927c.469-6.818,1.727-23.724,1.727-23.724Z" transform="translate(-53.635 -1.405)" fill="#aac9eb"/>
    <path id="패스_4032" data-name="패스 4032" d="M560.28,770.637h-3l-.258,3.211h1.849a1.237,1.237,0,0,1,1.236,1.237l-1.236,9.828a1.237,1.237,0,0,1-1.237,1.236h-1.6l-.259,3.211H558.4a1.882,1.882,0,0,0,1.882-1.883l1.881-14.958A1.881,1.881,0,0,0,560.28,770.637Z" transform="translate(-71.904 -8.611)" fill="#aac9eb"/>
    <path id="패스_4033" data-name="패스 4033" d="M460.919,786.149a1.237,1.237,0,0,1-1.237-1.236l-1.236-9.828a1.237,1.237,0,0,1,1.236-1.237h1.831l-.258-3.211h-2.985a1.881,1.881,0,0,0-1.881,1.882l1.881,14.958a1.882,1.882,0,0,0,1.883,1.883h2.609l-.259-3.211Z" transform="translate(-2.112 -8.611)" fill="#fff"/>
    <path id="패스_4034" data-name="패스 4034" d="M485.256,898.586l-1.129,5.657h20.45l-1.129-5.657H485.256Z" transform="translate(-21.593 -98.464)" fill="#2cb2ad"/>
    <path id="패스_4035" data-name="패스 4035" d="M504.61,904.242H484.16l1.129-5.657h18.192Z" transform="translate(-21.616 -98.464)" fill="#50b4ff"/>
    <g id="그룹_2584" data-name="그룹 2584" transform="translate(458.26 758.375)">
      <path id="패스_4036" data-name="패스 4036" d="M483.777,790.576c-6.646,0-12.056-3.679-12.076-8.205l-1.932-24h28.014l-1.932,24C495.832,786.9,490.423,790.576,483.777,790.576Zm-12.717-31.01,1.832,22.78c0,3.881,4.883,7.039,10.885,7.039s10.884-3.158,10.884-7.039l0-.048,1.83-22.733Z" transform="translate(-469.77 -758.375)" fill="#221714"/>
    </g>
    <g id="그룹_2585" data-name="그룹 2585" transform="translate(469.471 789.269)">
      <path id="패스_4037" data-name="패스 4037" d="M513.016,873.583h-5.591V862.135h5.591Zm-4.4-1.191h3.209v-9.067h-3.209Z" transform="translate(-507.425 -862.135)" fill="#221714"/>
    </g>
    <g id="그룹_2586" data-name="그룹 2586" transform="translate(483.262 761.43)">
      <path id="패스_4038" data-name="패스 4038" d="M557.293,788.551h-3.552l.317-4.4h2.468a.642.642,0,0,0,.641-.641l0-.074,1.23-9.785a.642.642,0,0,0-.64-.611h-2.81l.392-4.4h3.83a2.48,2.48,0,0,1,2.477,2.478l0,.074-1.877,14.923A2.481,2.481,0,0,1,557.293,788.551Zm-2.272-1.191h2.272a1.288,1.288,0,0,0,1.287-1.287l0-.074,1.876-14.917a1.288,1.288,0,0,0-1.285-1.253h-2.74l-.18,2.02h1.508a1.834,1.834,0,0,1,1.831,1.833l0,.074-1.232,9.795a1.834,1.834,0,0,1-1.832,1.791h-1.36Z" transform="translate(-553.741 -768.637)" fill="#221714"/>
    </g>
    <g id="그룹_2587" data-name="그룹 2587" transform="translate(453.38 761.43)">
      <path id="패스_4039" data-name="패스 4039" d="M461.291,788.551h-3.552a2.481,2.481,0,0,1-2.478-2.438l-1.881-15a2.48,2.48,0,0,1,2.477-2.478h3.83l.392,4.4h-2.81a.642.642,0,0,0-.64.611l1.235,9.859a.642.642,0,0,0,.642.641h2.468Zm-6.72-17.47,1.881,14.992a1.288,1.288,0,0,0,1.287,1.287h2.272l-.145-2.02h-1.36a1.834,1.834,0,0,1-1.832-1.791l-1.237-9.869a1.834,1.834,0,0,1,1.832-1.833h1.508l-.18-2.02h-2.741A1.288,1.288,0,0,0,454.571,771.081Z" transform="translate(-453.38 -768.637)" fill="#221714"/>
    </g>
    <g id="그룹_2588" data-name="그룹 2588" transform="translate(461.949 799.526)">
      <path id="패스_4040" data-name="패스 4040" d="M503.211,903.433H482.755a.6.6,0,0,1-.584-.712l1.129-5.657a.6.6,0,0,1,.584-.479h18.192a.6.6,0,0,1,.584.479l1.113,5.575a.6.6,0,0,1-.562.794Zm-19.729-1.191h19l-.892-4.466H484.373Z" transform="translate(-482.16 -896.586)" fill="#221714"/>
    </g>
    <g id="그룹_2589" data-name="그룹 2589" transform="translate(458.26 758.375)">
      <path id="패스_4041" data-name="패스 4041" d="M483.777,790.576c-6.646,0-12.056-3.679-12.076-8.205l-1.932-24h28.014l-1.932,24C495.832,786.9,490.423,790.576,483.777,790.576Zm-12.717-31.01,1.832,22.78c0,3.881,4.883,7.039,10.885,7.039s10.884-3.158,10.884-7.039l0-.048,1.83-22.733Z" transform="translate(-469.77 -758.375)" fill="#221714"/>
    </g>
    <g id="그룹_2590" data-name="그룹 2590" transform="translate(461.949 799.526)">
      <path id="패스_4042" data-name="패스 4042" d="M503.211,903.433H482.755a.6.6,0,0,1-.584-.712l1.129-5.657a.6.6,0,0,1,.584-.479h18.192a.6.6,0,0,1,.584.479l1.113,5.575a.6.6,0,0,1-.562.794Zm-19.729-1.191h19l-.892-4.466H484.373Z" transform="translate(-482.16 -896.586)" fill="#221714"/>
    </g>
    <g id="그룹_2592" data-name="그룹 2592" transform="translate(464.763 765.741)">
      <path id="패스_4043" data-name="패스 4043" d="M501.022,785.115l1.749,5.384h5.662l-4.581,3.327,1.749,5.384-4.58-3.327-4.58,3.327,1.75-5.384-4.58-3.327h5.661Z" transform="translate(-493.016 -784.52)" fill="#50b4ff"/>
      <g id="그룹_2591" data-name="그룹 2591">
        <path id="패스_4044" data-name="패스 4044" d="M495.036,798.4a.6.6,0,0,1-.566-.779l1.616-4.972-4.23-3.073a.6.6,0,0,1,.35-1.077h5.229l1.615-4.972a.6.6,0,0,1,1.133,0L501.8,788.5h5.23a.6.6,0,0,1,.35,1.077l-4.231,3.073,1.616,4.972a.6.6,0,0,1-.916.666l-4.23-3.073-4.23,3.073A.6.6,0,0,1,495.036,798.4Zm4.58-4.518a.6.6,0,0,1,.35.114l3.1,2.25-1.183-3.641a.6.6,0,0,1,.216-.666l3.1-2.25h-3.829a.6.6,0,0,1-.566-.411l-1.183-3.641-1.183,3.641a.6.6,0,0,1-.566.411h-3.829l3.1,2.25a.6.6,0,0,1,.216.666l-1.184,3.641,3.1-2.25A.6.6,0,0,1,499.617,793.883Z" transform="translate(-491.611 -783.115)" fill="#221714"/>
      </g>
    </g>
  </g>
</svg>
