<svg xmlns="http://www.w3.org/2000/svg" width="207.907" height="84.87" viewBox="0 0 207.907 84.87">
  <g id="그룹_764" data-name="그룹 764" transform="translate(-22.935 -88.647)">
    <g id="그룹_629" data-name="그룹 629" transform="translate(16.969 88.647)">
      <path id="패스_1713" data-name="패스 1713" d="M148.5,110.367A36.533,36.533,0,1,0,77.887,91.621c-.37-.02-.74-.03-1.12-.03A22.715,22.715,0,0,0,57.71,101.924a17.7,17.7,0,1,0,4.542,29.961,22.755,22.755,0,0,0,30.361-1.19,36.524,36.524,0,0,0,39.834,1A13.784,13.784,0,1,0,148.5,110.367Z" transform="translate(-27.285 -64.051)" fill="#fff"/>
      <path id="패스_1714" data-name="패스 1714" d="M148.554,110.41A36.533,36.533,0,1,0,77.939,91.664c-.36-.01-.74-.02-1.11-.02a22.7,22.7,0,0,0-19.057,10.334,17.7,17.7,0,1,0,4.542,29.961,22.771,22.771,0,0,0,30.361-1.2,36.535,36.535,0,0,0,39.824,1.01,13.789,13.789,0,1,0,16.056-21.338Z" transform="translate(-26.817 -63.574)" fill="#9ddef2"/>
    </g>
    <g id="그룹_631" data-name="그룹 631" transform="translate(118.682 99.967)">
      <path id="패스_1737" data-name="패스 1737" d="M125.432,85.467c-.41,0-.8.01-1.19.04a15.671,15.671,0,0,0-20.517-9.353,15.159,15.159,0,0,0-28.34-.45,13.477,13.477,0,0,0-2.3-.2A13.333,13.333,0,0,0,59.818,87.428a15.369,15.369,0,0,0-2.981-.29,15.045,15.045,0,1,0,0,30.091l.39-.01a13.878,13.878,0,0,0,25.379,3.851,19.025,19.025,0,0,0,33.822-1.881,18.061,18.061,0,1,0,9-33.722Z" transform="translate(-31.949 -62.721)" fill="#fff"/>
      <path id="패스_1738" data-name="패스 1738" d="M125.484,85.529c-.4,0-.79.02-1.19.05a15.628,15.628,0,0,0-20.507-9.353,15.164,15.164,0,0,0-28.35-.46,12.355,12.355,0,0,0-2.291-.21A13.335,13.335,0,0,0,59.88,87.49,15.374,15.374,0,0,0,56.9,87.2a15.04,15.04,0,1,0,0,30.081c.13,0,.26,0,.39-.01a13.866,13.866,0,0,0,25.379,3.851,19.024,19.024,0,0,0,33.822-1.861,18.065,18.065,0,1,0,8.993-33.732Z" transform="translate(-31.391 -62.163)" fill="#a2def2"/>
    </g>
    <g id="그룹_633" data-name="그룹 633" transform="translate(74.173 77.486)">
      <path id="패스_1761" data-name="패스 1761" d="M151.261,85.142a19.322,19.322,0,0,0-2.421.14,22.664,22.664,0,0,0-33.922-11.654,17.522,17.522,0,0,0-33.652,2.681,14.494,14.494,0,0,0-23.018,9.874h-.1a20.862,20.862,0,1,0,10.114,39.094,15.02,15.02,0,0,0,28.38,4.292,25.55,25.55,0,0,0,45.416-6.432,20.113,20.113,0,1,0,9.2-37.994Z" transform="translate(-29.28 -45.291)" fill="#fff"/>
      <path id="패스_1762" data-name="패스 1762" d="M151.323,85.188a19.337,19.337,0,0,0-2.431.16A22.656,22.656,0,0,0,114.96,73.694a17.512,17.512,0,0,0-33.642,2.681,14.473,14.473,0,0,0-23.008,9.883l-.11-.01a20.862,20.862,0,1,0,10.124,39.094,15.017,15.017,0,0,0,28.37,4.292,25.556,25.556,0,0,0,45.426-6.442,19.887,19.887,0,0,0,9.2,2.231,20.117,20.117,0,1,0,0-40.234Z" transform="translate(-28.722 -44.787)" fill="#bee9f7"/>
    </g>
    <g id="그룹_635" data-name="그룹 635" transform="translate(41.244 118.798)">
      <path id="패스_1785" data-name="패스 1785" d="M103.093,85.916a13.914,13.914,0,0,0-4.972.66A23.625,23.625,0,0,0,52.675,83.3h-.01a16.413,16.413,0,1,0,10.414,28.31,23.613,23.613,0,0,0,28.54-3.681,13.65,13.65,0,1,0,11.474-22.008Z" transform="translate(-30.177 -65.419)" fill="#fff"/>
      <path id="패스_1786" data-name="패스 1786" d="M103.164,85.976a13.916,13.916,0,0,0-4.972.67,23.621,23.621,0,0,0-45.446-3.281h-.02a16.408,16.408,0,1,0,10.414,28.31,23.654,23.654,0,0,0,28.54-3.681,13.652,13.652,0,1,0,11.484-22.018Z" transform="translate(-29.628 -64.869)" fill="#c8eefa"/>
    </g>
  </g>
</svg>
