<svg xmlns="http://www.w3.org/2000/svg" width="37.753" height="36.771" viewBox="0 0 37.753 36.771">
  <g id="그룹_493" data-name="그룹 493" transform="translate(1 1)">
    <path id="패스_1597" data-name="패스 1597" d="M961.131,1572.555a5.055,5.055,0,1,1-5.055-5.055A5.056,5.056,0,0,1,961.131,1572.555Z" transform="translate(-951.02 -1542.839)" fill="#fff" stroke="#b1b1b1" stroke-linecap="round" stroke-linejoin="round" stroke-width="2"/>
    <path id="패스_1598" data-name="패스 1598" d="M1015.189,1569a5.056,5.056,0,1,1-3.693-.041" transform="translate(-995.414 -1543.974)" fill="#fff" stroke="#b1b1b1" stroke-linecap="round" stroke-linejoin="round" stroke-width="2"/>
    <path id="패스_1599" data-name="패스 1599" d="M1075.561,1572.555a5.055,5.055,0,1,1-5.055-5.055A5.056,5.056,0,0,1,1075.561,1572.555Z" transform="translate(-1039.807 -1542.839)" fill="#fff" stroke="#b1b1b1" stroke-linecap="round" stroke-linejoin="round" stroke-width="2"/>
    <line id="선_398" data-name="선 398" y2="11.26" transform="translate(17.877 10.935)" fill="#fff" stroke="#797979" stroke-linecap="round" stroke-linejoin="round" stroke-width="2"/>
    <path id="패스_1600" data-name="패스 1600" d="M973.58,1535.752v-5.992h25.643v5.992" transform="translate(-968.525 -1513.557)" fill="none" stroke="#797979" stroke-linecap="round" stroke-linejoin="round" stroke-width="2"/>
    <path id="패스_1601" data-name="패스 1601" d="M990.329,1457.452h-5.148a2.557,2.557,0,1,1-5.115,0h-5.148a2.558,2.558,0,0,1-5.115,0h-5.147a2.557,2.557,0,0,0-2.558,2.557v5.148a2.558,2.558,0,0,0,2.558,2.558H969.8a2.558,2.558,0,0,1,5.115,0h5.148a2.557,2.557,0,1,1,5.115,0h5.148a2.558,2.558,0,0,0,2.557-2.558v-5.148A2.557,2.557,0,0,0,990.329,1457.452Z" transform="translate(-959.616 -1457.452)" fill="#fff" stroke="#5887f9" stroke-linecap="round" stroke-linejoin="round" stroke-width="2"/>
  </g>
</svg>
