<svg id="ico_banner01" xmlns="http://www.w3.org/2000/svg" width="100" height="100" viewBox="0 0 100 100">
  <circle id="타원_9" data-name="타원 9" cx="50" cy="50" r="50" fill="#fff"/>
  <g id="team" transform="translate(28.276 29.533)">
    <path id="합치기_8" data-name="합치기 8" d="M2.213,35.41A2.212,2.212,0,0,1,0,33.2V22.132a8.852,8.852,0,1,1,17.7,0V33.2a2.212,2.212,0,0,1-2.214,2.211ZM3.318,5.534a5.533,5.533,0,1,1,5.534,5.532A5.536,5.536,0,0,1,3.318,5.534Z" transform="translate(0 0)" fill="#00c8f5" opacity="0.5"/>
    <path id="합치기_9" data-name="합치기 9" d="M2.213,35.41A2.212,2.212,0,0,1,0,33.2V22.132a8.852,8.852,0,1,1,17.7,0V33.2a2.212,2.212,0,0,1-2.214,2.211ZM3.32,5.534a5.532,5.532,0,1,1,5.532,5.532A5.535,5.535,0,0,1,3.32,5.534Z" transform="translate(26.557 0)" fill="#09abed" opacity="0.5"/>
    <path id="합치기_2" data-name="합치기 2" d="M2.214,35.41A2.212,2.212,0,0,1,0,33.2V22.131a8.852,8.852,0,0,1,8.852-8.852h3.874a8.852,8.852,0,0,1,8.852,8.852V33.2a2.212,2.212,0,0,1-2.214,2.214ZM5.267,5.531A5.532,5.532,0,1,1,10.8,11.064,5.532,5.532,0,0,1,5.267,5.531Z" transform="translate(11.331 6.641)" fill="#00c8f5"/>
  </g>
</svg>
