<svg xmlns="http://www.w3.org/2000/svg" width="20" height="20" viewBox="0 0 20 20">
  <g id="ico_time_blue_20" transform="translate(0 -0.359)">
    <path id="패스_5141" data-name="패스 5141" d="M0,0H20V20H0Z" transform="translate(0 0.359)" fill="none"/>
    <g id="그룹_968" data-name="그룹 968" transform="translate(1 1.36)">
      <path id="패스_5142" data-name="패스 5142" d="M12.594,21.938a8.344,8.344,0,1,1,8.344-8.344A8.289,8.289,0,0,1,12.594,21.938ZM5.75,13.594a6.844,6.844,0,1,0,2-4.839A6.8,6.8,0,0,0,5.75,13.594Z" transform="translate(-4.186 -3.83)" fill="#00c8f5"/>
      <path id="패스_5143" data-name="패스 5143" d="M14.17,14H12a.75.75,0,0,1-.75-.75V10a.75.75,0,0,1,1.5,0v2.5h1.42a.75.75,0,0,1,0,1.5Z" transform="translate(-3.593 -3.491)" fill="#00c8f5"/>
      <path id="패스_5144" data-name="패스 5144" d="M4.251,6.92a.75.75,0,0,1-.442-1.357l2.983-2.17a.75.75,0,0,1,.882,1.213L4.691,6.777A.747.747,0,0,1,4.251,6.92Z" transform="translate(-4.25 -4)" fill="#00c8f5"/>
      <path id="패스_5145" data-name="패스 5145" d="M19.982,6.92a.747.747,0,0,1-.441-.144l-2.983-2.17a.75.75,0,1,1,.882-1.213l2.983,2.17a.75.75,0,0,1-.442,1.357Z" transform="translate(-3.169 -4)" fill="#00c8f5"/>
    </g>
  </g>
</svg>
