<svg xmlns="http://www.w3.org/2000/svg" width="100" height="100" viewBox="0 0 100 100">
  <g id="ico_banner02" transform="translate(0 0.399)">
    <circle id="타원_9" data-name="타원 9" cx="50" cy="50" r="50" transform="translate(0 -0.399)" fill="#fff"/>
    <g id="calculator" transform="translate(33.008 28.648)">
      <path id="패스_5037" data-name="패스 5037" d="M33.48,2H8.211A4.228,4.228,0,0,0,4,6.245V40.206a4.228,4.228,0,0,0,4.211,4.245H33.48a4.228,4.228,0,0,0,4.211-4.245V6.245A4.228,4.228,0,0,0,33.48,2Z" transform="translate(-4 -2)" fill="#4b50f0"/>
      <path id="패스_5038" data-name="패스 5038" d="M27.115,5H8.059A1.051,1.051,0,0,0,7,6.043v4.173a1.051,1.051,0,0,0,1.059,1.043H27.115a1.051,1.051,0,0,0,1.059-1.043V6.043A1.051,1.051,0,0,0,27.115,5Z" transform="translate(-0.741 1.387)" fill="#e4e8ff"/>
      <path id="패스_5039" data-name="패스 5039" d="M11.423,9.75H8.293A1.043,1.043,0,0,0,7.25,10.793v3.13a1.043,1.043,0,0,0,1.043,1.043h3.13a1.043,1.043,0,0,0,1.043-1.043v-3.13A1.043,1.043,0,0,0,11.423,9.75Z" transform="translate(-0.395 6.74)" fill="#fff"/>
      <path id="패스_5040" data-name="패스 5040" d="M14.923,9.75h-3.13a1.043,1.043,0,0,0-1.043,1.043v3.13a1.043,1.043,0,0,0,1.043,1.043h3.13a1.043,1.043,0,0,0,1.043-1.043v-3.13A1.043,1.043,0,0,0,14.923,9.75Z" transform="translate(3.488 6.74)" fill="#fff"/>
      <path id="패스_5041" data-name="패스 5041" d="M18.433,9.75H15.3a1.043,1.043,0,0,0-1.043,1.043v3.13A1.043,1.043,0,0,0,15.3,14.966h3.13a1.043,1.043,0,0,0,1.043-1.043v-3.13A1.043,1.043,0,0,0,18.433,9.75Z" transform="translate(7.381 6.74)" fill="#fff" opacity="0.5"/>
      <path id="패스_5042" data-name="패스 5042" d="M11.423,13.25H8.293A1.043,1.043,0,0,0,7.25,14.293v3.13a1.043,1.043,0,0,0,1.043,1.043h3.13a1.043,1.043,0,0,0,1.043-1.043v-3.13A1.043,1.043,0,0,0,11.423,13.25Z" transform="translate(-0.395 10.687)" fill="#fff"/>
      <path id="패스_5043" data-name="패스 5043" d="M14.923,13.25h-3.13a1.043,1.043,0,0,0-1.043,1.043v3.13a1.043,1.043,0,0,0,1.043,1.043h3.13a1.043,1.043,0,0,0,1.043-1.043v-3.13A1.043,1.043,0,0,0,14.923,13.25Z" transform="translate(3.488 10.687)" fill="#fff"/>
      <path id="패스_5044" data-name="패스 5044" d="M18.433,13.25H15.3a1.043,1.043,0,0,0-1.043,1.043v3.13A1.043,1.043,0,0,0,15.3,18.466h3.13a1.043,1.043,0,0,0,1.043-1.043v-3.13A1.043,1.043,0,0,0,18.433,13.25Z" transform="translate(7.381 10.687)" fill="#fff" opacity="0.5"/>
      <path id="패스_5045" data-name="패스 5045" d="M11.423,16.75H8.293A1.043,1.043,0,0,0,7.25,17.793v3.13a1.043,1.043,0,0,0,1.043,1.043h3.13a1.043,1.043,0,0,0,1.043-1.043v-3.13A1.043,1.043,0,0,0,11.423,16.75Z" transform="translate(-0.395 14.748)" fill="#fff"/>
      <path id="패스_5046" data-name="패스 5046" d="M14.923,16.75h-3.13a1.043,1.043,0,0,0-1.043,1.043v3.13a1.043,1.043,0,0,0,1.043,1.043h3.13a1.043,1.043,0,0,0,1.043-1.043v-3.13A1.043,1.043,0,0,0,14.923,16.75Z" transform="translate(3.488 14.748)" fill="#fff"/>
      <path id="패스_5047" data-name="패스 5047" d="M18.433,16.75H15.3a1.043,1.043,0,0,0-1.043,1.043v3.13A1.043,1.043,0,0,0,15.3,21.966h3.13a1.043,1.043,0,0,0,1.043-1.043v-3.13A1.043,1.043,0,0,0,18.433,16.75Z" transform="translate(7.381 14.748)" fill="#fff" opacity="0.5"/>
    </g>
  </g>
</svg>
