<svg xmlns="http://www.w3.org/2000/svg" xmlns:xlink="http://www.w3.org/1999/xlink" width="116" height="116" viewBox="0 0 116 116">
  <defs>
    <linearGradient id="linear-gradient" x1="0.008" y1="0.017" x2="1" y2="1" gradientUnits="objectBoundingBox">
      <stop offset="0" stop-color="#15b4f5"/>
      <stop offset="0.435" stop-color="#5a5ffa"/>
      <stop offset="1" stop-color="#140f5a"/>
    </linearGradient>
  </defs>
  <g id="ico_pro02" transform="translate(0)">
    <g id="타원_7" data-name="타원 7" transform="translate(0)" fill="none" stroke="#ddd" stroke-width="1">
      <circle cx="58" cy="58" r="58" stroke="none"/>
      <circle cx="58" cy="58" r="57.5" fill="none"/>
    </g>
    <g id="그룹_987" data-name="그룹 987" transform="translate(36 26)">
      <rect id="사각형_936" data-name="사각형 936" width="45" height="45" transform="translate(0)" fill="none"/>
      <g id="그룹_971" data-name="그룹 971" transform="translate(3 5)">
        <g id="그룹_942" data-name="그룹 942" transform="translate(0)">
          <path id="합치기_6" data-name="합치기 6" d="M5.173,35.367a.854.854,0,0,1,0-1.211l1.734-1.737a4.991,4.991,0,0,1,3.318-1.46l13.247-.578,14.137-8.6c.019-.009.035-.021.055-.03a1.2,1.2,0,1,0-1.094-2.136s0,0-.007,0l-9.715,4.863a3.408,3.408,0,0,1-3.357,2.851H15.8a.857.857,0,0,1,0-1.714h7.7a1.689,1.689,0,0,0,.011-3.377l-8.338.238c-.055,0-.112,0-.169,0a7.314,7.314,0,0,1-2.97-.681,4.357,4.357,0,0,0-1.782-.375A4.753,4.753,0,0,0,6.711,23.2c-1.233,1.41-5.121,4.862-5.285,5.009a.856.856,0,1,1-1.137-1.28C.327,26.9,4.257,23.4,5.422,22.075a6.437,6.437,0,0,1,4.821-2.358,6.067,6.067,0,0,1,2.48.523,5.535,5.535,0,0,0,2.394.53l8.35-.238h.025A3.409,3.409,0,0,1,26.65,22.67l9.143-4.578a2.911,2.911,0,0,1,4.094,3.489,2.879,2.879,0,0,1-1.414,1.682l-14.3,8.7a.89.89,0,0,1-.407.123L10.3,32.67a3.282,3.282,0,0,0-2.182.962L6.384,35.367a.855.855,0,0,1-1.211,0ZM15.588,16.632a9.742,9.742,0,0,1,0-13.778A9.744,9.744,0,0,1,32.22,9.743a9.743,9.743,0,0,1-16.633,6.889ZM16.8,4.065a8.032,8.032,0,1,0,5.678-2.351A7.976,7.976,0,0,0,16.8,4.065Zm4.518,10.518a.782.782,0,0,1-.581-.26l-3.021-3.341a.855.855,0,0,1,.037-1.174.775.775,0,0,1,1.126.037l2.379,2.632L26.22,5.811a.776.776,0,0,1,1.119-.149.854.854,0,0,1,.141,1.165L21.947,14.26a.786.786,0,0,1-.592.322Z" transform="translate(0 0)" fill="url(#linear-gradient)"/>
        </g>
      </g>
    </g>
  </g>
</svg>
