<svg xmlns="http://www.w3.org/2000/svg" width="100" height="100" viewBox="0 0 100 100">
  <g id="ico_banner03" transform="translate(0 -0.439)">
    <circle id="타원_10" data-name="타원 10" cx="50" cy="50" r="50" transform="translate(0 0.439)" fill="#fff"/>
    <g id="그룹_912" data-name="그룹 912" transform="translate(22.651 32.718)">
      <path id="패스_5082" data-name="패스 5082" d="M915.159,455.622V445.606l-1.529.518v9.5Z" transform="translate(-860.831 -436.177)" fill="#0f005f" opacity="0.5"/>
      <path id="합치기_3" data-name="합치기 3" d="M9.961,29.769,10,29.574H9.981V15.362l17.1,5.747a1.519,1.519,0,0,0,.973,0l17.1-5.747V29.574h-.061l.042.195c0,1.691-7.865,5.466-17.575,5.466S9.961,31.46,9.961,29.769Zm.019-17.215L0,9.2,27.566,0,55.132,9.2l-.8.271L52.8,9.983l-7.65,2.572L27.566,18.464Z" fill="#0f005f"/>
      <path id="패스_5085" data-name="패스 5085" d="M899.032,602.307v5.848a1.807,1.807,0,0,0,3.613,0v-5.848a1.8,1.8,0,0,0-.52-1.267h-2.572A1.8,1.8,0,0,0,899.032,602.307Z" transform="translate(-847.276 -580.673)" fill="#0f005f" opacity="0.5"/>
      <path id="패스_5086" data-name="패스 5086" d="M903.1,585.916V587h3.032v-1.08H903.1Z" transform="translate(-851.053 -566.548)" fill="#0f005f" opacity="0.5"/>
    </g>
  </g>
</svg>
