<svg xmlns="http://www.w3.org/2000/svg" xmlns:xlink="http://www.w3.org/1999/xlink" width="116" height="116" viewBox="0 0 116 116">
  <defs>
    <linearGradient id="linear-gradient" x1="0.008" y1="0.017" x2="0.938" gradientUnits="objectBoundingBox">
      <stop offset="0" stop-color="#15b4f5"/>
      <stop offset="0.435" stop-color="#5a5ffa"/>
      <stop offset="0.704" stop-color="#3939ae" stop-opacity="0.522"/>
      <stop offset="1" stop-color="#140f5a" stop-opacity="0"/>
    </linearGradient>
    <linearGradient id="linear-gradient-4" x1="0.008" y1="0.017" x2="1" y2="1" gradientUnits="objectBoundingBox">
      <stop offset="0" stop-color="#15b4f5"/>
      <stop offset="0.435" stop-color="#5a5ffa"/>
      <stop offset="1" stop-color="#140f5a"/>
    </linearGradient>
  </defs>
  <g id="ico_pro03" transform="translate(0 0)">
    <g id="타원_7" data-name="타원 7" transform="translate(0 0)" fill="none" stroke="#ddd" stroke-width="1">
      <circle cx="58" cy="58" r="58" stroke="none"/>
      <circle cx="58" cy="58" r="57.5" fill="none"/>
    </g>
    <g id="그룹_988" data-name="그룹 988" transform="translate(36 26)">
      <rect id="사각형_937" data-name="사각형 937" width="45" height="45" fill="none"/>
      <g id="그룹_962" data-name="그룹 962" transform="translate(9 5)">
        <path id="선_17" data-name="선 17" d="M6.736.508H-.346A.854.854,0,0,1-1.2-.346.854.854,0,0,1-.346-1.2H6.736a.854.854,0,0,1,.854.854A.854.854,0,0,1,6.736.508Z" transform="translate(7.427 26.596)" fill="url(#linear-gradient)"/>
        <path id="선_18" data-name="선 18" d="M10.671.508H-.346A.854.854,0,0,1-1.2-.346.854.854,0,0,1-.346-1.2H10.671a.854.854,0,0,1,.854.854A.854.854,0,0,1,10.671.508Z" transform="translate(7.427 21.466)" fill="url(#linear-gradient)"/>
        <path id="선_19" data-name="선 19" d="M10.671.508H-.346A.854.854,0,0,1-1.2-.346.854.854,0,0,1-.346-1.2H10.671a.854.854,0,0,1,.854.854A.854.854,0,0,1,10.671.508Z" transform="translate(7.427 16.337)" fill="url(#linear-gradient)"/>
        <path id="합치기_7" data-name="합치기 7" d="M.855,35.367A.855.855,0,0,1,0,34.513V4.476a.853.853,0,0,1,.855-.855h1.7v-1.2A2.472,2.472,0,0,1,3.21.661,2.155,2.155,0,0,1,6.918,2.14v.6a.853.853,0,1,1-1.706,0v-.6a.433.433,0,0,0-.433-.431c-.32,0-.518.27-.518.708v5.93a.983.983,0,1,0,1.967,0V4.476a.855.855,0,0,1,.855-.855H17.441a.863.863,0,0,1,.667.317l5.531,6.837a.8.8,0,0,1,.065.093l.006.01.013.023.009.016c0,.006.006.012.009.018l.008.018.008.017.009.019c0,.006,0,.011.007.017s0,.013.007.02a.169.169,0,0,1,.006.016c0,.007,0,.014.007.021a.076.076,0,0,0,0,.011c0,.014.007.028.011.043s0,.013,0,.02a.1.1,0,0,0,0,.019c0,.007,0,.014,0,.02a.1.1,0,0,1,0,.019c0,.007,0,.015,0,.022l0,.017,0,.025s0,.01,0,.015,0,.027,0,.04V30.748h2V2.309H9.17A.853.853,0,1,1,9.17.6H26.68a.853.853,0,0,1,.855.852V31.6a.853.853,0,0,1-.855.852H23.829v2.058a.856.856,0,0,1-.854.855Zm.855-1.709H22.12V12.167H17.1a.854.854,0,0,1-.852-.855V8.107a.854.854,0,1,1,1.707,0v2.351h3.23L17.035,5.331h-9.1V8.348a2.693,2.693,0,0,1-5.385,0V5.331H1.71Z" fill="url(#linear-gradient-4)"/>
      </g>
    </g>
  </g>
</svg>
