<svg xmlns="http://www.w3.org/2000/svg" width="50" height="50" viewBox="0 0 50 50">
  <g id="ico_calendar_50" transform="translate(-1070 -581)">
    <g id="타원_94" data-name="타원 94" transform="translate(1070 581)" fill="none" stroke="#ddd" stroke-width="1">
      <circle cx="25" cy="25" r="25" stroke="none"/>
      <circle cx="25" cy="25" r="24.5" fill="none"/>
    </g>
    <g id="manager_1_" data-name="manager (1)" transform="translate(1079.205 589.895)">
      <rect id="사각형_1009" data-name="사각형 1009" width="32" height="32" transform="translate(-0.205 0.105)" fill="none"/>
      <g id="그룹_1022" data-name="그룹 1022" transform="translate(1.294 1.745)">
        <path id="패스_5200" data-name="패스 5200" d="M23.984,4.02H5.028A2.571,2.571,0,0,0,2.5,6.632V23.609a2.571,2.571,0,0,0,2.528,2.612H23.984a2.571,2.571,0,0,0,2.528-2.612V6.632A2.571,2.571,0,0,0,23.984,4.02Z" transform="translate(0 0.152)" fill="#5a5ffa"/>
        <path id="패스_5201" data-name="패스 5201" d="M8.615,3.02H7.546A.615.615,0,0,0,7,3.685V6.347a.615.615,0,0,0,.546.665h1.07a.615.615,0,0,0,.546-.665V3.685A.615.615,0,0,0,8.615,3.02Z" transform="translate(1.277 -0.658)" fill="#3c40c7" opacity="0.7"/>
        <path id="패스_5202" data-name="패스 5202" d="M8.923,9.5H7.286a.546.546,0,0,0-.546.546v1.637a.546.546,0,0,0,.546.546H8.923a.546.546,0,0,0,.546-.546V10.046A.546.546,0,0,0,8.923,9.5Z" transform="translate(1.229 2.264)" fill="#fff"/>
        <path id="패스_5203" data-name="패스 5203" d="M12.933,9.5H11.3a.546.546,0,0,0-.546.546v1.637a.546.546,0,0,0,.546.546h1.637a.546.546,0,0,0,.546-.546V10.046A.546.546,0,0,0,12.933,9.5Z" transform="translate(2.392 2.264)" fill="#fff"/>
        <path id="패스_5204" data-name="패스 5204" d="M16.943,9.5H15.306a.546.546,0,0,0-.546.546v1.637a.546.546,0,0,0,.546.546h1.637a.546.546,0,0,0,.546-.546V10.046A.546.546,0,0,0,16.943,9.5Z" transform="translate(3.554 2.264)" fill="#fff"/>
        <path id="패스_5205" data-name="패스 5205" d="M16.637,3.02H15.546A.615.615,0,0,0,15,3.685V6.347a.615.615,0,0,0,.546.665h1.091a.615.615,0,0,0,.546-.665V3.685A.615.615,0,0,0,16.637,3.02Z" transform="translate(3.551 -0.658)" fill="#3c40c7" opacity="0.7"/>
        <path id="패스_5206" data-name="패스 5206" d="M8.923,14H7.286a.546.546,0,0,0-.546.546v1.637a.546.546,0,0,0,.546.546H8.923a.546.546,0,0,0,.546-.546V14.546A.546.546,0,0,0,8.923,14Z" transform="translate(1.229 3.691)" fill="#fff"/>
        <path id="패스_5207" data-name="패스 5207" d="M12.933,14H11.3a.546.546,0,0,0-.546.546v1.637a.546.546,0,0,0,.546.546h1.637a.546.546,0,0,0,.546-.546V14.546A.546.546,0,0,0,12.933,14Z" transform="translate(2.392 3.691)" fill="#fff"/>
        <path id="패스_5208" data-name="패스 5208" d="M16.943,14H15.306a.546.546,0,0,0-.546.546v1.637a.546.546,0,0,0,.546.546h1.637a.546.546,0,0,0,.546-.546V14.546A.546.546,0,0,0,16.943,14Z" transform="translate(3.554 3.691)" fill="#fff"/>
      </g>
    </g>
  </g>
</svg>
