<svg xmlns="http://www.w3.org/2000/svg" xmlns:xlink="http://www.w3.org/1999/xlink" width="380.912" height="239.997" viewBox="0 0 380.912 239.997">
  <defs>
    <linearGradient id="linear-gradient" x1="-129.329" y1="38.065" x2="-130.056" y2="38.764" gradientUnits="objectBoundingBox">
      <stop offset="0" stop-color="#ffca36"/>
      <stop offset="1" stop-color="#ff9d00"/>
    </linearGradient>
    <linearGradient id="linear-gradient-2" x1="0.735" y1="0.247" x2="0.338" y2="0.857" gradientUnits="objectBoundingBox">
      <stop offset="0" stop-color="#115082"/>
      <stop offset="1" stop-color="#003f6f"/>
    </linearGradient>
    <linearGradient id="linear-gradient-3" x1="0.911" y1="0.199" x2="0.558" y2="0.734" xlink:href="#linear-gradient-2"/>
    <linearGradient id="linear-gradient-4" x1="0.884" y1="0.286" x2="0.527" y2="0.685" xlink:href="#linear-gradient-2"/>
    <linearGradient id="linear-gradient-5" x1="0.625" y1="0.502" x2="0.219" y2="1.042" gradientUnits="objectBoundingBox">
      <stop offset="0" stop-color="#1062a1"/>
      <stop offset="1" stop-color="#0a4d80"/>
    </linearGradient>
    <linearGradient id="linear-gradient-6" x1="0.833" y1="0.178" x2="0.439" y2="0.776" xlink:href="#linear-gradient-5"/>
    <linearGradient id="linear-gradient-7" x1="-93.643" y1="26.545" x2="-94.37" y2="27.244" xlink:href="#linear-gradient"/>
    <linearGradient id="linear-gradient-8" x1="-15.881" y1="-2.985" x2="-16.588" y2="-2.278" gradientUnits="objectBoundingBox">
      <stop offset="0" stop-color="#ffd45c"/>
      <stop offset="1" stop-color="#ff9d00"/>
    </linearGradient>
    <linearGradient id="linear-gradient-9" x1="0.771" y1="0.125" x2="0.436" y2="0.612" gradientUnits="objectBoundingBox">
      <stop offset="0" stop-color="#227abc"/>
      <stop offset="1" stop-color="#1469ab"/>
    </linearGradient>
    <linearGradient id="linear-gradient-10" x1="320.378" y1="-39.482" x2="319.647" y2="-38.783" xlink:href="#linear-gradient-8"/>
    <linearGradient id="linear-gradient-11" x1="0.763" y1="0.36" x2="0.476" y2="0.681" xlink:href="#linear-gradient-9"/>
    <linearGradient id="linear-gradient-12" x1="319.564" y1="-34.399" x2="318.852" y2="-33.695" xlink:href="#linear-gradient-8"/>
    <linearGradient id="linear-gradient-13" x1="495.566" y1="-63.91" x2="494.865" y2="-63.192" xlink:href="#linear-gradient-8"/>
    <linearGradient id="linear-gradient-14" x1="490.319" y1="-83.516" x2="489.619" y2="-82.796" xlink:href="#linear-gradient-8"/>
    <linearGradient id="linear-gradient-15" x1="386.994" y1="-70.21" x2="386.294" y2="-69.487" xlink:href="#linear-gradient-8"/>
    <linearGradient id="linear-gradient-16" x1="-75.099" y1="3.947" x2="-75.809" y2="4.652" xlink:href="#linear-gradient-8"/>
  </defs>
  <g id="그룹_810" data-name="그룹 810" transform="translate(-117.463 18.721)">
    <g id="그룹_768" data-name="그룹 768" transform="translate(281.942 73.845)">
      <g id="그룹_767" data-name="그룹 767" transform="translate(0)" style="mix-blend-mode: multiply;isolation: isolate">
        <path id="패스_2981" data-name="패스 2981" d="M226.6,29.2c.954-1.375,3.851-3.079,5.61-3.89a12.185,12.185,0,0,1,10.646.362c2.572,1.432,3.263,4.36,2.335,10.82-1.128,7.845-1.079,15.546-8.418,14.353-2.168-.353-6.814-4.623-8.469-4.977-1.424-.3-3.242-2.417-4.562-4.154-1.42-1.876-.468-3.737-.288-5.937C223.626,33.661,225.71,30.478,226.6,29.2Z" transform="translate(-222.972 -24.25)" fill="#fff" opacity="0"/>
        <path id="패스_2982" data-name="패스 2982" d="M226.456,29.2c.924-1.336,3.819-2.93,5.537-3.747a11.674,11.674,0,0,1,10.328.261c2.478,1.371,3.222,4.354,2.337,10.681-1.077,7.627-1.093,15.074-8.121,14-2.129-.325-6.709-4.64-8.307-4.959-1.385-.278-3.259-2.258-4.519-3.953-1.348-1.81-.38-3.645-.206-5.817C223.674,33.566,225.594,30.439,226.456,29.2Z" transform="translate(-222.474 -24.141)" fill="#f9fbfb" opacity="0.024"/>
        <path id="패스_2983" data-name="패스 2983" d="M226.312,29.2c.9-1.295,3.788-2.779,5.465-3.6a11.187,11.187,0,0,1,10.013.157c2.382,1.314,3.181,4.35,2.335,10.542C243.1,43.7,243.02,50.9,236.3,49.941c-2.09-.3-6.6-4.656-8.144-4.946-1.344-.251-3.271-2.1-4.474-3.749-1.273-1.743-.29-3.551-.123-5.7C223.723,33.47,225.48,30.4,226.312,29.2Z" transform="translate(-221.976 -24.031)" fill="#f3f6f7" opacity="0.048"/>
        <path id="패스_2984" data-name="패스 2984" d="M226.168,29.2c.866-1.254,3.759-2.631,5.394-3.461a10.707,10.707,0,0,1,9.7.055c2.286,1.256,3.138,4.346,2.335,10.4-.975,7.2-1.12,14.142-7.525,13.3-2.051-.27-6.493-4.673-7.982-4.93-1.3-.223-3.287-1.943-4.431-3.545-1.2-1.681-.2-3.461-.041-5.582A16.2,16.2,0,0,1,226.168,29.2Z" transform="translate(-221.48 -23.922)" fill="#eef2f4" opacity="0.071"/>
        <path id="패스_2985" data-name="패스 2985" d="M226.028,29.2c.836-1.21,3.727-2.48,5.322-3.314a10.225,10.225,0,0,1,9.38-.051c2.19,1.2,3.1,4.342,2.337,10.262-.925,6.979-1.138,13.683-7.23,12.947-2.012-.243-6.383-4.689-7.819-4.914-1.261-.2-3.3-1.786-4.387-3.343-1.126-1.614-.11-3.369.043-5.465A15.819,15.819,0,0,1,226.028,29.2Z" transform="translate(-220.985 -23.814)" fill="#e8edf0" opacity="0.095"/>
        <path id="패스_2986" data-name="패스 2986" d="M225.886,29.2c.805-1.169,3.7-2.333,5.249-3.171a9.76,9.76,0,0,1,9.065-.153c2.094,1.138,3.067,4.339,2.335,10.123-.858,6.763-1.154,13.223-6.93,12.594-1.974-.215-6.278-4.7-7.657-4.9a8.148,8.148,0,0,1-4.344-3.14c-1.054-1.551-.02-3.279.125-5.347A15.4,15.4,0,0,1,225.886,29.2Z" transform="translate(-220.489 -23.705)" fill="#e2e9ec" opacity="0.119"/>
        <path id="패스_2987" data-name="패스 2987" d="M225.748,29.2c.776-1.13,3.665-2.184,5.177-3.028a9.282,9.282,0,0,1,8.748-.255c2,1.073,3.03,4.335,2.337,9.982-.805,6.548-1.173,12.771-6.634,12.242-1.937-.186-6.17-4.72-7.494-4.881a7.64,7.64,0,0,1-4.3-2.938c-.981-1.485.069-3.187.208-5.23A15.09,15.09,0,0,1,225.748,29.2Z" transform="translate(-219.996 -23.599)" fill="#dce4e8" opacity="0.143"/>
        <path id="패스_2988" data-name="패스 2988" d="M225.611,29.205c.746-1.089,3.631-2.037,5.1-2.883a8.841,8.841,0,0,1,8.432-.36c1.906,1.017,2.989,4.331,2.335,9.842-.75,6.332-1.193,12.324-6.334,11.891-1.9-.159-6.064-4.736-7.333-4.865a7.172,7.172,0,0,1-4.254-2.736c-.909-1.416.159-3.095.29-5.11A14.827,14.827,0,0,1,225.611,29.205Z" transform="translate(-219.505 -23.492)" fill="#d7e0e5" opacity="0.167"/>
        <path id="패스_2989" data-name="패스 2989" d="M225.474,29.208c.717-1.048,3.6-1.89,5.034-2.74a8.409,8.409,0,0,1,8.117-.462c1.81.956,2.948,4.327,2.335,9.7-.7,6.115-1.214,11.88-6.039,11.541-1.863-.131-5.956-4.752-7.169-4.85a6.737,6.737,0,0,1-4.211-2.533c-.836-1.352.249-3,.372-4.993A14.646,14.646,0,0,1,225.474,29.208Z" transform="translate(-219.015 -23.385)" fill="#d1dce1" opacity="0.19"/>
        <path id="패스_2990" data-name="패스 2990" d="M225.341,29.212c.688-1.007,3.569-1.743,4.959-2.6a8,8,0,0,1,7.8-.566c1.716.9,2.909,4.323,2.337,9.562-.646,5.9-1.248,10.8-5.741,11.19-1.826.159-5.849-4.767-7.008-4.834a6.332,6.332,0,0,1-4.166-2.331c-.766-1.283.337-2.911.454-4.875A14.577,14.577,0,0,1,225.341,29.212Z" transform="translate(-218.528 -23.28)" fill="#cbd7dd" opacity="0.214"/>
        <path id="패스_2991" data-name="패스 2991" d="M225.211,29.216c.658-.968,3.537-1.6,4.887-2.454,1.63-1.03,4.6-2.164,7.486-.668,1.62.838,2.868,4.319,2.335,9.423-.593,5.682-1.285,10.338-5.443,10.837-1.78.214-5.741-4.783-6.844-4.818-1.022-.035-3.387-.834-4.123-2.127-.7-1.218.427-2.821.537-4.758S224.608,30.1,225.211,29.216Z" transform="translate(-218.043 -23.174)" fill="#c5d3d9" opacity="0.238"/>
        <path id="패스_2992" data-name="패스 2992" d="M225.084,29.221c.627-.926,3.5-1.451,4.814-2.309,1.614-1.056,4.427-2.176,7.169-.772,1.524.778,2.828,4.313,2.337,9.282-.543,5.465-1.328,9.9-5.146,10.485-1.739.268-5.637-4.846-6.683-4.8-.981.041-3.4-.674-4.08-1.923-.623-1.148.519-2.728.621-4.64S224.51,30.068,225.084,29.221Z" transform="translate(-217.561 -23.07)" fill="#c0ced6" opacity="0.262"/>
        <path id="패스_2993" data-name="패스 2993" d="M224.958,29.227c.6-.885,3.471-1.306,4.742-2.166,1.6-1.079,4.258-2.184,6.853-.876,1.428.721,2.787,4.309,2.335,9.143-.49,5.249-1.369,9.478-4.848,10.134-1.694.321-5.531-4.86-6.519-4.787-.94.071-3.416-.513-4.037-1.722-.552-1.079.607-2.636.7-4.521S224.412,30.032,224.958,29.227Z" transform="translate(-217.081 -22.965)" fill="#bacad2" opacity="0.286"/>
        <path id="패스_2994" data-name="패스 2994" d="M224.834,29.233c.57-.844,3.439-1.162,4.671-2.023,1.581-1.1,4.09-2.194,6.538-.977,1.332.662,2.744,4.305,2.335,9-.439,5.034-1.414,9.077-4.55,9.784-1.651.372-5.424-4.824-6.358-4.771-.9.051-3.432-.351-3.992-1.518-.484-1.011.7-2.546.785-4.405C224.352,32.45,224.319,30,224.834,29.233Z" transform="translate(-216.604 -22.862)" fill="#b4c5ce" opacity="0.31"/>
        <path id="패스_2995" data-name="패스 2995" d="M224.714,29.238c.539-.8,3.406-1.017,4.6-1.878,1.563-1.128,3.921-2.2,6.221-1.081,1.238.6,2.7,4.3,2.337,8.863-.39,4.816-1.455,8.7-4.254,9.433-1.606.421-5.316-4.838-6.193-4.756s-3.449-.19-3.949-1.316c-.415-.94.785-2.454.868-4.286C224.424,32.361,224.226,29.967,224.714,29.238Z" transform="translate(-216.129 -22.76)" fill="#aec1ca" opacity="0.333"/>
        <path id="패스_2996" data-name="패스 2996" d="M224.6,29.246c.509-.762,3.373-.872,4.527-1.733,1.545-1.156,3.753-2.211,5.905-1.185,1.142.545,2.66,4.3,2.335,8.724-.337,4.6-1.494,8.34-3.955,9.081-1.561.468-5.21-4.85-6.033-4.74s-3.467-.025-3.9-1.113c-.349-.87.876-2.364.95-4.17C224.5,32.272,224.139,29.934,224.6,29.246Z" transform="translate(-215.659 -22.657)" fill="#a9bdc7" opacity="0.357"/>
        <path id="패스_2997" data-name="패스 2997" d="M224.485,29.255c.48-.721,3.338-.729,4.454-1.59,1.528-1.181,3.582-2.221,5.588-1.287,1.046.486,2.619,4.292,2.337,8.583-.288,4.384-1.528,8.009-3.659,8.728-1.516.513-5.1-4.86-5.868-4.722-.785.141-3.486.137-3.861-.911-.284-.8.966-2.27,1.032-4.051C224.577,32.185,224.054,29.9,224.485,29.255Z" transform="translate(-215.191 -22.557)" fill="#a3b8c3" opacity="0.381"/>
        <path id="패스_2998" data-name="패스 2998" d="M224.376,29.265c.449-.68,3.3-.584,4.382-1.447,1.51-1.209,3.414-2.229,5.273-1.391.95.429,2.574,4.288,2.335,8.444s-1.553,7.7-3.361,8.377c-1.473.552-4.995-4.871-5.706-4.707-.744.172-3.508.3-3.816-.709-.221-.723,1.054-2.178,1.115-3.933C224.66,32.1,223.974,29.874,224.376,29.265Z" transform="translate(-214.728 -22.457)" fill="#9db4bf" opacity="0.405"/>
        <path id="패스_2999" data-name="패스 2999" d="M224.269,29.275c.421-.639,3.271-.441,4.311-1.3,1.491-1.236,3.246-2.237,4.957-1.494.852.37,2.529,4.282,2.335,8.3-.192,3.951-1.469,7.788-3.063,8.027-1.53.229-4.889-4.881-5.543-4.691-.705.2-3.535.468-3.774-.505-.159-.65,1.146-2.088,1.2-3.816C224.745,32.014,223.9,29.843,224.269,29.275Z" transform="translate(-214.269 -22.358)" fill="#97afbb" opacity="0.429"/>
        <path id="패스_3000" data-name="패스 3000" d="M224.166,29.288c.39-.6,3.236-.3,4.239-1.16,1.471-1.263,3.075-2.243,4.64-1.6.758.313,2.486,4.28,2.337,8.164-.145,3.733-1.494,7.423-2.768,7.676-1.492.3-4.781-4.891-5.381-4.675-.664.237-3.565.635-3.729-.3-.1-.576,1.234-2,1.279-3.7C224.834,31.93,223.821,29.816,224.166,29.288Z" transform="translate(-213.811 -22.26)" fill="#92abb8" opacity="0.452"/>
        <path id="패스_3001" data-name="패스 3001" d="M224.066,29.3c.36-.558,3.2-.157,4.166-1.017,1.449-1.293,2.9-2.249,4.325-1.7.66.255,2.435,4.274,2.335,8.025-.1,3.516-1.51,7.065-2.468,7.324-1.449.388-4.673-4.9-5.218-4.662-.623.274-3.6.8-3.686-.1-.045-.505,1.324-1.906,1.361-3.581C224.924,31.847,223.751,29.791,224.066,29.3Z" transform="translate(-213.357 -22.164)" fill="#8ca6b4" opacity="0.476"/>
        <path id="패스_3002" data-name="패스 3002" d="M223.968,29.316c.331-.517,3.163-.014,4.094-.874,1.428-1.32,2.734-2.253,4.009-1.8.564.2,2.392,4.27,2.335,7.886-.049,3.3-1.516,6.716-2.172,6.971-1.379.537-4.564-4.907-5.055-4.644-.578.309-3.651.966-3.641.1.006-.435,1.414-1.814,1.444-3.463C225.018,31.767,223.68,29.765,223.968,29.316Z" transform="translate(-212.904 -22.07)" fill="#86a2b0" opacity="0.5"/>
      </g>
      <path id="패스_3003" data-name="패스 3003" d="M229.876,25.717l-3.414,3.34-4.685-.917c-.711-.139-1.026.274-.705.923l2.123,4.276-2.321,4.174c-.353.633-.059,1.06.66.954l4.724-.7,3.251,3.5c.492.531.991.382,1.111-.333l.8-4.707,4.327-2.012c.656-.306.668-.823.029-1.16l-4.233-2.213-.574-4.74C230.883,25.384,230.393,25.212,229.876,25.717Z" transform="translate(-209.236 -23.122)" fill="#ffe3ab"/>
      <path id="패스_3004" data-name="패스 3004" d="M230.051,25.8l-3.414,3.34-4.685-.919c-.709-.141-1.026.272-.7.923l2.123,4.276L221.049,37.6c-.353.631-.057,1.06.66.952l4.724-.7,3.251,3.5c.492.531.989.38,1.111-.331l.8-4.709,4.333-2.014c.656-.3.668-.823.023-1.158l-4.229-2.215-.576-4.74C231.058,25.469,230.568,25.295,230.051,25.8Z" transform="translate(-209.755 -23.041)" fill="url(#linear-gradient)"/>
    </g>
    <g id="그룹_771" data-name="그룹 771" transform="translate(305.208 82.67)">
      <g id="그룹_770" data-name="그룹 770" transform="translate(26.813 8.044)">
        <path id="패스_3037" data-name="패스 3037" d="M164.348,46.5a16.91,16.91,0,1,0,16.911-16.909A16.91,16.91,0,0,0,164.348,46.5Z" transform="translate(-112.552 -29.588)" fill="#4a9cda"/>
        <path id="패스_3038" data-name="패스 3038" d="M196.467,47.472A11.353,11.353,0,1,0,207.82,36.119,11.349,11.349,0,0,0,196.467,47.472Z" transform="translate(-196.467 -23.327)" fill="#4a9cda"/>
        <path id="패스_3039" data-name="패스 3039" d="M151.074,50.383A13.087,13.087,0,1,0,164.16,37.3,13.088,13.088,0,0,0,151.074,50.383Z" transform="translate(-65.632 -22.199)" fill="#4a9cda"/>
        <circle id="타원_84" data-name="타원 84" cx="15.467" cy="15.467" r="15.467" transform="translate(12.74 1.378)" fill="#4a9cda"/>
        <path id="패스_3040" data-name="패스 3040" d="M179.295,39.2a8.181,8.181,0,1,0,8.18-8.183A8.182,8.182,0,0,0,179.295,39.2Z" transform="translate(-139.318 -28.217)" fill="#4a9cda"/>
        <path id="패스_3041" data-name="패스 3041" d="M159.43,41.442a8.181,8.181,0,1,0,8.181-8.181A8.182,8.182,0,0,0,159.43,41.442Z" transform="translate(-80.541 -26.067)" fill="#4a9cda"/>
        <path id="패스_3042" data-name="패스 3042" d="M159.43,65h86.4V43.951L205.545,36.4,159.43,43.951Z" transform="translate(-150.579 -23.055)" fill="#4a9cda"/>
      </g>
      <path id="패스_3043" data-name="패스 3043" d="M151.274,53.933a11.344,11.344,0,0,1,13.235-11.194,15.47,15.47,0,0,1,27.436-5.265,8.181,8.181,0,0,1,14.5-.915,16.913,16.913,0,0,1,28.015,1.4,8.184,8.184,0,0,1,12.066,7.2c0,.045,0,.088,0,.133a13.22,13.22,0,0,1,3.281-.413,13.086,13.086,0,1,1-3.277,25.757v1.089h-86.4V65A11.355,11.355,0,0,1,151.274,53.933Z" transform="translate(-124.853 -21.352)" fill="url(#linear-gradient-2)"/>
    </g>
    <g id="그룹_774" data-name="그룹 774" transform="translate(170.04 48.615)">
      <g id="그룹_773" data-name="그룹 773" transform="translate(0.391 5.401)">
        <path id="패스_3076" data-name="패스 3076" d="M283.739,53.177a10.041,10.041,0,1,0,10.042-10.042A10.042,10.042,0,0,0,283.739,53.177Z" transform="translate(-273.459 -10.249)" fill="#4a9cda"/>
        <path id="패스_3077" data-name="패스 3077" d="M264.59,45.317a10.261,10.261,0,1,0,10.262-10.262A10.262,10.262,0,0,0,264.59,45.317Z" transform="translate(-217.242 -17.995)" fill="#4a9cda"/>
        <path id="패스_3078" data-name="패스 3078" d="M230.376,49.367a15.5,15.5,0,1,0,15.5-15.5A15.5,15.5,0,0,0,230.376,49.367Z" transform="translate(-126.496 -19.135)" fill="#4a9cda"/>
        <circle id="타원_85" data-name="타원 85" cx="14.472" cy="14.472" r="14.472" transform="translate(89.542 40.934) rotate(-135)" fill="#4a9cda"/>
        <path id="패스_3079" data-name="패스 3079" d="M257.731,43.571a9.693,9.693,0,1,0,9.692-9.694A9.691,9.691,0,0,0,257.731,43.571Z" transform="translate(-195.812 -19.124)" fill="#4a9cda"/>
        <circle id="타원_86" data-name="타원 86" cx="11.63" cy="11.63" r="11.63" transform="translate(95.288 4.063)" fill="#4a9cda"/>
        <path id="패스_3080" data-name="패스 3080" d="M271.362,53.4a15.153,15.153,0,1,0,15.151-15.153A15.151,15.151,0,0,0,271.362,53.4Z" transform="translate(-247.062 -14.933)" fill="#4a9cda"/>
        <path id="패스_3081" data-name="패스 3081" d="M235.641,71.212H360.213V46.281l-47.72-8.942L280.857,54.274Z" transform="translate(-235.641 -15.806)" fill="#4a9cda"/>
      </g>
      <path id="패스_3082" data-name="패스 3082" d="M230.576,79.961l13.54-5.071A10.042,10.042,0,0,1,255.54,58.58a15.153,15.153,0,0,1,22.527-8.4,10.256,10.256,0,0,1,16.106-6.634,9.7,9.7,0,0,1,12.267-3.255,14.468,14.468,0,0,1,21.881-7.19,11.625,11.625,0,0,1,20.76,6.211c.29-.018.582-.027.878-.027A15.5,15.5,0,0,1,355.147,69.4V79.961Z" transform="translate(-230.576 -18.763)" fill="url(#linear-gradient-3)"/>
    </g>
    <g id="그룹_777" data-name="그룹 777" transform="translate(223.568 42.107)">
      <g id="그룹_776" data-name="그룹 776" transform="translate(0.495 5.39)">
        <path id="패스_3115" data-name="패스 3115" d="M204.361,52.822a17.545,17.545,0,1,0,17.545-17.545A17.544,17.544,0,0,0,204.361,52.822Z" transform="translate(-105.755 -18.108)" fill="#4a9cda"/>
        <ellipse id="타원_87" data-name="타원 87" cx="19.958" cy="19.958" rx="19.958" ry="19.958" transform="translate(82.306 48.02) rotate(-103.283)" fill="#4a9cda"/>
        <circle id="타원_88" data-name="타원 88" cx="24.43" cy="24.43" r="24.43" transform="translate(51.301 14.753)" fill="#4a9cda"/>
        <path id="패스_3116" data-name="패스 3116" d="M225.141,67.187a26.508,26.508,0,1,0,26.507-26.509A26.51,26.51,0,0,0,225.141,67.187Z" transform="translate(-195.92 -10.134)" fill="#4a9cda"/>
        <path id="패스_3117" data-name="패스 3117" d="M184.908,72.563A24.089,24.089,0,1,0,209,48.471,24.087,24.087,0,0,0,184.908,72.563Z" transform="translate(-51.217 1.371)" fill="#4a9cda"/>
        <path id="패스_3118" data-name="패스 3118" d="M196.21,56.68A16.879,16.879,0,1,0,213.091,39.8,16.88,16.88,0,0,0,196.21,56.68Z" transform="translate(-76.087 -11.432)" fill="#4a9cda"/>
        <path id="패스_3119" data-name="패스 3119" d="M244.718,68.264A16.879,16.879,0,1,0,261.6,51.383,16.88,16.88,0,0,0,244.718,68.264Z" transform="translate(-244.718 5.67)" fill="#4a9cda"/>
        <path id="패스_3120" data-name="패스 3120" d="M199.241,99.029H320.048L306.733,46.174,237.482,39.8Z" transform="translate(-173.674 -11.432)" fill="#4a9cda"/>
      </g>
      <path id="패스_3121" data-name="패스 3121" d="M201.989,83.181a16.847,16.847,0,0,1,13.073,6.206,26.522,26.522,0,0,1,22.859-32.552,24.445,24.445,0,0,1,26.512-15.688A19.963,19.963,0,0,1,301.009,43.3c.084,0,.166,0,.248,0a17.552,17.552,0,0,1,16.564,11.75,16.888,16.888,0,0,1,20.4,21.378,24.089,24.089,0,1,1-15.17,37.3H211.89a16.878,16.878,0,1,1-9.9-30.546ZM218.831,101.1l1.07-1.654c-.419-.54-.817-1.095-1.191-1.662a16.911,16.911,0,0,1,.156,2.281C218.866,100.41,218.851,100.751,218.831,101.1Z" transform="translate(-185.108 -20.243)" fill="url(#linear-gradient-4)"/>
    </g>
    <g id="그룹_780" data-name="그룹 780" transform="translate(316.751 93.022)">
      <g id="그룹_779" data-name="그룹 779" transform="translate(16.006 9.128)">
        <path id="패스_3154" data-name="패스 3154" d="M166.29,71.595a12.431,12.431,0,1,1-12.428-12.43A12.431,12.431,0,0,1,166.29,71.595Z" transform="translate(-13.4 -15.116)" fill="#61baff"/>
        <path id="패스_3155" data-name="패스 3155" d="M191.747,63.985a12.7,12.7,0,1,1-12.7-12.7A12.7,12.7,0,0,1,191.747,63.985Z" transform="translate(-87.658 -22.672)" fill="#61baff"/>
        <path id="패스_3156" data-name="패스 3156" d="M238.272,69.43a19.191,19.191,0,1,1-19.193-19.193A19.19,19.19,0,0,1,238.272,69.43Z" transform="translate(-199.889 -23.675)" fill="#61baff"/>
        <path id="패스_3157" data-name="패스 3157" d="M217.154,54.6a17.917,17.917,0,1,1-17.916-17.92A17.915,17.915,0,0,1,217.154,54.6Z" transform="translate(-142.401 -36.676)" fill="#61baff"/>
        <path id="패스_3158" data-name="패스 3158" d="M198.3,57.156a12,12,0,1,1-12-12A12,12,0,0,1,198.3,57.156Z" transform="translate(-109.793 -28.545)" fill="#61baff"/>
        <ellipse id="타원_89" data-name="타원 89" cx="18.759" cy="18.759" rx="18.759" ry="18.759" transform="translate(48.922 48.246) rotate(-166.718)" fill="#61baff"/>
        <path id="패스_3159" data-name="패스 3159" d="M187.806,71.873a18.758,18.758,0,1,1-18.758-18.758A18.759,18.759,0,0,1,187.806,71.873Z" transform="translate(-52.272 -20.916)" fill="#61baff"/>
        <path id="패스_3160" data-name="패스 3160" d="M289.154,93.923H134.93V63.058l59.08-11.071,39.164,20.968Z" transform="translate(-123.536 -21.998)" fill="#61baff"/>
      </g>
      <path id="패스_3161" data-name="패스 3161" d="M135.13,82.63a19.2,19.2,0,0,1,16.249-18.968c-.02-.366-.031-.736-.031-1.107a18.769,18.769,0,0,1,25.569-17.483,17.918,17.918,0,0,1,32.93,8.548,12.008,12.008,0,0,1,13.791,11.866c0,.112-.006.223-.008.335a12.694,12.694,0,0,1,15.055,8.708,18.762,18.762,0,0,1,31.163,7.8,12.431,12.431,0,0,1,14.14,20.192l16.763,6.28H146.526V100.17A19.194,19.194,0,0,1,135.13,82.63Z" transform="translate(-119.517 -27.356)" fill="url(#linear-gradient-5)"/>
    </g>
    <g id="그룹_783" data-name="그룹 783" transform="translate(117.463 87.202)">
      <g id="그룹_782" data-name="그룹 782" transform="translate(0.393 7.823)">
        <path id="패스_3194" data-name="패스 3194" d="M233.67,52.611a16.623,16.623,0,1,0,16.623-16.622A16.623,16.623,0,0,0,233.67,52.611Z" transform="translate(-142.019 -35.989)" fill="#61baff"/>
        <path id="패스_3195" data-name="패스 3195" d="M278.076,56.616a12.4,12.4,0,1,0,12.4-12.4A12.4,12.4,0,0,0,278.076,56.616Z" transform="translate(-264.95 -28.099)" fill="#61baff"/>
        <path id="패스_3196" data-name="패스 3196" d="M214.918,66.073a18.729,18.729,0,1,0,18.729-18.729A18.727,18.727,0,0,0,214.918,66.073Z" transform="translate(-90.749 -25.103)" fill="#61baff"/>
        <circle id="타원_90" data-name="타원 90" cx="17.485" cy="17.485" r="17.485" transform="translate(73.796 59.079) rotate(-135)" fill="#61baff"/>
        <circle id="타원_91" data-name="타원 91" cx="11.71" cy="11.71" r="11.71" transform="translate(77.344 7.224)" fill="#61baff"/>
        <path id="패스_3197" data-name="패스 3197" d="M226.875,53.279A11.71,11.71,0,1,0,238.584,41.57,11.711,11.711,0,0,0,226.875,53.279Z" transform="translate(-112.088 -30.638)" fill="#61baff"/>
        <path id="패스_3198" data-name="패스 3198" d="M262.746,59.975A20.551,20.551,0,1,0,283.3,39.422,20.553,20.553,0,0,0,262.746,59.975Z" transform="translate(-235.901 -32.698)" fill="#61baff"/>
        <path id="패스_3199" data-name="패스 3199" d="M220.6,87.384H371.1V57.263l-57.655-10.8-66,10.8Z" transform="translate(-220.596 -25.951)" fill="#61baff"/>
      </g>
      <path id="패스_3200" data-name="패스 3200" d="M215.118,97.622l19.62-22.012A12.4,12.4,0,0,1,244.81,53.032a20.554,20.554,0,0,1,36.369,1.824,17.533,17.533,0,0,1,11.406-1.412,11.706,11.706,0,0,1,16.435-8.979,16.621,16.621,0,0,1,30.088,2.928A11.708,11.708,0,0,1,353.326,58.83c0,.067,0,.129-.006.194a18.734,18.734,0,0,1,12.307,35.253v3.345Z" transform="translate(-215.118 -27.974)" fill="url(#linear-gradient-6)"/>
    </g>
    <g id="그룹_785" data-name="그룹 785" transform="translate(368.932 122.503)">
      <path id="패스_3223" data-name="패스 3223" d="M191.745,49.421l-4.675,4.574-6.419-1.257c-.971-.188-1.4.376-.964,1.265l2.907,5.857-3.181,5.717c-.48.866-.076,1.451.907,1.306l6.47-.952,4.454,4.789c.674.727,1.357.525,1.52-.454l1.1-6.45,5.929-2.756c.9-.415.915-1.128.039-1.587l-5.8-3.034-.785-6.491C193.123,48.963,192.452,48.728,191.745,49.421Z" transform="translate(-163.473 -45.865)" fill="#ffe3ab"/>
      <path id="패스_3224" data-name="패스 3224" d="M191.984,49.537l-4.673,4.574-6.419-1.256c-.972-.192-1.406.374-.966,1.261l2.909,5.858-3.181,5.715c-.482.868-.078,1.453.9,1.308l6.47-.954,4.454,4.789c.674.727,1.353.525,1.52-.452l1.093-6.448,5.933-2.756c.9-.417.917-1.132.037-1.59l-5.8-3.032-.789-6.493C193.363,49.079,192.693,48.844,191.984,49.537Z" transform="translate(-164.185 -45.754)" fill="url(#linear-gradient-7)"/>
    </g>
    <g id="그룹_790" data-name="그룹 790" transform="translate(350.541 60.731)">
      <path id="패스_3269" data-name="패스 3269" d="M188.869,35.207A19.1,19.1,0,0,0,215.883,8.2c-2.922-2.924-6.91-4.348-10.7-4.981a22.468,22.468,0,0,1,16.882,6.3A22.742,22.742,0,0,1,189.9,41.681c-5-5.005-7.541-11.408-6.9-17.942A19.653,19.653,0,0,0,188.869,35.207Z" transform="translate(-172.465 -3.19)" fill="#ffe3ab"/>
      <g id="그룹_789" data-name="그룹 789" transform="translate(10.425 0.02)">
        <path id="패스_3270" data-name="패스 3270" d="M188.775,35.555A19.1,19.1,0,1,0,205.44,3.208a22.743,22.743,0,1,1-22.185,20.525A19.023,19.023,0,0,0,188.775,35.555Z" transform="translate(-183.148 -3.204)" fill="url(#linear-gradient-8)"/>
      </g>
    </g>
    <g id="그룹_793" data-name="그룹 793" transform="translate(132.484 101.895)">
      <path id="패스_3309" data-name="패스 3309" d="M210.713,88.152a16.652,16.652,0,0,1,12.636-16.159A14.151,14.151,0,1,1,246.322,55.5a22.709,22.709,0,0,1,24.035,8.513,12,12,0,0,1,21.268-1.344,24.807,24.807,0,0,1,41.088,2.059,12,12,0,0,1,17.693,10.565c0,.067,0,.131-.006.2a19.192,19.192,0,1,1,.006,37.168v1.594H223.691v-9.866A16.649,16.649,0,0,1,210.713,88.152Z" transform="translate(-210.713 -39)" fill="url(#linear-gradient-9)"/>
    </g>
    <g id="그룹_795" data-name="그룹 795" transform="translate(300.147 120.155)">
      <path id="패스_3332" data-name="패스 3332" d="M220.428,50.721l-3.255,3.3-4.566-.809c-.693-.123-.989.284-.668.9l2.133,4.119-2.178,4.09c-.333.621-.037,1.03.654.915l4.576-.756,3.218,3.338c.488.505.966.353,1.073-.341l.691-4.587,4.168-2.027c.633-.306.635-.811.008-1.124l-4.147-2.076-.638-4.6C221.4,50.378,220.921,50.222,220.428,50.721Z" transform="translate(-197.717 -45.463)" fill="#ffe3ab"/>
      <path id="패스_3333" data-name="패스 3333" d="M220.6,50.806l-3.253,3.3-4.566-.809c-.693-.123-.993.284-.67.9l2.135,4.115-2.182,4.1c-.331.619-.035,1.028.656.913l4.576-.756,3.218,3.338c.486.505.968.353,1.071-.341l.691-4.585,4.172-2.025c.633-.309.633-.815.006-1.128l-4.145-2.076-.64-4.593C221.57,50.465,221.094,50.306,220.6,50.806Z" transform="translate(-198.22 -45.381)" fill="url(#linear-gradient-10)"/>
    </g>
    <g id="그룹_798" data-name="그룹 798" transform="translate(312.398 134.996)">
      <g id="그룹_797" data-name="그룹 797" transform="translate(0.393 8.681)">
        <path id="패스_3366" data-name="패스 3366" d="M183.836,70.539A16.648,16.648,0,1,0,200.483,53.89,16.648,16.648,0,0,0,183.836,70.539Z" transform="translate(-108.217 -45.389)" fill="#8fcfff"/>
        <circle id="타원_94" data-name="타원 94" cx="16.649" cy="16.649" r="16.649" transform="translate(0 43.91)" fill="#8fcfff"/>
        <path id="패스_3367" data-name="패스 3367" d="M170.912,87.624a24,24,0,1,0,24-24A24,24,0,0,0,170.912,87.624Z" transform="translate(-84.681 -36.057)" fill="#8fcfff"/>
        <path id="패스_3368" data-name="패스 3368" d="M208.669,84.488A22.685,22.685,0,1,0,231.355,61.8,22.685,22.685,0,0,0,208.669,84.488Z" transform="translate(-193.764 -37.802)" fill="#8fcfff"/>
        <path id="패스_3369" data-name="패스 3369" d="M205.757,67.988a12,12,0,1,0,12-12A12,12,0,0,0,205.757,67.988Z" transform="translate(-163.779 -43.379)" fill="#8fcfff"/>
        <circle id="타원_95" data-name="타원 95" cx="11.999" cy="11.999" r="11.999" transform="translate(125.676 41.798)" fill="#8fcfff"/>
        <path id="패스_3370" data-name="패스 3370" d="M194.665,63.7A14.154,14.154,0,1,0,208.819,49.55,14.153,14.153,0,0,0,194.665,63.7Z" transform="translate(-135.268 -49.55)" fill="#8fcfff"/>
        <path id="패스_3371" data-name="패스 3371" d="M185.349,111.224H258V72.232L224.129,58.247l-38.78,13.984Z" transform="translate(-152.051 -41.212)" fill="#8fcfff"/>
      </g>
      <path id="패스_3372" data-name="패스 3372" d="M178.293,93.737a22.7,22.7,0,0,1,26.918-19.558,12,12,0,0,1,17.419-10.52,14.153,14.153,0,0,1,27.481-4.513A16.646,16.646,0,0,1,272.142,74.9a16.766,16.766,0,0,1-.182,2.466q.743-.047,1.5-.047a24,24,0,0,1,22.388,15.344,12,12,0,1,1-1.692,20.805,24,24,0,0,1-36.05,6.293h-61.58v-1.05c-.678-.129-1.348-.288-2-.478a16.65,16.65,0,1,1-16.228-24.5Z" transform="translate(-163.227 -40.677)" fill="url(#linear-gradient-11)"/>
    </g>
    <g id="그룹_809" data-name="그룹 809" transform="translate(156.111 71.149)">
      <g id="그룹_800" data-name="그룹 800" transform="translate(57.552 0.508)">
        <path id="패스_3395" data-name="패스 3395" d="M246.312-24.45l-1.173,4.313-4.219,1.481c-.642.221-.7.705-.133,1.077l3.739,2.448.106,4.47c.016.678.454.881.983.456L249.1-13l4.284,1.281c.648.194.979-.161.738-.793L252.534-16.7l2.544-3.676c.388-.556.151-.983-.527-.95l-4.464.219-2.713-3.559C246.966-25.2,246.49-25.1,246.312-24.45Z" transform="translate(-228.328 29.342)" fill="#ffe3ab"/>
        <path id="패스_3396" data-name="패스 3396" d="M246.414-24.3l-1.175,4.313-4.217,1.481c-.64.221-.7.709-.135,1.077l3.741,2.448.1,4.472c.016.676.458.881.983.458l3.486-2.8,4.284,1.281c.648.2.979-.161.738-.791l-1.587-4.182,2.546-3.676c.384-.558.147-.983-.529-.95l-4.466.217-2.711-3.555C247.069-25.046,246.591-24.954,246.414-24.3Z" transform="translate(-228.63 29.488)" fill="url(#linear-gradient-12)"/>
      </g>
      <g id="그룹_802" data-name="그룹 802" transform="translate(22.487 18.926)">
        <path id="패스_3419" data-name="패스 3419" d="M267-15.751l-1.453,2.468-2.858.2c-.435.031-.552.319-.266.642l1.9,2.147-.691,2.781c-.106.421.133.623.533.449L266.784-8.2l2.433,1.516c.368.231.633.067.59-.366l-.272-2.852,2.192-1.843c.335-.278.259-.582-.165-.676l-2.8-.621L267.689-15.7C267.525-16.1,267.215-16.127,267-15.751Z" transform="translate(-252.761 19.544)" fill="#ffe3ab"/>
        <path id="패스_3420" data-name="패스 3420" d="M267.083-15.676l-1.453,2.47-2.858.2c-.435.031-.55.321-.264.644l1.9,2.145-.691,2.783c-.106.421.135.621.531.449l2.629-1.144L269.3-6.611c.366.231.633.067.59-.366l-.274-2.854,2.2-1.839c.333-.282.257-.586-.167-.678l-2.8-.619-1.077-2.658C267.612-16.026,267.3-16.05,267.083-15.676Z" transform="translate(-253.022 19.618)" fill="url(#linear-gradient-13)"/>
      </g>
      <g id="그룹_804" data-name="그룹 804" transform="translate(203.733 86.494)">
        <path id="패스_3443" data-name="패스 3443" d="M174.669,18.611l-1.095,2.65-2.8.6c-.423.09-.5.392-.17.674l2.182,1.859-.294,2.85c-.045.431.219.6.588.368l2.443-1.5,2.619,1.158c.4.176.635-.024.535-.445L178,24.045l1.914-2.133c.292-.323.172-.613-.259-.646l-2.856-.219-1.438-2.482C175.145,18.19,174.833,18.21,174.669,18.611Z" transform="translate(-162.212 -15.127)" fill="#ffe3ab"/>
        <path id="패스_3444" data-name="패스 3444" d="M174.748,18.7l-1.093,2.648-2.8.6c-.425.088-.5.392-.172.672l2.184,1.859-.294,2.852c-.045.429.219.6.588.368l2.441-1.5,2.621,1.16c.4.178.635-.022.535-.445l-.674-2.785L179.993,22c.292-.325.172-.615-.259-.648l-2.856-.219-1.44-2.48C175.224,18.279,174.914,18.3,174.748,18.7Z" transform="translate(-162.441 -15.042)" fill="url(#linear-gradient-14)"/>
      </g>
      <g id="그룹_806" data-name="그룹 806" transform="translate(127.394 -19)">
        <path id="패스_3467" data-name="패스 3467" d="M199.139-24.423l-1.692,3.04-3.465.329c-.527.051-.66.4-.3.789l2.37,2.55-.758,3.4c-.114.513.18.752.658.529l3.159-1.463,2.995,1.769c.454.268.772.063.707-.462l-.417-3.457L205-19.7c.4-.349.3-.717-.219-.817l-3.416-.67-1.383-3.2C199.776-24.866,199.4-24.885,199.139-24.423Z" transform="translate(-183.253 30.091)" fill="#ffe3ab"/>
        <path id="패스_3468" data-name="패스 3468" d="M199.247-24.329l-1.692,3.042-3.467.329c-.527.047-.66.4-.3.787l2.368,2.55-.756,3.4c-.116.515.18.752.656.531l3.159-1.463,3,1.769c.452.27.77.061.707-.46L202.5-17.3l2.613-2.3c.4-.349.294-.715-.221-.817l-3.416-.67-1.385-3.193C199.879-24.77,199.5-24.789,199.247-24.329Z" transform="translate(-183.566 30.183)" fill="url(#linear-gradient-15)"/>
      </g>
      <g id="그룹_808" data-name="그룹 808" transform="translate(0 54.602)">
        <path id="패스_3491" data-name="패스 3491" d="M273,3.956l-1.543,5.467L266.08,11.25c-.815.276-.9.889-.18,1.369l4.722,3.157.074,5.68c.012.862.57,1.128,1.248.593l4.46-3.514,5.428,1.683c.819.255,1.248-.192.948-1l-1.963-5.332,3.277-4.638c.5-.7.2-1.246-.656-1.212l-5.68.219-3.4-4.55C273.842,3.014,273.237,3.129,273,3.956Z" transform="translate(-248.843 2.343)" fill="#ffe3ab"/>
        <path id="패스_3492" data-name="패스 3492" d="M273.135,4.148l-1.543,5.467-5.381,1.827c-.815.274-.9.889-.18,1.367l4.722,3.157.074,5.682c.012.86.57,1.126,1.248.592l4.46-3.514,5.428,1.683c.821.257,1.246-.192.95-1l-1.967-5.332,3.281-4.64c.5-.7.2-1.244-.662-1.212l-5.674.219-3.4-4.548C273.977,3.208,273.368,3.319,273.135,4.148Z" transform="translate(-249.232 2.527)" fill="url(#linear-gradient-16)"/>
      </g>
    </g>
    <rect id="사각형_714" data-name="사각형 714" width="195.87" height="195.87" transform="translate(208.729 -18.721)" fill="none"/>
  </g>
</svg>
