<svg xmlns="http://www.w3.org/2000/svg" xmlns:xlink="http://www.w3.org/1999/xlink" width="202.475" height="113.545" viewBox="0 0 202.475 113.545">
  <defs>
    <linearGradient id="linear-gradient" x1="0.277" y1="0.172" x2="0.796" y2="1.157" gradientUnits="objectBoundingBox">
      <stop offset="0" stop-color="#1062a1"/>
      <stop offset="1" stop-color="#0a4d80"/>
    </linearGradient>
    <linearGradient id="linear-gradient-2" y1="0.5" x2="1" y2="0.5" gradientUnits="objectBoundingBox">
      <stop offset="0" stop-color="#076bba"/>
      <stop offset="1" stop-color="#0060ab"/>
    </linearGradient>
    <linearGradient id="linear-gradient-4" x1="0.312" y1="0.264" x2="0.547" y2="0.517" gradientUnits="objectBoundingBox">
      <stop offset="0" stop-color="#ff1a1a"/>
      <stop offset="0.995" stop-color="#d40000"/>
    </linearGradient>
    <linearGradient id="linear-gradient-5" x1="0.224" y1="0.27" x2="0.891" y2="0.987" xlink:href="#linear-gradient-4"/>
    <clipPath id="clip-path">
      <path id="패스_2441" data-name="패스 2441" d="M116.835,57.151a17.251,17.251,0,0,0-4.028-.47,15.487,15.487,0,0,0-7.895,2.017c-1.7-2.83-13-10.819-13-10.819V35.54C105.282,35.54,116.2,45.12,116.835,57.151Z" transform="translate(-91.909 -35.54)" fill="none"/>
    </clipPath>
    <linearGradient id="linear-gradient-6" x1="0.123" y1="0.25" x2="0.734" y2="0.958" gradientUnits="objectBoundingBox">
      <stop offset="0" stop-color="#ff9d00"/>
      <stop offset="1" stop-color="#ffd45c"/>
    </linearGradient>
    <linearGradient id="linear-gradient-7" x1="0.021" y1="0.049" x2="0.814" y2="0.887" gradientUnits="objectBoundingBox">
      <stop offset="0" stop-color="#ffd45c"/>
      <stop offset="1" stop-color="#ff9d00"/>
    </linearGradient>
  </defs>
  <g id="그룹_765" data-name="그룹 765" transform="translate(-80.196 -159.415)">
    <g id="그룹_668" data-name="그룹 668" transform="translate(50.133 118.985)">
      <g id="그룹_646" data-name="그룹 646" transform="translate(30.442 51.816)">
        <path id="패스_1809" data-name="패스 1809" d="M200.48,93.229a26.448,26.448,0,0,0-9.35-13.7,31.332,31.332,0,0,0-57.956-23.751,27.092,27.092,0,0,0-2.752-.241,31.841,31.841,0,0,0-26.9,12.751A16.519,16.519,0,0,0,98,67.106,17,17,0,0,0,80.667,87.9a11.757,11.757,0,0,0-8.127,5.486A16.391,16.391,0,0,0,44.164,97a8.272,8.272,0,0,0-.964-.093,11.785,11.785,0,1,0,7.655,20.276,16.481,16.481,0,0,0,7.729,2.363,17.019,17.019,0,0,0,30.72.686,17.081,17.081,0,0,0,6.348,1.529,17.719,17.719,0,0,0,2.113-.056,23,23,0,0,0,35.261,1.881,17.006,17.006,0,0,0,30.025.306,26.352,26.352,0,0,0,32.518-6.746,12.208,12.208,0,0,0,3.79.769,12.356,12.356,0,0,0,1.121-24.687Z" transform="translate(-26.565 -31.083)" fill="#008dd4"/>
        <path id="패스_1810" data-name="패스 1810" d="M200.533,93.282a26.411,26.411,0,0,0-9.35-13.7,31.331,31.331,0,0,0-57.956-23.751c-.908-.12-1.826-.213-2.752-.25a31.853,31.853,0,0,0-26.9,12.751A17.01,17.01,0,0,0,80.294,83.441a17.361,17.361,0,0,0,.426,4.513,11.735,11.735,0,0,0-8.127,5.477,16.389,16.389,0,0,0-28.376,3.623,8.484,8.484,0,0,0-.964-.093,11.785,11.785,0,1,0,7.655,20.276,16.3,16.3,0,0,0,7.729,2.354,17.008,17.008,0,0,0,30.711.7,17.266,17.266,0,0,0,6.357,1.529,17.775,17.775,0,0,0,2.113-.056,22.978,22.978,0,0,0,35.252,1.872,17.014,17.014,0,0,0,30.034.306,26.311,26.311,0,0,0,32.509-6.737,12.357,12.357,0,1,0,4.921-23.918Z" transform="translate(-26.127 -30.645)" fill="url(#linear-gradient)"/>
      </g>
      <g id="그룹_648" data-name="그룹 648" transform="translate(42.617 53.587)" opacity="0.4">
        <path id="패스_1833" data-name="패스 1833" d="M139.117,79.645A33.843,33.843,0,1,0,73.7,62.279q-.514-.028-1.029-.028A21.059,21.059,0,0,0,55.01,71.824a16.4,16.4,0,1,0,4.216,27.755,21.067,21.067,0,0,0,28.125-1.112,33.806,33.806,0,0,0,36.883.945,12.775,12.775,0,1,0,14.883-19.766Z" transform="translate(-26.825 -36.739)" fill="#4fc5ff"/>
        <path id="패스_1834" data-name="패스 1834" d="M139.17,79.7A33.843,33.843,0,1,0,73.754,62.332c-.352-.019-.7-.028-1.038-.028a21.057,21.057,0,0,0-17.654,9.564A16.4,16.4,0,1,0,59.27,99.622a21.053,21.053,0,0,0,28.125-1.1,33.822,33.822,0,0,0,36.892.945A12.775,12.775,0,1,0,139.17,79.7Z" transform="translate(-26.387 -49.949)" fill="url(#linear-gradient-2)"/>
      </g>
      <g id="그룹_650" data-name="그룹 650" transform="translate(127.302 73.048)">
        <path id="패스_1857" data-name="패스 1857" d="M118.366,56.724c-.371,0-.741.019-1.1.046a14.477,14.477,0,0,0-19-8.665A14.052,14.052,0,0,0,72,47.68,12.357,12.357,0,0,0,57.584,58.541a14.239,14.239,0,0,0-2.762-.269,13.938,13.938,0,0,0,0,27.875c.12,0,.241-.009.361-.019A12.845,12.845,0,0,0,78.694,89.7a17.63,17.63,0,0,0,31.341-1.724,16.735,16.735,0,1,0,8.331-31.248Z" transform="translate(-40.894 -38.839)" fill="#4fc5ff"/>
        <path id="패스_1858" data-name="패스 1858" d="M118.436,56.795c-.371,0-.741.009-1.1.037a14.507,14.507,0,0,0-19-8.665,14.05,14.05,0,0,0-26.263-.417A12.357,12.357,0,0,0,57.654,58.611a14.239,14.239,0,0,0-2.762-.269,13.938,13.938,0,0,0,0,27.875l.371-.009a12.838,12.838,0,0,0,23.5,3.568,17.631,17.631,0,0,0,31.341-1.742,16.555,16.555,0,0,0,8.331,2.224,16.732,16.732,0,1,0,0-33.463Z" transform="translate(-40.39 -38.335)" fill="url(#linear-gradient-2)"/>
      </g>
      <g id="그룹_652" data-name="그룹 652" transform="translate(74.963 59.54)">
        <path id="패스_1881" data-name="패스 1881" d="M157.393,59.248a22.745,22.745,0,0,0-2.581.159A24.07,24.07,0,0,0,132.02,43.073,23.818,23.818,0,0,0,118.8,47.045,18.6,18.6,0,0,0,83.07,49.881,15.378,15.378,0,0,0,58.643,60.374h-.117a22.139,22.139,0,1,0,10.748,41.505,15.944,15.944,0,0,0,30.12,4.556,27.132,27.132,0,0,0,48.228-6.84,21.357,21.357,0,1,0,9.771-40.348Z" transform="translate(-28.855 -33.709)" fill="#63ccff"/>
        <path id="패스_1882" data-name="패스 1882" d="M157.454,59.3c-.871,0-1.731.064-2.581.149a24.046,24.046,0,0,0-36.014-12.362,18.6,18.6,0,0,0-35.728,2.846A15.379,15.379,0,0,0,58.7,60.411h-.117a22.144,22.144,0,1,0,10.748,41.505,15.939,15.939,0,0,0,30.12,4.556,27.135,27.135,0,0,0,48.228-6.829A21.357,21.357,0,1,0,157.454,59.3Z" transform="translate(-28.269 -33.151)" fill="#007fc9"/>
      </g>
      <g id="그룹_654" data-name="그룹 654" transform="translate(25.427 82.002)">
        <path id="패스_1905" data-name="패스 1905" d="M97.19,57.3a12.661,12.661,0,0,0-4.606.621,21.884,21.884,0,0,0-42.1-3.049h-.019A15.2,15.2,0,1,0,60.122,81.1a21.859,21.859,0,0,0,26.429-3.41A12.645,12.645,0,1,0,97.19,57.3Z" transform="translate(-29.84 -37.823)" fill="#6ed8ff"/>
        <path id="패스_1906" data-name="패스 1906" d="M97.281,57.314a12.633,12.633,0,0,0-4.606.612,21.894,21.894,0,0,0-42.109-3.049h-.009A15.209,15.209,0,1,0,60.2,81.1a21.849,21.849,0,0,0,26.439-3.4A12.642,12.642,0,1,0,97.281,57.314Z" transform="translate(-29.153 -37.742)" fill="#008cde"/>
      </g>
      <g id="그룹_667" data-name="그룹 667" transform="translate(56.762 43.82)">
        <g id="그룹_656" data-name="그룹 656" transform="translate(26.502 65.526)">
          <path id="패스_1939" data-name="패스 1939" d="M47.98,56.34A3.587,3.587,0,0,1,44.4,59.924a3.707,3.707,0,0,1-3.722-3.585c0-3.362,3.755-7.856,3.755-7.856l.267-.141a.566.566,0,0,0,.071.256C45.45,49.664,47.98,53.772,47.98,56.34Z" transform="translate(-40.674 -48.343)" fill="#b3edff"/>
          <path id="패스_1940" data-name="패스 1940" d="M47.962,56.44a3.585,3.585,0,1,1-7.169,0c0-2.969,3.581-8.1,3.581-8.1S47.962,53.471,47.962,56.44Z" transform="translate(-40.351 -48.343)" fill="#61d7ff"/>
        </g>
        <g id="그룹_658" data-name="그룹 658" transform="matrix(0.999, 0.035, -0.035, 0.999, 46.555, 29.635)">
          <path id="패스_1973" data-name="패스 1973" d="M45.356,53.637A3.363,3.363,0,0,1,42,57,3.475,3.475,0,0,1,38.5,53.637c0-3.153,3.52-7.375,3.52-7.375l.254-.127a.552.552,0,0,0,.066.24C42.986,47.369,45.356,51.228,45.356,53.637Z" transform="translate(-38.504 -46.134)" fill="#b3edff"/>
          <path id="패스_1974" data-name="패스 1974" d="M45.321,53.731a3.365,3.365,0,1,1-6.73,0c0-2.785,3.365-7.6,3.365-7.6S45.321,50.946,45.321,53.731Z" transform="translate(-38.181 -46.134)" fill="#61d7ff"/>
        </g>
        <g id="그룹_660" data-name="그룹 660" transform="translate(-11 45.612)">
          <path id="패스_2007" data-name="패스 2007" d="M44.041,57.319A5.278,5.278,0,0,1,38.768,62.6a5.458,5.458,0,0,1-5.486-5.282c0-4.949,5.523-11.565,5.523-11.565l.4-.2a.919.919,0,0,0,.1.38C40.316,47.5,44.041,53.538,44.041,57.319Z" transform="translate(-33.282 -45.55)" fill="#b3edff"/>
          <path id="패스_2008" data-name="패스 2008" d="M43.907,57.467a5.278,5.278,0,0,1-10.555,0c0-4.374,5.273-11.917,5.273-11.917S43.907,53.093,43.907,57.467Z" transform="translate(-32.703 -45.55)" fill="#61d7ff"/>
        </g>
        <g id="그룹_662" data-name="그룹 662" transform="translate(165.278 51)">
          <path id="패스_2041" data-name="패스 2041" d="M58.933,54.449a4.956,4.956,0,0,1-4.949,4.958,5.117,5.117,0,0,1-5.134-4.958c0-4.634,5.18-10.833,5.18-10.833l.371-.195a.95.95,0,0,0,.093.361C55.44,45.247,58.933,50.918,58.933,54.449Z" transform="translate(-48.851 -43.421)" fill="#b3edff"/>
          <path id="패스_2042" data-name="패스 2042" d="M58.8,54.6a4.944,4.944,0,0,1-9.888,0c0-4.1,4.939-11.176,4.939-11.176S58.8,50.5,58.8,54.6Z" transform="translate(-48.305 -43.421)" fill="#61d7ff"/>
        </g>
        <g id="그룹_666" data-name="그룹 666" transform="translate(70.528 -1.99)">
          <path id="패스_2109" data-name="패스 2109" d="M52.5,53.886a3.576,3.576,0,0,1-3.576,3.572,3.694,3.694,0,0,1-3.715-3.572c0-3.354,3.748-7.835,3.748-7.835l.268-.147a.612.612,0,0,0,.067.26C49.975,47.227,52.5,51.323,52.5,53.886Z" transform="translate(-45.209 -45.904)" fill="#b3edff"/>
          <path id="패스_2110" data-name="패스 2110" d="M52.467,53.986a3.576,3.576,0,0,1-7.153,0c0-2.961,3.576-8.082,3.576-8.082S52.467,51.026,52.467,53.986Z" transform="translate(-44.874 -45.904)" fill="#61d7ff"/>
        </g>
      </g>
    </g>
    <g id="그룹_706" data-name="그룹 706" transform="translate(131.232 133.773)">
      <g id="그룹_702" data-name="그룹 702" transform="translate(107.403 54.849)" style="mix-blend-mode: multiply;isolation: isolate">
        <path id="패스_2371" data-name="패스 2371" d="M91.634,65.519c-.129-3.15-.352-24.271,1.538-24.268,1.515,0,5.12,2.111,4.944,13.878-.053,3.464-.675,6.62,3.42,6.339,4.762-.329,6.767,4.786,4.774,8.276-2.44,4.266-7.143,4.278-10.376,3.235C92.565,71.89,91.711,67.348,91.634,65.519Z" transform="translate(-91.552 -41.251)" fill="#fff" opacity="0"/>
        <path id="패스_2372" data-name="패스 2372" d="M93.156,41.284c1.48,0,4.985,2.466,4.815,14.066-.05,3.479-.581,6.55,3.459,6.215,4.653-.382,6.6,4.618,4.668,8.018-2.363,4.184-6.976,4.239-10.158,3.232-3.365-1.057-4.231-5.575-4.3-7.369C91.506,62.349,91.3,41.281,93.156,41.284Z" transform="translate(-91.547 -41.187)" fill="#fbfcfc" opacity="0.026"/>
        <path id="패스_2373" data-name="패스 2373" d="M93.138,41.317c1.444,0,4.85,2.818,4.683,14.254-.05,3.485-.49,6.483,3.5,6.1,4.548-.437,6.433,4.436,4.568,7.754-2.3,4.09-6.808,4.184-9.947,3.221-3.353-1.031-4.237-5.508-4.307-7.275C91.511,62.332,91.311,41.314,93.138,41.317Z" transform="translate(-91.54 -41.123)" fill="#f7f9fa" opacity="0.052"/>
        <path id="패스_2374" data-name="패스 2374" d="M93.121,41.35c1.409,0,4.712,3.177,4.551,14.442-.047,3.5-.4,6.409,3.535,5.978,4.439-.487,6.262,4.266,4.468,7.49-2.231,4-6.644,4.146-9.733,3.218-3.347-1-4.242-5.449-4.31-7.184C91.512,62.307,91.327,41.347,93.121,41.35Z" transform="translate(-91.535 -41.059)" fill="#f3f6f7" opacity="0.077"/>
        <path id="패스_2375" data-name="패스 2375" d="M93.1,41.384c1.374,0,4.577,3.529,4.422,14.627-.047,3.508-.308,6.339,3.573,5.854,4.333-.537,6.1,4.1,4.363,7.231-2.161,3.914-6.477,4.1-9.515,3.212-3.338-.975-4.248-5.39-4.313-7.09C91.517,62.288,91.34,41.381,93.1,41.384Z" transform="translate(-91.528 -40.994)" fill="#eff3f5" opacity="0.103"/>
        <path id="패스_2376" data-name="패스 2376" d="M93.085,41.417c1.336,0,4.442,3.884,4.289,14.818-.047,3.514-.214,6.265,3.611,5.731,4.228-.59,5.928,3.922,4.263,6.973-2.09,3.831-6.312,4.055-9.3,3.206-3.332-.942-4.257-5.332-4.319-7.005C91.52,62.271,91.358,41.414,93.085,41.417Z" transform="translate(-91.523 -40.93)" fill="#ebf0f2" opacity="0.129"/>
        <path id="패스_2377" data-name="패스 2377" d="M93.067,41.449c1.3,0,4.3,4.242,4.16,15.008-.047,3.526-.126,6.195,3.649,5.611,4.119-.64,5.757,3.752,4.16,6.709-2.02,3.74-6.148,4.01-9.087,3.2-3.323-.916-4.263-5.273-4.322-6.911C91.523,62.25,91.37,41.446,93.067,41.449Z" transform="translate(-91.517 -40.868)" fill="#e8edf0" opacity="0.155"/>
        <path id="패스_2378" data-name="패스 2378" d="M93.05,41.483c1.265,0,4.169,4.595,4.028,15.19-.044,3.538-.035,6.133,3.688,5.493,4.01-.687,5.59,3.576,4.057,6.447-1.949,3.655-5.98,3.964-8.872,3.194-3.315-.887-4.266-5.208-4.325-6.817C91.526,62.228,91.388,41.48,93.05,41.483Z" transform="translate(-91.512 -40.802)" fill="#e4eaed" opacity="0.181"/>
        <path id="패스_2379" data-name="패스 2379" d="M93.032,41.515c1.23,0,4.034,4.95,3.9,15.384-.041,3.547.056,6.06,3.729,5.37,3.9-.734,5.42,3.4,3.955,6.183-1.882,3.57-5.816,3.925-8.658,3.191-3.309-.854-4.275-5.15-4.328-6.726C91.529,62.21,91.4,41.515,93.032,41.515Z" transform="translate(-91.506 -40.74)" fill="#e0e7eb" opacity="0.206"/>
        <path id="패스_2380" data-name="패스 2380" d="M93.015,41.549c1.195,0,3.9,5.305,3.764,15.572-.041,3.555.147,5.992,3.767,5.246,3.793-.781,5.255,3.232,3.855,5.922-1.811,3.482-5.652,3.884-8.444,3.185-3.3-.825-4.281-5.088-4.33-6.632C91.532,62.188,91.418,41.546,93.015,41.549Z" transform="translate(-91.5 -40.674)" fill="#dce4e8" opacity="0.232"/>
        <path id="패스_2381" data-name="패스 2381" d="M93,41.581c1.16,0,3.761,5.66,3.635,15.76-.041,3.567.235,5.928,3.8,5.126,3.682-.825,5.082,3.062,3.749,5.663-1.741,3.4-5.487,3.84-8.226,3.18-3.294-.793-4.286-5.029-4.336-6.541C91.536,62.171,91.433,41.581,93,41.581Z" transform="translate(-91.495 -40.612)" fill="#d8e1e6" opacity="0.258"/>
        <path id="패스_2382" data-name="패스 2382" d="M92.982,41.614c1.124,0,3.626,6.016,3.5,15.948-.038,3.579.323,5.863,3.843,5.006,3.573-.869,4.918,2.889,3.649,5.4-1.671,3.309-5.323,3.8-8.012,3.174-3.291-.763-4.292-4.968-4.342-6.45C91.54,62.148,91.449,41.611,92.982,41.614Z" transform="translate(-91.49 -40.548)" fill="#d4dee3" opacity="0.284"/>
        <path id="패스_2383" data-name="패스 2383" d="M92.964,41.648c1.089,0,3.491,6.368,3.37,16.136-.035,3.582.414,5.793,3.884,4.885s4.747,2.719,3.547,5.138c-1.6,3.224-5.158,3.758-7.8,3.171-3.285-.731-4.3-4.912-4.345-6.359C91.543,62.126,91.464,41.648,92.964,41.648Z" transform="translate(-91.484 -40.482)" fill="#d0dbe0" opacity="0.31"/>
        <path id="패스_2384" data-name="패스 2384" d="M92.948,41.681C94,41.681,96.3,48.407,96.189,58c-.035,3.6.5,5.737,3.919,4.768,3.359-.951,4.583,2.548,3.447,4.877-1.533,3.136-4.994,3.717-7.586,3.165-3.277-.7-4.3-4.85-4.348-6.268C91.547,62.109,91.48,41.681,92.948,41.681Z" transform="translate(-91.48 -40.419)" fill="#ccd8de" opacity="0.335"/>
        <path id="패스_2385" data-name="패스 2385" d="M92.93,41.714c1.016,0,3.218,7.078,3.109,16.509C96,61.828,96.629,63.9,100,62.867c3.25-.992,4.419,2.378,3.347,4.615-1.462,3.05-4.83,3.679-7.372,3.159-3.271-.666-4.31-4.786-4.351-6.174C91.55,62.086,91.5,41.714,92.93,41.714Z" transform="translate(-91.474 -40.355)" fill="#c8d5db" opacity="0.361"/>
        <path id="패스_2386" data-name="패스 2386" d="M92.915,41.746c.981,0,3.083,7.434,2.98,16.7-.035,3.614.681,5.613,4,4.524,3.138-1.031,4.248,2.2,3.241,4.351-1.389,2.962-4.665,3.635-7.155,3.15-3.265-.634-4.319-4.727-4.357-6.08C91.553,62.065,91.512,41.743,92.915,41.746Z" transform="translate(-91.47 -40.293)" fill="#c4d2d9" opacity="0.387"/>
        <path id="패스_2387" data-name="패스 2387" d="M92.9,41.78c.945,0,2.945,7.789,2.848,16.887-.032,3.626.766,5.549,4.034,4.4,3.033-1.066,4.084,2.038,3.141,4.1-1.318,2.877-4.5,3.6-6.941,3.147-3.259-.6-4.325-4.668-4.36-5.992C91.558,62.047,91.529,41.777,92.9,41.78Z" transform="translate(-91.464 -40.227)" fill="#c1cfd6" opacity="0.413"/>
        <path id="패스_2388" data-name="패스 2388" d="M92.881,41.814c.91,0,2.81,8.141,2.716,17.072-.029,3.638.857,5.493,4.075,4.281,2.921-1.1,3.917,1.864,3.039,3.831-1.251,2.795-4.339,3.558-6.726,3.141-3.256-.567-4.33-4.609-4.366-5.9C91.563,62.025,91.542,41.811,92.881,41.814Z" transform="translate(-91.46 -40.161)" fill="#bdccd4" opacity="0.439"/>
        <path id="패스_2389" data-name="패스 2389" d="M92.864,41.846c.875,0,2.675,8.5,2.587,17.263-.029,3.646.945,5.437,4.11,4.16,2.816-1.136,3.752,1.694,2.936,3.567-1.177,2.71-4.175,3.523-6.509,3.138-3.25-.534-4.336-4.548-4.369-5.81C91.566,62,91.56,41.843,92.864,41.846Z" transform="translate(-91.455 -40.099)" fill="#b9c9d1" opacity="0.465"/>
        <path id="패스_2390" data-name="패스 2390" d="M92.847,41.878c.84,0,2.54,8.858,2.454,17.454-.029,3.658,1.036,5.379,4.151,4.037,2.7-1.163,3.588,1.527,2.836,3.309-1.107,2.625-4.013,3.482-6.3,3.133-3.241-.5-4.342-4.492-4.369-5.719C91.57,61.989,91.576,41.878,92.847,41.878Z" transform="translate(-91.449 -40.037)" fill="#b5c6cf" opacity="0.49"/>
        <path id="패스_2391" data-name="패스 2391" d="M92.831,41.912c.8,0,2.4,9.21,2.325,17.639-.029,3.667,1.124,5.326,4.187,3.917,2.6-1.195,3.423,1.356,2.733,3.047a5.622,5.622,0,0,1-6.083,3.127c-3.235-.464-4.348-4.427-4.374-5.625C91.575,61.964,91.592,41.909,92.831,41.912Z" transform="translate(-91.445 -39.971)" fill="#b1c3cc" opacity="0.516"/>
        <path id="패스_2392" data-name="패스 2392" d="M92.815,41.944c.769,0,2.267,9.565,2.193,17.83-.026,3.679,1.218,5.276,4.228,3.8,2.493-1.224,3.256,1.186,2.628,2.786A5.47,5.47,0,0,1,96,69.474c-3.232-.423-4.354-4.366-4.377-5.528C91.579,61.949,91.608,41.944,92.815,41.944Z" transform="translate(-91.441 -39.909)" fill="#adc0c9" opacity="0.542"/>
        <path id="패스_2393" data-name="패스 2393" d="M92.8,41.979c.734,0,2.131,9.918,2.061,18.012-.026,3.688,1.312,5.229,4.266,3.676,2.39-1.251,3.094,1.016,2.528,2.525A5.324,5.324,0,0,1,96,69.3c-3.227-.388-4.363-4.307-4.383-5.437C91.584,61.926,91.625,41.976,92.8,41.979Z" transform="translate(-91.437 -39.842)" fill="#a9bdc7" opacity="0.568"/>
        <path id="패스_2394" data-name="패스 2394" d="M92.783,42.011c.7,0,1.993,10.276,1.929,18.2-.021,3.7,1.406,5.182,4.307,3.558,2.281-1.28,2.927.84,2.425,2.258a5.174,5.174,0,0,1-5.437,3.109c-3.221-.349-4.369-4.245-4.386-5.346C91.588,61.9,91.644,42.011,92.783,42.011Z" transform="translate(-91.432 -39.78)" fill="#a5bac4" opacity="0.594"/>
        <path id="패스_2395" data-name="패스 2395" d="M92.768,42.044c.661,0,1.858,10.631,1.8,18.394-.023,3.705,1.5,5.132,4.342,3.432,2.181-1.306,2.766.675,2.325,2a5.03,5.03,0,0,1-5.223,3.1c-3.218-.311-4.375-4.184-4.392-5.255C91.593,61.885,91.658,42.044,92.768,42.044Z" transform="translate(-91.429 -39.716)" fill="#a1b7c2" opacity="0.619"/>
        <path id="패스_2396" data-name="패스 2396" d="M92.749,42.077c.628,0,1.726,10.983,1.671,18.578-.021,3.72,1.6,5.091,4.383,3.312,2.076-1.327,2.6.511,2.222,1.741a4.876,4.876,0,0,1-5.012,3.1c-3.212-.27-4.38-4.128-4.392-5.164C91.6,61.862,91.674,42.074,92.749,42.077Z" transform="translate(-91.424 -39.652)" fill="#9db4bf" opacity="0.645"/>
        <path id="패스_2397" data-name="패스 2397" d="M92.735,42.11c.59,0,1.588,11.339,1.538,18.766-.021,3.732,1.7,5.05,4.419,3.194,1.979-1.348,2.446.341,2.12,1.477a4.716,4.716,0,0,1-4.794,3.092c-3.206-.232-4.386-4.063-4.4-5.07C91.6,61.845,91.69,42.11,92.735,42.11Z" transform="translate(-91.42 -39.588)" fill="#9ab1bd" opacity="0.671"/>
        <path id="패스_2398" data-name="패스 2398" d="M92.721,42.144c.555,0,1.45,11.694,1.406,18.954-.018,3.737,1.8,5.009,4.46,3.071,1.879-1.371,2.284.17,2.017,1.215a4.554,4.554,0,0,1-4.58,3.086c-3.2-.185-4.392-4.008-4.4-4.979C91.608,61.823,91.711,42.144,92.721,42.144Z" transform="translate(-91.417 -39.522)" fill="#96aeba" opacity="0.697"/>
        <path id="패스_2399" data-name="패스 2399" d="M92.7,42.177c.52,0,1.315,12.046,1.277,19.139-.021,3.752,1.905,4.976,4.495,2.951,1.782-1.389,2.129.006,1.917.954A4.391,4.391,0,0,1,96.028,68.3c-3.2-.141-4.4-3.943-4.4-4.888C91.613,61.8,91.727,42.177,92.7,42.177Z" transform="translate(-91.413 -39.458)" fill="#92abb8" opacity="0.723"/>
        <path id="패스_2400" data-name="패스 2400" d="M92.691,42.209c.484,0,1.18,12.407,1.145,19.333-.018,3.758,2.014,4.938,4.536,2.83,1.688-1.412,1.97-.164,1.814.69a4.23,4.23,0,0,1-4.154,3.077c-3.191-.094-4.4-3.884-4.407-4.8C91.622,61.783,91.745,42.209,92.691,42.209Z" transform="translate(-91.411 -39.396)" fill="#8ea8b5" opacity="0.748"/>
        <path id="패스_2401" data-name="패스 2401" d="M92.674,42.242c.452,0,1.045,12.759,1.016,19.521-.015,3.77,2.129,4.906,4.574,2.71,1.6-1.436,1.814-.332,1.712.429a4.05,4.05,0,0,1-3.937,3.071c-3.185-.05-4.413-3.826-4.413-4.706C91.626,61.766,91.764,42.242,92.674,42.242Z" transform="translate(-91.409 -39.333)" fill="#8aa5b3" opacity="0.774"/>
        <path id="패스_2402" data-name="패스 2402" d="M92.658,42.275c.417,0,.91,13.115.887,19.709-.015,3.779,2.243,4.874,4.609,2.587,1.506-1.45,1.665-.5,1.612.17-.135,1.638-2.049,3.065-3.723,3.065-3.18,0-4.419-3.764-4.416-4.612C91.631,61.743,91.781,42.275,92.658,42.275Z" transform="translate(-91.405 -39.269)" fill="#86a2b0" opacity="0.8"/>
      </g>
      <path id="패스_2403" data-name="패스 2403" d="M108.29,35.468c-13.373,0-24.289,9.58-24.926,21.611.059.07.091.126.164.211.062-.015.1-.27.164-.285a17.3,17.3,0,0,1,3.7-.4,15.488,15.488,0,0,1,7.895,2.02c1.7-2.83,13-10.822,13-10.822s11.3,7.992,13,10.822a15.485,15.485,0,0,1,7.892-2.02,17.251,17.251,0,0,1,4.028.47C132.576,45.048,121.663,35.468,108.29,35.468Z" transform="translate(0 2.403)" fill="#ffa1a1"/>
      <path id="패스_2404" data-name="패스 2404" d="M92.156,75.379a.551.551,0,0,1-.552-.552V35.43a.55.55,0,1,1,1.1,0v39.4A.551.551,0,0,1,92.156,75.379Z" transform="translate(15.952 1.255)" fill="#36bcff"/>
      <path id="패스_2405" data-name="패스 2405" d="M92.271,75.379a.551.551,0,0,1-.549-.552V35.43a.551.551,0,1,1,1.1,0v39.4A.551.551,0,0,1,92.271,75.379Z" transform="translate(16.18 1.255)" fill="#0a4d80"/>
      <path id="패스_2406" data-name="패스 2406" d="M83.42,57.151a17.25,17.25,0,0,1,4.028-.47A15.484,15.484,0,0,1,95.34,58.7c1.7-2.83,13-10.819,13-10.819V35.54C94.97,35.54,84.057,45.12,83.42,57.151Z" transform="translate(0.108 2.542)" fill="url(#linear-gradient-4)"/>
      <path id="패스_2407" data-name="패스 2407" d="M116.835,57.151a17.251,17.251,0,0,0-4.028-.47,15.487,15.487,0,0,0-7.895,2.017c-1.7-2.83-13-10.819-13-10.819V35.54C105.282,35.54,116.2,45.12,116.835,57.151Z" transform="translate(16.542 2.542)" fill="url(#linear-gradient-5)"/>
      <path id="패스_2408" data-name="패스 2408" d="M100.677,55.238a24.848,24.848,0,0,1,13.009,3.391,25.693,25.693,0,0,0,.4-4.539c0-10.285-6-18.623-13.411-18.623S87.269,43.806,87.269,54.091a25.417,25.417,0,0,0,.405,4.539c.05.062.132.12.214.208.073-.044.044-.367.12-.414A25.06,25.06,0,0,1,100.677,55.238Z" transform="translate(7.56 2.403)" fill="#ffe194"/>
      <g id="그룹_705" data-name="그룹 705" transform="translate(108.451 38.082)">
        <g id="그룹_704" data-name="그룹 704" clip-path="url(#clip-path)">
          <g id="그룹_703" data-name="그룹 703" transform="translate(-2.318 -2.241)" style="mix-blend-mode: multiply;isolation: isolate">
            <path id="패스_2409" data-name="패스 2409" d="M92.659,56.48c-1.723-5.4-2.989-19.715,1.861-21.415,5.232-1.835,16.641,5.387,19.967,12.942,4.595,10.431,3.711,17.243-6.811,18.106C101.329,66.632,93.657,59.618,92.659,56.48Z" transform="translate(-91.12 -34.777)" fill="#fff" opacity="0"/>
            <path id="패스_2410" data-name="패스 2410" d="M94.443,35.088c5.109-1.785,16.385,5.308,19.691,12.871,4.507,10.264,3.643,17.09-6.632,17.95-6.274.537-13.8-6.456-14.779-9.542C91.031,51.068,89.7,36.749,94.443,35.088Z" transform="translate(-91.027 -34.714)" fill="#fdfbfa" opacity="0.026"/>
            <path id="패스_2411" data-name="패스 2411" d="M94.364,35.112c4.988-1.744,16.13,5.223,19.418,12.795,4.419,10.1,3.576,16.917-6.453,17.8-6.2.543-13.587-6.415-14.545-9.448C91.128,51.046,89.728,36.73,94.364,35.112Z" transform="translate(-90.937 -34.651)" fill="#fbf8f6" opacity="0.052"/>
            <path id="패스_2412" data-name="패스 2412" d="M94.286,35.135c4.868-1.694,15.877,5.141,19.145,12.721,4.331,9.941,3.505,16.752-6.277,17.642-6.127.555-13.367-6.377-14.307-9.357C91.224,51.027,89.759,36.708,94.286,35.135Z" transform="translate(-90.847 -34.588)" fill="#f8f4f1" opacity="0.077"/>
            <path id="패스_2413" data-name="패스 2413" d="M94.212,35.157c4.744-1.647,15.6,5.07,18.869,12.648,4.219,9.788,3.435,16.591-6.1,17.489-6.051.57-13.147-6.336-14.066-9.263C91.32,51.008,89.79,36.7,94.212,35.157Z" transform="translate(-90.758 -34.525)" fill="#f6f1ec" opacity="0.103"/>
            <path id="패스_2414" data-name="패스 2414" d="M94.135,35.183c4.624-1.6,15.346,4.985,18.6,12.572,4.125,9.627,3.367,16.429-5.922,17.334-5.978.581-12.933-6.3-13.831-9.169C91.42,50.99,89.822,36.674,94.135,35.183Z" transform="translate(-90.67 -34.46)" fill="#f4ede8" opacity="0.129"/>
            <path id="패스_2415" data-name="패스 2415" d="M94.06,35.206c4.5-1.559,15.088,4.909,18.32,12.5,4.034,9.465,3.3,16.274-5.743,17.178-5.9.593-12.715-6.259-13.6-9.075C91.52,50.969,89.856,36.659,94.06,35.206Z" transform="translate(-90.583 -34.398)" fill="#f2e9e3" opacity="0.155"/>
            <path id="패스_2416" data-name="패스 2416" d="M93.989,35.229c4.38-1.512,14.826,4.827,18.044,12.425,3.943,9.307,3.232,16.115-5.564,17.025-5.831.6-12.5-6.221-13.358-8.981C91.62,50.954,89.888,36.641,93.989,35.229Z" transform="translate(-90.497 -34.336)" fill="#efe6de" opacity="0.181"/>
            <path id="패스_2417" data-name="패스 2417" d="M93.916,35.252C98.179,33.787,108.487,40,111.69,47.6c3.852,9.148,3.159,15.954-5.387,16.876-5.757.619-12.281-6.18-13.124-8.89C91.723,50.933,89.923,36.623,93.916,35.252Z" transform="translate(-90.412 -34.274)" fill="#ede2da" opacity="0.206"/>
            <path id="패스_2418" data-name="패스 2418" d="M93.843,35.278c4.143-1.421,14.313,4.662,17.5,12.272,3.761,8.984,3.092,15.792-5.211,16.72-5.684.634-12.064-6.142-12.886-8.8C91.826,50.914,89.959,36.6,93.843,35.278Z" transform="translate(-90.328 -34.208)" fill="#ebded5" opacity="0.232"/>
            <path id="패스_2419" data-name="패스 2419" d="M93.775,35.3c4.019-1.371,14.054,4.589,17.222,12.2,3.67,8.822,3.024,15.634-5.029,16.564-5.611.649-11.846-6.1-12.648-8.7C91.928,50.9,90,36.588,93.775,35.3Z" transform="translate(-90.245 -34.147)" fill="#e9dbd0" opacity="0.258"/>
            <path id="패스_2420" data-name="패스 2420" d="M93.705,35.322c3.9-1.324,13.8,4.5,16.949,12.125,3.582,8.664,2.956,15.484-4.853,16.415-5.534.661-11.629-6.063-12.413-8.614C92.035,50.877,90.035,36.57,93.705,35.322Z" transform="translate(-90.164 -34.085)" fill="#e7d7cc" opacity="0.284"/>
            <path id="패스_2421" data-name="패스 2421" d="M93.637,35.348c3.779-1.283,13.543,4.419,16.676,12.049,3.491,8.5,2.889,15.323-4.674,16.256-5.461.675-11.412-6.022-12.175-8.514C92.142,50.859,90.075,36.552,93.637,35.348Z" transform="translate(-90.083 -34.02)" fill="#e4d4c7" opacity="0.31"/>
            <path id="패스_2422" data-name="패스 2422" d="M93.57,35.371c3.658-1.236,13.285,4.339,16.4,11.979,3.4,8.338,2.818,15.164-4.495,16.1-5.39.693-11.195-5.983-11.94-8.423C92.249,50.841,90.117,36.534,93.57,35.371Z" transform="translate(-90.005 -33.958)" fill="#e2d0c2" opacity="0.335"/>
            <path id="패스_2423" data-name="패스 2423" d="M93.507,35.4c3.535-1.192,13.03,4.257,16.127,11.9,3.315,8.174,2.751,15.017-4.319,15.954-5.314.7-10.974-5.948-11.7-8.332C92.359,50.821,90.157,36.515,93.507,35.4Z" transform="translate(-89.927 -33.895)" fill="#e0ccbe" opacity="0.361"/>
            <path id="패스_2424" data-name="패스 2424" d="M93.443,35.418c3.414-1.142,12.774,4.178,15.854,11.829,3.224,8.012,2.681,14.859-4.143,15.8C99.914,63.764,94.4,57.138,93.69,54.8,92.469,50.8,90.2,36.5,93.443,35.418Z" transform="translate(-89.852 -33.834)" fill="#dec9b9" opacity="0.387"/>
            <path id="패스_2425" data-name="패스 2425" d="M93.38,35.444c3.3-1.1,12.519,4.093,15.581,11.755,3.136,7.848,2.613,14.7-3.963,15.637-5.167.737-10.543-5.866-11.23-8.144C92.582,50.781,90.248,36.48,93.38,35.444Z" transform="translate(-89.777 -33.769)" fill="#dbc5b4" opacity="0.413"/>
            <path id="패스_2426" data-name="패스 2426" d="M93.321,35.466c3.174-1.048,12.263,4.01,15.3,11.682s2.545,14.55-3.784,15.484c-5.094.752-10.326-5.825-10.992-8.053C92.7,50.766,90.294,36.465,93.321,35.466Z" transform="translate(-89.703 -33.707)" fill="#d9c2af" opacity="0.439"/>
            <path id="패스_2427" data-name="패스 2427" d="M93.262,35.49c3.053-1,12.008,3.931,15.032,11.606,2.962,7.522,2.475,14.4-3.605,15.334-5.023.769-10.108-5.79-10.757-7.959C92.812,50.751,90.343,36.45,93.262,35.49Z" transform="translate(-89.632 -33.645)" fill="#d7beab" opacity="0.465"/>
            <path id="패스_2428" data-name="패스 2428" d="M93.206,35.515c2.93-.96,11.752,3.846,14.756,11.529,2.877,7.36,2.407,14.251-3.429,15.179-4.947.787-9.891-5.746-10.519-7.865C92.928,50.729,90.394,36.428,93.206,35.515Z" transform="translate(-89.562 -33.582)" fill="#d5baa6" opacity="0.49"/>
            <path id="패스_2429" data-name="패스 2429" d="M93.151,35.539c2.813-.913,11.5,3.767,14.483,11.456,2.792,7.2,2.337,14.1-3.253,15.023-4.871.807-9.671-5.7-10.282-7.768C93.045,50.711,90.447,36.414,93.151,35.539Z" transform="translate(-89.494 -33.521)" fill="#d2b7a1" opacity="0.516"/>
            <path id="패스_2430" data-name="패스 2430" d="M93.1,35.562c2.692-.866,11.247,3.685,14.207,11.383,2.707,7.034,2.272,13.951-3.071,14.87-4.8.825-9.454-5.666-10.044-7.68C93.17,50.7,90.5,36.4,93.1,35.562Z" transform="translate(-89.428 -33.459)" fill="#d0b39d" opacity="0.542"/>
            <path id="패스_2431" data-name="패스 2431" d="M93.047,35.587c2.569-.819,10.992,3.6,13.934,11.309,2.619,6.867,2.2,13.8-2.895,14.718-4.727.846-9.239-5.631-9.812-7.586C93.29,50.675,90.554,36.377,93.047,35.587Z" transform="translate(-89.364 -33.396)" fill="#ceb098" opacity="0.568"/>
            <path id="패스_2432" data-name="패스 2432" d="M93,35.612c2.449-.775,10.743,3.517,13.658,11.233,2.537,6.706,2.14,13.658-2.716,14.562-4.65.866-9.019-5.59-9.571-7.5C93.416,50.659,90.612,36.361,93,35.612Z" transform="translate(-89.301 -33.333)" fill="#ccac93" opacity="0.594"/>
            <path id="패스_2433" data-name="패스 2433" d="M92.948,35.636c2.328-.725,10.49,3.438,13.385,11.162,2.451,6.535,2.07,13.508-2.537,14.4-4.574.89-8.8-5.549-9.336-7.4C93.541,50.638,90.672,36.343,92.948,35.636Z" transform="translate(-89.241 -33.271)" fill="#caa88f" opacity="0.619"/>
            <path id="패스_2434" data-name="패스 2434" d="M92.9,35.66c2.2-.681,10.238,3.35,13.109,11.089,2.369,6.374,2,13.367-2.358,14.251-4.5.913-8.585-5.514-9.1-7.308C93.669,50.621,90.733,36.329,92.9,35.66Z" transform="translate(-89.182 -33.21)" fill="#c7a58a" opacity="0.645"/>
            <path id="패스_2435" data-name="패스 2435" d="M92.859,35.686c2.084-.634,9.988,3.268,12.836,11.01,2.284,6.209,1.938,13.223-2.181,14.1-4.424.939-8.367-5.47-8.864-7.214C93.8,50.6,90.8,36.314,92.859,35.686Z" transform="translate(-89.126 -33.146)" fill="#c5a185" opacity="0.671"/>
            <path id="패스_2436" data-name="패스 2436" d="M92.817,35.709c1.964-.587,9.741,3.185,12.563,10.939,2.2,6.045,1.87,13.085-2,13.946-4.348.966-8.153-5.434-8.626-7.123C93.933,50.585,90.862,36.293,92.817,35.709Z" transform="translate(-89.073 -33.087)" fill="#c39d81" opacity="0.697"/>
            <path id="패스_2437" data-name="패스 2437" d="M92.777,35.734c1.844-.54,9.492,3.1,12.29,10.866,2.12,5.881,1.806,12.944-1.826,13.79-4.272,1-7.933-5.393-8.391-7.029C94.069,50.572,90.93,36.277,92.777,35.734Z" transform="translate(-89.021 -33.026)" fill="#c19a7c" opacity="0.723"/>
            <path id="패스_2438" data-name="패스 2438" d="M92.741,35.76c1.723-.5,9.245,3.012,12.014,10.784,2.038,5.722,1.738,12.806-1.647,13.637-4.2,1.031-7.716-5.352-8.153-6.932C94.2,50.552,91,36.259,92.741,35.76Z" transform="translate(-88.97 -32.962)" fill="#be9677" opacity="0.748"/>
            <path id="패스_2439" data-name="패스 2439" d="M92.705,35.785c1.6-.449,9.007,2.924,11.741,10.713,1.961,5.552,1.673,12.671-1.471,13.485-4.116,1.063-7.5-5.317-7.915-6.844C94.344,50.535,91.073,36.246,92.705,35.785Z" transform="translate(-88.923 -32.901)" fill="#bc9373" opacity="0.774"/>
            <path id="패스_2440" data-name="패스 2440" d="M92.672,35.81c1.483-.405,8.755,2.845,11.468,10.64,1.873,5.387,1.612,12.536-1.292,13.329-4.037,1.107-7.281-5.276-7.68-6.75C94.486,50.519,91.148,36.23,92.672,35.81Z" transform="translate(-88.878 -32.841)" fill="#ba8f6e" opacity="0.8"/>
          </g>
        </g>
      </g>
      <path id="패스_2442" data-name="패스 2442" d="M100.75,55.313A24.829,24.829,0,0,1,113.756,58.7a25.674,25.674,0,0,0,.4-4.542c0-10.285-6-18.623-13.408-18.623S87.342,43.878,87.342,54.163a25.676,25.676,0,0,0,.4,4.542A24.845,24.845,0,0,1,100.75,55.313Z" transform="translate(7.701 2.542)" fill="url(#linear-gradient-6)"/>
      <path id="패스_2443" data-name="패스 2443" d="M95.691,56.228A4.232,4.232,0,0,1,91.463,52V49.2a.966.966,0,0,1,1.932,0V52a2.3,2.3,0,1,0,4.592,0,.964.964,0,1,1,1.929,0A4.229,4.229,0,0,1,95.691,56.228Z" transform="translate(15.679 27.115)" fill="#ffe194"/>
      <path id="패스_2444" data-name="패스 2444" d="M95.808,56.228A4.232,4.232,0,0,1,91.58,52V49.2a.966.966,0,0,1,1.932,0V52a2.3,2.3,0,0,0,4.595,0,.964.964,0,1,1,1.929,0A4.232,4.232,0,0,1,95.808,56.228Z" transform="translate(15.906 27.115)" fill="url(#linear-gradient-7)"/>
    </g>
  </g>
</svg>
