<svg xmlns="http://www.w3.org/2000/svg" width="220.529" height="100.123" viewBox="0 0 220.529 100.123">
  <g id="그룹_766" data-name="그룹 766" transform="translate(484.366 -11.692)">
    <g id="그룹_672" data-name="그룹 672" transform="translate(-303.35 34.598)">
      <g id="그룹_670" data-name="그룹 670" transform="translate(0 1.779)">
        <path id="패스_2114" data-name="패스 2114" d="M29.423,81.549a.818.818,0,0,1-.1.055L-.43,95.387a.753.753,0,0,1-.584.025.753.753,0,0,1-.43-.4.769.769,0,0,1,.273-.962.638.638,0,0,1,.1-.053L28.682,80.218a.764.764,0,0,1,.741,1.331Z" transform="translate(2.032 -71.644)" fill="#fff"/>
        <path id="패스_2115" data-name="패스 2115" d="M86.8,82.908c-.032.019-.065.038-.1.054a.765.765,0,0,1-1.015-.373l-2.019-4.358a.767.767,0,0,1,.275-.959.629.629,0,0,1,.1-.056.766.766,0,0,1,1.015.37l2.018,4.36A.769.769,0,0,1,86.8,82.908Z" transform="translate(-57.06 -69.56)" fill="#fff"/>
        <path id="패스_2116" data-name="패스 2116" d="M7.3,119.735a.724.724,0,0,1-.1.056.766.766,0,0,1-1.015-.371l-2.019-4.36a.766.766,0,0,1,.274-.96.856.856,0,0,1,.1-.056.765.765,0,0,1,1.015.374l2.019,4.356A.768.768,0,0,1,7.3,119.735Z" transform="translate(-1.862 -95.13)" fill="#fff"/>
        <path id="패스_2117" data-name="패스 2117" d="M39.572,85.18a.879.879,0,0,1-.1.056.767.767,0,0,1-1.014-.373L24.674,55.106a.768.768,0,0,1,.275-.959.79.79,0,0,1,.1-.056.767.767,0,0,1,1.015.373L39.845,84.221A.768.768,0,0,1,39.572,85.18Z" transform="translate(-16.102 -53.505)" fill="#fff"/>
        <path id="패스_2118" data-name="패스 2118" d="M63.978,140.536a.772.772,0,0,1-.1.056l-4.358,2.02a.765.765,0,0,1-.742-1.333.545.545,0,0,1,.1-.053l4.358-2.021a.759.759,0,0,1,.585-.024.764.764,0,0,1,.158,1.355Z" transform="translate(-39.59 -112.598)" fill="#fff"/>
        <path id="패스_2119" data-name="패스 2119" d="M27.15,61.038a.755.755,0,0,1-.1.053l-4.357,2.02a.771.771,0,0,1-.585.025.767.767,0,0,1-.158-1.358.8.8,0,0,1,.1-.056L26.41,59.7a.766.766,0,0,1,1.014.371A.769.769,0,0,1,27.15,61.038Z" transform="translate(-14.023 -57.402)" fill="#fff"/>
        <path id="패스_2120" data-name="패스 2120" d="M29.86,84.523a.777.777,0,0,1-.1.056.766.766,0,0,1-1.016-.372.751.751,0,0,1-.023-.584L40.014,52.836a.764.764,0,1,1,1.435.525L30.157,84.149A.746.746,0,0,1,29.86,84.523Z" transform="translate(-18.927 -52.334)" fill="#fff"/>
        <path id="패스_2121" data-name="패스 2121" d="M30.377,144.166a.856.856,0,0,1-.1.056.761.761,0,0,1-.585.025l-4.51-1.655a.765.765,0,1,1,.526-1.437l4.51,1.655a.763.763,0,0,1,.455.98A.754.754,0,0,1,30.377,144.166Z" transform="translate(-16.157 -113.969)" fill="#fff"/>
        <path id="패스_2122" data-name="패스 2122" d="M60.552,61.91a.857.857,0,0,1-.1.055.764.764,0,0,1-.585.023l-4.508-1.655a.765.765,0,1,1,.527-1.436L60.4,60.551a.764.764,0,0,1,.455.98A.77.77,0,0,1,60.552,61.91Z" transform="translate(-37.108 -56.858)" fill="#fff"/>
        <path id="패스_2123" data-name="패스 2123" d="M28.765,96.914a1.007,1.007,0,0,1-.1.056.751.751,0,0,1-.584.023L-2.706,85.7a.759.759,0,0,1-.43-.4.76.76,0,0,1-.024-.584.763.763,0,0,1,.3-.376.759.759,0,0,1,.683-.079L28.607,95.559a.763.763,0,0,1,.454.98A.765.765,0,0,1,28.765,96.914Z" transform="translate(3.207 -74.471)" fill="#fff"/>
        <path id="패스_2124" data-name="패스 2124" d="M4.495,86.136a.865.865,0,0,1-.1.056.765.765,0,0,1-1.038-.958l1.653-4.51a.769.769,0,0,1,.982-.454.763.763,0,0,1,.454.982L4.793,85.761A.747.747,0,0,1,4.495,86.136Z" transform="translate(-1.318 -71.697)" fill="#fff"/>
        <path id="패스_2125" data-name="패스 2125" d="M86.752,116.313a1.011,1.011,0,0,1-.1.056.766.766,0,0,1-.585.023.766.766,0,0,1-.455-.98L87.27,110.9a.764.764,0,1,1,1.435.527l-1.654,4.509A.759.759,0,0,1,86.752,116.313Z" transform="translate(-58.428 -92.648)" fill="#fff"/>
        <path id="패스_2126" data-name="패스 2126" d="M32.833,93.017a.9.9,0,0,1-.087.049.689.689,0,0,1-.626-.025l-3.209-1.8L25.859,93.3a.688.688,0,0,1-1.046-.386l-.994-3.547-3.617-.7a.687.687,0,0,1-.467-1.011l1.805-3.21L19.477,81.4a.69.69,0,0,1,.193-.959.623.623,0,0,1,.191-.087l3.547-.994.7-3.616a.679.679,0,0,1,.3-.441.574.574,0,0,1,.089-.05.689.689,0,0,1,.625.022l3.211,1.805,3.054-2.064a.674.674,0,0,1,.62-.074.682.682,0,0,1,.423.459l.994,3.547,3.616.7a.687.687,0,0,1,.468,1.011L35.7,83.864l2.009,2.974a.638.638,0,0,1,.116.17.69.69,0,0,1-.245.863.51.51,0,0,1-.09.05l-.024.01a.615.615,0,0,1-.087.033l-3.547,1-.7,3.615A.691.691,0,0,1,32.833,93.017Zm-4.341-3.157a.608.608,0,0,1,.094-.052.691.691,0,0,1,.627.023l2.749,1.545.6-3.1a.694.694,0,0,1,.3-.443.794.794,0,0,1,.191-.087l3.038-.853-1.766-2.614a.687.687,0,0,1-.029-.72l1.545-2.751-3.1-.6a.7.7,0,0,1-.532-.489l-.851-3.04-2.615,1.769a.691.691,0,0,1-.721.029l-2.75-1.545-.6,3.1a.691.691,0,0,1-.3.444.71.71,0,0,1-.19.087l-3.039.852,1.766,2.614a.683.683,0,0,1,.031.721L21.4,87.5l3.1.6a.693.693,0,0,1,.53.489l.852,3.04,2.614-1.768Z" transform="translate(-12.46 -67.998)" fill="#fff"/>
        <path id="패스_2127" data-name="패스 2127" d="M29.937,84.978a.64.64,0,0,1-.087.047.691.691,0,0,1-.37.061l-4.974-.6-2.761,4.18a.705.705,0,0,1-.2.2.671.671,0,0,1-.349.111.687.687,0,0,1-.569-.261l-3.094-3.94L12.63,85.779a.694.694,0,0,1-.6-.17.685.685,0,0,1-.216-.586l.6-4.972L8.229,77.288a.688.688,0,0,1-.046-1.115l3.938-3.093-1-4.907a.69.69,0,0,1,.168-.6.75.75,0,0,1,.129-.109.687.687,0,0,1,.459-.107l4.972.6,2.762-4.179a.687.687,0,0,1,1.112-.046l3.1,3.939,4.908-1.005a.691.691,0,0,1,.821.758l-.6,4.971,4.181,2.761a.688.688,0,0,1,.045,1.114l-3.939,3.1,1,4.907a.684.684,0,0,1-.167.6A.732.732,0,0,1,29.937,84.978Zm-6.146-1.8a.692.692,0,0,1,.459-.108l4.448.534-.9-4.39a.681.681,0,0,1,.248-.677l3.525-2.769L27.833,73.3a.69.69,0,0,1-.3-.654l.534-4.449-4.39.9A.688.688,0,0,1,23,68.847l-2.769-3.524-2.471,3.738a.684.684,0,0,1-.654.3l-4.449-.534.9,4.39a.678.678,0,0,1-.248.677L9.779,76.666l3.741,2.471a.682.682,0,0,1,.3.655l-.534,4.449,4.39-.9a.682.682,0,0,1,.677.248l2.769,3.524L23.6,83.377A.67.67,0,0,1,23.791,83.181Z" transform="translate(-4.518 -60.061)" fill="#fff"/>
      </g>
      <g id="그룹_671" data-name="그룹 671" transform="translate(0.418 1.787)">
        <path id="패스_2128" data-name="패스 2128" d="M30.788,81.576a.866.866,0,0,1-.1.056L.934,95.414a.763.763,0,0,1-1.015-.371.768.768,0,0,1,.273-.961.833.833,0,0,1,.1-.055L30.046,80.244a.764.764,0,0,1,.742,1.331Z" transform="translate(0.668 -71.671)" fill="#c8e4f7"/>
        <path id="패스_2129" data-name="패스 2129" d="M88.167,82.939a.845.845,0,0,1-.1.055.768.768,0,0,1-1.015-.373l-2.019-4.358a.772.772,0,0,1,.273-.962.583.583,0,0,1,.1-.053.767.767,0,0,1,1.016.371l2.018,4.358A.769.769,0,0,1,88.167,82.939Z" transform="translate(-58.427 -69.591)" fill="#c8e4f7"/>
        <path id="패스_2130" data-name="패스 2130" d="M8.664,119.766a.868.868,0,0,1-.1.056.765.765,0,0,1-1.015-.371l-2.02-4.36a.766.766,0,0,1,.274-.959.7.7,0,0,1,.1-.055.766.766,0,0,1,1.015.373L8.938,118.8A.772.772,0,0,1,8.664,119.766Z" transform="translate(-3.228 -95.16)" fill="#c8e4f7"/>
        <path id="패스_2131" data-name="패스 2131" d="M40.938,85.208a.721.721,0,0,1-.1.056.762.762,0,0,1-1.014-.374L26.041,55.135a.767.767,0,0,1,.274-.96.81.81,0,0,1,.1-.055.766.766,0,0,1,1.015.373L41.212,84.248A.767.767,0,0,1,40.938,85.208Z" transform="translate(-17.468 -53.533)" fill="#c8e4f7"/>
        <path id="패스_2132" data-name="패스 2132" d="M65.344,140.568a.917.917,0,0,1-.1.058l-4.358,2.017a.762.762,0,0,1-1.015-.374.769.769,0,0,1,.274-.96.631.631,0,0,1,.1-.054l4.358-2.019a.764.764,0,0,1,.742,1.331Z" transform="translate(-40.957 -112.629)" fill="#c8e4f7"/>
        <path id="패스_2133" data-name="패스 2133" d="M28.516,61.066a.783.783,0,0,1-.1.056L24.06,63.139a.765.765,0,0,1-.743-1.333.583.583,0,0,1,.1-.054l4.358-2.02a.767.767,0,0,1,1.015.371A.77.77,0,0,1,28.516,61.066Z" transform="translate(-15.388 -57.43)" fill="#c8e4f7"/>
        <path id="패스_2134" data-name="패스 2134" d="M31.226,84.552a.772.772,0,0,1-.1.053.765.765,0,0,1-1.016-.371.763.763,0,0,1-.024-.585L41.381,52.862a.765.765,0,0,1,1.436.526L31.524,84.176A.759.759,0,0,1,31.226,84.552Z" transform="translate(-20.294 -52.361)" fill="#c8e4f7"/>
        <path id="패스_2135" data-name="패스 2135" d="M31.745,144.2a.771.771,0,0,1-.685.081l-4.508-1.655a.766.766,0,0,1-.157-1.357.764.764,0,0,1,.683-.079l4.508,1.655a.764.764,0,0,1,.159,1.355Z" transform="translate(-17.524 -113.999)" fill="#c8e4f7"/>
        <path id="패스_2136" data-name="패스 2136" d="M61.916,61.939a.661.661,0,0,1-.1.056.763.763,0,0,1-.586.023l-4.507-1.654a.763.763,0,0,1-.454-.979.746.746,0,0,1,.3-.376.759.759,0,0,1,.683-.079l4.508,1.653a.762.762,0,0,1,.454.982A.746.746,0,0,1,61.916,61.939Z" transform="translate(-38.473 -56.888)" fill="#c8e4f7"/>
        <path id="패스_2137" data-name="패스 2137" d="M30.13,96.942a.77.77,0,0,1-.1.055.757.757,0,0,1-.585.025L-1.34,85.727a.761.761,0,0,1-.431-.4.759.759,0,0,1-.023-.584.761.761,0,0,1,.3-.375.759.759,0,0,1,.683-.079L29.972,95.586a.752.752,0,0,1,.431.4.762.762,0,0,1-.274.959Z" transform="translate(1.842 -74.498)" fill="#c8e4f7"/>
        <path id="패스_2138" data-name="패스 2138" d="M5.861,86.168a.887.887,0,0,1-.1.053.756.756,0,0,1-.584.025.772.772,0,0,1-.431-.4.758.758,0,0,1-.024-.583l1.654-4.51a.745.745,0,0,1,.3-.374.764.764,0,0,1,1.138.9L6.159,85.79A.762.762,0,0,1,5.861,86.168Z" transform="translate(-2.684 -71.726)" fill="#c8e4f7"/>
        <path id="패스_2139" data-name="패스 2139" d="M88.118,116.345c-.031.019-.064.037-.1.054a.765.765,0,0,1-1.04-.958l1.654-4.508a.751.751,0,0,1,.3-.378.771.771,0,0,1,.683-.078.763.763,0,0,1,.455.982l-1.654,4.509A.78.78,0,0,1,88.118,116.345Z" transform="translate(-59.794 -92.678)" fill="#c8e4f7"/>
        <path id="패스_2140" data-name="패스 2140" d="M34.2,93.046a.632.632,0,0,1-.087.05.691.691,0,0,1-.626-.025l-3.21-1.806-3.051,2.063a.686.686,0,0,1-1.046-.383L25.183,89.4l-3.616-.7a.685.685,0,0,1-.467-1.009l1.8-3.213-2.063-3.051a.684.684,0,0,1-.076-.619.691.691,0,0,1,.269-.34.783.783,0,0,1,.19-.087l3.547-.995.7-3.615a.686.686,0,0,1,.3-.441.719.719,0,0,1,.089-.05.684.684,0,0,1,.625.025l3.21,1.8,3.053-2.064a.688.688,0,0,1,1.045.383l.995,3.547,3.616.7a.687.687,0,0,1,.492.386.694.694,0,0,1-.024.628l-1.8,3.209,2.009,2.971a.594.594,0,0,1,.115.173.69.69,0,0,1-.244.862l-.09.05-.024.01c-.028.011-.058.022-.088.031l-3.547.994L34.5,92.6A.694.694,0,0,1,34.2,93.046Zm-4.34-3.157c.031-.018.062-.037.094-.051a.693.693,0,0,1,.628.023l2.749,1.545.6-3.1a.7.7,0,0,1,.3-.443.724.724,0,0,1,.191-.087l3.038-.852-1.766-2.615a.689.689,0,0,1-.03-.719L37.2,80.841l-3.1-.6a.689.689,0,0,1-.531-.489l-.851-3.038L30.11,78.483a.693.693,0,0,1-.721.029l-2.75-1.546-.6,3.1a.686.686,0,0,1-.3.444.65.65,0,0,1-.191.086l-3.039.853L24.28,84.06a.682.682,0,0,1,.031.72l-1.546,2.75,3.1.6a.7.7,0,0,1,.531.489l.852,3.039,2.612-1.765Z" transform="translate(-13.826 -68.028)" fill="#c8e4f7"/>
        <path id="패스_2141" data-name="패스 2141" d="M31.3,85.005a.5.5,0,0,1-.087.048.663.663,0,0,1-.371.06l-4.973-.6-2.761,4.181a.692.692,0,0,1-.2.2.709.709,0,0,1-.348.111A.69.69,0,0,1,22,88.74L18.9,84.8l-4.908,1a.684.684,0,0,1-.819-.755l.6-4.972-4.18-2.763a.684.684,0,0,1-.309-.543.7.7,0,0,1,.262-.571l3.939-3.093-1-4.907a.678.678,0,0,1,.168-.6.625.625,0,0,1,.129-.112.694.694,0,0,1,.457-.107l4.974.6L20.972,63.8a.652.652,0,0,1,.2-.2.676.676,0,0,1,.35-.112.69.69,0,0,1,.567.262l3.1,3.939,4.908-1a.685.685,0,0,1,.819.755l-.6,4.973,4.18,2.761a.686.686,0,0,1,.046,1.112l-3.939,3.1,1,4.908a.685.685,0,0,1-.167.6A.657.657,0,0,1,31.3,85.005Zm-6.147-1.8a.693.693,0,0,1,.459-.107l4.448.534-.9-4.388a.684.684,0,0,1,.249-.679L32.938,75.8,29.2,73.326a.689.689,0,0,1-.3-.654l.536-4.448-4.39.9a.683.683,0,0,1-.678-.248L21.593,65.35l-2.471,3.739a.708.708,0,0,1-.2.2.689.689,0,0,1-.458.105l-4.449-.534.9,4.39a.687.687,0,0,1-.249.68L11.143,76.7l3.741,2.47a.686.686,0,0,1,.3.654l-.535,4.448,4.389-.9a.688.688,0,0,1,.679.248l2.769,3.524,2.47-3.739A.679.679,0,0,1,25.155,83.208Z" transform="translate(-5.883 -60.088)" fill="#c8e4f7"/>
      </g>
    </g>
    <g id="그룹_675" data-name="그룹 675" transform="translate(-420.2 55.952)">
      <g id="그룹_673" data-name="그룹 673" transform="translate(1.9 6.028)">
        <path id="패스_2145" data-name="패스 2145" d="M-241.441,202.317a.9.9,0,0,1-.1.057l-29.985,13.889a.769.769,0,0,1-.591.024.762.762,0,0,1-.433-.4.774.774,0,0,1,.276-.968.826.826,0,0,1,.1-.057l29.985-13.889a.77.77,0,0,1,1.022.374A.772.772,0,0,1-241.441,202.317Z" transform="translate(273.143 -192.335)" fill="#fff"/>
        <path id="패스_2146" data-name="패스 2146" d="M-183.616,203.689a.866.866,0,0,1-.1.056.773.773,0,0,1-1.024-.376l-2.034-4.392a.779.779,0,0,1,.276-.969,1,1,0,0,1,.1-.055.774.774,0,0,1,1.024.376l2.034,4.392A.774.774,0,0,1-183.616,203.689Z" transform="translate(213.589 -190.238)" fill="#fff"/>
        <path id="패스_2147" data-name="패스 2147" d="M-263.739,240.8a.86.86,0,0,1-.1.055.772.772,0,0,1-1.024-.376l-2.034-4.392a.774.774,0,0,1,.274-.968c.033-.02.065-.038.1-.056a.774.774,0,0,1,1.023.377l2.032,4.391A.774.774,0,0,1-263.739,240.8Z" transform="translate(269.217 -216.005)" fill="#fff"/>
        <path id="패스_2148" data-name="패스 2148" d="M-231.216,205.978a.681.681,0,0,1-.1.056.762.762,0,0,1-.589.025.766.766,0,0,1-.433-.4l-13.892-29.985a.776.776,0,0,1,.279-.969.547.547,0,0,1,.1-.055.769.769,0,0,1,.589-.025.766.766,0,0,1,.433.4l13.891,29.987A.772.772,0,0,1-231.216,205.978Z" transform="translate(254.868 -174.057)" fill="#fff"/>
        <path id="패스_2149" data-name="패스 2149" d="M-206.619,261.765a.874.874,0,0,1-.1.057l-4.392,2.034a.759.759,0,0,1-.589.024.766.766,0,0,1-.435-.4.772.772,0,0,1,.277-.966.589.589,0,0,1,.1-.055l4.392-2.036a.768.768,0,0,1,.589-.024.77.77,0,0,1,.434.4A.773.773,0,0,1-206.619,261.765Z" transform="translate(231.198 -233.609)" fill="#fff"/>
        <path id="패스_2150" data-name="패스 2150" d="M-243.732,181.651a1.147,1.147,0,0,1-.1.054l-4.39,2.034a.768.768,0,0,1-.589.024.754.754,0,0,1-.433-.4.771.771,0,0,1,.273-.967.866.866,0,0,1,.1-.057l4.392-2.034a.765.765,0,0,1,.589-.023.764.764,0,0,1,.435.4A.778.778,0,0,1-243.732,181.651Z" transform="translate(256.962 -177.985)" fill="#fff"/>
        <path id="패스_2151" data-name="패스 2151" d="M-241,205.315a.637.637,0,0,1-.1.055.752.752,0,0,1-.589.025.758.758,0,0,1-.434-.4.77.77,0,0,1-.025-.589l11.382-31.025a.752.752,0,0,1,.3-.378.754.754,0,0,1,.688-.08.763.763,0,0,1,.435.4.774.774,0,0,1,.025.587l-11.38,31.026A.76.76,0,0,1-241,205.315Z" transform="translate(252.019 -172.876)" fill="#fff"/>
        <path id="패스_2152" data-name="패스 2152" d="M-240.48,265.422a.631.631,0,0,1-.1.056.769.769,0,0,1-.591.025l-4.542-1.666a.765.765,0,0,1-.435-.4.761.761,0,0,1-.023-.589.775.775,0,0,1,.3-.379.766.766,0,0,1,.69-.078l4.544,1.667a.759.759,0,0,1,.433.4.761.761,0,0,1,.025.589A.749.749,0,0,1-240.48,265.422Z" transform="translate(254.811 -234.991)" fill="#fff"/>
        <path id="패스_2153" data-name="패스 2153" d="M-210.07,182.53a.706.706,0,0,1-.1.053.774.774,0,0,1-.591.024l-4.54-1.668a.77.77,0,0,1-.459-.989.75.75,0,0,1,.3-.377.76.76,0,0,1,.688-.08l4.543,1.666a.765.765,0,0,1,.435.4.762.762,0,0,1,.025.588A.781.781,0,0,1-210.07,182.53Z" transform="translate(233.697 -177.437)" fill="#fff"/>
        <path id="패스_2154" data-name="패스 2154" d="M-242.108,217.8a.648.648,0,0,1-.1.055.759.759,0,0,1-.587.025L-273.821,206.5a.765.765,0,0,1-.435-.4.752.752,0,0,1-.023-.589.768.768,0,0,1,.3-.379.756.756,0,0,1,.686-.078l31.026,11.38a.771.771,0,0,1,.434.4.767.767,0,0,1,.023.591A.756.756,0,0,1-242.108,217.8Z" transform="translate(274.328 -195.184)" fill="#fff"/>
        <path id="패스_2155" data-name="패스 2155" d="M-266.564,206.944a.965.965,0,0,1-.1.055.761.761,0,0,1-.589.023.765.765,0,0,1-.433-.4.762.762,0,0,1-.025-.589l1.666-4.544a.778.778,0,0,1,.3-.379.773.773,0,0,1,.69-.08.778.778,0,0,1,.434.4.763.763,0,0,1,.023.589l-1.666,4.545A.762.762,0,0,1-266.564,206.944Z" transform="translate(269.766 -192.391)" fill="#fff"/>
        <path id="패스_2156" data-name="패스 2156" d="M-183.668,237.354c-.03.019-.063.038-.1.055a.762.762,0,0,1-.589.023.772.772,0,0,1-.434-.4.757.757,0,0,1-.023-.587l1.666-4.544a.764.764,0,0,1,.3-.38.764.764,0,0,1,.686-.08.763.763,0,0,1,.434.4.76.76,0,0,1,.025.589l-1.666,4.544A.776.776,0,0,1-183.668,237.354Z" transform="translate(212.212 -213.504)" fill="#fff"/>
        <path id="패스_2157" data-name="패스 2157" d="M-238.006,213.875a.572.572,0,0,1-.088.05.692.692,0,0,1-.631-.025l-3.235-1.818-3.075,2.078a.7.7,0,0,1-.627.077.71.71,0,0,1-.429-.463l-1-3.574-3.643-.7a.7.7,0,0,1-.5-.389.69.69,0,0,1,.025-.629l1.819-3.237-2.078-3.075a.689.689,0,0,1-.076-.625.687.687,0,0,1,.271-.343.7.7,0,0,1,.193-.086l3.574-1,.7-3.643a.7.7,0,0,1,.3-.446.614.614,0,0,1,.09-.05.69.69,0,0,1,.631.024l3.235,1.819,3.076-2.082a.678.678,0,0,1,.625-.072.681.681,0,0,1,.427.461l1,3.574,3.643.706a.687.687,0,0,1,.5.387.7.7,0,0,1-.025.633l-1.818,3.233,2.024,3a.67.67,0,0,1,.115.172.694.694,0,0,1-.246.869.631.631,0,0,1-.089.05l-.023.012a.63.63,0,0,1-.09.031l-3.574,1-.705,3.643A.688.688,0,0,1-238.006,213.875Zm-4.373-3.181c.029-.019.061-.036.093-.054a.708.708,0,0,1,.633.024l2.77,1.559.6-3.121a.7.7,0,0,1,.3-.448.7.7,0,0,1,.193-.087l3.064-.858-1.781-2.634a.694.694,0,0,1-.031-.726l1.559-2.771-3.122-.6a.7.7,0,0,1-.536-.494l-.858-3.063-2.635,1.782a.7.7,0,0,1-.728.029l-2.77-1.558-.6,3.121a.693.693,0,0,1-.3.448.632.632,0,0,1-.192.087l-3.063.859,1.78,2.636a.686.686,0,0,1,.032.724l-1.559,2.773,3.12.6a.7.7,0,0,1,.536.492l.858,3.063,2.634-1.78Z" transform="translate(258.537 -188.662)" fill="#fff"/>
        <path id="패스_2158" data-name="패스 2158" d="M-240.925,205.773a.959.959,0,0,1-.086.047.711.711,0,0,1-.376.06l-5.011-.6-2.781,4.213a.694.694,0,0,1-.2.2.694.694,0,0,1-.351.113.709.709,0,0,1-.574-.265l-3.118-3.969-4.945,1.012a.7.7,0,0,1-.608-.17.694.694,0,0,1-.217-.591l.6-5.011-4.213-2.786a.689.689,0,0,1-.311-.547.7.7,0,0,1,.265-.575l3.969-3.117-1.01-4.944a.692.692,0,0,1,.168-.609.8.8,0,0,1,.13-.11.693.693,0,0,1,.461-.109l5.013.6,2.783-4.213a.723.723,0,0,1,.2-.2.731.731,0,0,1,.353-.112.7.7,0,0,1,.572.264l3.119,3.971,4.947-1.012a.7.7,0,0,1,.608.168.709.709,0,0,1,.219.593l-.6,5.012,4.213,2.781a.7.7,0,0,1,.309.55.688.688,0,0,1-.265.572l-3.969,3.121,1.01,4.944a.69.69,0,0,1-.168.607A.711.711,0,0,1-240.925,205.773Zm-6.193-1.811a.686.686,0,0,1,.462-.108l4.483.537-.9-4.423a.69.69,0,0,1,.25-.684l3.551-2.79-3.769-2.49a.7.7,0,0,1-.307-.659l.54-4.484-4.424.906a.694.694,0,0,1-.683-.252l-2.791-3.552-2.489,3.768a.688.688,0,0,1-.2.2.694.694,0,0,1-.461.108l-4.484-.539.9,4.424a.69.69,0,0,1-.25.684l-3.551,2.789,3.77,2.49a.694.694,0,0,1,.3.66l-.539,4.485,4.424-.908a.693.693,0,0,1,.683.252l2.791,3.551,2.489-3.768A.693.693,0,0,1-247.118,203.962Z" transform="translate(266.542 -180.661)" fill="#fff"/>
      </g>
      <g id="그룹_674" data-name="그룹 674" transform="translate(2.291 6.028)">
        <path id="패스_2159" data-name="패스 2159" d="M-240.164,202.317a.871.871,0,0,1-.1.057l-29.985,13.889a.765.765,0,0,1-.589.024.761.761,0,0,1-.435-.4.772.772,0,0,1,.276-.968.81.81,0,0,1,.1-.057l29.985-13.889a.773.773,0,0,1,1.024.374A.773.773,0,0,1-240.164,202.317Z" transform="translate(271.865 -192.335)" fill="#fff"/>
        <path id="패스_2160" data-name="패스 2160" d="M-182.342,203.689a.838.838,0,0,1-.1.056.774.774,0,0,1-1.024-.376l-2.034-4.392a.776.776,0,0,1,.276-.969.956.956,0,0,1,.1-.055.774.774,0,0,1,1.024.376l2.034,4.392A.774.774,0,0,1-182.342,203.689Z" transform="translate(212.312 -190.238)" fill="#fff"/>
        <path id="패스_2161" data-name="패스 2161" d="M-262.463,240.8a.706.706,0,0,1-.1.055.77.77,0,0,1-1.021-.376l-2.036-4.392a.778.778,0,0,1,.276-.968c.033-.02.065-.038.1-.056a.771.771,0,0,1,1.022.377l2.036,4.391A.772.772,0,0,1-262.463,240.8Z" transform="translate(267.94 -216.005)" fill="#fff"/>
        <path id="패스_2162" data-name="패스 2162" d="M-229.934,205.978a.674.674,0,0,1-.1.056.757.757,0,0,1-.587.025.772.772,0,0,1-.437-.4l-13.888-29.985a.774.774,0,0,1,.274-.969.722.722,0,0,1,.1-.055.774.774,0,0,1,.591-.025.766.766,0,0,1,.433.4l13.891,29.987A.772.772,0,0,1-229.934,205.978Z" transform="translate(253.587 -174.057)" fill="#fff"/>
        <path id="패스_2163" data-name="패스 2163" d="M-205.339,261.765a.878.878,0,0,1-.1.057l-4.392,2.034a.763.763,0,0,1-.591.024.767.767,0,0,1-.433-.4.774.774,0,0,1,.276-.966.538.538,0,0,1,.1-.055l4.392-2.036a.769.769,0,0,1,.589-.024.769.769,0,0,1,.433.4A.773.773,0,0,1-205.339,261.765Z" transform="translate(229.917 -233.609)" fill="#fff"/>
        <path id="패스_2164" data-name="패스 2164" d="M-242.453,181.651c-.031.018-.065.038-.1.054l-4.392,2.034a.772.772,0,0,1-.591.024.758.758,0,0,1-.431-.4.772.772,0,0,1,.275-.967.847.847,0,0,1,.1-.057l4.392-2.034a.765.765,0,0,1,.589-.023.759.759,0,0,1,.433.4A.775.775,0,0,1-242.453,181.651Z" transform="translate(255.683 -177.985)" fill="#fff"/>
        <path id="패스_2165" data-name="패스 2165" d="M-239.725,205.315a.64.64,0,0,1-.1.055.747.747,0,0,1-.587.025.76.76,0,0,1-.434-.4.762.762,0,0,1-.025-.589l11.382-31.025a.754.754,0,0,1,.3-.378.754.754,0,0,1,.688-.08.763.763,0,0,1,.435.4.755.755,0,0,1,.025.587l-11.382,31.026A.754.754,0,0,1-239.725,205.315Z" transform="translate(250.742 -172.876)" fill="#fff"/>
        <path id="패스_2166" data-name="패스 2166" d="M-239.2,265.422a.565.565,0,0,1-.1.056.763.763,0,0,1-.589.025l-4.543-1.666a.761.761,0,0,1-.435-.4.769.769,0,0,1-.024-.589.769.769,0,0,1,.3-.379.761.761,0,0,1,.688-.078l4.542,1.667a.763.763,0,0,1,.435.4.761.761,0,0,1,.024.589A.762.762,0,0,1-239.2,265.422Z" transform="translate(253.532 -234.991)" fill="#fff"/>
        <path id="패스_2167" data-name="패스 2167" d="M-208.8,182.53a.59.59,0,0,1-.1.053.774.774,0,0,1-.591.024l-4.543-1.668a.77.77,0,0,1-.457-.989.758.758,0,0,1,.3-.377.765.765,0,0,1,.69-.08l4.543,1.666a.765.765,0,0,1,.435.4.76.76,0,0,1,.025.588A.782.782,0,0,1-208.8,182.53Z" transform="translate(232.42 -177.437)" fill="#fff"/>
        <path id="패스_2168" data-name="패스 2168" d="M-240.828,217.8a.616.616,0,0,1-.1.055.763.763,0,0,1-.589.025L-272.544,206.5a.764.764,0,0,1-.433-.4.774.774,0,0,1-.024-.589.778.778,0,0,1,.3-.379.76.76,0,0,1,.688-.078l31.024,11.38a.765.765,0,0,1,.434.4.767.767,0,0,1,.025.591A.756.756,0,0,1-240.828,217.8Z" transform="translate(273.048 -195.184)" fill="#fff"/>
        <path id="패스_2169" data-name="패스 2169" d="M-265.287,206.944a.973.973,0,0,1-.1.055.761.761,0,0,1-.589.023.768.768,0,0,1-.434-.4.762.762,0,0,1-.023-.589l1.666-4.544a.761.761,0,0,1,.3-.379.767.767,0,0,1,.688-.08.777.777,0,0,1,.434.4.771.771,0,0,1,.023.589l-1.666,4.545A.762.762,0,0,1-265.287,206.944Z" transform="translate(268.489 -192.391)" fill="#fff"/>
        <path id="패스_2170" data-name="패스 2170" d="M-182.388,237.354c-.032.019-.065.038-.1.055a.762.762,0,0,1-.589.023.765.765,0,0,1-.435-.4.757.757,0,0,1-.023-.587l1.666-4.544a.78.78,0,0,1,.3-.38.768.768,0,0,1,.688-.08.764.764,0,0,1,.435.4.77.77,0,0,1,.025.589l-1.666,4.544A.781.781,0,0,1-182.388,237.354Z" transform="translate(210.933 -213.504)" fill="#fff"/>
        <path id="패스_2171" data-name="패스 2171" d="M-236.727,213.875a.575.575,0,0,1-.088.05.692.692,0,0,1-.631-.025l-3.235-1.818-3.077,2.078a.691.691,0,0,1-.625.077.694.694,0,0,1-.427-.463l-1-3.574-3.644-.7a.7.7,0,0,1-.5-.389.69.69,0,0,1,.025-.629l1.819-3.237-2.078-3.075a.694.694,0,0,1-.076-.625.686.686,0,0,1,.269-.343.741.741,0,0,1,.194-.086l3.573-1,.7-3.643a.7.7,0,0,1,.3-.446.617.617,0,0,1,.09-.05.686.686,0,0,1,.629.024l3.237,1.819c3.076-2.08,3.076-2.08,3.076-2.082a.678.678,0,0,1,.625-.072.686.686,0,0,1,.427.461l1,3.574,3.643.706a.687.687,0,0,1,.5.387.7.7,0,0,1-.024.633l-1.82,3.233,2.024,3a.632.632,0,0,1,.116.172.7.7,0,0,1-.246.869.64.64,0,0,1-.091.05l-.023.012a.535.535,0,0,1-.087.031l-3.574,1-.7,3.643A.692.692,0,0,1-236.727,213.875Zm-4.373-3.181c.031-.019.061-.036.094-.054a.7.7,0,0,1,.631.024l2.772,1.559.6-3.121a.7.7,0,0,1,.3-.448.689.689,0,0,1,.192-.087l3.062-.858-1.779-2.634a.693.693,0,0,1-.031-.726l1.557-2.771-3.12-.6a.7.7,0,0,1-.536-.494l-.858-3.063-2.634,1.782a.7.7,0,0,1-.726.029l-2.772-1.558-.6,3.121a.7.7,0,0,1-.3.448.663.663,0,0,1-.192.087l-3.064.859,1.78,2.636a.681.681,0,0,1,.031.724l-1.558,2.773,3.121.6a.694.694,0,0,1,.533.492l.86,3.063,2.632-1.78Z" transform="translate(257.258 -188.662)" fill="#fff"/>
        <path id="패스_2172" data-name="패스 2172" d="M-239.647,205.773a.616.616,0,0,1-.088.047.7.7,0,0,1-.374.06l-5.012-.6-2.781,4.213a.71.71,0,0,1-.2.2.708.708,0,0,1-.353.113.709.709,0,0,1-.574-.265l-3.119-3.969-4.945,1.012a.7.7,0,0,1-.608-.17.7.7,0,0,1-.217-.591l.6-5.011-4.213-2.786a.689.689,0,0,1-.311-.547.7.7,0,0,1,.263-.575l3.969-3.117-1.011-4.944a.7.7,0,0,1,.17-.609.739.739,0,0,1,.131-.11.687.687,0,0,1,.461-.109l5.01.6,2.785-4.213a.7.7,0,0,1,.2-.2.731.731,0,0,1,.353-.112.7.7,0,0,1,.572.264l3.12,3.971,4.945-1.012a.7.7,0,0,1,.608.168.7.7,0,0,1,.217.593l-.6,5.012,4.211,2.781a.7.7,0,0,1,.311.55.688.688,0,0,1-.265.572l-3.971,3.121,1.012,4.944a.686.686,0,0,1-.17.607A.7.7,0,0,1-239.647,205.773Zm-6.2-1.811a.693.693,0,0,1,.463-.108l4.484.537-.9-4.423a.685.685,0,0,1,.25-.684l3.551-2.79-3.768-2.49a.7.7,0,0,1-.307-.659l.54-4.484-4.425.906a.694.694,0,0,1-.683-.252l-2.79-3.552-2.491,3.768a.642.642,0,0,1-.2.2.689.689,0,0,1-.461.108l-4.484-.539.905,4.424a.69.69,0,0,1-.25.684l-3.551,2.789,3.769,2.49a.689.689,0,0,1,.307.66l-.54,4.485,4.425-.908a.693.693,0,0,1,.682.252l2.791,3.551,2.489-3.768A.687.687,0,0,1-245.842,203.962Z" transform="translate(265.264 -180.661)" fill="#fff"/>
      </g>
    </g>
    <g id="그룹_676" data-name="그룹 676" transform="translate(-392.95 100.998)">
      <path id="패스_2175" data-name="패스 2175" d="M-243.536,317.59a4.888,4.888,0,0,1-4.889,4.888,4.888,4.888,0,0,1-4.888-4.888,4.888,4.888,0,0,1,4.888-4.889A4.888,4.888,0,0,1-243.536,317.59Z" transform="translate(253.453 -311.874)" fill="#fff"/>
      <path id="패스_2176" data-name="패스 2176" d="M-242.131,318.294a4.888,4.888,0,0,1-4.887,4.889,4.888,4.888,0,0,1-4.888-4.889,4.887,4.887,0,0,1,4.888-4.887A4.887,4.887,0,0,1-242.131,318.294Z" transform="translate(252.476 -312.365)" fill="#e1f0fa"/>
    </g>
    <g id="그룹_685" data-name="그룹 685" transform="translate(-459.366 11.129)">
      <g id="그룹_678" data-name="그룹 678" transform="translate(-25 51.616)">
        <path id="패스_2199" data-name="패스 2199" d="M-385.019,205.129a12.4,12.4,0,0,0-1.476.092,13.761,13.761,0,0,0-13.031-9.346,13.7,13.7,0,0,0-7.568,2.27,10.638,10.638,0,0,0-9.993-6.984,10.634,10.634,0,0,0-10.437,8.611,8.761,8.761,0,0,0-5.24-1.732,8.8,8.8,0,0,0-8.736,7.73h-.068a12.666,12.666,0,0,0-12.666,12.666A12.666,12.666,0,0,0-441.567,231.1a12.578,12.578,0,0,0,6.147-1.592,9.121,9.121,0,0,0,9.016,7.762,9.124,9.124,0,0,0,8.217-5.158,15.488,15.488,0,0,0,12.83,6.794,15.517,15.517,0,0,0,14.75-10.7,12.148,12.148,0,0,0,5.587,1.353A12.213,12.213,0,0,0-372.8,217.342,12.214,12.214,0,0,0-385.019,205.129Z" transform="translate(454.233 -190.659)" fill="#fff"/>
        <path id="패스_2200" data-name="패스 2200" d="M-383.132,207.012a12.341,12.341,0,0,0-1.477.092,13.76,13.76,0,0,0-13.03-9.344,13.7,13.7,0,0,0-7.571,2.271,10.637,10.637,0,0,0-9.991-6.985,10.635,10.635,0,0,0-10.439,8.608,8.76,8.76,0,0,0-5.24-1.73,8.8,8.8,0,0,0-8.734,7.73l-.068,0a12.667,12.667,0,0,0-12.666,12.669,12.665,12.665,0,0,0,12.666,12.666,12.594,12.594,0,0,0,6.147-1.592,9.119,9.119,0,0,0,9.016,7.762A9.12,9.12,0,0,0-416.3,234a15.5,15.5,0,0,0,12.832,6.794,15.514,15.514,0,0,0,14.748-10.705,12.157,12.157,0,0,0,5.59,1.356,12.215,12.215,0,0,0,12.215-12.215A12.215,12.215,0,0,0-383.132,207.012Z" transform="translate(452.923 -191.969)" fill="#cce1f0"/>
      </g>
      <g id="그룹_682" data-name="그룹 682" transform="translate(146.437 70.846)">
        <path id="패스_2247" data-name="패스 2247" d="M-78.53,92.857a7.285,7.285,0,0,0-.866.054,8.081,8.081,0,0,0-7.649-5.485,8.024,8.024,0,0,0-4.44,1.333,6.248,6.248,0,0,0-5.866-4.1,6.246,6.246,0,0,0-6.127,5.054,5.124,5.124,0,0,0-3.075-1.016,5.163,5.163,0,0,0-5.125,4.536l-.04,0a7.435,7.435,0,0,0-7.434,7.434,7.434,7.434,0,0,0,7.434,7.434,7.4,7.4,0,0,0,3.609-.934,5.351,5.351,0,0,0,5.291,4.554A5.35,5.35,0,0,0-98,108.693a9.091,9.091,0,0,0,7.531,3.988A9.107,9.107,0,0,0-81.81,106.4a7.128,7.128,0,0,0,3.28.794,7.169,7.169,0,0,0,7.167-7.168A7.169,7.169,0,0,0-78.53,92.857Z" transform="translate(119.152 -84.366)" fill="#fff"/>
        <path id="패스_2248" data-name="패스 2248" d="M-77.428,93.965a7.309,7.309,0,0,0-.866.052,8.074,8.074,0,0,0-7.646-5.483,8.045,8.045,0,0,0-4.443,1.331,6.248,6.248,0,0,0-5.864-4.1,6.242,6.242,0,0,0-6.127,5.052A5.144,5.144,0,0,0-105.45,89.8a5.165,5.165,0,0,0-5.126,4.537h-.041a7.433,7.433,0,0,0-7.434,7.434,7.433,7.433,0,0,0,7.434,7.434,7.4,7.4,0,0,0,3.609-.934,5.349,5.349,0,0,0,5.291,4.553A5.352,5.352,0,0,0-96.9,109.8a9.1,9.1,0,0,0,7.531,3.986,9.1,9.1,0,0,0,8.656-6.281,7.122,7.122,0,0,0,3.28.8,7.169,7.169,0,0,0,7.17-7.169A7.168,7.168,0,0,0-77.428,93.965Z" transform="translate(118.387 -85.136)" fill="#f0f9ff"/>
      </g>
    </g>
    <g id="그룹_688" data-name="그룹 688" transform="translate(-433.431 11.087)">
      <g id="그룹_686" data-name="그룹 686" transform="translate(0 0.623)">
        <path id="패스_2276" data-name="패스 2276" d="M-360.984,97.368a.6.6,0,0,1-.087,0l-25.106-1.292a.582.582,0,0,1-.405-.193.58.58,0,0,1-.15-.423.589.589,0,0,1,.529-.553.737.737,0,0,1,.087,0l25.105,1.294a.584.584,0,0,1,.555.615A.589.589,0,0,1-360.984,97.368Z" transform="translate(386.733 -82.999)" fill="#fff"/>
        <path id="패스_2277" data-name="패스 2277" d="M-311.8,97.581a.45.45,0,0,1-.086,0,.586.586,0,0,1-.555-.615l.188-3.677a.589.589,0,0,1,.529-.552.553.553,0,0,1,.087,0,.588.588,0,0,1,.555.615l-.189,3.678A.59.59,0,0,1-311.8,97.581Z" transform="translate(335.152 -81.492)" fill="#fff"/>
        <path id="패스_2278" data-name="패스 2278" d="M-378.88,94.127a.516.516,0,0,1-.087,0,.586.586,0,0,1-.555-.615l.189-3.677a.59.59,0,0,1,.529-.554.745.745,0,0,1,.087,0,.587.587,0,0,1,.555.616l-.189,3.677A.587.587,0,0,1-378.88,94.127Z" transform="translate(381.727 -79.094)" fill="#fff"/>
        <path id="패스_2279" data-name="패스 2279" d="M-347.144,82.234a.739.739,0,0,1-.087,0,.579.579,0,0,1-.4-.192.586.586,0,0,1-.15-.424l1.293-25.106a.588.588,0,0,1,.529-.553.584.584,0,0,1,.087,0,.583.583,0,0,1,.4.193.58.58,0,0,1,.15.423l-1.293,25.106A.589.589,0,0,1-347.144,82.234Z" transform="translate(359.693 -55.959)" fill="#fff"/>
        <path id="패스_2280" data-name="패스 2280" d="M-349.091,131.61a.7.7,0,0,1-.088,0l-3.676-.188a.584.584,0,0,1-.406-.193.582.582,0,0,1-.15-.423.588.588,0,0,1,.529-.552.57.57,0,0,1,.086,0l3.677.19a.578.578,0,0,1,.405.192.579.579,0,0,1,.15.422A.588.588,0,0,1-349.091,131.61Z" transform="translate(363.598 -107.539)" fill="#fff"/>
        <path id="패스_2281" data-name="패스 2281" d="M-345.638,64.53a.759.759,0,0,1-.087,0l-3.676-.19a.578.578,0,0,1-.405-.192.579.579,0,0,1-.15-.422.59.59,0,0,1,.528-.555.588.588,0,0,1,.087,0l3.678.19a.579.579,0,0,1,.4.192.58.58,0,0,1,.149.422A.587.587,0,0,1-345.638,64.53Z" transform="translate(361.2 -60.966)" fill="#fff"/>
        <path id="패스_2282" data-name="패스 2282" d="M-375.56,87.488a.481.481,0,0,1-.087,0,.582.582,0,0,1-.406-.192.583.583,0,0,1-.15-.423.584.584,0,0,1,.193-.405l18.668-16.839a.575.575,0,0,1,.336-.148.584.584,0,0,1,.492.19.586.586,0,0,1,.15.424.576.576,0,0,1-.194.4l-18.665,16.839A.575.575,0,0,1-375.56,87.488Z" transform="translate(379.422 -65.346)" fill="#fff"/>
        <path id="패스_2283" data-name="패스 2283" d="M-371.536,118.948a.575.575,0,0,1-.086,0,.586.586,0,0,1-.405-.194l-2.466-2.733a.582.582,0,0,1-.151-.423.586.586,0,0,1,.194-.405.59.59,0,0,1,.336-.148.585.585,0,0,1,.491.19l2.466,2.735a.58.58,0,0,1,.15.422.586.586,0,0,1-.193.406A.582.582,0,0,1-371.536,118.948Z" transform="translate(378.34 -96.981)" fill="#fff"/>
        <path id="패스_2284" data-name="패스 2284" d="M-321.659,73.958a.72.72,0,0,1-.085,0,.586.586,0,0,1-.405-.194l-2.465-2.735a.585.585,0,0,1,.042-.827.571.571,0,0,1,.336-.149.576.576,0,0,1,.491.191l2.466,2.733a.586.586,0,0,1,.151.423.59.59,0,0,1-.193.406A.6.6,0,0,1-321.659,73.958Z" transform="translate(343.709 -65.744)" fill="#fff"/>
        <path id="패스_2285" data-name="패스 2285" d="M-355.73,86.328a.451.451,0,0,1-.088,0,.578.578,0,0,1-.406-.192l-16.838-18.666a.58.58,0,0,1-.15-.423.581.581,0,0,1,.194-.4.582.582,0,0,1,.337-.148.58.58,0,0,1,.49.191l16.838,18.665a.589.589,0,0,1,.151.425.58.58,0,0,1-.193.4A.572.572,0,0,1-355.73,86.328Z" transform="translate(377.347 -63.272)" fill="#fff"/>
        <path id="패스_2286" data-name="패스 2286" d="M-372,71.686a.477.477,0,0,1-.086,0,.574.574,0,0,1-.4-.193.582.582,0,0,1-.15-.423.582.582,0,0,1,.193-.4l2.734-2.466a.566.566,0,0,1,.336-.149.575.575,0,0,1,.492.19.58.58,0,0,1,.151.423.582.582,0,0,1-.194.4l-2.734,2.466A.564.564,0,0,1-372,71.686Z" transform="translate(376.949 -64.354)" fill="#fff"/>
        <path id="패스_2287" data-name="패스 2287" d="M-327.007,121.561a.741.741,0,0,1-.086,0,.582.582,0,0,1-.4-.192.591.591,0,0,1-.151-.423.585.585,0,0,1,.192-.405l2.735-2.466a.589.589,0,0,1,.337-.149.586.586,0,0,1,.492.191.585.585,0,0,1,.15.423.585.585,0,0,1-.192.405l-2.734,2.466A.583.583,0,0,1-327.007,121.561Z" transform="translate(345.712 -98.981)" fill="#fff"/>
        <path id="패스_2288" data-name="패스 2288" d="M-361.138,89.381a.536.536,0,0,1-.077,0,.529.529,0,0,1-.415-.241l-1.531-2.371-2.807.306a.526.526,0,0,1-.448-.169.533.533,0,0,1-.124-.465l.593-2.76-2.2-1.768a.525.525,0,0,1-.2-.437.52.52,0,0,1,.24-.414l2.373-1.533-.308-2.807a.526.526,0,0,1,.17-.448.532.532,0,0,1,.3-.134.5.5,0,0,1,.16.009l2.761.6,1.767-2.2a.53.53,0,0,1,.36-.194.5.5,0,0,1,.077,0,.524.524,0,0,1,.415.24l1.531,2.372,2.808-.308a.514.514,0,0,1,.447.171.524.524,0,0,1,.125.463l-.594,2.761,2.2,1.768a.526.526,0,0,1,.2.437.53.53,0,0,1-.241.416l-2.372,1.529.3,2.735a.49.49,0,0,1,.017.157.53.53,0,0,1-.474.5c-.026,0-.052,0-.079,0h-.02c-.024,0-.048-.007-.071-.012l-2.759-.593-1.768,2.2A.521.521,0,0,1-361.138,89.381Zm-1.814-3.692a.571.571,0,0,1,.082,0,.536.536,0,0,1,.417.241l1.311,2.032,1.514-1.888a.525.525,0,0,1,.361-.193.523.523,0,0,1,.16.009l2.365.509-.263-2.4a.532.532,0,0,1,.238-.5l2.032-1.311-1.887-1.515a.528.528,0,0,1-.185-.521l.509-2.364-2.405.264a.529.529,0,0,1-.5-.238l-1.312-2.033-1.514,1.887a.533.533,0,0,1-.361.195.523.523,0,0,1-.16-.01l-2.365-.509.263,2.405a.524.524,0,0,1-.237.5l-2.032,1.312,1.886,1.513a.531.531,0,0,1,.185.522l-.509,2.365,2.4-.264Z" transform="translate(373.967 -68.727)" fill="#fff"/>
        <path id="패스_2289" data-name="패스 2289" d="M-361.622,87.173a.471.471,0,0,1-.075,0,.526.526,0,0,1-.273-.092l-3.159-2.185-3.367,1.849a.535.535,0,0,1-.2.062.51.51,0,0,1-.276-.05.529.529,0,0,1-.293-.381l-.69-3.777-3.686-1.074a.528.528,0,0,1-.349-.329.529.529,0,0,1,.063-.475l2.183-3.159-1.847-3.368a.527.527,0,0,1-.014-.479.536.536,0,0,1,.381-.293l3.777-.69,1.074-3.685a.526.526,0,0,1,.33-.349.587.587,0,0,1,.127-.029.536.536,0,0,1,.349.091l3.159,2.185,3.368-1.847a.512.512,0,0,1,.2-.064.532.532,0,0,1,.277.05.53.53,0,0,1,.292.381l.69,3.779,3.686,1.073a.534.534,0,0,1,.349.33.53.53,0,0,1-.063.477l-2.183,3.158,1.848,3.367a.534.534,0,0,1,.012.481.526.526,0,0,1-.38.29l-3.779.691-1.074,3.686a.527.527,0,0,1-.329.349A.532.532,0,0,1-361.622,87.173Zm-3.525-3.417a.532.532,0,0,1,.35.091l2.826,1.953.961-3.3a.521.521,0,0,1,.411-.371l3.378-.618-1.652-3.015a.528.528,0,0,1,.028-.551l1.953-2.826-3.3-.961a.526.526,0,0,1-.372-.41l-.616-3.381-3.013,1.652a.515.515,0,0,1-.2.064.532.532,0,0,1-.349-.091l-2.825-1.952-.961,3.3a.528.528,0,0,1-.411.372l-3.381.616,1.654,3.013a.524.524,0,0,1-.028.553l-1.953,2.826,3.3.96a.525.525,0,0,1,.371.411l.618,3.38,3.012-1.653A.554.554,0,0,1-365.147,83.757Z" transform="translate(377.909 -64.783)" fill="#fff"/>
      </g>
      <g id="그룹_687" data-name="그룹 687" transform="translate(0.273 0.605)">
        <path id="패스_2290" data-name="패스 2290" d="M-360.092,97.312a.64.64,0,0,1-.087,0l-25.107-1.293a.58.58,0,0,1-.4-.192.579.579,0,0,1-.15-.423.589.589,0,0,1,.529-.554.479.479,0,0,1,.087,0l25.106,1.293a.587.587,0,0,1,.555.615A.588.588,0,0,1-360.092,97.312Z" transform="translate(385.842 -82.942)" fill="#f0f9ff"/>
        <path id="패스_2291" data-name="패스 2291" d="M-310.905,97.524a.756.756,0,0,1-.088,0,.587.587,0,0,1-.554-.616l.189-3.677a.59.59,0,0,1,.529-.553.581.581,0,0,1,.086,0,.589.589,0,0,1,.556.616l-.19,3.677A.59.59,0,0,1-310.905,97.524Z" transform="translate(334.26 -81.434)" fill="#f0f9ff"/>
        <path id="패스_2292" data-name="패스 2292" d="M-377.988,94.071a.641.641,0,0,1-.087,0,.585.585,0,0,1-.555-.615l.189-3.677a.588.588,0,0,1,.529-.553.418.418,0,0,1,.087,0,.588.588,0,0,1,.555.616l-.19,3.677A.588.588,0,0,1-377.988,94.071Z" transform="translate(380.835 -79.037)" fill="#f0f9ff"/>
        <path id="패스_2293" data-name="패스 2293" d="M-346.251,82.177a.592.592,0,0,1-.087,0,.58.58,0,0,1-.4-.193.58.58,0,0,1-.15-.424l1.293-25.105a.588.588,0,0,1,.529-.553.679.679,0,0,1,.087,0,.589.589,0,0,1,.405.194.58.58,0,0,1,.15.422l-1.293,25.106A.586.586,0,0,1-346.251,82.177Z" transform="translate(358.8 -55.902)" fill="#f0f9ff"/>
        <path id="패스_2294" data-name="패스 2294" d="M-348.2,131.555a.521.521,0,0,1-.087,0l-3.677-.188a.575.575,0,0,1-.405-.194.579.579,0,0,1-.15-.423.589.589,0,0,1,.529-.553.68.68,0,0,1,.087,0l3.677.189a.575.575,0,0,1,.405.192.581.581,0,0,1,.15.423A.59.59,0,0,1-348.2,131.555Z" transform="translate(362.707 -107.483)" fill="#f0f9ff"/>
        <path id="패스_2295" data-name="패스 2295" d="M-344.746,64.474a.522.522,0,0,1-.087,0l-3.676-.19a.582.582,0,0,1-.405-.192.585.585,0,0,1-.15-.423.589.589,0,0,1,.528-.554.752.752,0,0,1,.087,0l3.676.19a.576.576,0,0,1,.405.192.582.582,0,0,1,.15.422A.585.585,0,0,1-344.746,64.474Z" transform="translate(360.309 -60.911)" fill="#f0f9ff"/>
        <path id="패스_2296" data-name="패스 2296" d="M-374.667,87.434a.465.465,0,0,1-.087,0,.577.577,0,0,1-.4-.192.583.583,0,0,1-.151-.423.585.585,0,0,1,.194-.406l18.666-16.839a.575.575,0,0,1,.337-.147.584.584,0,0,1,.492.189.591.591,0,0,1,.15.425.585.585,0,0,1-.192.4l-18.667,16.839A.585.585,0,0,1-374.667,87.434Z" transform="translate(378.53 -65.292)" fill="#f0f9ff"/>
        <path id="패스_2297" data-name="패스 2297" d="M-370.642,118.892a.686.686,0,0,1-.087,0,.578.578,0,0,1-.405-.192l-2.466-2.735a.578.578,0,0,1-.15-.422.583.583,0,0,1,.193-.407.587.587,0,0,1,.336-.148.581.581,0,0,1,.492.191l2.465,2.734a.58.58,0,0,1,.151.423.586.586,0,0,1-.193.405A.58.58,0,0,1-370.642,118.892Z" transform="translate(377.447 -96.925)" fill="#f0f9ff"/>
        <path id="패스_2298" data-name="패스 2298" d="M-320.769,73.9a.388.388,0,0,1-.084,0,.592.592,0,0,1-.406-.193l-2.465-2.733a.586.586,0,0,1,.044-.828.576.576,0,0,1,.335-.149.585.585,0,0,1,.492.19l2.466,2.733a.58.58,0,0,1,.15.423.579.579,0,0,1-.192.405A.583.583,0,0,1-320.769,73.9Z" transform="translate(342.819 -65.689)" fill="#f0f9ff"/>
        <path id="패스_2299" data-name="패스 2299" d="M-354.84,86.272a.761.761,0,0,1-.087,0,.58.58,0,0,1-.4-.192l-16.84-18.666a.588.588,0,0,1-.15-.425.588.588,0,0,1,.194-.4.584.584,0,0,1,.337-.147.58.58,0,0,1,.491.19L-354.462,85.3a.586.586,0,0,1,.151.423.588.588,0,0,1-.193.4A.579.579,0,0,1-354.84,86.272Z" transform="translate(376.455 -63.216)" fill="#f0f9ff"/>
        <path id="패스_2300" data-name="패스 2300" d="M-371.106,71.63a.584.584,0,0,1-.086,0,.574.574,0,0,1-.4-.193.579.579,0,0,1-.151-.422.585.585,0,0,1,.193-.405l2.734-2.466a.58.58,0,0,1,.337-.149.583.583,0,0,1,.492.191.581.581,0,0,1,.15.422.586.586,0,0,1-.193.406l-2.735,2.466A.584.584,0,0,1-371.106,71.63Z" transform="translate(376.057 -64.297)" fill="#f0f9ff"/>
        <path id="패스_2301" data-name="패스 2301" d="M-326.114,121.507c-.028,0-.057,0-.086,0a.583.583,0,0,1-.4-.194.576.576,0,0,1-.151-.423.576.576,0,0,1,.192-.4l2.733-2.466a.574.574,0,0,1,.337-.149.578.578,0,0,1,.492.19.582.582,0,0,1,.151.424.578.578,0,0,1-.193.4l-2.733,2.466A.589.589,0,0,1-326.114,121.507Z" transform="translate(344.819 -98.926)" fill="#f0f9ff"/>
        <path id="패스_2302" data-name="패스 2302" d="M-360.246,89.326a.636.636,0,0,1-.076,0,.529.529,0,0,1-.415-.241l-1.531-2.372-2.807.307a.527.527,0,0,1-.449-.17.53.53,0,0,1-.124-.464l.594-2.761-2.2-1.766a.529.529,0,0,1-.2-.438.525.525,0,0,1,.24-.414l2.372-1.532-.307-2.808a.525.525,0,0,1,.17-.447.526.526,0,0,1,.3-.134.486.486,0,0,1,.16.01l2.761.594,1.767-2.2a.532.532,0,0,1,.36-.195.648.648,0,0,1,.077,0,.527.527,0,0,1,.415.241l1.531,2.37,2.811-.307a.525.525,0,0,1,.447.173.524.524,0,0,1,.122.462l-.592,2.761,2.2,1.767a.528.528,0,0,1,.2.438.53.53,0,0,1-.241.415l-2.372,1.531.3,2.733a.474.474,0,0,1,.016.158.528.528,0,0,1-.474.5.5.5,0,0,1-.077,0h-.02c-.024,0-.048-.005-.07-.01l-2.762-.594-1.766,2.2A.533.533,0,0,1-360.246,89.326Zm-1.814-3.694a.744.744,0,0,1,.082,0,.535.535,0,0,1,.418.24l1.311,2.032,1.514-1.886a.528.528,0,0,1,.36-.194.483.483,0,0,1,.16.01l2.366.507-.265-2.4a.532.532,0,0,1,.238-.5l2.032-1.311-1.886-1.513a.527.527,0,0,1-.185-.522l.508-2.366-2.405.263a.528.528,0,0,1-.5-.238l-1.313-2.032-1.514,1.887a.531.531,0,0,1-.36.2.555.555,0,0,1-.16-.01l-2.365-.509.263,2.405a.524.524,0,0,1-.237.5l-2.033,1.312,1.886,1.513a.53.53,0,0,1,.185.521l-.509,2.366,2.4-.264Z" transform="translate(373.075 -68.671)" fill="#f0f9ff"/>
        <path id="패스_2303" data-name="패스 2303" d="M-360.73,87.119c-.025,0-.051,0-.076,0a.521.521,0,0,1-.272-.094l-3.159-2.184-3.367,1.849a.514.514,0,0,1-.2.062.528.528,0,0,1-.276-.048.537.537,0,0,1-.293-.382l-.689-3.777-3.686-1.074a.529.529,0,0,1-.35-.329.527.527,0,0,1,.064-.476l2.183-3.159-1.847-3.368a.53.53,0,0,1-.014-.48.532.532,0,0,1,.381-.292l3.777-.69,1.074-3.687a.528.528,0,0,1,.33-.349.551.551,0,0,1,.127-.028.526.526,0,0,1,.349.09l3.158,2.184,3.368-1.847a.5.5,0,0,1,.2-.062.529.529,0,0,1,.277.049.526.526,0,0,1,.292.38l.691,3.779L-355,74.263a.528.528,0,0,1,.349.33.528.528,0,0,1-.064.475l-2.183,3.159,1.847,3.367a.53.53,0,0,1,.014.48.531.531,0,0,1-.382.292l-3.777.69-1.075,3.687a.523.523,0,0,1-.327.348A.536.536,0,0,1-360.73,87.119Zm-3.525-3.418a.54.54,0,0,1,.349.091l2.826,1.954.96-3.3a.525.525,0,0,1,.412-.371l3.379-.618-1.653-3.013a.531.531,0,0,1,.028-.552L-356,75.069l-3.3-.961a.524.524,0,0,1-.372-.41l-.618-3.381L-363.3,71.97a.494.494,0,0,1-.2.063.514.514,0,0,1-.349-.09l-2.826-1.952-.961,3.3a.526.526,0,0,1-.411.372l-3.38.616,1.653,3.013a.524.524,0,0,1-.029.552l-1.953,2.827,3.3.959a.528.528,0,0,1,.371.412l.617,3.379,3.013-1.651A.532.532,0,0,1-364.255,83.7Z" transform="translate(377.017 -64.728)" fill="#f0f9ff"/>
      </g>
    </g>
    <g id="그룹_689" data-name="그룹 689" transform="translate(-472.891 66.773)">
      <path id="패스_2306" data-name="패스 2306" d="M-360.517,230.261a6.561,6.561,0,0,1-6.559,6.561,6.561,6.561,0,0,1-6.561-6.561,6.561,6.561,0,0,1,6.561-6.56A6.561,6.561,0,0,1-360.517,230.261Z" transform="translate(373.827 -222.594)" fill="#fff"/>
      <path id="패스_2307" data-name="패스 2307" d="M-358.634,231.209a6.559,6.559,0,0,1-6.561,6.558,6.559,6.559,0,0,1-6.56-6.558,6.56,6.56,0,0,1,6.56-6.561A6.56,6.56,0,0,1-358.634,231.209Z" transform="translate(372.519 -223.251)" fill="#fff"/>
    </g>
    <g id="그룹_690" data-name="그룹 690" transform="translate(-271.723 80.154)">
      <path id="패스_2310" data-name="패스 2310" d="M-31.39,252.358a3.725,3.725,0,0,1-3.725,3.725,3.726,3.726,0,0,1-3.726-3.725,3.726,3.726,0,0,1,3.726-3.726A3.724,3.724,0,0,1-31.39,252.358Z" transform="translate(38.947 -248.001)" fill="#fff"/>
      <path id="패스_2311" data-name="패스 2311" d="M-30.323,252.891a3.726,3.726,0,0,1-3.726,3.726,3.727,3.727,0,0,1-3.728-3.726,3.726,3.726,0,0,1,3.728-3.725A3.725,3.725,0,0,1-30.323,252.891Z" transform="translate(38.209 -248.372)" fill="#c8e4f7"/>
    </g>
    <g id="그룹_691" data-name="그룹 691" transform="translate(-404.465 42.892)">
      <path id="패스_2314" data-name="패스 2314" d="M-305.1,148.7a3.726,3.726,0,0,1-3.726,3.728,3.726,3.726,0,0,1-3.725-3.728,3.725,3.725,0,0,1,3.725-3.725A3.726,3.726,0,0,1-305.1,148.7Z" transform="translate(312.654 -144.341)" fill="#fff"/>
      <path id="패스_2315" data-name="패스 2315" d="M-304.022,149.234a3.726,3.726,0,0,1-3.728,3.725,3.725,3.725,0,0,1-3.723-3.725,3.726,3.726,0,0,1,3.723-3.726A3.727,3.727,0,0,1-304.022,149.234Z" transform="translate(311.909 -144.715)" fill="#e1f0fa"/>
    </g>
    <g id="그룹_692" data-name="그룹 692" transform="translate(-415.926 94.162)">
      <path id="패스_2318" data-name="패스 2318" d="M-322.727,292.233a2.96,2.96,0,0,1-2.96,2.96,2.96,2.96,0,0,1-2.961-2.96,2.962,2.962,0,0,1,2.961-2.962A2.961,2.961,0,0,1-322.727,292.233Z" transform="translate(328.734 -288.772)" fill="#fff"/>
      <ellipse id="타원_71" data-name="타원 71" cx="2.961" cy="2.96" rx="2.961" ry="2.96" transform="translate(0.345 0.632)" fill="#f0f9ff"/>
    </g>
    <g id="그룹_693" data-name="그룹 693" transform="translate(-449.785 42.947)">
      <path id="패스_2321" data-name="패스 2321" d="M-134.184,179.928a2.713,2.713,0,0,1-2.714,2.712,2.712,2.712,0,0,1-2.713-2.712,2.714,2.714,0,0,1,2.713-2.714A2.715,2.715,0,0,1-134.184,179.928Z" transform="translate(139.689 -176.756)" fill="#fff"/>
      <path id="패스_2322" data-name="패스 2322" d="M-133.406,180.321a2.713,2.713,0,0,1-2.712,2.712,2.712,2.712,0,0,1-2.715-2.712,2.713,2.713,0,0,1,2.715-2.713A2.713,2.713,0,0,1-133.406,180.321Z" transform="translate(139.149 -177.03)" fill="#c8e4f7"/>
    </g>
    <g id="그룹_694" data-name="그룹 694" transform="translate(-308.8 55.719)">
      <path id="패스_2325" data-name="패스 2325" d="M-37.829,204.126a2.041,2.041,0,0,1-2.04,2.042,2.041,2.041,0,0,1-2.039-2.042,2.039,2.039,0,0,1,2.039-2.04A2.04,2.04,0,0,1-37.829,204.126Z" transform="translate(41.967 -201.74)" fill="#fff"/>
      <path id="패스_2326" data-name="패스 2326" d="M-37.245,204.418a2.04,2.04,0,0,1-2.042,2.04,2.041,2.041,0,0,1-2.039-2.04,2.043,2.043,0,0,1,2.039-2.043A2.042,2.042,0,0,1-37.245,204.418Z" transform="translate(41.564 -201.941)" fill="#f0f9ff"/>
    </g>
    <g id="그룹_695" data-name="그룹 695" transform="translate(-358.129 26.717)">
      <path id="패스_2329" data-name="패스 2329" d="M-269.525,105.079a2.042,2.042,0,0,1-2.041,2.042,2.042,2.042,0,0,1-2.041-2.042,2.041,2.041,0,0,1,2.041-2.04A2.041,2.041,0,0,1-269.525,105.079Z" transform="translate(273.666 -102.693)" fill="#fff"/>
      <path id="패스_2330" data-name="패스 2330" d="M-268.938,105.372a2.04,2.04,0,0,1-2.041,2.039,2.039,2.039,0,0,1-2.041-2.039,2.041,2.041,0,0,1,2.041-2.042A2.041,2.041,0,0,1-268.938,105.372Z" transform="translate(273.258 -102.895)" fill="#f0f9ff"/>
    </g>
  </g>
</svg>
