<svg xmlns="http://www.w3.org/2000/svg" xmlns:xlink="http://www.w3.org/1999/xlink" width="168.116" height="169.345" viewBox="0 0 168.116 169.345">
  <defs>
    <linearGradient id="linear-gradient" x1="0.01" y1="0.249" x2="0.99" y2="0.751" gradientUnits="objectBoundingBox">
      <stop offset="0" stop-color="#ffd45c"/>
      <stop offset="1" stop-color="#ff9d00"/>
    </linearGradient>
    <linearGradient id="linear-gradient-2" x1="0.01" y1="0.249" x2="0.99" y2="0.751" xlink:href="#linear-gradient"/>
    <linearGradient id="linear-gradient-3" x1="194.435" y1="30.441" x2="193.934" y2="31.421" xlink:href="#linear-gradient"/>
    <linearGradient id="linear-gradient-4" x1="190.956" y1="37.276" x2="190.455" y2="38.257" xlink:href="#linear-gradient"/>
    <linearGradient id="linear-gradient-5" x1="317.341" y1="161.198" x2="316.62" y2="161.198" xlink:href="#linear-gradient"/>
    <linearGradient id="linear-gradient-6" x1="313.861" y1="169.596" x2="313.14" y2="169.596" xlink:href="#linear-gradient"/>
    <linearGradient id="linear-gradient-7" x1="104.727" y1="336.178" x2="104.727" y2="334.767" xlink:href="#linear-gradient"/>
    <linearGradient id="linear-gradient-8" x1="108.212" y1="344.558" x2="108.212" y2="343.147" xlink:href="#linear-gradient"/>
    <linearGradient id="linear-gradient-9" x1="0.146" y1="-0.097" x2="0.854" y2="1.097" gradientUnits="objectBoundingBox">
      <stop offset="0" stop-color="#ffbb31"/>
      <stop offset="1" stop-color="#ff9d00"/>
    </linearGradient>
    <linearGradient id="linear-gradient-10" x1="0.146" y1="-0.097" x2="0.854" y2="1.097" xlink:href="#linear-gradient-9"/>
    <linearGradient id="linear-gradient-11" x1="-0.097" y1="0.147" x2="1.097" y2="0.854" xlink:href="#linear-gradient-9"/>
    <linearGradient id="linear-gradient-12" x1="-0.097" y1="0.146" x2="1.097" y2="0.854" xlink:href="#linear-gradient-9"/>
    <linearGradient id="linear-gradient-13" x1="0.291" y1="0.146" x2="0.709" y2="0.853" xlink:href="#linear-gradient-9"/>
    <linearGradient id="linear-gradient-14" x1="0.29" y1="0.146" x2="0.71" y2="0.854" xlink:href="#linear-gradient-9"/>
    <linearGradient id="linear-gradient-15" x1="0.146" y1="0.29" x2="0.854" y2="0.709" xlink:href="#linear-gradient-9"/>
    <linearGradient id="linear-gradient-16" x1="0.146" y1="0.29" x2="0.853" y2="0.71" xlink:href="#linear-gradient-9"/>
    <linearGradient id="linear-gradient-17" x1="0.146" y1="0.146" x2="0.854" y2="0.854" xlink:href="#linear-gradient"/>
  </defs>
  <g id="그룹_763" data-name="그룹 763" transform="translate(8.989 192.667) rotate(45)">
    <g id="그룹_457" data-name="그룹 457" transform="translate(-107.731 -213.894)">
      <path id="패스_1496" data-name="패스 1496" d="M-64.189-198.148c0,10.331-9.557,18.7-9.557,18.7s-9.565-8.371-9.565-18.7,9.565-18.7,9.565-18.7S-64.189-208.476-64.189-198.148Z" transform="translate(157.76 216.847)" fill="#ffe3ab"/>
      <path id="패스_1497" data-name="패스 1497" d="M-64.189-150.206c0,10.325-9.557,18.7-9.557,18.7s-9.565-8.371-9.565-18.7,9.565-18.7,9.565-18.7S-64.189-160.539-64.189-150.206Z" transform="translate(157.76 299.539)" fill="#ffe3ab"/>
      <path id="패스_1498" data-name="패스 1498" d="M-91.932-189.525c10.328,0,18.7,9.559,18.7,9.559s-8.369,9.559-18.7,9.559-18.7-9.559-18.7-9.559S-102.26-189.525-91.932-189.525Z" transform="translate(110.631 263.978)" fill="#ffe3ab"/>
      <path id="패스_1499" data-name="패스 1499" d="M-43.99-189.525c10.328,0,18.7,9.559,18.7,9.559s-8.371,9.559-18.7,9.559-18.7-9.559-18.7-9.559S-54.321-189.525-43.99-189.525Z" transform="translate(193.321 263.978)" fill="#ffe3ab"/>
      <path id="패스_1500" data-name="패스 1500" d="M-95.119-167.44c7.3-7.3,19.983-6.461,19.983-6.461s.837,12.68-6.466,19.983-19.98,6.464-19.98,6.464S-102.422-160.135-95.119-167.44Z" transform="translate(126.189 290.878)" fill="#ffe3ab"/>
      <path id="패스_1501" data-name="패스 1501" d="M-61.224-201.331c7.3-7.3,19.985-6.469,19.985-6.469s.834,12.682-6.466,19.983-19.98,6.466-19.98,6.466S-68.527-194.03-61.224-201.331Z" transform="translate(184.662 232.404)" fill="#ffe3ab"/>
      <path id="패스_1502" data-name="패스 1502" d="M-61.224-153.919c-7.3-7.3-6.461-19.983-6.461-19.983s12.677-.842,19.98,6.461,6.466,19.985,6.466,19.985S-53.921-146.618-61.224-153.919Z" transform="translate(184.662 290.878)" fill="#ffe3ab"/>
      <path id="패스_1503" data-name="패스 1503" d="M-95.121-187.817c-7.3-7.3-6.461-19.983-6.461-19.983s12.677-.834,19.98,6.469,6.466,19.98,6.466,19.98S-87.816-180.514-95.121-187.817Z" transform="translate(126.189 232.404)" fill="#ffe3ab"/>
    </g>
    <g id="그룹_458" data-name="그룹 458" transform="translate(-97.883 -204.046)">
      <path id="패스_1504" data-name="패스 1504" d="M-51.836-164.6c-7.633-3.158-10.892-12.786-10.892-12.786s9.112-4.5,16.748-1.343,10.895,12.791,10.895,12.791S-44.2-161.433-51.836-164.6Z" transform="translate(183.416 270.82)" fill="#ffe3ab"/>
      <path id="패스_1505" data-name="패스 1505" d="M-96.122-182.939c-7.633-3.158-10.895-12.788-10.895-12.788s9.112-4.5,16.751-1.338,10.892,12.786,10.892,12.786S-88.487-179.778-96.122-182.939Z" transform="translate(107.017 239.176)" fill="#ffe3ab"/>
      <path id="패스_1506" data-name="패스 1506" d="M-76.722-202.336c3.161,7.633-1.341,16.745-1.341,16.745s-9.627-3.259-12.791-10.892,1.341-16.751,1.341-16.751S-79.885-209.968-76.722-202.336Z" transform="translate(132.958 213.233)" fill="#ffe3ab"/>
      <path id="패스_1507" data-name="패스 1507" d="M-58.38-158.049c3.166,7.633-1.338,16.748-1.338,16.748s-9.63-3.262-12.791-10.895,1.343-16.748,1.343-16.748S-61.544-165.682-58.38-158.049Z" transform="translate(164.604 289.632)" fill="#ffe3ab"/>
      <path id="패스_1508" data-name="패스 1508" d="M-96.122-178.726c7.635-3.158,16.748,1.343,16.748,1.343s-3.262,9.628-10.892,12.786-16.751-1.338-16.751-1.338S-103.755-175.565-96.122-178.726Z" transform="translate(107.017 270.82)" fill="#ffe3ab"/>
      <path id="패스_1509" data-name="패스 1509" d="M-51.836-197.068c7.635-3.164,16.751,1.341,16.751,1.341s-3.262,9.625-10.895,12.788-16.748-1.341-16.748-1.341S-59.469-193.9-51.836-197.068Z" transform="translate(183.416 239.175)" fill="#ffe3ab"/>
      <path id="패스_1510" data-name="패스 1510" d="M-90.854-158.049c3.164-7.633,12.791-10.895,12.791-10.895s4.5,9.115,1.341,16.748S-89.513-141.3-89.513-141.3-94.015-150.417-90.854-158.049Z" transform="translate(132.958 289.632)" fill="#ffe3ab"/>
      <path id="패스_1511" data-name="패스 1511" d="M-72.51-202.336c3.161-7.633,12.791-10.9,12.791-10.9s4.5,9.112,1.338,16.751S-71.166-185.59-71.166-185.59-75.668-194.7-72.51-202.336Z" transform="translate(164.604 213.233)" fill="#ffe3ab"/>
    </g>
    <g id="그룹_459" data-name="그룹 459" transform="translate(-106.862 -213.022)">
      <path id="패스_1512" data-name="패스 1512" d="M-63.875-197.831c0,10.331-9.557,18.7-9.557,18.7s-9.557-8.374-9.557-18.7,9.557-18.7,9.557-18.7S-63.875-208.156-63.875-197.831Z" transform="translate(157.446 216.527)" fill="url(#linear-gradient)"/>
      <path id="패스_1513" data-name="패스 1513" d="M-63.875-149.892c0,10.331-9.557,18.7-9.557,18.7s-9.557-8.374-9.557-18.7,9.557-18.7,9.557-18.7S-63.875-160.217-63.875-149.892Z" transform="translate(157.446 299.217)" fill="url(#linear-gradient-2)"/>
      <path id="패스_1514" data-name="패스 1514" d="M-91.613-189.2c10.331,0,18.7,9.557,18.7,9.557s-8.371,9.554-18.7,9.554-18.7-9.554-18.7-9.554S-101.941-189.2-91.613-189.2Z" transform="translate(110.312 263.661)" fill="url(#linear-gradient-3)"/>
      <path id="패스_1515" data-name="패스 1515" d="M-43.678-189.2c10.331,0,18.7,9.557,18.7,9.557s-8.371,9.554-18.7,9.554-18.7-9.554-18.7-9.554S-54-189.2-43.678-189.2Z" transform="translate(193.006 263.661)" fill="url(#linear-gradient-4)"/>
      <path id="패스_1516" data-name="패스 1516" d="M-94.8-167.118c7.3-7.306,19.98-6.464,19.98-6.464s.842,12.674-6.464,19.98-19.983,6.464-19.983,6.464S-102.105-159.815-94.8-167.118Z" transform="translate(125.87 290.558)" fill="url(#linear-gradient-5)"/>
      <path id="패스_1517" data-name="패스 1517" d="M-60.9-201.015c7.3-7.306,19.98-6.464,19.98-6.464s.839,12.677-6.464,19.98-19.983,6.466-19.983,6.466S-68.206-193.712-60.9-201.015Z" transform="translate(184.343 232.085)" fill="url(#linear-gradient-6)"/>
      <path id="패스_1518" data-name="패스 1518" d="M-60.9-153.6c-7.306-7.3-6.466-19.98-6.466-19.98s12.674-.842,19.983,6.464,6.464,19.98,6.464,19.98S-53.6-146.3-60.9-153.6Z" transform="translate(184.343 290.558)" fill="url(#linear-gradient-7)"/>
      <path id="패스_1519" data-name="패스 1519" d="M-94.8-187.5c-7.309-7.3-6.466-19.98-6.466-19.98s12.682-.842,19.983,6.464,6.464,19.982,6.464,19.982S-87.5-180.193-94.8-187.5Z" transform="translate(125.87 232.085)" fill="url(#linear-gradient-8)"/>
    </g>
    <g id="그룹_460" data-name="그룹 460" transform="translate(-97.011 -203.171)">
      <path id="패스_1520" data-name="패스 1520" d="M-51.512-164.272c-7.636-3.164-10.9-12.794-10.9-12.794s9.115-4.5,16.748-1.338,10.895,12.791,10.895,12.791S-43.882-161.111-51.512-164.272Z" transform="translate(183.095 270.496)" fill="url(#linear-gradient-9)"/>
      <path id="패스_1521" data-name="패스 1521" d="M-95.8-182.62c-7.63-3.161-10.895-12.789-10.895-12.789s9.115-4.5,16.745-1.341,10.9,12.788,10.9,12.788S-88.17-179.457-95.8-182.62Z" transform="translate(106.697 238.851)" fill="url(#linear-gradient-10)"/>
      <path id="패스_1522" data-name="패스 1522" d="M-76.407-202.017c3.164,7.633-1.338,16.745-1.338,16.745s-9.627-3.259-12.789-10.895,1.343-16.745,1.343-16.745S-79.568-209.653-76.407-202.017Z" transform="translate(132.637 212.912)" fill="url(#linear-gradient-11)"/>
      <path id="패스_1523" data-name="패스 1523" d="M-58.058-157.729C-54.9-150.1-59.4-140.984-59.4-140.984s-9.63-3.262-12.791-10.895,1.341-16.745,1.341-16.745S-61.219-165.365-58.058-157.729Z" transform="translate(164.282 289.31)" fill="url(#linear-gradient-12)"/>
      <path id="패스_1524" data-name="패스 1524" d="M-95.8-178.4c7.633-3.161,16.751,1.338,16.751,1.338s-3.262,9.63-10.9,12.789-16.745-1.335-16.745-1.335S-103.432-175.238-95.8-178.4Z" transform="translate(106.697 270.496)" fill="url(#linear-gradient-13)"/>
      <path id="패스_1525" data-name="패스 1525" d="M-51.512-196.75c7.63-3.161,16.745,1.341,16.745,1.341s-3.262,9.628-10.895,12.789-16.748-1.341-16.748-1.341S-59.147-193.586-51.512-196.75Z" transform="translate(183.095 238.851)" fill="url(#linear-gradient-14)"/>
      <path id="패스_1526" data-name="패스 1526" d="M-90.533-157.729c3.161-7.635,12.789-10.895,12.789-10.895s4.5,9.115,1.338,16.745S-89.19-140.984-89.19-140.984-93.7-150.1-90.533-157.729Z" transform="translate(132.637 289.31)" fill="url(#linear-gradient-15)"/>
      <path id="패스_1527" data-name="패스 1527" d="M-72.19-202.017c3.161-7.635,12.791-10.895,12.791-10.895s4.5,9.112,1.341,16.742-12.791,10.9-12.791,10.9S-75.349-194.385-72.19-202.017Z" transform="translate(164.282 212.912)" fill="url(#linear-gradient-16)"/>
    </g>
    <path id="패스_1550" data-name="패스 1550" d="M7.153-152.31A53.245,53.245,0,0,1-46.091-99.063a53.248,53.248,0,0,1-53.25-53.247,53.25,53.25,0,0,1,53.25-53.247A53.247,53.247,0,0,1,7.153-152.31Z" transform="translate(22.375 22.429)" fill="#ffe3ab"/>
    <circle id="타원_32" data-name="타원 32" cx="53.25" cy="53.25" r="53.25" transform="translate(-76.096 -182.258)" fill="url(#linear-gradient-17)"/>
  </g>
</svg>
