<svg xmlns="http://www.w3.org/2000/svg" width="24" height="24" viewBox="0 0 24 24">
  <g id="ico_home" transform="translate(-41.005 0.201)">
    <rect id="사각형_892" data-name="사각형 892" width="24" height="24" transform="translate(41.005 -0.201)" fill="none"/>
    <g id="그룹_899" data-name="그룹 899" transform="translate(42.005 1.799)">
      <path id="패스_5057" data-name="패스 5057" d="M5,19.952V9H3V21.943H21.027V9h-2V19.952Z" transform="translate(-1.014 -1.943)" fill="#7f85a0" fill-rule="evenodd"/>
      <path id="패스_5058" data-name="패스 5058" d="M22.009,11.959a.964.964,0,0,1-.62-.219L12.625,4.81a1,1,0,0,0-1.241,0L2.631,11.74a1.016,1.016,0,0,1-1.411-.159,1,1,0,0,1,.16-1.4l8.754-6.93a3,3,0,0,1,3.732,0l8.764,6.93a1,1,0,0,1-.62,1.782Z" transform="translate(-1.005 -2.598)" fill="#7f85a0"/>
      <path id="패스_5059" data-name="패스 5059" d="M10.983,13.991v5.974H8.991V13.991ZM12.974,12H7v9.956h5.974Z" transform="translate(1.013 -1.956)" fill="#7f85a0"/>
    </g>
  </g>
</svg>
